<?xml version="1.0" encoding="UTF-8"?>
<svg xmlns="http://www.w3.org/2000/svg" viewBox="0 0 137 120">
  <defs>
    <style>
      .stroke-width {
        stroke-width: .5px;
      }

      .stroke-color-1 {
        stroke: #fa4013;
      }

      .stroke-color-2 {
        stroke: #9cd323;
      }

      .stroke-color-3 {
        stroke:#404272;
      }

      .stroke-color-4 {
        stroke: #ffffff;
      }      
    </style>
    <linearGradient id="color-1" gradientTransform="rotate(90)">
      <stop offset="0%" stop-color="#fa4013" />
      <stop offset="100%" stop-color="#fa4013" />
      <stop offset="100%" stop-color="white" />
    </linearGradient>
    <linearGradient id="color-2" gradientTransform="rotate(90)">
      <stop offset="0%" stop-color="#9cd323" />
      <stop offset="100%" stop-color="#9cd323"/>
      <stop offset="100%" stop-color="white" />
    </linearGradient>
    <linearGradient id="color-3" gradientTransform="rotate(90)">
      <stop offset="0%" stop-color="#404272" />
      <stop offset="100%" stop-color="#404272" />
      <stop offset="100%" stop-color="white" />
    </linearGradient>   
    <linearGradient id="color-4" gradientTransform="rotate(90)">
      <stop offset="0%" stop-color="#ffffff" />
      <stop offset="100%" stop-color="#ffffff" />
      <stop offset="100%" stop-color="white" />
    </linearGradient>  
  </defs>
    <path class="color-3" d="m120.41,90.09c2.21,0,4-1.79,4-4s-1.79-4-4-4-4,1.79-4,4,1.79,4,4,4Z" fill="url(#color-3)"/>
    <path class="color-1" d="m17.85,97.93c2.21,0,4-1.79,4-4s-1.79-4-4-4-4,1.79-4,4,1.79,4,4,4Z" fill="url(#color-1)"/>
    <path class="color-2" d="m114.27,75.53c1.66,0,3-1.34,3-3s-1.34-3-3-3-3,1.34-3,3,1.34,3,3,3Z" fill="url(#color-2)"/>
    <path class="color-2" d="m13.85,41.07c1.66,0,3-1.34,3-3s-1.34-3-3-3-3,1.34-3,3,1.34,3,3,3Z" fill="url(#color-2)"/>
    <path class="color-3" d="m101.13,24.07H31.45c-2.81,0-5.09,2.28-5.09,5.09s2.28,5.09,5.09,5.09h69.69c2.81,0,5.09-2.28,5.09-5.09s-2.28-5.09-5.09-5.09Z" fill="url(#color-3)"/>
    <path class="color-1" d="m90.29,45.48v-8.35h-47.7v8.35c0,4.48-3.52,8.12-7.94,8.33.14,0,.28.02.41.02h63.15c.07,0,.15,0,.22-.01-4.51-.12-8.14-3.81-8.14-8.34Z" fill="url(#color-1)"/>
    <path class="color-1" d="m42.6,12.52v8.35h47.7v-8.35c0-4.54,3.63-8.22,8.14-8.34-.07,0-.15-.01-.22-.01h-63.15c-.14,0-.28.01-.41.02,4.42.22,7.94,3.86,7.94,8.33Z" fill="url(#color-1)"/>
    <path class="color-1" d="m98.65,4.17c-.07,0-.15,0-.22.01,4.51.12,8.14,3.8,8.14,8.34s-3.74,8.35-8.35,8.35h-7.92v16.24h7.92c4.61,0,8.35,3.74,8.35,8.35s-3.63,8.22-8.14,8.34c.07,0,.15.01.22.01,4.61,0,8.35-3.74,8.35-8.35V12.52c0-4.61-3.74-8.35-8.35-8.35Z" fill="url(#color-1)"/>
    <path class="color-2" d="m106.57,45.48c0-4.61-3.74-8.35-8.35-8.35h-7.92v8.35c0,4.54,3.63,8.22,8.14,8.34,4.51-.12,8.14-3.81,8.14-8.34Z" fill="url(#color-2)"/>
    <path class="color-2" d="m90.29,12.52v8.35h7.92c4.61,0,8.35-3.74,8.35-8.35s-3.63-8.22-8.14-8.34c-4.51.12-8.14,3.8-8.14,8.34Z" fill="url(#color-2)"/>
    <path class="color-1" d="m26.71,45.48c0-4.61,3.74-8.35,8.35-8.35h7.53v-16.24h-7.53c-4.61,0-8.35-3.74-8.35-8.35s3.52-8.12,7.94-8.33c-.14,0-.28-.02-.41-.02-4.61,0-8.35,3.74-8.35,8.35v32.95c0,4.61,3.74,8.35,8.35,8.35.14,0,.28-.01.41-.02-4.42-.22-7.94-3.86-7.94-8.33Z" fill="url(#color-1)"/>
    <path class="color-2" d="m42.6,45.48v-8.35h-7.53c-4.61,0-8.35,3.74-8.35,8.35s3.52,8.12,7.94,8.33c4.42-.22,7.94-3.86,7.94-8.33h0Z" fill="url(#color-2)"/>
    <path class="color-2" d="m26.71,12.52c0,4.61,3.74,8.35,8.35,8.35h7.53v-8.35c0-4.48-3.52-8.12-7.94-8.33-4.42.22-7.94,3.86-7.94,8.33h0Z" fill="url(#color-2)"/>
    <path class="color-3" d="m45.87,115.83c-3.58,0-6.94-2.22-8.21-5.79-1.62-4.53.74-9.52,5.28-11.14,8.91-3.18,10.65-13.45,11.22-16.82,1.37-8.11.33-15.7.32-15.77-.67-4.76,2.63-9.18,7.39-9.86,4.76-.69,9.17,2.6,9.87,7.35.06.4,1.42,9.97-.31,20.69-2.54,15.79-10.37,26.44-22.63,30.83-.97.35-1.96.51-2.94.51h0Z" fill="url(#color-3)"/>
    <path class="color-1" d="m43.72,64.18h-8.98c-4.61,0-8.35,3.74-8.35,8.35s3.74,8.35,8.35,8.35h8.98c4.61,0,8.35-3.74,8.35-8.35s-3.74-8.35-8.35-8.35Z" fill="url(#color-2)"/>
    <path class="color-1" d="m80.18,112.48c-3.22,0-6.32-1.79-7.83-4.87-2.12-4.32-.34-9.55,3.98-11.67,5.72-2.81,9.23-9.79,11.17-15.15h-4.76c-4.82,0-8.72-3.9-8.72-8.72s3.9-8.72,8.72-8.72h9.58c4.42,0,8.49,1.98,11.16,5.41,2.56,3.31,3.44,7.51,2.4,11.54-2.27,8.79-8.14,24.55-21.87,31.29-1.24.61-2.54.89-3.84.89h0Z" fill="url(#color-1)"/>
    <path fill="#ffffff" class="color-5" d="m83.7,33.25h-5.08c-2.1,0-3.8,1.7-3.8,3.8v.15c0,2.1,1.7,3.8,3.8,3.8h5.08c2.1,0,3.8-1.7,3.8-3.8v-.15c0-2.1-1.7-3.8-3.8-3.8Z"/>
    <path fill="#ffffff" class="color-5" d="m114.07,33.25h-20.39c-2.1,0-3.8,1.7-3.8,3.8v.15c0,2.1,1.7,3.8,3.8,3.8h20.39c2.1,0,3.8-1.7,3.8-3.8v-.15c0-2.1-1.7-3.8-3.8-3.8Z"/>
    <path fill="#ffffff" class="color-5" d="m55.51,97.55h-6.07c-1.77,0-3.21,1.44-3.21,3.21s1.44,3.21,3.21,3.21h6.07c1.77,0,3.21-1.44,3.21-3.21s-1.44-3.21-3.21-3.21Z"/>
    <path fill="#ffffff" class="color-5" d="m49.97,89.38h-18.66c-1.77,0-3.21,1.44-3.21,3.21s1.44,3.21,3.21,3.21h.27s1.02.12,1.02.98c0,.24-.09.41-.2.55h-11.33c-1.77,0-3.21,1.44-3.21,3.21s1.44,3.21,3.21,3.21h18.66c1.77,0,3.21-1.44,3.21-3.21s-1.44-3.21-3.21-3.21h-2.73c-.09-.13-.16-.3-.16-.53,0-.98,1.1-1,1.1-1h12.04c1.77,0,3.21-1.44,3.21-3.21s-1.44-3.21-3.21-3.21h0Z"/>
    <path class="color-2" d="m58.28,23.17v11.67c0,4.61,3.74,8.35,8.35,8.35s8.35-3.74,8.35-8.35v-11.67c0-4.61-3.74-8.35-8.35-8.35s-8.35,3.74-8.35,8.35Z" fill="url(#color-2)"/>
</svg>