<?xml version="1.0" encoding="UTF-8"?>
<svg xmlns="http://www.w3.org/2000/svg" viewBox="0 0 137 120">
  <defs>
    <style>
      .stroke-width {
        stroke-width: 1px;
      }

      .stroke-color-1 {
        stroke: #ffcf08;
      }

      .stroke-color-2 {
        stroke: #ff6836;
      }

      .stroke-color-3 {
        stroke: #404272;
      }

      .stroke-color-4 {
        stroke: #2aaeb3;
      }
    </style>
    <linearGradient id="color-1" gradientTransform="rotate(90)">
      <stop offset="0%" stop-color="#ffcf08" />
      <stop offset="100%" stop-color="#ffcf08" />
      <stop offset="100%" stop-color="white" />
    </linearGradient>
    <linearGradient id="color-2" gradientTransform="rotate(90)">
      <stop offset="0%" stop-color="#ff6836" />
      <stop offset="100%" stop-color="#ff6836" />
      <stop offset="100%" stop-color="white" />
    </linearGradient>
    <linearGradient id="color-3" gradientTransform="rotate(90)">
      <stop offset="0%" stop-color="#404272" />
      <stop offset="100%" stop-color="#404272" />
      <stop offset="100%" stop-color="white" />
    </linearGradient>
    <linearGradient id="color-4" gradientTransform="rotate(90)">
      <stop offset="0%" stop-color="#2aaeb3" />
      <stop offset="100%" stop-color="#2aaeb3" />
      <stop offset="100%" stop-color="white" />
    </linearGradient>
  </defs>
    <path class="color-4" d="m15.72,61.78c2.21,0,4-1.79,4-4s-1.79-4-4-4-4,1.79-4,4,1.79,4,4,4Z" fill="url(#color-4)"/>
    <path class="color-3" d="m116.82,59.58c2.21,0,4-1.79,4-4s-1.79-4-4-4-4,1.79-4,4,1.79,4,4,4Z" fill="url(#color-3)"/>
    <path class="color-2" d="m124.82,64.87c1.66,0,3-1.34,3-3s-1.34-3-3-3-3,1.34-3,3,1.34,3,3,3Z" fill="url(#color-2)"/>
    <path class="color-2" d="m72.23,28.52v13.39c0,2.66,2.15,4.81,4.81,4.81h0c2.66,0,4.81-2.15,4.81-4.81v-13.39c0-2.66-2.15-4.81-4.81-4.81h0c-2.66,0-4.81,2.15-4.81,4.81Z" fill="url(#color-2)"/>
    <path class="color-1" d="m40.66,82.48v6.06c0,2.66,2.15,4.81,4.81,4.81s4.81-2.15,4.81-4.81v-6.06c0-2.66-2.15-4.81-4.81-4.81s-4.81,2.15-4.81,4.81Z" fill="url(#color-1)"/>
    <path class="color-1" d="m68.61,82.47c0-2.4,1.76-4.39,4.06-4.74v-12.17c0-2.04-1.66-3.7-3.7-3.7h-2.22c-2.04,0-3.7,1.66-3.7,3.7v33.19c0,2.04,1.66,3.7,3.7,3.7h2.22c2.04,0,3.7-1.66,3.7-3.7v-11.53c-2.3-.36-4.06-2.34-4.06-4.74h0Z" fill="url(#color-1)"/>
    <path class="color-3" d="m94.2,77.67h-20.79c-.25,0-.5.02-.75.07v9.49c.24.04.49.07.75.07h20.79c2.66,0,4.81-2.15,4.81-4.81s-2.15-4.81-4.81-4.81h0Z" fill="url(#color-3)"/>
    <path class="color-4" d="m68.61,82.47c0,2.4,1.76,4.39,4.06,4.74v-9.49c-2.3.36-4.06,2.34-4.06,4.74h0Z" fill="url(#color-4)"/>
    <path class="color-2" d="m99.49,30.09h-8.51v8.14h8.51c4.7,0,8.5,3.8,8.51,8.49h0v-24.74c0-.07,0-.13,0-.2-.1,4.61-3.87,8.31-8.5,8.31h0Z" fill="url(#color-2)"/>
    <path class="color-1" d="m99.49,55.21c-4.7,0-8.51-3.81-8.51-8.51v-8.48h-46.34v8.48c0,4.7-3.81,8.51-8.51,8.51-.85,0-1.67-.13-2.44-.36.8.25,1.66.38,2.54.38h63.26c4.7,0,8.51-3.81,8.51-8.51h0c0,4.67-3.81,8.48-8.51,8.48h0Z" fill="url(#color-1)"/>
    <path class="color-4" d="m99.49,38.23h-8.51v8.48c0,4.7,3.81,8.51,8.51,8.51s8.5-3.8,8.51-8.49c0-4.69-3.81-8.49-8.51-8.49h0Z" fill="url(#color-4)"/>
    <path class="color-2" d="m27.73,46.74c0-4.7,3.81-8.51,8.51-8.51h8.41v-8.14h-8.41c-4.7,0-8.51-3.81-8.51-8.51,0-.56.06-1.12.16-1.65-.16.66-.26,1.34-.26,2.04v24.73c0,3.85,2.56,7.09,6.06,8.14-3.46-1.08-5.97-4.3-5.97-8.12h0Z" fill="url(#color-2"/>
    <path class="color-4" d="m44.64,46.71v-8.48h-8.41c-4.7,0-8.51,3.81-8.51,8.51,0,3.82,2.51,7.04,5.97,8.12.78.23,1.59.36,2.44.36,4.7,0,8.51-3.81,8.51-8.51Z" fill="url(#color-4)"/>
    <path class="color-1" d="m108,21.59c0-4.7-3.81-8.51-8.51-8.51h-63.26c-4.13,0-7.57,2.95-8.34,6.86.92-3.71,4.25-6.46,8.25-6.46,4.7,0,8.51,3.81,8.51,8.51v8.11h46.34v-8.11c0-4.7,3.81-8.51,8.51-8.51s8.39,3.71,8.5,8.31c0-.07,0-.13,0-.2h0Z" fill="url(#color-1)"/>
    <path class="color-4" d="m99.49,13.48c-4.7,0-8.51,3.81-8.51,8.51v8.11h8.51c4.63,0,8.39-3.71,8.5-8.31-.1-4.61-3.87-8.31-8.5-8.31h0Z" fill="url(#color-4)"/>
    <path class="color-4" d="m27.73,21.59c0,4.7,3.81,8.51,8.51,8.51h8.41v-8.11c0-4.7-3.81-8.51-8.51-8.51-3.99,0-7.33,2.75-8.25,6.46-.1.53-.16,1.08-.16,1.65Z" fill="url(#color-4)"/>
    <path class="color-2" d="m99.49,57.78h-63.26c-4.7,0-8.51,3.81-8.51,8.51s3.81,8.51,8.51,8.51h63.26c4.7,0,8.51-3.81,8.51-8.51s-3.81-8.51-8.51-8.51Z" fill="url(#color-2)"/>
    <path class="color-1" d="m113.37,89.91H22.36c-4.7,0-8.51,3.81-8.51,8.51s3.81,8.51,8.51,8.51h91.01c4.7,0,8.51-3.81,8.51-8.51s-3.81-8.51-8.51-8.51Z" fill="url(#color-1)"/>
    <path fill="#ffffff" class="color-5" d="m40.09,86.42h-17.1c-1.81,0-3.27,1.46-3.27,3.27s1.46,3.27,3.27,3.27h17.1c1.81,0,3.27-1.46,3.27-3.27s-1.46-3.27-3.27-3.27Z"/>
    <path fill="#ffffff" class="color-5" d="m109.67,37.09h-6.18c-1.81,0-3.27,1.46-3.27,3.27s1.46,3.27,3.27,3.27h6.18c1.81,0,3.27-1.46,3.27-3.27s-1.46-3.27-3.27-3.27Z"/>
    <path class="color-3" d="m53.88,28.52v13.39c0,2.66,2.15,4.81,4.81,4.81h0c2.66,0,4.81-2.15,4.81-4.81v-13.39c0-2.66-2.15-4.81-4.81-4.81h0c-2.66,0-4.81,2.15-4.81,4.81Z" fill="url(#color-3)"/>
    <path fill="#ffffff" class="color-5" d="m104.03,28.78h-18.99c-1.8,0-3.27,1.46-3.27,3.27s1.46,3.27,3.27,3.27h.27s1.04.13,1.04,1c0,.24-.09.42-.21.56h-11.54c-1.8,0-3.27,1.46-3.27,3.27s1.46,3.27,3.27,3.27h18.99c1.8,0,3.27-1.46,3.27-3.27s-1.46-3.27-3.27-3.27h-2.78c-.1-.13-.16-.3-.16-.54,0-1,1.12-1.02,1.12-1.02h12.26c1.8,0,3.27-1.46,3.27-3.27s-1.46-3.27-3.27-3.27h0Z"/>
</svg>