<?xml version="1.0" encoding="UTF-8"?>
<svg xmlns="http://www.w3.org/2000/svg" viewBox="0 0 137 120">
  <defs>
    <style>
      .stroke-width {
        stroke-width: 1px;
      }

      .stroke-color-1 {
        stroke: #ffcf08;
      }

      .stroke-color-2 {
        stroke: #ff6836;
      }

      .stroke-color-3 {
        stroke: #404272;
      }

      .stroke-color-4 {
        stroke: #2aaeb3;
      }
    </style>
    <linearGradient id="color-1" gradientTransform="rotate(90)">
      <stop offset="0%" stop-color="#ffcf08" />
      <stop offset="100%" stop-color="#ffcf08" />
      <stop offset="100%" stop-color="white" />
    </linearGradient>
    <linearGradient id="color-2" gradientTransform="rotate(90)">
      <stop offset="0%" stop-color="#ff6836" />
      <stop offset="100%" stop-color="#ff6836" />
      <stop offset="100%" stop-color="white" />
    </linearGradient>
    <linearGradient id="color-3" gradientTransform="rotate(90)">
      <stop offset="0%" stop-color="#404272" />
      <stop offset="100%" stop-color="#404272" />
      <stop offset="100%" stop-color="white" />
    </linearGradient>
    <linearGradient id="color-4" gradientTransform="rotate(90)">
      <stop offset="0%" stop-color="#2aaeb3" />
      <stop offset="100%" stop-color="#2aaeb3" />
      <stop offset="100%" stop-color="white" />
    </linearGradient>
  </defs>
    <path class="color-4" d="m92.46,22.26c2.21,0,4-1.79,4-4s-1.79-4-4-4-4,1.79-4,4,1.79,4,4,4Z" fill="url(#color-4)"/>
    <path class="color-4" d="m27.11,86.52c2.21,0,4-1.79,4-4s-1.79-4-4-4-4,1.79-4,4,1.79,4,4,4Z" fill="url(#color-4)"/>
    <path class="color-3" d="m15.8,91.64c1.66,0,3-1.34,3-3s-1.34-3-3-3-3,1.34-3,3,1.34,3,3,3Z" fill="url(#color-3)"/>
    <path class="color-4" d="m67.86,104.74c3.37,0,6.27-1.97,7.65-4.81h-15.3c1.38,2.84,4.28,4.81,7.65,4.81h0Z" fill="url(#color-4)"/>
    <path class="color-1" d="m27.85,107.06l78.27-63.61c2.09-1.7,2.41-4.77.71-6.86s-4.77-2.41-6.86-.71L21.69,99.49c-2.09,1.7-2.41,4.77-.71,6.86,1.7,2.09,4.77,2.41,6.86.71Z" fill="url(#color-1)"/>
    <path class="color-1" d="m114.82,98.79L38.55,36.81c-2.05-1.67-5.06-1.36-6.73.7-1.67,2.05-1.36,5.06.7,6.73l76.27,61.98c2.05,1.67,5.06,1.36,6.73-.7,1.67-2.05,1.35-5.06-.7-6.73Z" fill="url(#color-1)"/>
    <path class="color-2" d="m105.5,33.4H31.92c-2.66,0-4.81,2.15-4.81,4.81s2.15,4.81,4.81,4.81h73.58c2.66,0,4.81-2.15,4.81-4.81s-2.15-4.81-4.81-4.81Z" fill="url(#color-2)"/>
    <path class="color-3" d="m59.35,96.23c0,1.32.31,2.58.86,3.7h15.3c.54-1.12.86-2.37.86-3.7v-23.13h-17.01v23.13h0Z" fill="url(#color-3)"/>
    <path class="color-3" d="m76.36,18.96c0-4.7-3.81-8.51-8.51-8.51s-8.51,3.81-8.51,8.51v44.53h17.01V18.96Z" fill="url(#color-3)"/>
    <path class="color-2" d="m10.69,63.48c-2.64,0-4.81,2.16-4.81,4.81s2.17,4.81,4.81,4.81h48.67v-9.61H10.69Z" fill="url(#color-2)"/>
    <path class="color-2" d="m125.04,63.48h-48.67v9.61h48.67c2.64,0,4.81-2.16,4.81-4.81s-2.17-4.81-4.81-4.81Z" fill="url(#color-2)"/>
    <path class="color-4" d="m76.36,63.48h-17.01v9.61h17.01v-9.61Z" fill="url(#color-4)"/>
    <path class="color-2" d="m117.63,99.93h-42.13c-1.38,2.84-4.28,4.81-7.65,4.81s-6.27-1.97-7.65-4.81H19.78c-2.64,0-4.81,2.16-4.81,4.81s2.17,4.81,4.81,4.81h97.85c2.64,0,4.81-2.17,4.81-4.81s-2.17-4.81-4.81-4.81Z" fill="url(#color-3)"/>
    <path fill="#ffffff" class="color-5" d="m26.01,66.43h6.18c1.81,0,3.27-1.46,3.27-3.27s-1.46-3.27-3.27-3.27h-6.18c-1.81,0-3.27,1.46-3.27,3.27s1.46,3.27,3.27,3.27Z"/>
    <path fill="#ffffff" class="color-5" d="m31.65,51.58h18.99c1.8,0,3.27,1.46,3.27,3.27s-1.46,3.27-3.27,3.27h-.27s-1.04.13-1.04,1c0,.24.09.42.21.56h11.54c1.8,0,3.27,1.46,3.27,3.27s-1.46,3.27-3.27,3.27h-18.99c-1.8,0-3.27-1.46-3.27-3.27s1.46-3.27,3.27-3.27h2.78c.1-.13.16-.3.16-.54,0-1-1.12-1.02-1.12-1.02h-12.26c-1.8,0-3.27-1.46-3.27-3.27s1.46-3.27,3.27-3.27h0Z"/>
    <path fill="#ffffff" class="color-5" d="m122.91,88.64h-17.1c-1.81,0-3.27,1.46-3.27,3.27s1.46,3.27,3.27,3.27h17.1c1.81,0,3.27-1.46,3.27-3.27s-1.46-3.27-3.27-3.27Z"/>
    <path fill="#ffffff" class="color-5" d="m97.21,88.64h-6.18c-1.81,0-3.27,1.46-3.27,3.27s1.46,3.27,3.27,3.27h6.18c1.81,0,3.27-1.46,3.27-3.27s-1.46-3.27-3.27-3.27Z"/>
</svg>