<?xml version="1.0" encoding="UTF-8"?>
<svg id="bot13" xmlns="http://www.w3.org/2000/svg" viewBox="0 0 137 120">
  <defs>
    <style>
      .stroke-width {
        stroke-width: 1.3px;
      }

      .stroke-color-1 {
        stroke: #ffcf08;
      }

      .stroke-color-2 {
        stroke: #ff6836;
      }

      .stroke-color-3 {
        stroke: #404272;
      }

      .stroke-color-4 {
        stroke: #2aaeb3;
      }
    </style>
    <linearGradient id="color-1" gradientTransform="rotate(90)">
      <stop offset="0%" stop-color="#ffcf08" />
      <stop offset="100%" stop-color="#ffcf08" />
      <stop offset="100%" stop-color="white" />
    </linearGradient>
    <linearGradient id="color-2" gradientTransform="rotate(90)">
      <stop offset="0%" stop-color="#ff6836" />
      <stop offset="100%" stop-color="#ff6836" />
      <stop offset="100%" stop-color="white" />
    </linearGradient>
    <linearGradient id="color-3" gradientTransform="rotate(90)">
      <stop offset="0%" stop-color="#404272" />
      <stop offset="100%" stop-color="#404272" />
      <stop offset="100%" stop-color="white" />
    </linearGradient>
    <linearGradient id="color-4" gradientTransform="rotate(90)">
      <stop offset="0%" stop-color="#2aaeb3" />
      <stop offset="100%" stop-color="#2aaeb3" />
      <stop offset="100%" stop-color="white" />
    </linearGradient>
  </defs>
  <path class="color-2" d="m29.9,87.94v11.38h77.18v-11.38H29.9Z" fill="url(#color-2)"/>
  <path class="color-1" d="m37.09,41.73v11.38h63.54v-11.38h-63.54Z" fill="url(#color-1)"/>
  <path class="color-1" d="m60.97,86.09v-15.25l-15.34,15.25h15.34Z" fill="url(#color-1)"/>
  <path class="color-1" d="m35.42,99.15c3.05,0,5.51-2.47,5.51-5.51s-2.47-5.51-5.51-5.51-5.51,2.47-5.51,5.51,2.47,5.51,5.51,5.51Z" fill="url(#color-1)"/>
  <path class="color-1" d="m46.44,99.15c3.05,0,5.51-2.47,5.51-5.51s-2.47-5.51-5.51-5.51-5.51,2.47-5.51,5.51,2.47,5.51,5.51,5.51Z" fill="url(#color-1)"/>
  <path class="color-1" d="m57.47,99.15c3.05,0,5.51-2.47,5.51-5.51s-2.47-5.51-5.51-5.51-5.51,2.47-5.51,5.51,2.47,5.51,5.51,5.51Z" fill="url(#color-1)"/>
  <path class="color-1" d="m68.5,99.15c3.05,0,5.51-2.47,5.51-5.51s-2.47-5.51-5.51-5.51-5.51,2.47-5.51,5.51,2.47,5.51,5.51,5.51Z" fill="url(#color-1)"/>
  <path class="color-1" d="m79.52,99.15c3.05,0,5.51-2.47,5.51-5.51s-2.47-5.51-5.51-5.51-5.51,2.47-5.51,5.51,2.47,5.51,5.51,5.51Z" fill="url(#color-1)"/>
  <path class="color-1" d="m90.55,99.15c3.05,0,5.51-2.47,5.51-5.51s-2.47-5.51-5.51-5.51-5.51,2.47-5.51,5.51,2.47,5.51,5.51,5.51Z" fill="url(#color-1)"/>
  <path class="color-1" d="m101.57,99.15c3.05,0,5.51-2.47,5.51-5.51s-2.47-5.51-5.51-5.51-5.51,2.47-5.51,5.51,2.47,5.51,5.51,5.51Z" fill="url(#color-1)"/>
  <path class="color-3" d="m75.71,54.82v12.69l15.34-12.69h-15.34Z" fill="url(#color-3)"/>
  <path class="color-4" d="m42.44,48.82c.77,0,1.4-.63,1.4-1.4s-.63-1.4-1.4-1.4-1.4.63-1.4,1.4.63,1.4,1.4,1.4Z" fill="url(#color-4)"/>
  <path class="color-4" d="m96.06,48.82c.77,0,1.4-.63,1.4-1.4s-.63-1.4-1.4-1.4-1.4.63-1.4,1.4.63,1.4,1.4,1.4Z" fill="url(#color-4)"/>
  <path stroke-linejoin="round" stroke-linecap="round" class="stroke-width stroke-color-1" d="m68.5,21.43v66.38" fill="none"/>
  <path stroke-linejoin="round" stroke-linecap="round" class="stroke-width stroke-color-4" d="m57.72,49.18l32.27,39.84" fill="none"/>
  <path stroke-linejoin="round" stroke-linecap="round" class="stroke-width stroke-color-4" d="m52.04,49.18l32.27,39.84" fill="none"/>
  <path stroke-linejoin="round" stroke-linecap="round" class="stroke-width stroke-color-4" d="m46.36,49.18l32.27,39.84" fill="none"/>
  <path stroke-linejoin="round" stroke-linecap="round" class="stroke-width stroke-color-1" d="m114.11,68.99H22.89" fill="none"/>
  <path stroke-linejoin="round" stroke-linecap="round" class="stroke-width stroke-color-4" d="m30.37,67.64c-.09.95-.08,1.92.06,2.86.16,1.08,1.08,3.51,2.69,2.23,1.09-.87,1.14-2.91,1.05-4.14-.06-.82-.22-1.7.18-2.43.44-.79,1.44-1.16,2.39-1.23.87-.07,1.84.1,2.41.72.73.79.6,1.96.77,2.98.28,1.6,1.51,3.06,3.15,3.54,1.26.36,2.84.1,3.82-.76,1.22-1.08.35-2.73,1.36-3.87.59-.67,1.56-.93,2.46-.93,3.42,0,2.47,6.43,2.47,6.43" fill="none"/>
  <path stroke-linejoin="round" stroke-linecap="round" class="stroke-width stroke-color-4" d="m83.42,72.38c-.11-1.3-.01-2.83.41-4.07.32-.91,1.04-1.63,2.06-1.12,1.83.92.91,3.86.99,5.39.04.67.25,1.37.74,1.84,1.54,1.5,3.87.6,4.39-1.32.2-.73.25-1.5.49-2.22.56-1.71,2.18-3.02,3.99-3.12.92-.06,1.89.21,2.53.88,1.54,1.61.06,4.73,2.74,5.51,3.36.98,5.24-4.68,4.92-7.15" fill="none"/>
  <path stroke-linejoin="round" stroke-linecap="round" class="stroke-width stroke-color-4" d="m41.66,47.41h54.4" fill="none"/>
</svg>