<?xml version="1.0" encoding="UTF-8"?>
<svg id="bottom08" xmlns="http://www.w3.org/2000/svg" viewBox="0 0 137 120">
  <defs>
    <style>
      .stroke-width {
        stroke-width: .5px;
      }

      .stroke-linecap{
        stroke-linecap: round;
      }

      .stroke-color-1 {
        stroke: #ffcf08;
      }

      .stroke-color-2 {
        stroke: #fea39c;
      }

      .stroke-color-3 {
        stroke:#327eed;
      }

      .stroke-color-4 {
        stroke: #2032ac;
      }      
    </style>
    <linearGradient id="color-1" gradientTransform="rotate(90)">
      <stop offset="0%" stop-color="#ffcf08" />
      <stop offset="100%" stop-color="#ffcf08" />
      <stop offset="100%" stop-color="white" />
    </linearGradient>
    <linearGradient id="color-2" gradientTransform="rotate(90)">
      <stop offset="0%" stop-color="#fea39c" />
      <stop offset="100%" stop-color="#fea39c" />
      <stop offset="100%" stop-color="white" />
    </linearGradient>
    <linearGradient id="color-3" gradientTransform="rotate(90)">
      <stop offset="0%" stop-color="#327eed" />
      <stop offset="100%" stop-color="#327eed" />
      <stop offset="100%" stop-color="white" />
    </linearGradient>   
    <linearGradient id="color-4" gradientTransform="rotate(90)">
      <stop offset="0%" stop-color="#2032ac" />
      <stop offset="100%" stop-color="#2032ac" />
      <stop offset="100%" stop-color="white" />
    </linearGradient>  
  </defs>
  <path class="color-2" d="m81.81,58.65c3.38,0,6.11-2.79,6.11-6.24v-7.93c-.07.46-.73,1.7-6.11,1.7-3.38,0-6.11,2.79-6.11,6.24s2.74,6.24,6.11,6.24Z" fill="url(#color-4)"/>
  <path class="color-2" d="m90.78,19.71h-42.42s-1.97.01-1.97,1.59c0,1.27,1.2,4.65-1.17,4.65h42.42s1.97.23,1.97-1.59c0-1.27-1.2-4.65,1.17-4.65Z" fill="url(#color-4)"/>
  <path class="color-3" d="m99.7,23.74v.15c0-.05,0-.1,0-.16h0Z" fill="url(#color-1)"/>
  <path class="color-3" d="m99.7,23.89c-.07,4.44-3.15,5.35-3.29,5.39h-56.87c-.41-.14-3.25-1.2-3.25-5.54v5.56h.02v6.22h-.01v5.16s.13-5.14,3.28-5.16h25.39v29.07s-.35,2.01,1.56,2.01c1.25,0,4.55-1.22,4.55,1.2v-3.14h0v-29.14h25.35c3.14.04,3.27,5.16,3.27,5.16v-11.39h0v-5.4Z" fill="url(#color-1)"/>
  <path class="color-3" d="m40.85,87.88c0,1.28-1.21,2.66-1.94,3.49-.94,1.07-2.16,1.81-3.44,2.07-1.05.22-2.13.13-3.17.42-1.39.39-2.32,1.49-2.31,3.2.02,2.09,1.75,3.24,3.34,3.44,2.05.26,3.99-.83,5.26-2.71,1.83-2.72,2.26-6.54,2.26-9.91Z" fill="url(#color-1)"/>
  <path class="color-3" d="m91.59,69.29h-44.18s-6.92,0-6.92,7.06v7.27s1.62-8.1,6.92-8.1h41.05c.17-.03,1.96-.38,1.96-1.59,0-1.27-1.2-4.65,1.17-4.65Z" fill="url(#color-1)"/>
  <path class="color-3" d="m88.35,89.86h-41c-.41,0-3.48-.16-3.48-3.2v7.17s-.1,2.23,3.48,2.26h41.16c1.11-.13,6.97-1.01,6.97-7.13v-7.27s-1.39,8.14-7.14,8.16h0Z" fill="url(#color-1)"/>
  <path class="stroke-width stroke-linecap stroke-color-1" d="m88.07,19.85s14.21-1.58,14.21,5.74-11.88,6.77-11.88,6.77l-49.54.35s-2.72-.11-4.49,2.38c-1.13,1.6-3.43.39-4.59-.51-2.48-1.94-2.28-5.26-2.06-8.04.08-1.01.34-2.04,1.03-2.8,1.3-1.44,4.16-2.02,5.2-.02.49.94.52,2.05.52,3.08" fill="none"/>
  <path class="stroke-width stroke-linecap stroke-color-1" d="m36.46,38.21s-1.47,9.8,6.22,9.8h17.72s3.26-.05,3.26-3.31c0,0,0-3.1-3.64-3.1h-9.42s-3.46.15-2.47,3.81" fill="none"/>
  <path class="stroke-width stroke-linecap stroke-color-1" d="m99.49,38.08s-.58,7.2,4.33,7.92c0,0,3.55.52,3.55,2.87,0,0,.45,3.26-3.51,3.26h-29.75s-6.23.13-6.23-4.57c0,0-.48-5.08,5.85-5.08h9.87s5.25-.24,4.08,2.81" fill="none"/>
  <path class="stroke-width stroke-linecap stroke-color-1" d="m40.66,81.67v7.53" fill="none"/>
  <path class="stroke-width stroke-linecap stroke-color-1" d="m95.27,83.02l.12-6.75s.59-7.48-5.29-6.82" fill="none"/>
  <path class="stroke-width stroke-linecap stroke-color-1" d="m67.94,73.02v20.39" fill="none"/>
  <path class="stroke-width stroke-linecap stroke-color-1" d="m44.09,88.56s-1.26-8.93,4.5-8.93" fill="none"/>
  <path class="color-4" d="m86.1,79.56h-35.47s-3.15,0-3.15,0c2.37,0,1.17,3.37,1.17,4.65,0,1.1,1.47,1.49,1.87,1.57v.02h35.81c1.39,0,1.77,2.11,1.77,2.11v-5.8c0-2.38-2.01-2.55-2.01-2.55h0Z" fill="url(#color-2)"/>
  <path class="color-1" d="m54.17,58.65c-3.38,0-6.11-2.79-6.11-6.24v-7.93c.07.46.73,1.7,6.11,1.7,3.38,0,6.11,2.79,6.11,6.24s-2.74,6.24-6.11,6.24Z" fill="url(#color-3)"/>
</svg>