<?xml version="1.0" encoding="UTF-8"?>
<svg id="bottom03" xmlns="http://www.w3.org/2000/svg" viewBox="0 0 137 120">
  <defs>
    <style>
      <!-- .color-4 {
        fill: #ffcf08;
      }

      .cls-2 {
        fill: #ff6836;
      }

      .cls-3 {
        fill: #404272;
      }

      .cls-4 {
        fill: #2aaeb3;
      }

      .cls-5 {
        fill: none;
        stroke: #ffcf08;
        stroke-linecap: round;
        stroke-linejoin: round;
        stroke-width: .5px;
      } -->
      .stroke-width {
        stroke-width: .5px;
      }

      .stroke-linecap{
        stroke-linecap: round;
      }

      .stroke-color-1 {
        stroke: #ff6836;
      }

      .stroke-color-2 {
        stroke: #2aaeb3;
      }

      .stroke-color-3 {
        stroke: #404272;
      }

      .stroke-color-4 {
        stroke: #ffcf08;
      }
    </style>
    <linearGradient id="color-1" gradientTransform="rotate(90)">
      <stop offset="0%" stop-color="#ff6836" />
      <stop offset="100%" stop-color="#ff6836" />
      <stop offset="100%" stop-color="white" />
    </linearGradient>
    <linearGradient id="color-2" gradientTransform="rotate(90)">
      <stop offset="0%" stop-color="#2aaeb3" />
      <stop offset="100%" stop-color="#2aaeb3" />
      <stop offset="100%" stop-color="white" />
    </linearGradient>
    <linearGradient id="color-3" gradientTransform="rotate(90)">
      <stop offset="0%" stop-color="#404272" />
      <stop offset="100%" stop-color="#404272" />
      <stop offset="100%" stop-color="white" />
    </linearGradient>
    <linearGradient id="color-4" gradientTransform="rotate(90)">
      <stop offset="0%" stop-color="#ffcf08" />
      <stop offset="100%" stop-color="#ffcf08" />
      <stop offset="100%" stop-color="white" />
    </linearGradient>      
  </defs>
  <path class="stroke-width stroke-linecap stroke-color-4" d="m85.2,30.86c.34-3.22,1.97-6.37,5.56-6.53,4.22-.18,7.94,2.04,8.04,6.53v7.15c0,2.07-.18,4.18,1.25,5.91,1.33,1.6,2.89,1.45,4.73,1.83,2.4.5,4.55,1.98,5.6,4.24,2.49,5.38-1.68,9.77-6.98,9.95-6.15.2-12.31.07-18.46-.01-5.03-.07-10.69-.8-15.31,1.61-2.35,1.22-3.57,3.37-3.26,6.03" fill="none"/>
  <path class="color-4" d="m80.95,39.59c2.6,0,4.7-2.11,4.7-4.7v-5.98c-.05.34-.56,1.28-4.7,1.28-2.6,0-4.7,2.11-4.7,4.7s2.11,4.7,4.7,4.7h0Z" fill="url(#color-4)"/>
  <path class="color-3" d="m62.38,50.6c-2.6,0-4.7,2.11-4.7,4.7v5.98c.05-.34.56-1.28,4.7-1.28,2.6,0,4.7-2.11,4.7-4.7s-2.11-4.7-4.7-4.7h0Z" fill="url(#color-3)"/>
  <path class="color-1" d="m61.87,63c-4.44,0-4.26,5.14-4.26,5.18v11.44c0,9.52-9.42,13.53-12.33,14.62-.59.22-1.2.33-1.82.33h-3.67c1.65,0,2.07,1.55,2.18,2.43.12.99.39,1.94.9,2.76.65,1.05,1.66.95,3.39.68,3.46-.54,6.57-2.36,6.57-2.36,11.71-6.82,10.86-18.37,10.86-18.45h.04v-14.5c0-1.58,2.29-2.13,2.29-2.13h-4.15Z" fill="url(#color-1)"/>
  <path class="color-4" d="m52.51,68.88h-8.93c-1.69,0-3.06,1.37-3.06,3.06s1.37,3.06,3.06,3.06h8.93c1.69,0,3.06-1.37,3.06-3.06s-1.37-3.06-3.06-3.06Z" fill="url(#color-4)"/>
  <path class="color-2" d="m82.2,79.14h.03s.12-10.28-9.33-10.28h-3.8s-2.94-.14-2.94-2.94l.07,2.94h0v3.95s0,2.23,3.03,2.23h3.47s3.29-.1,3.29,4.1c0,9.51-8.5,13.52-11.41,14.61-.59.22-1.2.33-1.82.33h-3.67c1.65,0,2.07,1.55,2.18,2.43.12.99.39,1.94.9,2.76.65,1.04,1.6,1.44,3.34,1.17,3.46-.54,6.57-2.36,6.57-2.36,11.06-6.21,10.09-18.72,10.07-18.94h0Z" fill="url(#color-2)"/>
  <path class="color-4" d="m95.22,52.55c-28.72,0-30.1-26.79-30.1-26.79v-2.3c.01-.14.12-1.99-1.96-1.99s-4.15-.21-4.15-2.09v6.38h-.01s-1.38,26.78-30.1,26.79c0,0-3.26-.31-3.26,2.05v7.67s.05-3.6,3.25-3.61c0,0,24.45-.05,33.17-18.27,8.72,18.23,33.17,18.28,33.17,18.28,3.2,0,3.25,3.61,3.25,3.61v-7.67c0-2.36-3.26-2.05-3.26-2.05h0Z" fill="url(#color-4)"/>
</svg>