<?xml version="1.0" encoding="UTF-8"?>
<svg id="bottom04" xmlns="http://www.w3.org/2000/svg" viewBox="0 0 137 120">
  <defs>
    <style>
      .stroke-width {
        stroke-width: .5px;
      }

      .stroke-linecap{
        stroke-linecap: round;
      }

      .stroke-color-1 {
        stroke: #fa4013;
      }

      .stroke-color-2 {
        stroke: #9cd323;
      }

      .stroke-color-3 {
        stroke:#404272;
      }

      .stroke-color-4 {
        stroke: #ffffff;
      }      
    </style>
    <linearGradient id="color-1" gradientTransform="rotate(90)">
      <stop offset="0%" stop-color="#fa4013" />
      <stop offset="100%" stop-color="#fa4013" />
      <stop offset="100%" stop-color="white" />
    </linearGradient>
    <linearGradient id="color-2" gradientTransform="rotate(90)">
      <stop offset="0%" stop-color="#9cd323" />
      <stop offset="100%" stop-color="#9cd323" />
      <stop offset="100%" stop-color="white" />
    </linearGradient>
    <linearGradient id="color-3" gradientTransform="rotate(90)">
      <stop offset="0%" stop-color="#404272" />
      <stop offset="100%" stop-color="#404272" />
      <stop offset="100%" stop-color="white" />
    </linearGradient>   
    <linearGradient id="color-4" gradientTransform="rotate(90)">
      <stop offset="0%" stop-color="#ffffff" />
      <stop offset="100%" stop-color="#ffffff" />
      <stop offset="100%" stop-color="white" />
    </linearGradient>   
  </defs>
  <path class="stroke-width stroke-linecap stroke-color-1" d="m39.76,30.6h24.5" fill="none"/>
  <path class="stroke-width stroke-linecap stroke-color-1" d="m39.76,48.73h24.88" fill="none"/>
  <path class="stroke-width stroke-linecap stroke-color-1" d="m61.6,68.65s-1.87,29.8,12.83,29.8h10.15s10.25.84,10.25-10.75v-32.68" fill="none"/>
  <path class="stroke-width stroke-linecap stroke-color-1" d="m87.52,35.57s1.04-4.49-3-4.49h-4.46" fill="none"/>
  <path class="stroke-width stroke-linecap stroke-color-1" d="m96.34,37.46v2.46" fill="none"/>
  <path class="color-2" d="m78.89,89.72c-3.38,0-6.11-2.74-6.11-6.11v-7.78c.07.44.73,1.66,6.11,1.66,3.38,0,6.11,2.74,6.11,6.11s-2.74,6.11-6.11,6.11Z"  fill="url(#color-2)"/>
  <path class="color-3" d="m75.18,37.84s4.27,0,4.11-4.74c0,0,.22-2.26,1.68-2.26h-11.62s1.37.35,1.41,1.11c.05.75-.62,5.68,4.42,5.89Z" fill="url(#color-3)"/>
  <path class="color-3" d="m83.69,35.97c-2.15,0-1.96,1.73-1.96,1.73,0,8.11-4.92,10.79-6.92,11.51-.41.14-1.09.43-1.51.43l-2.59.31c1.13,0,1.43,1.01,1.5,1.6.08.65.27,1.28.62,1.81.45.69,1.2,1.32,2.39,1.15,2.39-.35,4.52-1.55,4.52-1.55,8.1-4.49,8.09-15.25,8.09-15.25v-3.52c0,1.62-2,1.79-4.15,1.79h0Z" fill="url(#color-3)"/>
  <path class="color-3" d="m110.09,48.7c-.43,0-1.03-.2-1.44-.35-2-.72-5.52-1.53-6.45-6.22,0,0,.2-1.68-1.96-1.68s-4.15-.18-4.15-1.75v3.44s-.2,6.28,7.35,9.9c0,0,2.14,1.19,4.52,1.55,1.2.18,1.94-.46,2.39-1.15.35-.53.54-1.16.62-1.81.07-.58.37-1.6,1.5-1.6l-2.39-.33h0Z" fill="url(#color-3)"/>
  <path class="color-1" d="m64.46,25.14c-1.7.06-1.58,2.32-1.58,2.32v27.06c0-2.33,3.3-1.07,4.55-1.15,1.2-.07,1.49-.96,1.55-1.51h.01v-28.1c0,2.8-3.29,1.34-4.54,1.38Z" fill="url(#color-1)"/>
  <path class="color-1" d="m61.76,51.06v-2.28c0,2.04-3.29.97-4.54,1.01-1.26.03-1.53.78-1.57,1.28-.01.13,0,.24,0,.31v20.07h.01s-.32,1.64,1.56,1.7c1.24.03,4.54-1.03,4.54,1.01v-2.7h0v-20.37h0Z" fill="url(#color-1)"/>
  <path class="color-1" d="m40.35,25.66c-1.13,0-1.44,1.15-1.52,1.81h-.03v26.68c0-2.04,3.31-1.01,4.55-1.01.84,0,1.26-.77,1.44-1.28h.12v-27.53c0,2.68-3.31,1.32-4.55,1.32h0Z" fill="url(#color-1)"/>
  <path class="color-1" d="m46.86,51.1c-2.15,0-1.96,2.32-1.96,2.32-3.92,16.3-15.65,16.3-15.65,16.3h-4.73c2.17,0,2.41,2,2.41,4.15s2.32,1.96,2.32,1.96c19.67-.87,21.76-22.41,21.76-22.41v-4.73c0,2.17-2,2.41-4.15,2.41h0Z" fill="url(#color-1)"/>
  <path class="color-1" d="m106.89,29.64c-.08-.65-.27-1.28-.62-1.81-.45-.69-1.18-1.18-2.39-1.15-2.73.07-4.52,1.55-4.52,1.55-3.34,2.17-3.16,6.98-3.16,6.98v3.21c0-1.47,2-1.64,4.15-1.64s1.96-1.57,1.96-1.57c0-2.36,0-2.95,2.01-3.66.41-.14,1.12-.33,1.54-.33h2.53c-1.13,0-1.43-1.01-1.5-1.6h0Z" fill="url(#color-1)"/>
  <path class="color-1" d="m94.97,23.97v-2.68c0,2.02-3.29.96-4.54,1-1.68.04-1.6,1.37-1.56,1.63v37.41c-.03.31-.14,2,1.56,2.05,1.24.04,4.54-1.28,4.54,1.25v-3.35h-.01V23.97h.01Z" fill="url(#color-1)"/>
</svg>