<?xml version="1.0" encoding="UTF-8"?>
<svg xmlns="http://www.w3.org/2000/svg" viewBox="0 0 137 120">
  <defs>
    <style>
   fill="#ffffff"    /* .color-5 {
        fill: #fff;
      }

      .color-1 {
        fill: #ffcf08;
      }

      .color-2 {
        fill: #fea39c;
      }

      .color-3 {
        fill: #327eed;
      }

      .color-4 {
        fill: #2032ac;
      } */
      .stroke-width {
        stroke-width: 1.3px;
      }

      .stroke-color-1 {
        stroke: #ffcf08;
      }

      .stroke-color-2 {
        stroke: #fea39c;
      }

      .stroke-color-3 {
        stroke:#327eed;
      }

      .stroke-color-4 {
        stroke: #2032ac;
      }      
    </style>  
    <linearGradient id="color-1" gradientTransform="rotate(90)">
      <stop offset="0%" stop-color="#ffcf08" />
      <stop offset="100%" stop-color="#ffcf08" />
      <stop offset="100%" stop-color="white" />
    </linearGradient>
    <linearGradient id="color-2" gradientTransform="rotate(90)">
      <stop offset="0%" stop-color="#fea39c" />
      <stop offset="100%" stop-color="#fea39c" />
      <stop offset="100%" stop-color="white" />
    </linearGradient>
    <linearGradient id="color-3" gradientTransform="rotate(90)">
      <stop offset="0%" stop-color="#327eed" />
      <stop offset="100%" stop-color="#327eed" />
      <stop offset="100%" stop-color="white" />
    </linearGradient>   
    <linearGradient id="color-4" gradientTransform="rotate(90)">
      <stop offset="0%" stop-color="#2032ac" />
      <stop offset="100%" stop-color="#2032ac" />
      <stop offset="100%" stop-color="white" />
    </linearGradient>  
  </defs>
    <path class="color-1" d="m75.89,15.89c2.21,0,4-1.79,4-4s-1.79-4-4-4-4,1.79-4,4,1.79,4,4,4Z" fill="url(#color-3)"/>
    <path class="color-4" d="m87.81,17.89c1.66,0,3-1.34,3-3s-1.34-3-3-3-3,1.34-3,3,1.34,3,3,3Z" fill="url(#color-2)"/>
    <path class="color-2" d="m16.22,100.09c1.66,0,3-1.34,3-3s-1.34-3-3-3-3,1.34-3,3,1.34,3,3,3Z" fill="url(#color-4)"/>
    <path class="color-3" d="m113.94,55.33l.02.08h0s-.02-.08-.02-.08Z" fill="url(#color-1)"/>
    <path class="color-4" d="m76.95,38.19c-.93-.87-1.63-1.89-2.1-2.99-1.97.1-3.99.22-6.08.37,2.72,4.8,5.21,11.04,5.03,17.61,3.5-.21,6.71-.34,9.64-.41,1.07-7.08-6.43-14.52-6.5-14.58h0Z" fill="url(#color-2)"/>
    <path class="color-4" d="m55.86,53.38c.31-2.03-.93-8.29-6.73-14.7-.34-.37-.63-.78-.9-1.19-2.5.28-4.93.57-7.29.87,2.75,4.64,5.42,10.8,5.52,17.36,3.01-.37,6.12-.72,9.3-1.04,0-.43.02-.86.09-1.3h0Z" fill="url(#color-2)"/>
    <path class="color-1" d="m28.51,56.98c.68-4.47-4.04-11.76-6.71-14.68-.32-.35-.6-.73-.86-1.12-5.71.9-9.33,1.54-9.72,1.61-4.86.87-8.1,5.53-7.22,10.4.87,4.86,5.52,8.09,10.4,7.22.11-.02,5.61-1,14.02-2.26,0-.39.03-.78.09-1.18h0Z" fill="url(#color-3)"/>
    <path class="color-4" d="m131.35,51.02l-.07-.27c-1.82-6.19-6.83-10.5-15.61-13.07-4.79,6-8.94,11.73-11.82,15.81,6.43.82,9.13,2.06,10.13,2.69-.17,2.32-2.14,7.92-16.31,11.16-4.82,1.1-7.83,5.9-6.74,10.72.95,4.15,4.63,6.96,8.72,6.96.66,0,1.33-.07,2-.22,12.87-2.94,21.83-8.43,26.63-16.34,5.18-8.53,3.3-16.55,3.07-17.44h0Zm-17.39,4.3l.02.07h0s-.02-.07-.02-.07Z" fill="url(#color-2)"/>
    <path class="color-3" d="m35,30.2c-3.34-3.65-9-3.89-12.64-.55-3.29,3.01-3.8,7.92-1.41,11.53,5.2-.81,12.14-1.83,20-2.83-2.63-4.44-5.33-7.49-5.94-8.15Z" fill="url(#color-1)"/>
    <path class="color-3" d="m36.02,67.17c.46.07.9.1,1.35.1,4.35,0,8.17-3.18,8.84-7.62.2-1.32.28-2.64.26-3.95-6.74.81-12.93,1.67-18.05,2.44-.09,4.42,3.11,8.33,7.6,9.01h0Z" fill="url(#color-1)"/>
    <path class="color-2" d="m40.95,38.36c-7.86.98-14.8,2.01-20,2.83.25.39.54.76.86,1.12,2.67,2.92,7.38,10.21,6.71,14.68-.06.4-.08.78-.09,1.18,5.12-.76,11.32-1.63,18.05-2.44-.1-6.56-2.77-12.72-5.52-17.36h0Z" fill="url(#color-4)"/>
    <path class="color-3" d="m68.77,35.58c-2.77-4.88-5.77-8.26-6.42-8.97-3.33-3.63-8.97-3.88-12.61-.56-3.27,2.98-3.81,7.83-1.51,11.44,5.32-.6,10.91-1.16,16.55-1.61,1.35-.1,2.68-.21,3.98-.3h0Z" fill="url(#color-1)"/>
    <path class="color-3" d="m55.77,54.68c-.02,4.37,3.15,8.22,7.6,8.89.46.07.9.1,1.35.1,4.35,0,8.17-3.18,8.84-7.61.15-.96.22-1.92.25-2.87-3.58.21-7.47.5-11.7.88-2.13.19-4.24.4-6.34.61h0Z" fill="url(#color-1)"/>
    <path class="color-2" d="m68.77,35.58c-1.31.09-2.63.19-3.98.3-5.65.45-11.23,1.01-16.55,1.61.26.41.56.81.9,1.19,5.8,6.41,7.03,12.67,6.73,14.7-.07.44-.09.87-.09,1.3,2.1-.22,4.21-.42,6.34-.61,4.23-.38,8.12-.66,11.7-.88.18-6.57-2.31-12.81-5.03-17.61h0Z" fill="url(#color-4)"/>
    <path class="color-3" d="m83.45,52.78c-.01.09-.02.18-.04.27-.76,4.19,1.54,8.33,5.49,9.91,1.08.43,2.21.64,3.32.64,2.95,0,5.8-1.46,7.49-4.05.04-.07,1.58-2.41,4.14-6.04-4.62-.59-11.17-.96-20.39-.73h0Z" fill="url(#color-1)"/>
    <path class="color-3" d="m115.66,37.69c3.88-4.86,8.16-9.91,12.51-14.42,3.43-3.56,3.33-9.23-.23-12.66-3.56-3.43-9.23-3.33-12.66.23-7.06,7.32-13.84,15.75-19.21,22.88-2.95-4.8-6.15-7.91-6.86-8.57-3.61-3.38-9.29-3.21-12.67.4-2.51,2.68-3.06,6.48-1.7,9.64,18.24-.98,31.6-.2,40.81,2.49h0Z" fill="url(#color-1)"/>
    <path class="color-2" d="m74.85,35.2c.47,1.1,1.16,2.12,2.1,2.99.07.07,7.57,7.5,6.5,14.58,9.23-.23,15.78.14,20.39.73,2.87-4.08,7.03-9.81,11.82-15.81-9.2-2.69-22.57-3.47-40.81-2.49Z" fill="url(#color-4)"/>
    <path class="color-3" d="m122.83,82.22c-4.36-2.33-9.79-.69-12.11,3.67l-3.87,7.23-58.88.88c-3.12.04-3.89-.91-4.18-1.27-2.06-2.52-1.98-9.33-1.13-13.28,1.06-4.81-1.97-9.59-6.78-10.66-4.83-1.08-9.61,1.95-10.69,6.77-.41,1.81-3.74,18.04,4.69,28.43,2.94,3.63,8.42,7.91,17.95,7.91h.39l64.17-.96c3.25-.05,6.22-1.86,7.76-4.72l6.36-11.88c2.33-4.36.69-9.79-3.67-12.11h0Z" fill="url(#color-1)"/>
    <path fill="#ffffff" class="color-5" d="m43.9,81.81h-4.21c-1.82,0-3.3,1.48-3.3,3.3s1.48,3.3,3.3,3.3h4.21c1.82,0,3.3-1.48,3.3-3.3s-1.48-3.3-3.3-3.3Z"/>
    <path fill="#ffffff" class="color-5" d="m69.76,81.81h-17.25c-1.82,0-3.3,1.48-3.3,3.3s1.48,3.3,3.3,3.3h17.25c1.82,0,3.3-1.48,3.3-3.3s-1.48-3.3-3.3-3.3Z"/>
    <path fill="#ffffff" class="color-5" d="m26.11,16.32h19.16c1.82,0,3.3,1.48,3.3,3.3s-1.48,3.3-3.3,3.3h-.28s-1.04.13-1.04,1.01c0,.25.09.43.21.57h11.64c1.82,0,3.3,1.48,3.3,3.3s-1.48,3.3-3.3,3.3h-19.16c-1.82,0-3.3-1.48-3.3-3.3s1.48-3.3,3.3-3.3h2.8c.1-.13.16-.31.16-.54,0-1.01-1.13-1.03-1.13-1.03h-12.36c-1.82,0-3.3-1.48-3.3-3.3s1.48-3.3,3.3-3.3h0Z"/>
</svg>