<?xml version="1.0" encoding="UTF-8"?>
<svg id="bottom09" xmlns="http://www.w3.org/2000/svg" viewBox="0 0 137 120">
  <defs>
    <style>
      .stroke-width {
        stroke-width: .5px;
      }

      .stroke-linecap{
        stroke-linecap: round;
      }

      .stroke-color-1 {
        stroke: #ffcf08;
      }

      .stroke-color-2 {
        stroke: #fea39c;
      }

      .stroke-color-3 {
        stroke:#327eed;
      }

      .stroke-color-4 {
        stroke: #2032ac;
      }      
    </style>
    <linearGradient id="color-1" gradientTransform="rotate(90)">
      <stop offset="0%" stop-color="#ffcf08" />
      <stop offset="100%" stop-color="#ffcf08" />
      <stop offset="100%" stop-color="white" />
    </linearGradient>
    <linearGradient id="color-2" gradientTransform="rotate(90)">
      <stop offset="0%" stop-color="#fea39c" />
      <stop offset="100%" stop-color="#fea39c" />
      <stop offset="100%" stop-color="white" />
    </linearGradient>
    <linearGradient id="color-3" gradientTransform="rotate(90)">
      <stop offset="0%" stop-color="#327eed" />
      <stop offset="100%" stop-color="#327eed" />
      <stop offset="100%" stop-color="white" />
    </linearGradient>   
    <linearGradient id="color-4" gradientTransform="rotate(90)">
      <stop offset="0%" stop-color="#2032ac" />
      <stop offset="100%" stop-color="#2032ac" />
      <stop offset="100%" stop-color="white" />
    </linearGradient>  
  </defs>
  <path class="stroke-width stroke-linecap stroke-color-3" d="m64.64,35.88c8.46-.45,9.35,13.26,4.16,17.54-1.16.96-2.65,1.54-4.16,1.6" fill="none"/>
  <path class="stroke-width stroke-linecap stroke-color-3" d="m34.36,36.01c-10.59-1.61-10.25,15.6-2.26,18.67.79.31,1.64.45,2.49.45" fill="none"/>
  <path class="stroke-width stroke-linecap stroke-color-3" d="m105.97,27.96s6.49,8.22-5.73,9.59c0,0-5.07-.22-3.64,3.94" fill="none"/>
  <path class="stroke-width stroke-linecap stroke-color-3" d="m102.35,86.83s1.06,5.42-4.31,5.42h-3.3s-2.49,0-2.49-2.93c0-2-3.1-2.21-3.1-2.21h-7.18s-5.1-.38-5.1-6.01,4.67-6.16,4.67-6.16h24.08s5.14,1.19,5.14-6.06c0,0,.31-5.94-5.04-5.94h-13.7s-3.33-.12-3.33-4.04-3.99-3.33-3.99-3.33l-7.83-.03s-3.7.27-3.7-2.46c0,0-.22-2.97,2.36-2.97h13.16s1.61-.03,1.61-2.62c0,0-.15-1.75-1.84-1.75h-10.75s-3.61-.01-3.61-4.25c0,0,.2-2.74,2.35-2.77,1.51-.02,1.7-1.87,1.7-1.87,0,0,1.84-5.35,2.69-1.48" fill="none"/>
  <path class="stroke-width stroke-linecap stroke-color-3" d="m86.59,76.37s.46,7.42-1.87,11.03" fill="none"/>
  <path class="color-1" d="m66.2,35.74h-33.71c2.53,0,1.25,3.31,1.25,4.55,0,1.75,2.11,1.56,2.11,1.56h27s2.11.26,2.11-1.56c0-1.25-1.28-4.55,1.25-4.55Z" fill="url(#color-1)"/>
  <path class="color-3" d="m66.2,54.78h-33.71c2.53,0,1.25,3.31,1.25,4.55,0,1.86,2.11,1.56,2.11,1.56h27s2.11.14,2.11-1.56c0-1.25-1.28-4.55,1.25-4.55Z" fill="url(#color-3)"/>
  <path class="color-3" d="m85.23,35.45c-1.25,0-4.55,1.28-4.55-1.25v40.62s.31,2.11,1.56,2.11,4.55-1.28,4.55,1.25v-40.62s.26-2.11-1.56-2.11Z" fill="url(#color-3)"/>
  <path class="color-3" d="m78.06,88.29c-7.71-.38-8.22-4.13-8.25-4.67.29,11.89,8.25,10.91,8.25,10.91v-.02c.33,0,8.29-.07,8.29-12.76,0,0-.41,6.75-8.29,6.54Z"  fill="url(#color-3)"/>
  <path class="color-3" d="m99.76,21.97v-.02h-40.56s-2.11.31-2.11,1.56,1.28,4.55-1.25,4.55h43.61c6.9,0,8.1,3.73,8.29,5.5-.35-10.27-6.56-11.46-7.99-11.6h0Z" fill="url(#color-3)"/>
  <path class="color-2" d="m100.9,41.38c-1.25,0-4.55,1.28-4.55-1.25v45.28s.31,2.11,1.56,2.11,4.55-1.28,4.55,1.25v-45.28s.26-2.11-1.56-2.11Z" fill="url(#color-2)"/>
  <path class="color-4" d="m53.18,27.96s.43-3.79-7.19-3.79h-2.28s3.36.45,3.36,3.79v66.8h.01c.07.35.43,2.04,1.55,2.04,1.25,0,4.55-1.28,4.55,1.25V27.96Z" fill="url(#color-4)"/>
</svg>