<?xml version="1.0" encoding="UTF-8"?>
<svg xmlns="http://www.w3.org/2000/svg" viewBox="0 0 137 120">
  <defs>
    <style>
      .stroke-width {
        stroke-width: 1px;
      }

      .stroke-color-1 {
        stroke: #ffcf08;
      }

      .stroke-color-2 {
        stroke: #ff6836;
      }

      .stroke-color-3 {
        stroke: #404272;
      }

      .stroke-color-4 {
        stroke: #2aaeb3;
      }
    </style>
    <linearGradient id="color-1" gradientTransform="rotate(90)">
      <stop offset="0%" stop-color="#ffcf08" />
      <stop offset="100%" stop-color="#ffcf08" />
      <stop offset="100%" stop-color="white" />
    </linearGradient>
    <linearGradient id="color-2" gradientTransform="rotate(90)">
      <stop offset="0%" stop-color="#ff6836" />
      <stop offset="100%" stop-color="#ff6836" />
      <stop offset="100%" stop-color="white" />
    </linearGradient>
    <linearGradient id="color-3" gradientTransform="rotate(90)">
      <stop offset="0%" stop-color="#404272" />
      <stop offset="100%" stop-color="#404272" />
      <stop offset="100%" stop-color="white" />
    </linearGradient>
    <linearGradient id="color-4" gradientTransform="rotate(90)">
      <stop offset="0%" stop-color="#2aaeb3" />
      <stop offset="100%" stop-color="#2aaeb3" />
      <stop offset="100%" stop-color="white" />
    </linearGradient>
  </defs>
    <path class="color-4" d="m99.28,26.63c2.21,0,4-1.79,4-4s-1.79-4-4-4-4,1.79-4,4,1.79,4,4,4Z" fill="url(#color-4)"/>
    <path class="color-1" d="m24.17,85.34c2.21,0,4-1.79,4-4s-1.79-4-4-4-4,1.79-4,4,1.79,4,4,4Z" fill="url(#color-1)"/>
    <path class="color-2" d="m109.23,30.94c1.66,0,3-1.34,3-3s-1.34-3-3-3-3,1.34-3,3,1.34,3,3,3Z" fill="url(#color-2)"/>
    <path class="color-2" d="m80.79,56.82c-.5-7.13-6.69-12.51-13.82-12-6.88.48-12.11,6.26-12.02,13.07h25.86c0-.36,0-.7-.02-1.06h0Z" fill="url(#color-2)"/>
    <path class="color-3" d="m105.85,66.56c-.1-4.83-4.05-8.69-8.88-8.69h-16.16c-.07,6.67-5.25,12.28-12.03,12.76-7.13.5-13.31-4.87-13.82-12-.01-.25-.01-.5-.01-.75h-16.17c-4.9,0-8.88,3.97-8.88,8.88s3.97,8.88,8.88,8.88h45.63c-4.84,6.58-16.01,14.89-41.8,17.95-4.87.58-8.34,4.99-7.77,9.86.53,4.51,4.37,7.83,8.8,7.83.35,0,.7-.02,1.06-.06,61.22-7.27,61.17-43.12,61.14-44.64h0Z" fill="url(#color-3)"/>
    <path class="color-4" d="m68.79,70.64c6.77-.47,11.95-6.08,12.03-12.76h-25.86c0,.25,0,.5.01.75.5,7.13,6.69,12.51,13.82,12h0Z" fill="url(#color-4)"/>
    <path class="color-1" d="m119.23,59.43c-.48,0-.96-.04-1.46-.12-20.15-3.32-35.95-10.55-46.99-21.51-1.08-1.07-2.06-2.13-2.95-3.16-7.96,9.22-22.82,20.21-49.87,24.67-4.83.79-9.4-2.48-10.2-7.31-.8-4.84,2.48-9.4,7.31-10.2,36.53-6.02,43.7-24.88,44.25-26.49.96-3.88,4.37-6.49,8.39-6.58h.18c3.93,0,7.37,2.74,8.48,6.52.35,1.07,7.14,20.44,44.27,26.56,4.84.8,8.11,5.36,7.31,10.2-.72,4.35-4.48,7.43-8.75,7.43h.01Z" fill="url(#color-1)"/>
    <path fill="#ffffff" class="color-5" d="m79.91,92.59h-4.17c-1.81,0-3.27,1.46-3.27,3.27s1.46,3.27,3.27,3.27h4.17c1.81,0,3.27-1.46,3.27-3.27s-1.46-3.27-3.27-3.27Z"/>
    <path fill="#ffffff" class="color-5" d="m105.56,92.59h-17.1c-1.81,0-3.27,1.46-3.27,3.27s1.46,3.27,3.27,3.27h17.1c1.81,0,3.27-1.46,3.27-3.27s-1.46-3.27-3.27-3.27Z"/>
    <path fill="#ffffff" class="color-5" d="m19.97,32.22h18.99c1.8,0,3.27,1.46,3.27,3.27s-1.46,3.27-3.27,3.27h-.27s-1.04.13-1.04,1c0,.24.09.42.21.56h11.54c1.8,0,3.27,1.46,3.27,3.27s-1.46,3.27-3.27,3.27h-18.99c-1.8,0-3.27-1.46-3.27-3.27s1.46-3.27,3.27-3.27h2.78c.1-.13.16-.3.16-.54,0-1-1.12-1.02-1.12-1.02h-12.26c-1.8,0-3.27-1.46-3.27-3.27s1.46-3.27,3.27-3.27h0Z"/>
</svg>