<?xml version="1.0" encoding="UTF-8"?>
<svg id="bottom02" xmlns="http://www.w3.org/2000/svg" viewBox="0 0 137 120">
  <defs>
    <style>
      <!-- .cls-1 {
        fill: #ffcf08;
      }

      .cls-2 {
        fill: #ff6836;
      }

      .cls-3 {
        fill: #2aaeb3;
      }

      .stroke-width stroke-linecap stroke-color-4 {
        fill: none;
        stroke: #ffcf08;
        stroke-linecap: round;
        stroke-linejoin: round;
        stroke-width: .5px;
      } -->
      .stroke-width {
        stroke-width: .5px;
      }

      .stroke-linecap{
        stroke-linecap: round;
      }

      .stroke-color-1 {
        stroke: #ff6836;
      }

      .stroke-color-2 {
        stroke: #2aaeb3;
      }

      .stroke-color-3 {
        stroke: #404272;
      }

      .stroke-color-4 {
        stroke: #ffcf08;
      }
    </style>
    <linearGradient id="color-1" gradientTransform="rotate(90)">
      <stop offset="0%" stop-color="#ff6836" />
      <stop offset="100%" stop-color="#ff6836" />
      <stop offset="100%" stop-color="white" />
    </linearGradient>
    <linearGradient id="color-2" gradientTransform="rotate(90)">
      <stop offset="0%" stop-color="#2aaeb3" />
      <stop offset="100%" stop-color="#2aaeb3" />
      <stop offset="100%" stop-color="white" />
    </linearGradient>
    <linearGradient id="color-3" gradientTransform="rotate(90)">
      <stop offset="0%" stop-color="#404272" />
      <stop offset="100%" stop-color="#404272" />
      <stop offset="100%" stop-color="white" />
    </linearGradient>
    <linearGradient id="color-4" gradientTransform="rotate(90)">
      <stop offset="0%" stop-color="#ffcf08" />
      <stop offset="100%" stop-color="#ffcf08" />
      <stop offset="100%" stop-color="white" />
    </linearGradient>      
  </defs>
  <path class="stroke-width stroke-linecap stroke-color-4" d="m55.27,28.05v16.11" fill="none"/>
  <path class="stroke-width stroke-linecap stroke-color-4" d="m79.39,28.05v16.11" fill="none"/>
  <path class="stroke-width stroke-linecap stroke-color-4" d="m32.28,31.44l.03,9.71s.24,8.44,4.65,7.67" fill="none"/>
  <path class="stroke-width stroke-linecap stroke-color-4" d="m102.13,38.11l-.09-8.72s-.26-7.58-3.93-6.85" fill="none"/>
  <path class="stroke-width stroke-linecap stroke-color-4" d="m106.98,91.9s3.51-.07,3.51-3.21c0,0,.22-3.52-2.89-3.52h-10.27s-4.09.2-4.09-3.78c0,0-.07-3.46,4.09-3.46h8.72s2.58.18,2.58-2.14c0,0,.17-2.31-2.7-2.31h-15.16" fill="none"/>
  <path class="stroke-width stroke-linecap stroke-color-4" d="m34.8,60.94c-2.29-.18-6.85-.06-6.49,3.32.32,3.01,3.4,3.63,5.92,3.71,3.23.11,6.5-.12,9.73-.12h9.4c1.3,0,3.15.67,3.4,2.13.32,1.86-1.7,2.44-3.13,2.44h-10.57s-2.14.06-2.14,1.72,2.09,2.08,2.09,2.08c0,0,3.61.64,3.61-2.36" fill="none"/>
  <path class="color-3" d="m98.79,22.38h-58.87c-.19-.01-.53-.02-.96,0h-.03c-2.21.13-6.82,1.19-6.82,7.86v7.23s2.26-8.94,7.98-8.94v-.03h55.99s2,.18,2-1.56c0-1.15-1.05-4.08.71-4.51.03,0,.03-.05,0-.05Z" fill="url(#color-3)"/>
  <path class="color-4" d="m108.76,91.65h-38.2v-12.24h18.33s2,.29,2-1.56c0-1.25-1.22-4.56,1.18-4.56h-21.51v-12.23h27.96s2,.34,2-1.56c0-1.25-1.22-4.56,1.18-4.56H36.33c-.31.07-1.94.43-1.94,1.56,0,1.25,1.22,4.56-1.18,4.56h31.25v30.59h-11.7v-14.73c0-.12.04-1.99-1.56-1.99-1.2,0-4.33,1.1-4.54-.99,0,0,0,.2,0,.21v2.78s-.01,14.73-.01,14.73h-17.22c-.07.01-1.99.34-1.99,1.56s1.22,4.56-1.18,4.56h79.32s2-.31,2-1.56-1.22-4.56,1.18-4.56h0Z" fill="url(#color-4)"/>
  <path class="color-1" d="m95.18,42.83h-56.25s-2-.02-2,1.57c0,1.25,1.22,4.56-1.18,4.56h59.3s7.23.43,7.23-7.05v-7.23s-1.41,8.04-7.11,8.15Z" fill="url(#color-1)"/>
</svg>