<?xml version="1.0" encoding="UTF-8"?>
<svg xmlns="http://www.w3.org/2000/svg" viewBox="0 0 137 120">
  <defs>
    <style>
      .stroke-width {
        stroke-width: 1.3px;
      }

      .stroke-color-1 {
        stroke: #ffcf08;
      }

      .stroke-color-2 {
        stroke: #fea39c;
      }

      .stroke-color-3 {
        stroke:#327eed;
      }

      .stroke-color-4 {
        stroke: #2032ac;
      }      
    </style>  
    <linearGradient id="color-1" gradientTransform="rotate(90)">
      <stop offset="0%" stop-color="#ffcf08" />
      <stop offset="100%" stop-color="#ffcf08" />
      <stop offset="100%" stop-color="white" />
    </linearGradient>
    <linearGradient id="color-2" gradientTransform="rotate(90)">
      <stop offset="0%" stop-color="#fea39c" />
      <stop offset="100%" stop-color="#fea39c" />
      <stop offset="100%" stop-color="white" />
    </linearGradient>
    <linearGradient id="color-3" gradientTransform="rotate(90)">
      <stop offset="0%" stop-color="#327eed" />
      <stop offset="100%" stop-color="#327eed" />
      <stop offset="100%" stop-color="white" />
    </linearGradient>   
    <linearGradient id="color-4" gradientTransform="rotate(90)">
      <stop offset="0%" stop-color="#2032ac" />
      <stop offset="100%" stop-color="#2032ac" />
      <stop offset="100%" stop-color="white" />
    </linearGradient>  
  </defs>
    <path class="color-2" d="m9.69,21.3c2.21,0,4-1.79,4-4s-1.79-4-4-4-4,1.79-4,4,1.79,4,4,4Z" fill="url(#color-2)"/>
    <path class="color-1" d="m90.49,113.4c2.21,0,4-1.79,4-4s-1.79-4-4-4-4,1.79-4,4,1.79,4,4,4Z" fill="url(#color-1)"/>
    <path class="color-4" d="m128.94,88.01c1.66,0,3-1.34,3-3s-1.34-3-3-3-3,1.34-3,3,1.34,3,3,3Z" fill="url(#color-4)"/>
    <path class="color-1" d="m118.49,2.4c-3.2,0-6.1,1.28-8.23,3.34,4.57.15,8.23,3.88,8.23,8.49s-3.66,8.34-8.23,8.49c2.13,2.06,5.03,3.34,8.23,3.34,6.54,0,11.83-5.3,11.83-11.83s-5.3-11.83-11.83-11.83Z" fill="url(#color-1)"/>
    <path class="color-1" d="m60.94,14.23c0-4.61,3.66-8.34,8.23-8.49-2.13-2.06-5.03-3.34-8.23-3.34-6.54,0-11.83,5.3-11.83,11.83s5.3,11.83,11.83,11.83c3.2,0,6.1-1.28,8.23-3.34-4.57-.15-8.23-3.88-8.23-8.49Z" fill="url(#color-1)"/>
    <path class="color-4" d="m106.65,14.23c0-3.34,1.38-6.34,3.6-8.49-.09,0-.18-.01-.27-.01h-40.55c-.09,0-.18.01-.27.01,2.22,2.15,3.6,5.16,3.6,8.49s-1.38,6.34-3.6,8.49c.09,0,.18.01.27.01h40.55c.09,0,.18,0,.27-.01-2.22-2.15-3.6-5.16-3.6-8.49Z" fill="url(#color-4)"/>
    <path class="color-2" d="m118.49,14.23c0-4.61-3.66-8.34-8.23-8.49-2.22,2.15-3.6,5.16-3.6,8.49s1.38,6.34,3.6,8.49c4.57-.15,8.23-3.88,8.23-8.49Z" fill="url(#color-2)"/>
    <path class="color-2" d="m72.77,14.23c0-3.34-1.38-6.34-3.6-8.49-4.57.15-8.23,3.88-8.23,8.49s3.66,8.34,8.23,8.49c2.22-2.15,3.6-5.16,3.6-8.49Z" fill="url(#color-2)"/>
    <path class="color-3" d="m41.28,23.06c0-4.7-3.81-8.51-8.51-8.51s-8.51,3.81-8.51,8.51v11.12h17.01v-11.12Z" fill="url(#color-3)"/>
    <path class="color-3" d="m41.28,51.19h-17.01v12.46h17.01v-12.46Z" fill="url(#color-3)"/>
    <path class="color-3" d="m24.27,100.9c0,4.7,3.81,8.51,8.51,8.51s8.51-3.81,8.51-8.51v-20.24h-17.01v20.24Z" fill="url(#color-3)"/>
    <path class="color-4" d="m13.91,34.18c-4.7,0-8.51,3.81-8.51,8.51s3.81,8.51,8.51,8.51h10.36v-17.01h-10.36Z" fill="url(#color-4)"/>
    <path class="color-4" d="m51.44,51.19c4.7,0,8.51-3.81,8.51-8.51s-3.81-8.51-8.51-8.51h-10.16v17.01h10.16Z" fill="url(#color-4)"/>
    <path class="color-2" d="m41.28,34.18h-17.01v17.01h17.01v-17.01Z" fill="url(#color-2)"/>
    <path class="color-4" d="m50.56,80.66c4.7,0,8.51-3.81,8.51-8.51s-3.81-8.51-8.51-8.51h-9.28v17.01h9.28Z" fill="url(#color-4)"/>
    <path class="color-4" d="m14.78,63.65c-4.7,0-8.51,3.81-8.51,8.51s3.81,8.51,8.51,8.51h9.49v-17.01h-9.49Z" fill="url(#color-4)"/>
    <path class="color-2" d="m41.28,63.65h-17.01v17.01h17.01v-17.01Z" fill="url(#color-2)"/>
    <path class="color-3" d="m110.94,30.46c-4.7,0-8.51,3.81-8.51,8.51v10.99h1.7c4.7,0,8.51,3.81,8.51,8.51s-3.81,8.51-8.51,8.51h-1.7v37.56c0,4.7,3.81,8.51,8.51,8.51s8.51-3.81,8.51-8.51V38.97c0-4.7-3.81-8.51-8.51-8.51Z" fill="url(#color-3)"/>
    <path class="color-4" d="m90.03,49.96v17.01h12.41v-17.01h-12.41Z" fill="url(#color-4)"/>
    <path class="color-2" d="m112.65,58.47c0-4.7-3.81-8.51-8.51-8.51h-1.7v17.01h1.7c4.7,0,8.51-3.81,8.51-8.51Z" fill="url(#color-2)"/>
    <path class="color-3" d="m79.47,58.47c0-4.7,3.81-8.51,8.51-8.51h2.05v-15.18c0-4.9-3.97-8.88-8.88-8.88s-8.88,3.97-8.88,8.88v42.68c0,6.58-.45,11.76-2.68,15.69-2.34,4.13-6.46,6.71-10.73,6.71-4.9,0-8.88,3.97-8.88,8.88s3.97,8.88,8.88,8.88c10.66,0,20.69-6.02,26.17-15.71,4.39-7.74,4.99-16.32,4.99-24.44v-10.48h-2.05c-4.7,0-8.51-3.81-8.51-8.51Z" fill="url(#color-3)"/>
    <path class="color-2" d="m87.98,49.96c-4.7,0-8.51,3.81-8.51,8.51s3.81,8.51,8.51,8.51h2.05v-17.01h-2.05Z" fill="url(#color-2)"/>
    <path fill="#ffffff" class="color-5" d="m56.98,27.64h4.17c1.81,0,3.27-1.46,3.27-3.27s-1.46-3.27-3.27-3.27h-4.17c-1.81,0-3.27,1.46-3.27,3.27s1.46,3.27,3.27,3.27Z"/>
    <path fill="#ffffff" class="color-5" d="m31.33,27.64h17.1c1.81,0,3.27-1.46,3.27-3.27s-1.46-3.27-3.27-3.27h-17.1c-1.81,0-3.27,1.46-3.27,3.27s1.46,3.27,3.27,3.27Z"/>
    <path fill="#ffffff" class="color-5" d="m77.79,77.69h18.99c1.8,0,3.27,1.46,3.27,3.27s-1.46,3.27-3.27,3.27h-.27s-1.04.13-1.04,1c0,.24.09.42.21.56h11.54c1.8,0,3.27,1.46,3.27,3.27s-1.46,3.27-3.27,3.27h-18.99c-1.8,0-3.27-1.46-3.27-3.27s1.46-3.27,3.27-3.27h2.78c.1-.13.16-.3.16-.54,0-1-1.12-1.02-1.12-1.02h-12.26c-1.8,0-3.27-1.46-3.27-3.27s1.46-3.27,3.27-3.27h0Z"/>
</svg>