<?xml version="1.0" encoding="UTF-8"?>
<svg id="bottom07" xmlns="http://www.w3.org/2000/svg" viewBox="0 0 137 120">
  <defs>
    <style>
      .stroke-width {
        stroke-width: .5px;
      }

      .stroke-linecap{
        stroke-linecap: round;
      }

      .stroke-color-1 {
        stroke: #fa4013;
      }

      .stroke-color-2 {
        stroke: #9cd323;
      }

      .stroke-color-3 {
        stroke:#404272;
      }

      .stroke-color-4 {
        stroke: #ffffff;
      }      
    </style>
    <linearGradient id="color-1" gradientTransform="rotate(90)">
      <stop offset="0%" stop-color="#fa4013" />
      <stop offset="100%" stop-color="#fa4013" />
      <stop offset="100%" stop-color="white" />
    </linearGradient>
    <linearGradient id="color-2" gradientTransform="rotate(90)">
      <stop offset="0%" stop-color="#9cd323" />
      <stop offset="100%" stop-color="#9cd323" />
      <stop offset="100%" stop-color="white" />
    </linearGradient>
    <linearGradient id="color-3" gradientTransform="rotate(90)">
      <stop offset="0%" stop-color="#404272" />
      <stop offset="100%" stop-color="#404272" />
      <stop offset="100%" stop-color="white" />
    </linearGradient>   
    <linearGradient id="color-4" gradientTransform="rotate(90)">
      <stop offset="0%" stop-color="#ffffff" />
      <stop offset="100%" stop-color="#ffffff" />
      <stop offset="100%" stop-color="white" />
    </linearGradient>   
  </defs>
  <path class="stroke-width stroke-linecap stroke-color-1" d="m55.01,38.86h33.54" fill="none"/>
  <path class="stroke-width stroke-linecap stroke-color-1" d="m70.35,59.6v-20.74" fill="none"/>
  <path class="stroke-width stroke-linecap stroke-color-1" d="m55.01,59.6h33.54" fill="none"/>
  <path class="stroke-width stroke-linecap stroke-color-1" d="m50.5,94.36s-5.51,1.29-6.89-3.82c0,0-.29-4.92,3.93-4.92h6.51s6.19-.11,4.21-3.74c-2.57-4.72-30.49-1.44-30.49-29.12s25.86-32.92,43.82-32.92,37.62,9.71,37.62,30.82-21.44,29.1-28.53,29.64c-10.27.79-46.87,1.61-46.87-29.77,0,0-3.82-25.44,37.63-25.44,0,0,32.75-3.02,32.53,27.15-.2,26.79-37.9,23.08-37.9,23.08,0,0-15.73-1.63-15.73-10.27" fill="none"/>
  <path class="color-3" d="m61.19,68.67h-8.93c-1.69,0-3.06,1.37-3.06,3.06s1.37,3.06,3.06,3.06h8.93c1.69,0,3.06-1.37,3.06-3.06s-1.37-3.06-3.06-3.06Z" fill="url(#color-3)"/>
  <path class="color-1" d="m81.58,68.63h-3.8s-2.94-.14-2.94-2.94l.07,2.94v3.95s0,2.23,3.03,2.23h3.47s3.29-.1,3.29,4.1c0,9.52-8.5,13.53-11.41,14.62-.58.22-1.2.33-1.82.33h-3.67c1.65,0,2.07,1.55,2.18,2.43.12.99.39,1.94.9,2.76.65,1.05,1.6,1.44,3.34,1.17,3.46-.54,6.57-2.36,6.57-2.36,11.15-6.26,10.07-18.95,10.07-18.95h.03s.12-10.28-9.33-10.28h0Z" fill="url(#color-1)"/>
  <path class="color-1" d="m79.8,46.17h-18.89v6.11h18.89v-6.11Z" fill="url(#color-1)"/>
  <path class="color-1" d="m51.9,33.34c-1.56,0-1.56,1.94-1.56,1.94v30.99c0-2.33,3.31-1.15,4.55-1.15s1.56-1.94,1.56-1.94v-31c0,2.33-3.31,1.15-4.55,1.15Z" fill="url(#color-1)"/>
  <path class="color-2" d="m70.56,62.78c-4.46,0-4.26,5.18-4.26,5.18v11.45c0,9.52-9.42,13.53-12.33,14.62-.58.22-1.2.33-1.82.33h-3.67c1.65,0,2.07,1.55,2.18,2.43.12.99.39,1.94.9,2.76.65,1.05,1.66.95,3.39.68,3.46-.54,6.57-2.36,6.57-2.36,11.76-6.85,10.86-18.46,10.86-18.46h.04v-14.5c0-1.58,2.29-2.13,2.29-2.13h-4.15Z" fill="url(#color-2)"/>
  <path class="color-2" d="m86.37,33.34c-1.56,0-1.56,1.94-1.56,1.94v30.99c0-2.33,3.31-1.15,4.55-1.15s1.56-1.94,1.56-1.94v-31c0,2.33-3.31,1.15-4.55,1.15Z" fill="url(#color-2)"/>
</svg>