<?xml version="1.0" encoding="UTF-8"?>
<svg xmlns="http://www.w3.org/2000/svg" viewBox="0 0 137 120">
  <defs>
    <style>
      .stroke-width {
        stroke-width: 1.3px;
      }

      .stroke-color-1 {
        stroke: #ffcf08;
      }

      .stroke-color-2 {
        stroke: #fea39c;
      }

      .stroke-color-3 {
        stroke:#327eed;
      }

      .stroke-color-4 {
        stroke: #2032ac;
      }      
    </style>  
    <linearGradient id="color-1" gradientTransform="rotate(90)">
      <stop offset="0%" stop-color="#ffcf08" />
      <stop offset="100%" stop-color="#ffcf08" />
      <stop offset="100%" stop-color="white" />
    </linearGradient>
    <linearGradient id="color-2" gradientTransform="rotate(90)">
      <stop offset="0%" stop-color="#fea39c" />
      <stop offset="100%" stop-color="#fea39c" />
      <stop offset="100%" stop-color="white" />
    </linearGradient>
    <linearGradient id="color-3" gradientTransform="rotate(90)">
      <stop offset="0%" stop-color="#327eed" />
      <stop offset="100%" stop-color="#327eed" />
      <stop offset="100%" stop-color="white" />
    </linearGradient>   
    <linearGradient id="color-4" gradientTransform="rotate(90)">
      <stop offset="0%" stop-color="#2032ac" />
      <stop offset="100%" stop-color="#2032ac" />
      <stop offset="100%" stop-color="white" />
    </linearGradient>  
  </defs>
    <path class="color-2" d="m121.68,73.18c2.21,0,4-1.79,4-4s-1.79-4-4-4-4,1.79-4,4,1.79,4,4,4Z" fill="url(#color-2)"/>
    <path class="color-1" d="m19.76,64.56c2.21,0,4-1.79,4-4s-1.79-4-4-4-4,1.79-4,4,1.79,4,4,4Z" fill="url(#color-1)"/>
    <path class="color-4" d="m12.71,48.13c1.66,0,3-1.34,3-3s-1.34-3-3-3-3,1.34-3,3,1.34,3,3,3Z" fill="url(#color-4)"/>
    <path class="color-4" d="m116.14,56.4c1.66,0,3-1.34,3-3s-1.34-3-3-3-3,1.34-3,3,1.34,3,3,3Z" fill="url(#color-4)"/>
    <path class="color-1" d="m30.16,69.66c4.7,0,8.51,3.81,8.51,8.51v8.45h56.76v-8.45c0-4.7,3.81-8.51,8.51-8.51,4.4,0,8.02,3.34,8.46,7.63-.41-4.31-4.05-7.68-8.46-7.68H30.16c-4.42,0-8.05,3.37-8.46,7.68.44-4.28,4.06-7.63,8.46-7.63h0Z" fill="url(#color-1)"/>
    <path class="color-4" d="m95.42,102.37v-8.53h-56.76v8.53c0,4.56-3.59,8.28-8.11,8.48h72.97c-4.51-.21-8.11-3.92-8.11-8.48Z" fill="url(#color-4)"/>
    <path class="color-3" d="m112.39,77.28c.02.27.04.55.04.82,0,4.7-3.81,8.51-8.51,8.51h-8.51v7.23h8.51c4.7,0,8.51,3.81,8.51,8.51s-3.81,8.51-8.51,8.51h-.39c.13,0,.27.02.4.02,4.7,0,8.51-3.81,8.51-8.51v-24.2c0-.3-.01-.59-.04-.88h0Z" fill="url(#color-3)"/>
    <path class="color-2" d="m103.93,69.66c-4.7,0-8.51,3.81-8.51,8.51v8.45h8.51c4.7,0,8.51-3.81,8.51-8.51,0-.27-.01-.55-.04-.82-.44-4.28-4.06-7.63-8.46-7.63Z" fill="url(#color-2)"/>
    <path class="color-2" d="m112.42,102.35c0-4.7-3.81-8.51-8.51-8.51h-8.51v8.53c0,4.56,3.59,8.28,8.11,8.48h.39c4.7,0,8.51-3.81,8.51-8.51h0Z" fill="url(#color-2)"/>
    <path class="color-3" d="m21.65,102.35c0-4.7,3.81-8.51,8.51-8.51h8.51v-7.23h-8.51c-4.7,0-8.51-3.81-8.51-8.51,0-.27.01-.55.04-.82-.03.29-.04.58-.04.88v24.2c0,4.7,3.81,8.51,8.51,8.51.13,0,.27-.01.4-.02h-.39c-4.7,0-8.51-3.81-8.51-8.51h0Z" fill="url(#color-3)"/>
    <path class="color-2" d="m30.16,86.61h8.51v-8.45c0-4.7-3.81-8.51-8.51-8.51-4.4,0-8.02,3.34-8.46,7.63-.02.27-.04.55-.04.82,0,4.7,3.81,8.51,8.51,8.51Z" fill="url(#color-2)"/>
    <path class="color-2" d="m38.66,102.37v-8.53h-8.51c-4.7,0-8.51,3.81-8.51,8.51s3.81,8.51,8.51,8.51h.39c4.51-.21,8.11-3.92,8.11-8.48h0Z" fill="url(#color-2)"/>
    <path class="color-2" d="m92.91,64.13c5.92,0,10.72-4.8,10.72-10.72s-4.8-10.72-10.72-10.72-10.72,4.8-10.72,10.72,4.8,10.72,10.72,10.72Z" fill="url(#color-2)"/>
    <path class="color-2" d="m44.06,64.13c5.92,0,10.72-4.8,10.72-10.72s-4.8-10.72-10.72-10.72-10.72,4.8-10.72,10.72,4.8,10.72,10.72,10.72Z" fill="url(#color-2)"/>
    <path class="color-4" d="m86.34,5.23h-36.96c-4.7,0-8.51,3.81-8.51,8.51s3.81,8.51,8.51,8.51h36.96c4.7,0,8.51-3.81,8.51-8.51s-3.81-8.51-8.51-8.51Z" fill="url(#color-4)"/>
    <path class="color-1" d="m26.99,25.62c0-4.1,2.9-7.51,6.76-8.32-1.84-1.5-4.19-2.4-6.76-2.4-5.92,0-10.72,4.8-10.72,10.72s4.8,10.72,10.72,10.72c2.56,0,4.91-.9,6.76-2.4-3.86-.81-6.76-4.22-6.76-8.32Z" fill="url(#color-1)"/>
    <path class="color-1" d="m108.73,14.89c-2.56,0-4.91.9-6.76,2.4,3.86.81,6.76,4.22,6.76,8.32s-2.9,7.51-6.76,8.32c1.84,1.5,4.19,2.4,6.76,2.4,5.92,0,10.72-4.8,10.72-10.72s-4.8-10.72-10.72-10.72Z" fill="url(#color-1)"/>
    <path class="color-3" d="m98.01,25.62c0-3.36,1.55-6.36,3.96-8.32-.56-.12-1.15-.18-1.75-.18H35.5c-.6,0-1.18.07-1.75.18,2.42,1.97,3.96,4.96,3.96,8.32s-1.55,6.36-3.96,8.32c.56.12,1.15.18,1.75.18h24.48v-3.22c0-4.7,3.81-8.51,8.51-8.51s8.51,3.81,8.51,8.51v3.22h23.24c.6,0,1.18-.07,1.75-.18-2.42-1.97-3.96-4.96-3.96-8.32Z" fill="url(#color-3)"/>
    <path class="color-2" d="m37.72,25.62c0-3.36-1.55-6.36-3.96-8.32-3.86.81-6.76,4.22-6.76,8.32s2.9,7.51,6.76,8.32c2.42-1.97,3.96-4.96,3.96-8.32Z" fill="url(#color-2)"/>
    <path class="color-2" d="m108.73,25.62c0-4.1-2.9-7.51-6.76-8.32-2.42,1.97-3.96,4.96-3.96,8.32s1.55,6.36,3.96,8.32c3.86-.81,6.76-4.22,6.76-8.32Z" fill="url(#color-2)"/>
    <path class="color-4" d="m59.98,66.89c0,4.7,3.81,8.51,8.51,8.51s8.51-3.81,8.51-8.51v-32.77h-17.01v32.77Z" fill="url(#color-4)"/>
    <path class="color-1" d="m68.48,22.4c-4.7,0-8.51,3.81-8.51,8.51v3.22h17.01v-3.22c0-4.7-3.81-8.51-8.51-8.51Z" fill="url(#color-1)"/>
    <path class="color-3" d="m59.98,87.3v5.94c0,4.7,3.81,8.51,8.51,8.51s8.51-3.81,8.51-8.51v-5.94c0-4.7-3.81-8.51-8.51-8.51s-8.51,3.81-8.51,8.51Z" fill="url(#color-3)"/>
    <path fill="#ffffff" class="color-5" d="m24.08,28.35h19.76c1.88,0,3.4,1.52,3.4,3.4s-1.52,3.4-3.4,3.4h-.29s-1.08.13-1.08,1.04c0,.26.09.44.21.58h12c1.88,0,3.4,1.52,3.4,3.4s-1.52,3.4-3.4,3.4h-19.76c-1.88,0-3.4-1.52-3.4-3.4s1.52-3.4,3.4-3.4h2.89c.1-.13.16-.32.16-.56,0-1.04-1.16-1.07-1.16-1.07h-12.75c-1.88,0-3.4-1.52-3.4-3.4s1.52-3.4,3.4-3.4h0Z"/>
    <path fill="#ffffff" class="color-5" d="m103.73,107.96h-6.69c-1.81,0-3.27,1.46-3.27,3.27v.27c0,1.81,1.46,3.27,3.27,3.27h6.69c1.81,0,3.27-1.46,3.27-3.27v-.27c0-1.81-1.46-3.27-3.27-3.27Z"/>
    <path fill="#ffffff" class="color-5" d="m97.74,99.32h-19.76c-1.88,0-3.4,1.52-3.4,3.4s1.52,3.4,3.4,3.4h.29s1.08.13,1.08,1.04c0,.26-.09.44-.21.58h-12c-1.88,0-3.4,1.52-3.4,3.4s1.52,3.4,3.4,3.4h19.76c1.88,0,3.4-1.52,3.4-3.4s-1.52-3.4-3.4-3.4h-2.89c-.1-.13-.16-.32-.16-.56,0-1.04,1.16-1.07,1.16-1.07h12.75c1.88,0,3.4-1.52,3.4-3.4s-1.52-3.4-3.4-3.4h0Z"/>
</svg>