<?xml version="1.0" encoding="UTF-8"?>
<svg id="bottom05" xmlns="http://www.w3.org/2000/svg" viewBox="0 0 137 120">
  <defs>
    <style>
      .stroke-width {
        stroke-width: .5px;
      }

      .stroke-linecap{
        stroke-linecap: round;
      }

      .stroke-color-1 {
        stroke: #ffcf08;
      }

      .stroke-color-2 {
        stroke: #fea39c;
      }

      .stroke-color-3 {
        stroke:#327eed;
      }

      .stroke-color-4 {
        stroke: #2032ac;
      }      
    </style>
    <linearGradient id="color-1" gradientTransform="rotate(90)">
      <stop offset="0%" stop-color="#ffcf08" />
      <stop offset="100%" stop-color="#ffcf08" />
      <stop offset="100%" stop-color="white" />
    </linearGradient>
    <linearGradient id="color-2" gradientTransform="rotate(90)">
      <stop offset="0%" stop-color="#fea39c" />
      <stop offset="100%" stop-color="#fea39c" />
      <stop offset="100%" stop-color="white" />
    </linearGradient>
    <linearGradient id="color-3" gradientTransform="rotate(90)">
      <stop offset="0%" stop-color="#327eed" />
      <stop offset="100%" stop-color="#327eed" />
      <stop offset="100%" stop-color="white" />
    </linearGradient>   
    <linearGradient id="color-4" gradientTransform="rotate(90)">
      <stop offset="0%" stop-color="#2032ac" />
      <stop offset="100%" stop-color="#2032ac" />
      <stop offset="100%" stop-color="white" />
    </linearGradient>  
  </defs>
  <path class="stroke-width stroke-linecap stroke-color-3" d="m32.74,89.5v-8.51" fill="none"/>
  <path class="stroke-width stroke-linecap stroke-color-3" d="m98.08,94.1v-5.39" fill="none"/>
  <path class="stroke-width stroke-linecap stroke-color-3" d="m36.49,46.84s-4.71-8.67,2.28-8.67h19.65c2.64,0,5.43-.58,7.66-2.02,1.94-1.24,3.32-3.15,3.81-5.39.72-3.25.44-6.34,3.29-8.74,2.15-1.81,5.16-2.28,7.99-2.27,6.8.02,13.61.08,20.41.08,1.85,0,4.42,1.09,4.46,3.28.05,2.54-2.38,3.48-4.26,3.59-4.29.23-13.16-1.28-13.16,5.33,0,0-.28,4.78,6.81,4.78h9.4s5.12.13,5.12,4.5c0,0-.12,4.43-5.56,4.43h-23.48s-17.11.24-17.11,15.86c0,0-.37,7.02-6.28,8.83,0,0-3.46.84-3.46,3.69s2.44,3.65,4.87,3.65h27.28" fill="none"/>
  <path class="stroke-width stroke-linecap stroke-color-3" d="m27.04,48.17v-4.42" fill="none"/>
  <path class="stroke-width stroke-linecap stroke-color-3" d="m48.93,71.9v-8.51" fill="none"/>
  <path class="stroke-width stroke-linecap stroke-color-4" d="m76.06,68.01s2.49,3.58,5.66-1.28" fill="none"/>
  <path class="color-2" d="m104.02,75.67c-3.38,0-6.11,2.74-6.11,6.11v7.78c.07-.44.73-1.66,6.11-1.66,3.38,0,6.11-2.74,6.11-6.11s-2.74-6.11-6.11-6.11Z" fill="url(#color-1)"/>
  <path class="color-4" d="m74.92,43.39s.29-2.31-1.57-2.31c-1.26,0-4.59,1.41-4.59-1.37v3.68c2.16,27.34,9.99,25.97,9.99,25.97-7.76,0-3.82-25.97-3.82-25.97Z" fill="url(#color-4)"/>
  <path class="color-4" d="m90.23,32.67c-1.26,0-4.59,1.3-4.59-1.27v3.41c.05,1.33,1.07,29.94-6.9,34.55,0,0,11.81-4.09,13.06-34.55,0,0,.26-2.14-1.57-2.14Z" fill="url(#color-4)"/>
  <path class="color-3" d="m98.26,97.87v-7.59c0,3.7-3.52,4.1-3.52,4.1h-56.53c-5.23,0-5.58-5.53-5.56-7.32-.57,13,5.03,13.42,5.52,13.44h56.57c3.61.01,3.52-2.62,3.52-2.62Z" fill="url(#color-3)"/>
  <path class="color-3" d="m49.1,74.56v-8.13c0,3.37-2.91,4.03-3.43,4.12h-5.33v-.02s-8.52-.82-7.64,12.57c0,0,.23-6.44,7.64-6.44h5.35c3.51-.05,3.41-2.11,3.41-2.11Z" fill="url(#color-3)"/>
  <path class="color-3" d="m101.84,62.33c-.27-3.61-1.81-12.79-10.45-12.79H30.39s-3.52-.41-3.52-4.1v8.13s-.1,2.08,3.5,2.09h61.02s9.39.79,10.41,6.98c-.34,2.33-2.39,9.23-14.88,9.23,0,0-1.53-.03-1.45,1.56.06,1.25.89,4.55-.86,4.55h2.32s14.61-.6,14.98-14.22h0s0-.56,0-.58l-.05-.84Z" fill="url(#color-3)"/>
  <path class="color-1" d="m26.85,45.65c0-1.28,1.21-2.66,1.94-3.49.94-1.07,2.16-1.81,3.44-2.07,1.05-.22,2.13-.13,3.17-.42,1.39-.39,2.32-1.49,2.31-3.2-.02-2.09-1.75-3.24-3.34-3.44-2.05-.26-3.99.83-5.26,2.71-1.83,2.72-2.26,6.54-2.26,9.91Z" fill="url(#color-1)"/>
  <path class="color-4" d="m42.07,59.17c-3.38,0-6.11-2.74-6.11-6.11v-7.78c.07.44.73,1.66,6.11,1.66,3.38,0,6.11,2.74,6.11,6.11s-2.74,6.11-6.11,6.11Z" fill="url(#color-4)"/>
  <path class="color-1" d="m58.5,59.17c-3.38,0-6.11-2.74-6.11-6.11v-7.78c.07.44.73,1.66,6.11,1.66,3.38,0,6.11,2.74,6.11,6.11s-2.74,6.11-6.11,6.11Z" fill="url(#color-1)"/>
</svg>