<?xml version="1.0" encoding="UTF-8"?>
<svg xmlns="http://www.w3.org/2000/svg" viewBox="0 0 137 120">
  <defs>
    <style>
      .stroke-width {
        stroke-width: .5px;
      }

      .stroke-color-1 {
        stroke: #fa4013;
      }

      .stroke-color-2 {
        stroke: #9cd323;
      }

      .stroke-color-3 {
        stroke:#404272;
      }

      .stroke-color-4 {
        stroke: #ffffff;
      }      
    </style>
    <linearGradient id="color-1" gradientTransform="rotate(90)">
      <stop offset="0%" stop-color="#fa4013" />
      <stop offset="100%" stop-color="#fa4013" />
      <stop offset="100%" stop-color="white" />
    </linearGradient>
    <linearGradient id="color-2" gradientTransform="rotate(90)">
      <stop offset="0%" stop-color="#9cd323" />
      <stop offset="100%" stop-color="#9cd323"/>
      <stop offset="100%" stop-color="white" />
    </linearGradient>
    <linearGradient id="color-3" gradientTransform="rotate(90)">
      <stop offset="0%" stop-color="#404272" />
      <stop offset="100%" stop-color="#404272" />
      <stop offset="100%" stop-color="white" />
    </linearGradient>   
    <linearGradient id="color-4" gradientTransform="rotate(90)">
      <stop offset="0%" stop-color="#ffffff" />
      <stop offset="100%" stop-color="#ffffff" />
      <stop offset="100%" stop-color="white" />
    </linearGradient>
  </defs>
    <path class="color-1" d="m111.29,27.13c2.21,0,4-1.79,4-4s-1.79-4-4-4-4,1.79-4,4,1.79,4,4,4Z" fill="url(#color-1)"/>
    <path class="color-2" d="m32.45,113.82c2.21,0,4-1.79,4-4s-1.79-4-4-4-4,1.79-4,4,1.79,4,4,4Z" fill="url(#color-2)"/>
    <path class="color-3" d="m118.82,39.09c1.66,0,3-1.34,3-3s-1.34-3-3-3-3,1.34-3,3,1.34,3,3,3Z" fill="url(#color-3)"/>
    <path class="color-1" d="m12.16,86.65c-4.12,0-7.62-3.17-7.95-7.35-.35-4.4,2.93-8.24,7.32-8.6,5.82-.47,9.99-2.16,12.41-5.02,3.11-3.69,2.7-8.66,2.69-8.71v.11s15.87-1.9,15.87-1.9c.14,1.16,1.15,11.63-6.11,20.5-5.26,6.43-13.2,10.11-23.58,10.93-.21.02-.43.03-.65.03h0Z" fill="url(#color-1)"/>
    <path class="color-2" d="m20.51,12.47c4.22,0,7.65,3.43,7.65,7.65v7.62h31.23v-7.62c0-4.22,3.43-7.65,7.65-7.65s7.64,3.42,7.65,7.64h0c0-4.24-3.43-7.66-7.65-7.66H20.51c-4.22,0-7.65,3.43-7.65,7.65h0c0-4.2,3.43-7.62,7.65-7.62Z" fill="url(#color-2)"/>
    <path class="color-2" d="m51.69,50.84c4.41,0,7.98,3.57,7.98,7.98v.49h7.36c4.22,0,7.65-3.43,7.65-7.65,0,0,0,0,0,0,0,4.22-3.43,7.64-7.65,7.64s-7.65-3.43-7.65-7.65v-7.63h-31.23v7.63c0,4.22-3.43,7.65-7.65,7.65s-7.64-3.42-7.65-7.64c0,0,0,0,0,0,0,4.22,3.43,7.65,7.65,7.65h23.2v-.49c0-4.41,3.57-7.98,7.98-7.98Z" fill="url(#color-2)"/>
    <path class="color-1" d="m67.04,27.74h-7.65v16.27h7.65c4.22,0,7.64,3.42,7.65,7.64h0v-31.53h0c0,4.2-3.43,7.62-7.65,7.62h0Z" fill="url(#color-1)"/>
    <path class="color-3" d="m67.04,12.47c-4.22,0-7.65,3.43-7.65,7.65v7.62h7.65c4.22,0,7.64-3.42,7.65-7.64,0-4.22-3.43-7.64-7.65-7.64Z" fill="url(#color-3)"/>
    <path class="color-3" d="m67.04,44.01h-7.65v7.63c0,4.22,3.43,7.65,7.65,7.65s7.64-3.42,7.65-7.64c0-4.22-3.43-7.64-7.65-7.64h0Z" fill="url(#color-3)"/>
    <path class="color-1" d="m20.51,44.01h7.65v-16.27h-7.65c-4.22,0-7.64-3.42-7.65-7.64h0v31.53h0c0-4.21,3.43-7.64,7.65-7.64h0Z" fill="url(#color-1)"/>
    <path class="color-3" d="m20.51,27.74h7.65v-7.62c0-4.22-3.43-7.65-7.65-7.65s-7.64,3.42-7.65,7.64c0,4.22,3.43,7.64,7.65,7.64Z" fill="url(#color-3)"/>
    <path class="color-3" d="m20.51,59.29c4.22,0,7.65-3.43,7.65-7.65v-7.63h-7.65c-4.22,0-7.64,3.42-7.65,7.64,0,4.22,3.43,7.64,7.65,7.64h0Z" fill="url(#color-3)"/>
    <path class="color-3" d="m59.68,58.82c0-4.41-3.57-7.98-7.98-7.98s-7.98,3.57-7.98,7.98v.49h15.97v-.49Z" fill="url(#color-3)"/>
    <path class="color-2" d="m98.32,36.1c-4.22,0-7.65,3.43-7.65,7.65v11.15c2.1.33,4,1.47,5.26,3.22,1.5,2.09,1.9,4.77,1.08,7.2-.41,1.21-2.51,7.21-6.33,14.07v20.52c0,4.22,3.43,7.65,7.65,7.65s7.65-3.43,7.65-7.65v-56.17c0-4.22-3.43-7.65-7.65-7.65h0Z" fill="url(#color-2)"/>
    <path class="color-2" d="m65.43,85.23c2.48-1.6,4.78-4.01,6.85-6.74-3.17.05-5.74-.6-7.68-1.96-3.83-2.69-4.74-7.82-4.9-8.95v-8.27h-15.97v8.72l.02.59c.1,1.36,1.28,13.49,11.44,20.81,2.05,1.48,4.27,2.63,6.67,3.45-.35-2.93.94-5.93,3.59-7.64Z" fill="url(#color-2)"/>
    <path class="color-2" d="m80.26,93.6c1-.19,2.01-.42,3.03-.69,4.27-1.08,6.86-5.43,5.77-9.7-.06-.25-.14-.49-.22-.72-2.36,3.83-5.22,7.74-8.59,11.1Z" fill="url(#color-2)"/>
    <path class="color-2" d="m61.84,92.88c.14,1.17.53,2.34,1.22,3.39,1.53,2.36,4.09,3.65,6.71,3.65,1.48,0,2.99-.41,4.32-1.28,2.22-1.43,4.27-3.15,6.17-5.04-2.95.58-5.75.86-8.41.86-3.61,0-6.95-.53-10.01-1.59h0Z" fill="url(#color-2)"/>
    <path class="color-2" d="m90.67,54.9c-.41-.07-.82-.11-1.23-.11h-17.12c-4.41,0-7.98,3.57-7.98,7.98s3.57,7.98,7.98,7.98h4.86c-1.4,2.6-3.05,5.3-4.9,7.74,2.11-.03,4.47-.38,7.1-1.05,4.03-1.02,8.12,1.22,9.48,5.06.65-1.04,1.25-2.08,1.82-3.1v-24.5Z" fill="url(#color-2)"/>
    <path class="color-1" d="m79.36,77.44c-2.63.67-4.99,1.01-7.1,1.05-2.06,2.73-4.36,5.14-6.85,6.74-2.64,1.71-3.93,4.72-3.59,7.64,3.06,1.06,6.4,1.59,10.01,1.59,2.66,0,5.46-.29,8.41-.86,3.37-3.37,6.23-7.27,8.59-11.1-1.36-3.84-5.45-6.08-9.48-5.06h0Z" fill="url(#color-1)"/>
    <path class="color-3" d="m95.92,58.12c-1.26-1.75-3.16-2.89-5.26-3.22v24.5c3.82-6.87,5.92-12.86,6.33-14.07.82-2.43.42-5.12-1.08-7.2h0Z" fill="url(#color-3)"/>
    <path class="color-1" d="m127.53,86.91s-2.72-1.61-5.32-4.27c-1.92-1.98-4.22-5.01-4.36-8.32.24-6.24,5.26-8.88,5.83-9.17l-.11.05s6.28-4.18,2.96-10.88c-3.13-6.33-9.51-3.68-9.51-3.68-5.48,2.47-14.84,10.19-15.14,23.5v.36c.15,6.93,3.36,13.72,9.26,19.64,4.02,4.04,7.99,6.35,8.43,6.61,1.25.72,2.62,1.06,3.97,1.06,2.77,0,5.47-1.44,6.95-4.02,2.19-3.83.88-8.7-2.95-10.88h0Z" fill="url(#color-1)"/>
    <path fill="#ffffff" class="color-5" d="m18.12,83.08h18.34c1.68,0,3.19,1.22,3.34,2.9.17,1.89-1.32,3.47-3.17,3.47h-.27s-1.01.13-1.01.97c0,.24.09.41.2.55h11.08c1.68,0,3.19,1.22,3.34,2.9.17,1.89-1.32,3.47-3.17,3.47h-18.34c-1.68,0-3.19-1.22-3.34-2.9-.17-1.89,1.32-3.47,3.17-3.47h2.71c.09-.13.15-.29.15-.53,0-.97-1.09-1-1.09-1h-11.78c-1.68,0-3.19-1.22-3.34-2.9-.17-1.89,1.32-3.47,3.17-3.47h0Z"/>
    <path  fill="#ffffff" class="color-5" d="m103.71,24.1h-6.45c-1.64,0-2.97,1.33-2.97,2.97v.43c0,1.64,1.33,2.97,2.97,2.97h6.45c1.64,0,2.97-1.33,2.97-2.97v-.43c0-1.64-1.33-2.97-2.97-2.97Z"/>
    <path fill="#ffffff" class="color-5" d="m98.01,16h-18.34c-1.68,0-3.19,1.22-3.34,2.9-.17,1.89,1.32,3.47,3.17,3.47h.27s1.01.13,1.01.97c0,.24-.09.41-.2.55h-11.08c-1.68,0-3.19,1.22-3.34,2.9-.17,1.89,1.32,3.47,3.17,3.47h18.34c1.68,0,3.19-1.22,3.34-2.9.17-1.89-1.32-3.47-3.17-3.47h-2.71c-.09-.13-.15-.29-.15-.53,0-.97,1.09-1,1.09-1h11.78c1.68,0,3.19-1.22,3.34-2.9.17-1.89-1.32-3.47-3.17-3.47h0Z"/>
</svg>