<?xml version="1.0" encoding="UTF-8"?>
<svg id="bottom06" xmlns="http://www.w3.org/2000/svg" viewBox="0 0 137 120">
  <defs>
    <style>
      .stroke-width {
        stroke-width: .5px;
      }

      .stroke-linecap{
        stroke-linecap: round;
      }

      .stroke-color-1 {
        stroke: #fa4013;
      }

      .stroke-color-2 {
        stroke: #9cd323;
      }

      .stroke-color-3 {
        stroke:#404272;
      }

      .stroke-color-4 {
        stroke: #ffffff;
      }      
    </style>
    <linearGradient id="color-1" gradientTransform="rotate(90)">
      <stop offset="0%" stop-color="#fa4013" />
      <stop offset="100%" stop-color="#fa4013" />
      <stop offset="100%" stop-color="white" />
    </linearGradient>
    <linearGradient id="color-2" gradientTransform="rotate(90)">
      <stop offset="0%" stop-color="#9cd323" />
      <stop offset="100%" stop-color="#9cd323"/>
      <stop offset="100%" stop-color="white" />
    </linearGradient>
    <linearGradient id="color-3" gradientTransform="rotate(90)">
      <stop offset="0%" stop-color="#404272" />
      <stop offset="100%" stop-color="#404272" />
      <stop offset="100%" stop-color="white" />
    </linearGradient>   
    <linearGradient id="color-4" gradientTransform="rotate(90)">
      <stop offset="0%" stop-color="#ffffff" />
      <stop offset="100%" stop-color="#ffffff" />
      <stop offset="100%" stop-color="white" />
    </linearGradient>   
  </defs>
  <path class="stroke-width stroke-linecap stroke-color-1" d="m83.37,90.29v3.67s.52,10.13-21.09,7.7c-20.59-2.32-26.32-17.39-22.75-27.36,0,0,3.21-5.16,7.34-1.22,4.15,3.96-3.74,8.51-7.17,8.33-9.67-.5-7.66-17.21-7.66-23.57v-24.12" fill="none"/>
  <path class="color-1" d="m75.48,26.08c0-1.84-1.49-3.34-3.34-3.34h-4.25c.24.03.91.4.91,3.34,0,1.84,1.49,3.34,3.34,3.34s3.34-1.49,3.34-3.34Z" fill="url(#color-1)"/>
  <path class="color-1" d="m97.18,39.55h.01s-7.85,0-7.85,0v-8.77h-6.11v8.77h-13.41c1.69,0,1.88,2,1.88,4.15,0,1.26.62,1.71,1.13,1.88v.09h10.4v13.06h-13.42c1.69,0,1.88,2,1.88,4.15,0,1.26.62,1.71,1.13,1.87v.08h.46c.12,0,.2,0,.22,0h9.73v27.05c0-1.9,2-2.11,4.15-2.11s1.96-2.02,1.96-2.02v-22.92h7.84s8.21.92,8.21-12.67c0,0,0-12.61-8.21-12.61Zm0,19.18h-7.85v-13.06h7.85s7.8.45,7.8,6.59-7.8,6.47-7.8,6.47Z" fill="url(#color-1)"/>
  <path class="color-3" d="m56.47,40.66c-3.38,0-6.11-2.74-6.11-6.11v-7.78c.07.44.73,1.66,6.11,1.66,3.38,0,6.11,2.74,6.11,6.11s-2.74,6.11-6.11,6.11Z" fill="url(#color-3)"/>
  <path class="color-3" d="m86.19,22.75c0-1.84-1.49-3.34-3.34-3.34h-4.25c.24.03.91.4.91,3.34,0,1.84,1.49,3.34,3.34,3.34s3.34-1.49,3.34-3.34Z" fill="url(#color-3)"/>
  <path class="color-2" d="m66.4,66.16v-3.5c0-.15-.2-.19-.27-.06-.62,1.09-2.2,1.24-3.88,1.24-2.15,0-1.96,2.32-1.96,2.32,0,8.23-2.96,10.96-4.65,11.92-.34.19-.94.43-1.3.43l-2,.22c.96,0,1.66,1.34,1.72,2.1.07.85-.29,1.3.07,2.76.23.95,1.23,1.43,2.24,1.2,2.01-.47,3.59-1.73,3.59-1.73,6.83-5.92,6.45-16.89,6.45-16.89h0Z" fill="url(#color-2)"/>
  <path class="color-2" d="m34.49,29.44c-2.73,0-2.62,3.8-2.62,3.8v17.71c0-1.9,2-2.11,4.15-2.11s1.96-2.02,1.96-2.02v-13.58c0-3.29,3.22-3.8,3.22-3.8h-6.71,0Z" fill="url(#color-2)"/>
  <path class="color-2" d="m97.84,17.72s-1.45,10-15.93,10c0,0-7.17-.07-7.17,4.96s.24,4.34.24,4.34c.03-.04,1.61-2.8,5.98-3.05,2.79-.16,16.89-1.57,16.89-16.25Z" fill="url(#color-2)"/>
</svg>