<svg width="60" height="30" viewBox="0 0 60 30" fill="none" xmlns="http://www.w3.org/2000/svg">
<g clip-path="url(#clip0_1_360)">
<path fill-rule="evenodd" clip-rule="evenodd" d="M15.2768 1.24553C12.3646 1.24553 10.0039 3.58924 10.0039 6.48026C10.0039 9.37129 12.3646 11.715 15.2768 11.715C18.189 11.715 20.5497 9.37129 20.5497 6.48026C20.5497 3.58924 18.189 1.24553 15.2768 1.24553ZM9.57837 6.48026C9.57837 3.3558 12.1297 0.822998 15.2768 0.822998C18.4239 0.822998 20.9752 3.3558 20.9752 6.48026C20.9752 9.60472 18.4239 12.1375 15.2768 12.1375C12.1297 12.1375 9.57837 9.60472 9.57837 6.48026Z" fill="#DAFF8C"/>
<path fill-rule="evenodd" clip-rule="evenodd" d="M24.6527 6.96636C21.7405 6.96636 19.3798 9.31007 19.3798 12.2011C19.3798 15.0921 21.7405 17.4358 24.6527 17.4358C27.5649 17.4358 29.9256 15.0921 29.9256 12.2011C29.9256 9.31007 27.5649 6.96636 24.6527 6.96636ZM18.9543 12.2011C18.9543 9.07663 21.5056 6.54382 24.6527 6.54382C27.7998 6.54382 30.3512 9.07663 30.3512 12.2011C30.3512 15.3255 27.7998 17.8584 24.6527 17.8584C21.5056 17.8584 18.9543 15.3255 18.9543 12.2011Z" fill="#DAFF8C"/>
<path fill-rule="evenodd" clip-rule="evenodd" d="M20.7625 17.1857C17.8503 17.1857 15.4896 19.5294 15.4896 22.4204C15.4896 25.3115 17.8503 27.6552 20.7625 27.6552C23.6747 27.6552 26.0354 25.3115 26.0354 22.4204C26.0354 19.5294 23.6747 17.1857 20.7625 17.1857ZM15.0641 22.4204C15.0641 19.296 17.6154 16.7632 20.7625 16.7632C23.9096 16.7632 26.461 19.296 26.461 22.4204C26.461 25.5449 23.9096 28.0777 20.7625 28.0777C17.6154 28.0777 15.0641 25.5449 15.0641 22.4204Z" fill="#DAFF8C"/>
<path fill-rule="evenodd" clip-rule="evenodd" d="M44.8834 0.572926C36.8575 0.572926 30.3512 7.0322 30.3512 15C30.3512 22.9679 36.8575 29.4272 44.8834 29.4272C52.9094 29.4272 59.4157 22.9679 59.4157 15C59.4157 7.0322 52.9094 0.572926 44.8834 0.572926ZM29.9257 15C29.9257 6.79877 36.6225 0.150391 44.8834 0.150391C53.1444 0.150391 59.8412 6.79877 59.8412 15C59.8412 23.2013 53.1444 29.8497 44.8834 29.8497C36.6225 29.8497 29.9257 23.2013 29.9257 15Z" fill="#DAFF8C"/>
<path fill-rule="evenodd" clip-rule="evenodd" d="M9.79115 17.1857C6.87897 17.1857 4.51824 19.5294 4.51824 22.4204C4.51824 25.3115 6.87897 27.6552 9.79115 27.6552C12.7033 27.6552 15.0641 25.3115 15.0641 22.4204C15.0641 19.5294 12.7033 17.1857 9.79115 17.1857ZM4.09271 22.4204C4.09271 19.296 6.64403 16.7632 9.79115 16.7632C12.9383 16.7632 15.4896 19.296 15.4896 22.4204C15.4896 25.5449 12.9383 28.0777 9.79115 28.0777C6.64403 28.0777 4.09271 25.5449 4.09271 22.4204Z" fill="#DAFF8C"/>
<path fill-rule="evenodd" clip-rule="evenodd" d="M5.98103 6.96636C3.06885 6.96636 0.708125 9.31007 0.708125 12.2011C0.708125 15.0921 3.06885 17.4358 5.98103 17.4358C8.89322 17.4358 11.2539 15.0921 11.2539 12.2011C11.2539 9.31007 8.89322 6.96636 5.98103 6.96636ZM0.282593 12.2011C0.282593 9.07663 2.83391 6.54382 5.98103 6.54382C9.12815 6.54382 11.6795 9.07663 11.6795 12.2011C11.6795 15.3255 9.12815 17.8584 5.98103 17.8584C2.83391 17.8584 0.282593 15.3255 0.282593 12.2011Z" fill="#DAFF8C"/>
<path fill-rule="evenodd" clip-rule="evenodd" d="M4.60868 5.98494C4.55289 6.20962 4.5818 6.35307 4.64646 6.44066C4.71112 6.52824 4.84022 6.5988 5.07283 6.61361C5.30394 6.62833 5.60626 6.58481 5.96379 6.47794C6.67691 6.26478 7.56365 5.81357 8.44834 5.16981C9.33304 4.52605 10.0334 3.8224 10.4528 3.21144C10.6631 2.90513 10.7959 2.63203 10.8514 2.4088C10.9072 2.18413 10.8782 2.04067 10.8136 1.95309C10.7489 1.8655 10.6198 1.79495 10.3872 1.78013C10.1561 1.76541 9.85379 1.80893 9.49626 1.9158C8.78313 2.12897 7.8964 2.58018 7.0117 3.22394C6.12701 3.86769 5.42665 4.57135 5.00721 5.1823C4.79693 5.48861 4.66412 5.76171 4.60868 5.98494ZM4.65555 4.94434C5.10875 4.28421 5.84702 3.54758 6.76011 2.88316C7.6732 2.21874 8.60302 1.74156 9.37354 1.51124C9.75784 1.39637 10.1141 1.33937 10.4144 1.3585C10.7132 1.37753 10.9884 1.47519 11.1568 1.70333C11.3252 1.93146 11.3362 2.22134 11.2646 2.50996C11.1925 2.80002 11.0305 3.12017 10.8045 3.44941C10.3513 4.10954 9.61303 4.84616 8.69994 5.51058C7.78684 6.175 6.85703 6.65218 6.0865 6.8825C5.70221 6.99737 5.34592 7.05437 5.04561 7.03524C4.7468 7.01621 4.47166 6.91855 4.30323 6.69042C4.13479 6.46228 4.12381 6.1724 4.19548 5.88379C4.26752 5.59372 4.42952 5.27358 4.65555 4.94434Z" fill="#DAFF8C"/>
<path fill-rule="evenodd" clip-rule="evenodd" d="M19.9597 3.21137C20.3792 3.82233 21.0795 4.52598 21.9642 5.16974C22.8489 5.8135 23.7356 6.26471 24.4488 6.47788C24.8063 6.58475 25.1086 6.62827 25.3397 6.61355C25.5723 6.59873 25.7014 6.52818 25.7661 6.44059C25.8308 6.35301 25.8597 6.20955 25.8039 5.98487C25.7484 5.76165 25.6156 5.48854 25.4053 5.18223C24.9859 4.57128 24.2856 3.86763 23.4009 3.22387C22.5162 2.58011 21.6294 2.1289 20.9163 1.91573C20.5588 1.80886 20.2565 1.76534 20.0253 1.78006C19.7927 1.79488 19.6636 1.86543 19.599 1.95302C19.5343 2.0406 19.5054 2.18406 19.5612 2.40874C19.6166 2.63196 19.7494 2.90507 19.9597 3.21137ZM19.148 2.50989C19.0763 2.22128 19.0873 1.9314 19.2557 1.70326C19.4242 1.47513 19.6993 1.37746 19.9981 1.35843C20.2984 1.3393 20.6547 1.3963 21.039 1.51117C21.8095 1.7415 22.7394 2.21868 23.6525 2.8831C24.5655 3.54752 25.3038 4.28414 25.757 4.94427C25.983 5.27351 26.145 5.59365 26.2171 5.88372C26.2887 6.17234 26.2778 6.46222 26.1093 6.69035C25.9409 6.91849 25.6658 7.01615 25.367 7.03518C25.0666 7.05431 24.7104 6.99731 24.3261 6.88243C23.5555 6.65211 22.6257 6.17493 21.7126 5.51051C20.7995 4.84609 20.0613 4.10947 19.6081 3.44934C19.382 3.1201 19.22 2.79996 19.148 2.50989Z" fill="#DAFF8C"/>
<path fill-rule="evenodd" clip-rule="evenodd" d="M12.3519 27.0272C13.1105 26.7605 14.1446 26.5992 15.2768 26.5992C16.4091 26.5992 17.4432 26.7605 18.2018 27.0272C18.5801 27.1602 18.9014 27.3234 19.1321 27.515C19.3617 27.7055 19.5255 27.9455 19.5255 28.2281C19.5255 28.5106 19.3617 28.7506 19.1321 28.9412C18.9014 29.1327 18.5801 29.2959 18.2018 29.4289C17.4432 29.6956 16.4091 29.8569 15.2768 29.8569C14.1446 29.8569 13.1105 29.6956 12.3519 29.4289C11.9736 29.2959 11.6523 29.1327 11.4216 28.9412C11.192 28.7506 11.0281 28.5106 11.0281 28.2281C11.0281 27.9455 11.192 27.7055 11.4216 27.515C11.6523 27.3234 11.9736 27.1602 12.3519 27.0272ZM11.6945 27.8391C11.5156 27.9876 11.4537 28.1201 11.4537 28.2281C11.4537 28.3361 11.5156 28.4685 11.6945 28.617C11.8721 28.7645 12.1419 28.9068 12.4939 29.0306C13.196 29.2774 14.1799 29.4343 15.2768 29.4343C16.3738 29.4343 17.3577 29.2774 18.0598 29.0306C18.4118 28.9068 18.6815 28.7645 18.8592 28.617C19.0381 28.4685 19.1 28.3361 19.1 28.2281C19.1 28.1201 19.0381 27.9876 18.8592 27.8391C18.6815 27.6917 18.4118 27.5493 18.0598 27.4255C17.3577 27.1787 16.3738 27.0218 15.2768 27.0218C14.1799 27.0218 13.196 27.1787 12.4939 27.4255C12.1419 27.5493 11.8721 27.6917 11.6945 27.8391Z" fill="#DAFF8C"/>
<path fill-rule="evenodd" clip-rule="evenodd" d="M26.4965 22.3299C26.5677 22.5502 26.6681 22.6573 26.7695 22.6983C26.8708 22.7392 27.018 22.732 27.2239 22.6235C27.4284 22.5157 27.6629 22.3213 27.9108 22.0442C28.4054 21.4914 28.9221 20.6455 29.3353 19.6368C29.7485 18.6281 29.9731 17.6643 30.0075 16.9258C30.0247 16.5555 29.9935 16.2538 29.9228 16.0349C29.8516 15.8145 29.7512 15.7074 29.6499 15.6665C29.5485 15.6256 29.4013 15.6327 29.1955 15.7412C28.9909 15.849 28.7565 16.0435 28.5085 16.3206C28.014 16.8734 27.4973 17.7192 27.0841 18.7279C26.6709 19.7367 26.4463 20.7004 26.4119 21.439C26.3946 21.8093 26.4258 22.111 26.4965 22.3299ZM25.9868 21.4195C26.0239 20.6215 26.2634 19.6099 26.6899 18.5688C27.1164 17.5277 27.656 16.6373 28.1904 16.04C28.4569 15.7421 28.7302 15.5081 28.996 15.368C29.2605 15.2286 29.5463 15.1686 29.8102 15.2751C30.0741 15.3816 30.2366 15.6227 30.328 15.9058C30.4199 16.1903 30.4511 16.5472 30.4326 16.9452C30.3954 17.7433 30.1559 18.7548 29.7295 19.796C29.303 20.8371 28.7634 21.7275 28.229 22.3248C27.9624 22.6226 27.6892 22.8567 27.4234 22.9967C27.1589 23.1361 26.873 23.1962 26.6091 23.0897C26.3452 22.9831 26.1828 22.742 26.0913 22.459C25.9994 22.1745 25.9682 21.8175 25.9868 21.4195Z" fill="#DAFF8C"/>
<path fill-rule="evenodd" clip-rule="evenodd" d="M0.583999 16.9196C0.618389 17.6582 0.843003 18.622 1.25621 19.6307C1.66942 20.6394 2.18607 21.4853 2.68065 22.0381C2.92862 22.3152 3.16303 22.5096 3.36758 22.6174C3.57346 22.7259 3.72066 22.7331 3.82201 22.6921C3.92336 22.6512 4.02376 22.5441 4.09494 22.3238C4.16566 22.1049 4.19684 21.8032 4.1796 21.4329C4.14521 20.6943 3.9206 19.7306 3.50739 18.7218C3.09418 17.7131 2.57753 16.8673 2.08295 16.3145C1.83498 16.0373 1.60057 15.8429 1.39602 15.7351C1.19014 15.6266 1.04294 15.6195 0.941588 15.6604C0.840239 15.7013 0.739842 15.8084 0.668663 16.0288C0.597943 16.2477 0.566757 16.5494 0.583999 16.9196ZM0.263442 15.8997C0.354882 15.6166 0.517358 15.3755 0.78126 15.269C1.04516 15.1624 1.33101 15.2225 1.59549 15.3619C1.86129 15.502 2.13455 15.736 2.40108 16.0339C2.93548 16.6312 3.47511 17.5216 3.90159 18.5627C4.32806 19.6038 4.56754 20.6154 4.6047 21.4134C4.62323 21.8114 4.59206 22.1684 4.50016 22.4529C4.40872 22.7359 4.24624 22.977 3.98234 23.0835C3.71844 23.1901 3.43259 23.13 3.16811 22.9906C2.90231 22.8506 2.62905 22.6165 2.36252 22.3186C1.82812 21.7214 1.28849 20.831 0.862015 19.7898C0.435541 18.7487 0.19606 17.7372 0.158901 16.9391C0.140368 16.5411 0.171544 16.1842 0.263442 15.8997Z" fill="#DAFF8C"/>
<path fill-rule="evenodd" clip-rule="evenodd" d="M44.8835 15.5512H15.2769V15.1287H44.8835V15.5512Z" fill="#DAFF8C"/>
<path d="M15.4736 16.8009C16.2782 16.8009 16.9306 16.1533 16.9306 15.3544C16.9306 14.5556 16.2782 13.908 15.4736 13.908C14.6689 13.908 14.0165 14.5556 14.0165 15.3544C14.0165 16.1533 14.6689 16.8009 15.4736 16.8009Z" fill="#DAFF8C"/>
<path d="M44.8834 16.8009C45.6881 16.8009 46.3404 16.1533 46.3404 15.3544C46.3404 14.5556 45.6881 13.908 44.8834 13.908C44.0787 13.908 43.4264 14.5556 43.4264 15.3544C43.4264 16.1533 44.0787 16.8009 44.8834 16.8009Z" fill="#DAFF8C"/>
</g>
<defs>
<clipPath id="clip0_1_360">
<rect width="60" height="30" fill="white"/>
</clipPath>
</defs>
</svg>
