<?xml version="1.0" encoding="UTF-8"?>
<svg xmlns="http://www.w3.org/2000/svg" viewBox="0 0 185 308">
  <defs>
    <style>
      .stroke-width {
        stroke-width: 1px;
      }

      .stroke-color-1 {
        stroke: #ffcf08;
      }

      .stroke-color-2 {
        stroke: #ff6836;
      }

      .stroke-color-3 {
        stroke: #404272;
      }

      .stroke-color-4 {
        stroke: #2aaeb3;
      }
    </style>
    <linearGradient id="color-1" gradientTransform="rotate(90)">
      <stop offset="0%" stop-color="#ffcf08" />
      <stop offset="100%" stop-color="#ffcf08" />
      <stop offset="100%" stop-color="white" />
    </linearGradient>
    <linearGradient id="color-2" gradientTransform="rotate(90)">
      <stop offset="0%" stop-color="#ff6836" />
      <stop offset="100%" stop-color="#ff6836" />
      <stop offset="100%" stop-color="white" />
    </linearGradient>
    <linearGradient id="color-3" gradientTransform="rotate(90)">
      <stop offset="0%" stop-color="#404272" />
      <stop offset="100%" stop-color="#404272" />
      <stop offset="100%" stop-color="white" />
    </linearGradient>
    <linearGradient id="color-4" gradientTransform="rotate(90)">
      <stop offset="0%" stop-color="#2aaeb3" />
      <stop offset="100%" stop-color="#2aaeb3" />
      <stop offset="100%" stop-color="white" />
    </linearGradient>
  </defs>
    <path class="color-1" d="m124.64,150.27c2.21,0,4-1.79,4-4s-1.79-4-4-4-4,1.79-4,4,1.79,4,4,4Z" fill="url(#color-1)"/>
    <path class="color-4" d="m57.94,292.31c2.21,0,4-1.79,4-4s-1.79-4-4-4-4,1.79-4,4,1.79,4,4,4Z" fill="url(#color-4)"/>
    <path class="color-3" d="m20.82,183.88c2.21,0,4-1.79,4-4s-1.79-4-4-4-4,1.79-4,4,1.79,4,4,4Z" fill="url(#color-3)"/>
    <path class="color-2" d="m117.07,157.55c1.66,0,3-1.34,3-3s-1.34-3-3-3-3,1.34-3,3,1.34,3,3,3Z" fill="url(#color-2)"/>
    <path class="color-2" d="m69.46,287.31c1.66,0,3-1.34,3-3s-1.34-3-3-3-3,1.34-3,3,1.34,3,3,3Z" fill="url(#color-2)"/>
    <path class="color-2" d="m27.08,144.54c3.33,0,6.32,1.38,8.48,3.58.01-.21.03-.41.03-.62V30.27c0-4.7-3.81-8.51-8.51-8.51s-8.51,3.81-8.51,8.51v117.22c0,.21.01.41.03.62,2.15-2.2,5.15-3.58,8.48-3.58Z" fill="url(#color-2)"/>
    <path class="color-2" d="m156.64,144.54c3.33,0,6.32,1.38,8.48,3.58.01-.21.03-.41.03-.62V30.27c0-4.7-3.81-8.51-8.51-8.51s-8.51,3.81-8.51,8.51v117.22c0,.21.01.41.03.62,2.15-2.2,5.15-3.58,8.48-3.58Z" fill="url(#color-2)"/>
    <path class="color-1" d="m27.08,156c-4.49,0-8.15-3.48-8.48-7.88-2.08,2.13-3.36,5.04-3.36,8.25,0,6.54,5.3,11.83,11.83,11.83s11.83-5.3,11.83-11.83c0-3.21-1.29-6.12-3.36-8.25-.32,4.41-3.99,7.88-8.48,7.88Z" fill="url(#color-1)"/>
    <path class="color-4" d="m27.08,156c4.49,0,8.15-3.48,8.48-7.88-2.15-2.2-5.15-3.58-8.48-3.58s-6.32,1.38-8.48,3.58c.32,4.41,3.99,7.88,8.48,7.88Z" fill="url(#color-4)"/>
    <path class="color-1" d="m165.12,148.12c-.32,4.41-3.99,7.88-8.48,7.88s-8.15-3.48-8.48-7.88c-2.08,2.13-3.36,5.04-3.36,8.25,0,6.54,5.3,11.83,11.83,11.83s11.83-5.3,11.83-11.83c0-3.21-1.29-6.12-3.36-8.25Z" fill="url(#color-1)"/>
    <path class="color-4" d="m156.64,156c4.49,0,8.15-3.48,8.48-7.88-2.15-2.2-5.15-3.58-8.48-3.58s-6.32,1.38-8.48,3.58c.32,4.41,3.99,7.88,8.48,7.88Z" fill="url(#color-4)"/>
    <path class="color-2" d="m144.81,22.36c0-3.34,1.39-6.35,3.62-8.51H36.87c-.49,0-.97.05-1.43.13,2.14,2.14,3.48,5.1,3.48,8.37s-1.33,6.23-3.48,8.37c.47.08.95.13,1.43.13h111.56c-2.23-2.15-3.62-5.16-3.62-8.51Z" fill="url(#color-2)"/>
    <path class="color-1" d="m156.64,10.53c-3.2,0-6.09,1.27-8.22,3.33h1.84c4.7,0,8.51,3.81,8.51,8.51s-3.81,8.51-8.51,8.51h-1.84c2.13,2.06,5.02,3.33,8.22,3.33,6.54,0,11.83-5.3,11.83-11.83s-5.3-11.83-11.83-11.83Z" fill="url(#color-1)"/>
    <path class="color-4" d="m158.77,22.36c0-4.7-3.81-8.51-8.51-8.51h-1.84c-2.23,2.15-3.62,5.16-3.62,8.51s1.39,6.35,3.62,8.51h1.84c4.7,0,8.51-3.81,8.51-8.51Z" fill="url(#color-4)"/>
    <path class="color-1" d="m28.37,22.36c0-4.21,3.05-7.69,7.07-8.37-2.14-2.14-5.1-3.46-8.36-3.46-6.54,0-11.83,5.3-11.83,11.83s5.3,11.83,11.83,11.83c3.26,0,6.22-1.32,8.36-3.46-4.01-.68-7.07-4.17-7.07-8.37Z" fill="url(#color-1)"/>
    <path class="color-4" d="m38.91,22.36c0-3.27-1.33-6.23-3.48-8.37-4.01.68-7.07,4.17-7.07,8.37s3.05,7.69,7.07,8.37c2.14-2.14,3.48-5.1,3.48-8.37Z" fill="url(#color-4)"/>
    <path class="color-1" d="m78.23,194.77h-21.09c-4.7,0-8.51,3.81-8.51,8.51s3.81,8.51,8.51,8.51h21.09c4.7,0,8.51-3.81,8.51-8.51s-3.81-8.51-8.51-8.51Z" fill="url(#color-1)"/>
    <path class="color-1" d="m27.7,285.27h-1.24c-4.34,0-7.86-3.51-7.88-7.85-2.06,2.13-3.33,5.02-3.33,8.22,0,6.54,5.3,11.83,11.83,11.83s11.83-5.3,11.83-11.83c0-3.2-1.27-6.09-3.33-8.22-.02,4.34-3.54,7.85-7.88,7.85h0Z" fill="url(#color-1)"/>
    <path class="color-1" d="m165.12,277.39c-.32,4.41-3.99,7.88-8.48,7.88s-8.15-3.48-8.48-7.88c-2.08,2.13-3.36,5.04-3.36,8.25,0,6.54,5.3,11.83,11.83,11.83s11.83-5.3,11.83-11.83c0-3.21-1.29-6.12-3.36-8.25Z" fill="url(#color-1)"/>
    <path class="color-2" d="m27.08,273.81c3.34,0,6.35,1.39,8.51,3.62v-65.88c0-4.36-3.54-7.89-7.89-7.89h-1.24c-4.36,0-7.89,3.54-7.89,7.89v65.88c2.15-2.23,5.16-3.62,8.51-3.62h0Z" fill="url(#color-2)"/>
    <path class="color-4" d="m26.47,285.27h1.24c4.34,0,7.86-3.51,7.88-7.85-2.15-2.23-5.16-3.62-8.51-3.62s-6.35,1.39-8.51,3.62c.02,4.34,3.54,7.85,7.88,7.85h0Z" fill="url(#color-4)"/>
    <path class="color-2" d="m156.64,273.81c3.33,0,6.32,1.38,8.48,3.58.01-.21.03-.41.03-.62v-64.61c0-4.7-3.81-8.51-8.51-8.51s-8.51,3.81-8.51,8.51v64.61c0,.21.01.41.03.62,2.15-2.2,5.15-3.58,8.48-3.58Z" fill="url(#color-2)"/>
    <path class="color-4" d="m156.64,285.27c4.49,0,8.15-3.48,8.48-7.88-2.15-2.2-5.15-3.58-8.48-3.58s-6.32,1.38-8.48,3.58c.32,4.41,3.99,7.88,8.48,7.88Z" fill="url(#color-4)"/>
    <path class="color-2" d="m90.95,161.5c.07-.11.16-.21.24-.31,0,0,0-.01-.01-.01-2.69-3.85-8-4.79-11.85-2.09l-48.68,34.09c4.79,1.52,8.26,5.99,8.26,11.28,0,1.41-.26,2.74-.71,3.99.5-.22.98-.49,1.44-.81l49.44-34.62c.72-.51,1.35-1.11,1.86-1.78-1.99-2.85-2.11-6.74,0-9.74h0Z" fill="url(#color-2)"/>
    <path class="color-2" d="m151.75,193.7l-48.96-34.27c-3.74-2.62-8.85-1.8-11.6,1.78,2.17,3.12,1.97,7.19-.24,10.05.55.8,1.25,1.52,2.09,2.1l50.36,35.26c.85.6,1.78,1.01,2.73,1.25-.84-1.62-1.32-3.45-1.32-5.41,0-4.79,2.85-8.9,6.94-10.77h0Z" fill="url(#color-2)"/>
    <path class="color-1" d="m91.2,161.2c-.08.1-.16.2-.24.31-2.11,3.01-1.98,6.9,0,9.74,2.2-2.86,2.41-6.93.24-10.05Z" fill="url(#color-1)"/>
    <path class="color-1" d="m27.8,205.55c-2.69-3.85-1.76-9.15,2.09-11.85l.76-.53c-1.12-.36-2.33-.55-3.57-.55-6.54,0-11.83,5.3-11.83,11.83s5.3,11.83,11.83,11.83c5.13,0,9.49-3.27,11.12-7.84-3.64,1.61-8.03.49-10.41-2.9h0Z" fill="url(#color-1)"/>
    <path class="color-4" d="m30.65,193.18l-.76.53c-3.85,2.69-4.79,8-2.09,11.85,2.37,3.39,6.76,4.51,10.41,2.9.45-1.25.71-2.59.71-3.99,0-5.29-3.47-9.77-8.26-11.28h0Z" fill="url(#color-4)"/>
    <path class="color-1" d="m156.64,192.63c-1.75,0-3.4.39-4.9,1.07l1.41.98c3.85,2.69,4.79,8,2.09,11.85-2.1,3-5.78,4.22-9.12,3.34,1.97,3.82,5.93,6.43,10.52,6.43,6.54,0,11.83-5.3,11.83-11.83s-5.3-11.83-11.83-11.83h0Z" fill="url(#color-1)"/>
    <path class="color-4" d="m155.25,206.52c2.69-3.85,1.76-9.15-2.09-11.85l-1.41-.98c-4.09,1.86-6.94,5.98-6.94,10.77,0,1.95.48,3.79,1.32,5.41,3.34.87,7.02-.35,9.12-3.34h0Z" fill="url(#color-4)"/>
    <path class="color-1" d="m88.88,175.16c8.1,1.33,15-5.57,13.67-13.67-.8-4.9-4.76-8.86-9.66-9.67-8.1-1.33-15.01,5.58-13.67,13.68.81,4.9,4.76,8.86,9.67,9.66Z" fill="url(#color-1)"/>
    <path class="color-3" d="m115.77,228.26c6.54,0,11.83-5.3,11.83-11.83s-5.3-11.83-11.83-11.83-11.83,5.3-11.83,11.83,5.3,11.83,11.83,11.83Z" fill="url(#color-3)"/>
    <path class="color-3" d="m122.02,250.38l-16.95,5.93s-.04,0-.06.01v6.41c4.91-.55,10.55-1.44,17.01-2.79v-9.57Z" fill="url(#color-3)"/>
    <path class="color-1" d="m105,284.95c0,4.7,3.81,8.51,8.51,8.51s8.51-3.81,8.51-8.51v-6.91c-6.08,1.16-11.75,2-17.01,2.51v4.41h0Z" fill="url(#color-1)"/>
    <path class="color-2" d="m113.51,241.43c4.7,0,8.51,3.81,8.51,8.51v.44l5.56-1.95c4.44-1.55,6.77-6.41,5.22-10.84-1.55-4.44-6.41-6.77-10.84-5.22l-22.51,7.87c-4.44,1.55-6.77,6.41-5.22,10.84,1.55,4.42,6.36,6.75,10.78,5.24v-6.38c0-4.7,3.81-8.51,8.51-8.51h0Z" fill="url(#color-2)"/>
    <path class="color-4" d="m122.02,250.38v-.44c0-4.7-3.81-8.51-8.51-8.51s-8.51,3.81-8.51,8.51v6.38s.04,0,.06-.01l16.95-5.93h0Z" fill="url(#color-4)"/>
    <path class="color-2" d="m72.68,221.17c4.1,2.38,5.57,7.54,3.43,11.71h13.45c4.7,0,8.51-3.81,8.51-8.51s-3.81-8.51-8.51-8.51h-43.26c-4.7,0-8.51,3.81-8.51,8.51s3.81,8.51,8.51,8.51h10.3c1.8-4.76,3.65-8.02,3.93-8.5,2.46-4.24,7.89-5.68,12.13-3.22h.01Z" fill="url(#color-2)"/>
    <path class="color-1" d="m141.2,264.59c-1.15-4.76-5.94-7.7-10.71-6.55-2.97.72-5.8,1.35-8.48,1.91v18.09c4.03-.77,8.24-1.68,12.64-2.74,4.76-1.15,7.7-5.94,6.55-10.71Z" fill="url(#color-1)"/>
    <path class="color-1" d="m72.7,257.32c-2.75-3.68-2.01-9.5-.91-13.73,1.48-5.67,4.05-10.21,4.11-10.31.07-.13.14-.27.21-.4h-19.5c-.66,1.73-1.3,3.66-1.86,5.72-3.17,11.68-1.89,21.81,3.7,29.3,6.58,8.82,18.19,13.22,35.15,13.22,3.56,0,7.37-.19,11.4-.58v-17.81c-23.03,2.57-30.15-2.54-32.31-5.41h0Z" fill="url(#color-1)"/>
    <path class="color-4" d="m105,262.73v17.81c5.26-.5,10.93-1.35,17.01-2.51v-18.09c-6.46,1.34-12.1,2.24-17.01,2.79Z" fill="url(#color-4)"/>
    <path class="color-4" d="m72.68,221.17c-4.24-2.46-9.67-1.02-12.13,3.22-.27.47-2.13,3.74-3.93,8.5h19.5c2.14-4.17.67-9.33-3.43-11.71h0Z" fill="url(#color-4)"/>
    <path fill="#ffffff" class="cls-1" d="m60.86,175.57h19.36c1.78,0,3.37,1.29,3.52,3.06.17,1.99-1.39,3.66-3.35,3.66h-.28s-1.07.13-1.07,1.03c0,.25.09.44.21.58h11.69c1.78,0,3.37,1.29,3.53,3.06.17,1.99-1.39,3.66-3.35,3.66h-19.36c-1.78,0-3.37-1.29-3.52-3.06-.17-1.99,1.39-3.66,3.35-3.66h2.86c.1-.13.16-.31.16-.55,0-1.03-1.15-1.05-1.15-1.05h-12.43c-1.78,0-3.37-1.29-3.52-3.06-.17-1.99,1.39-3.66,3.35-3.66h-.02Z"/>
    <path fill="#ffffff" class="cls-1" d="m66.81,34.19h6.47c1.83,0,3.31-1.48,3.31-3.31v-.11c0-1.83-1.48-3.31-3.31-3.31h-6.47c-1.83,0-3.31,1.48-3.31,3.31v.11c0,1.83,1.48,3.31,3.31,3.31Z"/>
    <path fill="#ffffff" class="cls-1" d="m72.66,18.92h19.36c1.78,0,3.37,1.29,3.52,3.06.17,1.99-1.39,3.66-3.35,3.66h-.28s-1.07.13-1.07,1.03c0,.25.09.44.21.58h11.69c1.78,0,3.37,1.29,3.53,3.06.17,1.99-1.39,3.66-3.35,3.66h-19.36c-1.78,0-3.37-1.29-3.52-3.06-.17-1.99,1.39-3.66,3.35-3.66h2.86c.1-.13.16-.31.16-.55,0-1.03-1.15-1.05-1.15-1.05h-12.43c-1.78,0-3.37-1.29-3.52-3.06-.17-1.99,1.39-3.66,3.35-3.66h-.02Z"/>
    <path fill="#ffffff" class="cls-1" d="m127.46,245.44h-5.17c-2.14,0-3.87,1.73-3.87,3.87v.15c0,2.14,1.73,3.87,3.87,3.87h5.17c2.14,0,3.87-1.73,3.87-3.87v-.15c0-2.14-1.73-3.87-3.87-3.87Z"/>
    <path fill="#ffffff" class="cls-1" d="m158.38,245.44h-20.75c-2.14,0-3.87,1.73-3.87,3.87v.15c0,2.14,1.73,3.87,3.87,3.87h20.75c2.14,0,3.87-1.73,3.87-3.87v-.15c0-2.14-1.73-3.87-3.87-3.87Z"/>
    <path class="color-3" d="m51.18,44.96c1.01,0,1.21,1.17,1.25,1.73v21.52c0,.05,0,.1,0,.15,0,.13-.05.86-.34,1.16-.17.18-.53.21-.8.21-1.36,0-2.47,1.1-2.47,2.47s1.1,2.47,2.47,2.47c2.26,0,3.64-.96,4.39-1.76,1.66-1.76,1.69-4.16,1.67-4.74v-4.97s8.79,9.62,8.79,9.62c.47.51,1.13.8,1.82.8s1.35-.29,1.82-.8l9.05-9.89v5.25c-.02.57.01,2.97,1.67,4.74.76.8,2.14,1.76,4.39,1.76,1.36,0,2.47-1.1,2.47-2.47s-1.1-2.47-2.47-2.47c-.27,0-.63-.04-.8-.21-.26-.26-.35-.91-.34-1.17,0-.05,0-.1,0-.15v-21.52c.04-.55.24-1.73,1.25-1.73,1.36,0,2.47-1.1,2.47-2.47s-1.1-2.47-2.47-2.47c-4.36,0-6.08,3.88-6.18,6.58v5.07l-9.05-9.89c-.93-1.02-2.7-1.02-3.64,0l-8.79,9.62v-4.89c-.1-2.61-1.82-6.49-6.18-6.49-1.36,0-2.47,1.1-2.47,2.47s1.1,2.47,2.47,2.47Zm16.79,22.53l-7.06-7.73h14.13l-7.07,7.73Zm0-20.39l7.07,7.73h-14.13l7.06-7.73Z" fill="url(#color-3)"/>
    <path class="color-3" d="m85.02,118.11c1.36,0,2.47-1.1,2.47-2.47s-1.1-2.47-2.47-2.47c-4.36,0-6.08,3.88-6.18,6.58v5.07l-9.05-9.89c-.93-1.02-2.7-1.02-3.64,0l-8.79,9.62v-4.89c-.1-2.61-1.82-6.49-6.18-6.49-1.36,0-2.47,1.1-2.47,2.47s1.1,2.47,2.47,2.47c1.01,0,1.21,1.17,1.25,1.73v21.52c0,.05,0,.1,0,.15,0,.13-.05.86-.34,1.16-.17.18-.53.21-.8.21-1.36,0-2.47,1.1-2.47,2.47s1.1,2.47,2.47,2.47c2.26,0,3.64-.96,4.39-1.76,1.66-1.76,1.69-4.16,1.67-4.74v-4.82s8.79,9.62,8.79,9.62c.47.51,1.13.8,1.82.8s1.35-.29,1.82-.8l9.05-9.89v5.1c-.02.57.01,2.97,1.67,4.74.76.8,2.14,1.76,4.39,1.76,1.36,0,2.47-1.1,2.47-2.47s-1.1-2.47-2.47-2.47c-.27,0-.63-.04-.8-.21-.26-.26-.35-.91-.34-1.17,0-.05,0-.1,0-.15v-21.5c0-.18.1-1.74,1.25-1.74Zm-17.05,2.14l7.07,7.73h-14.13l7.06-7.73Zm0,20.54l-7.06-7.73h14.13l-7.07,7.73Z" fill="url(#color-3)"/>
    <path class="color-1" d="m85.02,76.41c-4.36,0-6.08,3.88-6.18,6.58v.42h-21.32v-.52c-.1-2.61-1.83-6.49-6.18-6.49-1.36,0-2.47,1.1-2.47,2.47s1.1,2.47,2.47,2.47c1.01,0,1.21,1.17,1.25,1.73v21.52s0,.09,0,.12c0,.29-.08.93-.34,1.2-.17.17-.53.21-.8.21-1.36,0-2.47,1.1-2.47,2.47s1.1,2.47,2.47,2.47c2.26,0,3.64-.96,4.39-1.76,1.66-1.76,1.69-4.16,1.67-4.74v-.51h21.32v.51c-.02.57.01,2.97,1.67,4.74.76.8,2.14,1.76,4.39,1.76,1.36,0,2.47-1.1,2.47-2.47s-1.1-2.47-2.47-2.47c-.27,0-.63-.04-.8-.21-.26-.26-.35-.91-.34-1.17,0-.05,0-.1,0-.15v-21.5c0-.18.1-1.74,1.25-1.74,1.36,0,2.47-1.1,2.47-2.47s-1.1-2.47-2.47-2.47Zm-6.19,22.69h-21.31v-10.75h21.31v10.75Z" fill="url(#color-1)"/>
    <path class="color-3" d="m135.15,64.14h-32.44c-1.28,0-2.32-1.1-2.32-2.47v-18.64c0-1.36,1.04-2.47,2.32-2.47h32.44c1.28,0,2.32,1.1,2.32,2.47v18.64c0,1.36-1.04,2.47-2.32,2.47Zm-30.13-4.93h27.81v-13.71h-27.81v13.71Z" fill="url(#color-3)"/>
    <path class="color-3" d="m112.27,69.91c1.28,0,2.32-1.1,2.32-2.47v-5.77c0-1.36-1.04-2.47-2.32-2.47s-2.32,1.1-2.32,2.47v3.3h-4.57c-1.28,0-2.32,1.1-2.32,2.47v10.24c0,1.36,1.04,2.47,2.32,2.47h4.57v.66h-4.57c-1.28,0-2.32,1.1-2.32,2.47v10.23c0,1.36,1.04,2.47,2.32,2.47h4.57v.66h-4.57c-1.28,0-2.32,1.1-2.32,2.47v10.25c0,1.36,1.04,2.47,2.32,2.47h4.57v.66h-4.57c-.16,0-.32.02-.47.05-.15.03-.29.08-.42.14,0,0,0,0-.01,0-.41.19-.77.5-1.02.89,0,0,0,0,0,0-.07.11-.13.23-.18.36,0,.02-.02.04-.03.06-.04.1-.07.21-.09.32-.01.05-.03.1-.04.15-.02.08-.02.17-.03.26,0,.08-.02.15-.02.23,0,.22-.22,21.68-9.56,29.34-1.01.83-1.2,2.38-.42,3.46.46.63,1.14.96,1.84.96.49,0,.99-.17,1.41-.51,9.14-7.5,10.93-24.4,11.28-30.77h4.66c1.28,0,2.32-1.1,2.32-2.47v-5.77c0-1.36-1.04-2.47-2.32-2.47-.3,0-.59.07-.85.18h-3.72v-5.3h4.57c1.28,0,2.32-1.1,2.32-2.47v-5.77c0-1.36-1.04-2.47-2.32-2.47-.28,0-.55.06-.8.16h-3.78v-5.3h4.57c1.28,0,2.32-1.1,2.32-2.47v-5.77c0-1.36-1.04-2.47-2.32-2.47-.3,0-.59.07-.85.18h-3.72v-5.3h4.57Z" fill="url(#color-3)"/>
    <path class="color-4" d="m140.64,145.56c-4.83-8.28-6.3-30.55-6.32-30.78,0-.06-.02-.11-.03-.17-.01-.08-.02-.15-.04-.23-.02-.08-.04-.16-.07-.24-.02-.07-.04-.14-.07-.21-.03-.08-.07-.15-.11-.22-.03-.06-.07-.13-.11-.19-.05-.07-.1-.13-.15-.19-.04-.05-.09-.11-.13-.16-.06-.06-.12-.11-.18-.16-.05-.04-.1-.09-.16-.13-.07-.05-.14-.08-.21-.12-.06-.03-.11-.07-.17-.09-.08-.04-.17-.06-.26-.09-.05-.02-.11-.04-.16-.05-.15-.03-.3-.05-.46-.05h-4.57v-.66h4.57c1.28,0,2.32-1.1,2.32-2.47v-10.24c0-1.36-1.04-2.47-2.32-2.47h-4.57v-.84h4.57c1.28,0,2.32-1.1,2.32-2.47v-10.08c0-1.36-1.04-2.47-2.32-2.47h-4.57v-.66h4.57c1.28,0,2.32-1.1,2.32-2.47v-10.24c0-1.36-1.04-2.47-2.32-2.47h-4.57v-3.3c0-1.36-1.04-2.47-2.32-2.47s-2.32,1.1-2.32,2.47v5.77c0,1.36,1.04,2.47,2.32,2.47h4.57v5.3h-4.57c-1.28,0-2.32,1.1-2.32,2.47v5.59c0,1.36,1.04,2.47,2.32,2.47h4.57v5.14h-4.57c-1.28,0-2.32,1.1-2.32,2.47v5.77c0,1.36,1.04,2.47,2.32,2.47h4.57v5.3h-3.72c-.26-.11-.55-.18-.85-.18-1.28,0-2.32,1.1-2.32,2.47v5.77c0,1.36,1.04,2.47,2.32,2.47h4.75c.53,6.18,2.34,23.05,6.83,30.75.44.75,1.19,1.16,1.97,1.16.42,0,.84-.12,1.22-.37,1.09-.72,1.42-2.24.74-3.4Z" fill="url(#color-4)"/>
    <path fill="#ffffff" class="cls-1" d="m165.15,98h-6.47c-1.83,0-3.31,1.48-3.31,3.31v.11c0,1.83,1.48,3.31,3.31,3.31h6.47c1.83,0,3.31-1.48,3.31-3.31v-.11c0-1.83-1.48-3.31-3.31-3.31Z"/>
    <path fill="#ffffff" class="cls-1" d="m159.3,89.45h-19.36c-1.78,0-3.37,1.29-3.52,3.06-.17,1.99,1.39,3.66,3.35,3.66h.28s1.07.13,1.07,1.03c0,.25-.09.44-.21.58h-11.69c-1.78,0-3.37,1.29-3.53,3.06-.17,1.99,1.39,3.66,3.35,3.66h19.36c1.78,0,3.37-1.29,3.52-3.06.17-1.99-1.39-3.66-3.35-3.66h-2.86c-.1-.13-.16-.31-.16-.55,0-1.03,1.15-1.05,1.15-1.05h12.43c1.78,0,3.37-1.29,3.52-3.06.17-1.99-1.39-3.66-3.35-3.66h.02Z"/>
</svg>