<?xml version="1.0" encoding="UTF-8"?>
<svg id="bot12" xmlns="http://www.w3.org/2000/svg" viewBox="0 0 185 308">
  <defs>
    <style>
      .stroke-width {
        stroke-width: 1.3px;
      }

      .stroke-color-1 {
        stroke: #ffcf08;
      }

      .stroke-color-2 {
        stroke: #fea39c;
      }

      .stroke-color-3 {
        stroke:#327eed;
      }

      .stroke-color-4 {
        stroke: #2032ac;
      }      
    </style>  
    <linearGradient id="color-1" gradientTransform="rotate(90)">
      <stop offset="0%" stop-color="#ffcf08" />
      <stop offset="100%" stop-color="#ffcf08" />
      <stop offset="100%" stop-color="white" />
    </linearGradient>
    <linearGradient id="color-2" gradientTransform="rotate(90)">
      <stop offset="0%" stop-color="#fea39c" />
      <stop offset="100%" stop-color="#fea39c" />
      <stop offset="100%" stop-color="white" />
    </linearGradient>
    <linearGradient id="color-3" gradientTransform="rotate(90)">
      <stop offset="0%" stop-color="#327eed" />
      <stop offset="100%" stop-color="#327eed" />
      <stop offset="100%" stop-color="white" />
    </linearGradient>   
    <linearGradient id="color-4" gradientTransform="rotate(90)">
      <stop offset="0%" stop-color="#2032ac" />
      <stop offset="100%" stop-color="#2032ac" />
      <stop offset="100%" stop-color="white" />
    </linearGradient>  
  </defs>
  <path class="color-4" d="m159.57,244.38c4.26,0,7.72-3.46,7.72-7.72s-3.46-7.72-7.72-7.72-7.72,3.46-7.72,7.72,3.46,7.72,7.72,7.72Z" fill="url(#color-4)"/>
  <path class="color-3" d="m149.23,205.95c4.26,0,7.72-3.46,7.72-7.72s-3.46-7.72-7.72-7.72-7.72,3.46-7.72,7.72,3.46,7.72,7.72,7.72Z" fill="url(#color-3)"/>
  <path class="color-1" d="m35.68,205.95c4.26,0,7.72-3.46,7.72-7.72s-3.46-7.72-7.72-7.72-7.72,3.46-7.72,7.72,3.46,7.72,7.72,7.72Z" fill="url(#color-1)"/>
  <path class="color-1" d="m63.2,137.03c4.26,0,7.72-3.46,7.72-7.72s-3.46-7.72-7.72-7.72-7.72,3.46-7.72,7.72,3.46,7.72,7.72,7.72Z" fill="url(#color-1)"/>
  <path class="color-4" d="m25,243.92c4.26,0,7.72-3.46,7.72-7.72s-3.46-7.72-7.72-7.72-7.72,3.46-7.72,7.72,3.46,7.72,7.72,7.72Z" fill="url(#color-4)"/>
  <path class="color-1" d="m79.93,213.75c3.49,0,6.31-2.83,6.31-6.31s-2.83-6.31-6.31-6.31-6.31,2.83-6.31,6.31,2.83,6.31,6.31,6.31Z" fill="url(#color-1)"/>
  <path class="color-4" d="m25.51,54.95c4.26,0,7.72-3.46,7.72-7.72s-3.46-7.72-7.72-7.72-7.72,3.46-7.72,7.72,3.46,7.72,7.72,7.72Z" fill="url(#color-4)"/>
  <path class="color-4" d="m92.83,95.92c3.49,0,6.31-2.83,6.31-6.31s-2.83-6.31-6.31-6.31-6.31,2.83-6.31,6.31,2.83,6.31,6.31,6.31Z" fill="url(#color-4)"/>
  <path class="color-1" d="m38.91,97.98c4.26,0,7.72-3.46,7.72-7.72s-3.46-7.72-7.72-7.72-7.72,3.46-7.72,7.72,3.46,7.72,7.72,7.72Z" fill="url(#color-1)"/>
  <path class="color-4" d="m146.63,97.98c4.26,0,7.72-3.46,7.72-7.72s-3.46-7.72-7.72-7.72-7.72,3.46-7.72,7.72,3.46,7.72,7.72,7.72Z" fill="url(#color-4)"/>
  <path stroke-linejoin="round" stroke-linecap="round" class="stroke-width stroke-color-2" d="m86.13,272.55h14.73" fill="none"/>
  <path stroke-linejoin="round" stroke-linecap="round" class="stroke-width stroke-color-1" d="m98.71,244.61h14.73" fill="none"/>
  <path stroke-linejoin="round" stroke-linecap="round" class="stroke-width stroke-color-2" d="m98.71,248.46h14.73" fill="none"/>
  <path stroke-linejoin="round" stroke-linecap="round" class="stroke-width stroke-color-2" d="m98.71,252.31h14.73" fill="none"/>
  <path stroke-linejoin="round" stroke-linecap="round" class="stroke-width stroke-color-2" d="m98.71,256.16h14.73" fill="none"/>
  <path stroke-linejoin="round" stroke-linecap="round" class="stroke-width stroke-color-2" d="m73.95,248.46h14.73" fill="none"/>
  <path stroke-linejoin="round" stroke-linecap="round" class="stroke-width stroke-color-2" d="m73.95,244.61h14.73" fill="none"/>
  <path stroke-linejoin="round" stroke-linecap="round" class="stroke-width stroke-color-2" d="m73.95,252.31h14.73" fill="none"/>
  <path stroke-linejoin="round" stroke-linecap="round" class="stroke-width stroke-color-2" d="m73.95,256.16h14.73" fill="none"/>
  <path stroke-linejoin="round" stroke-linecap="round" class="stroke-width stroke-color-2" d="m86.13,276.94h14.73" fill="none"/>
  <path stroke-linejoin="round" stroke-linecap="round" class="stroke-width stroke-color-2" d="m86.13,281.33h14.73" fill="none"/>
  <path stroke-linejoin="round" stroke-linecap="round" class="stroke-width stroke-color-2" d="m86.13,285.72h14.73" fill="none"/>
  <path stroke-linejoin="round" stroke-linecap="round" class="stroke-width stroke-color-3" d="m103.8,277.67h16.73" fill="none"/>
  <path stroke-linejoin="round" stroke-linecap="round" class="stroke-width stroke-color-3" d="m59.99,265.67h68.05" fill="none"/>
  <path stroke-linejoin="round" stroke-linecap="round" class="stroke-width stroke-color-3" d="m47.36,295.13h93.32" fill="none"/>
  <path stroke-linejoin="round" stroke-linecap="round" class="stroke-width stroke-color-3" d="m93.49,265.67v4.31" fill="none"/>
  <path stroke-linejoin="round" stroke-linecap="round" class="stroke-width stroke-color-3" d="m93.49,288.36v6.2" fill="none"/>
  <path stroke-linejoin="round" stroke-linecap="round" class="stroke-width stroke-color-3" d="m128.04,241.72v18.19H59.84v-18.19" fill="none"/>
  <path class="color-4" d="m76.29,275.88c0-3.39-2.74-6.13-6.13-6.13s-6.13,2.75-6.13,6.13v19.29c0,3.39,2.74,6.13,6.13,6.13s6.13-2.75,6.13-6.13v-19.29Z" fill="url(#color-4)"/>
  <path stroke-linejoin="round" stroke-linecap="round" class="stroke-width stroke-color-1" d="m70.16,276.25v18.67" fill="none"/>
  <path class="color-1" d="m70.18,296.65c.84,0,1.52-.68,1.52-1.52s-.68-1.52-1.52-1.52-1.52.68-1.52,1.52.68,1.52,1.52,1.52Z" fill="url(#color-1)"/>
  <path class="color-1" d="m70.18,278.02c.84,0,1.52-.68,1.52-1.52s-.68-1.52-1.52-1.52-1.52.68-1.52,1.52.68,1.52,1.52,1.52Z" fill="url(#color-1)"/>
  <path class="color-3" d="m56.99,232.99v8.79h73.78v-8.79H56.99Z" fill="url(#color-3)"/>
  <path class="color-1" d="m98.47,241.77c2.43,0,4.39-1.97,4.39-4.39s-1.97-4.39-4.39-4.39-4.39,1.97-4.39,4.39,1.97,4.39,4.39,4.39Z" fill="url(#color-1)"/>
  <path class="color-4" d="m89.16,241.77c2.43,0,4.39-1.97,4.39-4.39s-1.97-4.39-4.39-4.39-4.39,1.97-4.39,4.39,1.97,4.39,4.39,4.39Z" fill="url(#color-4)"/>
  <path class="color-4" d="m107.76,241.77c2.43,0,4.39-1.97,4.39-4.39s-1.97-4.39-4.39-4.39-4.39,1.97-4.39,4.39,1.97,4.39,4.39,4.39Z" fill="url(#color-4)"/>
  <path class="color-4" d="m117.07,241.77c2.43,0,4.39-1.97,4.39-4.39s-1.97-4.39-4.39-4.39-4.39,1.97-4.39,4.39,1.97,4.39,4.39,4.39Z" fill="url(#color-4)"/>
  <path class="color-4" d="m126.36,241.77c2.43,0,4.39-1.97,4.39-4.39s-1.97-4.39-4.39-4.39-4.39,1.97-4.39,4.39,1.97,4.39,4.39,4.39Z" fill="url(#color-4)"/>
  <path class="color-4" d="m61.39,241.77c2.43,0,4.39-1.97,4.39-4.39s-1.97-4.39-4.39-4.39-4.39,1.97-4.39,4.39,1.97,4.39,4.39,4.39Z" fill="url(#color-4)"/>
  <path class="color-4" d="m70.69,241.77c2.43,0,4.39-1.97,4.39-4.39s-1.97-4.39-4.39-4.39-4.39,1.97-4.39,4.39,1.97,4.39,4.39,4.39Z" fill="url(#color-4)"/>
  <path class="color-4" d="m79.93,241.72c2.39,0,4.34-1.94,4.34-4.34s-1.94-4.34-4.34-4.34-4.34,1.94-4.34,4.34,1.94,4.34,4.34,4.34Z" fill="url(#color-4)"/>
  <path stroke-linejoin="round" stroke-linecap="round" class="stroke-width stroke-color-1" d="m61.94,237.38h62.91" fill="none"/>
  <path class="color-1" d="m62.91,238.9c.84,0,1.52-.68,1.52-1.52s-.68-1.52-1.52-1.52-1.52.68-1.52,1.52.68,1.52,1.52,1.52Z" fill="url(#color-1)"/>
  <path class="color-1" d="m124.85,238.9c.84,0,1.52-.68,1.52-1.52s-.68-1.52-1.52-1.52-1.52.68-1.52,1.52.68,1.52,1.52,1.52Z" fill="url(#color-1)"/>
  <path stroke-linejoin="round" stroke-linecap="round" class="stroke-width stroke-color-2" d="m104.82,58.5h12.63" fill="none"/>
  <path stroke-linejoin="round" stroke-linecap="round" class="stroke-width stroke-color-2" d="m104.82,62.31h12.63" fill="none"/>
  <path stroke-linejoin="round" stroke-linecap="round" class="stroke-width stroke-color-2" d="m104.82,66.11h12.63" fill="none"/>
  <path stroke-linejoin="round" stroke-linecap="round" class="stroke-width stroke-color-2" d="m97.06,125.51h12.63" fill="none"/>
  <path stroke-linejoin="round" stroke-linecap="round" class="stroke-width stroke-color-2" d="m97.06,129.31h12.63" fill="none"/>
  <path stroke-linejoin="round" stroke-linecap="round" class="stroke-width stroke-color-2" d="m97.06,133.11h12.63" fill="none"/>
  <path stroke-linejoin="round" stroke-linecap="round" class="stroke-width stroke-color-2" d="m77.48,187.11h12.63" fill="none"/>
  <path stroke-linejoin="round" stroke-linecap="round" class="stroke-width stroke-color-2" d="m77.48,190.91h12.63" fill="none"/>
  <path stroke-linejoin="round" stroke-linecap="round" class="stroke-width stroke-color-2" d="m77.48,194.71h12.63" fill="none"/>
  <path stroke-linejoin="round" stroke-linecap="round" class="stroke-width stroke-color-2" d="m70.21,156.1h12.63" fill="none"/>
  <path stroke-linejoin="round" stroke-linecap="round" class="stroke-width stroke-color-2" d="m70.21,159.91h12.63" fill="none"/>
  <path stroke-linejoin="round" stroke-linecap="round" class="stroke-width stroke-color-2" d="m70.21,163.71h12.63" fill="none"/>
  <path stroke-linejoin="round" stroke-linecap="round" class="stroke-width stroke-color-2" d="m101.84,156.1h12.63" fill="none"/>
  <path stroke-linejoin="round" stroke-linecap="round" class="stroke-width stroke-color-2" d="m101.84,159.91h12.63" fill="none"/>
  <path stroke-linejoin="round" stroke-linecap="round" class="stroke-width stroke-color-2" d="m101.84,163.71h12.63" fill="none"/>
  <path stroke-linejoin="round" stroke-linecap="round" class="stroke-width stroke-color-2" d="m68.05,58.5h12.63" fill="none"/>
  <path stroke-linejoin="round" stroke-linecap="round" class="stroke-width stroke-color-2" d="m68.05,62.31h12.63" fill="none"/>
  <path stroke-linejoin="round" stroke-linecap="round" class="stroke-width stroke-color-2" d="m68.05,66.11h12.63" fill="none"/>
  <path stroke-linejoin="round" stroke-linecap="round" class="stroke-width stroke-color-2" d="m44.39,60.19h14.73" fill="none"/>
  <path stroke-linejoin="round" stroke-linecap="round" class="stroke-width stroke-color-2" d="m44.39,64.5h14.73" fill="none"/>
  <path stroke-linejoin="round" stroke-linecap="round" class="stroke-width stroke-color-2" d="m44.39,68.82h14.73" fill="none"/>
  <path stroke-linejoin="round" stroke-linecap="round" class="stroke-width stroke-color-2" d="m44.39,73.14h14.73" fill="none"/>
  <path stroke-linejoin="round" stroke-linecap="round" class="stroke-width stroke-color-2" d="m126.78,60.21h14.73" fill="none"/>
  <path stroke-linejoin="round" stroke-linecap="round" class="stroke-width stroke-color-2" d="m126.78,64.52h14.73" fill="none"/>
  <path stroke-linejoin="round" stroke-linecap="round" class="stroke-width stroke-color-2" d="m126.78,68.84h14.73" fill="none"/>
  <path stroke-linejoin="round" stroke-linecap="round" class="stroke-width stroke-color-2" d="m126.78,73.16h14.73" fill="none"/>
  <path stroke-linejoin="round" stroke-linecap="round" class="stroke-width stroke-color-3" d="m144.97,165.77c2.6,29.78,7.07,56.45,14.6,70.44" fill="none"/>
  <path stroke-linejoin="round" stroke-linecap="round" class="stroke-width stroke-color-3" d="m39.6,165.77c-2.6,29.78-7.07,56.45-14.6,70.44" fill="none"/>
  <path stroke-linejoin="round" stroke-linecap="round" class="stroke-width stroke-color-3" d="m25.51,47.19h134.49" fill="none"/>
  <path class="color-1" d="m87.09,120.19h-7.72v18.24h7.72v-18.24Z" fill="url(#color-1)"/>
  <path stroke-linejoin="round" stroke-linecap="round" class="stroke-width stroke-color-3" d="m82.72,137.03h19.11" fill="none"/>
  <path class="color-1" d="m106.76,181.45h-7.72v18.24h7.72v-18.24Z" fill="url(#color-1)"/>
  <path stroke-linejoin="round" stroke-linecap="round" class="stroke-width stroke-color-3" d="m83.8,198.23h19.11" fill="none"/>
  <path stroke-linejoin="round" stroke-linecap="round" class="stroke-width stroke-color-3" d="m82.72,121.59h19.11" fill="none"/>
  <path stroke-linejoin="round" stroke-linecap="round" class="stroke-width stroke-color-3" d="m82.72,182.79h19.11" fill="none"/>
  <path stroke-linejoin="round" stroke-linecap="round" class="stroke-width stroke-color-3" d="m83.23,213.35h19.11" fill="none"/>
  <path stroke-linejoin="round" stroke-linecap="round" class="stroke-width stroke-color-3" d="m80.45,207.08h24.67" fill="none"/>
  <path stroke-linejoin="round" stroke-linecap="round" class="stroke-width stroke-color-3" d="m78.57,220.16h28.43" fill="none"/>
  <path class="color-1" d="m60.94,150.79h-7.72v18.24h7.72v-18.24Z" fill="url(#color-1)"/>
  <path stroke-linejoin="round" stroke-linecap="round" class="stroke-width stroke-color-3" d="m57.42,167.63h19.11" fill="none"/>
  <path stroke-linejoin="round" stroke-linecap="round" class="stroke-width stroke-color-3" d="m57.42,152.19h19.11" fill="none"/>
  <path class="color-4" d="m131.42,150.79h-7.72v18.24h7.72v-18.24Z" fill="url(#color-4)"/>
  <path stroke-linejoin="round" stroke-linecap="round" class="stroke-width stroke-color-3" d="m109.15,167.63h19.11" fill="none"/>
  <path stroke-linejoin="round" stroke-linecap="round" class="stroke-width stroke-color-3" d="m108.44,152.19h19.11" fill="none"/>
  <path stroke-linejoin="round" stroke-linecap="round" class="stroke-width stroke-color-3" d="m51.75,55.69v-24.58h82.43v24.58" fill="none"/>
  <path class="color-3" d="m51.11,27.24v7.72h83.63v-7.72H51.11Z" fill="url(#color-3)"/>
  <path class="color-1" d="m55.18,34.96c2.13,0,3.86-1.73,3.86-3.86s-1.73-3.86-3.86-3.86-3.86,1.73-3.86,3.86,1.73,3.86,3.86,3.86Z" fill="url(#color-3)"/>
  <path class="color-1" d="m62.73,34.96c2.13,0,3.86-1.73,3.86-3.86s-1.73-3.86-3.86-3.86-3.86,1.73-3.86,3.86,1.73,3.86,3.86,3.86Z" fill="url(#color-1)"/>
  <path class="color-1" d="m70.28,34.96c2.13,0,3.86-1.73,3.86-3.86s-1.73-3.86-3.86-3.86-3.86,1.73-3.86,3.86,1.73,3.86,3.86,3.86Z" fill="url(#color-1)"/>
  <path class="color-1" d="m77.83,34.96c2.13,0,3.86-1.73,3.86-3.86s-1.73-3.86-3.86-3.86-3.86,1.73-3.86,3.86,1.73,3.86,3.86,3.86Z" fill="url(#color-1)"/>
  <path class="color-1" d="m85.38,34.96c2.13,0,3.86-1.73,3.86-3.86s-1.73-3.86-3.86-3.86-3.86,1.73-3.86,3.86,1.73,3.86,3.86,3.86Z" fill="url(#color-1)"/>
  <path class="color-1" d="m92.92,34.96c2.13,0,3.86-1.73,3.86-3.86s-1.73-3.86-3.86-3.86-3.86,1.73-3.86,3.86,1.73,3.86,3.86,3.86Z" fill="url(#color-1)"/>
  <path class="color-1" d="m100.47,34.96c2.13,0,3.86-1.73,3.86-3.86s-1.73-3.86-3.86-3.86-3.86,1.73-3.86,3.86,1.73,3.86,3.86,3.86Z" fill="url(#color-1)"/>
  <path class="color-4" d="m108.02,34.96c2.13,0,3.86-1.73,3.86-3.86s-1.73-3.86-3.86-3.86-3.86,1.73-3.86,3.86,1.73,3.86,3.86,3.86Z" fill="url(#color-1)"/>
  <path class="color-1" d="m115.57,34.96c2.13,0,3.86-1.73,3.86-3.86s-1.73-3.86-3.86-3.86-3.86,1.73-3.86,3.86,1.73,3.86,3.86,3.86Z" fill="url(#color-1)"/>
  <path class="color-1" d="m123.12,34.96c2.13,0,3.86-1.73,3.86-3.86s-1.73-3.86-3.86-3.86-3.86,1.73-3.86,3.86,1.73,3.86,3.86,3.86Z" fill="url(#color-1)"/>
  <path class="color-1" d="m130.66,34.96c2.13,0,3.86-1.73,3.86-3.86s-1.73-3.86-3.86-3.86-3.86,1.73-3.86,3.86,1.73,3.86,3.86,3.86Z" fill="url(#color-1)"/>
  <path stroke-linejoin="round" stroke-linecap="round" class="stroke-width stroke-color-1" d="m55.3,31.1h75.36" fill="none"/>
  <path class="color-1" d="m55.18,32.59c.82,0,1.49-.67,1.49-1.49s-.67-1.49-1.49-1.49-1.49.67-1.49,1.49.67,1.49,1.49,1.49Z" fill="url(#color-1)"/>
  <path class="color-1" d="m130.66,32.59c.82,0,1.49-.67,1.49-1.49s-.67-1.49-1.49-1.49-1.49.67-1.49,1.49.67,1.49,1.49,1.49Z" fill="url(#color-1)"/>
  <path stroke-linejoin="round" stroke-linecap="round" class="stroke-width stroke-color-3" d="m51.16,76.58s-1.98,13.68-12.25,13.68" fill="none"/>
  <path stroke-linejoin="round" stroke-linecap="round" class="stroke-width stroke-color-3" d="m134.38,76.58s1.98,13.68,12.25,13.68" fill="none"/>
  <path stroke-linejoin="round" stroke-linecap="round" class="stroke-width stroke-color-3" d="m92.81,37.41v52.19" fill="none"/>
  <path stroke-linejoin="round" stroke-linecap="round" class="stroke-width stroke-color-3" d="m92.31,201.14v27.34" fill="none"/>
  <path stroke-linejoin="round" stroke-linecap="round" class="stroke-width stroke-color-2" d="m32.3,127.79h14.73" fill="none"/>
  <path stroke-linejoin="round" stroke-linecap="round" class="stroke-width stroke-color-2" d="m32.3,132.68h14.73" fill="none"/>
  <path stroke-linejoin="round" stroke-linecap="round" class="stroke-width stroke-color-2" d="m32.3,137.57h14.73" fill="none"/>
  <path stroke-linejoin="round" stroke-linecap="round" class="stroke-width stroke-color-2" d="m32.3,142.46h14.73" fill="none"/>
  <path stroke-linejoin="round" stroke-linecap="round" class="stroke-width stroke-color-2" d="m32.3,147.35h14.73" fill="none"/>
  <path stroke-linejoin="round" stroke-linecap="round" class="stroke-width stroke-color-2" d="m51.46,194.71h14.73" fill="none"/>
  <path stroke-linejoin="round" stroke-linecap="round" class="stroke-width stroke-color-2" d="m51.46,199.28h14.73" fill="none"/>
  <path stroke-linejoin="round" stroke-linecap="round" class="stroke-width stroke-color-2" d="m51.46,203.84h14.73" fill="none"/>
  <path stroke-linejoin="round" stroke-linecap="round" class="stroke-width stroke-color-2" d="m51.46,208.4h14.73" fill="none"/>
  <path stroke-linejoin="round" stroke-linecap="round" class="stroke-width stroke-color-2" d="m51.46,212.97h14.73" fill="none"/>
  <path stroke-linejoin="round" stroke-linecap="round" class="stroke-width stroke-color-2" d="m51.46,217.53h14.73" fill="none"/>
  <path stroke-linejoin="round" stroke-linecap="round" class="stroke-width stroke-color-2" d="m32.3,152.24h14.73" fill="none"/>
  <path stroke-linejoin="round" stroke-linecap="round" class="stroke-width stroke-color-2" d="m32.3,157.12h14.73" fill="none"/>
  <path stroke-linejoin="round" stroke-linecap="round" class="stroke-width stroke-color-2" d="m32.3,162.01h14.73" fill="none"/>
  <path stroke-linejoin="round" stroke-linecap="round" class="stroke-width stroke-color-2" d="m137.6,127.79h14.73" fill="none"/>
  <path stroke-linejoin="round" stroke-linecap="round" class="stroke-width stroke-color-2" d="m137.6,132.68h14.73" fill="none"/>
  <path stroke-linejoin="round" stroke-linecap="round" class="stroke-width stroke-color-2" d="m137.6,137.57h14.73" fill="none"/>
  <path stroke-linejoin="round" stroke-linecap="round" class="stroke-width stroke-color-2" d="m137.6,142.46h14.73" fill="none"/>
  <path stroke-linejoin="round" stroke-linecap="round" class="stroke-width stroke-color-2" d="m137.6,147.35h14.73" fill="none"/>
  <path stroke-linejoin="round" stroke-linecap="round" class="stroke-width stroke-color-2" d="m137.6,152.24h14.73" fill="none"/>
  <path stroke-linejoin="round" stroke-linecap="round" class="stroke-width stroke-color-2" d="m137.6,157.12h14.73" fill="none"/>
  <path stroke-linejoin="round" stroke-linecap="round" class="stroke-width stroke-color-2" d="m137.6,162.01h14.73" fill="none"/>
  <path class="color-3" d="m92.76,22.13c4.26,0,7.72-3.46,7.72-7.72s-3.46-7.72-7.72-7.72-7.72,3.46-7.72,7.72,3.46,7.72,7.72,7.72Z" fill="url(#color-3)"/>
  <path class="color-3" d="m111.14,82.07c3.49,0,6.31-2.83,6.31-6.31s-2.83-6.31-6.31-6.31-6.31,2.83-6.31,6.31,2.83,6.31,6.31,6.31Z" fill="url(#color-3)"/>
  <path class="color-1" d="m111.14,107.88c3.49,0,6.31-2.83,6.31-6.31s-2.83-6.31-6.31-6.31-6.31,2.83-6.31,6.31,2.83,6.31,6.31,6.31Z" fill="url(#color-1)"/>
  <path class="color-1" d="m74.37,107.88c3.49,0,6.31-2.83,6.31-6.31s-2.83-6.31-6.31-6.31-6.31,2.83-6.31,6.31,2.83,6.31,6.31,6.31Z" fill="url(#color-1)"/>
  <path class="color-4" d="m74.37,82.07c3.49,0,6.31-2.83,6.31-6.31s-2.83-6.31-6.31-6.31-6.31,2.83-6.31,6.31,2.83,6.31,6.31,6.31Z" fill="url(#color-4)"/>
  <path class="color-3" d="m160,54.95c4.26,0,7.72-3.46,7.72-7.72s-3.46-7.72-7.72-7.72-7.72,3.46-7.72,7.72,3.46,7.72,7.72,7.72Z" fill="url(#color-1)"/>
  <path stroke-linejoin="round" stroke-linecap="round" class="stroke-width stroke-color-3" d="m111.14,55.69s-.24-18.28-18.28-18.28h-.21c-18.04,0-18.28,18.28-18.28,18.28" fill="none"/>
  <path stroke-linejoin="round" stroke-linecap="round" class="stroke-width stroke-color-3" d="m111.08,101.56s16.69-.17,16.69-12.83v-.15c0-12.66-16.69-12.83-16.69-12.83" fill="none"/>
  <path stroke-linejoin="round" stroke-linecap="round" class="stroke-width stroke-color-3" d="m74.37,101.56s-16.69-.17-16.69-12.83v-.15c0-12.66,16.69-12.83,16.69-12.83" fill="none"/>
  <path stroke-linejoin="round" stroke-linecap="round" class="stroke-width stroke-color-3" d="m83.36,75.18s4.59-.06,4.59-4.24v-.05c0-4.18-4.59-4.24-4.59-4.24" fill="none"/>
  <path stroke-linejoin="round" stroke-linecap="round" class="stroke-width stroke-color-3" d="m102.25,75.18s-4.59-.06-4.59-4.24v-.05c0-4.18,4.59-4.24,4.59-4.24" fill="none"/>
  <path stroke-linejoin="round" stroke-linecap="round" class="stroke-width stroke-color-3" d="m81.95,104.03s6.03.07,6.03,5.39v.06c0,5.32-6.03,5.39-6.03,5.39h-42.29v8.31" fill="none"/>
  <path stroke-linejoin="round" stroke-linecap="round" class="stroke-width stroke-color-3" d="m102.68,104.12s-6.03.07-6.03,5.39v.06c0,5.32,6.03,5.39,6.03,5.39h42.29v8.31" fill="none"/>
  <path stroke-linejoin="round" stroke-linecap="round" class="stroke-width stroke-color-3" d="m103.87,137.03l15,15.16" fill="none"/>
  <path stroke-linejoin="round" stroke-linecap="round" class="stroke-width stroke-color-3" d="m81.09,137.03l-14.43,15.16" fill="none"/>
  <path stroke-linejoin="round" stroke-linecap="round" class="stroke-width stroke-color-3" d="m103.89,182.79l15.01-15.17" fill="none"/>
  <path stroke-linejoin="round" stroke-linecap="round" class="stroke-width stroke-color-3" d="m81.09,182.79l-14.43-15.17" fill="none"/>
  <path stroke-linejoin="round" stroke-linecap="round" class="stroke-width stroke-color-3" d="m65.38,185.12s-6.56.13-6.56,6.56" fill="none"/>
  <path stroke-linejoin="round" stroke-linecap="round" class="stroke-width stroke-color-3" d="m65.38,227.23s-6.56-.13-6.56-6.56" fill="none"/>
  <path stroke-linejoin="round" stroke-linecap="round" class="stroke-width stroke-color-2" d="m132.23,194.71h-14.73" fill="none"/>
  <path stroke-linejoin="round" stroke-linecap="round" class="stroke-width stroke-color-2" d="m132.23,199.28h-14.73" fill="none"/>
  <path stroke-linejoin="round" stroke-linecap="round" class="stroke-width stroke-color-2" d="m132.23,203.84h-14.73" fill="none"/>
  <path stroke-linejoin="round" stroke-linecap="round" class="stroke-width stroke-color-2" d="m132.23,208.4h-14.73" fill="none"/>
  <path stroke-linejoin="round" stroke-linecap="round" class="stroke-width stroke-color-2" d="m132.23,212.97h-14.73" fill="none"/>
  <path stroke-linejoin="round" stroke-linecap="round" class="stroke-width stroke-color-2" d="m132.23,217.53h-14.73" fill="none"/>
  <path stroke-linejoin="round" stroke-linecap="round" class="stroke-width stroke-color-3" d="m118.3,185.12s6.56.13,6.56,6.56" fill="none"/>
  <path stroke-linejoin="round" stroke-linecap="round" class="stroke-width stroke-color-3" d="m118.3,227.23s6.56-.13,6.56-6.56" fill="none"/>
  <path class="color-1" d="m118.37,147.86v-16.46l12.99,16.46h-12.99Z" fill="url(#color-1)"/>
</svg>