<?xml version="1.0" encoding="UTF-8"?>
<svg id="bot12" xmlns="http://www.w3.org/2000/svg" viewBox="0 0 185 308">
  <defs>
    <style>
      .stroke-width {
        stroke-width: 1.3px;
      }

      .stroke-color-1 {
        stroke: #ffcf08;
      }

      .stroke-color-2 {
        stroke: #fea39c;
      }

      .stroke-color-3 {
        stroke:#327eed;
      }

      .stroke-color-4 {
        stroke: #2032ac;
      }      
    </style>  
    <linearGradient id="color-1" gradientTransform="rotate(90)">
      <stop offset="0%" stop-color="#ffcf08" />
      <stop offset="100%" stop-color="#ffcf08" />
      <stop offset="100%" stop-color="white" />
    </linearGradient>
    <linearGradient id="color-2" gradientTransform="rotate(90)">
      <stop offset="0%" stop-color="#fea39c" />
      <stop offset="100%" stop-color="#fea39c" />
      <stop offset="100%" stop-color="white" />
    </linearGradient>
    <linearGradient id="color-3" gradientTransform="rotate(90)">
      <stop offset="0%" stop-color="#327eed" />
      <stop offset="100%" stop-color="#327eed" />
      <stop offset="100%" stop-color="white" />
    </linearGradient>   
    <linearGradient id="color-4" gradientTransform="rotate(90)">
      <stop offset="0%" stop-color="#2032ac" />
      <stop offset="100%" stop-color="#2032ac" />
      <stop offset="100%" stop-color="white" />
    </linearGradient>  
  </defs>
  <path class="color-4" d="m92.98,292.77c.82,0,1.49-.67,1.49-1.49s-.67-1.49-1.49-1.49-1.49.67-1.49,1.49.67,1.49,1.49,1.49Z" fill="url(#color-4)"/>
  <path stroke-linejoin="round" stroke-linecap="round" class="stroke-width stroke-color-3" d="m129.77,19.7s.17,23.33-48.11,23.33h-.55c-50.08,0-48.11-23.33-48.11-23.33" fill="none"/>
  <path class="color-3" d="m129.77,27.41c4.26,0,7.72-3.46,7.72-7.72s-3.46-7.72-7.72-7.72-7.72,3.46-7.72,7.72,3.46,7.72,7.72,7.72Z" fill="url(#color-3)"/>
  <path class="color-1" d="m121.2,168.46c4.26,0,7.72-3.46,7.72-7.72s-3.46-7.72-7.72-7.72-7.72,3.46-7.72,7.72,3.46,7.72,7.72,7.72Z" fill="url(#color-1)"/>
  <path class="color-4" d="m121.36,126.65c4.26,0,7.72-3.46,7.72-7.72s-3.46-7.72-7.72-7.72-7.72,3.46-7.72,7.72,3.46,7.72,7.72,7.72Z" fill="url(#color-4)"/>
  <path class="color-1" d="m121.13,50.74c4.26,0,7.72-3.46,7.72-7.72s-3.46-7.72-7.72-7.72-7.72,3.46-7.72,7.72,3.46,7.72,7.72,7.72Z" fill="url(#color-2)"/>
  <path class="color-4" d="m121.2,235.75c4.26,0,7.72-3.46,7.72-7.72s-3.46-7.72-7.72-7.72-7.72,3.46-7.72,7.72,3.46,7.72,7.72,7.72Z" fill="url(#color-4)"/>
  <path class="color-1" d="m138.13,257.76c4.26,0,7.72-3.46,7.72-7.72s-3.46-7.72-7.72-7.72-7.72,3.46-7.72,7.72,3.46,7.72,7.72,7.72Z" fill="url(#color-1)"/>
  <path class="color-1" d="m158.91,293.28c4.26,0,7.72-3.46,7.72-7.72s-3.46-7.72-7.72-7.72-7.72,3.46-7.72,7.72,3.46,7.72,7.72,7.72Z" fill="url(#color-1)"/>
  <path class="color-1" d="m45.3,204.07c4.26,0,7.72-3.46,7.72-7.72s-3.46-7.72-7.72-7.72-7.72,3.46-7.72,7.72,3.46,7.72,7.72,7.72Z" fill="url(#color-1)"/>
  <path class="color-3" d="m45.3,228.03c4.26,0,7.72-3.46,7.72-7.72s-3.46-7.72-7.72-7.72-7.72,3.46-7.72,7.72,3.46,7.72,7.72,7.72Z" fill="url(#color-3)"/>
  <path class="color-1" d="m53.21,292.67c4.26,0,7.72-3.46,7.72-7.72s-3.46-7.72-7.72-7.72-7.72,3.46-7.72,7.72,3.46,7.72,7.72,7.72Z" fill="url(#color-1)"/>
  <path class="color-4" d="m45.3,269.77c4.26,0,7.72-3.46,7.72-7.72s-3.46-7.72-7.72-7.72-7.72,3.46-7.72,7.72,3.46,7.72,7.72,7.72Z" fill="url(#color-2)"/>
  <path class="color-1" d="m26.09,291.74c4.26,0,7.72-3.46,7.72-7.72s-3.46-7.72-7.72-7.72-7.72,3.46-7.72,7.72,3.46,7.72,7.72,7.72Z" fill="url(#color-4)"/>
  <path class="color-1" d="m125.17,292.67c4.26,0,7.72-3.46,7.72-7.72s-3.46-7.72-7.72-7.72-7.72,3.46-7.72,7.72,3.46,7.72,7.72,7.72Z" fill="url(#color-1)"/>
  <path class="color-1" d="m91.86,122.57c3.49,0,6.31-2.83,6.31-6.31s-2.83-6.31-6.31-6.31-6.31,2.83-6.31,6.31,2.83,6.31,6.31,6.31Z" fill="url(#color-1)"/>
  <path class="color-3" d="m76.78,201.26c3.49,0,6.31-2.83,6.31-6.31s-2.83-6.31-6.31-6.31-6.31,2.83-6.31,6.31,2.83,6.31,6.31,6.31Z" fill="url(#color-1)"/>
  <path class="color-3" d="m70.81,167.06c3.49,0,6.31-2.83,6.31-6.31s-2.83-6.31-6.31-6.31-6.31,2.83-6.31,6.31,2.83,6.31,6.31,6.31Z" fill="url(#color-3)"/>
  <path class="color-1" d="m108.27,217.62c3.49,0,6.31-2.83,6.31-6.31s-2.83-6.31-6.31-6.31-6.31,2.83-6.31,6.31,2.83,6.31,6.31,6.31Z" fill="url(#color-1)"/>
  <path class="color-3" d="m33,27.41c4.26,0,7.72-3.46,7.72-7.72s-3.46-7.72-7.72-7.72-7.72,3.46-7.72,7.72,3.46,7.72,7.72,7.72Z" fill="url(#color-3)"/>
  <path stroke-linejoin="round" stroke-linecap="round" class="stroke-width stroke-color-2" d="m103.63,46.79h12.63" fill="none"/>
  <path stroke-linejoin="round" stroke-linecap="round" class="stroke-width stroke-color-2" d="m103.63,51.37h12.63" fill="none"/>
  <path stroke-linejoin="round" stroke-linecap="round" class="stroke-width stroke-color-2" d="m103.63,55.96h12.63" fill="none"/>
  <path stroke-linejoin="round" stroke-linecap="round" class="stroke-width stroke-color-2" d="m103.63,60.54h12.63" fill="none"/>
  <path stroke-linejoin="round" stroke-linecap="round" class="stroke-width stroke-color-2" d="m103.63,65.13h12.63" fill="none"/>
  <path stroke-linejoin="round" stroke-linecap="round" class="stroke-width stroke-color-2" d="m103.63,69.71h12.63" fill="none"/>
  <path stroke-linejoin="round" stroke-linecap="round" class="stroke-width stroke-color-2" d="m103.63,74.3h12.63" fill="none"/>
  <path stroke-linejoin="round" stroke-linecap="round" class="stroke-width stroke-color-2" d="m103.63,78.88h12.63" fill="none"/>
  <path stroke-linejoin="round" stroke-linecap="round" class="stroke-width stroke-color-2" d="m103.63,83.47h12.63" fill="none"/>
  <path stroke-linejoin="round" stroke-linecap="round" class="stroke-width stroke-color-2" d="m103.63,88.06h12.63" fill="none"/>
  <path stroke-linejoin="round" stroke-linecap="round" class="stroke-width stroke-color-2" d="m67.46,46.79h12.63" fill="none"/>
  <path stroke-linejoin="round" stroke-linecap="round" class="stroke-width stroke-color-2" d="m67.46,51.37h12.63" fill="none"/>
  <path stroke-linejoin="round" stroke-linecap="round" class="stroke-width stroke-color-2" d="m67.46,55.96h12.63" fill="none"/>
  <path stroke-linejoin="round" stroke-linecap="round" class="stroke-width stroke-color-2" d="m67.46,60.54h12.63" fill="none"/>
  <path stroke-linejoin="round" stroke-linecap="round" class="stroke-width stroke-color-2" d="m67.46,65.13h12.63" fill="none"/>
  <path stroke-linejoin="round" stroke-linecap="round" class="stroke-width stroke-color-2" d="m67.46,69.71h12.63" fill="none"/>
  <path stroke-linejoin="round" stroke-linecap="round" class="stroke-width stroke-color-2" d="m67.46,74.3h12.63" fill="none"/>
  <path stroke-linejoin="round" stroke-linecap="round" class="stroke-width stroke-color-2" d="m67.46,78.88h12.63" fill="none"/>
  <path stroke-linejoin="round" stroke-linecap="round" class="stroke-width stroke-color-2" d="m67.46,83.47h12.63" fill="none"/>
  <path stroke-linejoin="round" stroke-linecap="round" class="stroke-width stroke-color-2" d="m67.46,88.06h12.63" fill="none"/>
  <path stroke-linejoin="round" stroke-linecap="round" class="stroke-width stroke-color-2" d="m37.94,117.92h14.73" fill="none"/>
  <path stroke-linejoin="round" stroke-linecap="round" class="stroke-width stroke-color-2" d="m37.94,122.46h14.73" fill="none"/>
  <path stroke-linejoin="round" stroke-linecap="round" class="stroke-width stroke-color-2" d="m37.94,126.99h14.73" fill="none"/>
  <path stroke-linejoin="round" stroke-linecap="round" class="stroke-width stroke-color-2" d="m37.94,131.53h14.73" fill="none"/>
  <path stroke-linejoin="round" stroke-linecap="round" class="stroke-width stroke-color-2" d="m37.94,136.07h14.73" fill="none"/>
  <path stroke-linejoin="round" stroke-linecap="round" class="stroke-width stroke-color-2" d="m64.56,239.66h14.73" fill="none"/>
  <path stroke-linejoin="round" stroke-linecap="round" class="stroke-width stroke-color-2" d="m64.56,245.85h14.73" fill="none"/>
  <path stroke-linejoin="round" stroke-linecap="round" class="stroke-width stroke-color-2" d="m64.56,252.04h14.73" fill="none"/>
  <path stroke-linejoin="round" stroke-linecap="round" class="stroke-width stroke-color-2" d="m98.89,239.66h14.73" fill="none"/>
  <path stroke-linejoin="round" stroke-linecap="round" class="stroke-width stroke-color-2" d="m98.89,245.85h14.73" fill="none"/>
  <path stroke-linejoin="round" stroke-linecap="round" class="stroke-width stroke-color-2" d="m98.89,252.04h14.73" fill="none"/>
  <path stroke-linejoin="round" stroke-linecap="round" class="stroke-width stroke-color-2" d="m37.94,140.61h14.73" fill="none"/>
  <path stroke-linejoin="round" stroke-linecap="round" class="stroke-width stroke-color-2" d="m37.94,145.15h14.73" fill="none"/>
  <path stroke-linejoin="round" stroke-linecap="round" class="stroke-width stroke-color-2" d="m37.94,149.69h14.73" fill="none"/>
  <path stroke-linejoin="round" stroke-linecap="round" class="stroke-width stroke-color-2" d="m37.94,154.23h14.73" fill="none"/>
  <path stroke-linejoin="round" stroke-linecap="round" class="stroke-width stroke-color-2" d="m37.94,158.77h14.73" fill="none"/>
  <path stroke-linejoin="round" stroke-linecap="round" class="stroke-width stroke-color-2" d="m37.94,163.31h14.73" fill="none"/>
  <path class="color-4" d="m95.72,39.4c0-2.13-1.73-3.86-3.86-3.86s-3.86,1.73-3.86,3.86v60.2c0,2.13,1.73,3.86,3.86,3.86s3.86-1.73,3.86-3.86v-60.2Z" fill="url(#color-4)"/>
  <path class="color-1" d="m62.59,138.36v8.63h58.55v-8.63h-58.55Z" fill="url(#color-1)"/>
  <path class="color-4" d="m84.45,138.47c-3.05-.7-5.71,2.05-5.03,5.2.34,1.59,1.59,2.86,3.12,3.22,3.05.69,5.7-2.05,5.03-5.19-.34-1.59-1.58-2.87-3.12-3.22h0Z" fill="url(#color-4)"/>
  <path class="color-4" d="m76.09,138.49c-3.05-.7-5.71,2.05-5.03,5.2.34,1.59,1.59,2.86,3.12,3.22,3.05.69,5.7-2.05,5.03-5.19-.34-1.59-1.58-2.87-3.12-3.22h0Z" fill="url(#color-4)"/>
  <path class="color-4" d="m67.73,138.49c-3.05-.7-5.71,2.05-5.03,5.2.34,1.59,1.59,2.86,3.12,3.22,3.05.69,5.7-2.05,5.03-5.19-.34-1.59-1.58-2.87-3.12-3.22h0Z" fill="url(#color-4)"/>
  <path class="color-4" d="m92.82,138.47c-3.05-.7-5.71,2.05-5.03,5.2.34,1.59,1.59,2.87,3.12,3.22,3.05.69,5.71-2.05,5.03-5.19-.34-1.59-1.58-2.87-3.12-3.22h0Z" fill="url(#color-4)"/>
  <path class="color-4" d="m101.18,138.47c-3.05-.69-5.71,2.05-5.03,5.19.34,1.59,1.58,2.87,3.12,3.22,3.05.69,5.71-2.05,5.03-5.19-.34-1.59-1.58-2.87-3.12-3.22Z" fill="url(#color-4)"/>
  <path class="color-4" d="m108.59,146.86c2.31,0,4.18-1.87,4.18-4.18s-1.87-4.18-4.18-4.18-4.18,1.87-4.18,4.18,1.87,4.18,4.18,4.18Z" fill="url(#color-4)"/>
  <path class="color-4" d="m116.95,146.86c2.31,0,4.18-1.87,4.18-4.18s-1.87-4.18-4.18-4.18-4.18,1.87-4.18,4.18,1.87,4.18,4.18,4.18Z" fill="url(#color-4)"/>
  <path stroke-linejoin="round" stroke-linecap="round" class="stroke-width stroke-color-2" d="m66.76,142.68h50.1" fill="none"/>
  <path class="color-2" d="m66.76,144.16c.82,0,1.49-.67,1.49-1.49s-.67-1.49-1.49-1.49-1.49.67-1.49,1.49.67,1.49,1.49,1.49Z" fill="url(#color-2)"/>
  <path class="color-2" d="m116.87,144.16c.82,0,1.49-.67,1.49-1.49s-.67-1.49-1.49-1.49-1.49.67-1.49,1.49.67,1.49,1.49,1.49Z" fill="url(#color-2)"/>
  <path stroke-linejoin="round" stroke-linecap="round" class="stroke-width stroke-color-1" d="m70.86,160.84h35.31" fill="none"/>
  <path stroke-linejoin="round" stroke-linecap="round" class="stroke-width stroke-color-3" d="m45.3,36.42v77.08" fill="none"/>
  <path stroke-linejoin="round" stroke-linecap="round" class="stroke-width stroke-color-3" d="m45.3,167.44v92.77" fill="none"/>
  <path stroke-linejoin="round" stroke-linecap="round" class="stroke-width stroke-color-3" d="m73.77,94.07v8.79s.2,13.39,15.35,13.39" fill="none"/>
  <path stroke-linejoin="round" stroke-linecap="round" class="stroke-width stroke-color-3" d="m109.95,94.07v8.79s-.2,13.39-15.35,13.39" fill="none"/>
  <path stroke-linejoin="round" stroke-linecap="round" class="stroke-width stroke-color-3" d="m91.86,39.2v60.29" fill="none"/>
  <path stroke-linejoin="round" stroke-linecap="round" class="stroke-width stroke-color-2" d="m83.91,88.06h15.9" fill="none"/>
  <path stroke-linejoin="round" stroke-linecap="round" class="stroke-width stroke-color-2" d="m83.91,77.65h15.9" fill="none"/>
  <path stroke-linejoin="round" stroke-linecap="round" class="stroke-width stroke-color-3" d="m117.7,136.17c-23.96,0-25.81-19.55-25.81-19.55,0,0-1.9,19.55-25.86,19.55" fill="none"/>
  <path stroke-linejoin="round" stroke-linecap="round" class="stroke-width stroke-color-3" d="m91.86,41.12c.82,0,1.49-.67,1.49-1.49s-.67-1.49-1.49-1.49-1.49.67-1.49,1.49.67,1.49,1.49,1.49Z" fill="none"/>
  <path class="color-3" d="m91.86,100.98c.82,0,1.49-.67,1.49-1.49s-.67-1.49-1.49-1.49-1.49.67-1.49,1.49.67,1.49,1.49,1.49Z" fill="url(#color-2)"/>
  <path class="color-3" d="m92.95,167.51c0-2.13-1.73-3.86-3.86-3.86s-3.86,1.73-3.86,3.86v124.66c0,2.13,1.73,3.86,3.86,3.86s3.86-1.73,3.86-3.86v-124.66Z" fill="url(#color-3)"/>
  <path stroke-linejoin="round" stroke-linecap="round" class="stroke-width stroke-color-4" d="m89.09,167.31v124.85" fill="none"/>
  <path class="color-4" d="m89.13,169.23c.82,0,1.49-.67,1.49-1.49s-.67-1.49-1.49-1.49-1.49.67-1.49,1.49.67,1.49,1.49,1.49Z" fill="url(#color-4)"/>
  <path stroke-linejoin="round" stroke-linecap="round" class="stroke-width stroke-color-3" d="m76.78,161.46v6.08h-7.72v10.78h7.72v5.89h-7.72v10.78h7.72v5.91h-7.72v10.78h7.72v8.7" fill="none"/>
  <path stroke-linejoin="round" stroke-linecap="round" class="stroke-width stroke-color-3" d="m100.54,161.46v6.08h7.73v10.78h-7.73v5.89h7.73v10.78h-7.73v5.91h7.73v10.78h-7.73v8.7" fill="none"/>
  <path class="color-1" d="m105.2,222.61c-1.52,0-2.9.56-3.95,1.49-1.06-.92-2.44-1.49-3.95-1.49s-2.9.57-3.96,1.49c-1.06-.93-2.45-1.49-3.96-1.49s-2.9.56-3.95,1.49c-1.06-.92-2.44-1.49-3.96-1.49s-2.9.57-3.96,1.49c-1.06-.93-2.45-1.49-3.96-1.49-3.33,0-6.03,2.7-6.03,6.03s2.7,6.03,6.03,6.03c1.52,0,2.9-.57,3.96-1.49,1.06.93,2.45,1.49,3.96,1.49s2.9-.56,3.96-1.49c1.06.92,2.44,1.49,3.95,1.49s2.9-.57,3.96-1.49c1.06.93,2.45,1.49,3.96,1.49s2.9-.56,3.95-1.49c1.06.92,2.44,1.49,3.95,1.49,3.33,0,6.03-2.7,6.03-6.03s-2.7-6.03-6.03-6.03Z" fill="url(#color-1)"/>
  <path class="color-3" d="m77.49,232.44c2.19,0,3.96-1.71,3.96-3.82s-1.77-3.82-3.96-3.82-3.96,1.71-3.96,3.82,1.77,3.82,3.96,3.82Z" fill="url(#color-3)"/>
  <path class="color-3" d="m85.4,232.44c2.19,0,3.96-1.71,3.96-3.82s-1.77-3.82-3.96-3.82-3.96,1.71-3.96,3.82,1.77,3.82,3.96,3.82Z" fill="url(#color-3)"/>
  <path class="color-2" d="m93.31,232.44c2.19,0,3.96-1.71,3.96-3.82s-1.77-3.82-3.96-3.82-3.96,1.71-3.96,3.82,1.77,3.82,3.96,3.82Z" fill="url(#color-2)"/>
  <path class="color-3" d="m101.24,232.44c2.19,0,3.96-1.71,3.96-3.82s-1.77-3.82-3.96-3.82-3.96,1.71-3.96,3.82,1.77,3.82,3.96,3.82Z" fill="url(#color-3)"/>
  <path class="color-4" d="m73.53,230.04c.77,0,1.4-.63,1.4-1.4s-.63-1.4-1.4-1.4-1.4.63-1.4,1.4.63,1.4,1.4,1.4Z" fill="url(#color-4)"/>
  <path class="color-4" d="m105.66,230.04c.78,0,1.4-.63,1.4-1.4s-.63-1.4-1.4-1.4-1.4.63-1.4,1.4.63,1.4,1.4,1.4Z" fill="url(#color-4)"/>
  <path stroke-linejoin="round" stroke-linecap="round" class="stroke-width stroke-color-4" d="m73.53,228.64h32.13" fill="none"/>
  <path stroke-linejoin="round" stroke-linecap="round" class="stroke-width stroke-color-3" d="m106.27,256.45v11.1s-1.26,17.39,18.89,17.39" fill="none"/>
  <path stroke-linejoin="round" stroke-linecap="round" class="stroke-width stroke-color-3" d="m72.11,256.45v11.1s1.26,17.39-18.89,17.39" fill="none"/>
  <path stroke-linejoin="round" stroke-linecap="round" class="stroke-width stroke-color-3" d="m120.9,229.73s-.87,20.31,15.04,20.31" fill="none"/>
  <path stroke-linejoin="round" stroke-linecap="round" class="stroke-width stroke-color-3" d="m139.4,250.45s19.51,1.09,19.51,35.11" fill="none"/>
  <path stroke-linejoin="round" stroke-linecap="round" class="stroke-width stroke-color-3" d="m121.2,161.46s31.76-.11,31.76,32.7v.37c0,34.04-31.76,32.7-31.76,32.7" fill="none"/>
  <path stroke-linejoin="round" stroke-linecap="round" class="stroke-width stroke-color-3" d="m121.36,119.79s24.83-.07,24.83,19.59v.22c0,20.39-24.83,19.59-24.83,19.59" fill="none"/>
  <path stroke-linejoin="round" stroke-linecap="round" class="stroke-width stroke-color-3" d="m45.3,264.81s-.43,19.21-19.21,19.21" fill="none" />
  <path stroke-linejoin="round" stroke-linecap="round" class="stroke-width stroke-color-3" d="m121.36,43.03s32.16-.13,32.16,37.23v.43c0,38.76-32.16,37.23-32.16,37.23" fill="none"/>
  <path class="color-2" d="m110.05,149.12v8.71h-19.65l19.65-8.71Z" fill="url(#color-2)"/>
  <path class="color-3" d="m63.1,135.69v-9.04h15.41l-15.41,9.04Z" fill="url(#color-3)"/>
</svg>