<?xml version="1.0" encoding="UTF-8"?>
<svg id="bot12" xmlns="http://www.w3.org/2000/svg" viewBox="0 0 185 308">
  <defs>
    <style>
      .stroke-width {
        stroke-width: 1.3px;
      }

      .stroke-color-1 {
        stroke: #fa4013;
      }

      .stroke-color-2 {
        stroke: #9cd323;
      }

      .stroke-color-3 {
        stroke:#404272;
      }

      .stroke-color-4 {
        stroke: #ffffff;
      }      
    </style>
    <linearGradient id="color-1" gradientTransform="rotate(90)">
      <stop offset="0%" stop-color="#fa4013" />
      <stop offset="100%" stop-color="#fa4013" />
      <stop offset="100%" stop-color="white" />
    </linearGradient>
    <linearGradient id="color-2" gradientTransform="rotate(90)">
      <stop offset="0%" stop-color="#9cd323" />
      <stop offset="100%" stop-color="#9cd323" />
      <stop offset="100%" stop-color="white" />
    </linearGradient>
    <linearGradient id="color-3" gradientTransform="rotate(90)">
      <stop offset="0%" stop-color="#404272" />
      <stop offset="100%" stop-color="#404272" />
      <stop offset="100%" stop-color="white" />
    </linearGradient>   
    <linearGradient id="color-4" gradientTransform="rotate(90)">
      <stop offset="0%" stop-color="#ffffff" />
      <stop offset="100%" stop-color="#ffffff" />
      <stop offset="100%" stop-color="white" />
    </linearGradient>  
  </defs>
  <path class="color-3" d="m76.42,270.37c3.49,0,6.31-2.83,6.31-6.31s-2.83-6.31-6.31-6.31-6.31,2.83-6.31,6.31,2.83,6.31,6.31,6.31Z" fill="url(#color-3)"/>
  <path stroke-linejoin="round" stroke-linecap="round" class="stroke-width stroke-color-3" d="m62.03,128.97h14.73" fill="none"/>
  <path stroke-linejoin="round" stroke-linecap="round" class="stroke-width stroke-color-3" d="m62.03,134.6h14.73" fill="none"/>
  <path stroke-linejoin="round" stroke-linecap="round" class="stroke-width stroke-color-3" d="m62.03,140.22h14.73" fill="none"/>
  <path stroke-linejoin="round" stroke-linecap="round" class="stroke-width stroke-color-3" d="m62.03,145.85h14.73" fill="none"/>
  <path stroke-linejoin="round" stroke-linecap="round" class="stroke-width stroke-color-3" d="m62.03,151.48h14.73" fill="none"/>
  <path stroke-linejoin="round" stroke-linecap="round" class="stroke-width stroke-color-3" d="m62.03,157.1h14.73" fill="none"/>
  <path class="color-3" d="m86.54,83.35c0,1.52.56,2.9,1.49,3.95-.92,1.06-1.49,2.44-1.49,3.95s.57,2.9,1.49,3.96c-.93,1.06-1.49,2.45-1.49,3.96s.56,2.9,1.49,3.95c-.92,1.06-1.49,2.44-1.49,3.96s.57,2.9,1.49,3.96c-.93,1.06-1.49,2.45-1.49,3.96,0,3.33,2.7,6.03,6.03,6.03s6.03-2.7,6.03-6.03c0-1.52-.57-2.9-1.49-3.96.93-1.06,1.49-2.45,1.49-3.96s-.56-2.9-1.49-3.96c.92-1.06,1.49-2.44,1.49-3.95s-.57-2.9-1.49-3.96c.93-1.06,1.49-2.45,1.49-3.96s-.56-2.9-1.49-3.95c.92-1.06,1.49-2.44,1.49-3.95,0-3.33-2.7-6.03-6.03-6.03s-6.03,2.7-6.03,6.03Z" fill="url(#color-3)"/>
  <path class="color-1" d="m92.55,115.02c2.11,0,3.82-1.77,3.82-3.96s-1.71-3.96-3.82-3.96-3.82,1.77-3.82,3.96,1.71,3.96,3.82,3.96Z" fill="url(#color-1)"/>
  <path class="color-1" d="m92.55,107.1c2.11,0,3.82-1.77,3.82-3.96s-1.71-3.96-3.82-3.96-3.82,1.77-3.82,3.96,1.71,3.96,3.82,3.96Z" fill="url(#color-1)"/>
  <path class="color-1" d="m92.55,99.18c2.11,0,3.82-1.77,3.82-3.96s-1.71-3.96-3.82-3.96-3.82,1.77-3.82,3.96,1.71,3.96,3.82,3.96Z" fill="url(#color-1)"/>
  <path class="color-1" d="m92.55,91.27c2.11,0,3.82-1.77,3.82-3.96s-1.71-3.96-3.82-3.96-3.82,1.77-3.82,3.96,1.71,3.96,3.82,3.96Z" fill="url(#color-1)"/>
  <path class="color-4" d="m93.62,115.02c0,.58-.47,1.05-1.05,1.05s-1.05-.47-1.05-1.05.47-1.05,1.05-1.05,1.05.47,1.05,1.05Z" fill="url(#color-4)"/>
  <path class="color-4" d="m93.62,82.88c0,.58-.47,1.05-1.05,1.05s-1.05-.47-1.05-1.05.47-1.05,1.05-1.05,1.05.47,1.05,1.05Z" fill="url(#color-4)"/>
  <path class="stroke-width stroke-color-4" d="m92.57,115.02v-32.13" fill="none"/>
  <path class="color-4" d="m117.76,260.78c0-3.1-2.51-5.61-5.61-5.61s-5.61,2.51-5.61,5.61v34.33c0,3.1,2.51,5.61,5.61,5.61s5.61-2.51,5.61-5.61v-34.33Z" fill="url(#color-4)"/>
  <path stroke-linejoin="round" stroke-linecap="round" class="stroke-width stroke-color-3" d="m112.15,260.66v35.4" fill="none"/>
  <path class="color-4" d="m112.15,297.54c.82,0,1.49-.67,1.49-1.49s-.67-1.49-1.49-1.49-1.49.67-1.49,1.49.67,1.49,1.49,1.49Z" fill="url(#color-4)"/>
  <path class="color-4" d="m112.15,261.68c.82,0,1.49-.67,1.49-1.49s-.67-1.49-1.49-1.49-1.49.67-1.49,1.49.67,1.49,1.49,1.49Z" fill="url(#color-4)"/>
  <path class="color-1" d="m63.72,283.36v8.63h58.55v-8.63h-58.55Z" fill="url(#color-1)"/>
  <path class="color-3" d="m85.59,283.46c-3.05-.7-5.71,2.05-5.03,5.2.34,1.59,1.59,2.86,3.12,3.22,3.05.69,5.7-2.05,5.03-5.19-.34-1.59-1.58-2.87-3.12-3.22h0Z" fill="url(#color-3)"/>
  <path class="color-3" d="m77.22,283.48c-3.05-.7-5.71,2.05-5.03,5.2.34,1.59,1.59,2.86,3.12,3.22,3.05.69,5.7-2.05,5.03-5.19-.34-1.59-1.58-2.87-3.12-3.22h0Z" fill="url(#color-3)"/>
  <path class="color-3" d="m68.86,283.48c-3.05-.7-5.71,2.05-5.03,5.2.34,1.59,1.59,2.86,3.12,3.22,3.05.69,5.7-2.05,5.03-5.19-.34-1.59-1.58-2.87-3.12-3.22h0Z" fill="url(#color-3)"/>
  <path class="color-3" d="m93.95,283.46c-3.05-.7-5.71,2.05-5.03,5.2.34,1.59,1.59,2.87,3.12,3.22,3.05.69,5.71-2.05,5.03-5.19-.34-1.59-1.58-2.87-3.12-3.22h0Z" fill="url(#color-3)"/>
  <path class="color-3" d="m102.31,283.46c-3.05-.69-5.71,2.05-5.03,5.19.34,1.59,1.58,2.87,3.12,3.22,3.05.69,5.71-2.05,5.03-5.19-.34-1.59-1.58-2.87-3.12-3.22Z" fill="url(#color-3)"/>
  <path class="color-3" d="m109.72,291.85c2.31,0,4.18-1.87,4.18-4.18s-1.87-4.18-4.18-4.18-4.18,1.87-4.18,4.18,1.87,4.18,4.18,4.18Z" fill="url(#color-3)"/>
  <path class="color-3" d="m118.08,291.85c2.31,0,4.18-1.87,4.18-4.18s-1.87-4.18-4.18-4.18-4.18,1.87-4.18,4.18,1.87,4.18,4.18,4.18Z" fill="url(#color-3)"/>
  <path class="stroke-width stroke-color-4" d="m67.9,287.67h50.1" fill="none"/>
  <path class="color-4" d="m69.04,287.67c0,.63-.51,1.14-1.14,1.14s-1.14-.51-1.14-1.14.51-1.14,1.14-1.14,1.14.51,1.14,1.14Z" fill="url(#color-4)"/>
  <path class="color-4" d="m119.14,287.67c0,.63-.51,1.14-1.14,1.14s-1.14-.51-1.14-1.14.51-1.14,1.14-1.14,1.14.51,1.14,1.14Z" fill="url(#color-4)"/>
  <path class="color-4" d="m92.71,72.52c4.26,0,7.72-3.46,7.72-7.72s-3.46-7.72-7.72-7.72-7.72,3.46-7.72,7.72,3.46,7.72,7.72,7.72Z" fill="url(#color-4)"/>
  <path class="color-4" d="m153.27,117.26c4.26,0,7.72-3.46,7.72-7.72s-3.46-7.72-7.72-7.72-7.72,3.46-7.72,7.72,3.46,7.72,7.72,7.72Z" fill="url(#color-4)"/>
  <path class="color-2" d="m32.31,117.26c4.26,0,7.72-3.46,7.72-7.72s-3.46-7.72-7.72-7.72-7.72,3.46-7.72,7.72,3.46,7.72,7.72,7.72Z" fill="url(#color-2)"/>
  <path class="color-3" d="m48.17,253.45c4.26,0,7.72-3.46,7.72-7.72s-3.46-7.72-7.72-7.72-7.72,3.46-7.72,7.72,3.46,7.72,7.72,7.72Z" fill="url(#color-3)"/>
  <path class="color-4" d="m137.26,253.1c4.26,0,7.72-3.46,7.72-7.72s-3.46-7.72-7.72-7.72-7.72,3.46-7.72,7.72,3.46,7.72,7.72,7.72Z" fill="url(#color-4)"/>
  <path class="color-2" d="m92.39,243.82c4.26,0,7.72-3.46,7.72-7.72s-3.46-7.72-7.72-7.72-7.72,3.46-7.72,7.72,3.46,7.72,7.72,7.72Z" fill="url(#color-2)"/>
  <path class="color-4" d="m92.57,218.11c4.26,0,7.72-3.46,7.72-7.72s-3.46-7.72-7.72-7.72-7.72,3.46-7.72,7.72,3.46,7.72,7.72,7.72Z" fill="url(#color-4)"/>
  <path stroke-linejoin="round" stroke-linecap="round" class="stroke-width stroke-color-1" d="m137.26,245.39l-44.55-35.21-44.55,35.21,44.55-35.21" fill="none"/>
  <path stroke-linejoin="round" stroke-linecap="round" class="stroke-width stroke-color-1" d="m98.78,49.12h11.93" fill="none"/>
  <path stroke-linejoin="round" stroke-linecap="round" class="stroke-width stroke-color-1" d="m98.78,53.44h11.93" fill="none"/>
  <path stroke-linejoin="round" stroke-linecap="round" class="stroke-width stroke-color-1" d="m98.78,57.76h11.93" fill="none"/>
  <path stroke-linejoin="round" stroke-linecap="round" class="stroke-width stroke-color-1" d="m85.02,255.71h14.73" fill="none"/>
  <path stroke-linejoin="round" stroke-linecap="round" class="stroke-width stroke-color-1" d="m85.02,251.12h14.73" fill="none"/>
  <path stroke-linejoin="round" stroke-linecap="round" class="stroke-width stroke-color-1" d="m85.02,260.31h14.73" fill="none"/>
  <path stroke-linejoin="round" stroke-linecap="round" class="stroke-width stroke-color-1" d="m85.02,278.69h14.73" fill="none"/>
  <path stroke-linejoin="round" stroke-linecap="round" class="stroke-width stroke-color-1" d="m85.02,269.5h14.73" fill="none"/>
  <path stroke-linejoin="round" stroke-linecap="round" class="stroke-width stroke-color-1" d="m85.02,264.9h14.73" fill="none"/>
  <path stroke-linejoin="round" stroke-linecap="round" class="stroke-width stroke-color-1" d="m85.02,274.1h14.73" fill="none"/>
  <path stroke-linejoin="round" stroke-linecap="round" class="stroke-width stroke-color-1" d="m32.31,117v-7.37l60.4-44.94-60.4,44.94,60.4-44.94,60.4,44.94v7.37" fill="none"/>
  <path stroke-linejoin="round" stroke-linecap="round" class="stroke-width stroke-color-1" d="m76.42,265.7v17.78" fill="none"/>
  <path stroke-linejoin="round" stroke-linecap="round" class="stroke-width stroke-color-1" d="m152.62,148.25v62.28" fill="none"/>
  <path class="color-4" d="m159.21,285.2c4.26,0,7.72-3.46,7.72-7.72s-3.46-7.72-7.72-7.72-7.72,3.46-7.72,7.72,3.46,7.72,7.72,7.72Z" fill="url(#color-2)"/>
  <path stroke-linejoin="round" stroke-linecap="round" class="stroke-width stroke-color-1" d="m145.9,122.15h14.73" fill="none"/>
  <path stroke-linejoin="round" stroke-linecap="round" class="stroke-width stroke-color-1" d="m145.9,127.55h14.73" fill="none"/>
  <path stroke-linejoin="round" stroke-linecap="round" class="stroke-width stroke-color-1" d="m99.45,99.11h11.93" fill="none"/>
  <path stroke-linejoin="round" stroke-linecap="round" class="stroke-width stroke-color-1" d="m99.45,102.41h11.93" fill="none"/>
  <path stroke-linejoin="round" stroke-linecap="round" class="stroke-width stroke-color-1" d="m145.9,132.94h14.73" fill="none"/>
  <path stroke-linejoin="round" stroke-linecap="round" class="stroke-width stroke-color-1" d="m145.9,138.34h14.73" fill="none"/>
  <path stroke-linejoin="round" stroke-linecap="round" class="stroke-width stroke-color-1" d="m145.9,143.74h14.73" fill="none"/>
  <path class="color-1" d="m153.27,196.08c4.26,0,7.72-3.46,7.72-7.72s-3.46-7.72-7.72-7.72-7.72,3.46-7.72,7.72,3.46,7.72,7.72,7.72Z" fill="url(#color-1)"/>
  <path class="color-4" d="m152.62,168.33c4.26,0,7.72-3.46,7.72-7.72s-3.46-7.72-7.72-7.72-7.72,3.46-7.72,7.72,3.46,7.72,7.72,7.72Z" fill="url(#color-4)"/>
  <path class="color-3" d="m153.27,223.82c4.26,0,7.72-3.46,7.72-7.72s-3.46-7.72-7.72-7.72-7.72,3.46-7.72,7.72,3.46,7.72,7.72,7.72Z" fill="url(#color-3)"/>
  <path stroke-linejoin="round" stroke-linecap="round" class="stroke-width stroke-color-1" d="m153.27,227.66c1.06,21.06,2.88,39.92,5.94,49.81" fill="none"/>
  <path stroke-linejoin="round" stroke-linecap="round" class="stroke-width stroke-color-1" d="m31.73,148.84v62.29" fill="none"/>
  <path class="color-4" d="m25.79,285.2c4.26,0,7.72-3.46,7.72-7.72s-3.46-7.72-7.72-7.72-7.72,3.46-7.72,7.72,3.46,7.72,7.72,7.72Z" fill="url(#color-4)"/>
  <path stroke-linejoin="round" stroke-linecap="round" class="stroke-width stroke-color-1" d="m39.1,122.15h-14.73" fill="none"/>
  <path stroke-linejoin="round" stroke-linecap="round" class="stroke-width stroke-color-1" d="m39.1,127.55h-14.73" fill="none"/>
  <path stroke-linejoin="round" stroke-linecap="round" class="stroke-width stroke-color-1" d="m39.1,132.94h-14.73" fill="none"/>
  <path stroke-linejoin="round" stroke-linecap="round" class="stroke-width stroke-color-1" d="m39.1,138.34h-14.73" fill="none"/>
  <path stroke-linejoin="round" stroke-linecap="round" class="stroke-width stroke-color-1" d="m39.1,143.74h-14.73" fill="none"/>
  <path class="color-1" d="m31.73,196.08c4.26,0,7.72-3.46,7.72-7.72s-3.46-7.72-7.72-7.72-7.72,3.46-7.72,7.72,3.46,7.72,7.72,7.72Z" fill="url(#color-1)"/>
  <path class="color-4" d="m31.73,168.33c4.26,0,7.72-3.46,7.72-7.72s-3.46-7.72-7.72-7.72-7.72,3.46-7.72,7.72,3.46,7.72,7.72,7.72Z" fill="url(#color-4)"/>
  <path class="color-2" d="m31.73,223.82c4.26,0,7.72-3.46,7.72-7.72s-3.46-7.72-7.72-7.72-7.72,3.46-7.72,7.72,3.46,7.72,7.72,7.72Z" fill="url(#color-2)"/>
  <path stroke-linejoin="round" stroke-linecap="round" class="stroke-width stroke-color-1" d="m31.73,227.66c-1.06,21.06-2.88,39.92-5.94,49.81" fill="none"/>
  <path class="color-3" d="m129.06,83.03c4.26,0,7.72-3.46,7.72-7.72s-3.46-7.72-7.72-7.72-7.72,3.46-7.72,7.72,3.46,7.72,7.72,7.72Z" fill="url(#color-3)"/>
  <path class="color-3" d="m137.48,30.4c3.49,0,6.31-2.83,6.31-6.31s-2.83-6.31-6.31-6.31-6.31,2.83-6.31,6.31,2.83,6.31,6.31,6.31Z" fill="url(#color-3)"/>
  <path class="color-3" d="m68.06,179.92c3.49,0,6.31-2.83,6.31-6.31s-2.83-6.31-6.31-6.31-6.31,2.83-6.31,6.31,2.83,6.31,6.31,6.31Z" fill="url(#color-3)"/>
  <path class="color-3" d="m120.39,201.82c3.49,0,6.31-2.83,6.31-6.31s-2.83-6.31-6.31-6.31-6.31,2.83-6.31,6.31,2.83,6.31,6.31,6.31Z" fill="url(#color-3)"/>
  <path class="color-1" d="m93.09,185.71c3.49,0,6.31-2.83,6.31-6.31s-2.83-6.31-6.31-6.31-6.31,2.83-6.31,6.31,2.83,6.31,6.31,6.31Z" fill="url(#color-1)"/>
  <path class="color-3" d="m66.96,116.89c3.49,0,6.31-2.83,6.31-6.31s-2.83-6.31-6.31-6.31-6.31,2.83-6.31,6.31,2.83,6.31,6.31,6.31Z" fill="url(#color-3)"/>
  <path class="color-2" d="m64.35,257.13c3.49,0,6.31-2.83,6.31-6.31s-2.83-6.31-6.31-6.31-6.31,2.83-6.31,6.31,2.83,6.31,6.31,6.31Z" fill="url(#color-2)"/>
  <path class="color-3" d="m116.97,179.4c3.49,0,6.31-2.83,6.31-6.31s-2.83-6.31-6.31-6.31-6.31,2.83-6.31,6.31,2.83,6.31,6.31,6.31Z" fill="url(#color-2)"/>
  <path class="color-3" d="m56.55,45.15c4.26,0,7.72-3.46,7.72-7.72s-3.46-7.72-7.72-7.72-7.72,3.46-7.72,7.72,3.46,7.72,7.72,7.72Z" fill="url(#color-2)"/>
  <path class="color-3" d="m56.03,77.86c4.26,0,7.72-3.46,7.72-7.72s-3.46-7.72-7.72-7.72-7.72,3.46-7.72,7.72,3.46,7.72,7.72,7.72Z" fill="url(#color-3)"/>
  <path class="color-1" d="m123.75,7.28h-7.72v41.56h7.72V7.28Z" fill="url(#color-1)"/>
  <path class="color-1" d="m74.98,7.28h-7.72v41.56h7.72V7.28Z" fill="url(#color-1)"/>
  <path stroke-linejoin="round" stroke-linecap="round" class="stroke-width stroke-color-1" d="m119.87,10.76h-48.76" fill="none"/>
  <path stroke-linejoin="round" stroke-linecap="round" class="stroke-width stroke-color-1" d="m119.87,45.69h-48.76" fill="none"/>
  <path stroke-linejoin="round" stroke-linecap="round" class="stroke-width stroke-color-1" d="m105.22,60.72s.88,14.62,23.88,14.62" fill="none"/>
  <path stroke-linejoin="round" stroke-linecap="round" class="stroke-width stroke-color-1" d="m76.42,262.15s-.44-11.46-12.08-11.46" fill="none"/>
  <path stroke-linejoin="round" stroke-linecap="round" class="stroke-width stroke-color-1" d="m87.34,42.25s-1.15,27.9-31.31,27.9" fill="none"/>
  <path stroke-linejoin="round" stroke-linecap="round" class="stroke-width stroke-color-1" d="m88.48,21.04l14.03,14.03" fill="none"/>
  <path stroke-linejoin="round" stroke-linecap="round" class="stroke-width stroke-color-1" d="m102.52,21.04l-14.03,14.03" fill="none"/>
  <path class="color-1" d="m122.05,122.06h-7.72v41.56h7.72v-41.56Z" fill="url(#color-1)"/>
  <path class="color-1" d="m80.49,139.55v7.72h25.2v-7.72h-25.2Z" fill="url(#color-2)"/>
  <path class="color-3" d="m64.43,87.11v7.72h20.22v-7.72h-20.22Z" fill="url(#color-3)"/>
  <path stroke-linejoin="round" stroke-linecap="round" class="stroke-width stroke-color-1" d="m118.18,125.54h-48.76" fill="none"/>
  <path stroke-linejoin="round" stroke-linecap="round" class="stroke-width stroke-color-1" d="m118.18,160.47h-48.76" fill="none"/>
  <path stroke-linejoin="round" stroke-linecap="round" class="stroke-width stroke-color-1" d="m93.09,125.69v34.41" fill="none"/>
  <path stroke-linejoin="round" stroke-linecap="round" class="stroke-width stroke-color-1" d="m82.4,90.76s-.57,19.59-15.44,19.59" fill="none"/>
  <path class="color-3" d="m113.07,120.51c3.49,0,6.31-2.83,6.31-6.31s-2.83-6.31-6.31-6.31-6.31,2.83-6.31,6.31,2.83,6.31,6.31,6.31Z" fill="url(#color-3)"/>
  <path stroke-linejoin="round" stroke-linecap="round" class="stroke-width stroke-color-1" d="m105.24,104.89s.27,9.3,7.26,9.3" fill="none"/>
  <path class="color-2" d="m110.32,93.09c3.49,0,6.31-2.83,6.31-6.31s-2.83-6.31-6.31-6.31-6.31,2.83-6.31,6.31,2.83,6.31,6.31,6.31Z" fill="url(#color-2)"/>
  <path stroke-linejoin="round" stroke-linecap="round" class="stroke-width stroke-color-1" d="m105.41,96.62s.25-9.85,6.78-9.85" fill="none"/>
  <path stroke-linejoin="round" stroke-linecap="round" class="stroke-width stroke-color-1" d="m68.06,173.81s0,33.89,52.21,21.93" fill="none"/>
</svg>