<?xml version="1.0" encoding="UTF-8"?>
<svg id="bot12" xmlns="http://www.w3.org/2000/svg" viewBox="0 0 185 308">
  <defs>
    <style>
      .stroke-width {
        stroke-width: 1.3px;
      }
      
      .stroke-color-1 {
        stroke: #ffcf08;
      }

      .stroke-color-2 {
        stroke: #ff6836;
      }

      .stroke-color-3 {
        stroke: #404272;
      }

      .stroke-color-4 {
        stroke: #2aaeb3;
      }
    </style>
    <linearGradient id="color-1" gradientTransform="rotate(90)">
      <stop offset="0%" stop-color="#ffcf08" />
      <stop offset="100%" stop-color="#ffcf08" />
      <stop offset="100%" stop-color="white" />
    </linearGradient>
    <linearGradient id="color-2" gradientTransform="rotate(90)">
      <stop offset="0%" stop-color="#ff6836" />
      <stop offset="100%" stop-color="#ff6836" />
      <stop offset="100%" stop-color="white" />
    </linearGradient>
    <linearGradient id="color-3" gradientTransform="rotate(90)">
      <stop offset="0%" stop-color="#404272" />
      <stop offset="100%" stop-color="#404272" />
      <stop offset="100%" stop-color="white" />
    </linearGradient>
    <linearGradient id="color-4" gradientTransform="rotate(90)">
      <stop offset="0%" stop-color="#2aaeb3" />
      <stop offset="100%" stop-color="#2aaeb3" />
      <stop offset="100%" stop-color="white" />
    </linearGradient>
  </defs>
  <path stroke-linejoin="round" stroke-linecap="round" class="color-3" d="m51.43,126.4h-.48c-3.48,0-6.3,2.82-6.3,6.3v38.68c0,3.48,2.82,6.3,6.3,6.3h.48c3.48,0,6.3-2.82,6.3-6.3v-38.68c0-3.48-2.82-6.3-6.3-6.3Z" fill="none"/>
  <path stroke-linejoin="round" stroke-linecap="round" class="stroke-width stroke-color-4" d="m51.19,133.34v38.27" fill="none"/>
  <path stroke-linejoin="round" stroke-linecap="round" class="color-4" d="m51.19,134.35c.76,0,1.38-.62,1.38-1.38s-.62-1.38-1.38-1.38-1.38.62-1.38,1.38.62,1.38,1.38,1.38Z" fill="none"/>
  <path stroke-linejoin="round" stroke-linecap="round" class="color-2" d="m141.41,145.82H40.7v7.58h100.7v-7.58Z" fill="none"/>
  <path stroke-linejoin="round" stroke-linecap="round" class="stroke-width stroke-color-4" d="m44.95,149.61h92.09" fill="none"/>
  <path class="color-4" d="m45.08,150.99c.76,0,1.38-.62,1.38-1.38s-.62-1.38-1.38-1.38-1.38.62-1.38,1.38.62,1.38,1.38,1.38Z" fill="url(#color-4)"/>
  <path class="color-4" d="m137.03,150.99c.76,0,1.38-.62,1.38-1.38s-.62-1.38-1.38-1.38-1.38.62-1.38,1.38.62,1.38,1.38,1.38Z" fill="url(#color-4)"/>
  <path class="color-4" d="m51.19,172.98c.76,0,1.38-.62,1.38-1.38s-.62-1.38-1.38-1.38-1.38.62-1.38,1.38.62,1.38,1.38,1.38Z" fill="url(#color-4)"/>
  <path class="color-1" d="m119.12,77.75c3.42,0,6.2-2.78,6.2-6.2s-2.78-6.2-6.2-6.2-6.2,2.78-6.2,6.2,2.78,6.2,6.2,6.2Z" fill="url(#color-1)"/>
  <path class="color-2" d="m139.21,94.18c3.42,0,6.2-2.78,6.2-6.2s-2.78-6.2-6.2-6.2-6.2,2.78-6.2,6.2,2.78,6.2,6.2,6.2Z" fill="url(#color-2)"/>
  <path stroke-linejoin="round" stroke-linecap="round" class="stroke-width stroke-color-4" d="m118.12,40.47h14.46" fill="none"/>
  <path stroke-linejoin="round" stroke-linecap="round" class="stroke-width stroke-color-4" d="m118.12,45.27h14.46" fill="none"/>
  <path stroke-linejoin="round" stroke-linecap="round" class="stroke-width stroke-color-4" d="m118.12,50.06h14.46" fill="none"/>
  <path stroke-linejoin="round" stroke-linecap="round" class="stroke-width stroke-color-4" d="m155.11,43.54h14.46"/>
  <path stroke-linejoin="round" stroke-linecap="round" class="stroke-width stroke-color-4" d="m155.11,48.15h14.46"/>
  <path stroke-linejoin="round" stroke-linecap="round" class="stroke-width stroke-color-4" d="m155.11,52.76h14.46"/>
  <path stroke-linejoin="round" stroke-linecap="round" class="stroke-width stroke-color-4" d="m155.11,57.37h14.46"/>
  <path stroke-linejoin="round" stroke-linecap="round" class="stroke-width stroke-color-4" d="m155.11,61.98h14.46"/>
  <path stroke-linejoin="round" stroke-linecap="round" class="stroke-width stroke-color-4" d="m155.11,66.59h14.46"/>
  <path stroke-linejoin="round" stroke-linecap="round" class="stroke-width stroke-color-4" d="m155.11,71.2h14.46"/>
  <path stroke-linejoin="round" stroke-linecap="round" class="stroke-width stroke-color-4" d="m155.11,75.81h14.46"/>
  <path stroke-linejoin="round" stroke-linecap="round" class="stroke-width stroke-color-4" d="m155.11,80.42h14.46"/>
  <path stroke-linejoin="round" stroke-linecap="round" class="stroke-width stroke-color-4" d="m155.11,85.03h14.46"/>
  <path stroke-linejoin="round" stroke-linecap="round" class="stroke-width stroke-color-4" d="m16.75,43.52h14.46"/>
  <path stroke-linejoin="round" stroke-linecap="round" class="stroke-width stroke-color-4" d="m16.75,48.13h14.46"/>
  <path stroke-linejoin="round" stroke-linecap="round" class="stroke-width stroke-color-4" d="m16.75,52.74h14.46"/>
  <path stroke-linejoin="round" stroke-linecap="round" class="stroke-width stroke-color-4" d="m16.75,57.35h14.46"/>
  <path stroke-linejoin="round" stroke-linecap="round" class="stroke-width stroke-color-4" d="m16.75,61.96h14.46"/>
  <path stroke-linejoin="round" stroke-linecap="round" class="stroke-width stroke-color-4" d="m16.75,66.57h14.46"/>
  <path stroke-linejoin="round" stroke-linecap="round" class="stroke-width stroke-color-4" d="m16.75,71.18h14.46"/>
  <path stroke-linejoin="round" stroke-linecap="round" class="stroke-width stroke-color-4" d="m16.75,75.79h14.46"/>
  <path stroke-linejoin="round" stroke-linecap="round" class="stroke-width stroke-color-4" d="m16.75,80.41h14.46"/>
  <path stroke-linejoin="round" stroke-linecap="round" class="stroke-width stroke-color-4" d="m16.75,85.02h14.46" fill="none"/>
  <path class="color-2" d="m59.13,122.27v-12.08l-12.16,12.08h12.16Z" fill="url(#color-2)"/>
  <path class="color-1" d="m58.72,46.81v12.08l12.7-12.08h-12.7Z" fill="url(#color-1)"/>
  <path class="color-1" d="m23.98,21.05c4.18,0,7.58-3.39,7.58-7.58s-3.39-7.58-7.58-7.58-7.58,3.39-7.58,7.58,3.39,7.58,7.58,7.58Z" fill="url(#color-1)"/>
  <path class="color-1" d="m162.34,21.05c4.18,0,7.58-3.39,7.58-7.58s-3.39-7.58-7.58-7.58-7.58,3.39-7.58,7.58,3.39,7.58,7.58,7.58Z" fill="url(#color-1)"/>
  <path class="color-1" d="m162.34,131.3c4.18,0,7.58-3.39,7.58-7.58s-3.39-7.58-7.58-7.58-7.58,3.39-7.58,7.58,3.39,7.58,7.58,7.58Z" fill="url(#color-1)"/>
  <path class="color-1" d="m22.26,262.2c4.18,0,7.58-3.39,7.58-7.58s-3.39-7.58-7.58-7.58-7.58,3.39-7.58,7.58,3.39,7.58,7.58,7.58Z" fill="url(#color-1)"/>
  <path stroke-linejoin="round" stroke-linecap="round" class="stroke-width stroke-color-1" d="m23.98,40.86V13.47h138.36v27" fill="none"/>
  <path stroke-linejoin="round" stroke-linecap="round" class="stroke-width stroke-color-1" d="m58.72,28l-17.3,17.21h34.59l-17.3-17.21Z" fill="none"/>
  <path stroke-linejoin="round" stroke-linecap="round" class="stroke-width stroke-color-1" d="m76.02,45.21l-17.27,15.85-17.29-15.88,34.56.03Z" fill="none"/>
  <path stroke-linejoin="round" stroke-linecap="round" class="stroke-width stroke-color-1" d="m35.94,63.58c5.25,0,4.92-4.92,4.92-4.92v-26.64s-.21-5.08-5.08-5.08" fill="none"/>
  <path stroke-linejoin="round" stroke-linecap="round" class="stroke-width stroke-color-1" d="m36.15,102.89c5.25,0,4.92-4.92,4.92-4.92v-26.64s-.21-5.08-5.08-5.08" fill="none"/>
  <path stroke-linejoin="round" stroke-linecap="round" class="stroke-width stroke-color-1" d="m81.85,63.58c-5.25,0-4.92-4.92-4.92-4.92v-26.64s.21-5.08,5.08-5.08" fill="none"/>
  <path stroke-linejoin="round" stroke-linecap="round" class="stroke-width stroke-color-1" d="m58.72,107.24l-17.3,17.08h34.59l-17.3-17.08Z" fill="none"/>
  <path stroke-linejoin="round" stroke-linecap="round" class="stroke-width stroke-color-1" d="m76.02,124.31l-17.27,15.72-17.29-15.75,34.56.03Z" fill="none"/>
  <path stroke-linejoin="round" stroke-linecap="round" class="stroke-width stroke-color-1" d="m35.94,142.69c5.25,0,4.92-4.92,4.92-4.92v-26.64s-.21-5.08-5.08-5.08" fill="none"/>
  <path stroke-linejoin="round" stroke-linecap="round" class="stroke-width stroke-color-1" d="m81.85,142.69c-5.25,0-4.92-4.92-4.92-4.92v-26.64s.21-5.08,5.08-5.08" fill="none"/>
  <path stroke-linejoin="round" stroke-linecap="round" class="stroke-width stroke-color-1" d="m81.85,102.89c-5.25,0-4.92-4.92-4.92-4.92v-26.64s.21-5.08,5.08-5.08" fill="none"/>
  <path stroke-linejoin="round" stroke-linecap="round" class="stroke-width stroke-color-1" d="m76.93,74.9h-35.85v19.35h35.85v-19.35Z" fill="none"/>
  <path stroke-linejoin="round" stroke-linecap="round" class="stroke-width stroke-color-1" d="m98.95,63.58c5.25,0,4.92-4.92,4.92-4.92v-26.64s-.21-5.08-5.08-5.08" fill="none"/>
  <path stroke-linejoin="round" stroke-linecap="round" class="stroke-width stroke-color-1" d="m151.76,63.58c-5.25,0-4.92-4.92-4.92-4.92v-26.64s.21-5.08,5.08-5.08" fill="none"/>
  <path stroke-linejoin="round" stroke-linecap="round" class="stroke-width stroke-color-1" d="m24.86,123.72v-35.33" fill="none"/>
  <path stroke-linejoin="round" stroke-linecap="round" class="stroke-width stroke-color-1" d="m162.34,123.72v-35.33" fill="none"/>
  <path class="color-2" d="m24.86,131.3c4.18,0,7.58-3.39,7.58-7.58s-3.39-7.58-7.58-7.58-7.58,3.39-7.58,7.58,3.39,7.58,7.58,7.58Z" fill="url(#color-2)"/>
  <path class="color-2" d="m71.95,80.49h-25.63v8.16h25.63v-8.16Z" fill="url(#color-2)"/>
  <path class="color-1" d="m23.37,210.99c4.18,0,7.58-3.39,7.58-7.58s-3.39-7.58-7.58-7.58-7.58,3.39-7.58,7.58,3.39,7.58,7.58,7.58Z" fill="url(#color-1)"/>
  <path class="color-2" d="m22.96,236.59c4.18,0,7.58-3.39,7.58-7.58s-3.39-7.58-7.58-7.58-7.58,3.39-7.58,7.58,3.39,7.58,7.58,7.58Z" fill="url(#color-2)"/>
  <path class="color-1" d="m157.76,211.43c4.18,0,7.58-3.39,7.58-7.58s-3.39-7.58-7.58-7.58-7.58,3.39-7.58,7.58,3.39,7.58,7.58,7.58Z" fill="url(#color-1)"/>
  <path class="color-1" d="m157.76,236.95c4.18,0,7.58-3.39,7.58-7.58s-3.39-7.58-7.58-7.58-7.58,3.39-7.58,7.58,3.39,7.58,7.58,7.58Z" fill="url(#color-1)"/>
  <path class="color-2" d="m159.16,262.65c4.18,0,7.58-3.39,7.58-7.58s-3.39-7.58-7.58-7.58-7.58,3.39-7.58,7.58,3.39,7.58,7.58,7.58Z" fill="url(#color-2)"/>
  <path stroke-linejoin="round" stroke-linecap="round" class="stroke-width stroke-color-1" d="m165.37,301.36c-9.97-35.05-7.33-119.98-7.33-119.98-34.27-6.37-67.6-38.18-67.6-38.18,0,0-33.08,31.81-67.36,38.18,0,0,2.15,73.78-7.33,119.98" fill="none"/>
  <path class="color-1" d="m90.56,150.78c4.18,0,7.58-3.39,7.58-7.58s-3.39-7.58-7.58-7.58-7.58,3.39-7.58,7.58,3.39,7.58,7.58,7.58Z" fill="url(#color-1)"/>
  <path stroke-linejoin="round" stroke-linecap="round" class="stroke-width stroke-color-1" d="m143.28,35.59h-35.85v19.35h35.85v-19.35Z" fill="none"/>
  <path stroke-linejoin="round" stroke-linecap="round" class="stroke-width stroke-color-1" d="m119.12,54.94v5.99h-7.61v10.62h7.61v5.81h-7.61v10.62h7.61v5.81h-7.61v10.64h7.61v5.81h-7.61s-.09,23.68-11.53,32.46" fill="none"/>
  <path stroke-linejoin="round" stroke-linecap="round" class="stroke-width stroke-color-1" d="m131.58,54.94v5.99h7.61v10.62h-7.61v5.81h7.61v10.62h-7.61v5.81h7.61v10.64h-7.61v5.81h7.61s.09,23.68,11.53,32.46" fill="none"/>
  <path stroke-linejoin="round" stroke-linecap="round" class="stroke-width stroke-color-4" d="m92.05,231.43h11.02" fill="none"/>
  <path stroke-linejoin="round" stroke-linecap="round" class="stroke-width stroke-color-4" d="m92.05,234.93h11.02" fill="none"/>
  <path stroke-linejoin="round" stroke-linecap="round" class="stroke-width stroke-color-4" d="m92.05,238.44h11.02" fill="none"/>
  <path stroke-linejoin="round" stroke-linecap="round" class="stroke-width stroke-color-4" d="m92.05,241.95h11.02" fill="none"/>
  <path stroke-linejoin="round" stroke-linecap="round" class="stroke-width stroke-color-4" d="m85.94,230.66l-12.3,20.31" fill="none"/>
  <path stroke-linejoin="round" stroke-linecap="round" class="stroke-width stroke-color-4" d="m89.18,230.66l-12.3,20.31" fill="none"/>
  <path stroke-linejoin="round" stroke-linecap="round" class="stroke-width stroke-color-4" d="m82.68,230.66l-12.3,20.31" fill="none"/>
  <path stroke-linejoin="round" stroke-linecap="round" class="stroke-width stroke-color-4" d="m64.26,265.77l-12.3,20.31" fill="none"/>
  <path stroke-linejoin="round" stroke-linecap="round" class="stroke-width stroke-color-4" d="m67.5,265.77l-12.3,20.31" fill="none"/>
  <path stroke-linejoin="round" stroke-linecap="round" class="stroke-width stroke-color-4" d="m61.01,265.77l-12.3,20.31" fill="none"/>
  <path stroke-linejoin="round" stroke-linecap="round" class="stroke-width stroke-color-4" d="m74.71,265.77l12.3,20.31" fill="none"/>
  <path stroke-linejoin="round" stroke-linecap="round" class="stroke-width stroke-color-4" d="m71.46,265.77l12.3,20.31" fill="none"/>
  <path stroke-linejoin="round" stroke-linecap="round" class="stroke-width stroke-color-4" d="m77.95,265.77l12.3,20.31" fill="none"/>
  <path stroke-linejoin="round" stroke-linecap="round" class="stroke-width stroke-color-1" d="m53.76,260.19h31.69" fill="none"/>
  <path stroke-linejoin="round" stroke-linecap="round" class="stroke-width stroke-color-1" d="m57.74,255.42h23.72" fill="none"/>
  <path stroke-linejoin="round" stroke-linecap="round" class="stroke-width stroke-color-1" d="m91.19,165.89l-18.25,19.01h36.51l-18.25-19.01Z" fill="none"/>
  <path stroke-linejoin="round" stroke-linecap="round" class="stroke-width stroke-color-1" d="m109.44,184.9l-18.22,17.5-18.25-17.53,36.47.03Z" fill="none"/>
  <path stroke-linejoin="round" stroke-linecap="round" class="stroke-width stroke-color-1" d="m67.94,200.87c4.61,0,4.32-4.32,4.32-4.32v-23.39s-.19-4.46-4.46-4.46" fill="none"/>
  <path stroke-linejoin="round" stroke-linecap="round" class="stroke-width stroke-color-1" d="m68.94,235.39c4.61,0,4.32-4.32,4.32-4.32v-23.39s-.19-4.46-4.46-4.46" fill="none"/>
  <path stroke-linejoin="round" stroke-linecap="round" class="stroke-width stroke-color-1" d="m113.94,200.87c-4.61,0-4.32-4.32-4.32-4.32v-23.39s.19-4.46,4.46-4.46" fill="none"/>
  <path stroke-linejoin="round" stroke-linecap="round" class="stroke-width stroke-color-1" d="m113.94,235.39c-4.61,0-4.32-4.32-4.32-4.32v-23.39s.19-4.46,4.46-4.46" fill="none"/>
  <path stroke-linejoin="round" stroke-linecap="round" class="stroke-width stroke-color-1" d="m109.62,210.81h-36.36v16.99h36.36v-16.99Z" fill="none"/>
  <path stroke-linejoin="round" stroke-linecap="round" class="stroke-width stroke-color-4" d="m105.9,257.09l12.26,12.26" fill="none"/>
  <path stroke-linejoin="round" stroke-linecap="round" class="stroke-width stroke-color-4" d="m118.16,257.09l-12.26,12.26" fill="none"/>
  <path stroke-linejoin="round" stroke-linecap="round" class="stroke-width stroke-color-1" d="m130.21,254.73h-36.35v16.99h36.35v-16.99Z" fill="none"/>
  <path stroke-linejoin="round" stroke-linecap="round" class="stroke-width stroke-color-1" d="m112.03,275.89v-3.87" fill="none"/>
  <path stroke-linejoin="round" stroke-linecap="round" class="stroke-width stroke-color-1" d="m112.03,295.87v-7.56" fill="none"/>
  <path stroke-linejoin="round" stroke-linecap="round" class="stroke-width stroke-color-1" d="m69.6,288.82v-28.63" fill="none"/>
  <path stroke-linejoin="round" stroke-linecap="round" class="stroke-width stroke-color-1" d="m97.56,244.59v5.88h11.85" fill="none"/>
  <path class="color-1" d="m102.65,216.17h-22.9v6.26h22.9v-6.26Z" fill="url(#color-1)"/>
  <path class="color-2" d="m95.27,212.96h-8.16v12.69h8.16v-12.69Z" fill="url(#color-2)"/>
  <path class="color-1" d="m128.9,277.85c-1.07,0-2.04.39-2.78,1.04-.74-.65-1.72-1.04-2.78-1.04s-2.04.39-2.78,1.04c-.74-.65-1.72-1.04-2.78-1.04s-2.04.39-2.78,1.04c-.74-.65-1.72-1.04-2.78-1.04s-2.04.39-2.78,1.04c-.74-.65-1.72-1.04-2.78-1.04s-2.04.39-2.78,1.04c-.74-.65-1.72-1.04-2.78-1.04s-2.04.39-2.78,1.04c-.74-.65-1.72-1.04-2.78-1.04-2.35,0-4.25,1.9-4.25,4.25s1.9,4.25,4.25,4.25c1.07,0,2.04-.39,2.78-1.04.74.65,1.72,1.04,2.78,1.04s2.04-.39,2.78-1.04c.74.65,1.72,1.04,2.78,1.04s2.04-.39,2.78-1.04c.74.65,1.72,1.04,2.78,1.04s2.04-.39,2.78-1.04c.74.65,1.72,1.04,2.78,1.04s2.04-.39,2.78-1.04c.74.65,1.72,1.04,2.78,1.04s2.04-.39,2.78-1.04c.74.65,1.72,1.04,2.78,1.04,2.35,0,4.25-1.9,4.25-4.25s-1.9-4.25-4.25-4.25Z" fill="url(#color-1)"/>
  <path class="color-2" d="m98.29,284.86c1.52,0,2.76-1.23,2.76-2.76s-1.23-2.76-2.76-2.76-2.76,1.23-2.76,2.76,1.23,2.76,2.76,2.76Z" fill="url(#color-2)"/>
  <path class="color-2" d="m103.8,284.86c1.52,0,2.76-1.23,2.76-2.76s-1.23-2.76-2.76-2.76-2.76,1.23-2.76,2.76,1.23,2.76,2.76,2.76Z" fill="url(#color-2)"/>
  <path class="color-2" d="m109.31,284.86c1.52,0,2.76-1.23,2.76-2.76s-1.23-2.76-2.76-2.76-2.76,1.23-2.76,2.76,1.23,2.76,2.76,2.76Z" fill="url(#color-2)"/>
  <path class="color-4" d="m114.82,284.86c1.52,0,2.76-1.23,2.76-2.76s-1.23-2.76-2.76-2.76-2.76,1.23-2.76,2.76,1.23,2.76,2.76,2.76Z" fill="url(#color-4)"/>
  <path class="color-2" d="m120.33,284.86c1.52,0,2.76-1.23,2.76-2.76s-1.23-2.76-2.76-2.76-2.76,1.23-2.76,2.76,1.23,2.76,2.76,2.76Z" fill="url(#color-2)"/>
  <path class="color-2" d="m125.84,284.86c1.52,0,2.76-1.23,2.76-2.76s-1.23-2.76-2.76-2.76-2.76,1.23-2.76,2.76,1.23,2.76,2.76,2.76Z" fill="url(#color-2)"/>
  <path stroke-linejoin="round" stroke-linecap="round" class="stroke-width stroke-color-4" d="m95.15,282.1h33.8" fill="none"/>
  <path class="color-4" d="m128.95,283.48c.76,0,1.38-.62,1.38-1.38s-.62-1.38-1.38-1.38-1.38.62-1.38,1.38.62,1.38,1.38,1.38Z" fill="url(#color-4)"/>
  <path class="color-4" d="m95.15,283.48c.76,0,1.38-.62,1.38-1.38s-.62-1.38-1.38-1.38-1.38.62-1.38,1.38.62,1.38,1.38,1.38Z" fill="url(#color-4)"/>
  <path stroke-linejoin="round" stroke-linecap="round" class="stroke-width stroke-color-1" d="m59.31,176.15v5.97h-7.58v10.58h7.58v5.78h-7.58v10.59h7.58v5.8h-7.58v10.58h7.58v5.79" fill="none"/>
  <path stroke-linejoin="round" stroke-linecap="round" class="stroke-width stroke-color-1" d="m122.68,176.15v5.97h7.58v10.58h-7.58v5.78h7.58v10.59h-7.58v5.8h7.58v10.58h-7.58v5.79" fill="none"/>
</svg>