<?xml version="1.0" encoding="UTF-8"?>
<svg xmlns="http://www.w3.org/2000/svg" viewBox="0 0 185 308">
  <defs>
    <style>
      .stroke-width {
        stroke-width: .5px;
      }

      .stroke-color-1 {
        stroke: #fa4013;
      }

      .stroke-color-2 {
        stroke: #9cd323;
      }

      .stroke-color-3 {
        stroke:#404272;
      }

      .stroke-color-4 {
        stroke: #ffffff;
      }      
    </style>
    <linearGradient id="color-1" gradientTransform="rotate(90)">
      <stop offset="0%" stop-color="#fa4013" />
      <stop offset="100%" stop-color="#fa4013" />
      <stop offset="100%" stop-color="white" />
    </linearGradient>
    <linearGradient id="color-2" gradientTransform="rotate(90)">
      <stop offset="0%" stop-color="#9cd323" />
      <stop offset="100%" stop-color="#9cd323"/>
      <stop offset="100%" stop-color="white" />
    </linearGradient>
    <linearGradient id="color-3" gradientTransform="rotate(90)">
      <stop offset="0%" stop-color="#404272" />
      <stop offset="100%" stop-color="#404272" />
      <stop offset="100%" stop-color="white" />
    </linearGradient>   
    <linearGradient id="color-4" gradientTransform="rotate(90)">
      <stop offset="0%" stop-color="#ffffff" />
      <stop offset="100%" stop-color="#ffffff" />
      <stop offset="100%" stop-color="white" />
    </linearGradient>  
  </defs>
    <path class="color-2" d="m22.37,108.9c2.21,0,4-1.79,4-4s-1.79-4-4-4-4,1.79-4,4,1.79,4,4,4Z" fill="url(#color-2)"/>
    <path class="color-1" d="m167.89,104.54c2.21,0,4-1.79,4-4s-1.79-4-4-4-4,1.79-4,4,1.79,4,4,4Z" fill="url(#color-1)"/>
    <path class="color-1" d="m14.37,96.48c2.21,0,4-1.79,4-4s-1.79-4-4-4-4,1.79-4,4,1.79,4,4,4Z" fill="url(#color-1)"/>
    <path class="color-3" d="m115.21,149.55c1.66,0,3-1.34,3-3s-1.34-3-3-3-3,1.34-3,3,1.34,3,3,3Z" fill="url(#color-3)"/>
    <path class="color-2" d="m156.26,277.57c3.15,0,6,1.26,8.09,3.29v-143.85c0-4.61-3.74-8.35-8.35-8.35s-8.35,3.74-8.35,8.35v143.94c0,.15.01.29.02.44,2.13-2.34,5.18-3.81,8.59-3.81Z" fill="url(#color-2)"/>
    <path class="color-2" d="m35.99,280.72c.01-.17.03-.36.03-.53v-143.18c0-4.61-3.74-8.35-8.35-8.35s-8.35,3.74-8.35,8.35v143.28c2.1-2.06,4.96-3.33,8.14-3.33,3.39,0,6.42,1.45,8.54,3.76h0Z" fill="url(#color-2)"/>
    <path class="color-1" d="m164.36,280.87v.09c0,4.61-3.74,8.35-8.35,8.35s-8.1-3.51-8.33-7.92c-1.87,2.06-3.03,4.8-3.03,7.81,0,6.42,5.2,11.62,11.62,11.62s11.62-5.2,11.62-11.62c0-3.27-1.36-6.22-3.53-8.33Z" fill="url(#color-1)"/>
    <path class="color-3" d="m156,289.31c4.61,0,8.35-3.74,8.35-8.35v-.09c-2.09-2.03-4.95-3.29-8.09-3.29-3.41,0-6.47,1.47-8.59,3.81.23,4.41,3.86,7.92,8.33,7.92Z" fill="url(#color-3)"/>
    <path class="color-1" d="m27.67,288.54c-4.58,0-8.3-3.69-8.35-8.25-2.15,2.11-3.49,5.05-3.49,8.3,0,6.42,5.2,11.62,11.62,11.62s11.62-5.2,11.62-11.62c0-3.04-1.18-5.79-3.08-7.86-.28,4.37-3.89,7.82-8.33,7.82h0Z" fill="url(#color-1)"/>
    <path class="color-3" d="m27.67,288.54c4.43,0,8.05-3.46,8.33-7.82-2.12-2.31-5.16-3.76-8.54-3.76-3.17,0-6.04,1.27-8.14,3.33.05,4.57,3.77,8.25,8.35,8.25h0Z" fill="url(#color-3)"/>
    <path class="color-2" d="m90.05,19.19c.31-.43.64-.82,1-1.17-2.82-2.76-7.29-3.21-10.64-.86l-44.78,31.46c-.54.39-1.02.83-1.45,1.3,6.34.1,11.44,5.25,11.44,11.59,0,.17-.02.35-.03.52l44.43-31.22c.37-.26.71-.56,1.03-.86-2.88-2.81-3.39-7.37-1-10.77Z" fill="url(#color-2)"/>
    <path class="color-2" d="m147.93,49.95c-.43-.49-.91-.93-1.46-1.32l-44.78-31.46c-3.34-2.35-7.82-1.9-10.64.86.36.36.7.74,1,1.17,2.39,3.4,1.88,7.96-1,10.77.32.31.65.6,1.03.86l44.77,31.46c-.01-.25-.04-.51-.04-.76,0-6.24,4.93-11.31,11.12-11.58h0Z" fill="url(#color-2)"/>
    <path class="color-1" d="m92.05,19.19c-.31-.43-.64-.82-1-1.17-.36.36-.7.74-1,1.17-2.39,3.4-1.88,7.96,1,10.77,2.88-2.81,3.39-7.37,1-10.77Z" fill="url(#color-1)"/>
    <path class="color-1" d="m148.43,49.92c-.17,0-.33.01-.5.02,2.5,2.83,2.83,7.1.57,10.32-2.65,3.78-7.86,4.69-11.64,2.03h-.01c.4,6.04,5.43,10.82,11.59,10.82s11.62-5.19,11.62-11.6-5.2-11.6-11.62-11.6h0Z" fill="url(#color-1)"/>
    <path class="color-3" d="m148.5,60.26c2.27-3.23,1.93-7.49-.57-10.32-6.18.26-11.12,5.34-11.12,11.58,0,.26.02.51.04.76h.01c3.78,2.67,8.99,1.75,11.64-2.02h0Z" fill="url(#color-3)"/>
    <path class="color-1" d="m33.6,60.26c-2.27-3.23-1.93-7.5.59-10.34-.07,0-.12,0-.19,0-6.42,0-11.62,5.19-11.62,11.6s5.2,11.6,11.62,11.6,11.32-4.92,11.59-11.08l-.36.25c-3.78,2.65-8.99,1.74-11.64-2.03h0Z" fill="url(#color-1)"/>
    <path class="color-3" d="m34.18,49.92c-2.51,2.83-2.86,7.11-.59,10.34,2.65,3.78,7.86,4.69,11.64,2.03l.36-.25c0-.17.03-.35.03-.52,0-6.34-5.11-11.49-11.44-11.59h0Z" fill="url(#color-3)"/>
    <path class="color-1" d="m105.45,237.28v48.07c0,4.61,3.74,8.35,8.35,8.35s8.35-3.74,8.35-8.35v-48.07c0-4.61-3.74-8.35-8.35-8.35s-8.35,3.74-8.35,8.35Z" fill="url(#color-1)"/>
    <path class="color-1" d="m125,246.71v24.3c0,4.61,3.74,8.35,8.35,8.35s8.35-3.74,8.35-8.35v-24.3c0-4.61-3.74-8.35-8.35-8.35s-8.35,3.74-8.35,8.35Z" fill="url(#color-1)"/>
    <path class="color-1" d="m85.91,246.57v24.3c0,4.61,3.74,8.35,8.35,8.35s8.35-3.74,8.35-8.35v-24.3c0-4.61-3.74-8.35-8.35-8.35s-8.35,3.74-8.35,8.35Z" fill="url(#color-1)"/>
    <path class="color-1" d="m59.47,257.52v27.92c0,4.61,3.74,8.35,8.35,8.35s8.35-3.74,8.35-8.35v-27.92c0-4.61-3.74-8.35-8.35-8.35s-8.35,3.74-8.35,8.35Z" fill="url(#color-1)"/>
    <path fill="#ffffff" class="cls-2" d="m144.38,128.31c0-2.92,1.09-5.59,2.87-7.63H36.03c-.09,0-.18,0-.27.01,2.18,2.11,3.54,5.06,3.54,8.34s-1.36,6.23-3.54,8.34c.09,0,.18.01.27.01h111.63c.35,0,.68-.03,1.02-.07-2.62-2.13-4.29-5.38-4.29-9.02h0Z"/>
    <path class="color-1" d="m156,116.68c-3.49,0-6.63,1.55-8.75,4h.4c4.61,0,8.35,3.74,8.35,8.35,0,4.27-3.2,7.78-7.34,8.29,2,1.63,4.56,2.61,7.34,2.61,6.42,0,11.62-5.2,11.62-11.62s-5.2-11.62-11.62-11.62Z" fill="url(#color-1)"/>
    <path class="color-3" d="m156,129.03c0-4.61-3.74-8.35-8.35-8.35h-.4c-1.78,2.04-2.87,4.71-2.87,7.63,0,3.64,1.67,6.88,4.29,9.02,4.13-.5,7.34-4.02,7.34-8.29Z" fill="url(#color-3)"/>
    <path class="color-1" d="m27.67,129.03c0-4.53,3.6-8.19,8.09-8.34-2.09-2.03-4.94-3.28-8.09-3.28-6.42,0-11.62,5.2-11.62,11.62s5.2,11.62,11.62,11.62c3.15,0,5.99-1.26,8.09-3.28-4.49-.15-8.09-3.81-8.09-8.34Z" fill="url(#color-1)"/>
    <path class="color-3" d="m39.29,129.03c0-3.28-1.36-6.23-3.54-8.34-4.49.15-8.09,3.82-8.09,8.34s3.6,8.19,8.09,8.34c2.18-2.11,3.54-5.06,3.54-8.34Z" fill="url(#color-3)"/>
    <path class="color-1" d="m90.39,233.48c5.82,0,10.53-4.72,10.53-10.53s-4.72-10.53-10.53-10.53-10.53,4.72-10.53,10.53,4.72,10.53,10.53,10.53Z" fill="url(#color-1)"/>
    <path class="color-2" d="m90.26,268.13l-14.99-10.53c-.07-.05-.15-.09-.23-.15-2.79,4.09-6.29,8.6-10.43,12.68.35.36.73.68,1.15.98l14.99,10.53c3.73,2.62,8.89,1.72,11.52-2.01,2.62-3.73,1.72-8.89-2.01-11.52h0Z" fill="url(#color-2)"/>
    <path class="color-1" d="m63.75,259.61c2.57-3.66,7.58-4.59,11.29-2.15,4.29-6.28,6.87-11.57,7.42-12.72,1.28-2.7,1.09-5.87-.51-8.4-1.6-2.53-4.38-4.06-7.37-4.06h-21.02c-4.82,0-8.72,3.9-8.72,8.72s3.9,8.72,8.72,8.72h5.57c-4.01,5.51-9.14,11.14-14.64,14.04-4.26,2.24-5.89,7.51-3.65,11.78,1.56,2.96,4.59,4.66,7.72,4.66,1.37,0,2.76-.33,4.05-1,4.43-2.33,8.46-5.53,12.01-9.04-2.74-2.79-3.19-7.22-.86-10.53Z" fill="url(#color-1)"/>
    <path class="color-1" d="m63.75,259.61c-2.33,3.31-1.87,7.74.86,10.53,4.13-4.08,7.64-8.59,10.43-12.68-3.71-2.43-8.72-1.51-11.29,2.15Z" fill="url(#color-1)"/>
    <path class="color-2" d="m120.89,61.52h-59.29c-4.61,0-8.35,3.74-8.35,8.35s3.74,8.35,8.35,8.35h50.95v-8.35c0-4.61,3.74-8.35,8.35-8.35h0Z" fill="url(#color-2)"/>
    <path class="color-1" d="m112.53,105.42v-8.88h-50.95c-4.61,0-8.35,3.74-8.35,8.35s3.74,8.35,8.35,8.35h56.42c-3.2-1.18-5.48-4.24-5.48-7.83h0Z" fill="url(#color-1)"/>
    <path class="color-1" d="m112.53,96.55h8.35c4.61,0,8.35,3.74,8.35,8.35s-3.74,8.35-8.35,8.35h-2.87c.9.33,1.87.52,2.88.52,4.61,0,8.35-3.74,8.35-8.35v-12.95h-16.71v4.08h0Z" fill="url(#color-1)"/>
    <path class="color-1" d="m129.24,69.87c0-4.61-3.74-8.35-8.35-8.35,4.61,0,8.35,3.74,8.35,8.35s-3.74,8.35-8.35,8.35h-8.35v4.08h16.71v-12.43Z" fill="url(#color-1)"/>
    <path class="color-3" d="m129.23,69.87c0-4.61-3.74-8.35-8.35-8.35s-8.35,3.74-8.35,8.35v8.35h8.35c4.61,0,8.35-3.74,8.35-8.35h0Z" fill="url(#color-3)"/>
    <path class="color-3" d="m129.23,104.9c0-4.61-3.74-8.35-8.35-8.35h-8.35v8.88c0,3.6,2.28,6.66,5.48,7.83h2.87c4.61,0,8.35-3.74,8.35-8.35Z" fill="url(#color-3)"/>
    <path class="color-1" d="m146.69,82.31h-17.44v10.17h17.44c2.81,0,5.09-2.27,5.09-5.09s-2.27-5.09-5.09-5.09Z" fill="url(#color-1)"/>
    <path class="color-1" d="m36.76,82.31c-2.81,0-5.09,2.27-5.09,5.09s2.27,5.09,5.09,5.09h75.77v-10.17H36.76Z" fill="url(#color-1)"/>
    <path class="color-3" d="m129.24,82.31h-16.71v10.17h16.71v-10.17Z" fill="url(#color-3)"/>
    <path class="color-3" d="m136.62,238.35h-45.62c-2.81,0-5.09,2.28-5.09,5.09s2.28,5.09,5.09,5.09h45.62c2.81,0,5.09-2.28,5.09-5.09s-2.28-5.09-5.09-5.09Z" fill="url(#color-3)"/>
    <path class="color-2" d="m136.62,253.37h-45.62c-2.81,0-5.09,2.28-5.09,5.09s2.28,5.09,5.09,5.09h45.62c2.81,0,5.09-2.28,5.09-5.09s-2.28-5.09-5.09-5.09Z" fill="url(#color-2)"/>
    <path class="color-3" d="m136.62,269.2h-45.62c-2.81,0-5.09,2.28-5.09,5.09s2.28,5.09,5.09,5.09h45.62c2.81,0,5.09-2.28,5.09-5.09s-2.28-5.09-5.09-5.09Z" fill="url(#color-3)"/>
    <path class="color-1" d="m91.05,177.92c3.41-3.71,6.47-7.21,8.98-10.17h-10.57l-8.17,10.17h9.76Z" fill="url(#color-1)"/>
    <path class="color-1" d="m67.1,167.75h-19.75c-2.81,0-5.09,2.27-5.09,5.09s2.27,5.09,5.09,5.09h11.73c.23-.4.47-.78.77-1.15l7.24-9.02Z" fill="url(#color-1)"/>
    <path class="color-1" d="m133.2,167.75h-11.14c-.29.7-.66,1.37-1.15,2-.34.44-2.78,3.58-6.63,8.17h18.92c2.81,0,5.09-2.27,5.09-5.09s-2.27-5.09-5.09-5.09h0Z" fill="url(#color-1)"/>
    <path class="color-2" d="m86.26,183.01l-6.29-3.44,1.32-1.65h-22.21c-1.03,1.81-1.4,3.94-.99,6.02.51,2.53,2.11,4.71,4.37,5.94l10.54,5.76c4.58-3.94,9.08-8.32,13.24-12.63h0Z" fill="url(#color-1)"/>
    <path class="color-1" d="m100.51,153.98c3.01-3.76,2.42-9.24-1.34-12.26-3.76-3.01-9.24-2.42-12.26,1.34l-19.83,24.69h22.36l11.06-13.77Z" fill="url(#color-1)"/>
    <path class="color-2" d="m89.2,204.48l30.43,16.62c1.33.73,2.76,1.07,4.17,1.07,3.09,0,6.07-1.64,7.66-4.54,2.31-4.23.76-9.52-3.47-11.83l-25.9-14.15c-3.95,4.21-8.31,8.61-12.88,12.83h0Z" fill="url(#color-2)"/>
    <path class="color-3" d="m89.46,167.75h-22.36l-7.24,9.02c-.29.36-.54.76-.77,1.15h22.21l8.17-10.17h0Z" fill="url(#color-3)"/>
    <path class="color-1" d="m119.33,157.52c-3.81-2.94-9.28-2.23-12.23,1.58-.09.12-2.77,3.57-7.07,8.65h22.03c1.47-3.55.46-7.77-2.73-10.23Z" fill="url(#color-1)"/>
    <path class="color-1" d="m55.92,207.55c-4.34,2.1-6.15,7.31-4.05,11.65,1.5,3.11,4.61,4.93,7.85,4.93,1.27,0,2.56-.28,3.79-.87,8.42-4.08,17.4-11.11,25.7-18.77l-16.19-8.84c-5.78,4.98-11.66,9.28-17.09,11.91h0Z" fill="url(#color-1)"/>
    <path class="color-1" d="m86.26,183.01l15.83,8.65c4.8-5.11,8.99-9.92,12.19-13.73h-23.23c-1.53,1.66-3.14,3.37-4.79,5.09Z" fill="url(#color-1)"/>
    <path class="color-3" d="m122.06,167.75h-22.03c-2.51,2.96-5.57,6.46-8.98,10.17h23.23c3.86-4.59,6.29-7.73,6.63-8.17.48-.62.86-1.3,1.15-2Z" fill="url(#color-3)"/>
    <path class="color-3" d="m73.01,195.63l16.19,8.84c4.57-4.22,8.94-8.62,12.88-12.83l-15.83-8.65c-4.16,4.31-8.67,8.68-13.24,12.63Z" fill="url(#color-3)"/>
    <path class="color-1" d="m92.14,30.43c6.42,0,11.62-5.2,11.62-11.62s-5.2-11.62-11.62-11.62-11.62,5.2-11.62,11.62,5.2,11.62,11.62,11.62Z" fill="url(#color-1)"/>
    <path fill="#ffffff" class="cls-2" d="m49.75,145.88h19.01c1.74,0,3.31,1.27,3.46,3.01.17,1.95-1.37,3.6-3.29,3.6h-.28s-1.05.13-1.05,1.01c0,.25.09.43.21.57h11.49c1.74,0,3.31,1.27,3.47,3.01.17,1.95-1.37,3.6-3.29,3.6h-19.01c-1.74,0-3.31-1.27-3.46-3.01-.17-1.95,1.37-3.6,3.29-3.6h2.81c.09-.13.16-.31.16-.54,0-1.01-1.13-1.03-1.13-1.03h-12.21c-1.74,0-3.31-1.27-3.46-3.01-.17-1.95,1.37-3.6,3.29-3.6h-.02Z"/>
    <path fill="#ffffff" class="cls-2" d="m161.18,104.02h-6.36c-1.79,0-3.25,1.45-3.25,3.25v.11c0,1.79,1.45,3.25,3.25,3.25h6.36c1.79,0,3.25-1.45,3.25-3.25v-.11c0-1.79-1.45-3.25-3.25-3.25Z"/>
    <path fill="#ffffff" class="cls-2" d="m155.43,95.62h-19.01c-1.74,0-3.31,1.27-3.46,3.01-.17,1.95,1.37,3.6,3.29,3.6h.28s1.05.13,1.05,1.01c0,.25-.09.43-.21.57h-11.49c-1.74,0-3.31,1.27-3.47,3.01-.17,1.95,1.37,3.6,3.29,3.6h19.01c1.74,0,3.31-1.27,3.46-3.01.17-1.95-1.37-3.6-3.29-3.6h-2.81c-.09-.13-.16-.31-.16-.54,0-1.01,1.13-1.03,1.13-1.03h12.21c1.74,0,3.31-1.27,3.46-3.01.17-1.95-1.37-3.6-3.29-3.6h.02Z"/>
    <path fill="#ffffff" class="cls-2" d="m48.97,50.88h6.36c1.79,0,3.25-1.45,3.25-3.25v-.11c0-1.79-1.45-3.25-3.25-3.25h-6.36c-1.79,0-3.25,1.45-3.25,3.25v.11c0,1.79,1.45,3.25,3.25,3.25Z"/>
    <path fill="#ffffff" class="cls-2" d="m54.72,35.87h19.01c1.74,0,3.31,1.27,3.46,3.01.17,1.95-1.37,3.6-3.29,3.6h-.28s-1.05.13-1.05,1.01c0,.25.09.43.21.57h11.49c1.74,0,3.31,1.27,3.47,3.01.17,1.95-1.37,3.6-3.29,3.6h-19.01c-1.74,0-3.31-1.27-3.46-3.01-.17-1.95,1.37-3.6,3.29-3.6h2.81c.09-.13.16-.31.16-.54,0-1.01-1.13-1.03-1.13-1.03h-12.21c-1.74,0-3.31-1.27-3.46-3.01-.17-1.95,1.37-3.6,3.29-3.6h-.02Z"/>
    <path fill="#ffffff" class="cls-2" d="m123.16,212.97h-5.08c-2.1,0-3.8,1.7-3.8,3.8v.15c0,2.1,1.7,3.8,3.8,3.8h5.08c2.1,0,3.8-1.7,3.8-3.8v-.15c0-2.1-1.7-3.8-3.8-3.8Z"/>
    <path fill="#ffffff" class="cls-2" d="m153.52,212.97h-20.39c-2.1,0-3.8,1.7-3.8,3.8v.15c0,2.1,1.7,3.8,3.8,3.8h20.39c2.1,0,3.8-1.7,3.8-3.8v-.15c0-2.1-1.7-3.8-3.8-3.8Z"/>
</svg>