<?xml version="1.0" encoding="UTF-8"?>
<svg xmlns="http://www.w3.org/2000/svg" viewBox="0 0 185 308">
  <defs>
    <style>
      .stroke-color-1 {
        stroke: #ffcf08;
      }

      .stroke-color-2 {
        stroke: #ff6836;
      }

      .stroke-color-3 {
        stroke: #404272;
      }

      .stroke-color-4 {
        stroke: #2aaeb3;
      }
    </style>
    <linearGradient id="color-1" gradientTransform="rotate(90)">
      <stop offset="0%" stop-color="#ffcf08" />
      <stop offset="100%" stop-color="#ffcf08" />
      <stop offset="100%" stop-color="white" />
    </linearGradient>
    <linearGradient id="color-2" gradientTransform="rotate(90)">
      <stop offset="0%" stop-color="#ff6836" />
      <stop offset="100%" stop-color="#ff6836" />
      <stop offset="100%" stop-color="white" />
    </linearGradient>
    <linearGradient id="color-3" gradientTransform="rotate(90)">
      <stop offset="0%" stop-color="#404272" />
      <stop offset="100%" stop-color="#404272" />
      <stop offset="100%" stop-color="white" />
    </linearGradient>
    <linearGradient id="color-4" gradientTransform="rotate(90)">
      <stop offset="0%" stop-color="#2aaeb3" />
      <stop offset="100%" stop-color="#2aaeb3" />
      <stop offset="100%" stop-color="white" />
    </linearGradient>
  </defs>
    <path class="color-1" d="m46.95,220.43c2.21,0,4-1.79,4-4s-1.79-4-4-4-4,1.79-4,4,1.79,4,4,4Z" fill="url(#color-1)"/>
    <path class="color-3" d="m75.57,296.31c2.21,0,4-1.79,4-4s-1.79-4-4-4-4,1.79-4,4,1.79,4,4,4Z" fill="url(#color-3)"/>
    <path class="color-3" d="m16.83,50.98c2.21,0,4-1.79,4-4s-1.79-4-4-4-4,1.79-4,4,1.79,4,4,4Z" fill="url(#color-3)"/>
    <path class="color-4" d="m156.62,90.44c2.21,0,4-1.79,4-4s-1.79-4-4-4-4,1.79-4,4,1.79,4,4,4Z" fill="url(#color-4)"/>
    <path class="color-2" d="m165.8,96.92c1.66,0,3-1.34,3-3s-1.34-3-3-3-3,1.34-3,3,1.34,3,3,3Z" fill="url(#color-2)"/>
    <path class="color-2" d="m62.64,300.47c1.66,0,3-1.34,3-3s-1.34-3-3-3-3,1.34-3,3,1.34,3,3,3Z" fill="url(#color-4)"/>
    <path class="color-1" d="m155.26,22.13v.23c0-.07.01-.15.01-.23,0-3.82-2.51-7.05-5.98-8.12,3.46,1.08,5.97,4.3,5.97,8.12Z" fill="url(#color-1)"/>
    <path class="color-1" d="m45.69,22.13v8.51h92.56v-8.51c0-4.67,3.77-8.46,8.43-8.51H37.25c4.67.04,8.43,3.83,8.43,8.51h0Z" fill="url(#color-1)"/>
    <path class="color-1" d="m32.43,15.08c-2.26,1.53-3.76,4.12-3.76,7.06v.12-.12c0-2.94,1.49-5.52,3.75-7.06h0Z" fill="url(#color-1)"/>
    <path class="color-1" d="m155.26,66.76c0,4.7-3.81,8.51-8.51,8.51s-8.51-3.81-8.51-8.51v-8.48H45.69v8.48c0,4.7-3.81,8.51-8.51,8.51s-8.51-3.81-8.51-8.51v-.09.12c0,4.7,3.81,8.51,8.51,8.51h109.59c4.7,0,8.51-3.81,8.51-8.51,0-.07,0-.16-.01-.23v.21h0Z" fill="url(#color-1)"/>
    <path class="color-2" d="m146.77,30.64h-8.52v27.63h8.52c4.62,0,8.37,3.68,8.49,8.28V22.36c-.13,4.59-3.88,8.28-8.49,8.28h0Z" fill="url(#color-2)"/>
    <path class="color-1" d="m149.29,14.01c-.8-.25-1.65-.38-2.54-.38h-.07.08c.88,0,1.72.13,2.52.38h0Z" fill="url(#color-1)"/>
    <path class="color-4" d="m138.25,22.13v8.51h8.52c4.62,0,8.37-3.68,8.49-8.28v-.23c0-3.82-2.51-7.04-5.97-8.12-.8-.24-1.64-.38-2.52-.38h-.08c-4.67.04-8.43,3.83-8.43,8.51h0Z" fill="url(#color-4)"/>
    <path class="color-4" d="m146.77,58.27h-8.52v8.48c0,4.7,3.81,8.51,8.51,8.51s8.51-3.81,8.51-8.51v-.21c-.13-4.59-3.88-8.28-8.49-8.28Z" fill="url(#color-4)"/>
    <path class="color-1" d="m37.26,13.63h-.07c-1.76,0-3.4.53-4.76,1.45,1.35-.92,2.99-1.45,4.75-1.45h.08Z" fill="url(#color-1)"/>
    <path class="color-2" d="m37.18,58.27h8.51v-27.63h-8.51c-4.66,0-8.44-3.75-8.5-8.39v44.41c.06-4.64,3.84-8.39,8.5-8.39h0Z" fill="url(#color-2)"/>
    <path class="color-4" d="m37.18,30.64h8.51v-8.51c0-4.67-3.77-8.46-8.43-8.51h-.07c-1.76,0-3.39.53-4.75,1.45-2.26,1.53-3.75,4.12-3.75,7.06v.12c.06,4.64,3.84,8.39,8.5,8.39h0Z" fill="url(#color-4)"/>
    <path class="color-4" d="m37.18,75.26c4.7,0,8.51-3.81,8.51-8.51v-8.48h-8.51c-4.66,0-8.44,3.75-8.5,8.39v.09c0,4.7,3.81,8.51,8.51,8.51h0Z" fill="url(#color-4)"/>
    <path class="color-1" d="m58.68,227.06c4.7,0,8.51,3.81,8.51,8.51v8.48h49.51v-8.48c0-4.7,3.81-8.51,8.51-8.51s8.51,3.81,8.51,8.51v.3c0-.11.01-.22.01-.33,0-4.7-3.81-8.51-8.51-8.51H58.67c-4.7,0-8.51,3.81-8.51,8.51,0,.05,0,.11,0,.16v-.13c0-4.7,3.81-8.51,8.51-8.51Z" fill="url(#color-1)"/>
    <path class="color-2" d="m133.7,270.61c0,4.7-3.81,8.51-8.51,8.51s-8.51-3.81-8.51-8.51v-8.48h-49.51v8.48c0,4.7-3.81,8.51-8.51,8.51s-8.51-3.81-8.51-8.51v-.14c0,.05,0,.11,0,.16,0,4.7,3.81,8.51,8.51,8.51h66.54c4.7,0,8.51-3.81,8.51-8.51,0-.11-.01-.22-.01-.33v.31Z" fill="url(#color-2)"/>
    <path class="color-1" d="m125.22,244.04h-8.52v18.08h8.52c4.59,0,8.31,3.63,8.49,8.17v-34.44c-.18,4.54-3.91,8.17-8.49,8.17h0Z" fill="url(#color-1)"/>
    <path class="color-4" d="m125.2,227.06c-4.7,0-8.51,3.81-8.51,8.51v8.48h8.52c4.59,0,8.31-3.63,8.49-8.17v-.3c0-4.7-3.81-8.51-8.51-8.51Z" fill="url(#color-4)"/>
    <path class="color-4" d="m125.22,262.12h-8.52v8.48c0,4.7,3.81,8.51,8.51,8.51s8.51-3.81,8.51-8.51v-.31c-.18-4.54-3.91-8.17-8.49-8.17Z" fill="url(#color-4)"/>
    <path class="color-1" d="m58.67,262.12h8.51v-18.08h-8.51c-4.64,0-8.41-3.72-8.5-8.34v34.77c.09-4.62,3.85-8.34,8.5-8.34Z" fill="url(#color-1)"/>
    <path class="color-4" d="m58.67,244.04h8.51v-8.48c0-4.7-3.81-8.51-8.51-8.51s-8.51,3.81-8.51,8.51v.13c.09,4.62,3.85,8.34,8.5,8.34Z" fill="url(#color-4)"/>
    <path class="color-4" d="m58.68,279.11c4.7,0,8.51-3.81,8.51-8.51v-8.48h-8.51c-4.64,0-8.41,3.72-8.5,8.34v.14c0,4.7,3.81,8.51,8.51,8.51Z" fill="url(#color-4)"/>
    <path class="color-2" d="m145.46,128.62c0-2.97,1.11-5.69,2.92-7.77H35.16c-.09,0-.18,0-.27.01,2.22,2.15,3.6,5.16,3.6,8.49s-1.38,6.34-3.6,8.49c.09,0,.18.01.27.01h113.64c.36,0,.7-.03,1.04-.07-2.66-2.17-4.36-5.47-4.36-9.18h0Z" fill="url(#color-2)"/>
    <path class="color-2" d="m157.3,128.96h-.02c0,.13.02.27.02.4,0,4.35-3.26,7.92-7.47,8.44-.36-.29-.69-.6-1.01-.92-.01.2-.03.39-.03.59v134.23c2.28-1.99,5.24-3.2,8.51-3.2s6.23,1.21,8.51,3.2v-134.23c0-4.7-3.81-8.51-8.51-8.51Z" fill="url(#color-2)"/>
    <path class="color-4" d="m157.28,128.96c-.21-4.51-3.92-8.11-8.48-8.11h-.41c-1.81,2.08-2.92,4.79-2.92,7.77,0,3.21,1.28,6.12,3.36,8.25.32.33.65.64,1.01.92,4.21-.51,7.47-4.09,7.47-8.44,0-.13-.01-.27-.02-.4h0Z" fill="url(#color-4)"/>
    <path class="color-2" d="m34.88,137.85c-4.57-.15-8.23-3.89-8.23-8.49,0-.13.01-.27.02-.4h-.02c-4.7,0-8.51,3.81-8.51,8.51v134.03c2.25-1.87,5.13-3,8.28-3,3.37,0,6.42,1.29,8.73,3.4v-134.34c-.1.1-.18.2-.27.3h0Z" fill="url(#color-2)"/>
    <path class="color-4" d="m34.88,120.87c-4.44.14-8,3.68-8.21,8.09,0,.13-.02.27-.02.4,0,4.61,3.66,8.34,8.23,8.49.1-.1.18-.2.27-.3,2.05-2.13,3.33-5.01,3.33-8.2s-1.38-6.34-3.6-8.49h0Z" fill="url(#color-4)"/>
    <path class="color-1" d="m165.8,271.69v.87c0,4.7-3.81,8.51-8.51,8.51s-8.51-3.81-8.51-8.51v-.87c-2.71,2.37-4.44,5.85-4.44,9.74,0,7.14,5.79,12.94,12.94,12.94s12.94-5.79,12.94-12.94c0-3.89-1.72-7.37-4.44-9.74Z" fill="url(#color-1)"/>
    <path class="color-4" d="m157.3,281.07c4.7,0,8.51-3.81,8.51-8.51v-.87c-2.28-1.99-5.24-3.2-8.51-3.2s-6.23,1.21-8.51,3.2v.87c0,4.7,3.81,8.51,8.51,8.51Z" fill="url(#color-4)"/>
    <path class="color-1" d="m35.16,271.89v.67c0,4.7-3.81,8.51-8.51,8.51s-8.51-3.81-8.51-8.51v-1.07c-2.85,2.37-4.66,5.95-4.66,9.94,0,7.14,5.79,12.94,12.94,12.94s12.94-5.79,12.94-12.94c0-3.78-1.63-7.17-4.22-9.54Z" fill="url(#color-1)"/>
    <path class="color-4" d="m26.65,281.07c4.7,0,8.51-3.81,8.51-8.51v-.67c-2.3-2.11-5.36-3.4-8.73-3.4-3.15,0-6.04,1.13-8.28,3v1.07c0,4.7,3.81,8.51,8.51,8.51Z" fill="url(#color-4)"/>
    <path class="color-1" d="m96.94,28.09c0-2.66-2.15-4.81-4.81-4.81s-4.81,2.15-4.81,4.81v11.56h9.61v-11.56Z" fill="url(#color-1)"/>
    <path class="color-1" d="m87.33,62.49c0,2.66,2.15,4.81,4.81,4.81s4.81-2.15,4.81-4.81v-13.22h-9.61v13.22Z" fill="url(#color-1)"/>
    <path class="color-2" d="m68.62,39.65c-2.66,0-4.81,2.15-4.81,4.81s2.15,4.81,4.81,4.81h18.7v-9.61h-18.7Z" fill="url(#color-2)"/>
    <path class="color-2" d="m115.32,39.65h-18.38v9.61h18.38c2.66,0,4.81-2.15,4.81-4.81s-2.15-4.81-4.81-4.81Z" fill="url(#color-2)"/>
    <path class="color-4" d="m96.94,39.65h-9.61v9.61h9.61v-9.61Z" fill="url(#color-4)"/>
    <path class="color-2" d="m67.79,89.11v-5.07h-23.76c2.63.04,4.74,2.17,4.74,4.81v5.07h23.76c-2.63-.04-4.74-2.17-4.74-4.81Z" fill="url(#color-2)"/>
    <path class="color-3" d="m72.59,65.96c-2.66,0-4.81,2.15-4.81,4.81v13.28h4.67c2.71,0,4.94,2.23,4.94,4.94v-18.22c0-2.66-2.15-4.81-4.81-4.81Z" fill="url(#color-3)"/>
    <path class="color-1" d="m72.53,93.91h.07c2.66,0,4.81-2.15,4.81-4.81v-.13c0,2.69-2.19,4.9-4.87,4.94Z" fill="url(#color-1)"/>
    <path class="color-4" d="m72.46,84.04h-4.67v5.07c0,2.63,2.12,4.77,4.74,4.81,2.68-.04,4.87-2.24,4.87-4.94s-2.23-4.94-4.94-4.94Z" fill="url(#color-4)"/>
    <path class="color-1" d="m77.4,107.74c0-2.66-2.15-4.81-4.81-4.81,2.64,0,4.81,2.17,4.81,4.81Z" fill="url(#color-1)"/>
    <path class="color-1" d="m72.59,112.54h-4.81v14.72c0,2.66,2.15,4.81,4.81,4.81s4.81-2.15,4.81-4.81v-19.53c0,2.64-2.17,4.81-4.81,4.81Z" fill="url(#color-1)"/>
    <path class="color-1" d="m39.15,89.11v18.49c.07-2.58,2.2-4.67,4.8-4.67h4.81v-9.01h-4.68c-2.67,0-4.86-2.15-4.93-4.81Z" fill="url(#color-1)"/>
    <path class="color-1" d="m44.02,84.04h-.07c-2.66,0-4.81,2.15-4.81,4.81.07-2.63,2.23-4.77,4.87-4.81Z" fill="url(#color-1)"/>
    <path class="color-1" d="m42.69,112.37c-.06-.01-.12-.03-.17-.04.06.01.11.03.17.04Z" fill="url(#color-1)"/>
    <path class="color-1" d="m40.1,110.6c.6.81,1.44,1.42,2.42,1.72-.98-.31-1.82-.92-2.42-1.72Z" fill="url(#color-1)"/>
    <path class="color-4" d="m44.02,84.04c-2.64.04-4.8,2.17-4.87,4.81v.27c.07,2.66,2.26,4.81,4.93,4.81h4.68v-5.07c0-2.63-2.12-4.77-4.74-4.81Z" fill="url(#color-4)"/>
    <path class="color-1" d="m43.95,112.54c-.44,0-.86-.07-1.26-.17.4.11.82.17,1.26.17h0Z" fill="url(#color-1)"/>
    <path class="color-2" d="m43.96,112.54h23.83v-4.81c0-2.66,2.15-4.81,4.81-4.81h-23.83v4.81c0,2.66-2.15,4.81-4.81,4.81Z" fill="url(#color-2)"/>
    <path class="color-1" d="m39.15,107.6v.13c0,1.07.36,2.06.96,2.86-.59-.8-.95-1.79-.95-2.86v-.13h0Z" fill="url(#color-1)"/>
    <path class="color-4" d="m67.79,107.74v4.81h4.81c2.64,0,4.81-2.17,4.81-4.81s-2.17-4.81-4.81-4.81-4.81,2.15-4.81,4.81Z" fill="url(#color-4)"/>
    <path class="color-4" d="m39.15,107.6v.13c0,1.07.35,2.06.95,2.86.6.81,1.44,1.42,2.42,1.72.06.01.11.03.17.04.4.11.82.17,1.26.17,2.66,0,4.81-2.15,4.81-4.81v-4.81h-4.81c-2.6,0-4.73,2.09-4.8,4.67h0Z" fill="url(#color-4)"/>
    <path class="color-2" d="m141.21,84.04h-23.76v5.07c0,2.63-2.12,4.77-4.74,4.81h23.76v-5.07c0-2.63,2.12-4.77,4.74-4.81Z" fill="url(#color-2)"/>
    <path class="color-1" d="m107.83,88.98v.13c0,2.66,2.15,4.81,4.81,4.81h.07c-2.68-.04-4.87-2.24-4.87-4.94Z" fill="url(#color-1)"/>
    <path class="color-1" d="m112.77,84.04h4.67v-13.28c0-2.66-2.15-4.81-4.81-4.81s-4.81,2.15-4.81,4.81v18.22c0-2.71,2.23-4.94,4.94-4.94Z" fill="url(#color-1)"/>
    <path class="color-4" d="m117.45,89.11v-5.07h-4.67c-2.71,0-4.94,2.23-4.94,4.94s2.19,4.9,4.87,4.94c2.63-.04,4.74-2.17,4.74-4.81Z" fill="url(#color-4)"/>
    <path class="color-1" d="m112.64,102.93c-2.66,0-4.81,2.15-4.81,4.81,0-2.64,2.17-4.81,4.81-4.81Z" fill="url(#color-1)"/>
    <path class="color-3" d="m107.83,107.74v19.53c0,2.66,2.15,4.81,4.81,4.81s4.81-2.15,4.81-4.81v-14.72h-4.81c-2.64,0-4.81-2.17-4.81-4.81Z" fill="url(#color-3)"/>
    <path class="color-1" d="m142.72,112.32c.98-.3,1.82-.92,2.42-1.72-.6.81-1.44,1.42-2.42,1.72Z" fill="url(#color-1)"/>
    <path class="color-1" d="m146.08,107.6v-18.49c-.07,2.66-2.26,4.81-4.93,4.81h-4.68v9.01h4.81c2.6,0,4.73,2.09,4.8,4.67Z" fill="url(#color-1)"/>
    <path class="color-1" d="m142.71,112.32c-.06.01-.11.03-.17.04.06-.01.12-.03.17-.04Z" fill="url(#color-1)"/>
    <path class="color-1" d="m146.08,88.85c0-2.66-2.15-4.81-4.81-4.81h-.07c2.64.04,4.8,2.17,4.87,4.81Z" fill="url(#color-1)"/>
    <path class="color-4" d="m146.08,89.11v-.27c-.07-2.63-2.23-4.77-4.87-4.81-2.63.04-4.74,2.17-4.74,4.81v5.07h4.68c2.67,0,4.86-2.15,4.93-4.81Z" fill="url(#color-4)"/>
    <path class="color-1" d="m141.28,112.54c.44,0,.85-.07,1.26-.17-.4.11-.82.17-1.26.17h0Z" fill="url(#color-1)"/>
    <path class="color-2" d="m136.47,107.74v-4.81h-23.83c2.66,0,4.81,2.15,4.81,4.81v4.81h23.83c-2.66,0-4.81-2.15-4.81-4.81Z" fill="url(#color-2)"/>
    <path class="color-4" d="m112.64,102.93c-2.64,0-4.81,2.17-4.81,4.81s2.17,4.81,4.81,4.81h4.81v-4.81c0-2.66-2.15-4.81-4.81-4.81Z" fill="url(#color-4)"/>
    <path class="color-4" d="m146.08,107.6c-.07-2.58-2.2-4.67-4.8-4.67h-4.81v4.81c0,2.66,2.15,4.81,4.81,4.81.44,0,.86-.07,1.26-.17.06-.01.12-.03.17-.04.98-.31,1.82-.92,2.42-1.73.59-.8.95-1.79.95-2.86v-.13Z" fill="url(#color-4)"/>
    <path class="color-1" d="m101.61,181.58h-17.01v7.74h17.01v-7.74Z" fill="url(#color-1)"/>
    <path class="color-1" d="m101.61,154.1c0-4.7-3.81-8.51-8.51-8.51s-8.51,3.81-8.51,8.51v10.47h17.01v-10.47Z" fill="url(#color-1)"/>
    <path class="color-1" d="m84.6,215.88c0,4.7,3.81,8.51,8.51,8.51s8.51-3.81,8.51-8.51v-9.54h-17.01v9.54Z" fill="url(#color-1)"/>
    <path class="color-2" d="m55.44,164.57c-4.7,0-8.51,3.81-8.51,8.51s3.81,8.51,8.51,8.51h29.15v-17.01h-29.15Z" fill="url(#color-2)"/>
    <path class="color-2" d="m128.44,164.57h-26.83v17.01h26.83c4.7,0,8.51-3.81,8.51-8.51s-3.81-8.51-8.51-8.51Z" fill="url(#color-2)"/>
    <path class="color-4" d="m101.61,164.57h-17.01v17.01h17.01v-17.01Z" fill="url(#color-4)"/>
    <path class="color-3" d="m118.99,206.34c4.7,0,8.51-3.81,8.51-8.51s-3.81-8.51-8.51-8.51h-17.38v17.01h17.38Z" fill="url(#color-3)"/>
    <path class="color-3" d="m64.9,189.32c-4.7,0-8.51,3.81-8.51,8.51s3.81,8.51,8.51,8.51h19.7v-17.01h-19.7Z" fill="url(#color-3)"/>
    <path class="color-4" d="m101.61,189.32h-17.01v17.01h17.01v-17.01Z" fill="url(#color-4)"/>
    <path class="color-1" d="m157.3,116.78c-3.56,0-6.75,1.58-8.91,4.07h.41c4.7,0,8.51,3.81,8.51,8.51,0,4.35-3.26,7.92-7.47,8.44,2.03,1.66,4.64,2.66,7.47,2.66,6.54,0,11.83-5.3,11.83-11.83s-5.3-11.83-11.83-11.83Z" fill="url(#color-1)"/>
    <path class="color-1" d="m26.65,129.36c0-4.61,3.66-8.34,8.23-8.49-2.13-2.06-5.03-3.34-8.23-3.34-6.54,0-11.83,5.3-11.83,11.83s5.3,11.83,11.83,11.83c3.2,0,6.1-1.28,8.23-3.34-4.57-.15-8.23-3.89-8.23-8.49Z" fill="url(#color-1)"/>
    <path fill="#ffffff" class="color-5" d="m133.62,32.32h-4.99c-1.83,0-3.31,1.48-3.31,3.31v.47c0,1.83,1.48,3.31,3.31,3.31h4.99c1.83,0,3.31-1.48,3.31-3.31v-.47c0-1.83-1.48-3.31-3.31-3.31Z"/>
    <path fill="#ffffff" class="color-5" d="m161.4,32.32h-18.99c-1.83,0-3.31,1.48-3.31,3.31v.47c0,1.83,1.48,3.31,3.31,3.31h18.99c1.83,0,3.31-1.48,3.31-3.31v-.47c0-1.83-1.48-3.31-3.31-3.31Z"/>
    <path fill="#ffffff" class="color-5" d="m64.11,86h20.39c1.87,0,3.55,1.36,3.71,3.22.18,2.1-1.46,3.86-3.53,3.86h-.3s-1.12.14-1.12,1.08c0,.27.1.46.22.61h12.31c1.87,0,3.55,1.36,3.71,3.22.18,2.1-1.46,3.86-3.53,3.86h-20.39c-1.87,0-3.55-1.36-3.71-3.22-.18-2.1,1.46-3.86,3.53-3.86h3.01c.1-.14.17-.33.17-.58,0-1.08-1.21-1.11-1.21-1.11h-13.09c-1.87,0-3.55-1.36-3.71-3.22-.18-2.1,1.46-3.86,3.53-3.86h0Z"/>
    <path fill="#ffffff" class="color-5" d="m158.5,238.66h-7.17c-1.83,0-3.31,1.48-3.31,3.31v.47c0,1.83,1.48,3.31,3.31,3.31h7.17c1.83,0,3.31-1.48,3.31-3.31v-.47c0-1.83-1.48-3.31-3.31-3.31Z"/>
    <path fill="#ffffff" class="color-5" d="m152.16,229.66h-20.39c-1.87,0-3.55,1.36-3.71,3.22-.18,2.1,1.46,3.86,3.53,3.86h.3s1.12.14,1.12,1.08c0,.27-.1.46-.22.61h-12.31c-1.87,0-3.55,1.36-3.71,3.22-.18,2.1,1.46,3.86,3.53,3.86h20.39c1.87,0,3.55-1.36,3.71-3.22.18-2.1-1.46-3.86-3.53-3.86h-3.01c-.1-.14-.17-.33-.17-.58,0-1.08,1.21-1.11,1.21-1.11h13.09c1.87,0,3.55-1.36,3.71-3.22.18-2.1-1.46-3.86-3.53-3.86h0Z"/>
</svg>