<?xml version="1.0" encoding="UTF-8"?>
<svg xmlns="http://www.w3.org/2000/svg" viewBox="0 0 185 308">
  <defs>
    <style>
      .stroke-width {
        stroke-width: 1px;
      }

      .stroke-color-1 {
        stroke: #ffcf08;
      }

      .stroke-color-2 {
        stroke: #ff6836;
      }

      .stroke-color-3 {
        stroke: #404272;
      }

      .stroke-color-4 {
        stroke: #2aaeb3;
      }
    </style>
    <linearGradient id="color-1" gradientTransform="rotate(90)">
      <stop offset="0%" stop-color="#ffcf08" />
      <stop offset="100%" stop-color="#ffcf08" />
      <stop offset="100%" stop-color="white" />
    </linearGradient>
    <linearGradient id="color-2" gradientTransform="rotate(90)">
      <stop offset="0%" stop-color="#ff6836" />
      <stop offset="100%" stop-color="#ff6836" />
      <stop offset="100%" stop-color="white" />
    </linearGradient>
    <linearGradient id="color-3" gradientTransform="rotate(90)">
      <stop offset="0%" stop-color="#404272" />
      <stop offset="100%" stop-color="#404272" />
      <stop offset="100%" stop-color="white" />
    </linearGradient>
    <linearGradient id="color-4" gradientTransform="rotate(90)">
      <stop offset="0%" stop-color="#2aaeb3" />
      <stop offset="100%" stop-color="#2aaeb3" />
      <stop offset="100%" stop-color="white" />
    </linearGradient>
  </defs>
    <path class="color-3" d="m135.46,113.03c2.21,0,4-1.79,4-4s-1.79-4-4-4-4,1.79-4,4,1.79,4,4,4Z" fill="url(#color-3)"/>
    <path class="color-3" d="m156.06,274.3c3.33,0,6.34,1.38,8.49,3.59,0-.13.01-.24.01-.36v-108.73c0-4.7-3.81-8.51-8.51-8.51s-8.51,3.81-8.51,8.51v108.73c0,.13.01.24.01.36,2.15-2.22,5.16-3.59,8.49-3.59Z" fill="url(#color-3)"/>
    <path class="color-2" d="m36.14,274.3c3.33,0,6.34,1.38,8.49,3.59,0-.13.01-.24.01-.36v-108.73c0-4.7-3.81-8.51-8.51-8.51s-8.51,3.81-8.51,8.51v108.73c0,.13.01.24.01.36,2.15-2.22,5.16-3.59,8.49-3.59Z" fill="url(#color-2)"/>
    <path class="color-1" d="m36.14,286.04c-4.57,0-8.29-3.62-8.49-8.14-2.07,2.13-3.34,5.03-3.34,8.24,0,6.54,5.3,11.83,11.83,11.83s11.83-5.3,11.83-11.83c0-3.2-1.28-6.11-3.34-8.24-.19,4.53-3.91,8.14-8.49,8.14Z" fill="url(#color-1)"/>
    <path class="color-4" d="m36.14,286.04c4.57,0,8.29-3.62,8.49-8.14-2.15-2.22-5.16-3.59-8.49-3.59s-6.34,1.38-8.49,3.59c.19,4.53,3.91,8.14,8.49,8.14Z" fill="url(#color-4)"/>
    <path class="color-1" d="m164.55,277.89c-.19,4.53-3.91,8.14-8.49,8.14s-8.29-3.62-8.49-8.14c-2.07,2.13-3.34,5.03-3.34,8.24,0,6.54,5.3,11.83,11.83,11.83s11.83-5.3,11.83-11.83c0-3.2-1.28-6.11-3.34-8.24Z" fill="url(#color-1)"/>
    <path class="color-4" d="m156.06,286.04c4.57,0,8.29-3.62,8.49-8.14-2.15-2.22-5.16-3.59-8.49-3.59s-6.34,1.38-8.49,3.59c.19,4.53,3.91,8.14,8.49,8.14Z" fill="url(#color-4)"/>
    <path class="color-1" d="m36.71,160.6c-2.69-3.85-1.76-9.15,2.09-11.85l.27-.18c-.93-.24-1.91-.38-2.91-.38-6.54,0-11.83,5.3-11.83,11.83s5.3,11.83,11.83,11.83c5.4,0,9.94-3.62,11.36-8.56-3.71,1.88-8.34.81-10.8-2.71h0Z" fill="url(#color-1)"/>
    <path class="color-4" d="m39.06,148.56l-.27.18c-3.85,2.69-4.79,8-2.09,11.85,2.46,3.51,7.09,4.59,10.8,2.71.3-1.04.47-2.14.47-3.28,0-5.52-3.79-10.15-8.92-11.46h0Z" fill="url(#color-4)"/>
    <path class="color-1" d="m156.06,148.46c-.21,0-.42.02-.63.03,2.97,2.85,3.51,7.52,1.08,11.01-2.69,3.85-8,4.79-11.85,2.09l-.38-.27c.52,6.06,5.59,10.81,11.78,10.81,6.54,0,11.83-5.3,11.83-11.83s-5.3-11.83-11.83-11.83Z" fill="url(#color-1)"/>
    <path class="color-4" d="m156.51,159.5c2.44-3.48,1.89-8.15-1.08-11.01-6.24.33-11.21,5.48-11.21,11.8,0,.35.02.68.05,1.02l.38.27c3.85,2.69,9.15,1.76,11.85-2.09Z" fill="url(#color-4)"/>
    <path class="color-1" d="m159.18,81.46h-52.13c-4.7,0-8.51,3.81-8.51,8.51s3.81,8.51,8.51,8.51h52.13c4.7,0,8.51-3.81,8.51-8.51s-3.81-8.51-8.51-8.51Z" fill="url(#color-1)"/>
    <path class="color-2" d="m51.36,58.89l-23.34,19.59c-3.6,3.02-4.07,8.38-1.05,11.98,3.02,3.6,8.38,4.07,11.98,1.05l23.34-19.59c3.6-3.02,4.07-8.38,1.05-11.98-3.02-3.6-8.38-4.07-11.98-1.05Z" fill="url(#color-2)"/>
    <path class="color-1" d="m44.46,27.05h38.68c4.7,0,8.51-3.81,8.51-8.51s-3.81-8.51-8.51-8.51h-38.68c-4.7,0-8.51,3.81-8.51,8.51s3.81,8.51,8.51,8.51Z" fill="url(#color-1)"/>
    <path class="color-1" d="m63.8,39.97c4.7,0,8.51,3.81,8.51,8.51v3h17.43c4.7,0,8.51-3.81,8.51-8.51s-3.81-8.51-8.51-8.51h-51.88c-4.7,0-8.51,3.81-8.51,8.51s3.81,8.51,8.51,8.51h17.43v-3c0-4.7,3.81-8.51,8.51-8.51h0Z" fill="url(#color-1)"/>
    <path class="color-3" d="m58.32,66.2c3.02-3.6,8.39-4.07,11.98-1.05l2,1.68v-15.35h-17.01v55.83c0,4.7,3.81,8.51,8.51,8.51s8.51-3.81,8.51-8.51v-18.26l-12.94-10.86c-3.6-3.02-4.07-8.39-1.05-11.98Z" fill="url(#color-3)"/>
    <path class="color-4" d="m72.31,48.48c0-4.7-3.81-8.51-8.51-8.51s-8.51,3.81-8.51,8.51v3h17.01v-3Z" fill="url(#color-4)"/>
    <path class="color-2" d="m93.65,84.74l-21.34-17.91v22.2l10.41,8.73c3.6,3.02,8.96,2.55,11.98-1.05,3.02-3.6,2.55-8.96-1.05-11.98Z" fill="url(#color-2)"/>
    <path class="color-4" d="m70.3,65.15c-3.6-3.02-8.96-2.55-11.98,1.05-3.02,3.6-2.55,8.96,1.05,11.98l12.94,10.86v-22.2l-2-1.68h0Z" fill="url(#color-4)"/>
    <path class="color-2" d="m158.63,132.7c6.54,0,11.83-5.3,11.83-11.83s-5.3-11.83-11.83-11.83-11.83,5.3-11.83,11.83,5.3,11.83,11.83,11.83Z" fill="url(#color-2)"/>
    <path class="color-1" d="m149.76,55.61h-8.51v13.03h8.51c4.7,0,8.51,3.81,8.51,8.51v-30.04c0,4.7-3.81,8.51-8.51,8.51Z" fill="url(#color-1)"/>
    <path class="color-1" d="m149.76,27.05h-8.51v11.55h8.51c4.7,0,8.51,3.81,8.51,8.51v-28.56c0,4.7-3.81,8.51-8.51,8.51Z" fill="url(#color-1)"/>
    <path class="color-1" d="m116.46,38.6h8.51v-11.55h-8.51c-4.7,0-8.51-3.81-8.51-8.51v28.56c0-4.7,3.81-8.51,8.51-8.51Z" fill="url(#color-1)"/>
    <path class="color-1" d="m116.46,68.64h8.51v-13.03h-8.51c-4.7,0-8.51-3.81-8.51-8.51v30.04c0-4.7,3.81-8.51,8.51-8.51Z" fill="url(#color-1)"/>
    <path class="color-2" d="m124.97,18.54v8.51h16.28v-8.51c0-4.7,3.81-8.51,8.51-8.51h-33.29c4.7,0,8.51,3.81,8.51,8.51Z" fill="url(#color-2)"/>
    <path class="color-4" d="m149.76,10.03c-4.7,0-8.51,3.81-8.51,8.51v8.51h8.51c4.7,0,8.51-3.81,8.51-8.51s-3.81-8.51-8.51-8.51Z" fill="url(#color-4)"/>
    <path class="color-4" d="m116.46,27.05h8.51v-8.51c0-4.7-3.81-8.51-8.51-8.51s-8.51,3.81-8.51,8.51,3.81,8.51,8.51,8.51Z" fill="url(#color-4)"/>
    <path class="color-2" d="m141.25,38.6h-16.28v17.01h16.28v-17.01Z" fill="url(#color-2)"/>
    <path class="color-4" d="m149.76,38.6h-8.51v17.01h8.51c4.7,0,8.51-3.81,8.51-8.51s-3.81-8.51-8.51-8.51Z" fill="url(#color-4)"/>
    <path class="color-4" d="m116.46,55.61h8.51v-17.01h-8.51c-4.7,0-8.51,3.81-8.51,8.51s3.81,8.51,8.51,8.51Z" fill="url(#color-4)"/>
    <path class="color-2" d="m141.25,77.15v-8.51h-16.28v8.51c0,4.7-3.81,8.51-8.51,8.51h33.29c-4.7,0-8.51-3.81-8.51-8.51Z" fill="url(#color-2)"/>
    <path class="color-4" d="m149.76,68.64h-8.51v8.51c0,4.7,3.81,8.51,8.51,8.51s8.51-3.81,8.51-8.51-3.81-8.51-8.51-8.51Z" fill="url(#color-4)"/>
    <path class="color-4" d="m124.97,77.15v-8.51h-8.51c-4.7,0-8.51,3.81-8.51,8.51s3.81,8.51,8.51,8.51,8.51-3.81,8.51-8.51Z" fill="url(#color-4)"/>
    <path class="color-1" d="m72.87,192.07v23.74c0-4.36,3.54-7.89,7.89-7.89h9.12v-7.97h-9.12c-4.36,0-7.89-3.53-7.89-7.89h0Z" fill="url(#color-1)"/>
    <path class="color-1" d="m80.77,156.3h3.05c-.58-.14-1.19-.22-1.82-.22h-1.24c-4.36,0-7.89,3.53-7.89,7.89v.22c0-4.36,3.54-7.89,7.89-7.89Z" fill="url(#color-1)"/>
    <path class="color-1" d="m72.87,217.04v12.8c0,4.36,3.54,7.89,7.89,7.89h1.24c4.36,0,7.89-3.53,7.89-7.89v-4.91h-9.12c-4.36,0-7.89-3.53-7.89-7.89h0Z" fill="url(#color-1)"/>
    <path class="color-1" d="m80.77,173.31c-4.36,0-7.89-3.54-7.89-7.89v25.41c0-4.36,3.54-7.89,7.89-7.89h9.12v-9.63h-9.12Z" fill="url(#color-1)"/>
    <path class="color-1" d="m89.88,163.97v9.34h25.41c4.36,0,7.89-3.54,7.89-7.89v-1.24c0-4.36-3.54-7.89-7.89-7.89h-31.47c3.48.82,6.06,3.94,6.06,7.67h0Z" fill="url(#color-1)"/>
    <path class="color-4" d="m80.77,173.31h9.12v-9.34c0-3.73-2.59-6.85-6.06-7.67h-3.05c-4.36,0-7.89,3.54-7.89,7.89v1.24c0,4.36,3.54,7.89,7.89,7.89h0Z" fill="url(#color-4)"/>
    <path class="color-3" d="m115.29,199.96c4.36,0,7.89-3.53,7.89-7.89v-1.24c0-4.36-3.54-7.89-7.89-7.89h-25.41v17.01h25.41Z" fill="url(#color-3)"/>
    <path class="color-4" d="m72.87,190.83v1.24c0,4.36,3.54,7.89,7.89,7.89h9.12v-17.01h-9.12c-4.36,0-7.89,3.54-7.89,7.89h0Z" fill="url(#color-4)"/>
    <path class="color-1" d="m115.29,224.94c4.36,0,7.89-3.53,7.89-7.89v-1.24c0-4.36-3.54-7.89-7.89-7.89h-25.41v17.01h25.41Z" fill="url(#color-1)"/>
    <path class="color-4" d="m72.87,215.81v1.24c0,4.36,3.54,7.89,7.89,7.89h9.12v-17.01h-9.12c-4.36,0-7.89,3.54-7.89,7.89h0Z" fill="url(#color-4)"/>
    <path class="color-1" d="m23.41,144.88c-4.7,0-8.63-3.7-8.86-8.45-.24-4.9,3.54-9.06,8.44-9.3,2.37-.12,6.57-.63,7.97-2.78,1.68-2.57.51-7.91-.08-9.46-1.75-4.58.55-9.71,5.14-11.45,4.59-1.75,9.71.55,11.45,5.14.56,1.49,5.33,14.82-1.66,25.49-3,4.59-9.25,10.18-21.97,10.79-.15,0-.3,0-.44,0Z" fill="url(#color-1)"/>
    <path class="color-1" d="m104.68,246.4c4.07-2.35,9.27-.95,11.62,3.11l5.16,8.93h7.28c4.36,0,7.89-3.54,7.89-7.89v-1.24c0-4.36-3.54-7.89-7.89-7.89h-62.51c-4.36,0-7.89,3.54-7.89,7.89v1.24c0,4.36,3.54,7.89,7.89,7.89h9.66c.25-1.41.23-2.29.22-2.51-.01-.22-.46-6.69,7.32-8.17,7.92-1.51,10.01,5.1,10.3,6.18h.02s.01.1.01.16c.07.65.18,2.17,0,4.33h8.05l-.25-.43c-2.35-4.07-.95-9.27,3.11-11.62h0Z" fill="url(#color-1)"/>
    <path class="color-2" d="m135.61,282.96l-14.16-24.52h-19.64l19.07,33.02c2.35,4.07,7.55,5.46,11.62,3.11,4.07-2.35,5.46-7.55,3.11-11.62Z" fill="url(#color-2)"/>
    <path class="color-4" d="m116.3,249.51c-2.35-4.07-7.55-5.47-11.62-3.11-4.07,2.35-5.47,7.55-3.11,11.62l.25.43h19.64l-5.16-8.93Z" fill="url(#color-4)"/>
    <path class="color-1" d="m59.63,279.8c-3.99,2.84-4.93,8.38-2.09,12.37,1.73,2.43,4.47,3.74,7.24,3.74,1.78,0,3.57-.53,5.13-1.64,19.48-13.84,23.29-28.53,23.87-35.83h-17.88c-.73,4.08-3.79,12.5-16.26,21.35h0Z" fill="url(#color-1)"/>
    <path class="color-4" d="m93.77,254.11c0-.05-.01-.12-.01-.16h-.02c-.28-1.09-2.37-7.69-10.3-6.18-7.78,1.49-7.34,7.94-7.32,8.17,0,.21.03,1.1-.22,2.51h17.88c.17-2.17.07-3.68,0-4.33h0Z" fill="url(#color-4)"/>
    <path fill="#ffffff" class="color-5" d="m132.19,129.09h-4.17c-1.81,0-3.27,1.46-3.27,3.27s1.46,3.27,3.27,3.27h4.17c1.81,0,3.27-1.46,3.27-3.27s-1.46-3.27-3.27-3.27Z"/>
    <path fill="#ffffff" class="color-5" d="m157.83,129.09h-17.1c-1.81,0-3.27,1.46-3.27,3.27s1.46,3.27,3.27,3.27h17.1c1.81,0,3.27-1.46,3.27-3.27s-1.46-3.27-3.27-3.27Z"/>
    <path fill="#ffffff" class="color-5" d="m72.1,288.85h4.17c1.81,0,3.27-1.46,3.27-3.27s-1.46-3.27-3.27-3.27h-4.17c-1.81,0-3.27,1.46-3.27,3.27s1.46,3.27,3.27,3.27Z"/>
    <path fill="#ffffff" class="color-5" d="m46.46,288.85h17.1c1.81,0,3.27-1.46,3.27-3.27s-1.46-3.27-3.27-3.27h-17.1c-1.81,0-3.27,1.46-3.27,3.27s1.46,3.27,3.27,3.27Z"/>
    <path fill="#ffffff" class="color-5" d="m61.22,204.77h18.99c1.8,0,3.27,1.46,3.27,3.27s-1.46,3.27-3.27,3.27h-.27s-1.04.13-1.04,1c0,.24.09.42.21.56h11.54c1.8,0,3.27,1.46,3.27,3.27s-1.46,3.27-3.27,3.27h-18.99c-1.8,0-3.27-1.46-3.27-3.27s1.46-3.27,3.27-3.27h2.78c.1-.13.16-.3.16-.54,0-1-1.12-1.02-1.12-1.02h-12.26c-1.8,0-3.27-1.46-3.27-3.27s1.46-3.27,3.27-3.27h0Z"/>
    <path fill="#ffffff" class="color-5" d="m165.81,47.77h-6.18c-1.81,0-3.27,1.46-3.27,3.27s1.46,3.27,3.27,3.27h6.18c1.81,0,3.27-1.46,3.27-3.27s-1.46-3.27-3.27-3.27Z"/>
    <path fill="#ffffff" class="color-5" d="m160.18,39.46h-18.99c-1.8,0-3.27,1.46-3.27,3.27s1.46,3.27,3.27,3.27h.27s1.04.13,1.04,1c0,.24-.09.42-.21.56h-11.54c-1.8,0-3.27,1.46-3.27,3.27s1.46,3.27,3.27,3.27h18.99c1.8,0,3.27-1.46,3.27-3.27s-1.46-3.27-3.27-3.27h-2.78c-.1-.13-.16-.3-.16-.54,0-1,1.12-1.02,1.12-1.02h12.26c1.8,0,3.27-1.46,3.27-3.27s-1.46-3.27-3.27-3.27h0Z"/>
    <path class="color-2" d="m108.15,115.24c-1.66-1.17-3.6-1.65-5.48-1.51v-.03h-11.76v.03c-1.48.11-2.96.6-4.26,1.51l-47.58,33.32c5.13,1.3,8.92,5.93,8.92,11.46,0,1.14-.17,2.23-.47,3.28.35-.18.71-.38,1.05-.61l47.85-33.5c.36-.25.69-.53.99-.83.31.29.63.57.99.83l45.89,32.13c-.03-.34-.05-.67-.05-1.02,0-6.32,4.96-11.47,11.2-11.8-.31-.3-.64-.58-1.01-.84l-46.27-32.4Z" fill="url(#color-2)"/>
    <path class="color-1" d="m97.24,131.7c6.54,0,11.83-5.3,11.83-11.83s-5.3-11.83-11.83-11.83-11.83,5.3-11.83,11.83,5.3,11.83,11.83,11.83Z" fill="url(#color-1)"/>
    <path class="color-4" d="m17.99,46.98c2.21,0,4-1.79,4-4s-1.79-4-4-4-4,1.79-4,4,1.79,4,4,4Z" fill="url(#color-4)"/>
    <path class="color-2" d="m137.46,218.08c2.21,0,4-1.79,4-4s-1.79-4-4-4-4,1.79-4,4,1.79,4,4,4Z" fill="url(#color-2)"/>
    <path class="color-1" d="m17.86,245.43c2.21,0,4-1.79,4-4s-1.79-4-4-4-4,1.79-4,4,1.79,4,4,4Z" fill="url(#color-1)"/>
    <path class="color-2" d="m127.48,119.78c1.66,0,3-1.34,3-3s-1.34-3-3-3-3,1.34-3,3,1.34,3,3,3Z" fill="url(#color-2)"/>
    <path class="color-3" d="m21.97,65.13c1.66,0,3-1.34,3-3s-1.34-3-3-3-3,1.34-3,3,1.34,3,3,3Z" fill="url(#color-4)"/>
</svg>