<?xml version="1.0" encoding="UTF-8"?>
<svg xmlns="http://www.w3.org/2000/svg" viewBox="0 0 185 308">
  <defs>
    <style>
      .stroke-width {
        stroke-width: .5px;
      }

      .stroke-color-1 {
        stroke: #fa4013;
      }

      .stroke-color-2 {
        stroke: #9cd323;
      }

      .stroke-color-3 {
        stroke:#404272;
      }

      .stroke-color-4 {
        stroke: #ffffff;
      }      
    </style>
    <linearGradient id="color-1" gradientTransform="rotate(90)">
      <stop offset="0%" stop-color="#fa4013" />
      <stop offset="100%" stop-color="#fa4013" />
      <stop offset="100%" stop-color="white" />
    </linearGradient>
    <linearGradient id="color-2" gradientTransform="rotate(90)">
      <stop offset="0%" stop-color="#9cd323" />
      <stop offset="100%" stop-color="#9cd323"/>
      <stop offset="100%" stop-color="white" />
    </linearGradient>
    <linearGradient id="color-3" gradientTransform="rotate(90)">
      <stop offset="0%" stop-color="#404272" />
      <stop offset="100%" stop-color="#404272" />
      <stop offset="100%" stop-color="white" />
    </linearGradient>   
    <linearGradient id="color-4" gradientTransform="rotate(90)">
      <stop offset="0%" stop-color="#ffffff" />
      <stop offset="100%" stop-color="#ffffff" />
      <stop offset="100%" stop-color="white" />
    </linearGradient>  
  </defs>
    <path class="color-2" d="m21.34,108.54c2.21,0,4-1.79,4-4s-1.79-4-4-4-4,1.79-4,4,1.79,4,4,4Z" fill="url(#color-2)"/>
    <path class="color-2" d="m160.56,102.46c2.21,0,4-1.79,4-4s-1.79-4-4-4-4,1.79-4,4,1.79,4,4,4Z" fill="url(#color-2)"/>
    <path class="color-1" d="m14.21,270.3c2.21,0,4-1.79,4-4s-1.79-4-4-4-4,1.79-4,4,1.79,4,4,4Z" fill="url(#color-1)"/>
    <path class="color-3" d="m36.19,101.63c2.21,0,4-1.79,4-4s-1.79-4-4-4-4,1.79-4,4,1.79,4,4,4Z" fill="url(#color-3)"/>
    <path class="color-3" d="m146.16,65.28c1.66,0,3-1.34,3-3s-1.34-3-3-3-3,1.34-3,3,1.34,3,3,3Z" fill="url(#color-3)"/>
    <path class="color-2" d="m89.2,92.42c.96-1.37,2.25-2.35,3.69-2.94-2.7-1.48-6.12-1.42-8.81.47l-47.89,33.54c4.85,1.39,8.41,5.86,8.41,11.17,0,1.3-.23,2.54-.62,3.71.27-.15.54-.31.8-.49l47.39-33.18-.91-.63c-3.78-2.64-4.7-7.85-2.05-11.64h0Z" fill="url(#color-2)"/>
    <path class="color-2" d="m148.22,123.58c-.15-.12-.28-.23-.44-.34l-46.95-32.87c-2.41-1.69-5.41-1.92-7.95-.89,1.09.6,2.06,1.44,2.82,2.52,2.64,3.78,1.73,8.99-2.05,11.64l-1.5,1.05,46.05,32.24c.41.29.84.52,1.28.73-.21-.88-.34-1.79-.34-2.74,0-5.54,3.89-10.18,9.08-11.33h0Z" fill="url(#color-2)"/>
    <path class="color-1" d="m95.71,92c-.76-1.08-1.74-1.93-2.82-2.52-1.44.59-2.73,1.57-3.69,2.94-2.64,3.78-1.73,8.99,2.05,11.64l.91.63,1.5-1.05c3.78-2.64,4.7-7.85,2.05-11.64h0Z" fill="url(#color-1)"/>
    <path class="color-1" d="m130.09,247.64c-.47,0-.94-.04-1.43-.12-19.05-3.14-30.29-10.59-36.8-17.38-6.51,6.78-17.75,14.24-36.8,17.38-4.75.78-9.23-2.43-10.02-7.19-.78-4.75,2.43-9.23,7.19-10.02,26.26-4.33,31.2-18.02,31.23-18.15,1.05-3.79,4.45-6.59,8.36-6.59h.2c3.96.09,7.3,2.65,8.21,6.49.52,1.39,5.86,14.07,31.25,18.25,4.75.78,7.97,5.27,7.19,10.02-.7,4.27-4.4,7.3-8.59,7.3h0Z" fill="url(#color-1)"/>
    <path class="color-1" d="m58.66,89.77c-4.53,0-8.35-3.5-8.69-8.09-.35-4.8,3.26-8.98,8.06-9.33,7.59-.55,12.95-2.62,15.92-6.15,3.25-3.85,2.84-8.57,2.83-8.76v.14s17.31-2.26,17.31-2.26c.16,1.21,1.33,12.16-6.49,21.75-6.1,7.49-15.63,11.75-28.3,12.68-.22.01-.43.02-.64.02h0Z" fill="url(#color-1)"/>
    <path class="color-1" d="m70.84,8.76c4.61,0,8.35,3.74,8.35,8.35v8.33h34.1v-8.33c0-4.61,3.74-8.35,8.35-8.35s8.35,3.73,8.35,8.34h0c0-4.63-3.74-8.37-8.35-8.37h-50.81c-4.61,0-8.35,3.74-8.35,8.35h0c0-4.59,3.74-8.33,8.35-8.33Z" fill="url(#color-1)"/>
    <path class="color-1" d="m121.65,25.44h-8.35v17.76h8.35c4.61,0,8.35,3.73,8.35,8.34h0V17.12h0c0,4.59-3.75,8.33-8.35,8.33Z" fill="url(#color-1)"/>
    <path class="color-3" d="m121.65,8.76c-4.61,0-8.35,3.74-8.35,8.35v8.33h8.35c4.61,0,8.35-3.73,8.35-8.34,0-4.61-3.75-8.34-8.35-8.34Z" fill="url(#color-3)"/>
    <path class="color-1" d="m70.84,43.21h8.35v-17.76h-8.35c-4.61,0-8.35-3.73-8.35-8.34h0v34.44h0c0-4.6,3.74-8.33,8.35-8.33Z" fill="url(#color-1)"/>
    <path class="color-3" d="m70.84,25.44h8.35v-s8.33c0-4.61-3.74-8.35-8.35-8.35s-8.35,3.73-8.35,8.34c0,4.61,3.74,8.34,8.35,8.34Z" fill="url(#color-3)"/>
    <path class="color-2" d="m121.65,59.89c-4.61,0-8.35-3.74-8.35-8.35v-8.33h-34.1v8.33c0,4.61-3.74,8.35-8.35,8.35s-8.35-3.73-8.35-8.35h0c0,4.63,3.74,8.37,8.35,8.37h25.34v-.53c0-4.82,3.9-8.72,8.72-8.72s8.72,3.9,8.72,8.72v.53h8.04c4.61,0,8.35-3.74,8.35-8.35h0c0,4.59-3.74,8.33-8.35,8.33Z" fill="url(#color-2)"/>
    <path class="color-3" d="m121.65,43.2h-8.35v8.33c0,4.61,3.74,8.35,8.35,8.35s8.35-3.73,8.35-8.35c0-4.61-3.74-8.34-8.35-8.34Z" fill="url(#color-3)"/>
    <path class="color-3" d="m70.84,59.89c4.61,0,8.35-3.74,8.35-8.35v-8.33h-8.35c-4.61,0-8.35,3.73-8.35,8.34,0,4.61,3.74,8.35,8.35,8.35Z" fill="url(#color-3)"/>
    <path class="color-1" d="m145.71,86.02c-1.18-4.66-5.93-7.49-10.59-6.31-7.18,1.82-12.61,1.48-16.14-1-4.18-2.94-5.18-8.54-5.35-9.77v-9.03h-17.44v9.52l.02.64c.11,1.48,1.39,14.73,12.49,22.72,5.09,3.67,11.19,5.51,18.21,5.51,3.89,0,8.06-.56,12.5-1.69,4.66-1.18,7.49-5.93,6.31-10.59h0Z" fill="url(#color-1)"/>
    <path class="color-3" d="m113.62,59.38c0-4.82-3.9-8.72-8.72-8.72s-8.72,3.9-8.72,8.72v.53h17.44v-.53Z" fill="url(#color-3)"/>
    <path class="color-1" d="m91.87,107.81c6.42,0,11.62-5.2,11.62-11.62s-5.2-11.62-11.62-11.62-11.62,5.2-11.62,11.62,5.2,11.62,11.62,11.62Z" fill="url(#color-1)"/>
    <path class="color-1" d="m111.81,285.11v-8.35h-40.73v8.35c0,4.51-3.57,8.17-8.04,8.34.1,0,.2.01.31.01h56.82c-4.61,0-8.35-3.74-8.35-8.35h0Z" fill="url(#color-1)"/>
    <path class="color-1" d="m71.08,262.63v8.35h40.73v-8.35c0-4.61,3.74-8.35,8.35-8.35h-16.83c-1.41,4.84-5.86,8.38-11.15,8.38s-9.75-3.54-11.15-8.38h-17.68c-.13,0-.25.01-.38.02,4.5.13,8.12,3.81,8.12,8.34h0Z" fill="url(#color-1)"/>
    <path class="color-1" d="m120.16,270.98h-8.35v5.78h8.35c4.61,0,8.35,3.74,8.35,8.35v-22.48c0,4.61-3.74,8.35-8.35,8.35h0Z" fill="url(#color-1)"/>
    <path class="color-3" d="m120.16,276.75h-8.35v8.35c0,4.61,3.74,8.35,8.35,8.35s8.35-3.74,8.35-8.35-3.74-8.35-8.35-8.35Z" fill="url(#color-3)"/>
    <path class="color-3" d="m120.16,254.28c-4.61,0-8.35,3.74-8.35,8.35v8.35h8.35c4.61,0,8.35-3.74,8.35-8.35s-3.74-8.35-8.35-8.35h0Z" fill="url(#color-3)"/>
    <path class="color-1" d="m54.99,285.11c0-4.61,3.74-8.35,8.35-8.35h7.74v-5.78h-7.74c-4.61,0-8.35-3.74-8.35-8.35s3.54-8.14,7.98-8.33c-.08,0-.16-.01-.24-.01-4.61,0-8.35,3.74-8.35,8.35v22.48c0,4.61,3.74,8.35,8.35,8.35.1,0,.2-.01.31-.01-4.47-.17-8.04-3.83-8.04-8.34h0Z" fill="url(#color-1)"/>
    <path class="color-3" d="m71.08,285.11v-8.35h-7.74c-4.61,0-8.35,3.74-8.35,8.35s3.57,8.17,8.04,8.34c4.47-.17,8.04-3.83,8.04-8.34h0Z" fill="url(#color-3)"/>
    <path class="color-3" d="m54.99,262.62c0,4.61,3.74,8.35,8.35,8.35h7.74v-8.35c0-4.53-3.61-8.22-8.12-8.34-4.44.2-7.98,3.85-7.98,8.33Z" fill="url(#color-3)"/>
    <path class="color-1" d="m103.8,251.02c0-6.42-5.2-11.62-11.62-11.62s-11.62,5.2-11.62,11.62c0,1.13.17,2.22.47,3.25h22.31c.3-1.03.47-2.12.47-3.25h0Z" fill="url(#color-1)"/>
    <path class="color-3" d="m92.18,262.65c5.29,0,9.75-3.54,11.15-8.38h-22.31c1.41,4.84,5.86,8.38,11.15,8.38h0Z" fill="url(#color-3)"/>
    <path class="color-1" d="m41.32,279.61c0,4.61-3.74,8.35-8.35,8.35s-8.35-3.74-8.35-8.35v-.04c-2.02,2.09-3.27,4.93-3.27,8.07,0,6.42,5.2,11.62,11.62,11.62s11.62-5.2,11.62-11.62c0-3.14-1.25-5.98-3.27-8.07v.04Z" fill="url(#color-1)"/>
    <path class="color-3" d="m32.97,287.96c4.61,0,8.35-3.74,8.35-8.35v-.04c-2.11-2.19-5.07-3.55-8.35-3.55s-6.24,1.37-8.35,3.55v.04c0,4.61,3.74,8.35,8.35,8.35Z" fill="url(#color-3)"/>
    <path class="color-1" d="m159.12,279.57v.04c0,4.61-3.74,8.35-8.35,8.35s-8.35-3.74-8.35-8.35v-.04c-2.02,2.09-3.27,4.93-3.27,8.07,0,6.42,5.2,11.62,11.62,11.62s11.62-5.2,11.62-11.62c0-3.14-1.25-5.98-3.27-8.07Z" fill="url(#color-1)"/>
    <path class="color-3" d="m150.76,287.96c4.61,0,8.35-3.74,8.35-8.35v-.04c-2.11-2.19-5.07-3.55-8.35-3.55s-6.24,1.37-8.35,3.55v.04c0,4.61,3.74,8.35,8.35,8.35Z" fill="url(#color-3)"/>
    <path class="color-2" d="m96.78,165.49c.15-5.99,1.94-11.04,4.51-15.17v-18.28c0-4.61-3.74-8.35-8.36-8.35s-8.35,3.74-8.35,8.35v9.87c2.67.16,5.14,1.53,6.66,3.76,1.63,2.37,1.98,5.39.94,8.07-.22.56-2.8,7.13-7.61,15.11v24.54c0,4.61,3.74,8.35,8.35,8.35s8.36-3.74,8.36-8.35v-12.87c-2.56-4.17-4.37-9.05-4.51-14.58v-.44Z" fill="url(#color-2)"/>
    <path class="color-1" d="m84.06,141.87h-24.24c-4.82,0-8.72,3.9-8.72,8.72s3.9,8.72,8.72,8.72h10.17c-4.15,7.04-10.33,15.42-18.07,19.8-4.19,2.37-5.67,7.69-3.3,11.88,1.61,2.83,4.56,4.43,7.6,4.43,1.45,0,2.93-.36,4.29-1.13,10.67-6.03,18.74-16.6,24.08-25.45v-26.93c-.17-.01-.35-.03-.53-.03Z" fill="url(#color-1)"/>
    <path class="color-3" d="m91.25,145.66c-1.53-2.22-3.99-3.59-6.66-3.76v26.93c4.81-7.98,7.39-14.54,7.61-15.11,1.03-2.68.68-5.7-.94-8.07h0Z" fill="url(#color-3)"/>
    <path class="color-1" d="m128.82,182.49c-3.69-1.91-14.22-9.06-14.6-16.79.37-8.66,8.99-12.42,9.36-12.58h-.02c.67-.27,8.25-4.47,5.1-11.52-3.27-7.32-11.63-4.64-11.63-4.64-4.63,1.85-11.33,6.26-15.74,13.35v30.19c6.49,10.56,17.86,16.63,19.59,17.51,1.26.64,2.61.94,3.94.94,3.17,0,6.21-1.74,7.76-4.74,2.19-4.27.5-9.52-3.76-11.73h0Z" fill="url(#color-1)"/>
    <path class="color-3" d="m96.78,165.49v.44c.14,5.53,1.94,10.4,4.51,14.58v-30.19c-2.56,4.13-4.36,9.18-4.51,15.17h0Z" fill="url(#color-3)"/>
    <path class="color-2" d="m32.97,146.27c-3.27,0-6.21-1.35-8.33-3.52-.01.2-.03.4-.03.6v136.21c2.11-2.19,5.07-3.55,8.35-3.55s6.24,1.37,8.35,3.55v-136.21c0-.2-.02-.41-.04-.6-2.11,2.17-5.05,3.52-8.32,3.52Z" fill="url(#color-2)"/>
    <path class="color-3" d="m36.19,123.48l-1,.7c-3.52,2.46-4.56,7.15-2.54,10.84.15.27.31.54.49.8,1.69,2.42,4.43,3.66,7.18,3.55,1.26-.05,2.51-.38,3.66-1.01.39-1.17.62-2.41.62-3.71,0-5.3-3.55-9.76-8.41-11.17h0Z" fill="url(#color-3)"/>
    <path class="color-1" d="m40.31,139.37c-2.75.11-5.49-1.13-7.18-3.55-.18-.26-.34-.53-.49-.8-2.01-3.68-.97-8.37,2.54-10.84l1-.7c-1.02-.29-2.1-.46-3.22-.46-6.42,0-11.62,5.2-11.62,11.62,0,3.15,1.26,6.01,3.3,8.1,2.11,2.17,5.06,3.52,8.33,3.52s6.2-1.35,8.32-3.52c1.2-1.24,2.13-2.72,2.69-4.4-1.16.63-2.41.97-3.66,1.01h0Z" fill="url(#color-1)"/>
    <path class="color-2" d="m150.76,146.54c-3.28,0-6.23-1.37-8.33-3.55,0,.12-.02.24-.02.36v136.21c2.11-2.19,5.07-3.55,8.35-3.55s6.24,1.37,8.35,3.55v-136.21c0-.12-.01-.23-.01-.35-2.11,2.18-5.06,3.53-8.34,3.53Z" fill="url(#color-2)"/>
    <path class="color-3" d="m148.22,123.58c-5.19,1.16-9.08,5.79-9.08,11.33,0,.94.12,1.86.34,2.74,1.47.68,3.07.9,4.61.7,2.16-.28,4.2-1.4,5.6-3.28.05-.07.11-.13.16-.2,2.54-3.63,1.79-8.57-1.62-11.3h0Z" fill="url(#color-3)"/>
    <path class="color-1" d="m150.76,123.29c-.87,0-1.72.1-2.54.29,3.41,2.73,4.16,7.67,1.62,11.3-.05.07-.1.14-.16.2-1.39,1.87-3.44,2.99-5.6,3.28-1.54.2-3.14-.01-4.61-.7.49,2.04,1.53,3.87,2.95,5.33,2.11,2.19,5.06,3.55,8.33,3.55s6.23-1.36,8.34-3.53c2.03-2.09,3.28-4.94,3.28-8.09,0-6.42-5.2-11.62-11.62-11.62h0Z" fill="url(#color-1)"/>
    <path fill="#ffffff" class="color-5" d="m117.33,68.06h-4.9c-1.79,0-3.25,1.45-3.25,3.25v.46c0,1.79,1.45,3.25,3.25,3.25h4.9c1.79,0,3.25-1.45,3.25-3.25v-.46c0-1.79-1.45-3.25-3.25-3.25Z"/>
    <path fill="#ffffff" class="color-5" d="m144.62,68.06h-18.66c-1.79,0-3.25,1.45-3.25,3.25v.46c0,1.79,1.45,3.25,3.25,3.25h18.66c1.79,0,3.25-1.45,3.25-3.25v-.46c0-1.79-1.45-3.25-3.25-3.25Z"/>
    <path fill="#ffffff" class="color-5" d="m30.9,104.54h20.03c1.84,0,3.49,1.34,3.65,3.17.18,2.06-1.44,3.79-3.47,3.79h-.29s-1.1.14-1.1,1.06c0,.26.09.45.22.6h12.1c1.84,0,3.49,1.34,3.65,3.17.18,2.06-1.44,3.79-3.47,3.79h-20.03c-1.84,0-3.49-1.34-3.65-3.17-.18-2.06,1.44-3.79,3.47-3.79h2.96c.1-.14.17-.32.17-.57,0-1.06-1.19-1.09-1.19-1.09h-12.86c-1.84,0-3.49-1.34-3.65-3.17-.18-2.06,1.44-3.79,3.47-3.79h0Z"/>
    <path fill="#ffffff" class="color-5" d="m148.89,248.58h-7.04c-1.79,0-3.25,1.45-3.25,3.25v.46c0,1.79,1.45,3.25,3.25,3.25h7.04c1.79,0,3.25-1.45,3.25-3.25v-.46c0-1.79-1.45-3.25-3.25-3.25Z"/>
    <path fill="#ffffff" class="color-5" d="m142.67,239.74h-20.03c-1.84,0-3.49,1.34-3.65,3.17-.18,2.06,1.44,3.79,3.47,3.79h.29s1.1.14,1.1,1.06c0,.26-.09.45-.22.6h-12.1c-1.84,0-3.49,1.34-3.65,3.17-.18,2.06,1.44,3.79,3.47,3.79h20.03c1.84,0,3.49-1.34,3.65-3.17.18-2.06-1.44-3.79-3.47-3.79h-2.96c-.1-.14-.17-.32-.17-.57,0-1.06,1.19-1.09,1.19-1.09h12.86c1.84,0,3.49-1.34,3.65-3.17.18-2.06-1.44-3.79-3.47-3.79h0Z"/>
</svg>