<?xml version="1.0" encoding="UTF-8"?>
<svg id="middle04" xmlns="http://www.w3.org/2000/svg" viewBox="0 0 185 308">
  <defs>
    <style>
      <!-- .color-4 {
        fill: #ffcf08;
      }

      .color-1 {
        fill: #ff6836;
      }

      .color-3 {
        fill: #404272;
      }

      .color-2 {
        fill: #2aaeb3;
      }

      .stroke-width stroke-linecap stroke-color-4 {
        fill: none;
        stroke: #ffcf08;
        stroke-miterlimit: 10;
        stroke-width: .5px;
      } -->
      .stroke-width {
        stroke-width: .5px;
      }

      .stroke-linecap{
        stroke-linecap: round;
      }

      .stroke-color-1 {
        stroke: #ff6836;
      }

      .stroke-color-2 {
        stroke: #2aaeb3;
      }

      .stroke-color-3 {
        stroke: #404272;
      }

      .stroke-color-4 {
        stroke: #ffcf08;
      }
    </style>
    <linearGradient id="color-1" gradientTransform="rotate(90)">
      <stop offset="0%" stop-color="#ff6836" />
      <stop offset="100%" stop-color="#ff6836" />
      <stop offset="100%" stop-color="white" />
    </linearGradient>
    <linearGradient id="color-2" gradientTransform="rotate(90)">
      <stop offset="0%" stop-color="#2aaeb3" />
      <stop offset="100%" stop-color="#2aaeb3" />
      <stop offset="100%" stop-color="white" />
    </linearGradient>
    <linearGradient id="color-3" gradientTransform="rotate(90)">
      <stop offset="0%" stop-color="#404272" />
      <stop offset="100%" stop-color="#404272" />
      <stop offset="100%" stop-color="white" />
    </linearGradient>
    <linearGradient id="color-4" gradientTransform="rotate(90)">
      <stop offset="0%" stop-color="#ffcf08" />
      <stop offset="100%" stop-color="#ffcf08" />
      <stop offset="100%" stop-color="white" />
    </linearGradient>
  </defs>
  <path class="stroke-width stroke-linecap stroke-color-4" d="m49.31,297.17s1.49-54.72-1.91-59.15c-3.11-4.06-7.2-3.79-7.2-3.79-8.11,0-7.54,8.31-7.54,8.31,0,8.5,8.27,7.74,8.27,7.74,8.73,0,8.19-7.66,8.19-7.66,0,0-.92-6.69-.28-13.39v.3s1.8-18.84-1.6-23.57c-3.11-4.33-7.2-4.04-7.2-4.04-8.11,0-7.54,8.88-7.54,8.88,0,9.09,8.27,8.27,8.27,8.27,8.73,0,8.19-8.19,8.19-8.19,0,0-.92-7.15-.28-14.31l-.03.24s1.81-18.84-1.59-23.57c-3.11-4.33-7.2-4.04-7.2-4.04-8.11,0-7.54,8.88-7.54,8.88,0,9.09,8.27,8.27,8.27,8.27,8.73,0,8.19-8.19,8.19-8.19v-34.99c0-7.2,5.88-5.88,5.88-5.88" fill="none"/>
  <path class="stroke-width stroke-linecap stroke-color-4" d="m133.93,296.86s-1.17-51.19,2.23-55.73c3.11-4.15,7.2-3.87,7.2-3.87,8.11,0,7.54,8.5,7.54,8.5,0,8.7-8.27,7.92-8.27,7.92-8.73,0-8.19-7.84-8.19-7.84,0,0,.92-6.85.28-13.7v.41s-1.8-18.84,1.6-23.57c3.11-4.33,7.2-4.04,7.2-4.04,8.11,0,7.54,8.88,7.54,8.88,0,9.09-8.27,8.27-8.27,8.27-8.73,0-8.19-8.19-8.19-8.19,0,0,.92-7.15.28-14.31l.03.24s-1.81-18.84,1.59-23.57c3.11-4.33,7.2-4.04,7.2-4.04,8.11,0,7.54,8.88,7.54,8.88,0,9.09-8.27,8.27-8.27,8.27-8.73,0-8.19-8.19-8.19-8.19v-34.99c0-7.2-5.88-5.88-5.88-5.88" fill="none"/>
  <path class="stroke-width stroke-linecap stroke-color-4" d="m139.06,101.25v4.76" fill="none"/>
  <path class="stroke-width stroke-linecap stroke-color-4" d="m95.69,195.01h18.27" fill="none"/>
  <path class="stroke-width stroke-linecap stroke-color-4" d="m96.19,183.13h29.16" fill="none"/>
  <path class="stroke-width stroke-linecap stroke-color-4" d="m96.19,206.88h29.16" fill="none"/>
  <path class="stroke-width stroke-linecap stroke-color-4" d="m96.19,218.72h16.09" fill="none"/>
  <path class="stroke-width stroke-linecap stroke-color-4" d="m96.19,172.13h26.79" fill="none"/>
  <path class="stroke-width stroke-linecap stroke-color-4" d="m60.79,178.45v-8.36c0-2.68,1.93-2.76,1.93-2.76h2.33"  fill="none"/>
  <path class="stroke-width stroke-linecap stroke-color-4" d="m82.84,194.04c-1.78-.03-2.33.06-2.85.43-.62.44-1.24,1.42-1.24,2.36v11.51s-.22,2.78,1.79,2.78,5.99,1.85,5.99,5.67-3.05,5.05-3.05,5.05" fill="none"/>
  <path class="stroke-width stroke-linecap stroke-color-4" d="m84.36,254.55v-8.75c0-3.29-2.48-3.29-2.48-3.29h-1.72"  fill="none"/>
  <path class="stroke-width stroke-linecap stroke-color-4" d="m135.29,75.54s.8,1.95,3.05,1.95,3.06-1.85,3.06-1.85" fill="none"/>
  <path class="stroke-width stroke-linecap stroke-color-4" d="m124.07,92.99s1.95-.8,1.95-3.05-1.85-3.06-1.85-3.06" fill="none"/>
  <path class="stroke-width stroke-linecap stroke-color-4" d="m152.97,86.89s-1.95.8-1.95,3.05,1.85,3.06,1.85,3.06" fill="none"/>
  <path class="stroke-width stroke-linecap stroke-color-4" d="m50.13,110.43s-1.41-.56-1.41-3.33c0,0,.03-2.69,1.49-2.69" fill="none"/>
  <path class="stroke-width stroke-linecap stroke-color-4" d="m30.58,93.6s1.41-.56,1.41-3.33c0,0-.03-2.69-1.49-2.69" fill="none"/>
  <path class="stroke-width stroke-linecap stroke-color-4" d="m94.73,94.34c.75-11.19-27.32-8.89-27.32-8.89h-11.08c-4.12,0-3.81-3.97-3.81-3.97,0-4.12,3.81-3.97,3.81-3.97h13.52" fill="none"/>
  <path class="stroke-width stroke-linecap stroke-color-4" d="m134.5,13.39c.94-.3,2.08-.47,3.04-.18,1.38.42,1.76,2.25.86,3.25-1.1,1.22-3.57.77-4.8-.03-.82-.53-1.59-1.1-2.5-1.5-1.79-.78-3.82-.96-5.76-.96,0,0-5.36-.27-4.9,3.64" fill="none"/>
  <path class="stroke-width stroke-linecap stroke-color-4" d="m63.85,31.96v23.24s-1.14,5.36-5.36,5.36" fill="none"/>
  <path class="stroke-width stroke-linecap stroke-color-4" d="m115,38.31s5.18,13.66,0,27.51" fill="none"/>
  <path class="stroke-width stroke-linecap stroke-color-1" d="m109.35,50.25s1.04,2.01,0,4.56" fill="none"/>
  <path class="stroke-width stroke-linecap stroke-color-4" d="m60.85,193.46v-9.13c0-1.96,2.48-2.37,2.48-2.37h1.72" fill="none"/>
  <path class="stroke-width stroke-linecap stroke-color-4" d="m50.75,87.45s1.04,2.01,0,4.56" fill="none"/>
  <path class="color-4" d="m73.4,275.25c2.04,0,3.69-1.65,3.69-3.69v-4.7c-.04.27-.45,1.01-3.69,1.01-2.04,0-3.69,1.65-3.69,3.69s1.65,3.69,3.69,3.69Z" fill="url(#color-4)"/>
  <path class="color-4" d="m81.73,228.35c2.04,0,3.69-1.65,3.69-3.69v-4.7c-.04.27-.45,1.01-3.69,1.01-2.04,0-3.69,1.65-3.69,3.69s1.65,3.69,3.69,3.69Z" fill="url(#color-4)"/>
  <path class="color-4" d="m74.96,242.35c-1.5,0-1.85,1.43-1.86,1.48h0c-.35,2.35-2.38,4.15-4.82,4.15-2.69,0-4.88-2.19-4.88-4.88s2.19-4.88,4.88-4.88c.89,0,1.75.24,2.51.7,0,0,.91.76,1.86.76h7.03s-.6-.22-.77-.76h0c-1.7-4.32-5.94-7.26-10.64-7.26-6.31,0-11.44,5.13-11.44,11.44s5.38,11.44,11.44,11.44,11.03-4.74,11.41-10.71c.05-.99,1.78-1.48,1.78-1.48h-6.5Z" fill="url(#color-4)"/>
  <path class="color-4" d="m99.27,182.96h14.88s-1.51.5-1.51,1.67c0,.94-.67,5.39-5.7,5.39,0,0-6,.2-6-5.46,0,0-.06-1.61-1.67-1.61h0Z" fill="url(#color-4)"/>
  <path class="color-4" d="m121.12,190.04s-4.31,0-4.16-4.8c0,0-.23-2.28-1.69-2.28h11.75s-1.39.36-1.43,1.12c-.05.76.62,5.74-4.47,5.96h0Z" fill="url(#color-4)"/>
  <path class="color-4" d="m121.12,213.77s-4.31,0-4.16-4.8c0,0-.23-2.28-1.69-2.28h11.75s-1.39.36-1.43,1.12c-.05.76.62,5.74-4.47,5.96h0Z" fill="url(#color-4)"/>
  <path class="color-4" d="m111.99,236.22s-4.31,0-4.16-4.8c0,0-.23-2.28-1.69-2.28h11.75s-1.39.36-1.43,1.12c-.05.76.62,5.74-4.47,5.96h0Z" fill="url(#color-4)"/>
  <path class="color-4" d="m60.59,176.13s2.26,5.78,6.29,5.78,15.97,0,15.97,7.49v4.82s-.96-2-2.19-3.14c0,0-4.41-5.02-11.43-4.55,0,0-8.63.67-8.63-3.48v-6.92h0Z" fill="url(#color-4)"/>
  <path class="color-4" d="m60.69,191.87s2.26,6.29,6.29,6.29,15.97,0,15.97,7.49v4.82s-.96-2-2.19-3.14c0,0-4.41-5.02-11.43-4.55,0,0-8.63.17-8.63-3.97v-6.92h0Z" fill="url(#color-4)"/>
  <path class="color-4" d="m127.04,239.93h-41.67c1.52,0,1.12,3.13,1.12,3.13,0,3.19,2.33,3.05,2.33,3.05h34.76s2.33.14,2.33-3.05c0,0-.4-3.13,1.12-3.13Z" fill="url(#color-4)"/>
  <path class="color-4" d="m86.62,210.35h-29.7c1.52,0,1.12,3.13,1.12,3.13,0,3.19,2.33,3.05,2.33,3.05h22.8s2.33.14,2.33-3.05c0,0-.4-3.13,1.12-3.13Z" fill="url(#color-4)"/>
  <path class="color-4" d="m125.73,150.01h-24.49c-11.69,0-11.23,11.75-11.23,11.75v69.22s-.25,3.03,1.46,3.03h7.63s-2.92-.08-2.92-3.03v-69.22c0-5.74,5.05-5.58,5.05-5.58h21.04s2.33.14,2.33-3.05c0,0-.4-3.13,1.12-3.13Z" fill="url(#color-4)"/>
  <path class="color-4" d="m127.64,137.06h-26.78v-4.53h7.37c1.81,0,2.02.87,2.04,1.18v-5.65c0-1.59-2.04-1.71-2.04-1.71h-7.37v-3.22s.2-1.91-1.98-1.91-4.19-.2-4.19-1.98v7.11h-6.74c1.78,0,1.98,2.02,1.98,4.19,0,1.85,1.38,1.98,1.79,1.98h2.96v4.53h-13.58c-.2-.32-.34-.69-.34-1.13h0v-8.65c0-1.92,1.77-2.14,1.77-2.14h-6.07c-2.15,0-1.88,2.14-1.88,2.14v8.65s.01.54.13,1.13h-21.4c1.78,0,1.98,2.02,1.98,4.19s1.91,1.98,1.91,1.98h70.34c5.86,0,7.16,5.36,7.16,5.36v-2.91c0-8.37-6.32-8.62-7.09-8.62Z" fill="url(#color-4)"/>
  <path class="color-4" d="m34.43,80.33v9.37s.56-3.19,4.01-3.19h8.08s4.69-.16,4.69,2.92c0-4.25-2.22-7.87-6.31-9.35-3.31-1.2-7.23-1.26-10.46.25h0Z" fill="url(#color-4)"/>
  <path class="color-4" d="m17.4,81.73c0,3.37,2.73,6.09,6.09,6.09h7.75c-.44-.07-1.66-.73-1.66-6.09,0-3.37-2.73-6.09-6.09-6.09s-6.09,2.73-6.09,6.09Z" fill="url(#color-4)"/>
  <path class="color-4" d="m17.48,99.45c0-3.37,2.73-6.09,6.09-6.09h7.75c-.44.07-1.66.73-1.66,6.09,0,3.37-2.73,6.09-6.09,6.09s-6.09-2.73-6.09-6.09Z" fill="url(#color-4)"/>
  <path class="color-4" d="m63.31,98.57c0,3.37-2.73,6.09-6.09,6.09h-7.75c.44-.07,1.66-.73,1.66-6.09,0-3.37,2.73-6.09,6.09-6.09s6.09,2.73,6.09,6.09Z" fill="url(#color-4)"/>
  <path class="color-4" d="m63.24,116.29c0-3.37-2.73-6.09-6.09-6.09h-7.75c.44.07,1.66.73,1.66,6.09,0,3.37,2.73,6.09,6.09,6.09s6.09-2.73,6.09-6.09Z" fill="url(#color-4)"/>
  <path class="color-4" d="m110.99,81.04c0,3.37,2.73,6.09,6.09,6.09h7.75c-.44-.07-1.66-.73-1.66-6.09,0-3.37-2.73-6.09-6.09-6.09s-6.09,2.73-6.09,6.09Z" fill="url(#color-4)"/>
  <path class="color-4" d="m111.08,98.77c0-3.37,2.73-6.09,6.09-6.09h7.75c-.44.07-1.66.73-1.66,6.09,0,3.37-2.73,6.09-6.09,6.09s-6.09-2.73-6.09-6.09Z" fill="url(#color-4)"/>
  <path class="color-4" d="m166.01,98.77c0-3.37-2.73-6.09-6.09-6.09h-7.75c.44.07,1.66.73,1.66,6.09,0,3.37,2.73,6.09,6.09,6.09s6.09-2.73,6.09-6.09Z" fill="url(#color-4)"/>
  <path class="color-4" d="m147.24,62.55c-3.37,0-6.09,2.73-6.09,6.09v7.75c.07-.44.73-1.66,6.09-1.66,3.37,0,6.09-2.73,6.09-6.09s-2.73-6.09-6.09-6.09Z" fill="url(#color-4)"/>
  <path class="color-4" d="m129.51,62.62c3.37,0,6.09,2.73,6.09,6.09v7.75c-.07-.44-.73-1.66-6.09-1.66-3.37,0-6.09-2.73-6.09-6.09s2.73-6.09,6.09-6.09Z" fill="url(#color-4)"/>
  <path class="color-4" d="m138.52,79.12c-5.95,0-10.79,5.07-10.79,10.79s4.46,10.4,10.09,10.77c.93.05,1.39,1.67,1.39,1.67v-6.13c0-1.44-1.39-1.76-1.39-1.76-2.22-.33-3.91-2.24-3.91-4.55,0-2.54,2.07-4.6,4.6-4.6s4.6,2.07,4.6,4.6c0,.84-.23,1.66-.66,2.37h0c-.05.07-.71.9-.71,1.76v6.64s.21-.56.72-.72h0c4.07-1.62,6.84-5.62,6.84-10.05,0-5.95-4.84-10.79-10.79-10.79Z" fill="url(#color-4)"/>
  <path class="color-4" d="m94.88,105.39v-12.1c0,1.69-2.02,1.65-4.19,1.65s-1.98,1.8-1.98,1.8v8.65c0,7.59-4.45,10.31-7.05,11.75-2.26,1.26-5.32,1.16-6.08,1.11,1.48.14,1.54,1.89,1.54,1.89.45,4.24,3.43,3.54,3.43,3.54,15.38-4.01,14.33-18.3,14.33-18.3h0Z" fill="url(#color-4)"/>
  <path class="color-4" d="m91.09,30.71v8.74s.21-2.55,2.7-2.55h16.87s3.23-.42,5.02,2.81c0,0-2.13-9.88-17.04-9.88,0,0-4.75.1-7.54.88Z" fill="url(#color-4)"/>
  <path class="color-4" d="m91.09,70.3v9.94s.25-3.73,4.17-3.73,21.22-.76,21.22-16.19c0,0-1.78,9.98-15.03,9.98h-10.36Z" fill="url(#color-4)"/>
  <path class="color-4" d="m69.8,42.37c-3.37,0-6.09,2.73-6.09,6.09v7.75c.07-.44.73-1.66,6.09-1.66,3.37,0,6.09-2.73,6.09-6.09s-2.73-6.09-6.09-6.09Z" fill="url(#color-4)"/>
  <path class="color-4" d="m126.49,17.01c0-2.11,1.71-3.81,3.81-3.81h4.85c-.27.04-1.04.46-1.04,3.81,0,2.11-1.71,3.81-3.81,3.81s-3.81-1.71-3.81-3.81h0Z" fill="url(#color-4)"/>
  <path class="color-4" d="m51.86,42.87c3.37,0,6.09-2.73,6.09-6.09v-7.75c-.07.44-.73,1.66-6.09,1.66-3.37,0-6.09,2.73-6.09,6.09s2.73,6.09,6.09,6.09Z" fill="url(#color-4)"/>
  <path class="color-4" d="m126.68,42.48c-3.37,0-6.09-2.73-6.09-6.09v-7.75c.07.44.73,1.66,6.09,1.66,3.37,0,6.09,2.73,6.09,6.09s-2.73,6.09-6.09,6.09Z" fill="url(#color-4)"/>
  <path class="color-4" d="m120.66,19.54h0v-3.6s-.15,3.53-3.16,3.6h-56.47c-3.01-.08-3.16-3.6-3.16-3.6v3.6h.01v6.16h-.01v3.61s.15-3.54,3.18-3.6h56.44c3.03.06,3.18,3.6,3.18,3.6v-3.6h0v-6.18h0Z" fill="url(#color-4)"/>
  <path class="color-2" d="m74.72,152.29c-6.06,0-11.03,4.74-11.41,10.71-.05.99-1.77,1.48-1.77,1.48h6.49c1.51,0,1.85-1.44,1.86-1.48.35-2.35,2.38-4.15,4.82-4.15,2.69,0,4.88,2.19,4.88,4.88s-2.19,4.88-4.88,4.88c-.89,0-1.75-.24-2.51-.7-.03-.02-.92-.75-1.85-.75h-7.03s.59.22.77.75c1.7,4.32,5.94,7.26,10.64,7.26,6.31,0,11.44-5.13,11.44-11.44s-5.38-11.44-11.44-11.44h0Z" fill="url(#color-2)"/>
  <path class="color-2" d="m107.8,225.64s-4.31,0-4.16-4.8c0,0-.23-2.28-1.69-2.28h11.75s-1.39.36-1.43,1.12c-.05.76.62,5.74-4.47,5.96h0Z" fill="url(#color-2)"/>
  <path class="color-2" d="m84.53,252.41s-2.26,6.29-6.29,6.29-15.97,0-15.97,7.49v4.82s.96-2,2.19-3.14c0,0,4.41-5.02,11.43-4.55,0,0,8.63.67,8.63-3.48v-7.42h0Z" fill="url(#color-2)"/>
  <path class="color-2" d="m116.1,288.31v-37.93c0-.1.14-1.9-1.98-1.9s-4.19-.2-4.19-1.98v41.82s-.25,2.78,1.46,2.78h7.63s-2.92-.07-2.92-2.78h0Z" fill="url(#color-2)"/>
  <path class="color-2" d="m166.08,81.04c0,3.37-2.73,6.09-6.09,6.09h-7.75c.44-.07,1.66-.73,1.66-6.09,0-3.37,2.73-6.09,6.09-6.09s6.09,2.73,6.09,6.09Z" fill="url(#color-2)"/>
  <path class="color-2" d="m127.24,123.89c3.37,0,6.09-2.73,6.09-6.09v-7.75c-.07.44-.73,1.66-6.09,1.66-3.37,0-6.09,2.73-6.09,6.09s2.73,6.09,6.09,6.09Z" fill="url(#color-2)"/>
  <path class="color-2" d="m85,64.51v-22.14s.05-12.54-14.12-12.54c0,0-4.41-.13-7.28,2.13v8.66s.95-4.75,6.92-4.75c0,0,7.64-.24,8.3,6.51v22.14c0,7.59-4.45,10.31-7.05,11.75-2.26,1.26-5.32,1.16-6.08,1.11,1.48.14,1.54,1.89,1.54,1.89.45,4.24,3.43,3.54,3.43,3.54,15.36-4,14.33-18.25,14.33-18.3h0Z" fill="url(#color-2)"/>
  <path class="color-1" d="m60.22,228.35c2.04,0,3.69-1.65,3.69-3.69v-4.7c-.04.27-.45,1.01-3.69,1.01-2.04,0-3.69,1.65-3.69,3.69s1.65,3.69,3.69,3.69Z" fill="url(#color-1)"/>
  <path class="color-1" d="m70.58,196.62c2.04,0,3.69-1.65,3.69-3.69v-4.7c-.04.27-.45,1.01-3.69,1.01-2.04,0-3.69,1.65-3.69,3.69s1.65,3.69,3.69,3.69Z" fill="url(#color-1)"/>
  <path class="color-1" d="m122.42,160.98h-19.36c-1.7,0-3.09,1.39-3.09,3.09s1.39,3.09,3.09,3.09h15.91c.08,0,2.33.08,2.33-3.05,0,0-.4-3.13,1.12-3.13h0Z" fill="url(#color-1)"/>
  <path class="color-1" d="m101.56,250.1c-2.18,0-4.19-.2-4.19-1.98v16.22s.08,15.84-11.15,15.84h-4.59s-1.91-.2-1.91,1.98-.2,4.19-1.98,4.19h8.48s17.09.8,17.33-22.01v-12.34s.17-1.9-1.98-1.9h0Z" fill="url(#color-1)"/>
  <path class="color-1" d="m144.99,118.76c-3.37,0-6.09-2.73-6.09-6.09v-7.75c.07.44.73,1.66,6.09,1.66,3.37,0,6.09,2.73,6.09,6.09s-2.73,6.09-6.09,6.09Z" fill="url(#color-1)"/>
  <path class="color-1" d="m85.44,107.21c0-3.37-2.73-6.09-6.09-6.09h-7.75c.44.07,1.66.73,1.66,6.09,0,3.37,2.73,6.09,6.09,6.09s6.09-2.73,6.09-6.09Z" fill="url(#color-1)"/>
  <path class="color-1" d="m91.09,56.96h9.02s9.69.3,9.69-4.01c0,0-.29,10.2-8.52,10.2h-6.18s-3.58.14-4.06,3.31v-9.5h.05Z" fill="url(#color-1)"/>
  <path class="color-1" d="m93.03,43.13v9.37s.56-3.19,4.01-3.19h8.08s4.69-.16,4.69,2.92c0-4.25-2.22-7.87-6.31-9.35-3.31-1.2-7.23-1.26-10.46.25h0Z" fill="url(#color-1)"/>
  <path class="color-3" d="m70.98,228.35c2.04,0,3.69-1.65,3.69-3.69v-4.7c-.04.27-.45,1.01-3.69,1.01-2.04,0-3.69,1.65-3.69,3.69s1.65,3.69,3.69,3.69Z" fill="url(#color-3)"/>
  <path class="color-3" d="m100.39,194.83h14.88s-1.51.5-1.51,1.67c0,.94-.67,5.39-5.7,5.39,0,0-6,.2-6-5.46,0,0-.06-1.61-1.67-1.61h0Z" fill="url(#color-3)"/>
  <path class="color-3" d="m124.11,171.96h-5.42.01-14.97s.01,0,.01,0h0s-5.41,0-5.41,0c0,0,2.05.54,2.05,2.42h.01c-.05.22-.09.45-.09.7,0,1.72,1.39,3.1,3.11,3.1h15.62c1.72,0,3.11-1.39,3.11-3.1,0-.25-.03-.48-.09-.71,0-1.87,2.05-2.41,2.05-2.41h0Z" fill="url(#color-3)"/>
  <path class="color-3" d="m32.49,94.17h9.02s9.69.3,9.69-4.01c0,0-.29,10.2-8.52,10.2h-6.18s-3.58.14-4.06,3.31v-9.5h.05Z" fill="url(#color-3)"/>
  <path class="color-3" d="m108.89,107.11h-9.48c-1.71,0-3.09,1.38-3.09,3.09s1.38,3.09,3.09,3.09h9.48c1.71,0,3.09-1.38,3.09-3.09s-1.38-3.09-3.09-3.09Z" fill="url(#color-3)"/>
</svg>