<?xml version="1.0" encoding="UTF-8"?>
<svg xmlns="http://www.w3.org/2000/svg" viewBox="0 0 185 308">
  <defs>
    <style>
      .stroke-width {
        stroke-width: 1.3px;
      }

      .stroke-color-1 {
        stroke: #ffcf08;
      }

      .stroke-color-2 {
        stroke: #fea39c;
      }

      .stroke-color-3 {
        stroke:#327eed;
      }

      .stroke-color-4 {
        stroke: #2032ac;
      }      
    </style>  
    <linearGradient id="color-1" gradientTransform="rotate(90)">
      <stop offset="0%" stop-color="#ffcf08" />
      <stop offset="100%" stop-color="#ffcf08" />
      <stop offset="100%" stop-color="white" />
    </linearGradient>
    <linearGradient id="color-2" gradientTransform="rotate(90)">
      <stop offset="0%" stop-color="#fea39c" />
      <stop offset="100%" stop-color="#fea39c" />
      <stop offset="100%" stop-color="white" />
    </linearGradient>
    <linearGradient id="color-3" gradientTransform="rotate(90)">
      <stop offset="0%" stop-color="#327eed" />
      <stop offset="100%" stop-color="#327eed" />
      <stop offset="100%" stop-color="white" />
    </linearGradient>   
    <linearGradient id="color-4" gradientTransform="rotate(90)">
      <stop offset="0%" stop-color="#2032ac" />
      <stop offset="100%" stop-color="#2032ac" />
      <stop offset="100%" stop-color="white" />
    </linearGradient>  
  </defs>
    <path class="color-4" d="m136.26,146.5c2.21,0,4-1.79,4-4s-1.79-4-4-4-4,1.79-4,4,1.79,4,4,4Z" fill="url(#color-4)"/>
    <path class="color-1" d="m158.81,237.64c2.21,0,4-1.79,4-4s-1.79-4-4-4-4,1.79-4,4,1.79,4,4,4Z" fill="url(#color-1)"/>
    <path class="color-1" d="m30.76,34.81c2.21,0,4-1.79,4-4s-1.79-4-4-4-4,1.79-4,4,1.79,4,4,4Z" fill="url(#color-1)"/>
    <path class="color-4" d="m111.95,264.55c1.66,0,3-1.34,3-3s-1.34-3-3-3-3,1.34-3,3,1.34,3,3,3Z" fill="url(#color-4)"/>
    <path class="color-4" d="m158.81,54.97c1.66,0,3-1.34,3-3s-1.34-3-3-3-3,1.34-3,3,1.34,3,3,3Z" fill="url(#color-4)"/>
    <path class="color-2" d="m149.93,132.06c2.21,0,4-1.79,4-4s-1.79-4-4-4-4,1.79-4,4,1.79,4,4,4Z" fill="url(#color-2)"/>
    <path class="color-4" d="m83.23,29.44c.35.64.79,1.25,1.34,1.8l49.78,49.78c.18-6.06,5.14-10.92,11.25-10.92h0s.03,0,.04,0l-49.96-49.96c-1.61-1.61-3.75-2.37-5.87-2.28h0s-13.47,0-13.47,0c-2.01,0-4.02.77-5.55,2.3l-48.18,48.18c5.76.79,10.31,5.29,11.2,11.01l48.08-48.08c.55-.55.99-1.15,1.34-1.8" fill="url(#color-4)"/>
    <path class="color-4" d="m103.18,107.25c.84,0,1.59.14,2.17.37,4.43,1.8,4.41,3.32,4.4,4.23,0,.14,0,.05,0,.13-.2,4.85-4.06,4.88-5.52,4.88-2.53.01-7.24.03-12.88.03v16.39c5.68,0,10.43-.01,12.99-.03,8.73-.05,15.55-3.96,19.21-10.99,2.41-4.64,2.59-9.11,2.59-10.23.14-11.82-9.09-17.34-14.61-19.59-2.53-1.02-5.3-1.56-8.23-1.58-2.6-.01-6.84-.04-11.94-.06v16.39c5.05.02,9.26.05,11.84.06h-.01Z" fill="url(#color-4)"/>
    <path class="color-3" d="m75.64,133.26v15.87h15.7v-15.87h-15.7Z" fill="url(#color-3)"/>
    <path class="color-3" d="m91.34,116.87v-9.7c-4.7-.02-10.15-.04-15.7-.05v9.75h15.7Z" fill="url(#color-3)"/>
    <path class="color-3" d="m91.34,31.57c0-4.34-3.52-7.85-7.85-7.85s-7.85,3.52-7.85,7.85v59.18c5.55.01,10.99.03,15.7.05V31.57Z" fill="url(#color-3)"/>
    <path class="color-3" d="m75.64,278.11c2.09-1.86,4.83-3,7.85-3s5.76,1.14,7.85,3v-112.58h-15.7v112.58Z" fill="url(#color-3)"/>
    <path class="color-3" d="m65.57,90.73c-3.74,0-6.51-.72-7.82-2.03-1.02-1.03-1.03-2.46-1.03-2.52,0,.16-.01.26-.01.26,0,0,.65-7.78-7.16-8.45-7.81-.68-9.18,7.17-9.18,7.17-.07.84-.48,8.37,5.26,14.58,4.53,4.9,11.24,7.38,19.94,7.38,3.3,0,6.71,0,10.06.01v-16.39c-3.36,0-6.76-.01-10.06-.01h0Z" fill="url(#color-3)"/>
    <path class="color-1" d="m49.54,149.14h-.01c-1.11,0-6-.53-8.49-3.01-.76-.76-1.78-2.12-1.78-5.19,0-4.06,1.73-5.46,3.6-6.38,2.16-1.05,4.73-1.31,5.61-1.32h0s0,0,.05,0c.25,0,13.41.02,27.12.03v-16.39c-13.43,0-26.35-.03-27.07-.03-1.47,0-11.87.18-19.15,7.37-4.29,4.24-6.55,10.02-6.55,16.72s2.28,12.5,6.6,16.8c7.56,7.53,18.62,7.78,20.06,7.78h26.11v-16.39h-26.1Z" fill="url(#color-1)"/>
    <path class="color-3" d="m176.77,274.73c-1.61-4.23-6.35-6.35-10.58-4.74-7.66,2.92-10.96.62-12.04-.13-4.09-2.85-7.35-9.84-9.19-19.67-1.59-8.51-1.52-16.08-1.52-16.15v-50.55c0-11.86-3.56-20.97-10.56-27.07-9.37-8.17-21.27-7.6-24.42-7.29h-17.12v16.39h17.58c.38,0,.75-.03,1.13-.08.08,0,7.33-.8,12.06,3.33,3.28,2.85,4.94,7.81,4.94,14.72v50.38c-.05,4.05.1,37.1,17.7,49.41,3.34,2.34,8.2,4.53,14.67,4.53,3.68,0,7.88-.71,12.61-2.52,4.23-1.61,6.35-6.34,4.74-10.58h0Z" fill="url(#color-3)"/>
    <path class="color-2" d="m91.34,149.14h-15.7v16.39h15.7v-16.39Z" fill="url(#color-2)"/>
    <path class="color-2" d="m91.34,133.26v-16.39h-15.7v16.39h15.7Z" fill="url(#color-2)"/>
    <path class="color-2" d="m91.34,90.79c-4.71-.02-10.15-.04-15.7-.05v16.39c5.56.01,11,.03,15.7.05v-16.39Z" fill="url(#color-2)"/>
    <path class="color-1" d="m91.34,278.11v1.63c0,4.34-3.52,7.85-7.85,7.85s-7.85-3.52-7.85-7.85v-1.63c-2.44,2.16-3.98,5.32-3.98,8.84,0,6.53,5.3,11.83,11.83,11.83s11.83-5.3,11.83-11.83c0-3.52-1.54-6.67-3.98-8.84Z" fill="url(#color-1)"/>
    <path class="color-2" d="m83.49,287.59c4.34,0,7.85-3.52,7.85-7.85v-1.63c-2.09-1.86-4.83-3-7.85-3s-5.76,1.14-7.85,3v1.63c0,4.34,3.52,7.85,7.85,7.85Z" fill="url(#color-2)"/>
    <path class="color-1" d="m20.81,81.25c-3.07-3.07-3.07-8.04,0-11.1l1.88-1.88c-.59-.08-1.19-.14-1.82-.14-7.29,0-13.18,5.91-13.18,13.18s5.91,13.18,13.18,13.18,13.18-5.91,13.18-13.18c0-.7-.07-1.37-.17-2.03l-1.97,1.97c-3.07,3.07-8.04,3.07-11.1,0h0Z" fill="url(#color-1)"/>
    <path class="color-2" d="m22.69,68.27l-1.88,1.88c-3.07,3.07-3.07,8.04,0,11.1,3.07,3.07,8.04,3.07,11.1,0l1.97-1.97c-.89-5.72-5.45-10.21-11.2-11.01Z" fill="url(#color-2)"/>
    <path class="color-2" d="m47.8,272.04c7.28,0,13.18-5.9,13.18-13.18s-5.9-13.18-13.18-13.18-13.18,5.9-13.18,13.18,5.9,13.18,13.18,13.18Z" fill="url(#color-2)"/>
    <path class="color-2" d="m84.15,35.59c7.28,0,13.18-5.9,13.18-13.18s-5.9-13.18-13.18-13.18-13.18,5.9-13.18,13.18,5.9,13.18,13.18,13.18Z" fill="url(#color-2)"/>
    <path class="color-4" d="m44.13,200.72h55.73c.1-6.98.93-12.64,1.5-15.7h-58.5c.57,3.45,1.28,9.03,1.28,15.7h0Z" fill="url(#color-4)"/>
    <path class="color-1" d="m42.78,216.19c-.92,5.04-2.4,10.22-4.66,15.27.77.28,1.6.44,2.47.44h64.92c-2.25-5.2-3.67-10.55-4.53-15.7h-58.2Z" fill="url(#color-1)"/>
    <path class="color-3" d="m33.31,224.61v-1.14c0-4.02,3.26-7.29,7.29-7.29h2.19c1-5.46,1.35-10.74,1.35-15.47h-3.54c-4.02,0-7.29-3.26-7.29-7.29v-1.14c0-4.02,3.26-7.29,7.29-7.29h2.26c-.36-2.14-.67-3.47-.72-3.71-1.05-4.4-5.46-7.09-9.86-6.05-4.4,1.04-7.11,5.46-6.08,9.85.06.25,5.77,25.3-5.1,43.67-2.3,3.89-1.02,8.92,2.88,11.23,1.31.77,2.74,1.14,4.17,1.14,2.8,0,5.53-1.44,7.06-4.02,1.1-1.86,2.07-3.75,2.93-5.67-2.8-1.01-4.81-3.69-4.81-6.84h-.01Z" fill="url(#color-3)"/>
    <path class="color-2" d="m33.31,192.3v1.14c0,4.02,3.26,7.29,7.29,7.29h3.54c0-6.67-.71-12.26-1.28-15.7h-2.26c-4.02,0-7.29,3.26-7.29,7.29h0Z" fill="url(#color-2)"/>
    <path class="color-2" d="m40.6,216.19c-4.02,0-7.29,3.26-7.29,7.29v1.14c0,3.15,2.01,5.83,4.81,6.84,2.26-5.04,3.74-10.23,4.66-15.27h-2.19,0Z" fill="url(#color-2)"/>
    <path class="color-3" d="m122.9,230.03c-10.84-18.33-5.18-43.3-5.1-43.66,1.04-4.4-1.67-8.81-6.06-9.86-4.4-1.05-8.82,1.66-9.88,6.06-.05.19-.25,1.06-.51,2.46h4.8c4.02,0,7.29,3.26,7.29,7.29v1.14c0,4.02-3.26,7.29-7.29,7.29h-6.29c-.06,4.69.2,9.98,1.12,15.47h5.17c4.02,0,7.29,3.26,7.29,7.29v1.14c0,4.02-3.26,7.29-7.29,7.29h-.64c.94,2.19,2.03,4.36,3.28,6.47,1.53,2.59,4.26,4.02,7.06,4.02,1.42,0,2.85-.37,4.16-1.14,3.89-2.31,5.18-7.33,2.88-11.23v-.02Z" fill="url(#color-3)"/>
    <path class="color-2" d="m106.15,200.72c4.02,0,7.29-3.26,7.29-7.29v-1.14c0-4.02-3.26-7.29-7.29-7.29h-4.8c-.57,3.07-1.4,8.73-1.5,15.7h6.3Z" fill="url(#color-2)"/>
    <path class="color-2" d="m113.44,224.61v-1.14c0-4.02-3.26-7.29-7.29-7.29h-5.17c.86,5.16,2.29,10.5,4.53,15.7h.64c4.02,0,7.29-3.26,7.29-7.29h0Z" fill="url(#color-2)"/>
    <path fill="#ffffff" class="color-5" d="m109.22,127.57h-3.85c-1.67,0-3.02,1.35-3.02,3.02s1.35,3.02,3.02,3.02h3.85c1.67,0,3.02-1.35,3.02-3.02s-1.35-3.02-3.02-3.02Z"/>
    <path fill="#ffffff" class="color-5" d="m132.9,127.57h-15.79c-1.67,0-3.02,1.35-3.02,3.02s1.35,3.02,3.02,3.02h15.79c1.67,0,3.02-1.35,3.02-3.02s-1.35-3.02-3.02-3.02Z"/>
    <path fill="#ffffff" class="color-5" d="m57.46,275.06h3.85c1.67,0,3.02-1.35,3.02-3.02s-1.35-3.02-3.02-3.02h-3.85c-1.67,0-3.02,1.35-3.02,3.02s1.35,3.02,3.02,3.02Z"/>
    <path fill="#ffffff" class="color-5" d="m33.78,275.06h15.79c1.67,0,3.02-1.35,3.02-3.02s-1.35-3.02-3.02-3.02h-15.79c-1.67,0-3.02,1.35-3.02,3.02s1.35,3.02,3.02,3.02Z"/>
    <path fill="#ffffff" class="color-5" d="m47.4,197.43h17.53c1.67,0,3.02,1.35,3.02,3.02s-1.35,3.02-3.02,3.02h-.25s-.96.12-.96.92c0,.23.08.39.19.52h10.65c1.67,0,3.02,1.35,3.02,3.02s-1.35,3.02-3.02,3.02h-17.53c-1.67,0-3.02-1.35-3.02-3.02s1.35-3.02,3.02-3.02h2.57c.09-.12.15-.28.15-.5,0-.92-1.03-.94-1.03-.94h-11.31c-1.67,0-3.02-1.35-3.02-3.02s1.35-3.02,3.02-3.02h0Z"/>
    <path fill="#ffffff" class="color-5" d="m140.92,51.19h-5.71c-1.67,0-3.02,1.35-3.02,3.02s1.35,3.02,3.02,3.02h5.71c1.67,0,3.02-1.35,3.02-3.02s-1.35-3.02-3.02-3.02Z"/>
    <path fill="#ffffff" class="color-5" d="m135.72,43.51h-17.53c-1.67,0-3.02,1.35-3.02,3.02s1.35,3.02,3.02,3.02h.25s.96.12.96.92c0,.23-.08.39-.19.52h-10.65c-1.67,0-3.02,1.35-3.02,3.02s1.35,3.02,3.02,3.02h17.53c1.67,0,3.02-1.35,3.02-3.02s-1.35-3.02-3.02-3.02h-2.57c-.09-.12-.15-.28-.15-.5,0-.92,1.03-.94,1.03-.94h11.31c1.67,0,3.02-1.35,3.02-3.02s-1.35-3.02-3.02-3.02h0Z"/>
    <path class="color-1" d="m145.69,81.25c3.07-3.07,3.07-8.04,0-11.1l-1.88-1.88c.59-.08,1.19-.14,1.82-.14,7.29,0,13.18,5.91,13.18,13.18s-5.91,13.18-13.18,13.18-13.18-5.91-13.18-13.18c0-.7.07-1.37.17-2.03l1.97,1.97c3.07,3.07,8.04,3.07,11.1,0h0Z" fill="url(#color-1)"/>
    <path class="color-2" d="m143.81,68.27l1.88,1.88c3.07,3.07,3.07,8.04,0,11.1-3.07,3.07-8.04,3.07-11.1,0l-1.97-1.97c.89-5.72,5.45-10.21,11.2-11.01Z" fill="url(#color-2)"/>
</svg>