<?xml version="1.0" encoding="UTF-8"?>
<svg id="mid03" xmlns="http://www.w3.org/2000/svg" viewBox="0 0 185 308">
  <defs>
    <style>
      <!-- .color-4 {
        fill: #ffcf08;
      }

      .color-1 {
        fill: #ff6836;
      }

      .color-3 {
        fill: #404272;
      }

      .color-2 {
        fill: #2aaeb3;
      }

      .stroke-width stroke-linecap stroke-color-4 {
        stroke-linecap: round;
        stroke-linejoin: round;
      }

      .stroke-width stroke-linecap stroke-color-4, .cls-6 {
        fill: none;
        stroke: #ffcf08;
        stroke-width: .5px;
      }

      .cls-6 {
        stroke-miterlimit: 10;
      } -->
      .stroke-width {
        stroke-width: .5px;
      }

      .stroke-linecap{
        stroke-linecap: round;
      }

      .stroke-color-1 {
        stroke: #ff6836;
      }

      .stroke-color-2 {
        stroke: #2aaeb3;
      }

      .stroke-color-3 {
        stroke: #404272;
      }

      .stroke-color-4 {
        stroke: #ffcf08;
      }  
    </style>
    <linearGradient id="color-1" gradientTransform="rotate(90)">
      <stop offset="0%" stop-color="#ff6836" />
      <stop offset="100%" stop-color="#ff6836" />
      <stop offset="100%" stop-color="white" />
    </linearGradient>
    <linearGradient id="color-2" gradientTransform="rotate(90)">
      <stop offset="0%" stop-color="#2aaeb3" />
      <stop offset="100%" stop-color="#2aaeb3" />
      <stop offset="100%" stop-color="white" />
    </linearGradient>
    <linearGradient id="color-3" gradientTransform="rotate(90)">
      <stop offset="0%" stop-color="#404272" />
      <stop offset="100%" stop-color="#404272" />
      <stop offset="100%" stop-color="white" />
    </linearGradient>
    <linearGradient id="color-4" gradientTransform="rotate(90)">
      <stop offset="0%" stop-color="#ffcf08" />
      <stop offset="100%" stop-color="#ffcf08" />
      <stop offset="100%" stop-color="white" />
    </linearGradient>
  </defs>
  <path class="stroke-width stroke-linecap stroke-color-4" d="m33.42,294.77s1.43-121.4-1.85-125.98c-3-4.19-6.94-3.9-6.94-3.9-7.83,0-7.28,8.58-7.28,8.58,0,8.78,7.99,7.99,7.99,7.99,8.43,0,7.91-7.91,7.91-7.91,0,0-.63-6.88-.01-13.79l-.29,4.38s1.75-18.18-1.53-22.76c-3-4.19-6.94-3.9-6.94-3.9-7.83,0-7.28,8.58-7.28,8.58,0,8.78,7.99,7.99,7.99,7.99,8.43,0,7.91-7.91,7.91-7.91,0,0-.89-6.9-.27-13.82l-.03.23s1.75-18.18-1.53-22.76c-3-4.19-6.94-3.9-6.94-3.9-7.83,0-7.28,8.58-7.28,8.58,0,8.78,7.99,7.99,7.99,7.99,8.43,0,7.91-7.91,7.91-7.91v-33.79c0-6.94,5.67-5.67,5.67-5.67" fill="none"/>
  <path class="stroke-width stroke-linecap stroke-color-4" d="m151.28,294.77s-1.13-116.58,2.15-121.16c3-4.19,6.94-3.9,6.94-3.9,7.83,0,7.28,8.58,7.28,8.58,0,8.78-7.99,7.99-7.99,7.99-8.43,0-7.91-7.91-7.91-7.91,0,0,.89-6.9.27-13.82l.02-.4s-1.75-18.18,1.53-22.76c3-4.19,6.94-3.9,6.94-3.9,7.83,0,7.28,8.58,7.28,8.58,0,8.78-7.99,7.99-7.99,7.99-8.43,0-7.91-7.91-7.91-7.91,0,0,.89-6.9.27-13.82l.04.23s-1.75-18.24,1.53-22.82c3-4.2,6.94-3.92,6.94-3.92,7.83,0,7.28,8.6,7.28,8.6,0,8.8-7.99,8.01-7.99,8.01-8.43,0-7.91-7.93-7.91-7.93v-33.87c0-6.96-5.67-5.69-5.67-5.69" fill="none"/>
  <path class="stroke-width stroke-linecap stroke-color-4" d="m50.23,23.3l.1,13.13s.27,11.43,4.22,10.33" fill="none"/>
  <path class="stroke-width stroke-linecap stroke-color-4" d="m134.92,36.39l-.1-12.84s.12-11-4.57-10.02" fill="none"/>
  <path class="stroke-width stroke-linecap stroke-color-4" d="m56.22,62.81s-.56,4.04,3.33,4.04h14.24s2.94.12,2.94,3.23c0,0,.17,3.07-3.03,3.07h-10.28s-3.5-.34-3.5,2.94c0,0,.05,2.76-1.76,2.76s-1.98-1.19-1.94-2.85" fill="none"/>
  <path class="stroke-width stroke-linecap stroke-color-4" d="m72.08,200.02l.13,9.02s.36,7.84,5.63,7.1" fill="none"/>
  <path class="stroke-width stroke-linecap stroke-color-4" d="m112.84,206.72l-.12-8.76s-.33-7.62-5.06-6.89" fill="none"/>
  <path class="stroke-width stroke-linecap stroke-color-4" d="m135.89,241.28l-.12,9.26s-.06,7.53-5.06,7.29h-31.37s-6.65-.05-6.65,5.38c0,0,.38,5.04,6.2,5.04h40.99s2.91,0,2.91,2.61c0,0-.19,2.42-2.91,2.42h-8.23s-3.49,0-3.49,2.33c0,0-.36,4.33-4.56,4.33h-17.89" fill="none"/>
  <path class="stroke-width stroke-linecap stroke-color-4" d="m78.55,250.01s5.74-.78,5.74,5.22c0,0-.07,5.31-5.54,5.31" fill="none"/>
  <path class="stroke-width stroke-linecap stroke-color-4" d="m56.47,250.06s-6.43-.89-5.99,5.15c0,0,.96,5.39,6.16,5.39" fill="none"/>
  <path class="stroke-width stroke-linecap stroke-color-4" d="m65.15,132.25h28.19" fill="none"/>
  <path class="stroke-width stroke-linecap stroke-color-4" d="m65.15,138.77h28.19" fill="none"/>
  <path class="stroke-width stroke-linecap stroke-color-4" d="m65.15,145.09h28.19" fill="none"/>
  <path class="stroke-width stroke-linecap stroke-color-4" d="m131.18,121.41s-.91,8.65,6.42,8.65c0,0,5.59.63,5.59-8.29v-20.92s.27-7.44-7.44-7.44-12.36-3.7-12.36-9.65c0,0,.32-10.66-11.74-10.17-11.21.46-11.45-1.97-11.45-1.97,0,0-.49-2.28-4.45-1.65" fill="none"/>
  <path class="stroke-width stroke-linecap stroke-color-4" d="m61.21,190.23v19.28c0,1.98-2.39,2.39-2.39,2.39h-1.66" fill="none"/>
  <path class="stroke-width stroke-linecap stroke-color-4" d="m65.91,220.31s-3.75-.97-3.75,4.82v39.59" fill="none"/>
  <path class="stroke-width stroke-linecap stroke-color-4" d="m128.65,62.06s.18,6.64,3.86,6.64c3.2,0,5.22,1.47,5.22,3.76s2.69,2.6,2.69,2.6c0,0,4.33-.42,4.33,2.81,0,0,.3,2.87-4.17,2.87h-8.65s-3.29.26-3.07-4.13" fill="none"/>
  <path class="stroke-width stroke-linecap stroke-color-4" d="m114.48,59.63s-.74-2.91,2.31-4.45" fill="none"/>
  <path class="stroke-width stroke-linecap stroke-color-4" d="m123.73,196.7v-19.28c0-1.98,2.39-2.39,2.39-2.39h1.66" fill="none"/>
  <path class="color-2" d="m110.52,26.92h-35.94s-2.19,0-2.19,3.09c0,2.2-2.24,3.09-2.24,3.09h40.38s2.19,0,2.19-3.09c0-2.2,2.24-3.09,2.24-3.09h-4.43Z" fill="url(#color-2)"/>
  <path class="color-2" d="m114.28,46.71s1.5,5.19,4.17,5.19,10.6,0,10.6,8.38v3.55s-.76-1.32-1.58-2.61c0,0-2.81-4.69-7.47-4.17,0,0-5.73.75-5.73-3.89v-6.47h0Z" fill="url(#color-2)"/>
  <path class="color-2" d="m127.18,131.04h-4.28s-2.23-.1-2.23-2.23l.05,2.23v3s0,2.3,2.3,2.3h2.63s2.5-.14,2.5,2.5c0,7.22-6.45,10.27-8.66,11.1-.45.16-.91.25-1.38.25h-2.79c1.25,0,1.57,1.17,1.65,1.85.09.75.3,1.48.69,2.09.49.79,1.32,1.53,2.63,1.32,2.63-.41,4.98-1.79,4.98-1.79,8.92-5.19,8.91-14.81,8.91-14.81,0,0,.14-7.8-7.03-7.8h.01Z" fill="url(#color-2)"/>
  <path class="color-2" d="m79.74,260.36h-24.49c1.84,0,.91,3.25.91,4.47,0,.99.99,1.38,1.37,1.49v.04h19.77s1.53-.3,1.53-1.53-.93-4.47.91-4.47h0Z" fill="url(#color-2)"/>
  <path class="color-2" d="m76.82,127.81c-1.44,0-1.56,1.34-1.57,1.5v31.35h6.18v-33.76c0,1.84-3.34.91-4.6.91h0Z" fill="url(#color-2)"/>
  <path class="color-2" d="m95.11,264.38v-38.55h-6.18v40.99c0-1.84,3.34-.91,4.6-.91s1.56-1.48,1.57-1.52h0Z" fill="url(#color-2)"/>
  <path class="color-4" d="m51.8,79.29c0-1.12.41-4.05-1.94-4.43v-.04h-13.06s2.44.33,2.44,1.52-.47,4.47,2.48,4.47h12.52s-2.44-.33-2.44-1.52Z" fill="url(#color-4)"/>
  <path class="color-4" d="m148.11,74.73h-11.16c-2.95,0-2.48,3.38-2.48,4.6s-2.44,1.57-2.44,1.57h11.18c2.94-.01,2.46-3.38,2.46-4.6s2.44-1.57,2.44-1.57Z" fill="url(#color-4)"/>
  <path class="color-4" d="m127.16,13.28H57.93s-7.93-.3-7.93,6v5.52s3.18-5.52,7.93-5.52h69.22v-.04c.6-.13,1.87-.67,1.87-2.96,0-2.13,2.24-3,2.24-3h-4.12,0Z" fill="url(#color-4)"/>
  <path class="color-4" d="m95.47,45.54V15.09h-6.18v30.45h6.18Z" fill="url(#color-4)"/>
  <path class="color-4" d="m70.81,46.43s-1.5,5.19-4.17,5.19-10.6,0-10.6,8.38v3.55s.69-.98,1.51-2.26c0,0,2.88-5.03,7.54-4.5,0,0,5.73.75,5.73-3.89v-6.47h0Z" fill="url(#color-4)"/>
  <path class="color-4" d="m70.81,58.82s-1.5,5.19-4.17,5.19-10.6,0-10.6,8.38v4.47s.64-1.31,1.45-2.6c0,0,2.93-5.61,7.59-5.08,0,0,5.73.75,5.73-3.89v-6.47h0Z" fill="url(#color-4)"/>
  <path class="color-4" d="m105.77,210.13h-25.81c-.09,0-2.01-.17-2.01,1.58,0,1.26,1.23,4.6-1.2,4.6h29.03c.87-.08,7.22-.86,7.22-7.05v-7.29s-2.89,8.06-7.22,8.18h0Z" fill="url(#color-4)"/>
  <path class="color-4" d="m128.82,231.71h-22.76c2.43,0,1.2,3.34,1.2,4.6,0,1.63,1.9,1.58,2.01,1.58h19.45c7.1,0,7.32,8.17,7.32,8.17v-7.29c0-6.57-6.35-7.02-7.22-7.05h0Z" fill="url(#color-4)"/>
  <path class="color-1" d="m109.8,130.82h-3.13c-1.66,0-3,1.34-3,3s1.34,3,3,3h3.13c1.66,0,3-1.34,3-3s-1.34-3-3-3Z" fill="url(#color-1)"/>
  <path class="color-4" d="m117.6,126.46c-3.67,0-4,3.93-4,3.93v8.68c0,7.22-6.38,10.27-8.59,11.1-.45.16-.91.25-1.38.25h-2.79c1.25,0,1.57,1.17,1.65,1.85.09.75.3,1.48.69,2.09.49.79,1.32,1.53,2.63,1.32,2.63-.41,4.98-1.79,4.98-1.79,8.92-5.19,8.98-14.81,8.98-14.81v-11.01c0-1.2,2.23-1.61,2.23-1.61h-4.4Z" fill="url(#color-4)"/>
  <path class="color-4" d="m79.74,249.83h-24.49c1.84,0,.91,3.25.91,4.47,0,.99.99,1.38,1.37,1.49v.04h19.77s1.53-.3,1.53-1.53-.93-4.47.91-4.47h0Z" fill="url(#color-4)"/>
  <path class="color-4" d="m65.06,242.2h-2.15s2.15.33,2.15,2.76v33.06s.3,1.53,1.53,1.53,4.47-.93,4.47.91v-35.5s.5-2.76-6-2.76Z" fill="url(#color-4)"/>
  <path class="color-4" d="m118.72,117.39v-28.7h-6.18v28.7h6.18Z" fill="url(#color-4)"/>
  <path class="color-4" d="m93.34,69.76c-4.19,0-4.02,3.85-4.02,3.85v45.68h6.18v-47.94c0-1.17,2.24-1.59,2.24-1.59h-4.4,0Z" fill="url(#color-4)"/>
  <path class="color-4" d="m100.61,159.17c0-1.2-1.37-1.54-1.5-1.57h-43.88c1.84,0,.91,3.34.91,4.6,0,1.18,1.32,1.53,1.5,1.56h41.45s2.44,0,2.44,0c-1.84,0-.91-3.34-.91-4.6Z" fill="url(#color-4)"/>
  <path class="color-4" d="m118.81,221.7c0-1.25-1.5-1.57-1.52-1.57h-52.34c1.84,0,.91,3.34.91,4.6s1.48,1.56,1.52,1.57h52.34c-1.84,0-.91-3.34-.91-4.6h0Z" fill="url(#color-4)"/>
  <path class="color-4" d="m89.42,153.79c-1.75,0-.86-3.34-.86-4.6s-1.41-1.56-1.45-1.57h-9.14v6.18h11.45Z" fill="url(#color-4)"/>
  <path class="color-4" d="m97.57,150.6v-24.06c0-2.56,1.26-3.4,1.26-3.4-7.93,0-7.43,3.4-7.43,3.4v24.06c0,4.49,7.43,3.79,7.43,3.79-1.6-1.28-1.26-3.79-1.26-3.79Z" fill="url(#color-4)"/>
  <path class="color-4" d="m123.88,178.25s-.15,3.56-3.2,3.6h-56.39c-3.05-.04-3.2-3.6-3.2-3.6v3.6h.44-.43v6.18h0v3.6s.15-3.55,3.19-3.6h56.41c3.04.05,3.19,3.6,3.19,3.6v-13.38h.01Z" fill="url(#color-4)"/>
  <path class="color-4" d="m80.35,178.13c2.04,0,3.69-1.65,3.69-3.69v-4.7c-.04.27-.45,1.01-3.69,1.01-2.04,0-3.69,1.65-3.69,3.69s1.65,3.69,3.69,3.69Z" fill="url(#color-4)"/>
  <path class="color-4" d="m104.61,178.13c2.04,0,3.69-1.65,3.69-3.69v-4.7c-.04.27-.45,1.01-3.69,1.01-2.04,0-3.69,1.65-3.69,3.69s1.65,3.69,3.69,3.69Z" fill="url(#color-4)"/>
  <path class="color-4" d="m133.74,155.93c-6.06,0-11.03,4.74-11.41,10.71-.06.99-1.77,1.47-1.77,1.47h6.49c1.53,0,1.87-1.48,1.87-1.48.36-2.34,2.38-4.14,4.82-4.14,2.69,0,4.88,2.19,4.88,4.88s-2.19,4.88-4.88,4.88c-.89,0-1.76-.24-2.51-.7,0,0-.92-.75-1.86-.75h-7.03s.6.22.77.76c1.7,4.32,5.94,7.25,10.64,7.25,6.31,0,11.44-5.13,11.44-11.44s-5.13-11.44-11.44-11.44h-.01Z" fill="url(#color-4)"/>
  <path class="color-4" d="m124.71,257.68c-.02-.49-.24-1.71-1.98-1.71-2.18,0-4.19-.2-4.19-1.98v13c-.03,1.69-.7,10.18-10.31,10.22-.19-.01-1.89-.08-1.89,1.98,0,2.18-.2,4.19-1.98,4.19h3.89c1.12-.1,16.04-1.62,16.45-16.39h.01v-9.31h0Z" fill="url(#color-4)"/>
  <path class="stroke-width stroke-linecap stroke-color-4" d="m119.09,279.94h-18.9s-2.71-.16-2.71,1.53,2.42,1.72,2.42,1.72h5.95" fill="none"/>
  <path class="color-4" d="m129.65,209.88c-3.37,0-6.09-2.73-6.09-6.09v-7.75c.07.44.73,1.66,6.09,1.66,3.37,0,6.09,2.73,6.09,6.09s-2.73,6.09-6.09,6.09Z" fill="url(#color-4)"/>
  <path class="color-4" d="m44.38,217.84c0-3.37,2.73-6.09,6.09-6.09h7.75c-.44.07-1.66.73-1.66,6.09,0,3.37-2.73,6.09-6.09,6.09s-6.09-2.73-6.09-6.09Z" fill="url(#color-4)"/>
  <path class="color-3" d="m114.28,58.43s1.5,6.11,4.17,6.11,10.6,0,10.6,8.38v4.47s-.64-1.31-1.45-2.6c0,0-2.93-5.61-7.59-5.08,0,0-5.73.75-5.73-3.89v-7.38Z" fill="url(#color-3)"/>
  <path class="color-3" d="m127.51,114.31H56.07c1.84,0,.91,3.34.91,4.6s1.36,1.54,1.5,1.57h71.3c1.18,0,1.58,2.25,1.58,2.25v-4.4c0-3.97-3.7-4.02-3.84-4.02Z" fill="url(#color-3)"/>
  <path class="color-3" d="m57.84,123.14s1.26.84,1.26,3.4v24.06s.35,2.5-1.26,3.79c0,0,7.43.7,7.43-3.79v-24.06s.5-3.4-7.43-3.4Z" fill="url(#color-3)"/>
  <path class="color-3" d="m92.48,178.13c2.04,0,3.69-1.65,3.69-3.69v-4.7c-.04.27-.45,1.01-3.69,1.01-2.04,0-3.69,1.65-3.69,3.69s1.65,3.69,3.69,3.69Z" fill="url(#color-3)"/>
  <path class="color-1" d="m127.16,40.75H57.93s-2.19,0-2.19,3.09c0,2.2-2.24,3.09-2.24,3.09h73.66s7.93.21,7.93-6.09v-5.52s-3.18,5.44-7.93,5.44h0Z" fill="url(#color-1)"/>
  <path class="color-1" d="m108.94,190.86h-29.03c-1.17.07-7.95.7-7.95,7.06v7.29s3.25-8.17,8.12-8.17h0s25.64-.01,25.64-.01h.03c.26-.05,1.98-.4,1.98-1.57,0-1.26-1.23-4.6,1.2-4.6h0Z" fill="url(#color-1)"/>
  <path class="color-1" d="m68.36,85.02h-2.44c1.84,0,.91,3.33.91,4.59,0,1.48,1.26,1.57,1.49,1.57h50.41s0-6.17,0-6.17h-50.37Z" fill="url(#color-1)"/>
  <path class="color-1" d="m142.02,247.97h-41.67c1.52,0,1.12,3.13,1.12,3.13,0,3.19,2.33,3.05,2.33,3.05h34.77s2.33.14,2.33-3.05c0,0-.4-3.13,1.12-3.13Z" fill="url(#color-1)"/>
</svg>