<?xml version="1.0" encoding="UTF-8"?>
<svg xmlns="http://www.w3.org/2000/svg" viewBox="0 0 185 308">
  <defs>
    <style>
      .stroke-width {
        stroke-width: 1px;
      }

      .stroke-color-1 {
        stroke: #ffcf08;
      }

      .stroke-color-2 {
        stroke: #ff6836;
      }

      .stroke-color-3 {
        stroke: #404272;
      }

      .stroke-color-4 {
        stroke: #2aaeb3;
      }
    </style>
    <linearGradient id="color-1" gradientTransform="rotate(90)">
      <stop offset="0%" stop-color="#ffcf08" />
      <stop offset="100%" stop-color="#ffcf08" />
      <stop offset="100%" stop-color="white" />
    </linearGradient>
    <linearGradient id="color-2" gradientTransform="rotate(90)">
      <stop offset="0%" stop-color="#ff6836" />
      <stop offset="100%" stop-color="#ff6836" />
      <stop offset="100%" stop-color="white" />
    </linearGradient>
    <linearGradient id="color-3" gradientTransform="rotate(90)">
      <stop offset="0%" stop-color="#404272" />
      <stop offset="100%" stop-color="#404272" />
      <stop offset="100%" stop-color="white" />
    </linearGradient>
    <linearGradient id="color-4" gradientTransform="rotate(90)">
      <stop offset="0%" stop-color="#2aaeb3" />
      <stop offset="100%" stop-color="#2aaeb3" />
      <stop offset="100%" stop-color="white" />
    </linearGradient>
  </defs>
    <path class="color-4" d="m130.91,25.77c2.21,0,4-1.79,4-4s-1.79-4-4-4-4,1.79-4,4,1.79,4,4,4Z" fill="url(#color-4)"/>
    <path class="color-2" d="m160.22,114.6c2.21,0,4-1.79,4-4s-1.79-4-4-4-4,1.79-4,4,1.79,4,4,4Z" fill="url(#color-2)"/>
    <path class="color-1" d="m90.5,299.2c2.21,0,4-1.79,4-4s-1.79-4-4-4-4,1.79-4,4,1.79,4,4,4Z" fill="url(#color-1)"/>
    <path class="color-3" d="m22.61,116.32c2.21,0,4-1.79,4-4s-1.79-4-4-4-4,1.79-4,4,1.79,4,4,4Z" fill="url(#color-3)"/>
    <path class="color-2" d="m31.57,103.3c1.66,0,3-1.34,3-3s-1.34-3-3-3-3,1.34-3,3,1.34,3,3,3Z" fill="url(#color-2)"/>
    <path class="color-1" d="m62.31,211.48c6.54,0,11.83-5.3,11.83-11.83s-5.3-11.83-11.83-11.83-11.83,5.3-11.83,11.83,5.3,11.83,11.83,11.83Z" fill="url(#color-1)"/>
    <path class="color-1" d="m108.69,196.38h-26.69l-6.78,5.23c-1.61,1.24-3.52,1.85-5.41,1.85-2.66,0-5.29-1.19-7.03-3.45-.05-.07-.1-.15-.15-.21-5.24,3.56-8.71,9.57-8.71,16.36,0,10.86,8.89,19.76,19.76,19.76h35.02c10.86,0,19.76-8.89,19.76-19.76s-8.89-19.76-19.76-19.76h0Z" fill="url(#color-1)"/>
    <path class="color-2" d="m91.49,24.54c.21-.31.45-.59.7-.86-2.85-3.1-7.61-3.7-11.15-1.21l-43.18,30.34c5.89.68,10.45,5.67,10.45,11.72,0,.62-.07,1.24-.16,1.83l42.66-29.98c.51-.36.96-.76,1.37-1.21-2.66-2.88-3.05-7.31-.7-10.65h0Z" fill="url(#color-2)"/>
    <path class="color-2" d="m146.16,52.56l-42.82-30.09c-3.54-2.49-8.31-1.89-11.15,1.21.24.27.49.55.7.86,2.34,3.34,1.95,7.77-.7,10.65.41.44.86.84,1.37,1.21l43.64,30.66c-.24-.94-.38-1.92-.38-2.94,0-5.67,4.01-10.41,9.36-11.55h0Z" fill="url(#color-2)"/>
    <path class="color-1" d="m92.9,24.54c-.21-.31-.45-.59-.7-.86-.24.27-.49.55-.7.86-2.34,3.34-1.95,7.77.7,10.65,2.66-2.88,3.05-7.31.7-10.65Z" fill="url(#color-1)"/>
    <path class="color-1" d="m148.65,52.3c-.85,0-1.68.1-2.48.27l2.77,1.95c3.85,2.7,4.77,8,2.07,11.85-2.7,3.85-8,4.77-11.85,2.07l-1.96-1.38c1.31,5.1,5.93,8.88,11.45,8.88,6.54,0,11.83-5.29,11.83-11.81s-5.3-11.81-11.83-11.81h0Z" fill="url(#color-1)"/>
    <path class="color-4" d="m151,66.36c2.7-3.85,1.78-9.15-2.07-11.85l-2.77-1.95c-5.35,1.14-9.36,5.87-9.36,11.55,0,1.02.14,2,.38,2.94l1.96,1.38c3.85,2.7,9.15,1.78,11.85-2.07Z" fill="url(#color-4)"/>
    <path class="color-1" d="m33.39,66.36c-2.7-3.85-1.78-9.15,2.07-11.85l2.41-1.69c-.45-.05-.91-.09-1.38-.09-6.54,0-11.83,5.29-11.83,11.81s5.3,11.81,11.83,11.81c5.91,0,10.79-4.33,11.68-9.98l-2.93,2.06c-3.85,2.7-9.15,1.78-11.85-2.07h0Z" fill="url(#color-1)"/>
    <path class="color-4" d="m37.86,52.81l-2.41,1.69c-3.85,2.7-4.77,8-2.07,11.85,2.7,3.85,8,4.77,11.85,2.07l2.93-2.06c.1-.6.16-1.21.16-1.83,0-6.06-4.57-11.04-10.45-11.72Z" fill="url(#color-4)"/>
    <path class="color-1" d="m92.98,36.44c6.54,0,11.83-5.3,11.83-11.83s-5.3-11.83-11.83-11.83-11.83,5.3-11.83,11.83,5.3,11.83,11.83,11.83Z" fill="url(#color-1)"/>
    <path class="color-1" d="m92.98,70.92c5.92,0,10.72-4.8,10.72-10.72s-4.8-10.72-10.72-10.72-10.72,4.8-10.72,10.72,4.8,10.72,10.72,10.72Z" fill="url(#color-1)"/>
    <path class="color-1" d="m79.72,137.65v-32.54c0-2.66-2.15-4.81-4.81-4.81s-4.81,2.15-4.81,4.81v32.54c0,2.66,2.15,4.81,4.81,4.81s4.81-2.15,4.81-4.81Z" fill="url(#color-1)"/>
    <path class="color-3" d="m96.73,137.65v-32.54c0-2.66-2.15-4.81-4.81-4.81s-4.81,2.15-4.81,4.81v32.54c0,2.66,2.15,4.81,4.81,4.81s4.81-2.15,4.81-4.81Z" fill="url(#color-3)"/>
    <path class="color-1" d="m113.73,137.65v-32.54c0-2.66-2.15-4.81-4.81-4.81s-4.81,2.15-4.81,4.81v32.54c0,2.66,2.15,4.81,4.81,4.81s4.81-2.15,4.81-4.81Z" fill="url(#color-1)"/>
    <path class="color-1" d="m160.65,275.16c-.15,4.57-3.89,8.23-8.49,8.23s-8.34-3.66-8.49-8.23c-2.06,2.13-3.34,5.03-3.34,8.23,0,6.54,5.3,11.83,11.83,11.83s11.83-5.3,11.83-11.83c0-3.2-1.28-6.1-3.34-8.23Z" fill="url(#color-1)"/>
    <path class="color-1" d="m31.57,283.03c-4.5,0-8.17-3.49-8.48-7.91-2.08,2.13-3.36,5.04-3.36,8.25,0,6.54,5.3,11.83,11.83,11.83s11.83-5.3,11.83-11.83c0-3.21-1.28-6.12-3.36-8.25-.31,4.42-3.98,7.91-8.48,7.91Z" fill="url(#color-1)"/>
    <path class="color-2" d="m152.15,271.56c3.34,0,6.34,1.38,8.49,3.6,0-.09.01-.18.01-.27v-94.92c0-4.7-3.81-8.51-8.51-8.51s-8.51,3.81-8.51,8.51v94.92c0,.09,0,.18.01.27,2.15-2.22,5.16-3.6,8.49-3.6Z" fill="url(#color-2)"/>
    <path class="color-4" d="m152.15,283.4c4.61,0,8.34-3.66,8.49-8.23-2.15-2.22-5.16-3.6-8.49-3.6s-6.34,1.38-8.49,3.6c.15,4.57,3.89,8.23,8.49,8.23Z" fill="url(#color-4)"/>
    <path class="color-2" d="m31.57,271.53c3.33,0,6.32,1.38,8.48,3.59.01-.2.03-.4.03-.6v-94.27c0-4.7-3.81-8.51-8.51-8.51s-8.51,3.81-8.51,8.51v94.27c0,.2.01.4.03.6,2.15-2.21,5.15-3.59,8.48-3.59Z" fill="url(#color-2)"/>
    <path class="color-4" d="m31.57,283.03c4.5,0,8.17-3.49,8.48-7.91-2.15-2.21-5.15-3.59-8.48-3.59s-6.32,1.38-8.48,3.59c.31,4.42,3.98,7.91,8.48,7.91Z" fill="url(#color-4)"/>
    <path class="color-3" d="m72.64,284.2l13.1-33.43c1.71-4.37-.44-9.31-4.82-11.02-4.37-1.71-9.31.44-11.02,4.82l-13.1,33.43c-1.71,4.37.44,9.31,4.82,11.02,4.37,1.71,9.31-.44,11.02-4.82Z" fill="url(#color-3)"/>
    <path class="color-2" d="m91.17,211.06c3.82,0,7.17,2,9.07,5.01,1.04-1.66,1.66-3.61,1.66-5.71,0-5.92-4.8-10.72-10.72-10.72s-10.72,4.8-10.72,10.72c0,2.1.61,4.05,1.66,5.71,1.9-3.01,5.24-5.01,9.07-5.01Z" fill="url(#color-2)"/>
    <path class="color-2" d="m91.17,221.09c-3.82,0-7.17-2-9.07-5.01-1.04,1.66-1.66,3.61-1.66,5.71,0,5.92,4.8,10.72,10.72,10.72s10.72-4.8,10.72-10.72c0-2.1-.61-4.05-1.66-5.71-1.9,3.01-5.24,5.01-9.07,5.01Z" fill="url(#color-4)"/>
    <path class="color-4" d="m91.17,221.09c3.82,0,7.17-2,9.07-5.01-1.9-3.01-5.24-5.01-9.07-5.01s-7.17,2-9.07,5.01c1.9,3.01,5.24,5.01,9.07,5.01Z" fill="url(#color-4)"/>
    <path class="color-2" d="m140.31,170.85c0-3.08,1.18-5.87,3.11-7.98H40.07c-.09,0-.18.01-.27.01,2.22,2.15,3.6,5.16,3.6,8.49s-1.38,6.34-3.6,8.49c.09,0,.18.01.27.01h103.86c.18,0,.37-.01.55-.03-2.54-2.17-4.16-5.4-4.16-9h0Z" fill="url(#color-2)"/>
    <path class="color-1" d="m152.15,159.01c-3.45,0-6.56,1.49-8.72,3.85h.5c4.7,0,8.51,3.81,8.51,8.51s-3.51,8.19-7.95,8.48c2.06,1.76,4.74,2.83,7.67,2.83,6.54,0,11.83-5.3,11.83-11.83s-5.3-11.83-11.83-11.83h0Z" fill="url(#color-1)"/>
    <path class="color-4" d="m152.44,171.37c0-4.7-3.81-8.51-8.51-8.51h-.5c-1.92,2.11-3.11,4.9-3.11,7.98,0,3.61,1.62,6.83,4.16,9,4.44-.29,7.95-3.96,7.95-8.48h0Z" fill="url(#color-4)"/>
    <path class="color-1" d="m31.57,171.37c0-4.61,3.66-8.34,8.23-8.49-2.13-2.06-5.03-3.34-8.23-3.34-6.54,0-11.83,5.3-11.83,11.83s5.3,11.83,11.83,11.83c3.2,0,6.1-1.28,8.23-3.34-4.57-.15-8.23-3.88-8.23-8.49Z" fill="url(#color-1)"/>
    <path class="color-4" d="m43.4,171.37c0-3.34-1.38-6.34-3.6-8.49-4.57.15-8.23,3.88-8.23,8.49s3.66,8.34,8.23,8.49c2.22-2.15,3.6-5.16,3.6-8.49Z" fill="url(#color-4)"/>
    <path class="color-1" d="m53.71,76.9c-.17,0-.34.01-.51.03.18-.01.36-.02.53-.03h-.02Z" fill="url(#color-1)"/>
    <path class="color-2" d="m129.07,76.24c4.13-.1,7.62,2.59,8.71,6.29-.98-3.62-4.27-6.29-8.2-6.29H54.42c4.81.21,8.59,4.13,8.49,8.89,0,.44-.09,3.48-.61,8.12h58.69c-.52-4.63-.6-7.65-.61-8.1-.1-4.82,3.79-8.81,8.69-8.91h0Z" fill="url(#color-2)"/>
    <path class="color-1" d="m53.14,76.92c-4.01.26-7.26,3.29-7.84,7.2.67-3.85,3.88-6.82,7.84-7.2Z" fill="url(#color-1)"/>
    <path class="color-1" d="m157.93,138.35c-18.73-17.55-19.79-53.21-19.8-53.57-.01-.78-.15-1.53-.36-2.24.19.7.3,1.44.3,2.21,0,4.7-3.81,8.51-8.51,8.51h-8.58c1.51,13.55,6.72,40.89,24.7,57.74,1.72,1.61,3.92,2.41,6.12,2.41,2.34,0,4.68-.91,6.43-2.71,3.38-3.49,3.25-9.02-.3-12.34h0Z" fill="url(#color-1)"/>
    <path class="color-4" d="m138.07,84.75c0-.77-.11-1.5-.3-2.21-1.09-3.71-4.57-6.39-8.71-6.29-4.9.1-8.79,4.09-8.69,8.91,0,.44.09,3.47.61,8.1h8.58c4.7,0,8.51-3.81,8.51-8.51h0Z" fill="url(#color-4)"/>
    <path class="color-1" d="m54.24,76.88h-.2c-.1,0-.21.01-.32.01h.7c-.06,0-.13-.01-.18-.01Z" fill="url(#color-1)"/>
    <path class="color-1" d="m45.2,84.75c0-.44.04-.86.1-1.27-.07.42-.13.84-.14,1.28,0,.36-1.07,36.02-19.8,53.57-3.55,3.33-3.68,8.85-.3,12.34,1.75,1.8,4.08,2.71,6.43,2.71,2.2,0,4.4-.8,6.12-2.41,17.97-16.84,23.19-44.15,24.7-57.72h-8.6c-4.7,0-8.51-3.81-8.51-8.51h0Z" fill="url(#color-1)"/>
    <path class="color-4" d="m54.42,76.24h-.7c-.18,0-.36,0-.53.03h-.04c-3.96.39-7.17,3.37-7.84,7.2-.06.41-.1.84-.1,1.27,0,4.7,3.81,8.51,8.51,8.51h8.6c.52-4.64.6-7.67.61-8.12.1-4.76-3.68-8.69-8.49-8.89Z" fill="url(#color-4)"/>
    <path class="color-1" d="m129.23,155.55c-.46-6.52-6.11-11.43-12.63-10.98-6.03.42-10.68,5.3-10.98,11.18l1.5-1.15c3.88-3,9.46-2.27,12.45,1.61,2.83,3.67,2.34,8.85-1.01,11.94,6.37-.61,11.13-6.18,10.68-12.6h0Z" fill="url(#color-1)"/>
    <path class="color-4" d="m119.57,156.2c-2.99-3.88-8.56-4.6-12.45-1.61l-1.5,1.15c-.02.48-.03.96,0,1.45.46,6.52,6.11,11.43,12.63,10.98.1,0,.2-.03.3-.04,3.35-3.08,3.85-8.27,1.01-11.94h0Z" fill="url(#color-4)"/>
    <path class="color-2" d="m123.43,260.19c2.64,0,4.81-2.16,4.81-4.81s-2.16-4.81-4.81-4.81h-12.07c.02,2.15.24,5.81,1.29,9.61h10.78Z" fill="url(#color-4)"/>
    <path class="color-2" d="m54.96,250.58c-2.64,0-4.81,2.16-4.81,4.81s2.17,4.81,4.81,4.81h39.51c-.68-3.85-.86-7.26-.87-9.61h-38.64Z" fill="url(#color-2)"/>
    <path class="color-1" d="m111.39,248.63c.37-4.87-3.27-9.13-8.14-9.52-4.9-.39-9.16,3.25-9.56,8.14-.02.33-.11,1.52-.1,3.32h17.76c-.01-1.16.03-1.89.04-1.95h0Z" fill="url(#color-1)"/>
    <path class="color-1" d="m126.03,272.86c-4.15-.5-10.02-2.21-13.01-11.4-.14-.42-.26-.84-.38-1.26h-18.17c.35,1.96.82,4.03,1.48,6.15,4.32,13.94,14.26,22.52,27.99,24.16.36.04.71.06,1.06.06,4.43,0,8.27-3.31,8.8-7.83.58-4.87-2.9-9.28-7.77-9.86h0Z" fill="url(#color-1)"/>
    <path class="color-4" d="m111.35,250.58h-17.76c.01,2.36.19,5.77.87,9.61h18.17c-1.05-3.8-1.26-7.46-1.29-9.61Z" fill="url(#color-4)"/>
    <path class="color-3" d="m82,196.38l35.96-27.72c.21-.16.41-.33.6-.51-.1,0-.2.03-.3.04-6.52.46-12.17-4.46-12.63-10.98-.04-.49-.03-.97,0-1.45l-41.23,31.8c-3.81,2.94-4.56,8.36-1.76,12.23,3.16-2.14,6.96-3.4,11.04-3.4h8.34-.01Z" fill="url(#color-3)"/>
    <path class="color-4" d="m69.81,203.45c1.89,0,3.8-.61,5.41-1.85l6.78-5.23h-8.34c-4.08,0-7.88,1.26-11.04,3.4.05.07.1.15.15.21,1.75,2.27,4.38,3.45,7.03,3.45h0Z" fill="url(#color-4)"/>
    <path fill="#ffffff" class="color-5" d="m35.44,128.71h18.99c1.8,0,3.27,1.46,3.27,3.27s-1.46,3.27-3.27,3.27h-.27s-1.04.13-1.04,1c0,.24.09.42.21.56h11.54c1.8,0,3.27,1.46,3.27,3.27s-1.46,3.27-3.27,3.27h-18.99c-1.8,0-3.27-1.46-3.27-3.27s1.46-3.27,3.27-3.27h2.78c.1-.13.16-.3.16-.54,0-1-1.12-1.02-1.12-1.02h-12.26c-1.8,0-3.27-1.46-3.27-3.27s1.46-3.27,3.27-3.27h0Z"/>
    <path fill="#ffffff" class="color-5" d="m121.14,209.14h-4.25c-1.84,0-3.33,1.49-3.33,3.33s1.49,3.33,3.33,3.33h4.25c1.84,0,3.33-1.49,3.33-3.33s-1.49-3.33-3.33-3.33Z"/>
    <path fill="#ffffff" class="color-5" d="m71.77,287.23h-4.25c-1.84,0-3.33,1.49-3.33,3.33s1.49,3.33,3.33,3.33h4.25c1.84,0,3.33-1.49,3.33-3.33s-1.49-3.33-3.33-3.33Z"/>
    <path fill="#ffffff" class="color-5" d="m147.24,209.14h-17.4c-1.84,0-3.33,1.49-3.33,3.33s1.49,3.33,3.33,3.33h17.4c1.84,0,3.33-1.49,3.33-3.33s-1.49-3.33-3.33-3.33Z"/>
    <path fill="#ffffff" class="color-5" d="m88.42,278.26h-17.4c-1.84,0-3.33,1.49-3.33,3.33s1.49,3.33,3.33,3.33h17.4c1.84,0,3.33-1.49,3.33-3.33s-1.49-3.33-3.33-3.33Z"/>
    <path fill="#ffffff" class="color-5" d="m146.96,78.02h-6.18c-1.81,0-3.27,1.46-3.27,3.27s1.46,3.27,3.27,3.27h6.18c1.81,0,3.27-1.46,3.27-3.27s-1.46-3.27-3.27-3.27Z"/>
    <path fill="#ffffff" class="color-5" d="m141.33,69.71h-18.99c-1.8,0-3.27,1.46-3.27,3.27s1.46,3.27,3.27,3.27h.27s1.04.13,1.04,1c0,.24-.09.42-.21.56h-11.54c-1.8,0-3.27,1.46-3.27,3.27s1.46,3.27,3.27,3.27h18.99c1.8,0,3.27-1.46,3.27-3.27s-1.46-3.27-3.27-3.27h-2.78c-.1-.13-.16-.3-.16-.54,0-1,1.12-1.02,1.12-1.02h12.26c1.8,0,3.27-1.46,3.27-3.27s-1.46-3.27-3.27-3.27h0Z"/>
</svg>