<?xml version="1.0" encoding="UTF-8"?>
<svg id="mid02" xmlns="http://www.w3.org/2000/svg" viewBox="0 0 185 308">
  <defs>
    <style>
      <!-- .color-4 {
        fill: #ffcf08;
      }
      .color-1 {
        fill: #ff6836;
      }
      .color-3 {
        fill: #404272;
      }
      .color-2 {
        fill: #2aaeb3;
      }
      .cls-5 {
        stroke: #ff6836;
      }
      .cls-5, .stroke-width stroke-linecap stroke-color-4 {
        stroke-linecap: round;
        stroke-linejoin: round;
      }
      .cls-5, .stroke-width stroke-linecap stroke-color-4, .cls-7 {
        fill: none;
        stroke-width: .5px;
      }
      .stroke-width stroke-linecap stroke-color-4, .cls-7 {
        stroke: #ffcf08;
      }
      .cls-7 {
        stroke-miterlimit: 10;
      } -->

      .stroke-width {
        stroke-width: .5px;
      }

      .stroke-linecap{
        stroke-linecap: round;
      }

      .stroke-color-1 {
        stroke: #ff6836;
      }

      .stroke-color-2 {
        stroke: #2aaeb3;
      }

      .stroke-color-3 {
        stroke: #404272;
      }

      .stroke-color-4 {
        stroke: #ffcf08;
      }
    </style>
    <linearGradient id="color-1" gradientTransform="rotate(90)">
      <stop offset="0%" stop-color="#ff6836" />
      <stop offset="100%" stop-color="#ff6836" />
      <stop offset="100%" stop-color="white" />
    </linearGradient>
    <linearGradient id="color-2" gradientTransform="rotate(90)">
      <stop offset="0%" stop-color="#2aaeb3" />
      <stop offset="100%" stop-color="#2aaeb3" />
      <stop offset="100%" stop-color="white" />
    </linearGradient>
    <linearGradient id="color-3" gradientTransform="rotate(90)">
      <stop offset="0%" stop-color="#404272" />
      <stop offset="100%" stop-color="#404272" />
      <stop offset="100%" stop-color="white" />
    </linearGradient>
    <linearGradient id="color-4" gradientTransform="rotate(90)">
      <stop offset="0%" stop-color="#ffcf08" />
      <stop offset="100%" stop-color="#ffcf08" />
      <stop offset="100%" stop-color="white" />
    </linearGradient>
  </defs>
  <path class="stroke-width stroke-linecap stroke-color-4" d="m88.86,227.02c.97-3.07-1.92-4.91-4.39-5.88-4.47-1.76-9.36-2.33-14.14-2.47-2.18-.06-4.52.27-6.68,0-1.37-.18-2.45-.97-3.12-2.15-.54-.95-.87-2.14-.87-3.23,0-1.18.48-2.27,1.37-3.07,1.18-1.06,2.49-1.41,4.06-1.46,1.74-.05,3.51.02,5.24.02h5.02" fill="none"/>
  <path class="stroke-width stroke-linecap stroke-color-4" d="m103.83,246.06c-1.76-.1-2.32.05-2.82.4-.59.41-1.18,1.32-1.18,2.2v10.71s-.21,2.59,1.7,2.59,5.7,1.72,5.7,5.27-2.63,4.73-2.63,4.73" fill="none"/>
  <path class="stroke-width stroke-linecap stroke-color-4" d="m160.05,296.07s-10.39-22.01-7.22-27.02c2.9-4.58,6.72-4.27,6.72-4.27,7.58,0,7.04,9.38,7.04,9.38,0,9.59-7.73,8.74-7.73,8.74-8.15,0-7.65-8.65-7.65-8.65,0,0,.86-7.55.27-15.12l.11,1.22s-1.69-17.3,1.48-21.65c2.9-3.98,6.72-3.71,6.72-3.71,7.58,0,7.04,8.16,7.04,8.16,0,8.34-7.73,7.6-7.73,7.6-8.15,0-7.65-7.52-7.65-7.52,0,0,.86-6.57.27-13.15l.18,2.83s-1.69-17.3,1.48-21.65c2.9-3.98,6.72-3.71,6.72-3.71,7.58,0,7.04,8.16,7.04,8.16,0,8.34-7.73,7.6-7.73,7.6-8.15,0-7.65-7.52-7.65-7.52v-32.13c0-6.61-5.49-5.4-5.49-5.4" fill="none"/>
  <path class="stroke-width stroke-linecap stroke-color-4" d="m24.95,296.07s10.39-22.01,7.22-27.02c-2.9-4.58-6.72-4.27-6.72-4.27-7.58,0-7.04,9.38-7.04,9.38,0,9.59,7.73,8.74,7.73,8.74,8.15,0,7.65-8.65,7.65-8.65,0,0-.86-7.55-.27-15.12l-.11,1.22s1.69-17.3-1.48-21.65c-2.9-3.98-6.72-3.71-6.72-3.71-7.58,0-7.04,8.16-7.04,8.16,0,8.34,7.73,7.6,7.73,7.6,8.15,0,7.65-7.52,7.65-7.52,0,0-.86-6.57-.27-13.15l-.18,2.83s1.69-17.3-1.48-21.65c-2.9-3.98-6.72-3.71-6.72-3.71-7.58,0-7.04,8.16-7.04,8.16,0,8.34,7.73,7.6,7.73,7.6,8.15,0,7.65-7.52,7.65-7.52v-32.13c0-6.61,5.49-5.4,5.49-5.4" fill="none"/>
  <path class="stroke-width stroke-linecap stroke-color-4" d="m123.79,235.14s-4.47-16.43,7.27-16.43c7.41,0,10.31-2.24,10.31-8.83,0,0-.38-7.95-8.69-7.95-7.31,0-21.08-.12-21.08-.12" fill="none"/>
  <path class="stroke-width stroke-linecap stroke-color-4" d="m66.87,184.57s.25-6.02,3.19-6.02,1.05-4.85,1.05-4.85c0,0-1.61-3.86,1.77-3.54" fill="none"/>
  <path class="stroke-width stroke-linecap stroke-color-4" d="m78.19,214.66h27.78" fill="none"/>
  <path class="stroke-width stroke-linecap stroke-color-4" d="m78.19,223.72h27.78" fill="none"/>
  <path class="stroke-width stroke-linecap stroke-color-4" d="m84.45,169.75s-2.69-7.17-3.23,1.54c-.3,4.84,2.95,8.82-1.05,12.41l-2.39,2.2s-.31,1.08-1.54.88" fill="none"/>
  <path class="stroke-width stroke-linecap stroke-color-4" d="m97.06,206.35s2.89,6.2,3.28-1.67c.23-4.56-3.33-8.09,1.02-11.92,0,0,2.67-2.42,4.76-2.52" fill="none"/>
  <path class="stroke-width stroke-linecap stroke-color-4" d="m155.12,58.32s-3.26-30.32,2.84-30.32c6.58,0,5.51-6.42,5.51-6.42" fill="none"/>
  <path class="stroke-width stroke-linecap stroke-color-4" d="m27.27,12.13s-7.13-1.18-5.83,6.77c.58,3.56,1.32,6.7,2.51,8.75,1.43,2.48,2.28,5.24,2.61,8.08,1.15,9.7,3.38-17.45,1.98,20.5" fill="none"/>
  <path class="stroke-width stroke-linecap stroke-color-4" d="m137.9,64.2c-1.21-.1-1.59.05-1.94.41-.4.42-.81,1.34-.81,2.23v10.9s-.14,2.63,1.17,2.63,3.92,1.74,3.92,5.36-4.11,4.8-4.11,4.8" fill="none"/>
  <path class="stroke-width stroke-linecap stroke-color-4" d="m99.26,64.2c1.21-.1,1.59.05,1.94.41.4.42.81,1.34.81,2.23v10.9s.14,2.63-1.17,2.63-3.92,1.74-3.92,5.36,4.11,4.8,4.11,4.8" fill="none"/>
  <path class="stroke-width stroke-linecap stroke-color-4" d="m55.23,21.37s-2.69-7.17-3.23,1.54c-.3,4.84,2.95,8.82-1.05,12.41l-2.39,2.2s-.31,1.08-1.54.88" fill="none"/>
  <path class="stroke-width stroke-linecap stroke-color-4" d="m67.83,57.96s2.89,6.2,3.28-1.67c.23-4.56-3.33-8.09,1.02-11.92,0,0,2.67-2.42,4.76-2.52" fill="none"/>
  <path class="stroke-width stroke-linecap stroke-color-4" d="m55.23,87.8s-2.69-7.17-3.23,1.54c-.3,4.84,2.95,8.82-1.05,12.41l-2.39,2.2s-.31,1.08-1.54.88" fill="none"/>
  <path class="stroke-width stroke-linecap stroke-color-4" d="m67.83,124.39s2.89,6.2,3.28-1.67c.23-4.56-3.33-8.09,1.02-11.92,0,0,2.67-2.42,4.76-2.52" fill="none"/>
  <path class="stroke-width stroke-linecap stroke-color-4" d="m48.98,62.53h27.78" fill="none"/>
  <path class="stroke-width stroke-linecap stroke-color-4" d="m49.86,79.1h27.78" fill="none"/>
  <path class="stroke-width stroke-linecap stroke-color-4" d="m49.86,70.82h27.78" fill="none"/>
  <path class="stroke-width stroke-linecap stroke-color-4" d="m104.63,29.77h27.78" fill="none"/>
  <path class="stroke-width stroke-linecap stroke-color-4" d="m82.63,89.03s1.77.23,1.77-1.4-1.77-1.4-1.77-1.4" fill="none"/>
  <path class="stroke-width stroke-linecap stroke-color-4" d="m104.63,46.39h27.78" fill="none"/>
  <path class="stroke-width stroke-linecap stroke-color-4" d="m104.63,38.06h27.78" fill="none"/>
  <path class="stroke-width stroke-linecap stroke-color-4" d="m123.55,63.84s.91-7.1-4.69-6.46c0,0-2.91-.1-2.91,3.23s-1.13,3.57-1.13,3.57c0,0-4.97,1.47-2.74-2.74,0,0,1.76-2.98,1.57,1.8" fill="none"/>
  <path class="stroke-width stroke-linecap stroke-color-4" d="m99.48,95.11s-.42,6.42,3.49,6.42-3.33,19.01-3.33,19.01" fill="none"/>
  <path class="stroke-width stroke-linecap stroke-color-4" d="m113.6,80.81s.67-6.29,4.87-6.29c0,0,3.19.1,3.19,2.83s-1.11,8.1,2.81,8.1,2.9-6.79,2.9-6.79c0,0-.3-2.54-2.77-1.9-2.29.59-1.01,3.84-1.01,3.84" fill="none"/>
  <path class="stroke-width stroke-linecap stroke-color-1" d="m137.7,95.11s.64,6.42-3.27,6.42,3.33,19.01,3.33,19.01" fill="none"/>
  <path class="color-1" d="m134.33,109.95s1.93,10.72,4.35,13.26c0,0,.93,1.2,2.04,0,1.91-2.08,3.5-1.39,3.5-1.39,0,0-9.42-10.23-10.53-14.62l.64,2.74Z" fill="url(#color-1)"/>
  <path class="color-1" d="m114.5,241.03c0,5-6.36,5.23-6.36,5.23-7.63,0-7.71-6.12-7.71-6.12v-18.22c0,1.78-2.02,1.98-4.19,1.98-1.96,0-1.99,1.54-1.98,1.85v14.38h0c0,7.59,5.61,10.68,10.76,11.61,6.37,1.15,9.72-1.76,9.72-1.76l-.23-8.95h0Z" fill="url(#color-1)"/>
  <path class="color-1" d="m77.28,190.52h29.62v-5.92h-29.62v5.92Z" fill="url(#color-1)"/>
  <path class="color-1" d="m123.33,61.69s1.48,6.93,4.11,6.93,10.45,0,10.45,8.25v5.31s-.63-2.2-1.43-3.47c0,0-2.89-5.53-7.48-5.02,0,0-5.65.73-5.65-3.84v-8.19h0Z" fill="url(#color-1)"/>
  <path class="color-1" d="m113.83,79.09s-1.48,4.22-4.11,4.22-10.45,0-10.45,8.25v5.31s.63-2.2,1.43-3.47c0,0,2.89-5.53,7.48-5.02,0,0,5.65.73,5.65-3.84v-5.47Z" fill="url(#color-1)"/>
  <path class="color-1" d="m54.86,86.53s2.15,5.98,5.98,5.98,15.21,0,15.21,7.13v4.58s-.91-1.9-2.09-2.99c0,0-4.2-4.78-10.88-4.33,0,0-8.21.64-8.21-3.31v-7.06h0Z" fill="url(#color-1)"/>
  <path class="color-1" d="m115.54,44.15h5.96v-12.17h-5.96v12.17Z" fill="url(#color-1)"/>
  <path class="color-1" d="m47.03,41.34s2.15,5.98,5.98,5.98,15.21,0,15.21,7.13v4.58s-.91-1.9-2.09-2.99c0,0-4.2-4.78-10.88-4.33,0,0-8.21.64-8.21-3.31v-7.06h0Z" fill="url(#color-1)"/>
  <path class="color-1" d="m82.55,278.71c1.94,0,3.51-1.57,3.51-3.51v-4.47c-.04.25-.43.96-3.51.96-1.94,0-3.51,1.57-3.51,3.51s1.57,3.51,3.51,3.51Z" fill="url(#color-1)"/>
  <path class="color-1" d="m112.38,278.71c1.94,0,3.51-1.57,3.51-3.51v-4.47c-.04.25-.43.96-3.51.96-1.94,0-3.51,1.57-3.51,3.51s1.57,3.51,3.51,3.51Z" fill="url(#color-1)"/>
  <path class="color-2" d="m72.6,278.71c1.94,0,3.51-1.57,3.51-3.51v-4.47c-.04.25-.43.96-3.51.96-1.94,0-3.51,1.57-3.51,3.51s1.57,3.51,3.51,3.51Z" fill="url(#color-2)"/>
  <path class="color-2" d="m89.08,229.65v-3.89c0,1.78-2.02,1.98-4.19,1.98s-1.98,1.87-1.98,1.91v9.38c0,6.77-6.05,9.51-8.22,10.29-.44.16-1.21.35-1.67.35h-2.74c1.24,0,1.55,1.1,1.63,1.73.09.7.3,1.39.67,1.96.48.74,1.08,1.53,2.37,1.34,2.59-.38,5.39-1.61,5.39-1.61,8.69-3.1,8.74-14.05,8.74-14.05v-9.38h0Z" fill="url(#color-2)"/>
  <path class="color-2" d="m84.08,168.48s2.15,5.98,5.98,5.98,15.21,0,15.21,7.13v4.58s-.91-1.9-2.09-2.99c0,0-4.2-4.78-10.88-4.33,0,0-8.21.64-8.21-3.31v-7.06h0Z" fill="url(#color-2)"/>
  <path class="color-2" d="m113.83,46.52s-1.48,6.93-4.11,6.93-10.45,0-10.45,8.25v5.31s.63-2.2,1.43-3.47c0,0,2.89-5.53,7.48-5.02,0,0,5.65.73,5.65-3.84v-8.19h0Z" fill="url(#color-2)"/>
  <path class="color-2" d="m81.89,116.69v-24.74c0-2.92,2.05-3.31,2.05-3.31h-2.15c-6.48,0-6.08,3.32-6.08,3.32v24.73s.07,3.12,6.17,3.12h1.36s-1.34-.37-1.34-3.12h0Z" fill="url(#color-2)"/>
  <path class="stroke-width stroke-linecap stroke-color-4" d="m43.23,52.63s-1.77-.23-1.77,1.4,1.77,1.4,1.77,1.4" fill="none"/>
  <path class="stroke-width stroke-linecap stroke-color-4" d="m72.27,201.01s-1.77-.23-1.77,1.4,1.77,1.4,1.77,1.4" fill="none"/>
  <path class="color-4" d="m103.25,109.95s-1.93,10.72-4.35,13.26c0,0-2.02.82-2.72-.66-.97-2.08-1.79-1.68-1.79-1.68,0,0,6.05-5.4,9.5-13.67l-.64,2.74h0Z" fill="url(#color-4)"/>
  <path class="color-4" d="m92.49,278.71c1.94,0,3.51-1.57,3.51-3.51v-4.47c-.04.25-.43.96-3.51.96-1.94,0-3.51,1.57-3.51,3.51s1.57,3.51,3.51,3.51Z" fill="url(#color-4)"/>
  <path class="color-4" d="m102.44,278.71c1.94,0,3.51-1.57,3.51-3.51v-4.47c-.04.25-.43.96-3.51.96-1.94,0-3.51,1.57-3.51,3.51s1.57,3.51,3.51,3.51Z" fill="url(#color-4)"/>
  <path class="color-4" d="m122.33,278.71c1.94,0,3.51-1.57,3.51-3.51v-4.47c-.04.25-.43.96-3.51.96-1.94,0-3.51,1.57-3.51,3.51s1.57,3.51,3.51,3.51Z" fill="url(#color-4)"/>
  <path class="color-4" d="m132.88,260.79H54.75s-2.65,0-2.65,0c1.34,0,.87,2.96.87,2.96-.37,3.09,1.54,3.21,1.76,3.22h75.5s2.17.06,1.78-3.21c0,0-.47-2.96.87-2.96Z" fill="url(#color-4)"/>
  <path class="color-4" d="m128.87,245.66c-3.2,0-5.8-2.59-5.8-5.8v-7.38c.06.42.7,1.58,5.8,1.58,3.2,0,5.8,2.59,5.8,5.8s-2.59,5.8-5.8,5.8h0Z" fill="url(#color-4)"/>
  <path class="color-4" d="m111.09,231.65v-24.74c0-2.93,2.05-3.32,2.05-3.32h-2.15c-6.48,0-6.08,3.32-6.08,3.32v24.74s.09,3.12,6.17,3.12h1.36s-1.35-.37-1.35-3.12Z" fill="url(#color-4)"/>
  <path class="color-4" d="m61.3,196.36c3.2,0,5.8-2.59,5.8-5.8v-7.38c-.06.42-.7,1.58-5.8,1.58-3.2,0-5.8,2.59-5.8,5.8s2.59,5.8,5.8,5.8h0Z" fill="url(#color-4)"/>
  <path class="color-4" d="m111.11,198.85v-24.73c0-2.93,2.05-3.32,2.05-3.32h-2.15c-6.36,0-6.09,3.29-6.08,3.32v24.74s.09,3.12,6.17,3.12h1.36s-1.34-.37-1.34-3.12h0Z" fill="url(#color-4)"/>
  <path class="color-4" d="m76.24,189.73s2.15,5.98,5.98,5.98,15.21,0,15.21,7.13v4.58s-.91-1.9-2.09-2.99c0,0-4.2-4.78-10.88-4.33,0,0-8.21.64-8.21-3.31v-7.06h0Z" fill="url(#color-4)"/>
  <path class="color-4" d="m73.17,170.03h-2.15s2.05.39,2.05,3.32v24.73h-.01c0,2.75-1.34,3.12-1.34,3.12h1.36c6.08,0,6.17-3.09,6.17-3.12h0v-24.74c.01-.1.3-3.31-6.08-3.31Z" fill="url(#color-4)"/>
  <path class="color-4" d="m144.18,178.07s-32.96-12.63-48.45-37.6v-3.89c0,1.78-2.02,1.98-4.19,1.98s-1.98,1.91-1.98,1.91h0c-15.48,24.96-48.42,37.6-48.45,37.6h-3.48c1.6,0,1.78,2.02,1.78,4.19,0,2.89,1.71,1.98,1.71,1.98,33.31-14.45,46.46-29,51.54-37.15,5.08,8.15,18.23,22.69,51.54,37.15h0s1.71,1.28,1.71-1.98c0-2.18.18-4.19,1.78-4.19h-3.49Z" fill="url(#color-4)"/>
  <path class="color-4" d="m56.88,149.88c3.2,0,5.8-2.59,5.8-5.8v-7.38c-.06.42-.7,1.58-5.8,1.58-3.2,0-5.8,2.59-5.8,5.8s2.59,5.8,5.8,5.8h0Z" fill="url(#color-4)"/>
  <path class="color-4" d="m128.11,149.88c-3.2,0-5.8-2.59-5.8-5.8v-7.38c.06.42.7,1.58,5.8,1.58,3.2,0,5.8,2.59,5.8,5.8s-2.59,5.8-5.8,5.8h0Z" fill="url(#color-4)"/>
  <path class="color-4" d="m122.3,128.02v-3.6s-.15,3.53-3.16,3.6h-53.29c-3.01-.08-3.16-3.6-3.16-3.6v3.6h0v6.16h0v3.61s.15-3.54,3.18-3.6h53.26c3.03.06,3.18,3.6,3.18,3.6v-9.78h0Z" fill="url(#color-4)"/>
  <path class="color-4" d="m28.91,46.49v-3.89c0,1.78-2.02,1.98-4.19,1.98s-1.98,1.91-1.98,1.91v64.85c0-1.78,2.02-1.98,4.19-1.98s1.98-1.89,1.98-1.91v-60.95Z" fill="url(#color-4)"/>
  <path class="color-4" d="m154.16,46.49v60.95c0,.36.08,1.83,1.98,1.83,2.18,0,4.19.2,4.19,1.98V46.5s.19-1.92-1.98-1.92-4.19-.2-4.19-1.98v3.89" fill="url(#color-4)"/>
  <path class="color-4" d="m123.33,46.52s1.48,6.93,4.11,6.93,10.45,0,10.45,8.25v5.31s-.63-2.2-1.43-3.47c0,0-2.89-5.53-7.48-5.02,0,0-5.65.73-5.65-3.84v-8.19h0Z" fill="url(#color-4)"/>
  <path class="color-4" d="m123.33,79.57s1.48,4.22,4.11,4.22,10.45,0,10.45,8.25v5.31s-.63-2.2-1.43-3.47c0,0-2.89-5.53-7.48-5.02,0,0-5.65.73-5.65-3.84v-5.47Z" fill="url(#color-4)"/>
  <path class="color-4" d="m113.83,62.35s-1.48,6.02-4.11,6.02-10.45,0-10.45,8.25v5.31s.63-2.2,1.43-3.47c0,0,2.89-5.53,7.48-5.02,0,0,5.65.73,5.65-3.84v-7.28h0Z" fill="url(#color-4)"/>
  <path class="color-4" d="m47.03,107.77s2.15,5.98,5.98,5.98,15.21,0,15.21,7.13v4.58s-.91-1.9-2.09-2.99c0,0-4.2-4.78-10.88-4.33,0,0-8.21.64-8.21-3.31v-7.06h0Z" fill="url(#color-4)"/>
  <path class="color-4" d="m48.06,108.56h29.62v-5.92h-29.62v5.92Z" fill="url(#color-4)"/>
  <path class="color-4" d="m50.03,91.43s.4-3.32-6.08-3.32h-2.15s2.05.39,2.05,3.32v24.73c0,2.75-1.34,3.12-1.34,3.12h1.36c6.1,0,6.17-3.12,6.17-3.12v-24.73h0Z" fill="url(#color-4)"/>
  <path class="color-4" d="m81.89,83.28v-24.74c0-2.92,2.05-3.31,2.05-3.31h-2.15c-6.48,0-6.08,3.32-6.08,3.32v24.73s.07,3.12,6.17,3.12h1.36s-1.34-.37-1.34-3.12h0Z" fill="url(#color-4)"/>
  <path class="color-4" d="m50.03,58.65s.4-3.32-6.08-3.32h-2.15s2.05.39,2.05,3.32v24.73c0,2.75-1.34,3.12-1.34,3.12h1.36c6.1,0,6.17-3.12,6.17-3.12v-24.73h0Z" fill="url(#color-4)"/>
  <path class="color-4" d="m105.68,25.84s.4-3.32-6.08-3.32h-2.15s2.05.39,2.05,3.32v24.73c0,2.75-1.34,3.12-1.34,3.12h1.36c6.1,0,6.17-3.12,6.17-3.12v-24.73h0Z" fill="url(#color-4)"/>
  <path class="color-4" d="m81.89,49.5v-24.74c0-2.92,2.05-3.31,2.05-3.31h-2.15c-6.48,0-6.08,3.32-6.08,3.32v24.73s.07,3.12,6.17,3.12h1.36s-1.34-.37-1.34-3.12h0Z" fill="url(#color-4)"/>
  <path class="color-4" d="m48.06,39.99h29.62v-5.92h-29.62v5.92Z" fill="url(#color-4)"/>
  <path class="color-4" d="m54.86,20.1s2.15,5.98,5.98,5.98,15.21,0,15.21,7.13v4.58s-.91-1.9-2.09-2.99c0,0-4.2-4.78-10.88-4.33,0,0-8.21.64-8.21-3.31v-7.06h0Z" fill="url(#color-4)"/>
  <path class="color-4" d="m156.56,11.95H25.82s2.4.34,2.4,1.57-.47,4.6,2.44,4.6h125.9c6.43,0,7.14,5.15,7.14,5.15,0-11.89-7.14-11.32-7.14-11.32h0Z" fill="url(#color-4)"/>
  <path class="color-3" d="m79.24,231.65v-24.73s.4-3.32-6.08-3.32h-2.15s2.05.39,2.05,3.31v24.74c0,2.75-1.34,3.12-1.34,3.12h1.36c6.1,0,6.17-3.12,6.17-3.12h0Z" fill="url(#color-3)"/>
  <path class="color-3" d="m137.54,50.47v-24.74c0-2.92,2.05-3.31,2.05-3.31h-2.15c-6.48,0-6.08,3.32-6.08,3.32v24.73s.07,3.12,6.17,3.12h1.36s-1.34-.37-1.34-3.12h0Z" fill="url(#color-3)"/>
  <path class="color-3" d="m50.03,24.76s.4-3.32-6.08-3.32h-2.15s2.05.39,2.05,3.32v24.73c0,2.75-1.34,3.12-1.34,3.12h1.36c6.1,0,6.17-3.12,6.17-3.12v-24.73h0Z" fill="url(#color-3)"/>
  <path class="color-3" d="m62.66,278.71c1.94,0,3.51-1.57,3.51-3.51v-4.47c-.04.25-.43.96-3.51.96-1.94,0-3.51,1.57-3.51,3.51s1.57,3.51,3.51,3.51Z" fill="url(#color-3)"/>
</svg>