<?xml version="1.0" encoding="UTF-8"?>
<svg xmlns="http://www.w3.org/2000/svg" viewBox="0 0 185 308">
  <defs>
    <style>
      .stroke-width {
        stroke-width: 1.3px;
      }

      .stroke-color-1 {
        stroke: #ffcf08;
      }

      .stroke-color-2 {
        stroke: #fea39c;
      }

      .stroke-color-3 {
        stroke:#327eed;
      }

      .stroke-color-4 {
        stroke: #2032ac;
      }      
    </style>  
    <linearGradient id="color-1" gradientTransform="rotate(90)">
      <stop offset="0%" stop-color="#ffcf08" />
      <stop offset="100%" stop-color="#ffcf08" />
      <stop offset="100%" stop-color="white" />
    </linearGradient>
    <linearGradient id="color-2" gradientTransform="rotate(90)">
      <stop offset="0%" stop-color="#fea39c" />
      <stop offset="100%" stop-color="#fea39c" />
      <stop offset="100%" stop-color="white" />
    </linearGradient>
    <linearGradient id="color-3" gradientTransform="rotate(90)">
      <stop offset="0%" stop-color="#327eed" />
      <stop offset="100%" stop-color="#327eed" />
      <stop offset="100%" stop-color="white" />
    </linearGradient>   
    <linearGradient id="color-4" gradientTransform="rotate(90)">
      <stop offset="0%" stop-color="#2032ac" />
      <stop offset="100%" stop-color="#2032ac" />
      <stop offset="100%" stop-color="white" />
    </linearGradient>  
  </defs>
    <path class="color-1" d="m85.78,283.11c2.21,0,4-1.79,4-4s-1.79-4-4-4-4,1.79-4,4,1.79,4,4,4Z" fill="url(#color-1)"/>
    <path class="color-2" d="m162.99,179.2c2.21,0,4-1.79,4-4s-1.79-4-4-4-4,1.79-4,4,1.79,4,4,4Z" fill="url(#color-2)"/>
    <path class="color-2" d="m127.61,17.13c2.21,0,4-1.79,4-4s-1.79-4-4-4-4,1.79-4,4,1.79,4,4,4Z" fill="url(#color-2)"/>
    <path class="color-1" d="m68.37,24.13c2.21,0,4-1.79,4-4s-1.79-4-4-4-4,1.79-4,4,1.79,4,4,4Z" fill="url(#color-1)"/>
    <path class="color-1" d="m28.58,158.13c2.21,0,4-1.79,4-4s-1.79-4-4-4-4,1.79-4,4,1.79,4,4,4Z" fill="url(#color-1)"/>
    <path class="color-1" d="m151.23,170.14c2.21,0,4-1.79,4-4s-1.79-4-4-4-4,1.79-4,4,1.79,4,4,4Z" fill="url(#color-1)"/>
    <path class="color-4" d="m71.79,288.49c1.66,0,3-1.34,3-3s-1.34-3-3-3-3,1.34-3,3,1.34,3,3,3Z" fill="url(#color-4)"/>
    <path class="color-4" d="m21.42,171.33c1.66,0,3-1.34,3-3s-1.34-3-3-3-3,1.34-3,3,1.34,3,3,3Z" fill="url(#color-4)"/>
    <path class="color-3" d="m52.87,16.13c1.66,0,3-1.34,3-3s-1.34-3-3-3-3,1.34-3,3,1.34,3,3,3Z" fill="url(#color-3)"/>
    <path class="color-3" d="m91.25,53.06c34.78-1.38,55.81,36.19,45.31,70.55-8.22,24.97-9.09,14.52-11.7,30.66,8.02,1.25,8.51,13.57.64,15.46.26,2.04.55,4.02.87,5.91,11.58-2,15.33,14.11,3.54,16.08-.15,3.03,27.72,80.12,46.27,66.9,3.5-2.97,3.92-8.22.95-11.72h.01c-24.42-28.37-37.73-69.62-35.4-93.89,18.97-27.69,21.55-81.63-14.51-106.3H56.5c-36.09,24.65-33.5,78.61-14.53,106.3,2.28,24.4-10.93,65.38-35.4,93.91-2.97,3.5-2.55,8.74.95,11.72,18.62,13.05,46.17-63.28,46.27-66.9-11.96-1.92-8.14-18.14,3.54-16.09.3-1.79.59-3.68.83-5.61-10.62-.06-9.94-16.53.66-15.92-2.65-16-3.48-5.59-11.68-30.51-11.32-34.05,12.89-73.12,44.11-70.56Z" fill="url(#color-3)"/>
    <path class="color-1" d="m123.35,170.06c.75,0,1.48-.11,2.17-.31-.65-5.18-1.01-10.66-.64-15.47-.5-.1-1.01-.15-1.53-.15H58.83c.39,4.93.01,10.59-.67,15.92h65.19Z" fill="url(#color-1)"/>
    <path class="color-2" d="m125.52,169.74c3.34-.95,5.79-4.01,5.79-7.65,0-3.87-2.76-7.1-6.43-7.81-.37,4.8,0,10.28.64,15.47h0Z" fill="url(#color-2)"/>
    <path class="color-2" d="m58.83,154.13h-.57c-4.4,0-7.96,3.57-7.96,7.96s3.51,7.91,7.87,7.96c.68-5.32,1.07-10.99.67-15.92h0Z" fill="url(#color-2)"/>
    <path class="color-4" d="m126.4,175.65H57.33c-1.11,6.64-2.44,11.95-2.79,13.29-.24.91-.48,1.84-.75,2.8.23.02.46.03.69.03h74.68c.26,0,.53-.01.78-.04-.26-.95-.51-1.88-.75-2.79-.35-1.34-1.68-6.65-2.79-13.29Z" fill="url(#color-4)"/>
    <path class="color-2" d="m57.33,175.65h-2.85c-4.45,0-8.06,3.61-8.06,8.06,0,4.22,3.25,7.68,7.37,8.03.26-.95.51-1.89.75-2.8.35-1.34,1.68-6.65,2.79-13.29Z" fill="url(#color-2)"/>
    <path class="color-2" d="m137.22,183.72c0-4.45-3.61-8.06-8.06-8.06h-2.76c1.11,6.64,2.44,11.95,2.79,13.29.24.91.48,1.84.75,2.79,4.09-.39,7.28-3.84,7.28-8.02Z" fill="url(#color-2)"/>
    <path class="color-3" d="m124.3,120.28c-.39-.66-9.91-16.32-32.68-16.32s-31.71,16.01-32.07,16.69c0,0-5.52,6.66.71,11.51,6.23,4.85,14.01-3.79,14.01-3.79,0,0,4.65-7.79,17.35-7.79s18.22,7.94,18.44,8.27l-.07-.12.24-.15.03.21s6.09,7.51,12.33,3.36c6.23-4.15,1.72-11.88,1.72-11.88h0Z" fill="url(#color-3)"/>
    <path class="color-1" d="m117.49,84.48h-51.75c-4.4,0-7.96,3.57-7.96,7.96s3.57,7.96,7.96,7.96h51.75c4.4,0,7.96-3.57,7.96-7.96s-3.57-7.96-7.96-7.96Z" fill="url(#color-1)"/>
    <path class="color-2" d="m91.82,78.02c5.55,0,10.04-4.5,10.04-10.04s-4.5-10.04-10.04-10.04-10.04,4.5-10.04,10.04,4.5,10.04,10.04,10.04Z" fill="url(#color-2)"/>
    <path class="color-2" d="m91.82,145.47c5.55,0,10.04-4.5,10.04-10.04s-4.5-10.04-10.04-10.04-10.04,4.5-10.04,10.04,4.5,10.04,10.04,10.04Z" fill="url(#color-2)"/>
    <path class="color-2" d="m91.82,257.12c6.12,0,11.08-4.96,11.08-11.08s-4.96-11.08-11.08-11.08-11.08,4.96-11.08,11.08,4.96,11.08,11.08,11.08Z" fill="url(#color-2)"/>
    <path class="color-3" d="m46.61,266.22c-3.28-2.29-4.4-6.52-2.89-10.06-4.11,1.62-7.01,5.62-7.01,10.3,0,6.12,4.96,11.08,11.08,11.08s11.08-4.96,11.08-11.08c0-.96-.13-1.88-.36-2.77-.1.16-.21.33-.32.47-2.62,3.76-7.8,4.68-11.57,2.06h0Z" fill="url(#color-3)"/>
    <path class="color-3" d="m139.77,255.7c1.82,3.63.76,8.14-2.67,10.53-1.45,1.01-3.11,1.5-4.75,1.5-2.27,0-4.51-.93-6.12-2.69-.06.47-.1.94-.1,1.43,0,6.12,4.96,11.08,11.08,11.08s11.08-4.96,11.08-11.08c0-5.23-3.64-9.61-8.52-10.77h0Z" fill="url(#color-3)"/>
    <path class="color-4" d="m137.22,255.38c.88,0,1.74.11,2.56.31-.18-.35-.37-.71-.61-1.04-5.03-7.19-14.92-31.67-18.3-40.49-1.23-3.21-4.32-5.33-7.76-5.33h-42.49c-3.44,0-6.52,2.12-7.76,5.33-3.39,8.81-13.27,33.28-18.3,40.49-.34.48-.62.99-.84,1.51,1.26-.5,2.62-.78,4.06-.78,5.16,0,9.49,3.53,10.72,8.31,5.59-8.32,13.87-28.38,17.78-38.24h31.15c3.99,10.04,12.51,30.7,18.11,38.71.21.31.45.6.7.87.71-5.44,5.35-9.65,10.98-9.65h0Z" fill="url(#color-4)"/>
    <path class="color-2" d="m47.78,255.38c-1.43,0-2.8.28-4.06.78-1.51,3.54-.39,7.77,2.89,10.06,3.76,2.63,8.95,1.7,11.57-2.06.1-.15.21-.31.32-.47-1.23-4.78-5.55-8.31-10.72-8.31h0Z" fill="url(#color-2)"/>
    <path class="color-2" d="m137.12,266.22c3.43-2.4,4.49-6.9,2.67-10.53-.82-.19-1.68-.31-2.56-.31-5.63,0-10.28,4.21-10.98,9.65,1.61,1.75,3.85,2.69,6.12,2.69,1.64,0,3.3-.48,4.75-1.5h0Z" fill="url(#color-2)"/>
    <path class="color-4" d="m91.37,36.44c1.42-.08,15.5-.73,30.18,6.9,2.01,1.05,3.91,2.19,5.7,3.39h23.61c.17-5.12.48-8.48.51-8.74.33-3.48,2.76-6.25,5.91-7.19H25.94c3.16.93,5.6,3.7,5.93,7.19.03.26.33,3.62.51,8.74h24.12c1.79-1.2,3.67-2.33,5.68-3.37,12.96-6.72,25.45-7.01,29.19-6.91h0Z" fill="url(#color-4)"/>
    <path class="color-2" d="m121.55,43.34c-14.69-7.62-28.77-6.98-30.18-6.9-3.73-.09-16.22.19-29.19,6.91-2.01,1.04-3.89,2.17-5.68,3.37h70.75c-1.79-1.2-3.68-2.35-5.7-3.39h0Z" fill="url(#color-2)"/>
    <path class="color-3" d="m15.71,38.76c0-4.4,3.57-7.96,7.96-7.96h2.26c-.98-.29-2.04-.41-3.12-.31-4.57.43-7.92,4.48-7.5,9.04,1.66,17.87.2,46.48-8.25,54.13-3.4,3.08-3.66,8.34-.59,11.74,1.64,1.81,3.9,2.74,6.16,2.74,1.99,0,3.98-.71,5.57-2.15,8.05-7.28,12.75-21.22,13.96-41.41.41-6.77.36-13.07.19-17.85h-8.7c-4.4,0-7.96-3.57-7.96-7.96Z" fill="url(#color-3)"/>
    <path class="color-2" d="m25.93,30.8h-2.26c-4.4,0-7.96,3.57-7.96,7.96s3.57,7.96,7.96,7.96h8.7c-.17-5.12-.48-8.48-.51-8.74-.33-3.48-2.77-6.25-5.93-7.19h0Z" fill="url(#color-2)"/>
    <path class="color-3" d="m167.53,38.76c0,4.4-3.57,7.96-7.96,7.96h-8.7c-.17,4.78-.21,11.09.19,17.85,1.22,20.2,5.91,34.13,13.96,41.41,1.59,1.44,3.59,2.15,5.57,2.15,2.26,0,4.52-.92,6.16-2.74,3.08-3.41,2.82-8.66-.59-11.74-8.45-7.64-9.92-36.26-8.25-54.13.43-4.57-2.93-8.61-7.5-9.04-1.09-.1-2.15.01-3.14.31h2.29c4.4,0,7.96,3.57,7.96,7.96Z" fill="url(#color-3)"/>
    <path class="color-2" d="m151.37,37.99c-.03.26-.33,3.62-.51,8.74h8.7c4.4,0,7.96-3.57,7.96-7.96s-3.57-7.96-7.96-7.96h-2.29c-3.15.93-5.58,3.71-5.91,7.19h0Z" fill="url(#color-2)"/>

    <path class="color-4" d="m50.01,85.41v4.49h12.73v-4.49c0-2.49,2.01-4.5,4.5-4.5.77,0,1.5.19,2.13.53-.64-.35-1.36-.54-2.13-.54h-21.74c-.77,0-1.5.19-2.13.54.64-.34,1.36-.53,2.13-.53,2.49,0,4.5,2.01,4.5,4.5Z" fill="url(#color-4)"/>

    <path class="color-3" d="m71.75,98.47v.55c0,2.49-2.02,4.5-4.5,4.5s-4.5-2.01-4.5-4.5v-4.48h-12.73v4.48c0,2.49-2.01,4.5-4.5,4.5-.62,0-1.2-.12-1.73-.35.55.24,1.14.37,1.77.37h21.74c2.47,0,4.5-2.03,4.5-4.5,0-.19-.01-.38-.04-.57Z" fill="url(#color-3)"/>
    <path class="color-3" d="m71.69,84.7c-.22-1.41-1.1-2.6-2.31-3.25,1.21.66,2.08,1.85,2.31,3.25Z" fill="url(#color-3)"/>
    <path class="color-3" d="m67.25,89.91h-4.5v4.63h4.54c2.28,0,4.18,1.72,4.46,3.93v-13.06c0,2.47-2.03,4.49-4.5,4.49h0Z" fill="url(#color-3)"/>
    <path class="color-2" d="m62.75,85.41v4.49h4.5c2.47,0,4.5-2.02,4.5-4.5,0-.24-.03-.48-.06-.71-.22-1.41-1.1-2.6-2.31-3.25-.64-.34-1.36-.53-2.13-.53-2.49,0-4.5,2.01-4.5,4.5Z" fill="url(#color-2)"/>
    <path class="color-2" d="m67.29,94.54h-4.54v4.48c0,2.49,2.01,4.5,4.5,4.5s4.5-2.01,4.5-4.5v-.55c-.28-2.21-2.18-3.93-4.46-3.93Z" fill="url(#color-2)"/>
    <path class="color-3" d="m43.39,81.44c-1.21.65-2.08,1.84-2.31,3.25.22-1.41,1.1-2.6,2.31-3.25Z" fill="url(#color-3)"/>
    <path class="color-3" d="m41.05,99.04c0-2.47,2.02-4.5,4.5-4.5h4.46v-4.63h-4.5c-2.47,0-4.5-2.02-4.5-4.5v13.61c0,1.87,1.14,3.48,2.77,4.15-1.6-.69-2.73-2.29-2.73-4.13Z" fill="url(#color-3)"/>
    <path class="color-2" d="m45.51,89.91h4.5v-4.49c0-2.49-2.01-4.5-4.5-4.5-.77,0-1.5.19-2.13.53-1.21.66-2.08,1.85-2.31,3.25-.03.23-.06.46-.06.71,0,2.47,2.03,4.5,4.5,4.5Z" fill="url(#color-2)"/>
    <path class="color-2" d="m50.01,99.02v-4.48h-4.46c-2.48,0-4.5,2.03-4.5,4.5,0,1.85,1.13,3.44,2.73,4.13.53.22,1.11.35,1.73.35,2.49,0,4.5-2.01,4.5-4.5Z" fill="url(#color-2)"/>
    <path class="color-3" d="m49.99,115.17v4.49h12.73v-4.49c0-2.49,2.01-4.5,4.5-4.5.78,0,1.5.19,2.14.54-.64-.35-1.36-.55-2.14-.55h-21.74c-.78,0-1.5.2-2.14.55.64-.35,1.36-.54,2.14-.54,2.49,0,4.5,2.01,4.5,4.5Z" fill="url(#color-3)"/>
    <path class="color-3" d="m71.73,128.24v.55c0,2.49-2.02,4.5-4.5,4.5s-4.5-2.01-4.5-4.5v-4.48h-12.73v4.48c0,2.49-2.01,4.5-4.5,4.5-.62,0-1.2-.12-1.73-.35.55.24,1.14.37,1.77.37h21.74c2.47,0,4.5-2.03,4.5-4.5,0-.19-.01-.38-.04-.57Z" fill="url(#color-3)"/>
    <path class="color-3" d="m67.23,119.67h-4.5v4.63h4.54c2.28,0,4.18,1.72,4.46,3.93v-13.06c0,2.47-2.03,4.49-4.5,4.49h0Z" fill="url(#color-3)"/>
    <path class="color-3" d="m71.67,114.46c-.23-1.41-1.09-2.59-2.3-3.24,1.2.66,2.07,1.84,2.3,3.24Z" fill="url(#color-3)"/>
    <path class="color-2" d="m62.73,115.17v4.49h4.5c2.47,0,4.5-2.02,4.5-4.5,0-.24-.03-.48-.06-.71-.23-1.4-1.09-2.59-2.3-3.24-.64-.35-1.36-.54-2.14-.54-2.49,0-4.5,2.01-4.5,4.5Z" fill="url(#color-2)"/>
    <path class="color-2" d="m67.27,124.31h-4.54v4.48c0,2.49,2.01,4.5,4.5,4.5s4.5-2.01,4.5-4.5v-.55c-.28-2.21-2.18-3.93-4.46-3.93Z" fill="url(#color-2)"/>
    <path class="color-3" d="m41.03,128.81c0-2.47,2.02-4.5,4.5-4.5h4.46v-4.63h-4.5c-2.47,0-4.5-2.02-4.5-4.5v13.61c0,1.87,1.14,3.48,2.77,4.15-1.6-.69-2.73-2.29-2.73-4.13Z" fill="url(#color-3)"/>

    <path class="color-2" d="m45.49,119.67h4.5v-4.49c0-2.49-2.01-4.5-4.5-4.5-.78,0-1.5.19-2.14.54-1.2.66-2.07,1.84-2.3,3.24-.03.24-.06.47-.06.71,0,2.47,2.03,4.5,4.5,4.5Z" fill="url(#color-2)"/>
    <path class="color-2" d="m49.99,128.79v-4.48h-4.46c-2.48,0-4.5,2.03-4.5,4.5,0,1.85,1.13,3.44,2.73,4.13.53.22,1.11.35,1.73.35,2.49,0,4.5-2.01,4.5-4.5Z" fill="url(#color-2)"/>
    <path class="color-3" d="m119.07,115.17v4.49h12.73v-4.49c0-2.49,2.01-4.5,4.5-4.5.78,0,1.5.19,2.14.54-.64-.35-1.36-.55-2.14-.55h-21.74c-.78,0-1.5.2-2.14.55.64-.35,1.36-.54,2.14-.54,2.49,0,4.5,2.01,4.5,4.5Z" fill="url(#color-3)"/>

    <path class="color-4" d="m140.81,128.24v.55c0,2.49-2.01,4.5-4.5,4.5s-4.5-2.01-4.5-4.5v-4.48h-12.73v4.48c0,2.49-2.01,4.5-4.5,4.5-.62,0-1.2-.12-1.73-.35.55.24,1.14.37,1.77.37h21.74c2.48,0,4.5-2.03,4.5-4.5,0-.19-.01-.38-.04-.57Z" fill="url(#color-4)"/>
    <path class="color-3" d="m140.74,114.46c-.23-1.41-1.09-2.59-2.3-3.24,1.2.66,2.07,1.84,2.3,3.24Z" fill="url(#color-3)"/>
    <path class="color-3" d="m136.31,119.67h-4.5v4.63h4.54c2.28,0,4.18,1.72,4.46,3.93v-13.06c0,2.47-2.03,4.49-4.5,4.49h0Z" fill="url(#color-3)"/>
    <path class="color-2" d="m131.81,115.17v4.49h4.5c2.47,0,4.5-2.02,4.5-4.5,0-.24-.03-.48-.06-.71-.23-1.4-1.09-2.59-2.3-3.24-.64-.35-1.36-.54-2.14-.54-2.49,0-4.5,2.01-4.5,4.5Z" fill="url(#color-2)"/>
    <path class="color-2" d="m136.35,124.31h-4.54v4.48c0,2.49,2.01,4.5,4.5,4.5s4.5-2.01,4.5-4.5v-.55c-.28-2.21-2.18-3.93-4.46-3.93Z" fill="url(#color-2)"/>
    <path class="color-3" d="m110.11,128.81c0-2.47,2.02-4.5,4.5-4.5h4.46v-4.63h-4.5c-2.47,0-4.5-2.02-4.5-4.5v13.61c0,1.87,1.14,3.48,2.77,4.15-1.6-.69-2.73-2.29-2.73-4.13Z" fill="url(#color-3)"/>

    <path class="color-2" d="m114.57,119.67h4.5v-4.49c0-2.49-2.01-4.5-4.5-4.5-.78,0-1.5.19-2.14.54-1.2.66-2.07,1.84-2.3,3.24-.03.24-.06.47-.06.71,0,2.47,2.03,4.5,4.5,4.5Z" fill="url(#color-2)"/>
    <path class="color-2" d="m119.07,128.79v-4.48h-4.46c-2.47,0-4.5,2.03-4.5,4.5,0,1.85,1.13,3.44,2.73,4.13.53.22,1.11.35,1.73.35,2.49,0,4.5-2.01,4.5-4.5Z" fill="url(#color-2)"/>
    <path class="color-3" d="m119.07,85.4v4.49h12.73v-4.49c0-2.49,2.01-4.5,4.5-4.5.78,0,1.5.19,2.14.54-.64-.35-1.36-.55-2.14-.55h-21.74c-.78,0-1.5.2-2.14.55.64-.35,1.36-.54,2.14-.54,2.49,0,4.5,2.01,4.5,4.5Z" fill="url(#color-3)"/>
  
    <path class="color-3" d="m140.81,98.46v.55c0,2.49-2.01,4.5-4.5,4.5s-4.5-2.01-4.5-4.5v-4.48h-12.73v4.48c0,2.49-2.01,4.5-4.5,4.5-.62,0-1.2-.12-1.73-.35.55.24,1.14.37,1.77.37h21.74c2.48,0,4.5-2.03,4.5-4.5,0-.19-.01-.38-.04-.57Z" fill="url(#color-3)"/>
    <path class="color-3" d="m140.74,84.69c-.23-1.41-1.09-2.59-2.3-3.24,1.2.66,2.07,1.84,2.3,3.24Z" fill="url(#color-3)"/>
    <path class="color-3" d="m136.31,89.9h-4.5v4.63h4.54c2.28,0,4.18,1.72,4.46,3.93v-13.06c0,2.47-2.03,4.49-4.5,4.49h0Z" fill="url(#color-3)"/>
    <path class="color-2" d="m131.81,85.4v4.49h4.5c2.47,0,4.5-2.02,4.5-4.5,0-.24-.03-.48-.06-.71-.23-1.4-1.09-2.59-2.3-3.24-.64-.35-1.36-.54-2.14-.54-2.49,0-4.5,2.01-4.5,4.5Z" fill="url(#color-2)"/>
    <path class="color-2" d="m136.35,94.53h-4.54v4.48c0,2.49,2.01,4.5,4.5,4.5s4.5-2.01,4.5-4.5v-.55c-.28-2.21-2.18-3.93-4.46-3.93Z" fill="url(#color-2)"/>
    <path class="color-3" d="m110.11,99.03c0-2.47,2.02-4.5,4.5-4.5h4.46v-4.63h-4.5c-2.47,0-4.5-2.02-4.5-4.5v13.61c0,1.87,1.14,3.48,2.77,4.15-1.6-.69-2.73-2.29-2.73-4.13Z" fill="url(#color-3)"/>
  
    <path class="color-2" d="m114.57,89.9h4.5v-4.49c0-2.49-2.01-4.5-4.5-4.5-.78,0-1.5.19-2.14.54-1.2.66-2.07,1.84-2.3,3.24-.03.24-.06.47-.06.71,0,2.47,2.03,4.5,4.5,4.5Z" fill="url(#color-2)"/>
    <path class="color-2" d="m119.07,99.01v-4.48h-4.46c-2.47,0-4.5,2.03-4.5,4.5,0,1.85,1.13,3.44,2.73,4.13.53.22,1.11.35,1.73.35,2.49,0,4.5-2.01,4.5-4.5Z" fill="url(#color-2)"/>
    <path class="color-4" d="m12.9,263.38c6.12,0,11.08-4.96,11.08-11.08s-4.96-11.08-11.08-11.08-11.08,4.96-11.08,11.08,4.96,11.08,11.08,11.08Z" fill="url(#color-4)"/>
    <path class="color-4" d="m170.82,264.42c6.12,0,11.08-4.96,11.08-11.08s-4.96-11.08-11.08-11.08-11.08,4.96-11.08,11.08,4.96,11.08,11.08,11.08Z" fill="url(#color-4)"/>
    <path fill="#ffffff" class="color-5" d="m81.51,270.78h3.91c1.69,0,3.06-1.37,3.06-3.06s-1.37-3.06-3.06-3.06h-3.91c-1.69,0-3.06,1.37-3.06,3.06s1.37,3.06,3.06,3.06Z"/>
    <path fill="#ffffff" class="color-5" d="m57.49,270.78h16.01c1.69,0,3.06-1.37,3.06-3.06s-1.37-3.06-3.06-3.06h-16.01c-1.69,0-3.06,1.37-3.06,3.06s1.37,3.06,3.06,3.06Z"/>
    <path fill="#ffffff" class="color-5" d="m149.28,45.79h3.91c1.69,0,3.06-1.37,3.06-3.06s-1.37-3.06-3.06-3.06h-3.91c-1.69,0-3.06,1.37-3.06,3.06s1.37,3.06,3.06,3.06Z"/>
    <path fill="#ffffff" class="color-5" d="m125.28,45.79h16.01c1.69,0,3.06-1.37,3.06-3.06s-1.37-3.06-3.06-3.06h-16.01c-1.69,0-3.06,1.37-3.06,3.06s1.37,3.06,3.06,3.06Z"/>
    <path fill="#ffffff" class="color-5" d="m41.57,58h19.1c1.81,0,3.29,1.47,3.29,3.29s-1.47,3.29-3.29,3.29h-.28s-1.05.12-1.05,1c0,.25.09.43.21.56h11.61c1.81,0,3.29,1.47,3.29,3.29s-1.47,3.29-3.29,3.29h-19.1c-1.81,0-3.29-1.47-3.29-3.29s1.47-3.29,3.29-3.29h2.8c.1-.13.16-.3.16-.54,0-1-1.12-1.02-1.12-1.02h-12.33c-1.81,0-3.29-1.47-3.29-3.29s1.47-3.29,3.29-3.29Z"/>
    <path fill="#ffffff" class="color-5" d="m140.08,149.88h-6.68c-1.69,0-3.06,1.37-3.06,3.06v.46c0,1.69,1.37,3.06,3.06,3.06h6.68c1.69,0,3.06-1.37,3.06-3.06v-.46c0-1.69-1.37-3.06-3.06-3.06Z"/>
    <path fill="#ffffff" class="color-5" d="m134.18,141.52h-19.1c-1.81,0-3.29,1.47-3.29,3.29s1.47,3.29,3.29,3.29h.28s1.05.12,1.05,1c0,.25-.09.43-.21.56h-11.61c-1.81,0-3.29,1.47-3.29,3.29s1.47,3.29,3.29,3.29h19.1c1.81,0,3.29-1.47,3.29-3.29s-1.47-3.29-3.29-3.29h-2.8c-.1-.13-.16-.3-.16-.54,0-1,1.12-1.02,1.12-1.02h12.33c1.81,0,3.29-1.47,3.29-3.29s-1.47-3.29-3.29-3.29Z"/>
</svg>