<?xml version="1.0" encoding="UTF-8"?>
<svg id="middle06" xmlns="http://www.w3.org/2000/svg" viewBox="0 0 185 308">
  <defs>
    <style>
      .stroke-width {
        stroke-width: .5px;
      }

      .stroke-linecap{
        stroke-linecap: round;
      }

      .stroke-color-1 {
        stroke: #fa4013;
      }

      .stroke-color-2 {
        stroke: #9cd323;
      }

      .stroke-color-3 {
        stroke:#404272;
      }

      .stroke-color-4 {
        stroke: #ffffff;
      }      
    </style>
    <linearGradient id="color-1" gradientTransform="rotate(90)">
      <stop offset="0%" stop-color="#fa4013" />
      <stop offset="100%" stop-color="#fa4013" />
      <stop offset="100%" stop-color="white" />
    </linearGradient>
    <linearGradient id="color-2" gradientTransform="rotate(90)">
      <stop offset="0%" stop-color="#9cd323" />
      <stop offset="100%" stop-color="#9cd323" />
      <stop offset="100%" stop-color="white" />
    </linearGradient>
    <linearGradient id="color-3" gradientTransform="rotate(90)">
      <stop offset="0%" stop-color="#404272" />
      <stop offset="100%" stop-color="#404272" />
      <stop offset="100%" stop-color="white" />
    </linearGradient>   
    <linearGradient id="color-4" gradientTransform="rotate(90)">
      <stop offset="0%" stop-color="#ffffff" />
      <stop offset="100%" stop-color="#ffffff" />
      <stop offset="100%" stop-color="white" />
    </linearGradient>  
  </defs>
  <path class="stroke-width stroke-linecap stroke-color-1" d="m96.72,22.05s-.36-6.49,4.33-6.49h20.45s5.79.35,5.79,5c0,0,.3,5.02-5.4,5.02h-14.25s-4.8-.27-4.8,2.75c0,0-.77,3.15,4.72,3.15h31.36s2.79-.12,2.79,2.66c0,0,.23,2.53-2.87,2.53h-12.19s-8.63.04-8.63,6.28c0,0-.03,5.96,8.56,5.96h13.12s5.56-.88,5.56,4.49c0,4.5,3,4.39,3,4.39h4.48s6.01-.82,6.01,6.04v12.41s.17,3.44-1.72,3.44" fill="none"/>
  <path class="stroke-width stroke-linecap stroke-color-1" d="m82.25,140.4s-20.79,15.86-33.44,16.15-13.36-8.27-10.54-11.09c0,0,5.57-5.96,10.35.46,3.84,5.16-.83,12.53-8.71,22.91" fill="none"/>
  <path class="stroke-width stroke-linecap stroke-color-1" d="m112.71,150.29s11.01,5.45,23.67,5.75c12.66.29,13.03-7.25,10.22-10.07,0,0-5.57-5.96-10.35.46-3.84,5.16,1.1,12.61,8.98,23" fill="none"/>
  <path class="stroke-width stroke-linecap stroke-color-1" d="m132.66,109.68s.94-5.77,4.58-5.77c0,0,7.43-.58,7.43-7.04,0,0,.18-6.64-7.3-6.64h-32.61s-12.77.96-12.77-7.48c0,0-.19-7.51-7.51-7.51h-26.7c-3.16,0-5.6-1.76-5.97-5.04-.2-1.78,1.32-3.07,2.8-3.78,2.34-1.13,5.13-1.07,7.64-.69" fill="none"/>
  <path class="stroke-width stroke-linecap stroke-color-1" d="m66.53,187.78h50.91" fill="none"/>
  <path class="stroke-width stroke-linecap stroke-color-1" d="m68.13,214.25h47.7" fill="none"/>
  <path class="stroke-width stroke-linecap stroke-color-1" d="m93.33,171v21.6" fill="none"/>
  <path class="stroke-width stroke-linecap stroke-color-1" d="m149.8,250.47s5.07-1.96,5.07,3.91-.51,15.09-7.55,15.09c0,0-3.77.38-3.77-5.31s11.51-4.16,12.28,4.03c.77,8.19,5.43,24.42,5.43,24.42" fill="none"/>
  <path class="stroke-width stroke-linecap stroke-color-1" d="m35.2,250.47s-5.07-1.96-5.07,3.91.51,15.09,7.55,15.09c0,0,3.77.38,3.77-5.31s-11.51-4.16-12.28,4.03c-.77,8.19-5.43,24.42-5.43,24.42" fill="none"/>
  <path class="stroke-width stroke-linecap stroke-color-1" d="m64.79,270.6s-3.46-.43-3.46,1.96,2.29,2.29,2.29,2.29c0,0,13.31-.87,13.31,6.49v8.53" fill="none"/>
  <path class="stroke-width stroke-linecap stroke-color-1" d="m94.01,259.69h23.47" fill="none"/>
  <path class="stroke-width stroke-linecap stroke-color-1" d="m94.01,266.83h23.47" fill="none"/>
  <path class="stroke-width stroke-linecap stroke-color-1" d="m94.01,273.97h23.47" fill="none"/>
  <path class="stroke-width stroke-linecap stroke-color-1" d="m48.91,119.99s-2.27,9.46,5.98,9.46h49.86s7.04-.35,7.04,6.17,6.7,6.9,6.7,6.9h8.84s2.85.04,2.85,2.85c0,3.04-2.64,2.91-2.64,2.91h-8.93c-3.74,0-8.23,2.36-9.21,6.24-1.35,5.28,3.56,6.38,7.57,6.93,3.34.46,7.26,1.22,6.43,5.52" fill="none"/>
  <path class="stroke-width stroke-linecap stroke-color-1" d="m50.53,229.8s-2.45,8,7.82,8h16.75s10.37-.32,10.37,6.17-9.72,6.19-9.72,6.19h-14.08s-4.72-.22-4.72,4.46c0,0,.49,4.12,4.5,4.12h15.99s5.39.19,5.5-4.31c.09-3.53,4.34-.62,4.34-.62" fill="none"/>
  <path class="stroke-width stroke-linecap stroke-color-1" d="m36.41,68.05s-4.31-1.07-4.31,3.55v11.64" fill="none"/>
  <path class="stroke-width stroke-linecap stroke-color-1" d="m57.08,79.93h74.73" fill="none"/>
  <path class=" color-1" d="m150.8,93.29c3.45.06,6.22-2.88,6.22-6.33v-7.45s-.02-.02-.03,0c-.16.5-1.09,1.52-5.89,1.55-3.4.02-6.31,2.72-6.31,6.12s2.68,6.05,6.01,6.11Z" fill="url(#color-1)"/>
  <path class=" color-1" d="m38.06,93.91c-3.38,0-6.11-2.74-6.11-6.11v-7.78c.07.44.73,1.66,6.11,1.66,3.38,0,6.11,2.74,6.11,6.11s-2.74,6.11-6.11,6.11Z" fill="url(#color-1)"/>
  <path class=" color-1" d="m92.5,163.39c-3.38,0-6.11-2.74-6.11-6.11v-7.78c.07.44.73,1.66,6.11,1.66,3.38,0,6.11,2.74,6.11,6.11s-2.74,6.11-6.11,6.11Z" fill="url(#color-1)"/>
  <path class=" color-1" d="m36.32,68.6c.35.79.65,2.04.6,3.39-.07,2.25,1.81,1.84,1.81,1.84,35.93-16.83,49.91-34.03,55.19-43.37,5.29,9.37,19.33,26.64,55.45,43.5.03,0,1.81.17,1.81-1.93s.19-4.09,1.88-4.09l-3.69-.1c-.1-.04-41.09-17.87-52.39-44.49h0v-4.14c0,1.9-2,2.11-4.15,2.11s-1.96,2.02-1.96,2.02h0c-11.3,26.66-52.38,44.5-52.38,44.5l-2.58.05c-.1,0-.17.08-.08.13l.5.58h0Z" fill="url(#color-1)"/>
  <path class=" color-1" d="m124.06,79.36s0-13.86-8.21-13.86h-54.91c1.69,0,1.88,2,1.88,4.15s1.81,1.96,1.81,1.96h51.22s7.8,1.09,7.8,7.85-7.8,7.71-7.8,7.71h-54.91c1.69,0,1.88,2,1.88,4.15s1.81,1.96,1.81,1.96h51.22s8.21,1.02,8.21-13.93v.02Z" fill="url(#color-1)"/>
  <path class=" color-1" d="m134.68,218.17c0,3.66-2.55,4.53-2.87,4.63H53.2c-.33-.1-2.87-.96-2.87-4.63v10.75h0v4.26s.1-3.76,2.38-4.26h79.58c2.26.52,2.37,4.25,2.37,4.25v-10.36h0v-4.63h0Z" fill="url(#color-1)"/>
  <path class=" color-1" d="m40.32,171.84v-3.5c0-.15-.2-.19-.27-.06-.62,1.09-2.2,1.24-3.88,1.24-2.15,0-1.96,2.32-1.96,2.32,0,8.23-2.96,10.96-4.65,11.92-.34.19-.94.43-1.3.43l-2,.22c.96,0,1.66,1.34,1.72,2.1.07.85-.29,1.3.07,2.76.23.95,1.23,1.43,2.23,1.2,2.01-.47,3.59-1.73,3.59-1.73,6.83-5.92,6.45-16.89,6.45-16.89Z" fill="url(#color-1)"/>
  <path class=" color-1" d="m158.74,184.74l-2-.22c-.36,0-.96-.24-1.3-.43-1.69-.94-4.65-3.68-4.65-11.92,0-.51-.14-2.17-1.96-2.17s-3.51-.17-4-1.51c-.03-.08-.15-.07-.15.02v3.65h-.01s-.37,10.97,6.46,16.89c0,0,1.41,1.04,3.42,1.51,1.01.23,2.03-.07,2.4-.98.29-.7-.21-2.02-.1-2.86.14-1.15.94-2,1.9-2h0Z" fill="url(#color-1)"/>
  <path class=" color-1" d="m91.02,96.2c-1.99,0-2.72,1.77-2.72,1.77l-17.87,28.1c9.46-4.26,24.61-28.1,24.61-28.1l.99-2.16c-1.13,1.9-3.61.39-4.99.39h0Z"/>
  <path class="stroke-width stroke-linecap stroke-color-1" d="m71.55,124.75s-1.73,1.63-.83,2.28c.9.65,3.58,2.43,3.58,2.43" fill="none"/>
  <path class=" color-1" d="m125.29,154.43c-12.36-3.34-53.53-26.81-53.53-26.81,9.52,11.53,53.53,32.93,53.53,32.93,0,0,1.92.8,2-1.93.06-2.12.2-3.44,2.07-3.44l-4.07-.74Z" fill="url(#color-1)"/>
  <path class=" color-1" d="m78.78,201.28c-2.29,0-4.15-1.85-4.15-4.15v-5.28c.05.3.5,1.13,4.15,1.13,2.29,0,4.15,1.85,4.15,4.15s-1.85,4.15-4.15,4.15Z" fill="url(#color-1)"/>
  <path class=" color-1" d="m71.62,218.81l-4.08-35.6h.03s.32-1.65-1.56-1.7c-1.25-.03-4.55,1.04-4.55-1.01v2.71h-.03l4.08,35.6s-.18,1.6,1.56,1.7c1.25.07,4.55-1.04,4.55,1.01v-2.71Z" fill="url(#color-1)"/>
  <path class=" color-1" d="m111.79,206.2l-2-.22c-.36,0-.96-.24-1.3-.43-1.69-.94-4.65-3.68-4.65-11.92,0-.51-.14-2.17-1.96-2.17s-3.71-.11-4-1.51c-.16-.75-.15-.07-.15.02v3.65h-.01s-.37,10.97,6.46,16.89c0,0,1.41,1.04,3.42,1.51,1.01.23,2.03-.07,2.4-.98.29-.7-.21-2.02-.1-2.86.14-1.15.94-2,1.9-2h0Z" fill="url(#color-1)"/>
  <path class=" color-1" d="m123.52,175.39v-6.11h0v-4.63c0,3.66-2.54,4.53-2.87,4.63h-56.12c-.33-.1-2.87-.96-2.87-4.63v15.03s.11-3.95,2.57-4.28h56.47c2.71.08,2.83,4.31,2.83,4.31v-4.31Z" fill="url(#color-1)"/>
  <path class=" color-1" d="m89.42,231.9s-.2-2.02,1.96-2.02,4.15-.21,4.15-2.11v4.13h-6.11Z" fill="url(#color-1)"/>
  <path class=" color-1" d="m147.92,249.93s-35.46-1.04-52.4-18.03h-6.11s6.55,17.25,58.5,24.14c0,0,1.81.2,1.81-1.93s.19-4.09,1.88-4.09l-3.69-.1Z" fill="url(#color-1)"/>
  <path class=" color-1" d="m89.42,231.9c-16.94,16.99-52.4,18.03-52.4,18.03l-3.7.1c1.69,0,1.88,1.96,1.88,4.09s1.81,1.93,1.81,1.93c51.96-6.9,58.5-24.14,58.5-24.14h-6.11,0Z" fill="url(#color-1)"/>
  <path class=" color-1" d="m86.59,269.73c0-1.6-1.3-2.91-2.91-2.91h-3.7c.21.03.79.35.79,2.91,0,1.6,1.3,2.91,2.91,2.91s2.91-1.3,2.91-2.91h0Z" fill="url(#color-1)"/>
  <path class=" color-1" d="m81.28,245.42c1.6,0,2.91,1.3,2.91,2.91v3.7c-.03-.21-.35-.79-2.91-.79-1.6,0-2.91-1.3-2.91-2.91s1.3-2.91,2.91-2.91Z" fill="url(#color-1)"/>
  <path class=" color-1" d="m95.03,257.53c-.01-.35-.33-3.96-6.6-3.96h-1.84s2.14.91,2.33,3.99v20.16c-.19,3.08-2.33,3.98-2.33,3.98h1.84c6.26,0,6.6-3.96,6.6-3.97v-20.19h0Z" fill="url(#color-1)"/>
  <path class=" color-1" d="m121.34,277.72v-20.16c.19-3.08,2.33-3.98,2.33-3.98h-1.84c-6.19,0-6.58,3.63-6.6,3.95v20.19s-.1,3.99,6.6,3.99h1.84s-2.14-.91-2.33-3.99h0Z" fill="url(#color-1)"/>
  <path class=" color-2" d="m133.09,118.1v-6.11h0v-4.63c0,3.66-2.54,4.53-2.87,4.63H51.62c-.33-.1-2.87-.96-2.87-4.63v15.05s.12-4.25,2.85-4.31h78.81c2.57.22,2.7,4.29,2.7,4.29v-4.29h0Z" fill="url(#color-2)"/>
  <path class=" color-2" d="m123.57,180.5c0,2.04-3.31.98-4.55,1.01-1.88.05-1.56,1.7-1.56,1.7l-4.05,35.6v2.71c0-2.04,3.31-.94,4.55-1.01,1.74-.1,1.56-1.7,1.56-1.7l4.05-35.6v-2.71Z" fill="url(#color-2)"/>
  <path class=" color-2" d="m81.77,260.38s.14-7.7-6.94-7.7h-4.23s-2.21-.1-2.21-2.21l.05,2.21v2.96s0,2.27,2.27,2.27h2.6s2.32-.14,2.32,2.47c0,7.13-5.59,8.95-7.77,9.77-.44.16-.9.24-1.37.24h-2.75c1.24,0,1.56,1.16,1.63,1.82.09.73.3,1.45.67,2.07.49.78,1.3,1.51,2.6,1.31,2.6-.41,4.93-1.77,4.93-1.77,8.81-5.13,8.17-13.44,8.17-13.44h.02Z" fill="url(#color-2)"/>
  <path class=" color-3" d="m118.53,103.32c-1.43,1.68-5.34.2-6.67.2-1.45,0-2.48,1.51-2.62,1.73-1.45,1.68-23.66,27.4-39.87,43.84,0,0,27.91-15.6,47.59-43.99l1.58-1.77Z" fill="url(#color-3)"/>
  <path class=" color-3" d="m93.63,193.81v-3.5c0-.15-.2-.19-.27-.06-.62,1.09-2.2,1.24-3.88,1.24-2.15,0-1.96,2.32-1.96,2.32,0,8.23-2.96,10.96-4.65,11.92-.34.19-.94.43-1.3.43l-2,.22c.96,0,1.66,1.34,1.72,2.1.07.85-.29,1.3.07,2.76.23.95,1.23,1.43,2.23,1.2,2.01-.47,3.59-1.73,3.59-1.73,6.83-5.92,6.45-16.89,6.45-16.89h0Z" fill="url(#color-3)"/>
  <path class=" color-3" d="m108.19,245.42c0,1.9-2,2.11-4.15,2.11-2.03,0-1.97,1.8-1.96,2v40.33c0-1.9,2-2.11,4.15-2.11s1.96-2.02,1.96-2.02v-40.31Z" fill="url(#color-3)"/>
</svg>