<?xml version="1.0" encoding="UTF-8"?>
<svg id="bot12" xmlns="http://www.w3.org/2000/svg" viewBox="0 0 185 308">
  <defs>
    <style>
      .stroke-width {
        stroke-width: 1.3px;
      }

      .stroke-color-1 {
        stroke: #fa4013;
      }

      .stroke-color-2 {
        stroke: #9cd323;
      }

      .stroke-color-3 {
        stroke:#404272;
      }

      .stroke-color-4 {
        stroke: #ffffff;
      }      
    </style>
    <linearGradient id="color-1" gradientTransform="rotate(90)">
      <stop offset="0%" stop-color="#fa4013" />
      <stop offset="100%" stop-color="#fa4013" />
      <stop offset="100%" stop-color="white" />
    </linearGradient>
    <linearGradient id="color-2" gradientTransform="rotate(90)">
      <stop offset="0%" stop-color="#9cd323" />
      <stop offset="100%" stop-color="#9cd323" />
      <stop offset="100%" stop-color="white" />
    </linearGradient>
    <linearGradient id="color-3" gradientTransform="rotate(90)">
      <stop offset="0%" stop-color="#404272" />
      <stop offset="100%" stop-color="#404272" />
      <stop offset="100%" stop-color="white" />
    </linearGradient>   
    <linearGradient id="color-4" gradientTransform="rotate(90)">
      <stop offset="0%" stop-color="#ffffff" />
      <stop offset="100%" stop-color="#ffffff" />
      <stop offset="100%" stop-color="white" />
    </linearGradient>  
  </defs>
  <path class="color-1" d="m127.25,260.79c0-2.57-2.08-4.65-4.65-4.65s-4.65,2.08-4.65,4.65v25.57c0,2.57,2.08,4.65,4.65,4.65s4.65-2.08,4.65-4.65v-25.57Z" fill="url(#color-1)"/>
  <path class="color-4" d="m122.64,262.14c.78,0,1.4-.63,1.4-1.4s-.63-1.4-1.4-1.4-1.4.63-1.4,1.4.63,1.4,1.4,1.4Z" fill="url(#color-4)"/>
  <path stroke-linejoin="round" stroke-linecap="round" class="stroke-width stroke-color-1" d="m130.33,278.89h11.93" fill="none"/>
  <path stroke-linejoin="round" stroke-linecap="round" class="stroke-width stroke-color-1" d="m130.33,282.25h11.93" fill="none"/>
  <path stroke-linejoin="round" stroke-linecap="round" class="stroke-width stroke-color-1" d="m130.33,285.61h11.93" fill="none"/>
  <path stroke-linejoin="round" stroke-linecap="round" class="stroke-width stroke-color-1" d="m130.33,289.09h11.93" fill="none"/>
  <path stroke-linejoin="round" stroke-linecap="round" class="stroke-width stroke-color-4" d="m122.6,261.35v26.62" fill="none"/>
  <path class="color-4" d="m122.64,289.09c.78,0,1.4-.63,1.4-1.4s-.63-1.4-1.4-1.4-1.4.63-1.4,1.4.63,1.4,1.4,1.4Z" fill="url(#color-4)"/>
  <path class="color-1" d="m142.94,211.17c0-2.57-2.08-4.65-4.65-4.65s-4.65,2.08-4.65,4.65v43.65c0,2.57,2.08,4.65,4.65,4.65s4.65-2.08,4.65-4.65v-43.65Z" fill="url(#color-1)"/>
  <path class="color-4" d="m138.33,212.53c.77,0,1.4-.63,1.4-1.4s-.63-1.4-1.4-1.4-1.4.63-1.4,1.4.63,1.4,1.4,1.4Z" fill="url(#color-4)"/>
  <path stroke-linejoin="round" stroke-linecap="round" class="stroke-width stroke-color-4" d="m138.29,212.04v42.06" fill="none"/>
  <path class="color-4" d="m138.33,256.34c.77,0,1.4-.63,1.4-1.4s-.63-1.4-1.4-1.4-1.4.63-1.4,1.4.63,1.4,1.4,1.4Z" fill="url(#color-4)"/>
  <path stroke-linejoin="round" stroke-linecap="round" class="stroke-width stroke-color-1" d="m145.48,292.39h-43.63" fill="none"/>
  <path stroke-linejoin="round" stroke-linecap="round" class="stroke-width stroke-color-1" d="m90.72,292.39h-25.54" fill="none"/>
  <path class="color-2" d="m25.84,10.99v7.72h133.43v-7.72H25.84Z" fill="url(#color-2)"/>
  <path stroke-linejoin="round" stroke-linecap="round" class="stroke-width stroke-color-1" d="m28.68,24.8v-9.94h127.77v9.94" fill="none"/>
  <path class="color-2" d="m15.88,83.8c4.26,0,7.72-3.46,7.72-7.72s-3.46-7.72-7.72-7.72-7.72,3.46-7.72,7.72,3.46,7.72,7.72,7.72Z" fill="url(#color-2)"/>
  <path class="color-4" d="m42.91,143.5c4.26,0,7.72-3.46,7.72-7.72s-3.46-7.72-7.72-7.72-7.72,3.46-7.72,7.72,3.46,7.72,7.72,7.72Z" fill="url(#color-4)"/>
  <path class="color-1" d="m69.27,160.09c4.26,0,7.72-3.46,7.72-7.72s-3.46-7.72-7.72-7.72-7.72,3.45-7.72,7.72,3.46,7.72,7.72,7.72Z" fill="url(#color-1)"/>
  <path class="color-3" d="m96.03,144.98c4.26,0,7.72-3.46,7.72-7.72s-3.46-7.72-7.72-7.72-7.72,3.45-7.72,7.72,3.46,7.72,7.72,7.72Z" fill="url(#color-3)"/>
  <path class="color-2" d="m101.81,175.36c4.26,0,7.72-3.46,7.72-7.72s-3.46-7.72-7.72-7.72-7.72,3.46-7.72,7.72,3.46,7.72,7.72,7.72Z" fill="url(#color-2)"/>
  <path class="color-1" d="m23.11,203.28c4.26,0,7.72-3.46,7.72-7.72s-3.46-7.72-7.72-7.72-7.72,3.46-7.72,7.72,3.46,7.72,7.72,7.72Z" fill="url(#color-1)"/>
  <path class="color-2" d="m50.95,243.39c4.26,0,7.72-3.46,7.72-7.72s-3.46-7.72-7.72-7.72-7.72,3.45-7.72,7.72,3.46,7.72,7.72,7.72Z" fill="url(#color-2)"/>
  <path class="color-4" d="m91.82,209.81c4.26,0,7.72-3.46,7.72-7.72s-3.46-7.72-7.72-7.72-7.72,3.46-7.72,7.72,3.46,7.72,7.72,7.72Z" fill="url(#color-4)"/>
  <path class="color-3" d="m65.14,195.02c4.26,0,7.72-3.46,7.72-7.72s-3.46-7.72-7.72-7.72-7.72,3.46-7.72,7.72,3.46,7.72,7.72,7.72Z" fill="url(#color-3)"/>
  <path class="color-2" d="m62.58,261.25c4.26,0,7.72-3.46,7.72-7.72s-3.46-7.72-7.72-7.72-7.72,3.46-7.72,7.72,3.46,7.72,7.72,7.72Z" fill="url(#color-2)"/>
  <path class="color-3" d="m48.43,265.97c3.49,0,6.31-2.83,6.31-6.31s-2.83-6.31-6.31-6.31-6.31,2.83-6.31,6.31,2.83,6.31,6.31,6.31Z" fill="url(#color-3)"/>
  <path class="color-1" d="m48.43,279.57c3.49,0,6.31-2.83,6.31-6.31s-2.83-6.31-6.31-6.31-6.31,2.83-6.31,6.31,2.83,6.31,6.31,6.31Z" fill="url(#color-1)"/>
  <path class="color-2" d="m48.43,295.98c3.49,0,6.31-2.83,6.31-6.31s-2.83-6.31-6.31-6.31-6.31,2.83-6.31,6.31,2.83,6.31,6.31,6.31Z" fill="url(#color-2)"/>
  <path class="color-3" d="m94.74,261.25c4.26,0,7.72-3.46,7.72-7.72s-3.46-7.72-7.72-7.72-7.72,3.46-7.72,7.72,3.46,7.72,7.72,7.72Z" fill="url(#color-3)"/>
  <path class="color-2" d="m140.13,151.28c4.26,0,7.72-3.46,7.72-7.72s-3.46-7.72-7.72-7.72-7.72,3.45-7.72,7.72,3.46,7.72,7.72,7.72Z" fill="url(#color-2)"/>
  <path class="color-2" d="m124.02,225.57c3.49,0,6.31-2.83,6.31-6.31s-2.83-6.31-6.31-6.31-6.31,2.83-6.31,6.31,2.83,6.31,6.31,6.31Z" fill="url(#color-2)"/>
  <path class="color-1" d="m152.56,225.57c3.49,0,6.31-2.83,6.31-6.31s-2.83-6.31-6.31-6.31-6.31,2.83-6.31,6.31,2.83,6.31,6.31,6.31Z" fill="url(#color-1)"/>
  <path class="color-1" d="m169.12,83.8c4.26,0,7.72-3.46,7.72-7.72s-3.46-7.72-7.72-7.72-7.72,3.46-7.72,7.72,3.46,7.72,7.72,7.72Z" fill="url(#color-1)"/>
  <path class="color-1" d="m97.98,66.23c4.26,0,7.72-3.46,7.72-7.72s-3.46-7.72-7.72-7.72-7.72,3.46-7.72,7.72,3.46,7.72,7.72,7.72Z" fill="url(#color-1)"/>
  <path class="color-1" d="m115.89,55.56c4.26,0,7.72-3.46,7.72-7.72s-3.46-7.72-7.72-7.72-7.72,3.46-7.72,7.72,3.46,7.72,7.72,7.72Z" fill="url(#color-1)"/>
  <path stroke-linejoin="round" stroke-linecap="round" class="stroke-width stroke-color-1" d="m21.36,46.01h14.73" fill="none"/>
  <path stroke-linejoin="round" stroke-linecap="round" class="stroke-width stroke-color-1" d="m21.36,50.32h14.73" fill="none"/>
  <path stroke-linejoin="round" stroke-linecap="round" class="stroke-width stroke-color-1" d="m21.36,54.64h14.73" fill="none"/>
  <path stroke-linejoin="round" stroke-linecap="round" class="stroke-width stroke-color-1" d="m21.36,58.95h14.73" fill="none"/>
  <path stroke-linejoin="round" stroke-linecap="round" class="stroke-width stroke-color-1" d="m149.27,50.34h14.73" fill="none"/>
  <path stroke-linejoin="round" stroke-linecap="round" class="stroke-width stroke-color-1" d="m149.27,54.66h14.73" fill="none"/>
  <path stroke-linejoin="round" stroke-linecap="round" class="stroke-width stroke-color-1" d="m149.27,58.97h14.73" fill="none"/>
  <path stroke-linejoin="round" stroke-linecap="round" class="stroke-width stroke-color-1" d="m149.27,28.76h14.73" fill="none"/>
  <path stroke-linejoin="round" stroke-linecap="round" class="stroke-width stroke-color-1" d="m149.27,33.08h14.73" fill="none"/>
  <path stroke-linejoin="round" stroke-linecap="round" class="stroke-width stroke-color-1" d="m149.27,37.4h14.73" fill="none"/>
  <path stroke-linejoin="round" stroke-linecap="round" class="stroke-width stroke-color-1" d="m149.27,41.71h14.73" fill="none"/>
  <path stroke-linejoin="round" stroke-linecap="round" class="stroke-width stroke-color-1" d="m132.76,92.46h14.73" fill="none"/>
  <path stroke-linejoin="round" stroke-linecap="round" class="stroke-width stroke-color-1" d="m132.76,96.78h14.73" fill="none"/>
  <path stroke-linejoin="round" stroke-linecap="round" class="stroke-width stroke-color-1" d="m132.76,70.88h14.73" fill="none"/>
  <path stroke-linejoin="round" stroke-linecap="round" class="stroke-width stroke-color-1" d="m132.76,75.19h14.73" fill="none"/>
  <path stroke-linejoin="round" stroke-linecap="round" class="stroke-width stroke-color-1" d="m132.76,79.51h14.73" fill="none"/>
  <path stroke-linejoin="round" stroke-linecap="round" class="stroke-width stroke-color-1" d="m132.76,83.82h14.73" fill="none"/>
  <path stroke-linejoin="round" stroke-linecap="round" class="stroke-width stroke-color-1" d="m35.55,88.14h14.73" fill="none"/>
  <path stroke-linejoin="round" stroke-linecap="round" class="stroke-width stroke-color-1" d="m35.55,92.46h14.73" fill="none"/>
  <path stroke-linejoin="round" stroke-linecap="round" class="stroke-width stroke-color-1" d="m35.55,96.78h14.73" fill="none"/>
  <path stroke-linejoin="round" stroke-linecap="round" class="stroke-width stroke-color-1" d="m35.55,70.88h14.73" fill="none"/>
  <path stroke-linejoin="round" stroke-linecap="round" class="stroke-width stroke-color-1" d="m35.55,75.19h14.73" fill="none"/>
  <path stroke-linejoin="round" stroke-linecap="round" class="stroke-width stroke-color-1" d="m35.55,79.51h14.73" fill="none"/>
  <path stroke-linejoin="round" stroke-linecap="round" class="stroke-width stroke-color-1" d="m21.36,28.76h14.73" fill="none"/>
  <path stroke-linejoin="round" stroke-linecap="round" class="stroke-width stroke-color-1" d="m21.36,33.08h14.73" fill="none"/>
  <path stroke-linejoin="round" stroke-linecap="round" class="stroke-width stroke-color-1" d="m21.36,37.4h14.73" fill="none"/>
  <path stroke-linejoin="round" stroke-linecap="round" class="stroke-width stroke-color-3" d="m28.13,62.4s-1.98,13.68-12.25,13.68" fill="none"/>
  <path stroke-linejoin="round" stroke-linecap="round" class="stroke-width stroke-color-1" d="m156.87,62.4s1.98,13.68,12.25,13.68" fill="none"/>
  <path stroke-linejoin="round" stroke-linecap="round" class="stroke-width stroke-color-1" d="m140.13,66.19s-.64-36.7-48.33-36.7h-.55c-47.7,0-48.33,36.7-48.33,36.7" fill="none"/>
  <path stroke-linejoin="round" stroke-linecap="round" class="stroke-width stroke-color-1" d="m140.13,101.09v42.47" fill="none"/>
  <path stroke-linejoin="round" stroke-linecap="round" class="stroke-width stroke-color-1" d="m42.91,100.97v32.97" fill="none"/>
  <path stroke-linejoin="round" stroke-linecap="round" class="stroke-width stroke-color-1" d="m62.58,223.96v29.57" fill="none"/>
  <path stroke-linejoin="round" stroke-linecap="round" class="stroke-width stroke-color-1" d="m48.43,260.27v29.57" fill="none"/>
  <path stroke-linejoin="round" stroke-linecap="round" class="stroke-width stroke-color-1" d="m94.47,223.96v29.57" fill="none"/>
  <path stroke-linejoin="round" stroke-linecap="round" class="stroke-width stroke-color-1" d="m113.83,230.43h48.93" fill="none"/>
  <path stroke-linejoin="round" stroke-linecap="round" class="stroke-width stroke-color-1" d="m42.8,137.58s2.32,14.79,24.77,14.79" fill="none"/>
  <path stroke-linejoin="round" stroke-linecap="round" class="stroke-width stroke-color-1" d="m96.03,137.58s-2.32,14.79-24.77,14.79" fill="none"/>
  <path stroke-linejoin="round" stroke-linecap="round" class="stroke-width stroke-color-1" d="m65.14,187.31s2.32,14.79,24.77,14.79" fill="none"/>
  <path stroke-linejoin="round" stroke-linecap="round" class="stroke-width stroke-color-1" d="m23.11,195.56s2.61,40.11,27.84,40.11" fill="none"/>
  <path class="color-2" d="m163.51,258.03c4.26,0,7.72-3.46,7.72-7.72s-3.46-7.72-7.72-7.72-7.72,3.46-7.72,7.72,3.46,7.72,7.72,7.72Z" fill="url(#color-2)"/>
  <path stroke-linejoin="round" stroke-linecap="round" class="stroke-width stroke-color-1" d="m147.25,230.68s1.52,19.63,16.26,19.63" fill="none"/>
  <path class="color-2" d="m113.03,253.53c4.26,0,7.72-3.46,7.72-7.72s-3.46-7.72-7.72-7.72-7.72,3.46-7.72,7.72,3.46,7.72,7.72,7.72Z" fill="url(#color-2)"/>
  <path stroke-linejoin="round" stroke-linecap="round" class="stroke-width stroke-color-1" d="m129.02,230.34s-1.52,16.12-16.26,16.12" fill="none"/>
  <path stroke-linejoin="round" stroke-linecap="round" class="stroke-width stroke-color-1" d="m139.35,148.86s-4.24,53.23-45.32,53.23" fill="none"/>
  <path class="color-2" d="m117.58,88.36c0,1.52.56,2.9,1.49,3.95-.92,1.06-1.49,2.44-1.49,3.95s.57,2.9,1.49,3.96c-.93,1.06-1.49,2.45-1.49,3.96s.56,2.9,1.49,3.95c-.92,1.06-1.49,2.44-1.49,3.96s.57,2.9,1.49,3.96c-.93,1.06-1.49,2.45-1.49,3.96,0,3.33,2.7,6.03,6.03,6.03s6.03-2.7,6.03-6.03c0-1.52-.57-2.9-1.49-3.96.93-1.06,1.49-2.45,1.49-3.96s-.56-2.9-1.49-3.96c.92-1.06,1.49-2.44,1.49-3.95s-.57-2.9-1.49-3.96c.93-1.06,1.49-2.45,1.49-3.96s-.56-2.9-1.49-3.95c.92-1.06,1.49-2.44,1.49-3.95,0-3.33-2.7-6.03-6.03-6.03s-6.03,2.7-6.03,6.03Z" fill="url(#color-2)"/>
  <path class="color-1" d="m123.59,120.03c2.11,0,3.82-1.77,3.82-3.96s-1.71-3.96-3.82-3.96-3.82,1.77-3.82,3.96,1.71,3.96,3.82,3.96Z" fill="url(#color-1)"/>
  <path class="color-1" d="m123.59,112.12c2.11,0,3.82-1.77,3.82-3.96s-1.71-3.96-3.82-3.96-3.82,1.77-3.82,3.96,1.71,3.96,3.82,3.96Z" fill="url(#color-1)"/>
  <path class="color-1" d="m123.59,104.21c2.11,0,3.82-1.77,3.82-3.96s-1.71-3.96-3.82-3.96-3.82,1.77-3.82,3.96,1.71,3.96,3.82,3.96Z" fill="url(#color-1)"/>
  <path class="color-1" d="m123.59,96.29c2.11,0,3.82-1.77,3.82-3.96s-1.71-3.96-3.82-3.96-3.82,1.77-3.82,3.96,1.71,3.96,3.82,3.96Z" fill="url(#color-1)"/>
  <path class="color-4" d="m123.61,121.45c.77,0,1.4-.63,1.4-1.4s-.63-1.4-1.4-1.4-1.4.63-1.4,1.4.63,1.4,1.4,1.4Z" fill="url(#color-4)"/>
  <path class="color-4" d="m123.61,89.31c.77,0,1.4-.63,1.4-1.4s-.63-1.4-1.4-1.4-1.4.63-1.4,1.4.63,1.4,1.4,1.4Z" fill="url(#color-4)"/>
  <path stroke-linejoin="round" stroke-linecap="round" class="stroke-width stroke-color-4" d="m123.61,120.03v-32.13" fill="none"/>
  <path class="color-3" d="m91.03,226h-7.72v22.14h7.72v-22.14Z" fill="url(#color-3)"/>
  <path stroke-linejoin="round" stroke-linecap="round" class="stroke-width stroke-color-1" d="m86.97,228.81h-15.49" fill="none"/>
  <path stroke-linejoin="round" stroke-linecap="round" class="stroke-width stroke-color-1" d="m86.97,245.34h-15.49" fill="none"/>
  <path stroke-linejoin="round" stroke-linecap="round" class="stroke-width stroke-color-1" d="m66.02,232.76h11.93" fill="none"/>
  <path stroke-linejoin="round" stroke-linecap="round" class="stroke-width stroke-color-1" d="m66.02,237.07h11.93" fill="none"/>
  <path stroke-linejoin="round" stroke-linecap="round" class="stroke-width stroke-color-1" d="m66.02,241.39h11.93" fill="none"/>
  <path class="color-2" d="m89.49,261.26h-7.72v22.14h7.72v-22.14Z" fill="url(#color-2)"/>
  <path class="color-2" d="m81.17,282.25h-7.72v14.76h7.72v-14.76Z" fill="url(#color-2)"/>
  <path stroke-linejoin="round" stroke-linecap="round" class="stroke-width stroke-color-1" d="m85.16,264.06h-15.7" fill="none"/>
  <path stroke-linejoin="round" stroke-linecap="round" class="stroke-width stroke-color-1" d="m85.16,280.6h-15.7" fill="none"/>
  <path stroke-linejoin="round" stroke-linecap="round" class="stroke-width stroke-color-1" d="m62.96,268.01h11.93" fill="none"/>
  <path stroke-linejoin="round" stroke-linecap="round" class="stroke-width stroke-color-1" d="m62.96,272.33h11.93" fill="none"/>
  <path stroke-linejoin="round" stroke-linecap="round" class="stroke-width stroke-color-1" d="m62.96,276.65h11.93" fill="none"/>
  <path class="color-2" d="m67.98,102.87c4.26,0,7.72-3.46,7.72-7.72s-3.46-7.72-7.72-7.72-7.72,3.46-7.72,7.72,3.46,7.72,7.72,7.72Z" fill="url(#color-2)"/>
  <path class="color-3" d="m86.35,91.06c4.26,0,7.72-3.46,7.72-7.72s-3.46-7.72-7.72-7.72-7.72,3.46-7.72,7.72,3.46,7.72,7.72,7.72Z" fill="url(#color-3)"/>
  <path stroke-linejoin="round" stroke-linecap="round" class="stroke-width stroke-color-1" d="m86.32,83.34s-.65,11.62-17.8,11.62"/>
  <path class="color-1" d="m71.1,109.43l-5.7-4.14-11.17,15.37,5.7,4.14,11.17-15.38Z" fill="url(#color-1)"/>
  <path class="color-2" d="m99.85,125.06l5.73-4.09-14.22-19.93-5.73,4.09,14.22,19.93Z" fill="url(#color-2)"/>
  <path stroke-linejoin="round" stroke-linecap="round" class="stroke-width stroke-color-1" d="m73.1,98.94h11.93" fill="none"/>
  <path stroke-linejoin="round" stroke-linecap="round" class="stroke-width stroke-color-1" d="m73.1,103.25h11.93" fill="none"/>
  <path stroke-linejoin="round" stroke-linecap="round" class="stroke-width stroke-color-1" d="m73.1,107.57h11.93" fill="none"/>
  <path stroke-linejoin="round" stroke-linecap="round" class="stroke-width stroke-color-1" d="m73.1,111.89h11.93" fill="none"/>
  <path stroke-linejoin="round" stroke-linecap="round" class="stroke-width stroke-color-1" d="m73.1,116.2h11.93" fill="none"/>
  <path stroke-linejoin="round" stroke-linecap="round" class="stroke-width stroke-color-1" d="m73.1,120.52h11.93" fill="none"/>
  <path stroke-linejoin="round" stroke-linecap="round" class="stroke-width stroke-color-1" d="m73.1,124.85h11.93" fill="none"/>
  <path class="color-1" d="m52.86,212.8v8.63h50.19v-8.63h-50.19Z" fill="url(#color-1)"/>
  <path class="color-2" d="m83.09,212.9c-3.05-.7-5.71,2.05-5.03,5.2.34,1.59,1.59,2.86,3.12,3.22,3.05.69,5.7-2.05,5.03-5.19-.34-1.59-1.58-2.87-3.12-3.22h0Z" fill="url(#color-2)"/>
  <path class="color-2" d="m91.46,212.9c-3.05-.7-5.71,2.05-5.03,5.2.34,1.59,1.59,2.86,3.12,3.22,3.05.69,5.7-2.05,5.03-5.19-.34-1.59-1.58-2.87-3.12-3.22h0Z" fill="url(#color-2)"/>
  <path class="color-2" d="m99.82,212.9c-3.05-.7-5.71,2.05-5.03,5.2.34,1.59,1.59,2.86,3.12,3.22,3.05.69,5.7-2.05,5.03-5.19-.34-1.59-1.58-2.87-3.12-3.22h0Z" fill="url(#color-2)"/>
  <path class="color-2" d="m74.72,212.92c-3.05-.7-5.71,2.05-5.03,5.2.34,1.59,1.59,2.86,3.12,3.22,3.05.69,5.7-2.05,5.03-5.19-.34-1.59-1.58-2.87-3.12-3.22h0Z" fill="url(#color-3)"/>
  <path class="color-2" d="m66.36,212.92c-3.05-.7-5.71,2.05-5.03,5.2.34,1.59,1.59,2.86,3.12,3.22,3.05.69,5.7-2.05,5.03-5.19-.34-1.59-1.58-2.87-3.12-3.22h0Z" fill="url(#color-2)"/>
  <path class="color-2" d="m58,212.92c-3.05-.7-5.71,2.05-5.03,5.2.34,1.59,1.59,2.86,3.12,3.22,3.05.69,5.7-2.05,5.03-5.19-.34-1.59-1.58-2.87-3.12-3.22h0Z" fill="url(#color-2)"/>
  <path stroke-linejoin="round" stroke-linecap="round" class="stroke-width stroke-color-4" d="m57.89,217.09h40.92" fill="none"/>
  <path class="color-4" d="m57.04,218.6c.82,0,1.49-.67,1.49-1.49s-.67-1.49-1.49-1.49-1.49.67-1.49,1.49.67,1.49,1.49,1.49Z" fill="url(#color-4)"/>
  <path class="color-4" d="m98.86,218.6c.82,0,1.49-.67,1.49-1.49s-.67-1.49-1.49-1.49-1.49.67-1.49,1.49.67,1.49,1.49,1.49Z" fill="url(#color-4)"/>
  <path class="color-2" d="m121.96,79.51c3.49,0,6.31-2.83,6.31-6.31s-2.83-6.31-6.31-6.31-6.31,2.83-6.31,6.31,2.83,6.31,6.31,6.31Z" fill="url(#color-2)"/>
  <path class="color-3" d="m61.29,64.82c3.49,0,6.31-2.83,6.31-6.31s-2.83-6.31-6.31-6.31-6.31,2.83-6.31,6.31,2.83,6.31,6.31,6.31Z" fill="url(#color-3)"/>
  <path class="color-2" d="m79.2,49.64c3.49,0,6.31-2.83,6.31-6.31s-2.83-6.31-6.31-6.31-6.31,2.83-6.31,6.31,2.83,6.31,6.31,6.31Z" fill="url(#color-2)"/>
  <path stroke-linejoin="round" stroke-linecap="round" class="stroke-width stroke-color-1" d="m81.66,51.51s0,33.89,40.31,21.93" fill="none"/>
  <path stroke-linejoin="round" stroke-linecap="round" class="stroke-width stroke-color-1" d="m79.2,43.33s-.65,14.97-17.8,14.97" fill="none"/>
  <path class="color-2" d="m138.43,263.77c-1.52,0-2.9.56-3.96,1.48-1.06-.92-2.44-1.48-3.96-1.48s-2.9.56-3.96,1.48c-1.06-.92-2.44-1.48-3.96-1.48s-2.9.56-3.96,1.48c-1.06-.92-2.44-1.48-3.96-1.48s-2.9.56-3.96,1.48c-1.06-.92-2.44-1.48-3.96-1.48-3.34,0-6.04,2.71-6.04,6.04s2.71,6.04,6.04,6.04c1.52,0,2.9-.56,3.96-1.48,1.06.92,2.44,1.48,3.96,1.48s2.9-.56,3.96-1.48c1.06.92,2.44,1.48,3.96,1.48s2.9-.56,3.96-1.48c1.06.92,2.44,1.48,3.96,1.48s2.9-.56,3.96-1.48c1.06.92,2.44,1.48,3.96,1.48,3.34,0,6.04-2.71,6.04-6.04s-2.71-6.04-6.04-6.04Z" fill="url(#color-2)"/>
  <path class="color-1" d="m110.72,273.63c2.19,0,3.96-1.71,3.96-3.82s-1.77-3.82-3.96-3.82-3.96,1.71-3.96,3.82,1.77,3.82,3.96,3.82Z" fill="url(#color-1)"/>
  <path class="color-1" d="m118.64,273.63c2.19,0,3.96-1.71,3.96-3.82s-1.77-3.82-3.96-3.82-3.96,1.71-3.96,3.82,1.77,3.82,3.96,3.82Z" fill="url(#color-1)"/>
  <path class="color-1" d="m126.56,273.63c2.19,0,3.96-1.71,3.96-3.82s-1.77-3.82-3.96-3.82-3.96,1.71-3.96,3.82,1.77,3.82,3.96,3.82Z" fill="url(#color-1)"/>
  <path class="color-1" d="m134.47,273.63c2.19,0,3.96-1.71,3.96-3.82s-1.77-3.82-3.96-3.82-3.96,1.71-3.96,3.82,1.77,3.82,3.96,3.82Z" fill="url(#color-1)"/>
  <path stroke-linejoin="round" stroke-linecap="round" class="stroke-width stroke-color-4" d="m105.74,269.58h34.51" fill="none"/>
  <path class="color-4" d="m104.79,271.22c.78,0,1.4-.63,1.4-1.4s-.63-1.4-1.4-1.4-1.4.63-1.4,1.4.63,1.4,1.4,1.4Z" fill="url(#color-4)"/>
  <path class="color-4" d="m140.3,271.18c.77,0,1.4-.63,1.4-1.4s-.63-1.4-1.4-1.4-1.4.63-1.4,1.4.63,1.4,1.4,1.4Z" fill="url(#color-4)"/>
  <path stroke-linejoin="round" stroke-linecap="round" class="stroke-width stroke-color-1" d="m115.88,95.51h-11.58" fill="none"/>
  <path stroke-linejoin="round" stroke-linecap="round" class="stroke-width stroke-color-1" d="m115.88,100.2h-11.58" fill="none"/>
  <path stroke-linejoin="round" stroke-linecap="round" class="stroke-width stroke-color-1" d="m115.88,104.89h-11.58" fill="none"/>
  <path stroke-linejoin="round" stroke-linecap="round" class="stroke-width stroke-color-1" d="m115.88,109.57h-11.58" fill="none"/>
  <path stroke-linejoin="round" stroke-linecap="round" class="stroke-width stroke-color-1" d="m110.28,112.84v7.51s.05,4.18-3.6,4.18" fill="none"/>
  <path stroke-linejoin="round" stroke-linecap="round" class="stroke-width stroke-color-1" d="m110.28,91.96s.26-5.45-3.6-5.45" fill="none"/>
</svg>