<?xml version="1.0" encoding="UTF-8"?>
<svg id="middle05" xmlns="http://www.w3.org/2000/svg" viewBox="0 0 185 308">
  <defs>
    <style>
      .stroke-width {
        stroke-width: .5px;
      }

      .stroke-linecap{
        stroke-linecap: round;
      }

      .stroke-color-1 {
        stroke: #fa4013;
      }

      .stroke-color-2 {
        stroke: #9cd323;
      }

      .stroke-color-3 {
        stroke:#404272;
      }

      .stroke-color-4 {
        stroke: #ffffff;
      }      
    </style>
    <linearGradient id="color-1" gradientTransform="rotate(90)">
      <stop offset="0%" stop-color="#fa4013" />
      <stop offset="100%" stop-color="#fa4013" />
      <stop offset="100%" stop-color="white" />
    </linearGradient>
    <linearGradient id="color-2" gradientTransform="rotate(90)">
      <stop offset="0%" stop-color="#9cd323" />
      <stop offset="100%" stop-color="#9cd323" />
      <stop offset="100%" stop-color="white" />
    </linearGradient>
    <linearGradient id="color-3" gradientTransform="rotate(90)">
      <stop offset="0%" stop-color="#404272" />
      <stop offset="100%" stop-color="#404272" />
      <stop offset="100%" stop-color="white" />
    </linearGradient>   
    <linearGradient id="color-4" gradientTransform="rotate(90)">
      <stop offset="0%" stop-color="#ffffff" />
      <stop offset="100%" stop-color="#ffffff" />
      <stop offset="100%" stop-color="white" />
    </linearGradient>  
  </defs>
  <path class="stroke-width stroke-linecap stroke-color-1" d="m74.19,21.08h42.79" fill="none"/>
  <path class="stroke-width stroke-linecap stroke-color-1" d="m74.19,47.56h42.79" fill="none"/>
  <path class="stroke-width stroke-linecap stroke-color-1" d="m72.92,135.87h42.79" fill="none"/>
  <path class="stroke-width stroke-linecap stroke-color-1" d="m92.48,162.34v-26.47" fill="none"/>
  <path class="stroke-width stroke-linecap stroke-color-1" d="m72.92,162.34h42.79" fill="none"/>
  <path class="stroke-width stroke-linecap stroke-color-1" d="m21.09,293.94c1.03-4.8,8.21-35.93,9.15-40.75,2.49-12.76,3.54-26.32,4.01-39.43.13-3.54-.69-6.36-3.67-8.1-1.07-.62-2.25-.99-3.46-.99-7.48,0-6.96,9.05-6.96,9.05,0,2.52.61,4.87,2.3,6.62,1.87,1.94,5.45,2.22,7.82,1.45,1.8-.58,3.43-1.98,4.29-3.84,1.01-2.19.68-4.76.52-7.12-.26-3.87-.32-7.76,0-11.63l-.09,1.26s1.67-19.19-1.46-24.02c-2.87-4.42-6.64-4.12-6.64-4.12-7.48,0-6.96,9.05-6.96,9.05,0,9.25,7.62,8.42,7.62,8.42,8.05,0,7.55-8.35,7.55-8.35,0,0-.86-7.29-.27-14.59l-.12,1.93s1.67-19.19-1.46-24.02c-2.87-4.42-6.64-4.12-6.64-4.12-7.48,0-6.96,9.05-6.96,9.05,0,9.25,7.62,8.42,7.62,8.42,8.05,0,7.55-8.35,7.55-8.35,0,0,.59-21.77.18-29.09,0,0-1.53-13.05,3.65-12.11" fill="none"/>
  <path class="stroke-width stroke-linecap stroke-color-1" d="m163.91,293.94c-1.03-4.8-8.21-35.93-9.15-40.75-2.49-12.76-3.54-26.32-4.01-39.43-.13-3.54.69-6.36,3.67-8.1,1.07-.62,2.25-.99,3.46-.99,7.48,0,6.96,9.05,6.96,9.05,0,2.52-.61,4.87-2.3,6.62-1.87,1.94-5.45,2.22-7.82,1.45-1.8-.58-3.43-1.98-4.29-3.84-1.01-2.19-.68-4.76-.52-7.12.26-3.87.32-7.76,0-11.63l.09,1.26s-1.67-19.19,1.46-24.02c2.87-4.42,6.64-4.12,6.64-4.12,7.48,0,6.96,9.05,6.96,9.05,0,9.25-7.62,8.42-7.62,8.42-8.05,0-7.55-8.35-7.55-8.35,0,0,.86-7.29.26-14.59l.12,1.93s-1.67-19.19,1.46-24.02c2.87-4.42,6.64-4.12,6.64-4.12,7.48,0,6.96,9.05,6.96,9.05,0,9.25-7.62,8.42-7.62,8.42-8.05,0-7.55-8.35-7.55-8.35,0,0-.59-21.77-.18-29.09,0,0,1.53-13.05-3.65-12.11" fill="none"/>
  <path class="stroke-width stroke-linecap stroke-color-1" d="m87.36,104.38s1.3-5.61-3.74-5.61h-5.58" fill="none"/>
  <path class="stroke-width stroke-linecap stroke-color-1" d="m98.39,106.73v3.08" fill="none"/>
  <path class="stroke-width stroke-linecap stroke-color-1" d="m117.18,121.18h4.76s15.25.52,15.25,14.69c0,15.03-15.25,14.84-15.25,14.84h-17.84s-4.61.38-4.61,4.89,5.43,4.31,5.43,4.31h23.05s3.17,0,3.17,2.88-3.26,2.78-3.26,2.78h-33.18s-11.51-.58-8.34,14.19" fill="none"/>
  <path class="stroke-width stroke-linecap stroke-color-1" d="m143.04,246.9s6.24.05,6.24-5.94c0,0,.44-6.38-6.24-6.38h-39.61s-8.25.55-8.25-5.42c0-4.03-4.9-5.56-8.44-5.56h-25.03s-7.87,0-7.87-7.16c0,0-.64-7.75,7.93-7.75h22.38s14.04.6,14.04-11.05c0,0,1.81-10.82-14.68-10.82h-25.71s-9.72,1.58-9.72-10.26c0,0,1.03-8.84,9.2-8.84h13.57s2.23-.38,1.52,3" fill="none"/>
  <path class="stroke-width stroke-linecap stroke-color-1" d="m112.86,185.17h-4.31s-5.18.17-5.18,3.97,5.34,4.25,5.34,4.25h5.99s4.33-.22,4.33,4.25v3.34" fill="none"/>
  <path class="stroke-width stroke-linecap stroke-color-1" d="m110.6,284.57v-33.06" fill="none"/>
  <path class="stroke-width stroke-linecap stroke-color-1" d="m92.97,284.57v-33.06" fill="none"/>
  <path class="stroke-width stroke-linecap stroke-color-1" d="m104.91,273.63v-5.01" fill="none"/>
  <path class="stroke-width stroke-linecap stroke-color-1" d="m106.14,70.61s.41,5.78,5.11,5.78h25.46s9.6.67,9.6-8.66v-26.34s.34-13.17,9.5-13.17" fill="none"/>
  <path class="color-2" d="m118.45,52.12V13.81c0,2.04-3.31.98-4.55,1.01-1.88.05-1.56,1.7-1.56,1.7v38.31c0-2.04,3.31-.94,4.55-1.01,1.75-.1,1.56-1.7,1.56-1.7Z" fill="url(#color-2)"/>
  <path class="color-2" d="m104.55,146.79h-24.1v6.11h24.1v-6.11Z" fill="url(#color-2)"/>
  <path class="color-1" d="m101.75,48.54c-1.88.05-1.56,1.7-1.56,1.7v18.76s-.32,1.65,1.56,1.7c1.25.03,4.55-1.04,4.55,1.01v-24.18c0,2.04-3.31.98-4.55,1.01Z" fill="url(#color-1)"/>
  <path class="color-1" d="m73.7,14.82c-1.56,0-1.56,1.7-1.56,1.7v38.31c0-2.04,3.31-1.01,4.55-1.01s1.56-1.7,1.56-1.7V13.81c0,2.04-3.31,1.01-4.55,1.01Z" fill="url(#color-1)"/>
  <path class="color-1" d="m140.67,246.62s-30.34-10.73-44.6-31.91h-6.87s5.24,20.39,51.47,38.86c0,0,1.73.56,1.96-2.19.19-2.4.2-4.65,2.03-4.65l-3.99-.11h0Z" fill="url(#color-1)"/>
  <path class="color-1" d="m128.26,63.81c-3.38,0-6.11-2.74-6.11-6.11v-7.78c.07.44.73,1.66,6.11,1.66,3.38,0,6.11,2.74,6.11,6.11s-2.74,6.11-6.11,6.11Z" fill="url(#color-1)"/>
  <path class="color-1" d="m92.08,192.11c-3.38,0-6.11-2.74-6.11-6.11v-7.78c.07.44.73,1.66,6.11,1.66,3.38,0,6.11,2.74,6.11,6.11s-2.74,6.11-6.11,6.11Z" fill="url(#color-1)"/>
  <path class="color-1" d="m92.86,247.11c-3.38,0-6.11-2.74-6.11-6.11v-7.78c.07.44.73,1.66,6.11,1.66,3.38,0,6.11,2.74,6.11,6.11s-2.74,6.11-6.11,6.11Z" fill="url(#color-1)"/>
  <path class="color-1" d="m100.45,281.78c2.55,0,4.63-2.07,4.63-4.63v-5.88c-.05.33-.56,1.26-4.63,1.26-2.55,0-4.63,2.07-4.63,4.63s2.07,4.63,4.63,4.63Z" fill="url(#color-1)"/>
  <path class="color-1" d="m125.4,179.26c0,3.38-2.74,6.11-6.11,6.11h-7.78c.44-.07,1.66-.73,1.66-6.11,0-3.38,2.74-6.11,6.11-6.11s6.11,2.74,6.11,6.11Z" fill="url(#color-1)"/>
  <path class="color-1" d="m57.91,50.06c3.38,0,6.11-2.74,6.11-6.11v-7.78c-.07.44-.73,1.66-6.11,1.66-3.38,0-6.11,2.74-6.11,6.11s2.74,6.11,6.11,6.11Z" fill="url(#color-1)"/>
  <path class="color-1" d="m66.55,183.51c3.38,0,6.11-2.74,6.11-6.11v-7.78c-.07.44-.73,1.66-6.11,1.66-3.38,0-6.11,2.74-6.11,6.11s2.74,6.11,6.11,6.11Z" fill="url(#color-1)"/>
  <path class="color-1" d="m73.38,105.61s4.27,0,4.12-4.75c0,0,.22-2.26,1.68-2.26h-11.64s1.37.35,1.41,1.11c.05.75-.62,5.69,4.42,5.9h0Z" fill="url(#color-1)"/>
  <path class="color-1" d="m82.85,105.07c-2.42,0-2.19,1.96-2.19,1.96,0,10.14-6.96,14.01-9.46,14.9-.5.18-1.4.4-1.93.4h-3.16c1.42,0,1.79,1.27,1.87,1.99.1.81.34,1.59.77,2.26.56.86,1.49,1.65,2.98,1.43,2.98-.44,5.66-1.93,5.66-1.93,10.13-5.61,10.12-19.05,10.12-19.05v-4.01c0,1.84-2.24,2.04-4.66,2.04Z" fill="url(#color-1)"/>
  <path class="color-1" d="m111.56,96.96c-.1-.81-.34-1.59-.77-2.26-.56-.86-1.47-1.47-2.98-1.43-3.41.09-5.66,1.93-5.66,1.93-4.18,2.72-3.95,8.73-3.95,8.73v4.01c0-1.84,2.24-2.04,4.66-2.04s2.19-1.96,2.19-1.96c0-2.95.79-3.68,3.29-4.58.5-.18,1.4-.4,1.93-.4h3.16c-1.42,0-1.79-1.27-1.87-1.99Z" fill="url(#color-1)"/>
  <path class="color-1" d="m95.92,89.23v-2.71c0,2.04-3.31.98-4.55,1.01-1.68.05-1.6,1.38-1.57,1.65v37.78c-.03.31-.14,2.02,1.56,2.07,1.25.04,4.55-1.29,4.55,1.26v-3.38h-.01v-37.67h.02Z" fill="url(#color-1)"/>
  <path class="color-1" d="m122.5,286.14c0-1.56-1.7-1.56-1.7-1.56h-58.31c2.04,0,1.01,3.31,1.01,4.55s1.7,1.56,1.7,1.56h58.31c-2.04,0-1.01-3.31-1.01-4.55Z" fill="url(#color-1)"/>
  <path class="color-1" d="m88.77,259.67s1.35-1.28,1.35-4.83c0-8.7-10.87-7.63-10.87-7.63-2.75,0-3.42,2.29-3.42,2.29v7.66c0-2.85,3.42-3.83,3.42-3.83,3.42-1.14,4.7,1.51,4.7,1.51,0,0,.71,4.83-3.61,4.83,0,0,3.65,1.05,3.65,3.71,0,0-.1,4.7-8.17,4.7v7.56s.13-1.45,1.43-1.45,12.87-1.83,12.87-10.81c0,0,.06-3.71-1.35-3.71Z" fill="url(#color-1)"/>
  <path class="color-1" d="m98.57,247.38s-5.77.09-5.77,4.54v7.34s1.43-5.77,5.77-5.77c2.75,0,3.42-2.29,3.42-2.29v-7.66c0,2.85-3.42,3.83-3.42,3.83Z" fill="url(#color-1)"/>
  <path class="color-3" d="m100.45,259.11c2.55,0,4.63,2.07,4.63,4.63v5.88c-.05-.33-.56-1.26-4.63-1.26-2.55,0-4.63-2.07-4.63-4.63s2.07-4.63,4.63-4.63Z" fill="url(#color-3)"/>
  <path class="color-3" d="m69.37,129.61c-1.56,0-1.56,1.7-1.56,1.7v38.31c0-2.04,3.31-1.01,4.55-1.01s1.56-1.7,1.56-1.7v-38.31c0,2.04-3.31,1.01-4.55,1.01Z" fill="url(#color-3)"/>
  <path class="color-3" d="m146.9,108.43l-2.83-.05s-37.96-17.84-48.51-44.5h0v-4.14c0,1.9-2,2.11-4.15,2.11s-1.96,2.02-1.96,2.02h0c-10.56,26.66-48.51,44.5-48.51,44.5l-2.83.05c-.1,0-.17.08-.08.13.98.54.63,2.27,1.11,3.97.76,2.67,1.81,1.96,1.81,1.96,33.27-16.64,46.47-33.67,51.57-43.12,5.09,9.45,18.29,26.48,51.57,43.12,0,0,1.05.71,1.81-1.96.48-1.7.13-3.43,1.11-3.97.09-.05.02-.13-.08-.13h0Z" fill="url(#color-3)"/>
  <path class="color-3" d="m119.17,199.72c-.71,2.16-4.03,2.85-4.03,2.85-42.48,6.44-42.77-15.75-42.77-15.75,0,0,.32-2.02-1.56-2.08-1.25-.04-4.55,1.26-4.55-1.23v3.31c4.9,31.38,48.88,21.87,48.88,21.87,4.86,0,4.03-8.97,4.03-8.97Z" fill="url(#color-3)"/>
  <path class="color-4" d="m96.08,214.72v-4.09c0,1.87-2.25,2.09-4.67,2.09s-2.2,2-2.2,2h0c-14.27,21.19-44.6,31.91-44.6,31.91h0v-.05l-3.99.11c1.83,0,1.84,2.25,2.03,4.65.22,2.76,1.96,2.19,1.96,2.19v.05c46.23-18.48,51.47-38.86,51.47-38.86h0Z" fill="url(#color-4)"/>
  <path class="color-4" d="m117.18,166.91v-38.31c0,2.04-3.31.98-4.55,1.01-1.88.05-1.56,1.7-1.56,1.7v38.31c0-2.04,3.31-.94,4.55-1.01,1.74-.1,1.56-1.7,1.56-1.7Z" fill="url(#color-4)"/>
  <path class="color-4" d="m84.4,49.97c-2.15,0-1.96,2.32-1.96,2.32-7.25,21.6-25.66,19.54-25.66,19.54,0,0-1.7,0-1.7,1.56,0,1.25,1.04,4.55-1.01,4.55h2.71c28.71-1.27,31.77-25.66,31.77-25.66v-4.73c0,2.17-2,2.41-4.15,2.41h0Z" fill="url(#color-4)"/>
  <path class="color-4" d="m115.52,121.18c-.53,0-1.43-.22-1.93-.4-2.51-.9-7.37-2.36-8.53-8.22,0,0,.22-1.96-2.19-1.96s-4.66-.2-4.66-2.04v4.01s-.25,7.84,9.18,12.37c0,0,2.67,1.49,5.66,1.93,1.49.22,2.43-.58,2.98-1.43.43-.67.67-1.45.77-2.26.1-.73.46-1.99,1.87-1.99h-3.16,0Z" fill="url(#color-4)"/>
  <path class="color-4" d="m82.96,277.11s0-4.27,4.75-4.12c0,0,2.26-.22,2.26-1.68v11.64s-.35-1.37-1.11-1.41c-.75-.05-5.69.62-5.9-4.42h0Z" fill="url(#color-4)"/>
  <path class="color-4" d="m103.77,254.82s0-4.27,4.75-4.12c0,0,2.26-.22,2.26-1.68v11.64s-.35-1.37-1.11-1.41c-.75-.05-5.69.62-5.9-4.42h0Z" fill="url(#color-4)"/>
</svg>