<?xml version="1.0" encoding="UTF-8"?>
<svg xmlns="http://www.w3.org/2000/svg" viewBox="0 0 185 308">
  <defs>
    <style>
      .stroke-width {
        stroke-width: .5px;
      }

      .stroke-color-1 {
        stroke: #fa4013;
      }

      .stroke-color-2 {
        stroke: #9cd323;
      }

      .stroke-color-3 {
        stroke:#404272;
      }

      .stroke-color-4 {
        stroke: #ffffff;
      }      
    </style>
    <linearGradient id="color-1" gradientTransform="rotate(90)">
      <stop offset="0%" stop-color="#fa4013" />
      <stop offset="100%" stop-color="#fa4013" />
      <stop offset="100%" stop-color="white" />
    </linearGradient>
    <linearGradient id="color-2" gradientTransform="rotate(90)">
      <stop offset="0%" stop-color="#9cd323" />
      <stop offset="100%" stop-color="#9cd323"/>
      <stop offset="100%" stop-color="white" />
    </linearGradient>
    <linearGradient id="color-3" gradientTransform="rotate(90)">
      <stop offset="0%" stop-color="#404272" />
      <stop offset="100%" stop-color="#404272" />
      <stop offset="100%" stop-color="white" />
    </linearGradient>   
    <linearGradient id="color-4" gradientTransform="rotate(90)">
      <stop offset="0%" stop-color="#ffffff" />
      <stop offset="100%" stop-color="#ffffff" />
      <stop offset="100%" stop-color="white" />
    </linearGradient>  
  </defs>
    <path class="color-2" d="m100.92,287.44c2.21,0,4-1.79,4-4s-1.79-4-4-4-4,1.79-4,4,1.79,4,4,4Z" fill="url(#color-2)"/>
    <path class="color-1" d="m161,254.88c2.21,0,4-1.79,4-4s-1.79-4-4-4-4,1.79-4,4,1.79,4,4,4Z" fill="url(#color-1)"/>
    <path class="color-3" d="m171.25,58.06c1.66,0,3-1.34,3-3s-1.34-3-3-3-3,1.34-3,3,1.34,3,3,3Z" fill="url(#color-3)"/>
    <path class="color-3" d="m85.88,293.84c1.66,0,3-1.34,3-3s-1.34-3-3-3-3,1.34-3,3,1.34,3,3,3Z" fill="url(#color-3)"/>
    <path class="color-2" d="m89.07,250.61c0-1.11.17-2.18.46-3.2-.01,0-.03.01-.04.02l-57.75,33.34c-4,2.31-5.37,7.42-3.06,11.41,2.31,4,7.42,5.37,11.41,3.06l57.75-33.34s.03-.02.04-.03c-5.06-1.26-8.81-5.82-8.81-11.27Z" fill="url(#color-2)"/>
    <path class="color-1" d="m100.69,238.98c-5.31,0-9.78,3.57-11.17,8.43,3.99-2.27,9.07-.9,11.37,3.08,2.3,3.98.94,9.07-3.01,11.38.9.23,1.84.36,2.81.36,6.42,0,11.62-5.2,11.62-11.62s-5.2-11.62-11.62-11.62Z" fill="url(#color-1)"/>
    <path class="color-3" d="m100.9,250.49c-2.3-3.98-7.38-5.35-11.37-3.08-.29,1.02-.46,2.09-.46,3.2,0,5.45,3.76,10.01,8.81,11.27,3.96-2.32,5.31-7.4,3.01-11.38Z" fill="url(#color-3)"/>
    <path class="color-2" d="m42.75,36.8v19.99c0,4.61,3.74,8.35,8.35,8.35s8.35-3.74,8.35-8.35v-19.99c0-4.61-3.74-8.35-8.35-8.35s-8.35,3.74-8.35,8.35Z" fill="url(#color-2)"/>
    <path class="color-1" d="m69.32,36.81v19.99c0,4.61,3.74,8.35,8.35,8.35s8.35-3.74,8.35-8.35v-19.99c0-4.61-3.74-8.35-8.35-8.35s-8.35,3.74-8.35,8.35Z" fill="url(#color-1)"/>
    <path class="color-1" d="m73.15,33.77h-18.51c-2.63,0-4.76,2.13-4.76,4.76h0c0,2.64,2.13,4.77,4.76,4.77h18.51c2.63,0,4.76-2.13,4.76-4.76h0c0-2.64-2.13-4.77-4.76-4.77Z" fill="url(#color-1)"/>
    <path class="color-1" d="m73.15,50.3h-18.51c-2.63,0-4.76,2.13-4.76,4.76h0c0,2.64,2.13,4.77,4.76,4.77h18.51c2.63,0,4.76-2.13,4.76-4.76h0c0-2.64-2.13-4.77-4.76-4.77Z" fill="url(#color-1)"/>
    <path class="color-3" d="m117.13,36.81v19.99c0,4.61,3.74,8.35,8.35,8.35s8.35-3.74,8.35-8.35v-19.99c0-4.61-3.74-8.35-8.35-8.35s-8.35,3.74-8.35,8.35Z" fill="url(#color-3)"/>
    <path fill="#ffffff" class="color-5" d="m143.71,36.8v19.99c0,4.61,3.74,8.35,8.35,8.35s8.35-3.74,8.35-8.35v-19.99c0-4.61-3.74-8.35-8.35-8.35s-8.35,3.74-8.35,8.35Z"/>
    <path class="color-1" d="m147.53,33.77h-18.51c-2.63,0-4.76,2.13-4.76,4.76h0c0,2.64,2.13,4.77,4.76,4.77h18.51c2.63,0,4.76-2.13,4.76-4.76h0c0-2.64-2.13-4.77-4.76-4.77Z" fill="url(#color-1)"/>
    <path class="color-1" d="m147.53,50.3h-18.51c-2.63,0-4.76,2.13-4.76,4.76h0c0,2.64,2.13,4.77,4.76,4.77h18.51c2.63,0,4.76-2.13,4.76-4.76h0c0-2.64-2.13-4.77-4.76-4.77Z" fill="url(#color-1)"/>
    <path class="color-3" d="m101.83,58.98c6.42,0,11.62-5.2,11.62-11.62s-5.2-11.62-11.62-11.62-11.62,5.2-11.62,11.62,5.2,11.62,11.62,11.62Z" fill="url(#color-3)"/>
    <path class="color-1" d="m23.65,100.95v19.99c0,4.61,3.74,8.35,8.35,8.35s8.35-3.74,8.35-8.35v-19.99c0-4.61-3.74-8.35-8.35-8.35s-8.35,3.74-8.35,8.35Z" fill="url(#color-1)"/>
    <path class="color-2" d="m50.23,100.95v19.99c0,4.61,3.74,8.35,8.35,8.35s8.35-3.74,8.35-8.35v-19.99c0-4.61-3.74-8.35-8.35-8.35s-8.35,3.74-8.35,8.35Z" fill="url(#color-2)"/>
    <path class="color-1" d="m54.05,97.92h-18.51c-2.63,0-4.76,2.13-4.76,4.76h0c0,2.64,2.13,4.77,4.76,4.77h18.51c2.63,0,4.76-2.13,4.76-4.76h0c0-2.64-2.13-4.77-4.76-4.77Z" fill="url(#color-1)"/>
    <path class="color-1" d="m54.05,114.45h-18.51c-2.63,0-4.76,2.13-4.76,4.76h0c0,2.64,2.13,4.77,4.76,4.77h18.51c2.63,0,4.76-2.13,4.76-4.76h0c0-2.64-2.13-4.77-4.76-4.77Z" fill="url(#color-1)"/>
    <path fill="#ffffff" class="color-5" d="m98.03,100.95v19.99c0,4.61,3.74,8.35,8.35,8.35s8.35-3.74,8.35-8.35v-19.99c0-4.61-3.74-8.35-8.35-8.35s-8.35,3.74-8.35,8.35Z"/>
    <path class="color-1" d="m124.61,100.95v19.99c0,4.61,3.74,8.35,8.35,8.35s8.35-3.74,8.35-8.35v-19.99c0-4.61-3.74-8.35-8.35-8.35s-8.35,3.74-8.35,8.35Z" fill="url(#color-1)"/>
    <path class="color-1" d="m128.44,97.92h-18.51c-2.63,0-4.76,2.13-4.76,4.76h0c0,2.64,2.13,4.77,4.76,4.77h18.51c2.63,0,4.76-2.13,4.76-4.76h0c0-2.64-2.13-4.77-4.76-4.77Z" fill="url(#color-1)"/>
    <path class="color-1" d="m128.44,114.45h-18.51c-2.63,0-4.76,2.13-4.76,4.76h0c0,2.64,2.13,4.77,4.76,4.77h18.51c2.63,0,4.76-2.13,4.76-4.76h0c0-2.64-2.13-4.77-4.76-4.77Z" fill="url(#color-1)"/>
    <path class="color-1" d="m82.73,123.11c6.42,0,11.62-5.2,11.62-11.62s-5.2-11.62-11.62-11.62-11.62,5.2-11.62,11.62,5.2,11.62,11.62,11.62Z" fill="url(#color-1)"/>
    <path class="color-1" d="m46.66,193.08c-4.19,0-7.89-3.03-8.59-7.3-.78-4.75,2.43-9.23,7.19-10.02,18.57-3.06,22.79-11.94,23.3-13.19.89-3.97,4.29-6.81,8.37-6.81s7.48,2.83,8.37,6.81c.51,1.26,4.73,10.13,23.3,13.19,4.75.78,7.97,5.27,7.19,10.02-.78,4.75-5.27,7.96-10.02,7.19-14.37-2.37-23.32-7.68-28.83-12.87-5.51,5.19-14.46,10.5-28.83,12.87-.48.08-.96.12-1.43.12h0Z" fill="url(#color-1)"/>
    <path class="color-1" d="m93.65,225.98v-8.4h-33.46v8.4c0,4.34-3.31,7.9-7.54,8.31h48.55c-4.24-.41-7.54-3.97-7.54-8.31h0Z" fill="url(#color-1)"/>
    <path class="color-1" d="m110.36,225.23v.75c0,2.01-.71,3.86-1.9,5.3,1.21-1.45,1.93-3.31,1.93-5.35,0-.24-.01-.47-.04-.7h0Z" fill="url(#color-1)"/>
    <path class="color-1" d="m110.36,206.34v.73c.02-.23.04-.46.04-.7,0-3.18-1.77-5.94-4.39-7.35,2.59,1.42,4.35,4.17,4.35,7.34h0Z" fill="url(#color-1)"/>
    <path class="color-1" d="m60.18,206.34v8.38h33.46v-8.38c0-4.48,3.53-8.13,7.97-8.33h-13.11c-.48,5.98-5.47,10.69-11.57,10.69s-11.09-4.71-11.57-10.69h-13.04c4.39.25,7.87,3.88,7.87,8.33h0Z" fill="url(#color-1)"/>
    <path class="color-1" d="m102.04,214.72h-8.39v2.87h8.39c4.37,0,7.96,3.36,8.32,7.65v-18.17c-.36,4.29-3.94,7.65-8.32,7.65Z" fill="url(#color-1)"/>
    <path class="color-1" d="m102.04,234.29h-.84c.27.03.54.04.81.04,2.6,0,4.93-1.19,6.45-3.05-1.53,1.84-3.84,3.01-6.42,3.01Z" fill="url(#color-1)"/>
    <path class="color-1" d="m106,199c-1.19-.65-2.55-1.02-4-1.02-.13,0-.26.01-.39.02h.42c1.44,0,2.79.36,3.97,1h0Z" fill="url(#color-1)"/>
    <path class="color-3" d="m110.36,225.23c-.36-4.29-3.94-7.65-8.32-7.65h-8.39v8.4c0,4.34,3.31,7.9,7.54,8.31h.84c2.58,0,4.89-1.17,6.42-3.01,1.18-1.45,1.9-3.29,1.9-5.3v-.75Z" fill="url(#color-3)"/>
    <path class="color-3" d="m93.65,206.34v8.38h8.39c4.37,0,7.96-3.36,8.32-7.65v-.73c0-3.16-1.76-5.91-4.35-7.34-1.18-.64-2.53-1-3.97-1h-.42c-4.43.2-7.97,3.85-7.97,8.33h0Z" fill="url(#color-3)"/>
    <path class="color-1" d="m44.05,225.93c0-4.61,3.74-8.35,8.35-8.35h7.77v-2.87h-7.77c-4.61,0-8.35-3.74-8.35-8.35s3.69-8.3,8.26-8.35c-.16,0-.32-.02-.49-.02-4.61,0-8.35,3.74-8.35,8.35v19.64c0,4.61,3.74,8.35,8.35,8.35.28,0,.54-.01.81-.04h-.23c-4.61,0-8.35-3.74-8.35-8.35h0Z" fill="url(#color-1)"/>
    <path class="color-3" d="m60.18,225.98v-8.4h-7.77c-4.61,0-8.35,3.74-8.35,8.35s3.74,8.35,8.35,8.35h.23c4.24-.41,7.54-3.97,7.54-8.31h0Z" fill="url(#color-3)"/>
    <path class="color-3" d="m44.05,206.36c0,4.61,3.74,8.35,8.35,8.35h7.77v-8.38c0-4.45-3.48-8.08-7.87-8.33-4.57.05-8.26,3.77-8.26,8.35h0Z" fill="url(#color-3)"/>
    <path class="color-2" d="m88.55,197.06c0-6.42-5.2-11.62-11.62-11.62s-11.62,5.2-11.62,11.62c0,.32.02.63.05.94h23.15c.02-.31.05-.62.05-.94h0Z" fill="url(#color-2)"/>
    <path class="color-3" d="m76.93,208.69c6.1,0,11.09-4.71,11.57-10.69h-23.15c.48,5.98,5.47,10.69,11.57,10.69h0Z" fill="url(#color-3)"/>
    <path class="color-2" d="m144.41,15.32c0-2.92,1.09-5.59,2.87-7.63H36.06c-4.61,0-8.35,3.74-8.35,8.35s3.74,8.35,8.35,8.35h111.63c.35,0,.68-.03,1.02-.07-2.62-2.13-4.29-5.38-4.29-9.02h0Z" fill="url(#color-2)"/>
    <path class="color-1" d="m156.03,3.7c-3.49,0-6.63,1.55-8.75,4h.4c4.61,0,8.35,3.74,8.35,8.35,0,4.27-3.2,7.78-7.34,8.29,2,1.63,4.56,2.61,7.34,2.61,6.42,0,11.62-5.2,11.62-11.62s-5.2-11.62-11.62-11.62Z" fill="url(#color-1)"/>
    <path class="color-3" d="m156.03,16.05c0-4.61-3.74-8.35-8.35-8.35h-.4c-1.78,2.04-2.87,4.71-2.87,7.63,0,3.64,1.67,6.88,4.29,9.02,4.13-.5,7.34-4.02,7.34-8.29Z" fill="url(#color-3)"/>
    <path class="color-2" d="m147.68,71.2H36.05c-4.61,0-8.35,3.74-8.35,8.35s3.74,8.35,8.35,8.35h111.63c4.61,0,8.35-3.74,8.35-8.35s-3.74-8.35-8.35-8.35Z" fill="url(#color-2)"/>
    <path class="color-2" d="m27.69,67.93c3.28,0,6.24,1.37,8.35,3.55V24.29c0-.06,0-.11,0-.17-2.11,2.18-5.07,3.55-8.35,3.55s-6.23-1.36-8.35-3.55c0,.06,0,.11,0,.17v47.19c2.11-2.19,5.07-3.55,8.35-3.55Z" fill="url(#color-2)"/>
    <path class="color-1" d="m27.69,15.94c4.56,0,8.25,3.65,8.35,8.19,2.03-2.09,3.28-4.94,3.28-8.08,0-6.42-5.2-11.62-11.62-11.62s-11.62,5.2-11.62,11.62c0,3.14,1.25,5.99,3.28,8.08.09-4.53,3.79-8.19,8.35-8.19Z" fill="url(#color-1)"/>
    <path class="color-3" d="m27.69,27.67c3.28,0,6.23-1.36,8.35-3.55-.09-4.53-3.79-8.19-8.35-8.19s-8.25,3.65-8.35,8.19c2.11,2.18,5.07,3.55,8.35,3.55Z" fill="url(#color-3)"/>
    <path class="color-1" d="m36.05,71.81c0,4.61-3.74,8.35-8.35,8.35s-8.35-3.74-8.35-8.35v-.33c-2.02,2.09-3.27,4.93-3.27,8.07,0,6.42,5.2,11.62,11.62,11.62s11.62-5.2,11.62-11.62c0-3.14-1.25-5.98-3.27-8.07v.33Z" fill="url(#color-1)"/>
    <path class="color-3" d="m27.69,80.17c4.61,0,8.35-3.74,8.35-8.35v-.33c-2.11-2.19-5.07-3.55-8.35-3.55s-6.24,1.37-8.35,3.55v.33c0,4.61,3.74,8.35,8.35,8.35Z" fill="url(#color-3)"/>
    <path fill="#ffffff" class="color-5" d="m147.68,134.71H36.05c-4.61,0-8.35,3.74-8.35,8.35s3.74,8.35,8.35,8.35h111.63c4.61,0,8.35-3.74,8.35-8.35s-3.74-8.35-8.35-8.35Z"/>
    <path class="color-2" d="m156.03,130.71c3.28,0,6.24,1.37,8.35,3.55v-47.08c0-.09,0-.18-.01-.27-2.11,2.18-5.06,3.54-8.34,3.54s-6.23-1.36-8.34-3.54c0,.09-.01.18-.01.27v47.08c2.11-2.19,5.07-3.55,8.35-3.55Z" fill="url(#color-2)"/>
    <path class="color-2" d="m156.03,134.67c3.28,0,6.24,1.37,8.35,3.55v-47.08c0-.09,0-.18-.01-.27-2.11,2.18-5.06,3.54-8.34,3.54s-6.23-1.36-8.34-3.54c0,.09-.01.18-.01.27v47.08c2.11-2.19,5.07-3.55,8.35-3.55Z" fill="url(#color-2)"/>
    <path class="color-1" d="m156.03,78.82c4.53,0,8.19,3.6,8.34,8.09,2.03-2.09,3.28-4.94,3.28-8.09,0-6.42-5.2-11.62-11.62-11.62s-11.62,5.2-11.62,11.62c0,3.15,1.26,5.99,3.28,8.09.15-4.49,3.81-8.09,8.34-8.09Z" fill="url(#color-1)"/>
    <path class="color-3" d="m156.03,90.45c3.28,0,6.23-1.36,8.34-3.54-.15-4.49-3.82-8.09-8.34-8.09s-8.19,3.6-8.34,8.09c2.11,2.18,5.06,3.54,8.34,3.54Z" fill="url(#color-3)"/>
    <path class="color-1" d="m164.39,134.71c0,4.61-3.74,8.35-8.35,8.35s-8.35-3.74-8.35-8.35v-.44c-2.02,2.09-3.27,4.93-3.27,8.07,0,6.42,5.2,11.62,11.62,11.62s11.62-5.2,11.62-11.62c0-3.14-1.25-5.98-3.27-8.07v.44Z" fill="url(#color-1)"/>
    <path class="color-3" d="m156.03,143.06c4.61,0,8.35-3.74,8.35-8.35v-.44c-2.11-2.19-5.07-3.55-8.35-3.55s-6.24,1.37-8.35,3.55v.44c0,4.61,3.74,8.35,8.35,8.35Z" fill="url(#color-3)"/>
    <path class="color-2" d="m27.77,281.05c3.27,0,6.21,1.35,8.33,3.52.01-.2.03-.41.03-.61v-132.55c0-.09,0-.18-.01-.27-2.11,2.18-5.06,3.54-8.34,3.54s-6.23-1.36-8.34-3.54c0,.09-.01.18-.01.27v132.55c0,.2.01.41.03.61,2.11-2.16,5.06-3.52,8.33-3.52Z" fill="url(#color-2)"/>
    <path class="color-3" d="m27.77,154.69c3.28,0,6.23-1.36,8.34-3.54-.15-4.49-3.81-8.09-8.34-8.09s-8.19,3.6-8.34,8.09c2.11,2.18,5.06,3.54,8.34,3.54Z" fill="url(#color-3)"/>
    <path class="color-1" d="m27.77,143.06c4.53,0,8.19,3.6,8.34,8.09,2.03-2.09,3.28-4.94,3.28-8.09,0-6.42-5.2-11.62-11.62-11.62s-11.62,5.2-11.62,11.62c0,3.15,1.26,5.99,3.28,8.09.15-4.49,3.82-8.09,8.34-8.09Z" fill="url(#color-1)"/>
    <path class="color-1" d="m27.77,292.32c-4.41,0-8.01-3.42-8.33-7.75-2.04,2.09-3.3,4.95-3.3,8.11,0,6.42,5.2,11.62,11.62,11.62s11.62-5.2,11.62-11.62c0-3.15-1.26-6.01-3.3-8.11-.31,4.33-3.92,7.75-8.33,7.75Z" fill="url(#color-1)"/>
    <path class="color-3" d="m27.77,292.32c4.41,0,8.01-3.41,8.33-7.74-2.11-2.16-5.06-3.52-8.33-3.52s-6.21,1.35-8.33,3.52c.31,4.33,3.92,7.74,8.33,7.74Z" fill="url(#color-3)"/>
    <path class="color-1" d="m133.25,281.61c6.42,0,11.62-5.2,11.62-11.62s-5.2-11.62-11.62-11.62-11.62,5.2-11.62,11.62,5.2,11.62,11.62,11.62Z" fill="url(#color-1)"/>
    <path class="color-1" d="m158.09,198.42h-11.64v28.05c0,4.61,3.74,8.35,8.35,8.35s8.35-3.74,8.35-8.35v-32.8c-.17,2.65-2.38,4.75-5.07,4.75Z" fill="url(#color-1)"/>
    <path class="color-1" d="m163.16,172.94v-7.51c0-4.61-3.74-8.35-8.35-8.35s-8.35,3.74-8.35,8.35v2.77h11.64c2.7,0,4.9,2.1,5.07,4.75h0Z" fill="url(#color-1)"/>
    <path class="color-1" d="m158.09,178.36h-11.64v9.89h11.64c2.7,0,4.9,2.1,5.07,4.75v-19.39c-.17,2.65-2.38,4.75-5.07,4.75h0Z" fill="url(#color-1)"/>
    <path class="color-1" d="m123.28,168.18h11.7v-2.43c0-4.61-3.74-8.35-8.35-8.35s-8.35,3.74-8.35,8.35v6.69c.39-2.41,2.48-4.26,5.01-4.26Z" fill="url(#color-1)"/>
    <path class="color-1" d="m123.28,188.25h11.7v-9.89h-11.7c-2.53,0-4.62-1.85-5.01-4.26v18.41c.39-2.41,2.48-4.26,5.01-4.26Z" fill="url(#color-1)"/>
    <path class="color-1" d="m118.27,194.16v32.31c0,4.61,3.74,8.35,8.35,8.35s8.35-3.74,8.35-8.35v-28.05h-11.7c-2.53,0-4.62-1.85-5.01-4.26Z" fill="url(#color-1)"/>
    <path class="color-1" d="m146.45,168.18h-11.48v10.17h11.48v-10.17Z" fill="url(#color-1)"/>
    <path class="color-1" d="m118.19,173.27c0,.28.03.56.07.83v-1.65c-.04.27-.07.54-.07.83h0Z" fill="url(#color-1)"/>
    <path class="color-1" d="m163.18,173.27c0-.12,0-.23-.01-.33v.68c0-.11.01-.23.01-.33h0Z" fill="url(#color-1)"/>
    <path class="color-3" d="m158.09,178.36c2.7,0,4.9-2.1,5.07-4.75v-.67c-.17-2.65-2.38-4.75-5.07-4.75h-11.64v10.17h11.64Z" fill="url(#color-3)"/>
    <path class="color-3" d="m123.28,178.36h11.7v-10.17h-11.7c-2.53,0-4.62,1.85-5.01,4.26v1.65c.39,2.41,2.48,4.26,5.01,4.26h0Z" fill="url(#color-3)"/>
    <path class="color-1" d="m118.19,193.34c0,.28.03.56.07.83v-1.65c-.04.27-.07.54-.07.83h0Z" fill="url(#color-1)"/>
    <path class="color-2" d="m146.45,188.25h-11.48v10.17h11.48v-10.17Z" fill="url(#color-2)"/>
    <path class="color-1" d="m163.16,193v.68c0-.11.01-.23.01-.33s0-.23-.01-.33h0Z" fill="url(#color-1)"/>
    <path class="color-3" d="m158.09,188.25h-11.64v10.17h11.64c2.7,0,4.9-2.1,5.07-4.75v-.68c-.17-2.65-2.38-4.75-5.07-4.75h0Z" fill="url(#color-3)"/>
    <path class="color-3" d="m123.28,188.25c-2.53,0-4.62,1.85-5.01,4.26v1.65c.39,2.41,2.48,4.26,5.01,4.26h11.7v-10.17h-11.7Z" fill="url(#color-3)"/>
    <path fill="#ffffff" class="color-5" d="m53.35,281.37h-4.1c-1.77,0-3.21,1.44-3.21,3.21s1.44,3.21,3.21,3.21h4.1c1.77,0,3.21-1.44,3.21-3.21s-1.44-3.21-3.21-3.21Z"/>
    <path fill="#ffffff" class="color-5" d="m78.54,281.37h-16.8c-1.77,0-3.21,1.44-3.21,3.21s1.44,3.21,3.21,3.21h16.8c1.77,0,3.21-1.44,3.21-3.21s-1.44-3.21-3.21-3.21Z"/>
    <path fill="#ffffff" class="color-5" d="m51.54,81.56h18.66c1.77,0,3.21,1.44,3.21,3.21s-1.44,3.21-3.21,3.21h-.27s-1.02.12-1.02.98c0,.24.09.41.2.55h11.33c1.77,0,3.21,1.44,3.21,3.21s-1.44,3.21-3.21,3.21h-18.66c-1.77,0-3.21-1.44-3.21-3.21s1.44-3.21,3.21-3.21h2.73c.09-.13.16-.3.16-.53,0-.98-1.1-1-1.1-1h-12.04c-1.77,0-3.21-1.44-3.21-3.21s1.44-3.21,3.21-3.21h0Z"/>
    <path fill="#ffffff" class="color-5" d="m141.47,247.66h-6.07c-1.77,0-3.21,1.44-3.21,3.21s1.44,3.21,3.21,3.21h6.07c1.77,0,3.21-1.44,3.21-3.21s-1.44-3.21-3.21-3.21Z"/>
    <path fill="#ffffff" class="color-5" d="m135.94,239.51h-18.66c-1.77,0-3.21,1.44-3.21,3.21s1.44,3.21,3.21,3.21h.27s1.02.12,1.02.98c0,.24-.09.41-.2.55h-11.33c-1.77,0-3.21,1.44-3.21,3.21s1.44,3.21,3.21,3.21h18.66c1.77,0,3.21-1.44,3.21-3.21s-1.44-3.21-3.21-3.21h-2.73c-.09-.13-.16-.3-.16-.53,0-.98,1.1-1,1.1-1h12.04c1.77,0,3.21-1.44,3.21-3.21s-1.44-3.21-3.21-3.21h0Z"/>
    <path fill="#ffffff" class="color-5" d="m138.85,25.27h-6.07c-1.77,0-3.21,1.44-3.21,3.21s1.44,3.21,3.21,3.21h6.07c1.77,0,3.21-1.44,3.21-3.21s-1.44-3.21-3.21-3.21Z"/>
    <path fill="#ffffff" class="color-5" d="m133.32,17.11h-18.66c-1.77,0-3.21,1.44-3.21,3.21s1.44,3.21,3.21,3.21h.27s1.02.12,1.02.98c0,.24-.09.41-.2.55h-11.33c-1.77,0-3.21,1.44-3.21,3.21s1.44,3.21,3.21,3.21h18.66c1.77,0,3.21-1.44,3.21-3.21s-1.44-3.21-3.21-3.21h-2.73c-.09-.13-.16-.3-.16-.53,0-.98,1.1-1,1.1-1h12.04c1.77,0,3.21-1.44,3.21-3.21s-1.44-3.21-3.21-3.21h0Z"/>
</svg>