<?xml version="1.0" encoding="UTF-8"?>
<svg id="middle08" xmlns="http://www.w3.org/2000/svg" viewBox="0 0 185 308">
  <defs>
    <style>
      .stroke-width {
        stroke-width: .5px;
      }

      .stroke-linecap{
        stroke-linecap: round;
      }

      .stroke-color-1 {
        stroke: #fa4013;
      }

      .stroke-color-2 {
        stroke: #9cd323;
      }

      .stroke-color-3 {
        stroke:#404272;
      }

      .stroke-color-4 {
        stroke: #ffffff;
      }      
    </style>
    <linearGradient id="color-1" gradientTransform="rotate(90)">
      <stop offset="0%" stop-color="#fa4013" />
      <stop offset="100%" stop-color="#fa4013" />
      <stop offset="100%" stop-color="white" />
    </linearGradient>
    <linearGradient id="color-2" gradientTransform="rotate(90)">
      <stop offset="0%" stop-color="#9cd323" />
      <stop offset="100%" stop-color="#9cd323" />
      <stop offset="100%" stop-color="white" />
    </linearGradient>
    <linearGradient id="color-3" gradientTransform="rotate(90)">
      <stop offset="0%" stop-color="#404272" />
      <stop offset="100%" stop-color="#404272" />
      <stop offset="100%" stop-color="white" />
    </linearGradient>   
    <linearGradient id="color-4" gradientTransform="rotate(90)">
      <stop offset="0%" stop-color="#ffffff" />
      <stop offset="100%" stop-color="#ffffff" />
      <stop offset="100%" stop-color="white" />
    </linearGradient>  
  </defs>
  <path class="stroke-width stroke-linecap stroke-color-1" d="m136.18,267.59s5.07-1.2,5.07,2.38c0,0,.37,5.62-5.69,5.62h-25.22s-14.37.48-14.37,8.58c0,0,.08,3.71,6.9,3.71" fill="none"/>
  <path class="stroke-width stroke-linecap stroke-color-1" d="m72.93,268.78h10.71" fill="none"/>
  <path class="stroke-width stroke-linecap stroke-color-1" d="m72.93,276.2h10.71" fill="none"/>
  <path class="stroke-width stroke-linecap stroke-color-1" d="m72.93,234.71h10.71" fill="none"/>
  <path class="stroke-width stroke-linecap stroke-color-1" d="m72.93,242.13h10.71" fill="none"/>
  <path class="stroke-width stroke-linecap stroke-color-1" d="m106.88,96.91h13.38" fill="none"/>
  <path class="stroke-width stroke-linecap stroke-color-1" d="m106.88,114.3h13.38" fill="none"/>
  <path class="stroke-width stroke-linecap stroke-color-1" d="m153.02,66.96s-2.13-18,10.38-17.97c0,0,4.31.48,3.43,4.9-1.64,8.27-17.19,4.55-18.33-27.99" fill="none"/>
  <path class="stroke-width stroke-linecap stroke-color-1" d="m31.66,67.07s1.91-18.1-10.61-18.08c0,0-4.31.48-3.43,4.9,1.64,8.27,17.19,4.55,18.33-27.99" fill="none"/>
  <path class="stroke-width stroke-linecap stroke-color-1" d="m54.37,250.61v-8.66c-.5-3.87-2.55-3.14-4.16-3.25" fill="none"/>
  <path class="stroke-width stroke-linecap stroke-color-1" d="m62.49,293.2v-22.53" fill="none"/>
  <path class="stroke-width stroke-linecap stroke-color-1" d="m91.44,115.89c-4.63-11.66-.39-16.6,1.82-16.6s2.71,3.04,2.71,3.04c.21,3.25-2.62,3.31-2.62,3.31h-16.54c-8.89,0-7.55-11.13-7.55-11.13" fill="none"/>
  <path class="stroke-width stroke-linecap stroke-color-1" d="m71.11,115.89c4.41-11.66.18-16.6-1.92-16.6s-2.07,3.34-2.07,3.34c0,2.93,2.17,3,2.17,3h15.73" fill="none"/>
  <path class="stroke-width stroke-linecap stroke-color-1" d="m69.94,183.36s-2-6.66,3.59-6.66c6.89,0,13.78.4,20.66.04,5.18-.27,12.04-.6,12.04-7.4,0,0-.38-5.81-6.14-5.81,0,0-7.51.12-7.51-7.28,0,0,.42-6.85,7.77-6.85h24.3s16.28-.16,16.28,15.43c0,0,.4,7.96,7.08,7.96,0,0,5.25-.33,5.25,5.29,0,0-.26,4.82-5.63,4.82h-30.05s-4.02.31-4.02,2.98,4.14,3.51,4.14,3.51h14.84s3.86-.37,3.86,2.18-3.74,2.55-3.74,2.55h-23.17s-6.09-.48-6.09,4c0,0-.86,4.48,6.08,4.48s8.22,2.43,8.22,4.36c0,0,1.41,5.33-7.67,5.33,0,0-7.55-.79-7.55,7.76,0,7.02,6.41,7.81,12.02,7.64,6.12-.19,12.24-.15,18.36-.15h33.96" fill="none"/>
  <path class="stroke-width stroke-linecap stroke-color-1" d="m49.73,223.43c4.5.25,9.16,1.66,12.82,4.06,3.27,2.15,5.65,5.16,6.83,8.66,1.73,5.14.11,10.52,4.46,14.88,8.53,8.53,26.15,6.33,37.19,5.54,12.41-.88,20.93-7.02,20.68-18.63" fill="none"/>
  <path class="stroke-width stroke-linecap stroke-color-1" d="m82.43,46.85s1.27-4.02-3.68-4.02c0,0-5.22-.39-5.22,4.3s4.29,6.29,5.37,6.29h11.77s5.24.1,7.8,4.5" fill="none"/>
  <path class="stroke-width stroke-linecap stroke-color-1" d="m102.69,91.4s-7.72-2.07-8.2-6.28c0,0-1.68-6.57,4.84-6.57h25.33s5.84-.31,5.84-5.27c0,0,.08-4.96-5.84-4.96h-9.25c-2.31,0-5.77-.18-6.31-3.02-.54-2.83,1.61-4.25,4.13-4.91" fill="none"/>
  <path class="stroke-width stroke-linecap stroke-color-1" d="m97.47,130.93l.03-2.68s.03-3.31,2.87-3.31,2.78,2.68,2.78,2.68c0,0-.13,4.25,2.49,4.25,5.05,0,2.3,11.25,7.61,8.7" fill="none"/>
  <path class="stroke-width stroke-linecap stroke-color-1" d="m64.34,213.17s-1.9-.77-1.9,1.47-.64,3.97-2.11,3.97c-2.25,0-2.5-3.99.09-3.99,2.01,0,2.21,3.97,2.21,5.69v31.21" fill="none"/>
  <path class="stroke-width stroke-linecap stroke-color-1" d="m92.19,213.17s1.9-.77,1.9,1.47.64,3.97,2.11,3.97c.84,0,1.53-.88,1.73-1.62.35-1.35-.47-2.38-1.83-2.38-2.01,0-2.21,3.97-2.21,5.69v31.21" fill="none"/>
  <path class="stroke-width stroke-linecap stroke-color-1" d="m92.33,205.53s7.42,1.73,14.58-2.88" fill="none"/>
  <path class="stroke-width stroke-linecap stroke-color-1" d="m73.77,153.46s2.35.38,6.04,0" fill="none"/>
  <path class="stroke-width stroke-linecap stroke-color-1" d="m84.97,32.79s10.14-2.84,17.95,0"  fill="none"/>
  <path class="color-2" d="m145.38,287.09h-47.6c2.09,0,1.03,3.3,1.03,4.55,0,1.53,1.66,1.56,1.73,1.56h42.07c.07,0,1.73-.03,1.73-1.56,0-1.25-1.06-4.55,1.03-4.55Z" fill="url(#color-2)"/>
  <path class="color-2" d="m123.13,116.7v-22.19c.16-2.64,1.52-3.42,1.52-3.42h-1.58c-6.19,0-6.16,3.08-6.14,3.4h-.01v22.42h.01c.04.73.57,3.23,6.14,3.23h1.58s-1.36-.78-1.52-3.42Z" fill="url(#color-2)"/>
  <path class="color-2" d="m58.03,283.84c2.55,0,4.63-2.07,4.63-4.63v-5.88c-.05.33-.56,1.26-4.63,1.26-2.55,0-4.63,2.07-4.63,4.63s2.07,4.63,4.63,4.63Z" fill="url(#color-2)"/>
  <path class="color-2" d="m95.39,123.29c-3.04,0-5.5-2.42-5.5-5.39v-6.87c.06.39.66,1.47,5.5,1.47,3.04,0,5.5,2.42,5.5,5.39s-2.47,5.39-5.5,5.39h0Z" fill="url(#color-2)"/>
  <path class="color-2" d="m131.73,227.72c-4.14,20.69-15.77,22.9-15.77,22.9,0,0-1.74.34-1.74,1.76,0,1.13,1.21,3.68-1.24,4.35l2.98-.54c19.61-2.72,21.17-28.47,21.17-28.47h-5.39Z" fill="url(#color-2)"/>
  <path class="color-2" d="m103.93,70.6c-3.38,0-6.11-2.74-6.11-6.11v-7.78c.07.44.73,1.66,6.11,1.66,3.38,0,6.11,2.74,6.11,6.11s-2.74,6.11-6.11,6.11Z" fill="url(#color-2)"/>
  <path class="color-2" d="m73.63,232.03s.41-3.41-6.09-3.41h-1.58s1.56.69,1.56,3.41v12.8c-.17,2.68-1.56,3.39-1.56,3.39h1.58c6.09,0,6.09-3.39,6.09-3.39v-12.8Z" fill="url(#color-2)"/>
  <path class="color-1" d="m43.2,289.74c4.67.08,3.91-5.41,3.89-8.31-.04.26-.47,1-3.89,1-5.05-.07-5.05,7.38,0,7.32h0Z" fill="url(#color-1)"/>
  <path class="color-1" d="m93.44,286.99h-29.85c2.09,0,1.03,3.3,1.03,4.55,0,1.51,1.63,1.56,1.73,1.56h24.33c.16,0,1.72-.08,1.72-1.56,0-1.25-1.06-4.55,1.03-4.55Z" fill="url(#color-1)"/>
  <path class="color-1" d="m89.22,278.9v-12.8c0-2.6,1.56-3.41,1.56-3.41h-1.58c-6.41,0-6.09,3.41-6.09,3.41v12.8s-.26,3.39,6.09,3.39h1.58s-1.56-.76-1.56-3.39Z" fill="url(#color-1)"/>
  <path class="color-1" d="m67.55,262.69h-1.58s1.56.69,1.56,3.41v12.8c-.17,2.68-1.56,3.39-1.56,3.39h1.58c6.09,0,6.09-3.39,6.09-3.39v-12.8s.43-3.41-6.09-3.41Z" fill="url(#color-1)"/>
  <path class="color-1" d="m89.22,244.83v-12.79c0-2.6,1.56-3.41,1.56-3.41h-1.58c-6.41,0-6.09,3.41-6.09,3.41v12.79s-.21,3.39,6.09,3.39h1.58s-1.56-.76-1.56-3.39Z" fill="url(#color-1)"/>
  <path class="color-1" d="m109.51,94.48h-.01c.02-.31.05-3.4-6.14-3.4h-1.58s1.36.78,1.52,3.42v22.19c-.16,2.64-1.52,3.42-1.52,3.42h1.58c5.57,0,6.11-2.5,6.14-3.23h.01v-22.42Z" fill="url(#color-1)"/>
  <path class="color-1" d="m145.85,19.44H38.64s-2.91-.73-2.91-4.64v15.06s.12-4.23,2.84-4.31h107.35c2.72.07,2.84,4.31,2.84,4.31v-15.06c0,3.91-2.91,4.64-2.91,4.64h.01Z" fill="url(#color-1)"/>
  <path class="color-1" d="m166.96,82.67l-2-.22c-.36,0-.96-.24-1.3-.43-1.68-.94-4.63-3.66-4.66-11.81.01-.33.01-2.27-1.96-2.27-2.16,0-4.16-.24-4.16-2.41v4.57h-.01s-.37,10.98,6.47,16.9c0,0,1.41,1.04,3.42,1.51,1.01.23,2.03-.07,2.41-.98.29-.7-.21-2.02-.1-2.86.14-1.15.94-2,1.9-2h0Z" fill="url(#color-1)"/>
  <path class="color-1" d="m43.29,271.06c4.67.08,3.91-5.41,3.89-8.31-.04.26-.47,1-3.89,1-5.05-.07-5.05,7.38,0,7.32h0Z" fill="url(#color-1)"/>
  <path class="color-1" d="m43.21,239.97h0s0,0,0,0h0Z" fill="url(#color-1)"/>
  <path class="color-1" d="m51.4,238.53c-.96.18-8.19-.94-8.2,1.43-.73,5.73-9.73,5.11-9.61-.73-.1-3.67,4.23-6.09,7.32-4.14.92,1.33,8.08.56,8.8.75,0,0-.59-.22-.76-.75-4.34-11.44-22-8.17-21.85,4.14.03,14.37,21.71,15.01,22.62.72.05-.85,1.34-1.32,1.68-1.43Z" fill="url(#color-1)"/>
  <path class="color-1" d="m54.55,248.46s-2.24,6.22-6.22,6.22c-8.08.18-17.57.18-15.81,12.18,6.24-12.53,20.69-3.82,22.03-11.05v-7.35h0Z" fill="url(#color-1)"/>
  <path class="color-1" d="m125.51,134.76c0,3.38-2.74,6.11-6.11,6.11h-7.78c.44-.07,1.66-.73,1.66-6.11,0-3.38,2.74-6.11,6.11-6.11s6.11,2.74,6.11,6.11Z" fill="url(#color-1)"/>
  <path class="color-1" d="m121.67,219.12c0,3.38,2.74,6.11,6.11,6.11h7.78c-.44-.07-1.66-.73-1.66-6.11,0-3.38-2.74-6.11-6.11-6.11s-6.11,2.74-6.11,6.11Z" fill="url(#color-1)"/>
  <path class="color-1" d="m98.69,239.2c0,3.38,2.74,6.11,6.11,6.11h7.78c-.44-.07-1.66-.73-1.66-6.11,0-3.38-2.74-6.11-6.11-6.11s-6.11,2.74-6.11,6.11Z" fill="url(#color-1)"/>
  <path class="color-1" d="m119.42,73.3c-.71,2.14-3.96,2.84-4.02,2.85-24.38,2.45-26.04-18.22-26.04-18.22-.01-.18-.24-2.02-2.03-2.08-1.25-.04-4.08,1.28-4.08-1.22v3.31c4.25,28.35,32.17,24.31,32.17,24.31,4.52-.95,4.01-8.97,4.01-8.97h0Z" fill="url(#color-1)"/>
  <path class="color-1" d="m78.11,46.71c-1.88.06-1.56,2.07-1.56,2.08,0,0-.88,12.9-8.99,11.95-.31-.07-3.32-.8-3.99-2.85,0,0-.63,8.21,3.99,8.96,0,0,12.86,3.36,15.11-18.06v-3.31c0,2.49-3.3,1.19-4.55,1.23h0Z" fill="url(#color-1)"/>
  <path class="color-1" d="m58.03,261.17c2.55,0,4.63,2.07,4.63,4.63v5.88c-.05-.33-.56-1.26-4.63-1.26-2.55,0-4.63-2.07-4.63-4.63s2.07-4.63,4.63-4.63Z" fill="url(#color-1)"/>
  <path class="color-1" d="m56.07,132.54V61.85s-.07-18.08,34.01-30.16c0,0-40.11,5.47-40.11,30.11h.03-.04v70.74h0c0,24.64,26.6,21.06,26.6,21.06h0c-21.61-3.16-20.52-20.94-20.51-21.06h0Z" fill="url(#color-1)"/>
  <path class="color-1" d="m139.45,61.26c-.61-24.17-41.42-29.56-41.42-29.56,34.79,8.02,35.32,28.72,35.32,30.04v92.08c0,1.24-.37,37.89-33.08,51.72,0,0,38.89-9.83,39.19-51.28h0V61.25h-.01Z" fill="url(#color-1)"/>
  <path class="color-1" d="m75.73,184.74c0-.07-.03-1.73-1.56-1.73-1.25,0-4.55,1.06-4.55-1.03v2.76c0,24.65,26.6,21.07,26.6,21.07-21.68-3.17-20.49-21.07-20.49-21.07Z" fill="url(#color-1)"/>
  <path class="color-1" d="m32.02,184.12c0-.07-.03-1.73-1.56-1.73-1.25,0-4.55,1.06-4.55-1.03v2.76c0,46.19,26.6,39.48,26.6,39.48-21.68-5.93-20.49-39.48-20.49-39.48Z" fill="url(#color-1)"/>
  <path class="color-1" d="m101.86,130.85c-1.25,0-4.55,1.06-4.55-1.03v2.71h0s1.19,17.9-20.49,21.07c0,0,26.56,3.57,26.6-21.01h0c0-.07-.03-1.73-1.56-1.73Z" fill="url(#color-1)"/>
  <path class="color-1" d="m84.97,126.83v-36.35h-6.11v39.4c0-2.3,3.3-1.13,4.55-1.13,1.85,0,1.56-1.92,1.56-1.92Z" fill="url(#color-1)"/>
  <path class="color-1" d="m144.19,204.25c-1.25,0-4.55,1.06-4.55-1.03v54.47h0c0,.1.04,1.74,1.56,1.74,1.25,0,4.55-1.06,4.55,1.03v-54.47c0-.07-.03-1.73-1.56-1.73Z" fill="url(#color-1)"/>
  <path class="color-1" d="m135.56,275.59h-6.11v11.51h6.11v-11.51Z" fill="url(#color-1)"/>
  <path class="color-1" d="m138.7,267.26h-13.97v-5.41c0-.23-.12-1.71-1.56-1.71-1.25,0-4.55,1.06-4.55-1.03v8.15h-14.01c2.09,0,1.03,3.3,1.03,4.55,0,1.53,1.66,1.56,1.73,1.56h11.24v17.06h6.11v-17.06h11.23c.22,0,1.71-.12,1.71-1.56,0-1.25-1.06-4.55,1.03-4.55Z" fill="url(#color-1)"/>
  <path class="color-1" d="m93.2,213.01h-29.83c2.09,0,1.03,3.3,1.03,4.55,0,1.47,1.53,1.56,1.71,1.56h24.33c.19,0,1.72-.1,1.72-1.56,0-1.25-1.06-4.55,1.03-4.55Z" fill="url(#color-1)"/>
  <path class="color-1" d="m166.51,246.64c0-1.42-1.74-1.76-1.74-1.76,0,0-7.6-.79-10.87-17.44h-5.86s1.23,20.83,16.73,23.02l2.97.54c-2.45-.68-1.24-3.22-1.24-4.35Z" fill="url(#color-1)"/>
  <path class="color-1" d="m91.99,80.56s-1.45,8.82-15.93,8.82c0,0-7.17-.07-7.17,4.37s.24,3.82.24,3.82c.03-.03,1.61-2.47,5.98-2.69,2.79-.14,16.89-1.39,16.89-14.33Z" fill="url(#color-1)"/>
  <path class="color-3" d="m31.86,70.1v-4.72c0,2.17-2,2.41-4.16,2.41s-1.96,2.32-1.96,2.32c0,8.22-2.97,10.96-4.66,11.9-.34.19-.94.43-1.3.43l-2,.22c.96,0,1.66,1.33,1.73,2.1.07.85-.29,1.3.07,2.76.23.95,1.23,1.43,2.23,1.2,2.01-.47,3.59-1.73,3.59-1.73,6.83-5.92,6.45-16.89,6.45-16.89h0Z" fill="url(#color-3)"/>
  <path class="color-3" d="m43.29,280.4c4.67.08,3.91-5.41,3.89-8.31-.04.26-.47,1-3.89,1-5.05-.07-5.05,7.38,0,7.32h0Z" fill="url(#color-3)"/>
  <path class="color-3" d="m125.51,54.9c0,3.38-2.74,6.11-6.11,6.11h-7.78c.44-.07,1.66-.73,1.66-6.11,0-3.38,2.74-6.11,6.11-6.11s6.11,2.74,6.11,6.11Z" fill="url(#color-3)"/>
  <path class="color-3" d="m164.17,219.02c0,3.38-2.74,6.11-6.11,6.11h-7.78c.44-.07,1.66-.73,1.66-6.11,0-3.38,2.74-6.11,6.11-6.11s6.11,2.74,6.11,6.11Z" fill="url(#color-3)"/>
  <path class="color-3" d="m81.35,279.81v-2.76c0,2.09-3.3,1.03-4.55,1.03-1.53,0-1.56,1.66-1.56,1.73v7.3h6.11v-7.3h0Z" fill="url(#color-3)"/>
  <path class="color-3" d="m91.13,221.22h-25.54c2.09,0,1.03,3.3,1.03,4.55,0,1.53,1.66,1.56,1.73,1.56h20.01c.07,0,1.73-.03,1.73-1.56,0-1.25-1.06-4.55,1.03-4.55Z" fill="url(#color-3)"/>
  <path class="color-3" d="m67.12,123.15c3.04,0,5.5-2.42,5.5-5.39v-6.87c-.06.39-.66,1.47-5.5,1.47-3.04,0-5.5,2.42-5.5,5.39s2.47,5.39,5.5,5.39h0Z" fill="url(#color-3)"/>
</svg>