<?xml version="1.0" encoding="UTF-8"?>
<svg id="middle09" xmlns="http://www.w3.org/2000/svg" viewBox="0 0 185 308">
  <defs>
    <style>
      .stroke-width {
        stroke-width: .5px;
      }

      .stroke-linecap{
        stroke-linecap: round;
      }

      .stroke-color-1 {
        stroke: #ffcf08;
      }

      .stroke-color-2 {
        stroke: #fea39c;
      }

      .stroke-color-3 {
        stroke:#327eed;
      }

      .stroke-color-4 {
        stroke: #2032ac;
      }      
    </style>
    <linearGradient id="color-1" gradientTransform="rotate(90)">
      <stop offset="0%" stop-color="#ffcf08" />
      <stop offset="100%" stop-color="#ffcf08" />
      <stop offset="100%" stop-color="white" />
    </linearGradient>
    <linearGradient id="color-2" gradientTransform="rotate(90)">
      <stop offset="0%" stop-color="#fea39c" />
      <stop offset="100%" stop-color="#fea39c" />
      <stop offset="100%" stop-color="white" />
    </linearGradient>
    <linearGradient id="color-3" gradientTransform="rotate(90)">
      <stop offset="0%" stop-color="#327eed" />
      <stop offset="100%" stop-color="#327eed" />
      <stop offset="100%" stop-color="white" />
    </linearGradient>   
    <linearGradient id="color-4" gradientTransform="rotate(90)">
      <stop offset="0%" stop-color="#2032ac" />
      <stop offset="100%" stop-color="#2032ac" />
      <stop offset="100%" stop-color="white" />
    </linearGradient>    
  </defs>
  <path class="stroke-width stroke-linecap stroke-color-3" d="m50.82,71.65s2.86-13.02-8.68-13.02c0,0-4.4.42-3.51,4.35,1.67,7.34,17.28,4.05,18.44-24.87" fill="none"/>
  <path class="stroke-width stroke-linecap stroke-color-3" d="m134.02,71.07s-3.63-12.44,7.9-12.44c0,0,4.4.42,3.51,4.35-1.67,7.34-17.56,4.05-18.72-24.87" fill="none"/>
  <path class="stroke-width stroke-linecap stroke-color-3" d="m148.32,222.12s-10.47-44.83.34-47.03c0,0,7.19.36,4.81,9.18-1.32,4.89-18.33,27.38-19.88-68.57" fill="none"/>
  <path class="stroke-width stroke-linecap stroke-color-3" d="m36.72,221.17s8.33-43.88-2.47-46.09c0,0-7.26.64-4.88,9.46,1.32,4.89,19.81,28.08,21.36-67.87" fill="none"/>
  <path class="stroke-width stroke-linecap stroke-color-3" d="m87.43,168.44h10.5" fill="none"/>
  <path class="stroke-width stroke-linecap stroke-color-3" d="m87.43,176.07h10.5" fill="none"/>
  <path class="stroke-width stroke-linecap stroke-color-3" d="m114.62,144.84h10.51" fill="none"/>
  <path class="stroke-width stroke-linecap stroke-color-3" d="m114.62,152.47h10.51" fill="none"/>
  <path class="stroke-width stroke-linecap stroke-color-3" d="m59.86,144.84h10.51" fill="none"/>
  <path class="stroke-width stroke-linecap stroke-color-3" d="m59.86,152.47h10.51" fill="none"/>
  <path class="stroke-width stroke-linecap stroke-color-3" d="m87.43,121.3h10.5" fill="none"/>
  <path class="stroke-width stroke-linecap stroke-color-3" d="m87.43,128.92h10.5" fill="none"/>
  <path class="stroke-width stroke-linecap stroke-color-3" d="m79.45,201.7s-10.86-.83-10.86,4.53c0,0-.94,4.65,12.26,4.65" fill="none"/>
  <path class="stroke-width stroke-linecap stroke-color-3" d="m105.51,201.7s10.86-.83,10.86,4.53c0,0,.94,4.65-12.26,4.65" fill="none"/>
  <path class="stroke-width stroke-linecap stroke-color-3" d="m149.35,50.14s4.93-1.33,7.43-1.8c5.71-1.04,12.04-3.46,12.04-11.45,0,0,.14-10.75-13.26-10.75h-55.76s-7.75-.29-7.75,9.93v61.16" fill="none"/>
  <path class="stroke-width stroke-linecap stroke-color-3" d="m105.03,133.38c1.43.69,2.36,1.86,2.36,1.86,0,0,1.11,1.68-1.99,1.68s-3.57,2.44-3.57,2.44c0,0-.03,1.98,2.82,1.98h13.86s2.28.1,2.28,2.28c0,0,.07,2.19-2.38,2.19h-17.91s-3.4-.08-3.4,2.5c0,0-.3,2.45,3.7,2.45h3.1s2.17-.1,2.17,1.82c0,0,.19,1.68-2.54,1.68h-15.58s-5.16.34-5.16-2.55-2.68-3.17-2.68-3.17c0,0-2.2-.09-2.2-2.02,0,0-.22-1.84,2.47-1.84s2.85-5.1-2.47-4.69" fill="none"/>
  <path class="stroke-width stroke-linecap stroke-color-3" d="m108.95,156.69s-5.25,1.29-5.4,2.68c0,0-.4,1.65,2,1.65h5.23s1.91-.17,1.91,1.33c0,0,.22,1.25-1.91,1.25h-5.79" fill="none"/>
  <path class="stroke-width stroke-linecap stroke-color-3" d="m76.09,156.82s5.09.94,5.25,2.34c0,0,.4,1.67-2,1.67h-5.23s-1.91-.17-1.91,1.35c0,0-.22,1.4,1.91,1.4h5.79" fill="none"/>
  <path class="stroke-width stroke-linecap stroke-color-3" d="m80.58,116.42h-5.46s-4.19-.43-3.98,6.4c.17,5.53-3.96,5.43-3.96,5.43h-6.16s-1.87.44-2.61-2.72c-.42-1.78-2.13-3.05-4.12-3.03-1.62.02-3.56.03-5.36.05-2.29.01-4.44,1.17-5.4,3.09-.42.82-.7,1.86-.7,3.12v7.72s.05,3.67,2.22,3.67c0,0,2.48-.2,2.48-5.48,0,0-.27-4.74,1.26-4.74,0,0,1.89-.43,1.89,2.54s.16,7.69,2.32,7.69" fill="none"/>
  <path class="stroke-width stroke-linecap stroke-color-3" d="m87.35,22.42s.27,5.18-5.33,5.18h-12.04s-5.85.66-5.85-4.38c0,0,.29-4.02-3.76-4.02-4.95,0-3.26,11.35-3.26,11.35" fill="none"/>
  <path class="stroke-width stroke-linecap stroke-color-3" d="m62.65,243.75l.09,8.18s.26,7.12,4.02,6.43" fill="none"/>
  <path class="stroke-width stroke-linecap stroke-color-3" d="m124.59,249.15l-.08-7.41s-.23-6.45-3.49-5.83" fill="none"/>
  <path class="stroke-width stroke-linecap stroke-color-3" d="m129.08,291.24s2.84.39,2.84-3.37c0,0,.29-2.21-2.31-2.21h-8.58s-3.42.16-3.42-3.14c0,0-.06-2.88,3.42-2.88h7.28s2.19-.24,2.19-2.17c0,0,.1-2.02-2.3-2.02h-9.66s-2.31.21-3.28,2.34" fill="none"/>
  <path class="stroke-width stroke-linecap stroke-color-3" d="m64.78,267.26s-5.77-.47-5.77,2.14c0,0-.27,3.21,4.36,3.21h17.9s3.05.18,3.05,1.89c0,0,.22,1.66-2.82,1.66h-9.39s-1.9.05-1.9,1.33,1.85,1.61,1.85,1.61c0,0,2.75.35,2.75-1.1" fill="none"/>
  <path class="stroke-width stroke-linecap stroke-color-3" d="m82.97,239.08v16.47" fill="none"/>
  <path class="stroke-width stroke-linecap stroke-color-3" d="m104.39,239.08v16.47" fill="none"/>
  <path class="color-3" d="m85.92,109.83c3.47,0,6.29-2.82,6.29-6.29v-8c-.07.45-.75,1.71-6.29,1.71-3.47,0-6.29,2.82-6.29,6.29s2.82,6.29,6.29,6.29Z" fill="url(#color-3)"/>
  <path class="stroke-width stroke-linecap stroke-color-3" d="m121.75,85.16c0-7.44-13.85-6.94-19-6.94s-5.09-3.81-5.09-3.81c0-3.34,3.04-3.34,3.04-3.34,7.05-.41,6.71-9.94,6.71-9.94,0-21.43-14.92-20.83-14.92-20.83,0,0-14.92-.61-14.92,20.83,0,0-.34,9.53,6.71,9.94,0,0,3.04,0,3.04,3.34,0,0,.06,3.81-5.09,3.81s-18.93-1.12-18.93,6.32" fill="none"/>
  <path class="color-4" d="m64.13,109.31h-10.92c-2.8,0-2.75-3.77-2.75-3.77v14.34c0-4.08,2.75-4.18,2.75-4.18h10.92s18.37-.14,18.59-12.96c-.12,1.17-1.59,6.57-18.59,6.57Z" fill="url(#color-4)"/>
  <path class="color-3" d="m121.34,181.82h-1.65s1.65,1.14,1.65,3.51v41.88c0,2.37-1.65,3.51-1.65,3.51h1.65c6.63,0,6.95-3.51,6.95-3.51v-41.88s-.32-3.51-6.95-3.51Z" fill="url(#color-3)"/>
  <path class="color-3" d="m63.61,181.82h1.65s-1.65,1.14-1.65,3.51v41.88c0,2.37,1.65,3.51,1.65,3.51h-1.65c-6.63,0-6.95-3.51-6.95-3.51v-41.88s.32-3.51,6.95-3.51Z" fill="url(#color-3)"/>
  <path class="color-3" d="m66.15,261.07h0c-.28.08-1.73.45-1.73,1.63,0,1.31,1.08,4.76-1.05,4.76h27v23.48h6.95v-23.48h24.22v-.03c.43-.11,1.62-.52,1.62-1.59,0-1.31-1.08-4.76,1.06-4.76h0s-58.07,0-58.07,0Z" fill="url(#color-3)"/>
  <path class="color-3" d="m122.05,235.65h-53.59v.06c-1.97.2-6.1,1.24-6.1,6.34v5.88s2.86-5.88,7.13-5.88h0s49.74-.01,49.74-.01c0,0,1.77-.32,1.77-1.63s-1.08-4.76,1.05-4.76h0Z" fill="url(#color-3)"/>
  <path class="color-3" d="m93.24,10.67c-3.47,0-6.29,2.82-6.29,6.29v8c.07-.45.75-1.71,6.29-1.71,3.47,0,6.29-2.82,6.29-6.29s-2.82-6.29-6.29-6.29Z" fill="url(#color-3)"/>
  <path class="color-3" d="m126.97,31.42v-4.49c-.54,4.15-2.97,4.49-2.97,4.49H59.62c-2.8,0-2.75-3.82-2.75-3.82v14.34c0-4.08,2.75-4.23,2.75-4.23h64.38c2.85,0,2.98,4.18,2.98,4.18v-10.47Z" fill="url(#color-3)"/>
  <path class="color-3" d="m152.32,84.14c-.54,0-1.45-.21-1.97-.38-2.56-.84-9.66-3.79-9.66-11.11,0,0,.22-1.84-2.24-1.84s-4.76-.19-4.76-1.91v3.76s-.01,9.74,10.33,15.01c0,0,2.73,1.4,5.78,1.81,1.52.21,2.48-.54,3.05-1.34.45-.62.69-1.36.79-2.12.09-.68.47-1.87,1.91-1.87h-3.23,0Z" fill="url(#color-3)"/>
  <path class="color-3" d="m46.55,70.59c-2.47,0-2.24,2.06-2.24,2.06,0,7.32-7.11,10.27-9.66,11.11-.52.17-1.43.38-1.97.38h-3.23c1.45,0,1.82,1.19,1.91,1.87.1.75.35,1.5.8,2.12.57.8,1.52,1.55,3.05,1.34,3.05-.42,5.78-1.81,5.78-1.81,10.35-5.26,10.33-15.01,10.33-15.01v-4.21c0,1.93-2.29,2.14-4.76,2.14h0Z" fill="url(#color-3)"/>
  <path class="color-3" d="m37.51,217.41c0,1.73-2.29,1.91-4.76,1.91s-2.24,1.84-2.24,1.84c0,7.31-7.11,10.27-9.66,11.11-.52.17-1.43.38-1.97.38h-3.23c1.45,0,1.82,1.19,1.91,1.87.1.75.35,1.5.8,2.12.57.8,1.52,1.55,3.05,1.34,3.05-.42,5.78-1.81,5.78-1.81,10.35-5.26,10.33-15.01,10.33-15.01v-3.76h0Z" fill="url(#color-3)"/>
  <path class="color-3" d="m87.86,177.61v-10.7s.41-3.52-6.87-3.52h-1.77s1.52.8,1.7,3.51h-.02v10.71h.02c-.19,2.7-1.7,3.5-1.7,3.5h1.77c7.28,0,6.87-3.51,6.87-3.51h0Z" fill="url(#color-3)"/>
  <path class="color-3" d="m115.06,154v-10.7s.41-3.52-6.87-3.52h-1.77s1.52.8,1.7,3.51h-.02v10.71h.02c-.19,2.7-1.7,3.5-1.7,3.5h1.77c7.28,0,6.87-3.51,6.87-3.51h0Z" fill="url(#color-3)"/>
  <path class="color-3" d="m76.86,154.01h.02v-10.71h-.02c.19-2.71,1.7-3.51,1.7-3.51h-1.77c-7.28,0-6.87,3.51-6.87,3.51v10.7s-.41,3.52,6.87,3.52h1.77s-1.51-.8-1.7-3.51Z" fill="url(#color-3)"/>
  <path class="color-3" d="m87.53,119.76s.28-3.52-6.53-3.52h-1.77s1.83.8,2.01,3.52v10.7c-.19,2.71-2.01,3.51-2.01,3.51h1.77c6.75,0,6.53-3.51,6.53-3.51v-10.7Z" fill="url(#color-3)"/>
  <path class="color-3" d="m106.6,201.44h-28.57c2.13,0,1.05,3.45,1.05,4.76s1.69,1.61,1.77,1.63h22.92s1.77-.32,1.77-1.63-1.08-4.76,1.05-4.76h0Z" fill="url(#color-3)"/>
  <path class="color-3" d="m111.3,220.14h-39.31c2.13,0,1.05,3.45,1.05,4.76s1.77,1.63,1.77,1.63h33.66s1.77-.32,1.77-1.63-1.08-4.76,1.05-4.76h0Z" fill="url(#color-3)"/>
  <path class="color-3" d="m99.51,186.04c-1.4,0-2.61-.63-3.61-1.49v-2.72c.24-2.41,4.53-2.53,4.53-2.53h-16.26c4.09,0,4.88,2.68,4.89,2.73v2.52c-1,.86-2.21,1.49-3.61,1.49-4.5,0-17.88,0-17.88,7.7v4.95s1.08-2.05,2.45-3.23c0,0,4.94-5.16,12.8-4.67,0,0,9.66.68,9.66-3.58,0,4.26,9.66,3.58,9.66,3.58,7.86-.48,12.8,4.67,12.8,4.67,1.38,1.18,2.45,3.23,2.45,3.23v-4.95c0-7.7-13.38-7.7-17.88-7.7Z" fill="url(#color-3)"/>
  <path class="color-3" d="m133.94,104.81c0,3.79-2.98,4.49-2.98,4.49h-7.95c-18.94,0-20.58-5.39-20.72-6.57.24,12.82,20.71,12.95,20.72,12.95h7.95c2.85,0,2.98,4.18,2.98,4.18v-10.56h0v-4.49h0Z" fill="url(#color-3)"/>
  <path class="color-3" d="m77.23,91.96c-10.58,0-13.37-3.51-14.09-5.48.31-4.62,3.98-6.52,3.98-6.52,3.45-2.48,12.83-1.59,12.83-1.59-2.32-2.96-7.22-2.96-7.22-2.96-13.03.06-10.05,10.94-9.63,12.31,1.74,10.51,14.14,10.63,14.14,10.63,0,0,5.51.08,5.51,4.17,0,0,2.1-10.56-5.51-10.56Z" fill="url(#color-3)"/>
  <path class="color-3" d="m100.56,71.07s-4.74,3.43.88,7.27c0,0-6.23-.14-6.09-4.28s6.09-3.1,6.09-3.1l-.88.1h0Z" fill="url(#color-3)"/>
  <path class="color-3" d="m83.54,71.07s4.74,3.43-.88,7.27c0,0,6.23-.14,6.09-4.28s-6.09-3.1-6.09-3.1l.88.1h0Z" fill="url(#color-3)"/>
  <path class="color-3" d="m102.75,70.62s7.58-1.53,7.58-14.8-13.59-15.59-17.93-15.59c0,0,12.37,1.84,13.54,16.06,0,0,1.69,10.33-3.19,14.33h0Z" fill="url(#color-3)"/>
  <path class="color-4" d="m79.73,278.02c-1.42,0-5.18.99-5.18-.96v17.96h6.95v-15.37s-.36-1.63-1.77-1.63Z" fill="url(#color-4)"/>
  <path class="color-4" d="m156.78,47.39v-.03H28.27s-2.01-.03-2.01,1.87c0,2.24.07,4.4-1.81,4.4h132.33s0-.03,0-.03c0,0,2.01.02,2.01-1.87,0-2.21.21-4.42,2.09-4.42l-4.09.07h0Z" fill="url(#color-4)"/>
  <path class="color-4" d="m166.13,232.66c-.54,0-1.45-.21-1.97-.38-2.56-.84-9.66-3.79-9.66-11.11,0,0,.22-1.84-2.24-1.84s-4.76-.19-4.76-1.91v3.76s-.01,9.75,10.33,15.01c0,0,2.73,1.4,5.78,1.81,1.52.21,2.48-.54,3.05-1.34.45-.62.69-1.36.79-2.12.09-.68.47-1.87,1.91-1.87h-3.23,0Z" fill="url(#color-4)"/>
  <path class="color-4" d="m60.29,154v-10.7s.41-3.52-6.87-3.52h-1.77s1.52.8,1.7,3.51h-.02v10.71h.02c-.19,2.7-1.7,3.5-1.7,3.5h1.77c7.28,0,6.87-3.51,6.87-3.51h0Z" fill="url(#color-4)"/>
  <path class="color-4" d="m104.12,130.46v-10.7c.19-2.71,2.01-3.51,2.01-3.51h-1.77c-6.75,0-6.53,3.51-6.53,3.51v10.7s-.75,3.52,6.53,3.52h1.77s-1.83-.8-2.01-3.52Z" fill="url(#color-4)"/>
  <path class="color-4" d="m88.51,193.32h-2.49s2.49.35,2.49,2.93h-.01v35.21s.06,1.63,1.77,1.63c1.42,0,5.18-.99,5.18.96v-37.8h.01s.58-2.93-6.95-2.93Z" fill="url(#color-4)"/>
  <path class="color-1" d="m118.35,252.25v.06h-49.89s-1.77.32-1.77,1.63,1.08,4.76-1.05,4.76h53.59v-.09c1.75-.19,5.55-1.19,5.55-6.34v-5.88s-2.58,5.88-6.43,5.88h0Z" fill="url(#color-1)"/>
  <path class="color-1" d="m116.88,276.46h-19.56v6.39h16.73s1.77-.32,1.77-1.63-1.08-4.76,1.05-4.76h0Z" fill="url(#color-1)"/>
  <path class="color-1" d="m104.44,177.62h.02v-10.71h-.02c.19-2.71,1.7-3.51,1.7-3.51h-1.77c-7.28,0-6.87,3.51-6.87,3.51v10.7s-.41,3.52,6.87,3.52h1.77s-1.51-.8-1.7-3.51Z" fill="url(#color-1)"/>
  <path class="color-1" d="m81.58,70.35s-7.81-1.52-7.81-14.67,13.59-15.45,17.93-15.45c0,0-10.66,0-13.3,16.19,0,0-1.7,9.96,3.17,13.93h0Z" fill="url(#color-1)"/>
  <path class="color-2" d="m131.64,154.01h.02v-10.71h-.02c.19-2.71,1.7-3.51,1.7-3.51h-1.77c-7.28,0-6.87,3.51-6.87,3.51v10.7s-.41,3.52,6.87,3.52h1.77s-1.51-.8-1.7-3.51Z" fill="url(#color-2)"/>
  <path class="color-2" d="m105.66,210.66h-26.69c2.13,0,1.05,3.45,1.05,4.76s1.77,1.63,1.77,1.63h21.04s1.77-.32,1.77-1.63-1.08-4.76,1.05-4.76h0Z" fill="url(#color-2)"/>
  <path class="color-2" d="m112.3,75.43s-5.07.41-7.38,2.89c0,0,7.17-.61,12.83,1.59,0,0,3.88,2.01,4,6.9-.92,2.01-3.96,5.14-13.95,5.14-7.61,0-5.51,10.56-5.51,10.56,0-4.09,5.51-4.17,5.51-4.17,0,0,13.13-.13,14.26-11.58.82-2.99,2.03-11.33-9.75-11.33h0Z" fill="url(#color-2)"/>
  <path class="color-2" d="m130.49,290.94H60.02s-1.77.32-1.77,1.63,1.08,4.76-1.05,4.76h70.47s1.77-.32,1.77-1.63-1.08-4.76,1.05-4.76Z" fill="url(#color-2)"/>
</svg>