<?xml version="1.0" encoding="UTF-8"?>
<svg id="middle07" xmlns="http://www.w3.org/2000/svg" viewBox="0 0 185 308">
  <defs>
    <style>
      <!-- .color-1 {
        fill: #fa4013;
      }

      .color-2 {
        fill: #9cd323;
      }

      .color-3 {
        fill: #404272;
      }

      .stroke-width stroke-linecap stroke-color-1 {
        isolation: isolate;
        opacity: .97;
      }

      .stroke-width stroke-linecap stroke-color-1, .stroke-width stroke-linecap stroke-color-1, .stroke-width stroke-linecap stroke-color-1 {
        fill: none;
        stroke-linecap: round;
        stroke-linejoin: round;
        stroke-width: .5px;
      }

      .stroke-width stroke-linecap stroke-color-1, .stroke-width stroke-linecap stroke-color-1 {
        stroke: #fa4013;
      }

      .stroke-width stroke-linecap stroke-color-1 {
        stroke: #404272;
      } -->
      .stroke-width {
        stroke-width: .5px;
      }

      .stroke-linecap{
        stroke-linecap: round;
      }

      .stroke-color-1 {
        stroke: #fa4013;
      }

      .stroke-color-2 {
        stroke: #9cd323;
      }

      .stroke-color-3 {
        stroke:#404272;
      }

      .stroke-color-4 {
        stroke: #ffffff;
      }      
    </style>
    <linearGradient id="color-1" gradientTransform="rotate(90)">
      <stop offset="0%" stop-color="#fa4013" />
      <stop offset="100%" stop-color="#fa4013" />
      <stop offset="100%" stop-color="white" />
    </linearGradient>
    <linearGradient id="color-2" gradientTransform="rotate(90)">
      <stop offset="0%" stop-color="#9cd323" />
      <stop offset="100%" stop-color="#9cd323" />
      <stop offset="100%" stop-color="white" />
    </linearGradient>
    <linearGradient id="color-3" gradientTransform="rotate(90)">
      <stop offset="0%" stop-color="#404272" />
      <stop offset="100%" stop-color="#404272" />
      <stop offset="100%" stop-color="white" />
    </linearGradient>   
    <linearGradient id="color-4" gradientTransform="rotate(90)">
      <stop offset="0%" stop-color="#ffffff" />
      <stop offset="100%" stop-color="#ffffff" />
      <stop offset="100%" stop-color="white" />
    </linearGradient>  
  </defs>
  <path class="stroke-width stroke-linecap stroke-color-1" d="m28.96,22.31s-1.55.7-1.35,8.93" fill="none"/>
  <path class="stroke-width stroke-linecap stroke-color-1" d="m29.09,150.99s-1.55.7-1.35,8.93" fill="none"/>
  <path class="stroke-width stroke-linecap stroke-color-1" d="m144.6,86.37s1.55.7,1.35,8.93" fill="none"/>
  <path class="stroke-width stroke-linecap stroke-color-1" d="m115.69,104.54h16.81" fill="none"/>
  <path class="stroke-width stroke-linecap stroke-color-1" d="m115.69,96.71h16.81" fill="none"/>
  <path class="stroke-width stroke-linecap stroke-color-1" d="m115.48,113.97h16.81" fill="none"/>
  <path class="stroke-width stroke-linecap stroke-color-1" d="m132.62,43.61h16.81" fill="none"/>
  <path class="stroke-width stroke-linecap stroke-color-1" d="m132.62,34.99h16.81" fill="none"/>
  <path class="stroke-width stroke-linecap stroke-color-1" d="m131.11,51.06h16.81" fill="none"/>
  <path class="stroke-width stroke-linecap stroke-color-1" d="m48.72,52.11h25.57" fill="none"/>
  <path class="stroke-width stroke-linecap stroke-color-1" d="m48.58,63.68h25.57" fill="none"/>
  <path class="stroke-width stroke-linecap stroke-color-1" d="m32.73,38.07s-9.73-1.38-9.73-7.11c0-3.92,5.77-5.19,9.67-4.31,4.82,1.09,5.26,6.67,5.41,9.99.04.94.04,1.89-.03,2.83,0,0-.06,2.61,2.58,2.61h43.18s1.64.17,1.64,1.32-2.66,2.11-6.1,2.77" fill="none"/>
  <path class="stroke-width stroke-linecap stroke-color-1" d="m48.72,116.49h25.57" fill="none"/>
  <path class="stroke-width stroke-linecap stroke-color-1" d="m48.58,128.05h25.57" fill="none"/>
  <path class="stroke-width stroke-linecap stroke-color-1" d="m32.73,102.44s-9.73-1.38-9.73-7.11c0-3.92,5.77-5.19,9.67-4.31,4.82,1.09,5.26,6.67,5.41,9.99.04.94.04,1.89-.03,2.83,0,0-.06,2.61,2.58,2.61h43.18s1.64.17,1.64,1.32-2.66,2.11-6.1,2.77" fill="none"/>
  <path class="stroke-width stroke-linecap stroke-color-1" d="m48.72,184.28h25.57" fill="none"/>
  <path class="stroke-width stroke-linecap stroke-color-1" d="m48.58,195.84h25.57" fill="none"/>
  <path class="stroke-width stroke-linecap stroke-color-1" d="m32.73,170.23s-9.73-1.38-9.73-7.11c0-3.92,5.77-5.19,9.67-4.31,4.82,1.09,5.26,6.67,5.41,9.99.04.94.04,1.89-.03,2.83,0,0-.06,2.61,2.58,2.61h43.18s1.64.17,1.64,1.32-2.66,2.11-6.1,2.77" fill="none"/>
  <path class="stroke-width stroke-linecap stroke-color-1" d="m100.14,38.47s-1.41,11.13,7.91,11.13h17.34s2.97-.05,2.74-3.31c0,0-.53-3.04-2.84-3.04s-6.76,4.94-1.91,16.6" fill="none"/>
  <path class="stroke-width stroke-linecap stroke-color-1" d="m115.91,49.59h-19.13s-2.64-.07-2.64-3c0,0-.04-3.34,2.51-3.34s7.7,4.94,2.34,16.6" fill="none"/>
  <path class="stroke-width stroke-linecap stroke-color-1" d="m132.62,176.76h16.81" fill="none"/>
  <path class="stroke-width stroke-linecap stroke-color-1" d="m132.62,168.13h16.81" fill="none"/>
  <path class="stroke-width stroke-linecap stroke-color-1" d="m131.11,184.19h16.81" fill="none"/>
  <path class="stroke-width stroke-linecap stroke-color-1" d="m100.14,171.6s-1.41,11.13,7.91,11.13h17.34s2.97-.05,2.74-3.31c0,0-.53-3.04-2.84-3.04s-6.76,4.94-1.91,16.6" fill="none"/>
  <path class="stroke-width stroke-linecap stroke-color-1" d="m115.91,182.73h-19.13s-2.64-.07-2.64-3c0,0-.04-3.34,2.51-3.34s7.7,4.94,2.34,16.6" fill="none"/>
  <path class="stroke-width stroke-linecap stroke-color-1" d="m109.29,205.41s-2.19,3.32,2.93,7.92c5.12,4.61,37.21,29.83,37.21,29.83" fill="none"/>
  <path class="stroke-width stroke-linecap stroke-color-1" d="m91.16,94.35s-1.24-5.61,3.59-5.61h5.36" fill="none"/>
  <path class="stroke-width stroke-linecap stroke-color-1" d="m55.79,265.6s.12,6.26,2.5,5.04l5.72-3.58" fill="none"/>
  <path class="stroke-width stroke-linecap stroke-color-1" d="m144.82,210.84s5.87-5.18,4.61,0c0,0-20.08,29.89-18.3,35.07,1.77,5.18,25.09-10.81,25.09-10.81,0,0,13.79-7.29,3.97,17.26-9.82,24.55-16.41,27.97-16.41,27.97" fill="none"/>
  <path class="stroke-width stroke-linecap stroke-color-1" d="m104.06,137.86s6.48,1.26,6.48,6.09-4.7,7.1-8.31,7.1h-29.5s-6.32-.82-8.38,6.15" fill="none"/>
  <path class="color-2" d="m146.69,15.31v-.03H45.3c-18.97,0-17.47,10.84-17.47,10.84,0-5.69,17.47-4.72,17.47-4.72h101.4v.02s1.97.2,1.97-1.96.2-4.15,2.05-4.15h-4.02Z" fill="url(#color-2)"/>
  <path class="color-2" d="m145.94,137.95c0,5.69-17.47,4.72-17.47,4.72H45.59c-18.97,0-17.47,10.84-17.47,10.84,0-5.69,17.47-4.72,17.47-4.72h82.87c18.97,0,17.47-10.84,17.47-10.84Z" fill="url(#color-2)"/>
  <path class="color-2" d="m108.92,166.16v40.83c0-2.38,4.2-1.18,5.78-1.18s1.98-1.98,1.98-1.98v-37.67h-7.76Z" fill="url(#color-2)"/>
  <path class="color-2" d="m52.6,206.1c-1.7,0-1.7,1.7-1.7,1.7v41.03s1.17,13.55,5.42,20.54c0,0,1.24-14.29,1.24-20.54v-43.74c0,2.04-3.6,1.01-4.96,1.01h0Z" fill="url(#color-2)"/>
  <path class="color-1" d="m128.08,78.72H45.21s-17.47.97-17.47-4.72c0,0-1.49,10.84,17.47,10.84h82.87s17.47-.96,17.47,4.72c0,0,1.49-10.84-17.47-10.84Z" fill="url(#color-1)"/>
  <path class="color-1" d="m21.05,41.62v19.84h.02c.16,1.39,1.18,8.28,6.64,12.81V28.56c-6.09,5.05-6.66,13.06-6.66,13.06h0Z" fill="url(#color-1)"/>
  <path class="color-1" d="m152.5,125.28v-19.58s-.57-8.01-6.66-13.06v45.71c5.45-4.52,6.48-11.42,6.64-12.81h.02v-.25h0Z" fill="url(#color-1)"/>
  <path class="color-1" d="m45.15,282.44c-2.35,0-2.13,2.02-2.13,2.02,0,0,3.12,8.24-4.16,8.24,0,0,10.81.67,10.81-8.24v-4.13c0,1.9-2.17,2.11-4.52,2.11Z" fill="url(#color-1)"/>
  <path class="color-1" d="m27.84,276.52v-119.29c-6.09,5.05-6.66,13.06-6.66,13.06v106.23s1.36,15.52,16.72,16.15c-2.69-.26-10.05-2.23-10.05-16.15Z" fill="url(#color-1)"/>
  <path class="color-1" d="m135.74,66.9V28.93c0,2.04-3.6,1.01-4.96,1.01-1.7,0-1.7,1.7-1.7,1.7v35.26s0,1.7,1.7,1.7c1.36,0,4.96-1.04,4.96,1.01v-2.71Z" fill="url(#color-1)"/>
  <path class="color-1" d="m51.19,49.86h-.02s.47-3.99-7.79-3.99h-2s1.72.91,1.93,3.99v17.64c-.21,3.08-1.93,3.98-1.93,3.98h2c8.26,0,7.79-3.98,7.79-3.98h.02v-17.64Z" fill="url(#color-1)"/>
  <path class="color-1" d="m78.36,67.51v-17.64c.21-3.08,1.93-3.98,1.93-3.98h-2c-8.26,0-7.79,3.98-7.79,3.98h-.02v17.64h.02s-.47,3.99,7.79,3.99h2s-1.72-.91-1.93-3.99Z" fill="url(#color-1)"/>
  <path class="color-1" d="m64.69,24.64c0-.14-.19-.18-.27-.06-.65.99-2.4,1.12-4.25,1.12-2.35,0-2.13,2.02-2.13,2.02h.16c-3.86,8.03-23.44,9.78-23.44,9.78l-4.02.1c1.85,0,2.05,1.96,2.05,4.09s1.97,1.93,1.97,1.93c29.05-3.08,29.75-15.31,29.77-15.89h.18v-3.08h0Z" fill="url(#color-1)"/>
  <path class="color-1" d="m87.44,37.5s-18.92-1.73-22.75-9.78h-6.66s-.36,12.73,29.41,15.89c0,0,1.97.19,1.97-1.93s.2-4.09,2.05-4.09l-4.02-.1h0Z" fill="url(#color-1)"/>
  <path class="color-1" d="m78.36,131.88v-17.64c.21-3.08,1.93-3.98,1.93-3.98h-2c-8.26,0-7.79,3.98-7.79,3.98h-.02v17.64h.02s-.47,3.99,7.79,3.99h2s-1.72-.91-1.93-3.99Z" fill="url(#color-1)"/>
  <path class="color-1" d="m64.69,89.01c0-.14-.19-.18-.27-.06-.65.99-2.4,1.12-4.25,1.12-2.35,0-2.13,2.02-2.13,2.02h.16c-3.86,8.03-23.44,9.78-23.44,9.78l-4.02.1c1.85,0,2.05,1.96,2.05,4.09s1.97,1.93,1.97,1.93c29.05-3.08,29.75-15.31,29.77-15.89h.18v-3.08h0Z" fill="url(#color-1)"/>
  <path class="color-1" d="m87.44,101.87s-18.92-1.73-22.75-9.78h-6.66s-.36,12.73,29.41,15.89c0,0,1.97.19,1.97-1.93s.2-4.09,2.05-4.09l-4.02-.1h0Z" fill="url(#color-1)" fill="url(#color-1)"/>
  <path class="color-1" d="m51.19,182.03h-.02s.47-3.99-7.79-3.99h-2s1.72.91,1.93,3.99v17.64c-.21,3.08-1.93,3.98-1.93,3.98h2c8.26,0,7.79-3.98,7.79-3.98h.02v-17.64Z" fill="url(#color-1)"/>
  <path class="color-1" d="m78.36,199.66v-17.64c.21-3.08,1.93-3.98,1.93-3.98h-2c-8.26,0-7.79,3.98-7.79,3.98h-.02v17.64h.02s-.47,3.99,7.79,3.99h2s-1.72-.91-1.93-3.99Z" fill="url(#color-1)"/>
  <path class="color-1" d="m64.69,156.8c0-.14-.19-.18-.27-.06-.65.99-2.4,1.12-4.25,1.12-2.35,0-2.13,2.02-2.13,2.02h.16c-3.86,8.03-23.44,9.78-23.44,9.78l-4.02.1c1.85,0,2.05,1.96,2.05,4.09s1.97,1.93,1.97,1.93c29.05-3.08,29.75-15.31,29.77-15.89h.18v-3.08h0Z" fill="url(#color-1)"/>
  <path class="color-1" d="m87.44,169.66s-18.92-1.73-22.75-9.78h-6.66s-.36,12.73,29.41,15.89c0,0,1.97.19,1.97-1.93s.2-4.09,2.05-4.09l-4.02-.1h0Z" fill="url(#color-1)"/>
  <path class="color-1" d="m95.29,66.26c3.04,0,5.5-2.26,5.5-5.05v-6.43c-.06.37-.66,1.38-5.5,1.38-3.04,0-5.5,2.26-5.5,5.05s2.47,5.05,5.5,5.05Z" fill="url(#color-1)"/>
  <path class="color-1" d="m122.88,22.59s-1.45,8.82-15.93,8.82c0,0-7.17-.07-7.17,4.37s.24,3.82.24,3.82c.03-.03,1.61-2.47,5.98-2.69,2.79-.14,16.89-1.39,16.89-14.33Z" fill="url(#color-1)"/>
  <path class="color-1" d="m108.92,33.03v40.83c0-2.38,4.2-1.18,5.78-1.18s1.98-1.98,1.98-1.98v-37.67h-7.76Z" fill="url(#color-1)"/>
  <path class="color-1" d="m127.24,66.39c-3.04,0-5.5-2.26-5.5-5.05v-6.43c.06.37.66,1.38,5.5,1.38,3.04,0,5.5,2.26,5.5,5.05s-2.47,5.05-5.5,5.05Z" fill="url(#color-1)"/>
  <path class="color-1" d="m131.87,93.17c-1.7,0-1.7,1.7-1.7,1.7v30.7s.39,4.89-8.64,5.73h-2.71c2.04,0,1.01,3.32,1.01,4.57,0,1.57,1.7,1.57,1.7,1.57v-.02c.19,0,15.3-.41,15.3-11.85v-33.41c0,2.04-3.6,1.01-4.96,1.01h0Z" fill="url(#color-1)"/>
  <path class="color-1" d="m130.77,163.08c-1.7,0-1.7,1.7-1.7,1.7v35.26s0,1.7,1.7,1.7c1.36,0,4.96-1.04,4.96,1.01v-40.68c0,2.04-3.6,1.01-4.96,1.01Z" fill="url(#color-1)"/>
  <path class="color-1" d="m95.29,200.24c3.04,0,5.5-2.42,5.5-5.39v-6.87c-.06.39-.66,1.47-5.5,1.47-3.04,0-5.5,2.42-5.5,5.39s2.47,5.39,5.5,5.39h0Z" fill="url(#color-1)"/>
  <path class="color-1" d="m122.88,155.73s-1.45,8.82-15.93,8.82c0,0-7.17-.07-7.17,4.37s.24,3.82.24,3.82c.03-.03,1.61-2.47,5.98-2.69,2.79-.14,16.89-1.39,16.89-14.33Z" fill="url(#color-1)"/>
  <path class="color-1" d="m127.24,200.38c-3.04,0-5.5-2.42-5.5-5.39v-6.87c.06.39.66,1.47,5.5,1.47,3.04,0,5.5,2.42,5.5,5.39s-2.47,5.39-5.5,5.39h0Z" fill="url(#color-1)"/>
  <path class="color-1" d="m148.86,239.81c-21.05-12.71-37.99-27.84-37.99-27.84,11.1,17.51,37.99,36.4,37.99,36.4,0,0,1.81,1.58,2.47-1.09.33-1.35,1.44-4.12,3.48-4.12l-5.94-3.35Z" fill="url(#color-1)"/>
  <path class="color-1" d="m102.56,95.59s-4.65,0-4.48-4.75c0,0-.24-2.26-1.83-2.26h12.68s-1.49.35-1.54,1.11.67,5.69-4.82,5.9h0Z" fill="url(#color-1)"/>
  <path class="color-1" d="m108.67,108.21c-.58,0-1.56-.22-2.11-.4-2.73-.9-8.12-3-8.12-10.79,0,0,.24-1.96-2.39-1.96s-5.07-.2-5.07-2.04v4.01s-.92,9.9,10.11,15.51c0,0,1.63.92,4.88,1.37,1.62.22,2.64-.58,3.25-1.43.48-.67.73-1.45.85-2.26.1-.73.5-1.99,2.04-1.99h-3.44Z" fill="url(#color-1)"/>
  <path class="color-1" d="m127.42,285.95c3.06,2.74,7.95,2.7,10.94-.11l6.89-6.46c-.46.31-2.14.79-7.01-3.59-3.06-2.74-7.95-2.7-10.94.11-2.99,2.81-2.93,7.3.12,10.05h0Z" fill="url(#color-1)"/>
  <path class="color-1" d="m145.39,279.24l-.14.13c.1-.07.14-.13.14-.13Z" fill="url(#color-1)"/>
  <path class="color-3" d="m145.47,29.94c-1.7,0-1.7,1.7-1.7,1.7v35.26s0,1.7,1.7,1.7c1.36,0,4.96-1.04,4.96,1.01V28.93c0,2.04-3.6,1.01-4.96,1.01Z" fill="url(#color-3)"/>
  <path class="color-3" d="m59.91,269.63s71.21-54.03,87.19-60.62l-7.58,9.2s-11.36,16.56-79.62,51.41h0Z" fill="url(#color-3)"/>
  <path class="color-3" d="m113.85,93.17c-1.7,0-1.7,1.7-1.7,1.7v17.5s.51,13.49-15.26,24.33c0,0-2.29,1.56.29,1.56h8.44s-2.26-.81-.78-1.56c0,0,13.61-6.94,13.97-24.33v-20.21c0,2.04-3.6,1.01-4.96,1.01Z" fill="url(#color-3)"/>
  <path class="color-3" d="m145.47,163.08c-1.7,0-1.7,1.7-1.7,1.7v35.26s0,1.7,1.7,1.7c1.36,0,4.96-1.04,4.96,1.01v-40.68c0,2.04-3.6,1.01-4.96,1.01Z" fill="url(#color-3)"/>
  <path class="color-3" d="m51.19,114.24h-.02s.47-3.99-7.79-3.99h-2s1.72.91,1.93,3.99v17.64c-.21,3.08-1.93,3.98-1.93,3.98h2c8.26,0,7.79-3.98,7.79-3.98h.02v-17.64Z" fill="url(#color-3)"/>
</svg>