<?xml version="1.0" encoding="UTF-8"?>
<svg xmlns="http://www.w3.org/2000/svg" viewBox="0 0 185 308">
  <defs>
    <style>
      .stroke-width {
        stroke-width: .5px;
      }

      .stroke-color-1 {
        stroke: #fa4013;
      }

      .stroke-color-2 {
        stroke: #9cd323;
      }

      .stroke-color-3 {
        stroke:#404272;
      }

      .stroke-color-4 {
        stroke: #ffffff;
      }      
    </style>
    <linearGradient id="color-1" gradientTransform="rotate(90)">
      <stop offset="0%" stop-color="#fa4013" />
      <stop offset="100%" stop-color="#fa4013" />
      <stop offset="100%" stop-color="white" />
    </linearGradient>
    <linearGradient id="color-2" gradientTransform="rotate(90)">
      <stop offset="0%" stop-color="#9cd323" />
      <stop offset="100%" stop-color="#9cd323"/>
      <stop offset="100%" stop-color="white" />
    </linearGradient>
    <linearGradient id="color-3" gradientTransform="rotate(90)">
      <stop offset="0%" stop-color="#404272" />
      <stop offset="100%" stop-color="#404272" />
      <stop offset="100%" stop-color="white" />
    </linearGradient>   
    <linearGradient id="color-4" gradientTransform="rotate(90)">
      <stop offset="0%" stop-color="#ffffff" />
      <stop offset="100%" stop-color="#ffffff" />
      <stop offset="100%" stop-color="white" />
    </linearGradient>  
  </defs>
    <path class="color-1" d="m169.42,49.11c-.82,0-1.61.1-2.38.27.26.14.53.26.81.38,4.13,1.75,6.05,6.52,4.3,10.65-1.31,3.09-4.32,4.95-7.48,4.95-1.06,0-2.14-.21-3.17-.65-.76-.32-1.51-.69-2.24-1.08,1.51,4.16,5.49,7.14,10.17,7.14,5.98,0,10.83-4.85,10.83-10.83s-4.85-10.83-10.83-10.83h0Z" fill="url(#color-1)"/>
    <path class="color-3" d="m164.67,65.36c3.16,0,6.16-1.85,7.48-4.95,1.75-4.13-.17-8.9-4.3-10.65-.28-.12-.54-.24-.81-.38-4.83,1.08-8.44,5.39-8.44,10.56,0,1.3.24,2.54.66,3.69.74.39,1.48.76,2.24,1.08,1.04.44,2.11.65,3.17.65h0Z" fill="url(#color-3)"/>
    <path class="color-2" d="m167.62,198.17c2.21,0,4-1.79,4-4s-1.79-4-4-4-4,1.79-4,4,1.79,4,4,4Z" fill="url(#color-2)"/>
    <path class="color-1" d="m27.14,188.24c2.21,0,4-1.79,4-4s-1.79-4-4-4-4,1.79-4,4,1.79,4,4,4Z" fill="url(#color-1)"/>
    <path class="color-1" d="m163.62,121.41c2.21,0,4-1.79,4-4s-1.79-4-4-4-4,1.79-4,4,1.79,4,4,4Z" fill="url(#color-1)"/>
    <path class="color-3" d="m38.38,173.84c1.66,0,3-1.34,3-3s-1.34-3-3-3-3,1.34-3,3,1.34,3,3,3Z" fill="url(#color-3)"/>
    <path class="color-3" d="m157.26,181.36c1.66,0,3-1.34,3-3s-1.34-3-3-3-3,1.34-3,3,1.34,3,3,3Z" fill="url(#color-3)"/>
    <path class="color-2" d="m167.04,49.39c-9.27-4.74-13.61-20.87-14.51-26.86-.66-4.43-4.78-7.49-9.21-6.84-4.44.65-7.51,4.77-6.86,9.21.05.31,1.15,7.69,4.47,16,4.41,11.01,10.56,18.64,18.31,22.73-.42-1.15-.66-2.4-.66-3.69,0-5.16,3.61-9.47,8.44-10.56h0Z" fill="url(#color-2)"/>
    <path class="color-2" d="m41.11,15.69c-4.45-.64-8.56,2.42-9.21,6.86-.82,5.62-5.28,22.36-14.76,26.96,4.59,1.25,7.98,5.44,7.98,10.43,0,1.47-.3,2.87-.83,4.15,8.17-3.97,14.62-11.76,19.2-23.18,3.33-8.31,4.43-15.69,4.47-16,.65-4.44-2.42-8.56-6.86-9.21h0Z" fill="url(#color-2)"/>
    <path class="color-1" d="m19.77,65.36c-3.16,0-6.16-1.85-7.48-4.95-1.75-4.13.17-8.9,4.3-10.65.19-.08.37-.18.55-.26-.91-.24-1.86-.39-2.84-.39-5.98,0-10.83,4.85-10.83,10.83s4.85,10.83,10.83,10.83c4.51,0,8.38-2.76,10-6.68-.45.22-.9.43-1.35.63-1.04.44-2.11.65-3.17.65h0Z" fill="url(#color-1)"/>
    <path class="color-3" d="m17.14,49.5c-.18.09-.37.18-.55.26-4.13,1.75-6.05,6.52-4.3,10.65,1.31,3.09,4.32,4.95,7.48,4.95,1.06,0,2.14-.21,3.17-.65.46-.2.91-.41,1.35-.63.53-1.28.83-2.67.83-4.15,0-4.99-3.38-9.19-7.98-10.43h0Z" fill="url(#color-3)"/>
    <path class="color-2" d="m71.08,151.94c5.98,0,10.83-4.85,10.83-10.83s-4.85-10.83-10.83-10.83-10.83,4.85-10.83,10.83,4.85,10.83,10.83,10.83Z" fill="url(#color-2)"/>
    <path class="color-3" d="m103.49,199.55c5.98,0,10.83-4.85,10.83-10.83s-4.85-10.83-10.83-10.83-10.83,4.85-10.83,10.83,4.85,10.83,10.83,10.83Z" fill="url(#color-3)"/>
    <path class="color-1" d="m139.6,235.42c5.42,0,9.81-4.38,9.81-9.78s-4.39-9.78-9.81-9.78-9.81,4.38-9.81,9.78,4.39,9.78,9.81,9.78Z" fill="url(#color-1)"/>
    <path class="color-2" d="m48.26,225.06h-15.56v11.36h15.56v-11.36Z" fill="url(#color-2)"/>
    <path class="color-2" d="m48.26,199.45c0-4.3-3.48-7.78-7.78-7.78s-7.78,3.48-7.78,7.78v10.1h15.56v-10.1Z" fill="url(#color-2)"/>
    <path class="color-2" d="m32.69,270.33c0,4.3,3.48,7.78,7.78,7.78s7.78-3.48,7.78-7.78v-18.41h-15.56v18.41Z" fill="url(#color-2)"/>
    <path class="color-1" d="m57.59,225.06c4.28,0,7.75-3.47,7.75-7.75s-3.47-7.75-7.75-7.75h-9.32v15.5h9.32Z" fill="url(#color-1)"/>
    <path class="color-1" d="m23.19,209.56c-4.28,0-7.75,3.47-7.75,7.75s3.47,7.76,7.75,7.76h9.51v-15.5h-9.51Z" fill="url(#color-1)"/>
    <path class="color-3" d="m48.26,209.56h-15.56v15.5h15.56v-15.5Z" fill="url(#color-3)"/>
    <path class="color-1" d="m23.98,236.42c-4.28,0-7.75,3.47-7.75,7.75s3.47,7.75,7.75,7.75h8.71v-15.5h-8.71Z" fill="url(#color-1)"/>
    <path class="color-1" d="m64.54,244.17c0-4.28-3.47-7.75-7.75-7.75h-8.53v15.5h8.53c4.28,0,7.75-3.47,7.75-7.75h0Z" fill="url(#color-1)"/>
    <path class="color-3" d="m48.26,236.42h-15.56v15.5h15.56v-15.5Z" fill="url(#color-3)"/>
    <path class="color-3" d="m70.07,276.91c5.42,0,9.81-4.38,9.81-9.78s-4.39-9.78-9.81-9.78-9.81,4.38-9.81,9.78,4.39,9.78,9.81,9.78Z" fill="url(#color-3)"/>
    <path class="color-2" d="m123.87,245.4c.64-.83,1.42-1.52,2.29-2.04v-10.32c0-4.3-3.48-7.78-7.78-7.78s-7.78,3.48-7.78,7.78v9.99c1.12.55,2.1,1.35,2.88,2.37,1.54,2.02,2.04,4.64,1.37,7.08-.32,1.14-1.73,6.06-4.24,12.17v25.52c0,4.3,3.48,7.78,7.78,7.78s7.78-3.48,7.78-7.78v-26.96c-2.15-5.43-3.37-9.68-3.66-10.74-.68-2.44-.17-5.06,1.37-7.08Z" fill="url(#color-2)"/>
    <path class="color-1" d="m107.02,242.2h-16.14c-4.49,0-8.12,3.63-8.12,8.12s3.63,8.12,8.12,8.12h4.68c-2.9,7.02-7.17,15.23-12.12,19.14-3.52,2.78-4.11,7.89-1.33,11.41,1.6,2.03,3.98,3.09,6.37,3.09,1.77,0,3.54-.58,5.03-1.75,7.9-6.25,13.57-17.13,17.09-25.67v-21.62c-1.1-.54-2.32-.83-3.59-.83h0Z" fill="url(#color-1)"/>
    <path class="color-3" d="m113.48,245.4c-.77-1.02-1.76-1.82-2.88-2.37v21.62c2.52-6.11,3.93-11.03,4.24-12.17.68-2.44.17-5.06-1.37-7.08Z" fill="url(#color-1)"/>
    <path class="color-1" d="m153.91,277.58c-3.71-2.94-7.7-8.98-11.23-17.01-.32-.72-.62-1.43-.91-2.13h4.69c4.49,0,8.12-3.63,8.12-8.12s-3.63-8.12-8.12-8.12h-16.14c-1.49,0-2.92.42-4.16,1.16v19.85c3.46,8.72,9.32,20.5,17.67,27.1,1.49,1.18,3.27,1.75,5.03,1.75,2.4,0,4.77-1.06,6.37-3.09,2.78-3.52,2.19-8.63-1.33-11.41h0Z" fill="url(#color-1)"/>
    <path class="color-3" d="m123.87,245.4c-1.54,2.02-2.04,4.64-1.37,7.08.29,1.06,1.51,5.31,3.66,10.74v-19.85c-.87.52-1.66,1.2-2.29,2.04Z" fill="url(#color-1)"/>
    <path class="color-2" d="m67.27,114.66l13.03-9.15c3.48-2.44,4.32-7.25,1.88-10.73-2.44-3.48-7.25-4.32-10.73-1.87l-13.03,9.15c-3.48,2.44-4.32,7.25-1.88,10.73,2.44,3.48,7.25,4.32,10.73,1.87Z" fill="url(#color-2)"/>
    <path class="color-1" d="m102.32,100.1l-13.96-9.81c-.48-.34-.99-.61-1.51-.82v18.57l6.62,4.65c3.48,2.44,8.28,1.6,10.73-1.87s1.6-8.28-1.87-10.73h0Z" fill="url(#color-1)"/>
    <path class="color-1" d="m77.64,92.16c2.1-3,5.96-4.03,9.22-2.69v-2.95c-2.64,1.26-5.7,2.25-9.22,2.92-2.58.5-4.86.73-6.35.84v25.45c0,4.3,3.48,7.78,7.78,7.78s7.78-3.48,7.78-7.78v-7.69l-7.34-5.16c-3.48-2.44-4.32-7.25-1.87-10.73h0Z" fill="url(#color-1)"/>
    <path class="color-3" d="m77.64,92.16c-2.44,3.48-1.6,8.28,1.87,10.73l7.34,5.16v-18.57c-3.25-1.33-7.11-.3-9.22,2.69h0Z" fill="url(#color-3)"/>
    <path class="color-1" d="m79.07,74.75c4.3,0,7.78,3.48,7.78,7.78v3.99c2.24-1.07,4.18-2.33,5.76-3.81,3.28-3.06,3.46-8.19.41-11.48-3.06-3.28-8.19-3.46-11.48-.41-2.15,2-8.59,3.21-12.43,3.32-4.47.12-8.02,3.83-7.91,8.3.1,4.42,3.71,7.93,8.11,7.93h.19c.15,0,.8-.02,1.78-.09v-7.75c0-4.3,3.48-7.78,7.78-7.78h0Z" fill="url(#color-1)"/>
    <path class="color-3" d="m86.85,86.52v-3.99c0-4.3-3.48-7.78-7.78-7.78s-7.78,3.49-7.78,7.78v7.75c1.49-.11,3.77-.35,6.35-.84,3.51-.68,6.58-1.66,9.22-2.92Z" fill="url(#color-3)"/>
    <path fill="#ffffff" class="color-5" d="m144.3,13.09H40.33c-4.3,0-7.78,3.48-7.78,7.78s3.48,7.78,7.78,7.78h103.97c4.3,0,7.78-3.48,7.78-7.78s-3.48-7.78-7.78-7.78Z"/>
    <path class="color-1" d="m40.16,31.7c5.98,0,10.83-4.85,10.83-10.83s-4.85-10.83-10.83-10.83-10.83,4.85-10.83,10.83,4.85,10.83,10.83,10.83Z" fill="url(#color-1)"/>
    <path class="color-1" d="m143.56,31.7c5.98,0,10.83-4.85,10.83-10.83s-4.85-10.83-10.83-10.83-10.83,4.85-10.83,10.83,4.85,10.83,10.83,10.83Z" fill="url(#color-1)"/>
    <path class="color-2" d="m122.24,68.36c-2.62,0-4.74,2.12-4.74,4.74v5.1h4.74c2.62,0,4.74,2.12,4.74,4.74s-2.12,4.74-4.74,4.74h-4.74v4.48h4.74c2.62,0,4.74,2.12,4.74,4.74s-2.12,4.74-4.74,4.74h-4.74v17.08c0,2.62,2.12,4.74,4.74,4.74s4.74-2.12,4.74-4.74v-45.59c0-2.62-2.12-4.74-4.74-4.74h0Z" fill="url(#color-2)"/>
    <path class="color-1" d="m108.57,92.14h4.74v-4.48h-4.74c-2.61,0-4.74-2.12-4.74-4.74v13.95c0-2.61,2.12-4.74,4.74-4.74h0Z" fill="url(#color-1)"/>
    <path class="color-1" d="m103.83,96.88v21.82c0,2.62,2.12,4.74,4.74,4.74s4.74-2.12,4.74-4.74v-17.08h-4.74c-2.61,0-4.74-2.12-4.74-4.74Z" fill="url(#color-1)"/>
    <path class="color-1" d="m108.57,78.19h4.74v-5.1c0-2.62-2.12-4.74-4.74-4.74s-4.74,2.12-4.74,4.74v9.83c0-2.61,2.12-4.74,4.74-4.74h0Z" fill="url(#color-1)"/>
    <path class="color-1" d="m117.51,78.19h-4.21v9.47h4.21v-9.47Z" fill="url(#color-1)"/>
    <path class="color-3" d="m122.24,87.67c2.62,0,4.74-2.12,4.74-4.74s-2.12-4.74-4.74-4.74h-4.74v9.47h4.74Z" fill="url(#color-3)"/>
    <path class="color-3" d="m108.57,87.67h4.74v-9.47h-4.74c-2.61,0-4.74,2.12-4.74,4.74s2.12,4.74,4.74,4.74Z" fill="url(#color-3)"/>
    <path class="color-1" d="m117.51,92.14h-4.21v9.47h4.21v-9.47Z" fill="url(#color-1)"/>
    <path class="color-3" d="m126.98,96.87c0-2.62-2.12-4.74-4.74-4.74h-4.74v9.47h4.74c2.62,0,4.74-2.12,4.74-4.74Z" fill="url(#color-3)"/>
    <path class="color-3" d="m108.57,92.14c-2.61,0-4.74,2.12-4.74,4.74s2.12,4.74,4.74,4.74h4.74v-9.47h-4.74Z" fill="url(#color-3)"/>
    <path class="color-1" d="m90.08,144.46v-.07c-.18,2.55-1.9,15.27-17.33,15.27-7.61,0-12.91-2.17-15.75-6.45-2.15-3.24-2.36-6.76-2.38-7.08v-71.54c0-6.44,1.96-11.47,6-15.39,8.88-8.61,26.14-10.04,32.02-9.86h.43c5.98-.09,23.43,1.45,31.89,9.77,3.4,3.34,5.05,7.5,5.05,12.72v89.46c0,12.7-2.1,29.94-12.13,39.96-4.12,4.12-10.75,6.48-18.18,6.48h-.11c-7.79-.03-15.06-2.69-19.44-7.13-2.47-2.5-3.78-5.76-3.78-9.43,0-4.49-3.63-8.12-8.12-8.12s-8.12,3.63-8.12,8.12c0,7.91,3,15.31,8.47,20.84,7.46,7.56,18.74,11.92,30.94,11.95h.16c11.71,0,22.52-4.09,29.67-11.24,7.7-7.7,16.88-22.88,16.88-51.45v-89.46c0-9.7-3.35-17.88-9.95-24.35-6.51-6.37-15.89-10.73-27.88-12.94-7.79-1.43-14.18-1.45-15.46-1.45-1.29-.03-7.63-.08-15.42,1.33-11.96,2.16-21.44,6.55-28.18,13.06-7.29,7.04-11,16.17-11,27.1v71.62c0,.78.13,7.88,4.47,15,4.07,6.7,12.57,14.68,29.9,14.68,12.76,0,22.99-5.49,28.81-15.46,4.2-7.2,4.7-14.3,4.74-15.08,0,0,1.37-8.29-7.8-8.76-9.17-.48-8.41,7.81-8.41,7.81v.07h0Z" fill="url(#color-1)"/>
    <path fill="#ffffff" class="color-5" d="m56.73,219.86h18.01c1.71,0,3.1,1.39,3.1,3.1s-1.39,3.1-3.1,3.1h-.26s-.98.12-.98.95c0,.24.08.4.2.53h10.94c1.71,0,3.1,1.39,3.1,3.1s-1.39,3.1-3.1,3.1h-18.01c-1.71,0-3.1-1.39-3.1-3.1s1.39-3.1,3.1-3.1h2.64c.09-.12.15-.28.15-.51,0-.95-1.06-.97-1.06-.97h-11.62c-1.71,0-3.1-1.39-3.1-3.1s1.39-3.1,3.1-3.1h0Z"/>
    <path fill="#ffffff" class="color-5" d="m98.57,52.18h-3.88c-1.68,0-3.05,1.36-3.05,3.05s1.36,3.05,3.05,3.05h3.88c1.68,0,3.05-1.36,3.05-3.05s-1.36-3.05-3.05-3.05Z"/>
    <path fill="#ffffff" class="color-5" d="m122.45,52.18h-15.92c-1.68,0-3.05,1.36-3.05,3.05s1.36,3.05,3.05,3.05h15.92c1.68,0,3.05-1.36,3.05-3.05s-1.36-3.05-3.05-3.05Z"/>
    <path fill="#ffffff" class="color-5" d="m134.78,167.85h-5.66c-1.65,0-2.99,1.34-2.99,2.99s1.34,2.99,2.99,2.99h5.66c1.65,0,2.99-1.34,2.99-2.99s-1.34-2.99-2.99-2.99Z"/>
    <path fill="#ffffff" class="color-5" d="m129.63,160.25h-17.38c-1.65,0-2.99,1.34-2.99,2.99s1.34,2.99,2.99,2.99h.25s.95.12.95.91c0,.22-.08.39-.19.51h-10.56c-1.65,0-2.99,1.34-2.99,2.99s1.34,2.99,2.99,2.99h17.38c1.65,0,2.99-1.34,2.99-2.99s-1.34-2.99-2.99-2.99h-2.54c-.09-.12-.15-.28-.15-.49,0-.91,1.02-.93,1.02-.93h11.21c1.65,0,2.99-1.34,2.99-2.99s-1.34-2.99-2.99-2.99h0Z"/>
</svg>