<?xml version="1.0" encoding="UTF-8"?>
<svg id="middle12" xmlns="http://www.w3.org/2000/svg" viewBox="0 0 185 308">
  <defs>
    <style>
      <!-- .cls-1, .cls-2 {
        fill: #ffcf08;
      }

      .cls-3 {
        fill: #fea39c;
      }

      .color-3 {
        fill: #327eed;
      }

      .color-4 {
        fill: #2032ac;
      }

      .cls-2 {
        fill-rule: evenodd;
      }

      .stroke-width stroke-linecap stroke-color-3 {
        fill: none;
        stroke: #327eed;
        stroke-miterlimit: 10;
        stroke-width: .5px;
      } -->
      .stroke-width {
        stroke-width: .5px;
      }

      .stroke-linecap{
        stroke-linecap: round;
      }

      .stroke-color-1 {
        stroke: #ffcf08;
      }

      .stroke-color-2 {
        stroke: #fea39c;
      }

      .stroke-color-3 {
        stroke:#327eed;
      }

      .stroke-color-4 {
        stroke: #2032ac;
      }      
    </style>
    <linearGradient id="color-1" gradientTransform="rotate(90)">
      <stop offset="0%" stop-color="#ffcf08" />
      <stop offset="100%" stop-color="#ffcf08" />
      <stop offset="100%" stop-color="white" />
    </linearGradient>
    <linearGradient id="color-2" gradientTransform="rotate(90)">
      <stop offset="0%" stop-color="#fea39c" />
      <stop offset="100%" stop-color="#fea39c" />
      <stop offset="100%" stop-color="white" />
    </linearGradient>
    <linearGradient id="color-3" gradientTransform="rotate(90)">
      <stop offset="0%" stop-color="#327eed" />
      <stop offset="100%" stop-color="#327eed" />
      <stop offset="100%" stop-color="white" />
    </linearGradient>   
    <linearGradient id="color-4" gradientTransform="rotate(90)">
      <stop offset="0%" stop-color="#2032ac" />
      <stop offset="100%" stop-color="#2032ac" />
      <stop offset="100%" stop-color="white" />
    </linearGradient>   
  </defs>
  <path class="color-3" d="m85.01,91.19h30.55v-6.29h-30.55v6.29Z" fill="url(#color-3)"/>
  <path class="color-2" d="m85.01,74.84h30.55v-6.29h-30.55v6.29Z" fill="url(#color-2)"/>
  <path class="color-3" d="m132.25,274.45c-.67,0-1.8-.22-2.43-.41-3.16-.9-12.31-4.08-12.31-11.94,0,0,.25-1.98-2.52-1.98s-5.34-.2-5.34-2.06v4.04s-.41,10.47,12.35,16.12c0,0,3.37,1.5,7.13,1.95,1.88.22,3.05-.58,3.76-1.44.55-.67.85-1.46.98-2.28.12-.73.57-2.01,2.36-2.01h-3.98,0Z" fill="url(#color-3)"/>
  <path class="color-3" d="m82.81,262.1v-4.04c0,1.85-2.56,2.06-5.34,2.06s-2.52,1.98-2.52,1.98c0,7.86-9.15,11.03-12.31,11.94-.64.18-1.76.41-2.43.41h-3.98c1.79,0,2.25,1.28,2.36,2.01.13.81.43,1.61.98,2.28.71.86,1.88,1.66,3.76,1.44,3.76-.45,7.13-1.95,7.13-1.95,12.76-5.65,12.35-16.12,12.35-16.12h0Z" fill="url(#color-3)"/>
  <path class="color-4" d="m99.66,159.22h-6.29v128.18l.06,2.69c0-2.1,3.33-.94,4.61-.94,1.86,0,1.6-1.75,1.6-1.75h.01v-128.18Z" fill="url(#color-4)"/>
  <path class="color-1" d="m110.98,223.35s2.47-.2,2.47,2.01.26,4.27,2.57,4.27h-5.04s-32.49,0-32.49,0v-6.29h32.48Zm-34.96,4.27c0,2.21,2.47,2.01,2.47,2.01v-6.28h-5.04c2.31,0,2.57,2.05,2.57,4.27Z" fill="url(#color-1)"/>
  <path class="color-3" d="m103.75,110.13s-.06,14.68-25.27,27.03v-6.15s13.07-7.64,18.42-20.88h6.85Z" fill="url(#color-3)"/>
  <path class="color-3" d="m97.52,110.13s.06,14.71,25.27,27.06v-6.15s-13.07-7.67-18.42-20.91h-6.85Z" fill="url(#color-3)"/>
  <path class="color-3" d="m121.85,40.8s37.46-2.09,37.46,33.99c0,25.84-27.71,32.57-27.71,32.57v6.28s28.26-5.02,28.26-39.24c0,0,.59-40.47-38.02-40.47v6.86h0Z" fill="url(#color-3)"/>
  <path class="color-3" d="m140.5,15.86v-3.89c0,1.85-2.05,2.06-4.27,2.06-1.85,0-2.01,1.38-2.02,1.83v.15c.08,1.88-.19,21.26-44.06,21.26-46.11,0-46.47-21.41-46.47-21.41v-4.04c0,1.85-2.05,2.06-4.27,2.06s-2.01,1.98-2.01,1.98c0,23.77,52.72,22.01,52.72,22.01,51.99,0,50.38-21.95,50.37-22.01h0Z" fill="url(#color-3)"/>
  <path class="color-3" d="m49.94,30.64v222.84c-.06,19.99-14.9,18.19-14.9,18.19,20.5,3.49,21.18-18.19,21.18-18.19V33.9l-6.29-3.26Z" fill="url(#color-3)"/>
  <path class="color-1" d="m115.57,50.91s-15.29,2.07-15.29,17.86c0,0-.8-10.64,15.29-10.64v-7.23h0Z" fill="url(#color-1)"/>
  <path class="color-3" d="m85.01,41.96s15.31,2.07,15.31,17.86c0,0,.8-10.64-15.31-10.64v-7.23h0Z" fill="url(#color-3)"/>
  <path class="color-3" d="m47.85,289.1c-6.58,3.99-18.75.94-20.36.51,0,0-.07-.03-.18-.05-.6-.12-2.54-.36-3.22,1.47-.82,2.17-1.85,4.13-4.35,3.62l5.2,1.07.24.05c11.65,2.43,22.67-6.67,22.67-6.67Z" fill="url(#color-3)"/>
  <path class="color-3" d="m115.57,100.87s-.31,9.16-12.62,9.16c0,0,18.91.52,18.91-9.16V32.88l-6.29,2.39v65.6Z" fill="url(#color-3)"/>
  <path class="color-3" d="m144.18,156.95c7.55-3.54,15.69-10.2,15.69-22.55,0,0,1.16-27.04-28.26-27.04h-5.04c2.32,0,2.57,2.05,2.57,4.27s2.47,2.01,2.47,2.01c0,0,27.71-3.26,27.71,21.01,0,16.5-24.96,19.51-27.5,19.78H49.82v6.29h84.89c6.92.34,25.07,3.65,25.07,29.26,0,22.67-27.71,27.53-27.71,27.53,0,0-7.86.9-7.86,6.29,0,0,.23,17.7,21.16,17.7,0,0-13.3-.81-13.3-17.7,0,0,28.26-4.15,28.26-34.15,0,0,.81-24.63-16.14-32.69h0Z" fill="url(#color-3)"/>
  <path class="color-3" d="m85.01,100.87v-62.98l-6.29-.68v63.66c0,9.68,18.91,9.16,18.91,9.16-12.32,0-12.62-9.16-12.62-9.16h0Z" fill="url(#color-3)"/>
  <path class="stroke-width stroke-linecap stroke-color-3" d="m91.25,109.45s9.38,1.69,18.77-.24" fill="none"/>
  <path class="stroke-width stroke-linecap stroke-color-3" d="m100.29,37.21v72.82" fill="none"/>
  <path class="stroke-width stroke-linecap stroke-color-3" d="m75.97,223.8c.34.29-12.13-2.86-9.91-6.91,0,0,.21-2.86,7.38-2.86h36.7s7.38.42,7.38-5.91c0,0,.03-4.29-5.97-4.29s-6.04-3.35-6.04-3.35c0,0-.59-3.13,5.45-3.13h27.7s7.13.11,7.13-4.82c0,0,.2-4.73-6.38-4.73h-34.81s-14.11.52-14.11-11.29c0,0,.19-5.62-8.85-5.62h-40.71s-10.68-.29-10.68-8.54c0,0,.05-9.18,11.47-9.18s27.39-4.09,23.7-13.18c0,0-3.39-9.13,7.55-8.85" fill="none"/>
  <path class="color-3" d="m165.25,286.48c0-30.51-15.34-42.71-15.34-42.71,11.03,12.36,9.73,41.28,9.66,42.65l-.61,2.59c.54-1.81,2.52-1.1,4.46-.61,1.8.45,1.83-1.54,1.82-1.91Z" fill="url(#color-3)"/>
  <path class="stroke-width stroke-linecap stroke-color-3" d="m42.7,271.42s-25.16,4.08-19.7-13.29c3.84-12.22,33.47-.43,33.13,12.96,0,0,3.14,21.03-25.85,23.4" fill="none"/>
  <path class="stroke-width stroke-linecap stroke-color-3" d="m113.74,229.4s6.25.82,7.12,6.25-7.15,7.59-9.47,10.57c-2.38,3.05-3.61,5.73-1.33,13.63" fill="none"/>
  <path class="stroke-width stroke-linecap stroke-color-3" d="m81.02,228.83s-8.64,1.39-9.5,6.81c-.87,5.43,7.85,8.6,9.47,10.57,2.47,2.99,3.61,5.73,1.33,13.63" fill="none"/>
  <path class="stroke-width stroke-linecap stroke-color-3" d="m126.65,136.47s13.42,2.03,9.86,11.23c0,0-1.47,2.81-6.59,2.81h-24.56s-14.25.01-14.25,8.2c0,10.47,14.99,10.24,14.99,10.24h15.92s6.85.62,6.85,4.83-7.04,4.37-7.04,4.37h-41.1s-7.54-1.05-7.54,4.14,9.99,4.57,9.99,4.57c0,0,6.19.08,6.19,4.92,0,0,.5,4.51-5.36,4.51h-51.9s-7.13-.28-7.13,6.01c0,8.73,10.07,7.85,10.07,7.85h48.13s25.98-2.08,25.98,13.1c0,0-.14,6.24,6.85,6.24h29.78s9.17-.41,9.17,7.73c0,7.45-8.8,7.66-8.8,7.66h-36.04s-5.45-.18-5.45,4.59,9.1,4.88,12.93,4.97c3.56.08,7.11.01,10.66-.03,3.28-.04,6.83-.3,10.07.11,2.04.26,4.15,1.16,4.89,2.78.52,1.13.29,2.43.78,3.57,1.23,2.85,5.71,2.61,6.85,5.42,3.18,7.82-9.67,8.06-15.99,8.31" fill="none"/>
  <path class="stroke-width stroke-linecap stroke-color-3" d="m142,240.94s5.85.59,9.87,4.83" fill="none"/>
  <path class="color-4" d="m127.35,132.97c0-1.98-2.47-2.02-2.47-2.02h-53.52c2.32,0,2.57,2.05,2.57,4.27s2.47,2.01,2.47,2.01h53.52c-2.32,0-2.57-2.05-2.57-4.27h0Z"  fill="url(#color-4)"/>
</svg>