<?xml version="1.0" encoding="UTF-8"?>
<svg id="middle11" xmlns="http://www.w3.org/2000/svg" viewBox="0 0 185 308">
  <defs>
    <style>
      .stroke-width {
        stroke-width: .5px;
      }

      .stroke-linecap{
        stroke-linecap: round;
      }

      .stroke-color-1 {
        stroke: #ffcf08;
      }

      .stroke-color-2 {
        stroke: #fea39c;
      }

      .stroke-color-3 {
        stroke:#327eed;
      }

      .stroke-color-4 {
        stroke: #2032ac;
      }      
    </style>
    <linearGradient id="color-1" gradientTransform="rotate(90)">
      <stop offset="0%" stop-color="#ffcf08" />
      <stop offset="100%" stop-color="#ffcf08" />
      <stop offset="100%" stop-color="white" />
    </linearGradient>
    <linearGradient id="color-2" gradientTransform="rotate(90)">
      <stop offset="0%" stop-color="#fea39c" />
      <stop offset="100%" stop-color="#fea39c" />
      <stop offset="100%" stop-color="white" />
    </linearGradient>
    <linearGradient id="color-3" gradientTransform="rotate(90)">
      <stop offset="0%" stop-color="#327eed" />
      <stop offset="100%" stop-color="#327eed" />
      <stop offset="100%" stop-color="white" />
    </linearGradient>   
    <linearGradient id="color-4" gradientTransform="rotate(90)">
      <stop offset="0%" stop-color="#2032ac" />
      <stop offset="100%" stop-color="#2032ac" />
      <stop offset="100%" stop-color="white" />
    </linearGradient>   
  </defs>
  <path class="stroke-width stroke-linecap stroke-color-3" d="m58.65,188.44h49.98" fill="none"/>
  <path class="stroke-width stroke-linecap stroke-color-3" d="m58.84,205.29h49.98" fill="none"/>
  <path class="stroke-width stroke-linecap stroke-color-3" d="m114.43,172.29s9.24.21,9.24-5.12-8.96-4.38-8.96-4.38h-20.14s-20.92.2-20.92-13.32c0,0,.82-12.69,18.9-12.69h57.02s8.5.56,8.5-6.97c0,0-.61-5.02-8.34-5.02h-30.62s-10.31,1.39-10.31-5.48-9.1-6.32-9.1-6.32h-48.8s-4.65-.14-4.65-4.27c0,0,.11-3.85,5.79-3.85h39.47s12.58.56,12.58-7.8c0,0,.61-6.51-7.02-6.51h-49.3s-8.4,0-8.4-7.72c0,0-.49-6.04,14.11-4.98" fill="none"/>
  <path class="stroke-width stroke-linecap stroke-color-3" d="m114.43,222.13h42.45s8.35-.59,8.35,6.22c0,0,.5,6.6-7.97,6.6h-51.52s-14.31-1.26-14.31,8.13c0,0,.73,6.81,14.31,6.81h35.31s5.71-.09,5.71,5.21-5,5.48-5,5.48h-36.02s-5.88,0-5.88,4.42-4.88,11.02-9.93,11.02-10.18,1.39-9.39-5.07" fill="none"/>
  <path class="stroke-width stroke-linecap stroke-color-3" d="m15.99,78.51s-1.82-14.55,4.98-13.51" fill="none"/>
  <path class="stroke-width stroke-linecap stroke-color-3" d="m88.31,17.72s-.47-6.67,5.65-6.67h26.67s7.55.36,7.55,5.14c0,0,.39,5.16-7.05,5.16h-18.59s-6.27-.28-6.27,2.83c0,0-1.01,3.23,6.16,3.23h40.92s3.64-.13,3.64,2.73c0,0,.3,2.61-3.74,2.61h-17.89s-9.6-.54-9.6,5.88c0,0-.5,6.71,9.49,6.71h19.09s7.26-.91,7.26,4.62c0,4.63,3.91,4.51,3.91,4.51h5.85s7.83-.85,7.83,6.21v12.76s.17,3.49-2.29,3.49" fill="none"/>
  <path class="stroke-width stroke-linecap stroke-color-3" d="m129.78,157.18s1.59.72,1.39,9.19" fill="none"/>
  <path class="stroke-width stroke-linecap stroke-color-3" d="m144.94,296.72s4.16,1.29,7.69-.34" fill="none"/>
  <path class="color-2" d="m86.67,270.55V55.02h.03l-.06-2.53c0,1.98-3.33.89-4.61.89-1.86,0-1.6,1.64-1.6,1.64h-.04v215.53h0l.06,2.53c0-1.98,3.33-.89,4.61-.89,1.86,0,1.6-1.64,1.6-1.64h0Z" fill="url(#color-2)"/>
  <path class="color-3" d="m160.69,90.98c3.47,0,6.29-2.82,6.29-6.29v-8c-.07.45-.75,1.71-6.29,1.71-3.47,0-6.29,2.82-6.29,6.29s2.82,6.29,6.29,6.29Z" fill="url(#color-3)"/>
  <path class="color-3" d="m113,149.95h-59.46s-22.36.03-22.36-23.59,22.36-22.9,22.36-22.9h63.65s9.19.94,9.19-12.92c0,0,0-12.86-9.19-12.86H49.36c1.9,0,2.11,2.05,2.11,4.27s2.03,2.01,2.03,2.01h63.69s8.73.41,8.73,6.67-8.73,6.54-8.73,6.54h-63.69c-22.75.03-22.75,29.47-22.75,29.47,0,31.01,21.73,29.68,22.75,29.6h59.5s17.95-.99,17.95,4.86c0,0,1.53-11.14-17.95-11.14Z" fill="url(#color-3)"/>
  <path class="color-3" d="m150.64,65.99l-3.48-1.18s-45.99-18.34-58.65-45.76c0,0,0,0,0,0v-4.25c0,1.95-2.24,2.17-4.65,2.17h0c-2.41,0-2.19,2.08-2.19,2.08h-.01s0,0,0,.02c-12.66,27.41-58.64,45.75-58.64,45.75h-3.21c-.1,0-.15.14-.05.19,1.09.56,1.23,2.26,1.23,4.08,0,3.26,2.03,2.01,2.03,2.01,40.43-17.34,56.14-35.1,62.06-44.73,5.93,9.63,21.63,27.39,62.06,44.73,0,0,2.03,1.1,2.03-1.98,0-2.17-.42-3.11,1.46-3.12Z" fill="url(#color-3)"/>
  <path class="color-3" d="m52.07,172.29c2.01,1.02,1.77,4.14,1.77,4.14v41.69c0,.06.21,3.13-1.77,4.14,0,0,8.61.85,8.62-4.14v-41.69c0-5-8.62-4.14-8.62-4.14Z" fill="url(#color-3)"/>
  <path class="color-4" d="m155.25,286.64c-2.41,0-2.19,2.08-2.19,2.08,0,0,3.21,8.47-4.27,8.47,0,0,11.11.68,11.11-8.47v-4.25c0,1.95-2.24,2.17-4.65,2.17Z" fill="url(#color-4)"/>
  <path class="color-4" d="m137.18,280.55v-103.51s.08-8.24-6.18-13.44l-.09,13.44h-.02v103.51s1.13,15.94,16.86,16.61c-2.84-.27-10.57-2.32-10.57-16.61Z" fill="url(#color-4)"/>
  <path class="color-1" d="m22.06,90.98c-3.47,0-6.29-2.82-6.29-6.29v-8c.07.45.75,1.71,6.29,1.71,3.47,0,6.29,2.82,6.29,6.29s-2.82,6.29-6.29,6.29Z" fill="url(#color-1)"/>
  <path class="color-1" d="m113.44,218.13v-41.69s-.23-3.13,1.77-4.14c0,0-8.62-.85-8.62,4.14v41.69c0,4.99,8.62,4.14,8.62,4.14-1.99-1.01-1.78-4.08-1.77-4.14Z" fill="url(#color-1)"/>
</svg>