<?xml version="1.0" encoding="UTF-8"?>
<svg xmlns="http://www.w3.org/2000/svg" viewBox="0 0 185 308">
  <defs>
    <style>
      .stroke-width {
        stroke-width: 1.3px;
      }

      .stroke-color-1 {
        stroke: #ffcf08;
      }

      .stroke-color-2 {
        stroke: #fea39c;
      }

      .stroke-color-3 {
        stroke:#327eed;
      }

      .stroke-color-4 {
        stroke: #2032ac;
      }      
    </style>  
    <linearGradient id="color-1" gradientTransform="rotate(90)">
      <stop offset="0%" stop-color="#ffcf08" />
      <stop offset="100%" stop-color="#ffcf08" />
      <stop offset="100%" stop-color="white" />
    </linearGradient>
    <linearGradient id="color-2" gradientTransform="rotate(90)">
      <stop offset="0%" stop-color="#fea39c" />
      <stop offset="100%" stop-color="#fea39c" />
      <stop offset="100%" stop-color="white" />
    </linearGradient>
    <linearGradient id="color-3" gradientTransform="rotate(90)">
      <stop offset="0%" stop-color="#327eed" />
      <stop offset="100%" stop-color="#327eed" />
      <stop offset="100%" stop-color="white" />
    </linearGradient>   
    <linearGradient id="color-4" gradientTransform="rotate(90)">
      <stop offset="0%" stop-color="#2032ac" />
      <stop offset="100%" stop-color="#2032ac" />
      <stop offset="100%" stop-color="white" />
    </linearGradient>  
  </defs>
    <path class="color-1" d="m53.48,180.72c2.21,0,4-1.79,4-4s-1.79-4-4-4-4,1.79-4,4,1.79,4,4,4Z" fill="url(#color-3)"/>
    <path class="color-1" d="m126.37,24.63c2.21,0,4-1.79,4-4s-1.79-4-4-4-4,1.79-4,4,1.79,4,4,4Z" fill="url(#color-3)"/>
    <path class="color-1" d="m149.72,137.63c2.21,0,4-1.79,4-4s-1.79-4-4-4-4,1.79-4,4,1.79,4,4,4Z" fill="url(#color-3)"/>
    <path class="color-4" d="m44.39,299.13c1.66,0,3-1.34,3-3s-1.34-3-3-3-3,1.34-3,3,1.34,3,3,3Z" fill="url(#color-2)"/>
    <path class="color-4" d="m161.24,145.47c1.66,0,3-1.34,3-3s-1.34-3-3-3-3,1.34-3,3,1.34,3,3,3Z" fill="url(#color-2)"/>
    <path class="color-3" d="m113.01,14.87c1.66,0,3-1.34,3-3s-1.34-3-3-3-3,1.34-3,3,1.34,3,3,3Z" fill="url(#color-1)"/>
    <path class="color-2" d="m25.08,140.63c1.66,0,3-1.34,3-3s-1.34-3-3-3-3,1.34-3,3,1.34,3,3,3Z" fill="url(#color-4)"/>
    <path class="color-3" d="m168.61,272.4c-9.96-19.13-13.05-86.19-13.05-108.46,0-9.06-3.55-14-6.53-16.56-3.89-3.33-9.32-4.75-14.91-3.89-.42.07-.64.08-.75.08-10.02.24-15.37-.91-18.74-2.54.23-.01.47,0,.73.07,6.14,1.54,12.64-.57,17.4-5.68,5.38-5.77,7.35-14.04,5.05-21.07-1.42-4.33-5.73-11.94-18.61-14.37-3.71-.7-5.7-1.34-6.72-1.77.11-.94.34-2.19.51-3.2.31-1.78.67-3.81.93-6.09h-18.06c-.16,1.01-.33,1.99-.5,2.97-.9,5.05-1.92,10.77,1.6,16.16,3.91,5.98,11.4,8.12,18.92,9.53,2.22.42,4.85,1.37,4.97,2.66.12,1.31-.92,2.89-1.63,3.39-10.04-2.27-18.9,3.49-22.53,10.48-3.39,6.52-2.25,13.85,2.85,18.25,7.84,6.77,18.1,9.5,34.25,9.12.95-.02,1.95-.12,3.06-.28.17-.03.34-.03.5-.04.13.44.31,1.3.31,2.79,0,.88.65,89.02,15.08,116.73,1.6,3.07,4.71,4.82,7.94,4.82,1.39,0,2.8-.33,4.12-1.01,4.39-2.28,6.09-7.69,3.8-12.08h.01Z" fill="url(#color-1)"/>
    <path class="color-3" d="m68.22,95.02c.18,1.01.4,2.27.51,3.2-1.02.43-3.01,1.07-6.72,1.77-6.85,1.29-12.04,4.13-15.43,8.46-3.25,4.15-4.54,9.41-3.62,14.81.82,4.81,3.41,9.53,7.1,12.94,4.34,4.02,9.79,5.87,14.96,5.07.46-.07.86-.09,1.23-.08-3.39,1.55-8.72,2.6-18.41,2.39-.12,0-.34-.02-.75-.08-5.59-.87-11.03.55-14.92,3.89-2.98,2.56-6.53,7.5-6.53,16.56,0,22.27-3.1,89.33-13.05,108.46-2.28,4.39-.58,9.79,3.8,12.08,4.39,2.28,9.79.58,12.08-3.8,14.43-27.71,15.08-115.85,15.08-116.73,0-1.49.18-2.35.31-2.79.18.01.33,0,.51.04,1.1.17,2.1.26,3.06.28,16.16.37,26.4-2.36,34.25-9.12,5.03-4.34,6.39-11.25,3.46-17.6-3.66-7.94-12.8-12.51-22.33-11.24-.93-.51-2.31-2.42-2.22-3.76.04-.52,1.57-1.57,4.74-2.17,7.52-1.42,15.01-3.55,18.92-9.53,3.51-5.39,2.5-11.11,1.6-16.16-.17-.97-.34-1.95-.5-2.97h-18.06c.26,2.28.62,4.31.93,6.09h0Z" fill="url(#color-1)"/>
    <path class="color-2" d="m164.97,296.13c6.59,0,11.93-5.34,11.93-11.93s-5.34-11.93-11.93-11.93-11.93,5.34-11.93,11.93,5.34,11.93,11.93,11.93Z" fill="url(#color-4)"/>
    <path class="color-2" d="m15.86,296.13c6.59,0,11.93-5.34,11.93-11.93s-5.34-11.93-11.93-11.93-11.93,5.34-11.93,11.93,5.34,11.93,11.93,11.93Z" fill="url(#color-4)"/>
    <path class="color-1" d="m82.03,81.48v88.03c0,4.74,3.84,8.58,8.58,8.58s8.58-3.84,8.58-8.58v-88.03c0-4.74-3.84-8.58-8.58-8.58s-8.58,3.84-8.58,8.58Z" fill="url(#color-3)"/>
    <path class="color-1" d="m68.33,210.15l-8.86,8.86c-3.35,3.35-3.35,8.78,0,12.13,3.35,3.35,8.78,3.35,12.13,0l8.86-8.86c3.35-3.35,3.35-8.78,0-12.13-3.35-3.35-8.78-3.35-12.13,0Z" fill="url(#color-3)"/>
    <path class="color-4" d="m99.31,222.27l8.86,8.86c3.35,3.35,8.78,3.35,12.13,0,3.35-3.35,3.35-8.78,0-12.13l-8.86-8.86c-3.35-3.35-8.78-3.35-12.13,0-3.35,3.35-3.35,8.78,0,12.13Z" fill="url(#color-2)"/>
    <path class="color-4" d="m80.47,255.23l-8.86-8.86c-3.35-3.35-8.78-3.35-12.13,0-3.35,3.35-3.35,8.78,0,12.13l8.86,8.86c3.35,3.35,8.78,3.35,12.13,0s3.35-8.78,0-12.13Z" fill="url(#color-2)"/>
    <path class="color-3" d="m111.44,267.37l8.86-8.86c3.35-3.35,3.35-8.78,0-12.13-3.35-3.35-8.78-3.35-12.13,0l-8.86,8.86c-3.35,3.35-3.35,8.78,0,12.13,3.35,3.35,8.78,3.35,12.13,0Z" fill="url(#color-1)"/>
    <path class="color-2" d="m91.86,35.74c6.59,0,11.93-5.34,11.93-11.93s-5.34-11.93-11.93-11.93-11.93,5.34-11.93,11.93,5.34,11.93,11.93,11.93Z" fill="url(#color-4)"/>
    <path class="color-2" d="m90.61,190.01c6.59,0,11.93-5.34,11.93-11.93s-5.34-11.93-11.93-11.93-11.93,5.34-11.93,11.93,5.34,11.93,11.93,11.93Z" fill="url(#color-4)"/>
    <path class="color-3" d="m101.97,194.63h-23.41c-2.68,0-4.85,2.17-4.85,4.85s2.17,4.85,4.85,4.85h23.41c2.68,0,4.85-2.17,4.85-4.85s-2.17-4.85-4.85-4.85Z" fill="url(#color-1)"/>
    <path class="color-3" d="m101.34,209.23h-22.14c-2.68,0-4.85,2.17-4.85,4.85s2.17,4.85,4.85,4.85h22.14c2.68,0,4.85-2.17,4.85-4.85s-2.17-4.85-4.85-4.85Z" fill="url(#color-1)"/>
    <path class="color-1" d="m97.13,199.48v14.66c0,2.68,2.17,4.85,4.85,4.85s4.85-2.17,4.85-4.85v-14.66c0-2.68-2.17-4.85-4.85-4.85s-4.85,2.17-4.85,4.85Z" fill="url(#color-3)"/>
    <path class="color-4" d="m73.72,199.48v14.66c0,2.68,2.17,4.85,4.85,4.85s4.85-2.17,4.85-4.85v-14.66c0-2.68-2.17-4.85-4.85-4.85s-4.85,2.17-4.85,4.85Z" fill="url(#color-2)"/>
    <path class="color-4" d="m49.36,48.44c.14,1.22.51,4.71.71,9.53h82.55c.19-4.87.57-8.39.72-9.62.43-3.66,3.02-6.54,6.34-7.53H41.85c-1.93,0-3.71.65-5.15,1.73,1.04-.68,2.23-1.14,3.54-1.3,4.5-.53,8.57,2.69,9.1,7.19h0Z" fill="url(#color-2)"/>
    <path class="color-3" d="m33.49,71.76H11.63c-4.74,0-8.58,3.84-8.58,8.58s3.84,8.58,8.58,8.58h19.16c1.25-4.31,2.12-9.43,2.57-15.27.05-.63.09-1.26.13-1.89Z" fill="url(#color-1)"/>
    <path class="color-3" d="m172.09,71.76h-21.38c.39,5.93,1.22,11.96,2.71,17.16h18.67c4.74,0,8.58-3.84,8.58-8.58s-3.84-8.58-8.58-8.58Z" fill="url(#color-1)"/>
    <path class="color-3" d="m23.08,102.16c-3.67,2.66-4.5,7.79-1.84,11.46,1.6,2.22,4.11,3.39,6.65,3.39,1.67,0,3.35-.51,4.8-1.56,8.17-5.91,12.65-15.96,15.02-26.53h-16.93c-1.82,6.31-4.44,10.87-7.71,13.24Z" fill="url(#color-1)"/>
    <path class="color-3" d="m50.06,57.98h-8.21c-4.74,0-8.58-3.84-8.58-8.58,0-2.8,1.35-5.29,3.43-6.85-2.51,1.65-4.02,4.62-3.66,7.8.01.1,1.13,9.95.43,21.42h16.49c.28-5.14.24-9.9.08-13.79h0Z" fill="url(#color-1)"/>
    <path class="color-2" d="m33.27,49.4c0,4.74,3.84,8.58,8.58,8.58h8.21c-.19-4.83-.57-8.32-.71-9.53-.53-4.5-4.6-7.72-9.1-7.19-1.31.16-2.51.62-3.54,1.3-2.08,1.57-3.43,4.05-3.43,6.85h0Z" fill="url(#color-4)"/>
    <path class="color-2" d="m33.49,71.76c-.04.63-.08,1.25-.13,1.89-.46,5.84-1.33,10.96-2.57,15.27h16.93c1.3-5.77,1.97-11.67,2.27-17.16h-16.5Z" fill="url(#color-4)"/>
    <path class="color-3" d="m150.29,116.06c1.59,1.15,3.42,1.7,5.24,1.7,2.77,0,5.51-1.28,7.26-3.71,2.89-4.01,2-9.6-2.01-12.5-3.39-2.45-5.76-7.06-7.36-12.64h-18.47c2.4,10.79,6.97,21.09,15.34,27.14h0Z" fill="url(#color-1)"/>
    <path class="color-3" d="m150.44,49.4c0,4.74-3.84,8.58-8.58,8.58h-9.26c-.16,3.89-.19,8.65.08,13.79h18.01c-.53-8.12-.22-16.04.4-21.33.57-4.91-2.94-9.35-7.85-9.93-1.25-.15-2.46-.02-3.6.31h2.2c4.74,0,8.58,3.84,8.58,8.58h0Z" fill="url(#color-1)"/>
    <path class="color-2" d="m133.33,48.35c-.14,1.23-.52,4.75-.72,9.62h9.26c4.74,0,8.58-3.84,8.58-8.58s-3.84-8.58-8.58-8.58h-2.2c-3.32.99-5.91,3.87-6.34,7.53Z" fill="url(#color-4)"/>
    <path class="color-2" d="m132.7,71.76c.3,5.48.97,11.38,2.25,17.16h18.47c-1.49-5.19-2.33-11.23-2.71-17.16h-18.01Z" fill="url(#color-4)"/>
    <path class="color-4" d="m113.92,88.92h21.03c-1.28-5.77-1.95-11.68-2.25-17.16h-20.3c1.15,2.95,1.91,6.5,1.91,10.73,0,2.35-.16,4.48-.38,6.42Z" fill="url(#color-2)"/>
    <path class="color-4" d="m93.99,75.69c-2.03-1.85-4.75-1.85-6.78,0-.6.54-2.41,2.2-2.41,6.8,0,2.34.23,4.44.54,6.42h10.52c.31-1.98.54-4.08.54-6.42,0-4.6-1.81-6.26-2.41-6.8h0Z" fill="url(#color-2)"/>
    <path class="color-4" d="m68.81,71.76h-18.83c-.3,5.48-.97,11.39-2.27,17.16h19.57c-.22-1.95-.38-4.07-.38-6.42,0-4.24.76-7.78,1.91-10.73Z" fill="url(#color-2)"/>
    <path class="color-3" d="m106.06,62.47c-8.82-8.04-22.11-8.04-30.92,0-2.22,2.03-4.68,5.04-6.33,9.29h43.58c-1.66-4.25-4.12-7.27-6.33-9.29Z" fill="url(#color-1)"/>
    <path class="color-2" d="m114.3,82.49c0-4.24-.76-7.78-1.91-10.73h-43.58c-1.15,2.95-1.91,6.5-1.91,10.73,0,2.35.16,4.48.38,6.42h18.06c-.31-1.98-.54-4.08-.54-6.42,0-4.6,1.81-6.26,2.41-6.8,2.03-1.85,4.75-1.85,6.78,0,.6.54,2.41,2.2,2.41,6.8,0,2.34-.23,4.44-.54,6.42h18.06c.22-1.95.38-4.07.38-6.42Z" fill="url(#color-4)"/>
    <path class="color-3" d="m65.53,226.05h-23.41c-2.68,0-4.85,2.17-4.85,4.85s2.17,4.85,4.85,4.85h23.41c2.68,0,4.85-2.17,4.85-4.85s-2.17-4.85-4.85-4.85Z" fill="url(#color-1)"/>
    <path class="color-3" d="m64.89,240.66h-22.14c-2.68,0-4.85,2.17-4.85,4.85s2.17,4.85,4.85,4.85h22.14c2.68,0,4.85-2.17,4.85-4.85s-2.17-4.85-4.85-4.85Z" fill="url(#color-1)"/>
    <path class="color-2" d="m60.69,230.91v14.66c0,2.68,2.17,4.85,4.85,4.85s4.85-2.17,4.85-4.85v-14.66c0-2.68-2.17-4.85-4.85-4.85s-4.85,2.17-4.85,4.85Z" fill="url(#color-4)"/>
    <path class="color-4" d="m37.27,230.91v14.66c0,2.68,2.17,4.85,4.85,4.85s4.85-2.17,4.85-4.85v-14.66c0-2.68-2.17-4.85-4.85-4.85s-4.85,2.17-4.85,4.85Z" fill="url(#color-2)"/>
    <path class="color-3" d="m102.22,258.49h-23.41c-2.68,0-4.85,2.17-4.85,4.85s2.17,4.85,4.85,4.85h23.41c2.68,0,4.85-2.17,4.85-4.85s-2.17-4.85-4.85-4.85Z" fill="url(#color-1)"/>
    <path class="color-3" d="m101.59,273.09h-22.14c-2.68,0-4.85,2.17-4.85,4.85s2.17,4.85,4.85,4.85h22.14c2.68,0,4.85-2.17,4.85-4.85s-2.17-4.85-4.85-4.85Z" fill="url(#color-1)"/>
    <path class="color-4" d="m97.37,263.34v14.66c0,2.68,2.17,4.85,4.85,4.85s4.85-2.17,4.85-4.85v-14.66c0-2.68-2.17-4.85-4.85-4.85s-4.85,2.17-4.85,4.85Z" fill="url(#color-2)"/>
    <path class="color-2" d="m73.96,263.34v14.66c0,2.68,2.17,4.85,4.85,4.85s4.85-2.17,4.85-4.85v-14.66c0-2.68-2.17-4.85-4.85-4.85s-4.85,2.17-4.85,4.85Z" fill="url(#color-4)"/>
    <path class="color-2" d="m139.43,225.68h-23.41c-2.68,0-4.85,2.17-4.85,4.85s2.17,4.85,4.85,4.85h23.41c2.68,0,4.85-2.17,4.85-4.85s-2.17-4.85-4.85-4.85Z" fill="url(#color-4)"/>
    <path class="color-1" d="m138.8,240.29h-22.14c-2.68,0-4.85,2.17-4.85,4.85s2.17,4.85,4.85,4.85h22.14c2.68,0,4.85-2.17,4.85-4.85s-2.17-4.85-4.85-4.85Z" fill="url(#color-3)"/>
    <path class="color-3" d="m134.59,230.53v14.66c0,2.68,2.17,4.85,4.85,4.85s4.85-2.17,4.85-4.85v-14.66c0-2.68-2.17-4.85-4.85-4.85s-4.85,2.17-4.85,4.85Z" fill="url(#color-1)"/>
    <path class="color-3" d="m111.17,230.53v14.66c0,2.68,2.17,4.85,4.85,4.85s4.85-2.17,4.85-4.85v-14.66c0-2.68-2.17-4.85-4.85-4.85s-4.85,2.17-4.85,4.85Z" fill="url(#color-1)"/>
    <path fill="#ffffff" class="color-5" d="m51.4,19.96h21.17c2.01,0,3.65,1.63,3.65,3.65s-1.63,3.65-3.65,3.65h-.31s-1.16.14-1.16,1.11c0,.28.1.47.23.63h12.86c2.01,0,3.65,1.63,3.65,3.65s-1.63,3.65-3.65,3.65h-21.17c-2.01,0-3.65-1.63-3.65-3.65s1.63-3.65,3.65-3.65h3.1c.1-.15.18-.34.18-.6,0-1.11-1.25-1.14-1.25-1.14h-13.66c-2.01,0-3.65-1.63-3.65-3.65s1.63-3.65,3.65-3.65Z"/>
    <path fill="#ffffff" class="color-5" d="m138.21,176.72h-6.24c-1.82,0-3.3,1.48-3.3,3.3s1.48,3.3,3.3,3.3h6.24c1.82,0,3.3-1.48,3.3-3.3s-1.48-3.3-3.3-3.3Z"/>
    <path fill="#ffffff" class="color-5" d="m132.53,168.33h-19.16c-1.82,0-3.3,1.48-3.3,3.3s1.48,3.3,3.3,3.3h.28s1.04.13,1.04,1.01c0,.25-.09.43-.21.57h-11.64c-1.82,0-3.3,1.48-3.3,3.3s1.48,3.3,3.3,3.3h19.16c1.82,0,3.3-1.48,3.3-3.3s-1.48-3.3-3.3-3.3h-2.8c-.1-.13-.16-.31-.16-.54,0-1.01,1.13-1.03,1.13-1.03h12.36c1.82,0,3.3-1.48,3.3-3.3s-1.48-3.3-3.3-3.3h0Z"/>
    <path fill="#ffffff" class="color-5" d="m53.83,280.24h4.59c1.98,0,3.59-1.61,3.59-3.59h0c0-1.99-1.61-3.6-3.59-3.6h-4.59c-1.98,0-3.59,1.61-3.59,3.59h0c0,1.99,1.61,3.6,3.59,3.6Z"/>
    <path fill="#ffffff" class="color-5" d="m25.67,280.24h18.78c1.98,0,3.59-1.61,3.59-3.59h0c0-1.99-1.61-3.6-3.59-3.6h-18.78c-1.98,0-3.59,1.61-3.59,3.59h0c0,1.99,1.61,3.6,3.59,3.6Z"/>
    <path fill="#ffffff" class="color-5" d="m57.99,92.01h-4.21c-1.82,0-3.3,1.48-3.3,3.3s1.48,3.3,3.3,3.3h4.21c1.82,0,3.3-1.48,3.3-3.3s-1.48-3.3-3.3-3.3Z"/>
    <path fill="#ffffff" class="color-5" d="m83.85,92.01h-17.25c-1.82,0-3.3,1.48-3.3,3.3s1.48,3.3,3.3,3.3h17.25c1.82,0,3.3-1.48,3.3-3.3s-1.48-3.3-3.3-3.3Z"/>
</svg>