<?xml version="1.0" encoding="UTF-8"?>
<svg xmlns="http://www.w3.org/2000/svg" viewBox="0 0 185 308">
  <defs>
    <style>
      .stroke-width {
        stroke-width: 1.3px;
      }

      .stroke-color-1 {
        stroke: #ffcf08;
      }

      .stroke-color-2 {
        stroke: #fea39c;
      }

      .stroke-color-3 {
        stroke:#327eed;
      }

      .stroke-color-4 {
        stroke: #2032ac;
      }      
    </style>  
    <linearGradient id="color-1" gradientTransform="rotate(90)">
      <stop offset="0%" stop-color="#ffcf08" />
      <stop offset="100%" stop-color="#ffcf08" />
      <stop offset="100%" stop-color="white" />
    </linearGradient>
    <linearGradient id="color-2" gradientTransform="rotate(90)">
      <stop offset="0%" stop-color="#fea39c" />
      <stop offset="100%" stop-color="#fea39c" />
      <stop offset="100%" stop-color="white" />
    </linearGradient>
    <linearGradient id="color-3" gradientTransform="rotate(90)">
      <stop offset="0%" stop-color="#327eed" />
      <stop offset="100%" stop-color="#327eed" />
      <stop offset="100%" stop-color="white" />
    </linearGradient>   
    <linearGradient id="color-4" gradientTransform="rotate(90)">
      <stop offset="0%" stop-color="#2032ac" />
      <stop offset="100%" stop-color="#2032ac" />
      <stop offset="100%" stop-color="white" />
    </linearGradient>  
  </defs>
    <path class="color-4" d="m156.1,231.86c2.21,0,4-1.79,4-4s-1.79-4-4-4-4,1.79-4,4,1.79,4,4,4Z" fill="url(#color-4)"/>
    <path class="color-1" d="m19.55,157.17c2.21,0,4-1.79,4-4s-1.79-4-4-4-4,1.79-4,4,1.79,4,4,4Z" fill="url(#color-1)"/>
    <path class="color-1" d="m95.88,13.22c2.21,0,4-1.79,4-4s-1.79-4-4-4-4,1.79-4,4,1.79,4,4,4Z" fill="url(#color-1)"/>
    <path class="color-4" d="m15.55,136.26c1.66,0,3-1.34,3-3s-1.34-3-3-3-3,1.34-3,3,1.34,3,3,3Z" fill="url(#color-4)"/>
    <path class="color-2" d="m35.91,300.45c2.21,0,4-1.79,4-4s-1.79-4-4-4-4,1.79-4,4,1.79,4,4,4Z" fill="url(#color-2)"/>
    <path class="color-2" d="m166.1,211.7c2.21,0,4-1.79,4-4s-1.79-4-4-4-4,1.79-4,4,1.79,4,4,4Z" fill="url(#color-2)"/>
    <path class="color-1" d="m76.01,281.04c0,4.7,3.81,8.51,8.51,8.51s8.51-3.81,8.51-8.51v-73.35h-17.01v73.35Z" fill="url(#color-1)"/>
    <path class="color-1" d="m93.02,172.06c0-4.7-3.81-8.51-8.51-8.51s-8.51,3.81-8.51,8.51v18.62h17.01v-18.62Z" fill="url(#color-1)"/>
    <path class="color-4" d="m106.64,190.68h-13.62v17.01h13.62c4.7,0,8.51-3.81,8.51-8.51s-3.81-8.51-8.51-8.51Z" fill="url(#color-4)"/>
    <path class="color-4" d="m62.39,190.68c-4.7,0-8.51,3.81-8.51,8.51s3.81,8.51,8.51,8.51h13.62v-17.01h-13.62Z" fill="url(#color-4)"/>
    <path class="color-2" d="m93.02,190.68h-17.01v17.01h17.01v-17.01Z" fill="url(#color-2)"/>
    <path class="color-3" d="m55.96,129.84c-1.32,1.21-2.26,2.83-2.62,4.67.31-1.6,1.09-3.14,2.33-4.38l.28-.28h0Z" fill="url(#color-3)"/>
    <path class="color-3" d="m53.23,135.3c.02-.23.06-.46.1-.69-.04.23-.07.46-.1.69Z" fill="url(#color-3)"/>
    <path class="color-3" d="m53.32,134.61s0-.07.01-.1c0,.04,0,.07-.01.1Z" fill="url(#color-3)"/>
    <path class="color-3" d="m82.25,127.61l11.84-11.84c3.32-3.32,3.32-8.71,0-12.03-3.32-3.32-8.71-3.32-12.03,0l-26.11,26.11c1.52-1.38,3.52-2.23,5.73-2.23h20.56Z" fill="url(#color-3)"/>
    <path class="color-3" d="m53.18,136.12c0-.27.01-.55.04-.81-.24,2.45.58,4.98,2.45,6.86,1.8,1.8,4.22,2.63,6.58,2.46h-.57c-4.7,0-8.51-3.81-8.51-8.51Z" fill="url(#color-3)"/>
    <path class="color-2" d="m82.25,127.61h-20.56c-2.21,0-4.22.85-5.73,2.23l-.28.28c-1.24,1.24-2.02,2.77-2.33,4.38,0,.04,0,.07-.01.1-.04.23-.07.46-.1.69-.02.27-.04.54-.04.81,0,4.7,3.81,8.51,8.51,8.51h.57c1.98-.13,3.93-.95,5.44-2.46l14.55-14.55h0Z" fill="url(#color-2)"/>
    <path class="color-3" d="m94,127.61h-11.75l-14.55,14.55c-1.52,1.52-3.46,2.33-5.44,2.46h51.73c-1.98-.13-3.93-.95-5.44-2.46l-14.55-14.55Z" fill="url(#color-3)"/>
    <path class="color-3" d="m122.72,133.74c.07.25.13.5.18.75-.05-.26-.11-.51-.18-.75Z" fill="url(#color-3)"/>
    <path class="color-3" d="m122.72,133.72c-.44-1.5-1.29-2.83-2.41-3.86l.27.27c1.04,1.04,1.75,2.28,2.14,3.59h0Z" fill="url(#color-3)"/>
    <path class="color-3" d="m122.9,134.5c.01.1.03.18.04.28-.01-.1-.02-.18-.04-.28Z" fill="url(#color-3)"/>
    <path class="color-3" d="m123.02,135.29c.03.27.04.55.04.83,0,4.7-3.81,8.51-8.51,8.51h-.57c2.36.16,4.78-.66,6.58-2.46,1.88-1.88,2.69-4.42,2.45-6.87Z" fill="url(#color-3)"/>
    <path class="color-3" d="m120.3,129.86l-26.12-26.12c-3.32-3.32-8.71-3.32-12.03,0-3.32,3.32-3.32,8.71,0,12.03l11.84,11.84h20.56c2.22,0,4.23.86,5.75,2.25h0Z" fill="url(#color-3)"/>
    <path class="color-2" d="m123.06,136.12c0-.28-.01-.55-.04-.83-.01-.17-.05-.34-.07-.51-.01-.1-.02-.19-.04-.28-.05-.25-.11-.5-.18-.75v-.02c-.39-1.32-1.1-2.55-2.14-3.59l-.27-.27c-1.52-1.39-3.53-2.25-5.75-2.25h-20.56l14.55,14.55c1.52,1.52,3.46,2.33,5.44,2.46h.57c4.7,0,8.51-3.81,8.51-8.51h0Z" fill="url(#color-2)"/>
    <path class="color-1" d="m71.29,94.96h9.12v-9.61h-9.12c-4.36,0-7.89-3.54-7.89-7.89v25.39c0-4.36,3.54-7.89,7.89-7.89h0Z" fill="url(#color-1)"/>
    <path class="color-1" d="m71.29,68.33h9.12v-9.61h-9.12c-4.36,0-7.89-3.54-7.89-7.89v25.39c0-4.36,3.54-7.89,7.89-7.89h0Z" fill="url(#color-1)"/>
    <path class="color-3" d="m71.29,41.7h2.37c-.37-.05-.75-.09-1.14-.09h-1.24c-4.36,0-7.89,3.54-7.89,7.89v.09c0-4.36,3.54-7.89,7.89-7.89Z" fill="url(#color-3)"/>
    <path class="color-1" d="m112.89,49.88c0-.57-.07-1.13-.18-1.67.08.45.13.92.13,1.39v1.24c0,4.36-3.54,7.89-7.89,7.89h-9.08v9.61h9.08c4.36,0,7.89,3.54,7.89,7.89v1.24c0,4.36-3.54,7.89-7.89,7.89h-9.08v9.61h9.08c4.36,0,7.89,3.54,7.89,7.89v1.24c0,.44-.04.88-.12,1.3.11-.53.17-1.07.17-1.62v-53.9h0Z" fill="url(#color-1)"/>
    <path class="color-4" d="m80.42,49.51v9.22h15.47v-8.85c0-4.36,3.54-7.89,7.89-7.89h1.23c3.79,0,6.95,2.66,7.71,6.22-.66-3.69-3.88-6.5-7.76-6.5h-31.29c3.82.55,6.75,3.83,6.75,7.8h0Z" fill="url(#color-4)"/>
    <path class="color-2" d="m71.29,58.72h9.12v-9.22c0-3.97-2.94-7.24-6.75-7.8h-2.37c-4.36,0-7.89,3.54-7.89,7.89v1.24c0,4.36,3.54,7.89,7.89,7.89h0Z" fill="url(#color-2)"/>
    <path class="color-2" d="m105,41.99h-1.23c-4.36,0-7.89,3.54-7.89,7.89v8.85h9.08c4.36,0,7.89-3.54,7.89-7.89v-1.24c0-.47-.05-.94-.13-1.39-.77-3.56-3.93-6.22-7.71-6.22Z" fill="url(#color-2)"/>
    <path class="color-4" d="m95.88,68.33h-15.47v17.01h15.47v-17.01Z" fill="url(#color-4)"/>
    <path class="color-2" d="m71.29,85.34h9.12v-17.01h-9.12c-4.36,0-7.89,3.54-7.89,7.89v1.24c0,4.36,3.54,7.89,7.89,7.89h0Z" fill="url(#color-2)"/>
    <path class="color-2" d="m104.96,85.34c4.36,0,7.89-3.54,7.89-7.89v-1.24c0-4.36-3.54-7.89-7.89-7.89h-9.08v17.01h9.08Z" fill="url(#color-2)"/>
    <path class="color-4" d="m105,111.66h-1.23c-4.36,0-7.89-3.54-7.89-7.89v-8.81h-15.47v8.53c0,4.36-3.53,7.89-7.89,7.89h-1.24c-4.36,0-7.89-3.54-7.89-7.89v.59c0,4.36,3.54,7.89,7.89,7.89h33.66c3.91,0,7.15-2.85,7.77-6.58-.75,3.58-3.92,6.27-7.72,6.27h0Z" fill="url(#color-4)"/>
    <path class="color-2" d="m71.29,111.38h1.24c4.36,0,7.89-3.53,7.89-7.89v-8.53h-9.12c-4.36,0-7.89,3.54-7.89,7.89v.64c0,4.36,3.54,7.89,7.89,7.89h0Z" fill="url(#color-2)"/>
    <path class="color-2" d="m112.84,102.85c0-4.36-3.54-7.89-7.89-7.89h-9.08v8.81c0,4.36,3.54,7.89,7.89,7.89h1.23c3.8,0,6.98-2.69,7.72-6.27.07-.42.12-.86.12-1.3v-1.24Z" fill="url(#color-2)"/>
    <path class="color-2" d="m84.51,300.89c6.54,0,11.83-5.3,11.83-11.83s-5.3-11.83-11.83-11.83-11.83,5.3-11.83,11.83,5.3,11.83,11.83,11.83Z" fill="url(#color-2)"/>
    <path class="color-3" d="m58.65,232.43c.88-.27,1.77-.41,2.64-.41h-.3c-4.2,0-7.68,3.05-8.37,7.05.64-3.03,2.85-5.64,6.03-6.64Z" fill="url(#color-3)"/>
    <path class="color-3" d="m115.86,240.62v-.09c0-4.7-3.81-8.51-8.51-8.51h-.28c.85,0,1.72.14,2.58.41,3.7,1.16,6.09,4.52,6.21,8.19Z" fill="url(#color-3)"/>
    <path class="color-3" d="m106.95,232.02h-45.66c3.79,0,7.3,2.44,8.5,6.23.13.43,1.41,4.61,1.98,10.78h24.78c.58-6.18,1.86-10.37,1.99-10.8,1.18-3.78,4.66-6.2,8.42-6.21h0Z" fill="url(#color-3)"/>
    <path class="color-3" d="m52.48,240.53c0-.5.05-.98.13-1.46-.3,1.43-.26,2.97.21,4.47.06.18,5.49,18.65-4.89,32.05-3,3.88-2.29,9.45,1.58,12.45,1.62,1.25,3.53,1.86,5.43,1.86,2.65,0,5.27-1.18,7.03-3.44,9.91-12.8,10.72-27.62,9.79-37.42h-10.78c-4.7,0-8.51-3.81-8.51-8.51h0Z" fill="url(#color-3)"/>
    <path class="color-2" d="m61.28,232.02c-.87,0-1.76.13-2.64.41-3.17,1-5.39,3.6-6.03,6.64-.08.47-.13.96-.13,1.46,0,4.7,3.81,8.51,8.51,8.51h10.78c-.58-6.16-1.85-10.35-1.98-10.78-1.19-3.8-4.71-6.24-8.5-6.23Z" fill="url(#color-2)"/>
    <path class="color-4" d="m120.36,275.57c-10.33-13.34-5-31.69-4.9-32.05.3-.97.41-1.95.38-2.91-.04,4.66-3.83,8.42-8.5,8.42h-10.82c-.92,9.81-.11,24.62,9.79,37.4,1.75,2.26,4.37,3.44,7.03,3.44,1.9,0,3.81-.61,5.43-1.86,3.88-3,4.58-8.58,1.58-12.45Z" fill="url(#color-4)"/>
    <path class="color-2" d="m115.86,240.62c-.12-3.67-2.51-7.03-6.21-8.19-.86-.27-1.72-.4-2.58-.41h-.13c-3.76.02-7.23,2.44-8.42,6.21-.13.43-1.4,4.62-1.99,10.8h10.82c4.67,0,8.45-3.76,8.5-8.42h0Z" fill="url(#color-2)"/>
    <path class="color-4" d="m144.3,96.8c8.93-6.1,16.52-16.33,16.52-32.48,0-14.88-6.82-26.69-19.2-33.25-6.18-3.27-12.24-4.46-15.63-4.9-2.71,3.06-6.58,6.68-11.8,9.95.61,4.13,4.07,7.37,8.39,7.54.06,0,5.78.34,11.15,3.32,6.28,3.49,9.33,9.16,9.33,17.33s-3.17,14.34-9.67,18.34c-5.47,3.37-11.26,4.04-11.27,4.04-4.25.41-7.62,3.79-8,8.05-.38,4.26,2.32,8.17,6.43,9.32.89.26,21.91,6.53,21.91,23.78,0,10.2-4.36,18.02-13.32,23.93-7.35,4.84-15.03,6.38-15.07,6.38-4.81.89-8,5.53-7.1,10.35.8,4.27,4.53,7.25,8.71,7.25.54,0,1.09-.05,1.63-.16,1.09-.2,10.9-2.17,20.98-8.62,14.33-9.19,21.91-22.71,21.91-39.14,0-12.21-5.5-22.91-15.92-31.06h.01Z" fill="url(#color-4)"/>
    <path class="color-3" d="m127.4,7.14c-4.33-2.29-9.7-.62-11.99,3.71-.09.17-9.16,16.8-35.85,16.8S42.44,11.08,42,10.38l.04.07s-6-8.37-14-3.08c0,0-6.07,4.73-1.26,12.14.27.44,3.13,5.13,9.12,10.38,2.31-2.06,5.62-2.85,8.75-1.78,5.17,1.75,6.47,6.51,7,11.75,7.42,3.23,16.64,5.53,27.9,5.53,15.25,0,26.54-4.22,34.62-9.27-.08-.55-.12-1.1-.1-1.67.19-4.9,4.33-8.71,9.25-8.52.28.01,1.23.06,2.66.24,3.34-3.77,4.94-6.7,5.12-7.05,2.29-4.33.62-9.7-3.71-11.99h0Z" fill="url(#color-3)"/>
    <path class="color-2" d="m44.66,28.12c-3.14-1.07-6.44-.27-8.75,1.78,3.88,3.41,9.09,7.06,15.76,9.96-.53-5.24-1.84-9.99-7-11.75h0Z" fill="url(#color-2)"/>
    <path class="color-2" d="m125.99,26.18c-1.42-.18-2.37-.23-2.66-.24-4.91-.18-9.05,3.62-9.25,8.52-.02.57.01,1.13.1,1.67,5.22-3.27,9.09-6.89,11.8-9.95Z" fill="url(#color-2)"/>
    <path class="color-3" d="m37.33,166.16c0-4.9,3.97-8.88,8.88-8.88h5.63c.21-10.83.41-22.52.56-34.18.33-24.9.4-44.81.21-59.2-.11-8.65-.33-15.41-.63-20.12-.08-1.31-.17-2.62-.3-3.91-6.67-2.91-11.87-6.55-15.76-9.96-1.11.99-1.99,2.26-2.51,3.77-.79,2.34-.55,4.78.47,6.82,1.97,12.18,1.01,94.42-.93,167.53v.58c.02.48,1.51,48.7-29.11,78.52-3.51,3.42-3.59,9.04-.16,12.55,1.74,1.79,4.05,2.68,6.36,2.68s4.47-.84,6.19-2.51c35.2-34.27,34.61-86.58,34.47-91.61.05-2,.39-15.11.78-33.21h-5.27c-4.9,0-8.88-3.97-8.88-8.88h0Zm1.54-121.23h0,0Zm-.02,0h0,0Zm-.01,0h0,0Zm-.01,0h-.01.01Zm-.06-.02s-.02,0-.04-.01c.01,0,.02,0,.04.01Zm-.04-.01h-.02.02Zm-.02,0h0,0Zm-.01,0h0,0Z" fill="url(#color-3)"/>
    <path class="color-3" d="m182.51,288.3c-1.15-8.56-10.6-7.82-10.6-7.82h.09s-4.39.78-8.94-.72c-5.49-1.81-9.02-6.27-10.78-13.62-4-16.64-10.93-28.42-16.08-35.41,6.08-6.24,13.27-17.11,13.27-33.67,0-12.46-5.96-23.31-17.23-31.35-7.78-5.55-15.39-7.83-16.23-8.07-.79-.23-1.61-.34-2.44-.34h-61.74c-.12,6.26-.24,12.24-.36,17.75h60.69c4.27,1.5,19.56,7.88,19.56,22.01,0,16.97-11.47,24.21-12.43,24.79-2.54,1.35-4.21,3.76-4.58,6.62-.38,2.87.73,5.67,2.86,7.63.12.11,11.99,11.52,17.45,34.19,3.29,13.67,11.63,23.13,23.49,26.64,3.93,1.17,7.65,1.5,10.61,1.5,3.53,0,5.98-.47,6.43-.57,8.19-2.28,6.97-9.56,6.97-9.56Z" fill="url(#color-3)"/>
    <path class="color-2" d="m46.2,157.28c-4.9,0-8.88,3.97-8.88,8.88s3.97,8.88,8.88,8.88h5.27c.12-5.51.24-11.49.36-17.75h-5.63Z" fill="url(#color-2)"/>
    <path fill="#ffffff" class="color-5" d="m72.02,21.72h4.17c1.81,0,3.27-1.46,3.27-3.27s-1.46-3.27-3.27-3.27h-4.17c-1.81,0-3.27,1.46-3.27,3.27s1.46,3.27,3.27,3.27Z"/>
    <path fill="#ffffff" class="color-5" d="m46.38,21.72h17.1c1.81,0,3.27-1.46,3.27-3.27s-1.46-3.27-3.27-3.27h-17.1c-1.81,0-3.27,1.46-3.27,3.27s1.46,3.27,3.27,3.27Z"/>
    <path fill="#ffffff" class="color-5" d="m35.86,214.25h20.41c1.94,0,3.51,1.58,3.51,3.51s-1.58,3.51-3.51,3.51h-.3s-1.12.13-1.12,1.07c0,.27.1.46.22.6h12.4c1.94,0,3.51,1.58,3.51,3.51s-1.58,3.51-3.51,3.51h-20.41c-1.94,0-3.51-1.58-3.51-3.51s1.58-3.51,3.51-3.51h2.99c.1-.14.17-.33.17-.58,0-1.07-1.2-1.09-1.2-1.09h-13.17c-1.94,0-3.51-1.58-3.51-3.51s1.58-3.51,3.51-3.51Z"/>
    <path fill="#ffffff" class="color-5" d="m151.22,109.82h-7.13c-1.81,0-3.27,1.46-3.27,3.27v.49c0,1.81,1.46,3.27,3.27,3.27h7.13c1.81,0,3.27-1.46,3.27-3.27v-.49c0-1.81-1.46-3.27-3.27-3.27Z"/>
    <path fill="#ffffff" class="color-5" d="m144.92,100.89h-20.41c-1.94,0-3.51,1.58-3.51,3.51s1.58,3.51,3.51,3.51h.3s1.12.13,1.12,1.07c0,.27-.1.46-.22.6h-12.4c-1.94,0-3.51,1.58-3.51,3.51s1.58,3.51,3.51,3.51h20.41c1.94,0,3.51-1.58,3.51-3.51s-1.58-3.51-3.51-3.51h-2.99c-.1-.14-.17-.33-.17-.58,0-1.07,1.2-1.09,1.2-1.09h13.16c1.94,0,3.51-1.58,3.51-3.51s-1.58-3.51-3.51-3.51Z"/>
</svg>