<?xml version="1.0" encoding="UTF-8"?>
<svg id="mid01" xmlns="http://www.w3.org/2000/svg" viewBox="0 0 185 308">
  <defs>
    <style>
      <!-- .color-4 {
        fill: #ffcf08;
      }
      .cls-2, .cls-3 {
        fill: #ff6836;
      }
      .cls-4, .cls-5 {
        fill: #2aaeb3;
      }
      .cls-6 {
        fill: #4f4085;
      }
      .stroke-width stroke-linecap stroke-color-4 {
        stroke-linecap: round;
        stroke-linejoin: round;
      }
      .stroke-width stroke-linecap stroke-color-4, .cls-8 {
        fill: none;
        stroke: #ffcf08;
        stroke-width: .5px;
      }
      .cls-5, .cls-3 {
        fill-rule: evenodd;
      }
      .cls-8 {
        stroke-miterlimit: 10;
      } -->
      .stroke-width {
        stroke-width: .5px;
      }

      .stroke-linecap{
        stroke-linecap: round;
      }

      .stroke-color-1 {
        stroke: #ff6836;
      }

      .stroke-color-2 {
        stroke: #2aaeb3;
      }

      .stroke-color-3 {
        stroke: #404272;
      }

      .stroke-color-4 {
        stroke: #ffcf08;
      }
    </style>
    <linearGradient id="color-1" gradientTransform="rotate(90)">
      <stop offset="0%" stop-color="#ff6836" />
      <stop offset="100%" stop-color="#ff6836" />
      <stop offset="100%" stop-color="white" />
    </linearGradient>
    <linearGradient id="color-2" gradientTransform="rotate(90)">
      <stop offset="0%" stop-color="#2aaeb3" />
      <stop offset="100%" stop-color="#2aaeb3" />
      <stop offset="100%" stop-color="white" />
    </linearGradient>
    <linearGradient id="color-3" gradientTransform="rotate(90)">
      <stop offset="0%" stop-color="#404272" />
      <stop offset="100%" stop-color="#404272" />
      <stop offset="100%" stop-color="white" />
    </linearGradient>
    <linearGradient id="color-4" gradientTransform="rotate(90)">
      <stop offset="0%" stop-color="#ffcf08" />
      <stop offset="100%" stop-color="#ffcf08" />
      <stop offset="100%" stop-color="white" />
    </linearGradient>
  </defs>
  <path class="stroke-width stroke-linecap stroke-color-4" d="m152.24,42.6s.25-6.95,2.65-5.07c.59.47.89,2.02.41,2.66-.59.79-4.07.98-6.62.98-4.52,0-3.05-4.76-14.87-4.76,0,0-8.99-.75-9.41,6.08" fill="none"/>
  <path class="stroke-width stroke-linecap stroke-color-4" d="m55.58,78.8s2.6-11.17-7.89-11.17c0,0-4,.36-3.19,3.73,1.51,6.29,15.97,3.47,17.02-21.32" fill="none"/>
  <path class="stroke-width stroke-linecap stroke-color-4" d="m131.22,78.31s-3.31-10.67,7.18-10.67c0,0,4,.36,3.19,3.73-1.51,6.29-15.97,3.47-17.02-21.32" fill="none"/>
  <path class="stroke-width stroke-linecap stroke-color-4" d="m90.15,94.18s-1.3,5.38,2.7,5.38h8.61s3.87.79,3.87,3.88c0,0,.82,3.04-4.25,3.04h-16.7s-4.37.02-4.37,4.35,5.09,3.99,5.09,3.99c0,0,6.43-.09,6.43,5.08,0,0,.82,5.67-7.91,5.67h-20.34c-2.49,0-4.97-.63-7.09-1.95-2.27-1.41-4.55-3.68-4.55-7.11,0-6.81,6.99-10.03,6.99-10.03,0,0,8.06-2.13,8.06-7.94s8.13-4.35,8.13-4.35c0,0,4.69-.16,4.1,4.74" fill="none"/>
  <path class="stroke-width stroke-linecap stroke-color-4" d="m104.13,276.31c-1.89-.11-2.47.06-3.02.43-.62.45-1.26,1.45-1.26,2.39v11.68s-.22,2.82,1.83,2.82,6.1,1.87,6.1,5.75-2.81,5.16-2.81,5.16" fill="none"/>
  <path class="stroke-width stroke-linecap stroke-color-4" d="m116.57,203.31c1.88-.11,2.47.06,3.02.43.62.45,1.26,1.45,1.26,2.39v11.68s.22,2.82-1.83,2.82-8.82,3-6.1,5.75c3.65,3.66-.02,4.97-.02,4.97" fill="none"/>
  <path class="stroke-width stroke-linecap stroke-color-4" d="m78.57,195.64h29.71" fill="none"/>
  <path class="stroke-width stroke-linecap stroke-color-4" d="m78.57,209.21h29.71" fill="none"/>
  <path class="stroke-width stroke-linecap stroke-color-4" d="m86.58,256.24c0-9.65-18.64-8.8-18.64-8.8h-5.62c-4.73,0-4.53-5.81-4.53-5.81,0-4.01,4.52-4.84,4.52-4.84h11.96" fill="none"/>
  <path class="stroke-width stroke-linecap stroke-color-4" d="m98.27,233.63s3.09,6.56,3.51-1.77c.24-4.83-3.56-8.57,1.08-12.64l2.32-2.07s.88-.92,2.27-.72" fill="none"/>
  <path class="stroke-width stroke-linecap stroke-color-4" d="m78.61,240.19h29.71" fill="none"/>
  <path class="stroke-width stroke-linecap stroke-color-4" d="m78.61,249.07h29.71" fill="none"/>
  <path class="stroke-width stroke-linecap stroke-color-4" d="m125.17,178.46s.18-9.23-4.08-9.08c0,0-3.7.34-3.7,4.54v11.24s-1.05,3.02-3.55,1.06" fill="none"/>
  <path class="stroke-width stroke-linecap stroke-color-4" d="m28.79,273.82s13.28-56.13,9.82-60.96c-3.17-4.43-7.33-4.13-7.33-4.13-8.25,0-7.68,9.06-7.68,9.06,0,9.28,8.42,8.44,8.42,8.44,8.89,0,8.34-8.37,8.34-8.37,0,0-.94-7.3-.29-14.61l-.1,1.26s1.85-19.22-1.62-24.06c-3.17-4.43-7.33-4.13-7.33-4.13-8.24,0-7.66,9.08-7.66,9.08,0,9.28,8.42,8.44,8.42,8.44,8.89,0,8.34-8.37,8.34-8.37,0,0-.94-7.3-.29-14.61l-.13,1.93s1.85-19.23-1.62-24.06c-3.16-4.43-7.33-4.13-7.33-4.13-8.24,0-7.66,9.06-7.66,9.06,0,9.27,8.42,8.44,8.42,8.44,8.89,0,8.34-8.37,8.34-8.37v-35.72c0-7.34,3.48-8.02,3.48-8.02,0,0,2.51-1.06,2.76,3.73" fill="none"/>
  <path class="stroke-width stroke-linecap stroke-color-4" d="m156.19,273.82s-13.28-56.13-9.82-60.96c3.17-4.43,7.33-4.13,7.33-4.13,8.25,0,7.68,9.06,7.68,9.06,0,9.28-8.42,8.44-8.42,8.44-8.89,0-8.34-8.37-8.34-8.37,0,0,.95-7.3.29-14.61l.1,1.26s-1.85-19.22,1.62-24.06c3.17-4.43,7.33-4.13,7.33-4.13,8.25,0,7.68,9.06,7.68,9.06,0,9.28-8.42,8.44-8.42,8.44-8.89,0-8.34-8.37-8.34-8.37,0,0,.94-7.3.29-14.61l.12,1.93s-1.85-19.23,1.62-24.06c3.16-4.43,7.33-4.13,7.33-4.13,8.25,0,7.68,9.06,7.68,9.06,0,9.27-8.42,8.44-8.42,8.44-8.89,0-8.34-8.37-8.34-8.37v-35.71c0-7.34-3.47-8.02-3.47-8.02,0,0-2.51-1.06-2.76,3.73" fill="none"/>
  <path class="stroke-width stroke-linecap stroke-color-4" d="m71.7,186.7c-2.44-1.03-3.38-3.58.85-3.58s4.27-4.27,4.27-4.27v-16.44c0-2.09,2.52-2.53,2.52-2.53h1.75" fill="none"/>
  <path class="stroke-width stroke-linecap stroke-color-4" d="m68.37,203.49c-1.88-.11-2.47.06-3.02.43-.63.45-1.26,1.45-1.26,2.39v11.68s-.22,2.82,1.83,2.82,8.02,2.38,6.1,5.75c-2.74,4.78.18,4.78.18,4.78" fill="none"/>
  <path class="stroke-width stroke-linecap stroke-color-4" d="m45.94,202.06v-8.89c0-1.91,2.52-2.31,2.52-2.31h1.75" fill="none"/>
  <path class="color-2" d="m90.52,37.12c3.42,0,6.21-2.79,6.21-6.22v-7.92c-.07.46-.74,1.7-6.21,1.7-3.42,0-6.21,2.79-6.21,6.22s2.77,6.22,6.21,6.22Z" fill="url(#color-2)"/>
  <path class="color-2" d="m128.7,186.21c-2.08,0-3.76-1.68-3.76-3.77v-4.8c.04.27.46,1.03,3.76,1.03,2.08,0,3.76,1.68,3.76,3.77s-1.68,3.77-3.76,3.77Z" fill="url(#color-2)"/>
  <path class="color-2" d="m82.46,257.13c-2.24,0-2.04,2.04-2.04,2.04h.07v10.03c0,7.26-6.46,10.2-8.79,11.03-.48.18-1.3.38-1.8.38h-2.94c1.32,0,1.65,1.18,1.74,1.85.1.75.32,1.48.73,2.11.52.79,1.39,1.54,2.77,1.33,2.76-.41,5.25-1.8,5.25-1.8,9.06-5.03,9.38-14.19,9.4-14.86h.01v-10.06h-.07v-4.18c0,1.92-2.09,2.13-4.33,2.13h0Z" fill="url(#color-2)"/>
  <path class="color-3" d="m126.29,77.1c0,5.36-6.79,5.61-6.79,5.61-7.48,0-8.42-6.64-8.42-6.64h0v-24.94c0,1.92-2.09,2.13-4.33,2.13s-2.04,2.04-2.04,2.04v20.77c0,8.15,5.92,11.53,11.43,12.53,6.83,1.23,10.39-1.89,10.39-1.89l-.25-9.61Z" fill="url(#color-3)"/>
  <path class="color-3" d="m139.23,196.27s-2.3,6.42-6.4,6.42-16.26,0-16.26,7.64v4.92s.98-2.04,2.23-3.21c0,0,4.5-5.12,11.64-4.65,0,0,8.78.68,8.78-3.55v-7.57h0Z" fill="url(#color-3)"/>
  <path class="color-1" d="m96.17,92.25v-36.88h-.04v-4.13c0,1.92-2.09,2.13-4.33,2.13s-2.04,2.04-2.04,2.04h.04v41.01c0-1.92,2.09-2.13,4.33-2.13s2.04-2.04,2.04-2.04Z" fill="url(#color-1)"/>
  <path class="color-1" d="m45.72,184.52s2.3,6.42,6.4,6.42,16.26,0,16.26,7.64v4.92s-.98-2.04-2.23-3.21c0,0-4.5-5.12-11.64-4.65,0,0-8.79.68-8.79-3.55v-7.57h0Z" fill="url(#color-1)"/>
  <path class="color-1" d="m100.7,255.06v15.06c.26,1.22,1.77,6.39,8.37,6.39,0,0,6.79-.25,6.79-5.61l.25,9.61s-3.57,3.12-10.39,1.89c-5.51-.99-11.43-4.38-11.43-12.53h.04v-14.87c-.01-.35.05-1.98,2.04-1.98,2.24,0,4.33-.21,4.33-2.13v4.18Z" fill="url(#color-1)"/>
  <path class="color-1" d="m92.21,145.14c-6.45,0-11.68,5.24-11.68,11.71h-.02c0,.8-1.65,1.43-1.65,1.43h7.66c1.58,0,1.69-1.43,1.69-1.43h0c0-2.21,1.79-3.99,3.98-3.99s3.98,1.79,3.98,3.99-1.79,3.99-3.98,3.99c-.82,0-1.58-.25-2.21-.67,0,0-.31-.73-1.35-.73h-8.48s.84.12.84.73c1.43,4.85,5.9,8.38,11.2,8.38h0c6.45,0,11.68-5.24,11.68-11.71s-5.23-11.71-11.68-11.71h0Z" fill="url(#color-1)"/>
  <path class="color-4" d="m122.12,43.37h-58.56c-2.55,0-2.5-3.75-2.5-3.75v14.24c0-4.06,2.51-4.15,2.51-4.15h58.54c2.59,0,2.7,4.15,2.7,4.15v-14.36c0,3.61-2.49,3.81-2.69,3.87Z" fill="url(#color-4)"/>
  <path class="color-4" d="m72.89,111.31c3.42,0,6.21-2.79,6.21-6.22v-7.92c-.07.46-.75,1.7-6.21,1.7-3.42,0-6.21,2.79-6.21,6.22s2.77,6.22,6.21,6.22Z" fill="url(#color-4)"/>
  <path class="color-4" d="m56.02,80.17s0,9.67-9.4,14.9c0,0-2.49,1.39-5.25,1.8-1.38.2-2.26-.53-2.77-1.33-.41-.62-.62-1.35-.73-2.11-.09-.68-.43-1.85-1.74-1.85h2.94c.5,0,1.32-.2,1.8-.38,2.33-.84,8.79-3.77,8.79-11.03" fill="url(#color-4)"/>
  <path class="color-4" d="m130.92,80.17s0,9.67,9.4,14.9c0,0,2.49,1.39,5.25,1.8,1.39.2,2.26-.53,2.78-1.33.41-.62.62-1.35.73-2.11.09-.68.43-1.85,1.74-1.85h-2.94c-.5,0-1.32-.2-1.8-.38-2.33-.84-8.79-3.77-8.79-11.03" fill="url(#color-4)"/>
  <path class="color-4" d="m74.82,73.1c0,7.26-6.46,10.2-8.79,11.03-.48.18-1.3.38-1.8.38h-2.94c1.32,0,1.65,1.18,1.74,1.85.1.75.32,1.48.73,2.11.52.79,1.39,1.54,2.77,1.33,2.76-.41,5.25-1.8,5.25-1.8,9.41-5.22,9.4-14.9,9.4-14.9h0v-17.14h-.03v-4.18c0,1.92-2.09,2.13-4.33,2.13s-2.04,2.04-2.04,2.04h.03v17.14h.01Z" fill="url(#color-4)"/>
  <path class="color-4" d="m137.29,80.17s.2-1.83-2.04-1.83-4.33-.2-4.33-1.9v3.73h6.37Z" fill="url(#color-4)"/>
  <path class="color-4" d="m49.65,80.17s-.2-2.04,2.04-2.04,4.33-.21,4.33-2.13v4.18h-6.37Z" fill="url(#color-4)"/>
  <path class="color-4" d="m89.28,7.39c-16.56,23.31-52.7,35.11-52.7,35.11h-3.72c1.7,0,1.9,2.09,1.9,4.33s1.83,2.04,1.83,2.04C90.26,28.54,95.66,7.39,95.66,7.39h-6.37Z" fill="url(#color-4)"/>
  <path class="color-4" d="m148.77,42.5s-36.54-11.8-53.11-35.11V3.21c0,1.92-2.09,2.13-4.33,2.13s-2.04,2.04-2.04,2.04c.13.65,5.8,21.26,59.48,41.6,0,0,1.83.2,1.83-2.04s.19-4.34,1.9-4.34l-3.72-.1h0Z" fill="url(#color-4)"/>
  <path class="color-4" d="m136.85,114.99H48.48c-2.45-.1-2.4-3.74-2.4-3.74v14.24c0-4.06,2.51-4.15,2.51-4.15h88.27c2.59,0,2.7,4.14,2.7,4.14v-4.15h0v-10.8c0,3.76-2.7,4.46-2.7,4.46h0Z" fill="url(#color-4)"/>
  <path class="stroke-width stroke-linecap stroke-color-4" d="m138.99,201.88v-8.89c0-1.91-2.52-2.31-2.52-2.31h-1.75" fill="none"/>
  <path class="color-4" d="m56.24,205.95c2.08,0,3.76-1.68,3.76-3.77v-4.8c-.04.27-.46,1.03-3.76,1.03-2.08,0-3.76,1.68-3.76,3.77s1.68,3.77,3.76,3.77Z" fill="url(#color-4)"/>
  <path class="color-4" d="m45.72,201.09s2.3,6.42,6.4,6.42,16.26,0,16.26,7.64v4.92s-.98-2.04-2.23-3.21c0,0-4.5-5.12-11.64-4.65,0,0-8.79.68-8.79-3.55v-7.57h0Z" fill="url(#color-4)"/>
  <path class="color-4" d="m139.23,184.33s-2.3,6.42-6.4,6.42-16.26,0-16.26,7.64v4.92s.98-2.04,2.23-3.21c0,0,4.5-5.12,11.64-4.65,0,0,8.78.68,8.78-3.55v-7.57h0Z" fill="url(#color-4)"/>
  <path class="color-4" d="m72.44,186.01h-1.5s1.5,1.13,1.5,3.48v26.07c0,2.36-1.5,3.48-1.5,3.48h1.5c6.03,0,6.32-3.48,6.32-3.48v-26.07s-.29-3.48-6.32-3.48Z" fill="url(#color-4)"/>
  <path class="color-4" d="m112.57,186.01h1.5s-1.5,1.13-1.5,3.48v26.07c0,2.36,1.5,3.48,1.5,3.48h-1.5c-6.03,0-6.32-3.48-6.32-3.48v-26.07s.29-3.48,6.32-3.48Z" fill="url(#color-4)"/>
  <path class="color-4" d="m89.31,212.52h6.37v-19.99h-6.37v19.99Z" fill="url(#color-4)"/>
  <path class="color-4" d="m76.01,216s2.3,6.42,6.4,6.42,16.26,0,16.26,7.64v4.92s-.98-2.04-2.23-3.21c0,0-4.5-5.12-11.64-4.65,0,0-8.79.68-8.79-3.55v-7.57h0Z" fill="url(#color-4)"/>
  <path class="color-4" d="m72.47,230.55h-1.5s1.5,1.13,1.5,3.48v26.07c0,2.36-1.5,3.48-1.5,3.48h1.5c6.03,0,6.32-3.48,6.32-3.48v-26.07s-.29-3.48-6.32-3.48Z" fill="url(#color-4)"/>
  <path class="color-4" d="m112.59,230.55h1.5s-1.5,1.13-1.5,3.48v26.07c0,2.36,1.5,3.48,1.5,3.48h-1.5c-6.03,0-6.32-3.48-6.32-3.48v-26.07s.29-3.48,6.32-3.48Z" fill="url(#color-4)"/>
  <path class="color-4" d="m91.88,128.32h0c-15.45,0-28.02,12.59-28.02,28.1,0,.52.02,1.03.04,1.54l.03.6c-.02.62-1.64,1.09-1.64,1.09h7.59c1.56,0,1.67-1.11,1.67-1.11h-.02l-.05-.67c-.04-.48-.06-.97-.06-1.47,0-11.3,9.17-20.5,20.45-20.5s20.45,9.2,20.45,20.5-9.17,20.5-20.45,20.5c-9.53,0-17.93-6.78-19.97-16.11l-.11-.5h-7.68l.12.73c2.26,13.6,13.88,23.48,27.63,23.48,15.45,0,28.02-12.6,28.02-28.1s-12.57-28.1-28.02-28.1h.01Z" fill="url(#color-4)"/>
</svg>