<svg width="80" height="80" viewBox="0 0 80 80" fill="none" xmlns="http://www.w3.org/2000/svg">
<circle cx="40" cy="40" r="38.5" fill="white" stroke="#FFCF08" stroke-width="3"/>
<path fill-rule="evenodd" clip-rule="evenodd" d="M40.5798 37.1027C49.4425 29.3399 54.5295 20.6521 51.9419 17.6978L47.2566 12.3487L31.2093 26.4044L15.1619 40.4602L19.8471 45.8093C22.4347 48.7636 31.717 44.8655 40.5798 37.1027Z" fill="url(#paint0_linear_1_1623)"/>
<ellipse cx="31.2092" cy="26.4049" rx="21.3327" ry="7.11089" transform="rotate(-41.2148 31.2092 26.4049)" fill="url(#paint1_linear_1_1623)"/>
<ellipse cx="31.2092" cy="26.4028" rx="17.7772" ry="4.74059" transform="rotate(-41.2148 31.2092 26.4028)" fill="#D29F43"/>
<path fill-rule="evenodd" clip-rule="evenodd" d="M35.122 52.451C27.5683 43.4094 23.888 34.0386 26.9019 31.5207L32.359 26.9616L46.0362 43.3329L59.7134 59.7041L54.2563 64.2632C51.2424 66.7811 42.6757 61.4926 35.122 52.451Z" fill="url(#paint2_linear_1_1623)"/>
<ellipse cx="21.3327" cy="7.11089" rx="21.3327" ry="7.11089" transform="matrix(-0.641139 -0.767425 -0.767425 0.641139 65.1702 55.1456)" fill="url(#paint3_linear_1_1623)"/>
<ellipse cx="17.7772" cy="4.74059" rx="17.7772" ry="4.74059" transform="matrix(-0.641139 -0.767425 -0.767425 0.641139 61.072 53.9379)" fill="#D29F43"/>
<defs>
<linearGradient id="paint0_linear_1_1623" x1="16.3332" y1="41.7975" x2="47.6471" y2="12.7945" gradientUnits="userSpaceOnUse">
<stop stop-color="#F3AB2C"/>
<stop offset="1" stop-color="#C8870B"/>
</linearGradient>
<linearGradient id="paint1_linear_1_1623" x1="12.2468" y1="21.6643" x2="53.727" y2="28.1826" gradientUnits="userSpaceOnUse">
<stop stop-color="#F3AB2C"/>
<stop offset="1" stop-color="#FFE6BA"/>
</linearGradient>
<linearGradient id="paint2_linear_1_1623" x1="58.3491" y1="60.8439" x2="31.9042" y2="27.3416" gradientUnits="userSpaceOnUse">
<stop stop-color="#F3AB2C"/>
<stop offset="1" stop-color="#C8870B"/>
</linearGradient>
<linearGradient id="paint3_linear_1_1623" x1="2.3703" y1="2.3703" x2="43.8505" y2="8.88862" gradientUnits="userSpaceOnUse">
<stop stop-color="#F3AB2C"/>
<stop offset="1" stop-color="#FFE6BA"/>
</linearGradient>
</defs>
</svg>
