<svg width="80" height="80" viewBox="0 0 80 80" fill="none" xmlns="http://www.w3.org/2000/svg">
<path fill-rule="evenodd" clip-rule="evenodd" d="M40.1032 38.1027C48.9659 30.3399 54.0529 21.6521 51.4653 18.6978L46.7801 13.3487L30.7327 27.4044L14.6853 41.4602L19.3706 46.8093C21.9581 49.7636 31.2405 45.8655 40.1032 38.1027Z" fill="#858585"/>
<ellipse cx="30.7326" cy="27.4049" rx="21.3327" ry="7.11089" transform="rotate(-41.2148 30.7326 27.4049)" fill="#D2D2D2"/>
<ellipse cx="30.7327" cy="27.4028" rx="17.7772" ry="4.74059" transform="rotate(-41.2148 30.7327 27.4028)" fill="#929292"/>
<path fill-rule="evenodd" clip-rule="evenodd" d="M34.6455 53.451C27.0918 44.4094 23.4115 35.0386 26.4253 32.5207L31.8824 27.9616L45.5596 44.3329L59.2368 60.7041L53.7797 65.2632C50.7659 67.7811 42.1992 62.4926 34.6455 53.451Z" fill="#858585"/>
<ellipse cx="21.3327" cy="7.11089" rx="21.3327" ry="7.11089" transform="matrix(-0.641139 -0.767425 -0.767425 0.641139 64.6936 56.1456)" fill="#CECECE"/>
<ellipse cx="17.7772" cy="4.74059" rx="17.7772" ry="4.74059" transform="matrix(-0.641139 -0.767425 -0.767425 0.641139 60.5955 54.9379)" fill="#929292"/>
<circle cx="40" cy="40" r="39.5" fill="#B0B0B0" fill-opacity="0.19" stroke="#727272"/>
</svg>
