<svg width="48" height="48" viewBox="0 0 48 48" fill="none" xmlns="http://www.w3.org/2000/svg">
<circle cx="24" cy="24" r="23.5" fill="#242329" stroke="#717171"/>
<path d="M29.6476 18.3529C28.0159 16.7229 25.7036 15.7829 23.161 16.0429C19.4872 16.4129 16.4641 19.3929 16.0537 23.0629C15.5032 27.9129 19.257 32.0029 23.9918 32.0029C27.1851 32.0029 29.9279 30.1329 31.2092 27.4429C31.5295 26.7729 31.049 26.0029 30.3083 26.0029C29.9379 26.0029 29.5875 26.2029 29.4274 26.5329C28.2962 28.9629 25.5834 30.5029 22.6204 29.8429C20.3982 29.3529 18.6063 27.5429 18.1358 25.3229C17.295 21.4429 20.248 18.0029 23.9918 18.0029C25.6535 18.0029 27.135 18.6929 28.2161 19.7829L26.7046 21.2929C26.0739 21.9229 26.5144 23.0029 27.4053 23.0029H30.999C31.5495 23.0029 32 22.5529 32 22.0029V18.4129C32 17.5229 30.9189 17.0729 30.2883 17.7029L29.6476 18.3529Z" fill="#9D9D9D"/>
</svg>
