<svg width="80" height="80" viewBox="0 0 80 80" fill="none" xmlns="http://www.w3.org/2000/svg">
    <circle cx="40" cy="40" r="39.5" fill="#B0B0B0" fill-opacity="0.19" stroke="#727272"/>
    <path d="M32.6341 58C39.0469 58 44.2454 52.8296 44.2454 46.4515C44.2454 40.0735 39.0469 34.903 32.6341 34.903C26.2213 34.903 21.0227 40.0735 21.0227 46.4515C21.0227 52.8296 26.2213 58 32.6341 58Z" fill="url(#paint0_linear_32_19702)"/>
    <path d="M33.4115 26H22.3116C20.4826 26 19 27.4746 19 29.2936V29.302C19 31.121 20.4826 32.5956 22.3116 32.5956H33.4115C35.2404 32.5956 36.723 31.121 36.723 29.302V29.2936C36.723 27.4746 35.2404 26 33.4115 26Z" fill="#F2F2F2"/>
    <path d="M61.6969 26H42.4481C40.6204 26 39.1366 27.4759 39.1366 29.2936C39.1366 31.1114 40.6204 32.5873 42.4481 32.5873H42.7247C42.7247 32.5873 43.7727 32.7123 43.7727 33.5961C43.7727 33.8463 43.6889 34.0214 43.5631 34.1632H31.8679C30.0403 34.1632 28.5564 35.639 28.5564 37.4568C28.5564 39.2745 30.0403 40.7504 31.8679 40.7504H51.1168C52.9444 40.7504 54.4283 39.2745 54.4283 37.4568C54.4283 35.639 52.9444 34.1632 51.1168 34.1632H48.2999C48.2077 34.0298 48.1406 33.8547 48.1406 33.6212C48.1406 32.6123 49.2724 32.5873 49.2724 32.5873H61.6885C63.5162 32.5873 65.0001 31.1114 65.0001 29.2936C65.0001 27.4759 63.5162 26 61.6885 26H61.6969Z" fill="#F2F2F2"/>
    <defs>
        <linearGradient id="paint0_linear_32_19702" x1="32.6341" y1="34.903" x2="32.6341" y2="58" gradientUnits="userSpaceOnUse">
            <stop stop-color="#E2E2E2"/>
            <stop offset="1" stop-color="#6D6D6D"/>
        </linearGradient>
    </defs>
</svg>
