<svg width="80" height="80" viewBox="0 0 80 80" fill="none" xmlns="http://www.w3.org/2000/svg">
<circle cx="40" cy="40" r="39" fill="white" stroke="#DAFF8C" stroke-width="2"/>
<path d="M31.4816 59.0559C37.8227 59.0559 42.9631 53.8947 42.9631 47.528C42.9631 41.1613 37.8227 36 31.4816 36C25.1405 36 20 41.1613 20 47.528C20 53.8947 25.1405 59.0559 31.4816 59.0559Z" fill="url(#paint0_linear_32_19701)"/>
<path d="M34.2504 27H23.2745C21.4661 27 20 28.472 20 30.2878V30.2961C20 32.1119 21.4661 33.5839 23.2745 33.5839H34.2504C36.0588 33.5839 37.5249 32.1119 37.5249 30.2961V30.2878C37.5249 28.472 36.0588 27 34.2504 27Z" fill="#FFE6BA"/>
<path d="M62.2193 27H43.1856C41.3784 27 39.9111 28.4733 39.9111 30.2878C39.9111 32.1023 41.3784 33.5755 43.1856 33.5755H43.4592C43.4592 33.5755 44.4954 33.7003 44.4954 34.5826C44.4954 34.8323 44.4125 35.0072 44.2881 35.1487H32.7237C30.9165 35.1487 29.4492 36.6219 29.4492 38.4364C29.4492 40.2509 30.9165 41.7242 32.7237 41.7242H51.7574C53.5646 41.7242 55.0319 40.2509 55.0319 38.4364C55.0319 36.6219 53.5646 35.1487 51.7574 35.1487H48.972C48.8808 35.0155 48.8145 34.8407 48.8145 34.6076C48.8145 33.6005 49.9336 33.5755 49.9336 33.5755H62.211C64.0182 33.5755 65.4855 32.1023 65.4855 30.2878C65.4855 28.4733 64.0182 27 62.211 27H62.2193Z" fill="#FFE6BA"/>
<defs>
<linearGradient id="paint0_linear_32_19701" x1="31.4815" y1="36" x2="31.4815" y2="59.0559" gradientUnits="userSpaceOnUse">
<stop stop-color="#004AB9"/>
<stop offset="1" stop-color="#3988FF"/>
</linearGradient>
</defs>
</svg>
