<?xml version="1.0" encoding="UTF-8"?>
<svg id="top10" xmlns="http://www.w3.org/2000/svg" viewBox="0 0 179 137">
  <defs>
    <style>
      .stroke-width {
        stroke-width: .5px;
      }

      .stroke-linecap{
        stroke-linecap: round;
      }

      .stroke-color-1 {
        stroke: #ffcf08;
      }

      .stroke-color-2 {
        stroke: #fea39c;
      }

      .stroke-color-3 {
        stroke:#327eed;
      }

      .stroke-color-4 {
        stroke: #2032ac;
      }      
    </style>
    <linearGradient id="color-1" gradientTransform="rotate(90)">
      <stop offset="0%" stop-color="#ffcf08" />
      <stop offset="100%" stop-color="#ffcf08" />
      <stop offset="100%" stop-color="white" />
    </linearGradient>
    <linearGradient id="color-2" gradientTransform="rotate(90)">
      <stop offset="0%" stop-color="#fea39c" />
      <stop offset="100%" stop-color="#fea39c" />
      <stop offset="100%" stop-color="white" />
    </linearGradient>
    <linearGradient id="color-3" gradientTransform="rotate(90)">
      <stop offset="0%" stop-color="#327eed" />
      <stop offset="100%" stop-color="#327eed" />
      <stop offset="100%" stop-color="white" />
    </linearGradient>   
    <linearGradient id="color-4" gradientTransform="rotate(90)">
      <stop offset="0%" stop-color="#2032ac" />
      <stop offset="100%" stop-color="#2032ac" />
      <stop offset="100%" stop-color="white" />
    </linearGradient> 
  </defs>
  <path class="stroke-width stroke-linecap stroke-color-3" d="m79.49,60.36c-.63,5.06,3.77,4.85,3.77,4.85l2.08.02c3.15.04,2.77,2.94,2.77,2.94-.03,2.85-4.81,2.55-4.81,2.55l-23.91-.26s-4.15-.31-4.21,4.43c0,0,.3,4.74-4.17,4.69-4.47-.04-4.3,4.53-4.3,4.53,0,0-.27,4.53,4.16,4.58l25.38.28s5.12-.1,5.06,5.57c0,0,.34,5.05-4.75,5l-4.48-.04s-3.54-.01-3.57,2.62c0,0-.37,3.37,3.45,3.41,3.82.04,9.27.75,9.24,3.53,0,0,.13,2.31,2.37,2.34,2.23.02,50.61.55,50.61.55,0,0,3.95.04,6.2-1.14,3.62-1.91,3.22-6.31,3.22-6.31,0,0,.79-9.29-10.21-9.41-11-.12-37.44-.4-37.44-.4,0,0-2.92-.19-2.88-3.5,0,0-.41-1.66,3.03-1.62l11.51.13s2.5-.29,2.52-2.1c.02-1.81,1.91-2.18,1.91-2.18l13.01.19s5.21.47,5.25-3.59c.04-3.67-3.88-3.77-3.88-3.77l-21.34-.23-21.51-.23s-3.44,0-3.41-2.53c.02-2.52,3.35-2.38,3.35-2.38l20.19.22s2.41-.08,2.44-2.81c0,0-.32-2.22-3.53-2.26,0,0-8.39.39-8.35-3.08,0,0-.36-2.47,3.25-2.44l8.93.1s3.87-.17,3.35,7.78" fill="none"/>
  <path class="stroke-width stroke-linecap stroke-color-3" d="m80.18,107.79l-16.96-.19-4.95-.05c-26.58-.29-25.76-22.66-25.76-22.66" fill="none"/>
  <path class="stroke-width stroke-linecap stroke-color-3" d="m62.05,81.02l-.16,14.35s-.43,6.66-5.54,6.6c0,0-6.32.72-6.24-7.13,0,0-.01-3.35-3.86-3.39,0,0-4.2.15-4.15-4.67.05-4.82.58-53.96.58-53.96,0,0-.03-7.68-6.78-7.75-7.39-.08-6.57,9.08-6.57,9.08" fill="none"/>
  <path class="color-3" d="m87.17,44.31c-4.32-.04-7.85,3.41-7.9,7.72l-.1,9.94c.09-.57.96-2.12,7.84-2.05,4.32.04,7.85-3.41,7.9-7.73.04-4.32-3.41-7.85-7.73-7.9h0Z" fill="url(#color-3)"/>
  <path class="color-3" d="m146.01,101.92l-36.02-.39s-27.68.13-48.38,6.33l48.3.4,36.02.39c.05,0,2.11.2,2.14-2.14.02-2.37.27-4.56,2.25-4.54l-4.31-.04Z" fill="url(#color-3)"/>
  <path class="color-4" d="m54.58,67.93c4.32.04,7.78,3.59,7.72,7.9l-.1,9.94c-.07-.57-.92-2.14-7.79-2.21-4.32-.04-7.78-3.59-7.72-7.9.04-4.32,3.59-7.78,7.9-7.72h0Z" fill="url(#color-4)"/>
  <path class="color-2" d="m117.12,86.56c-4.32-.04-7.78-3.59-7.72-7.9l.1-9.94c.07.57.92,2.14,7.79,2.21,4.32.04,7.78,3.59,7.72,7.9-.04,4.32-3.59,7.78-7.9,7.72h0Z" fill="url(#color-2)"/>
  <path class="color-1" d="m35.4,86.15l.53-48.96s.22-2.11-2.13-2.14c-2.37-.02-4.56-.27-4.54-2.25l-.04,4.32-.53,48.96s-.92,17.44,22.04,20.71c-2.06-.38-13.1-3.23-15.31-20.63h0Z" fill="url(#color-1)"/>
</svg>