<?xml version="1.0" encoding="UTF-8"?>
<svg id="top12" xmlns="http://www.w3.org/2000/svg" viewBox="0 0 179 137">
  <defs>
    <style>
      .stroke-width {
        stroke-width: .5px;
      }

      .stroke-linecap{
        stroke-linecap: round;
      }

      .stroke-color-1 {
        stroke: #ffcf08;
      }

      .stroke-color-2 {
        stroke: #fea39c;
      }

      .stroke-color-3 {
        stroke:#327eed;
      }

      .stroke-color-4 {
        stroke: #2032ac;
      }      
    </style>
    <linearGradient id="color-1" gradientTransform="rotate(90)">
      <stop offset="0%" stop-color="#ffcf08" />
      <stop offset="100%" stop-color="#ffcf08" />
      <stop offset="100%" stop-color="white" />
    </linearGradient>
    <linearGradient id="color-2" gradientTransform="rotate(90)">
      <stop offset="0%" stop-color="#fea39c" />
      <stop offset="100%" stop-color="#fea39c" />
      <stop offset="100%" stop-color="white" />
    </linearGradient>
    <linearGradient id="color-3" gradientTransform="rotate(90)">
      <stop offset="0%" stop-color="#327eed" />
      <stop offset="100%" stop-color="#327eed" />
      <stop offset="100%" stop-color="white" />
    </linearGradient>   
    <linearGradient id="color-4" gradientTransform="rotate(90)">
      <stop offset="0%" stop-color="#2032ac" />
      <stop offset="100%" stop-color="#2032ac" />
      <stop offset="100%" stop-color="white" />
    </linearGradient> 
  </defs>
  <path class="color-1" d="m93.71,43.79h-37.76c2,0,.99,3.53.99,4.86s1.67,1.67,1.67,1.67h32.47s1.67-.33,1.67-1.67-1.02-4.86.99-4.86h0Z" fill="url(#color-1)"/>
  <path class="color-2" d="m98.88,54.3h-48.1c2,0,.99,3.53.99,4.86s1.67,1.67,1.67,1.67h42.8s1.67-.33,1.67-1.67-1.02-4.86.99-4.86Z" fill="url(#color-2)"/>
  <path class="color-3" d="m78.09,25.02c-75.23,0-46.71,58.54-28.05,58.54,39.78,0,28.05-49.82,28.05-49.82h0l-.65-2.61c0,2-2.86.94-4.2.99-1.82.07-1.67,1.63-1.67,1.63,7.61,44.64-12.6,47.67-19.32,49.08-1.51.31-4.15.51-5.21-.61-5.76-6.06-10.47-12.3-10.06-26.24.55-18.29,18.97-30.48,41.11-30.48,28.72,0,27.71,29.88,27.71,29.88,0,29.28-30.97,31.57-30.97,31.57,0,0,39.25-.21,39.25-30.98s-35.99-30.94-35.99-30.94h0Z" fill="url(#color-3)"/>
  <path class="color-3" d="m74.37,86.94s-15.77,1.13-15.77,13.06,18.92,11.94,18.92,11.94c0,0-12.1-1.82-12.1-12.5s8.95-12.5,8.95-12.5Z" fill="url(#color-3)"/>
  <path class="color-3" d="m77.52,111.94s19.03-1.76,18.23-11.8c0,0,.25-5.7-6.23-5.7,0,0,2.67,1.89,2.67,6.35s-2.94,8.67-14.67,11.15Z" fill="url(#color-3)"/>
  <path class="color-3" d="m88.29,94.63s-5.6-.2-5.98,6.17c-.31,5.37,8.4,11.61,17.97,6.4,0,0-6.67,1.4-10.55-1.05-3.82-2.41-7.65-6.54-1.43-11.53Z" fill="url(#color-3)"/>
  <path class="color-3" d="m102.33,106.66s16.37-.39,14.97-12.3c0,0-.5-5.67-6.97-5.67,0,0,4.07,1.11,4.25,5.57.14,3.41,1.14,6.82-12.25,12.4Z" fill="url(#color-3)"/>
  <path class="color-3" d="m139.72,56.35l-.07-2.63c0,2.06-3.56.92-4.93.92-1.99,0-1.71,1.71-1.71,1.71,2.16,26.16-11.01,41.68-13.21,42.72l-.31.13h-.04s0,.01.01.01c-1.72.94-7.87,2.64-10.58-.08-2.79-2.81-4.53-6.42-.11-9.95,0,0-3.93.67-4.72,5.02-1.23,6.68,7.96,11.37,15.31,5.4.19-.15.42-.11.61-.2,23.42-10.67,19.78-42.72,19.74-43.06h.01Z" fill="url(#color-3)"/>
  <path class="stroke-width stroke-linecap stroke-color-3" d="m92.39,82.04s-5.33,2.94-10.08,3.71c-4.76.77-9.81,1.31-11.21,2.2" fill="none"/>
  <path class="stroke-width stroke-linecap stroke-color-3" d="m73.91,111.48s5.71,1.14,11.12-1.37" fill="none"/>
  <path class="stroke-width stroke-linecap stroke-color-3" d="m85.47,95.74s4.33-2.47,7.22-.16" fill="none"/>
  <path class="stroke-width stroke-linecap stroke-color-3" d="m112.07,102.01s-8.87,6.33-18.23,5.79" fill="none"/>
  <path class="stroke-width stroke-linecap stroke-color-3" d="m104.86,92.66s4.44-7.42,10.31-1.95" fill="none"/>
  <path class="stroke-width stroke-linecap stroke-color-3" d="m139.5,54.72s-.31-8.68,3.77-8.68c8.44,0,12.68,14.77-11.71,14.77,0,0-6.36.12-6.36-6.36,0-7.88-6.59-4.69-6.59-9.76,0-4.33-8.14-4.28-8.14-4.28,0,0-8.75-.88-8.75,8.41v17.53s-.23,3.19-3.06,3.19c0,0-2.92,0-2.92-3.08v-20.36s.34-2.32-3.2-2.06" fill="none"/>
</svg>