<?xml version="1.0" encoding="UTF-8"?>
<svg id="bot12" xmlns="http://www.w3.org/2000/svg" viewBox="0 0 179 137">
  <defs>
    <style>
      .stroke-width {
        stroke-width: 1.3px;
      }

      .stroke-color-1 {
        stroke: #fa4013;
      }

      .stroke-color-2 {
        stroke: #9cd323;
      }

      .stroke-color-3 {
        stroke:#404272;
      }

      .stroke-color-4 {
        stroke: #ffffff;
      }      
    </style>
    <linearGradient id="color-1" gradientTransform="rotate(90)">
      <stop offset="0%" stop-color="#fa4013" />
      <stop offset="100%" stop-color="#fa4013" />
      <stop offset="100%" stop-color="white" />
    </linearGradient>
    <linearGradient id="color-2" gradientTransform="rotate(90)">
      <stop offset="0%" stop-color="#9cd323" />
      <stop offset="100%" stop-color="#9cd323" />
      <stop offset="100%" stop-color="white" />
    </linearGradient>
    <linearGradient id="color-3" gradientTransform="rotate(90)">
      <stop offset="0%" stop-color="#404272" />
      <stop offset="100%" stop-color="#404272" />
      <stop offset="100%" stop-color="white" />
    </linearGradient>   
    <linearGradient id="color-4" gradientTransform="rotate(90)">
      <stop offset="0%" stop-color="#ffffff" />
      <stop offset="100%" stop-color="#ffffff" />
      <stop offset="100%" stop-color="white" />
    </linearGradient>  
  </defs>
  <path class="color-4" d="m29.17,110.2v7.72h90.23v-7.72H29.17Z" fill="url(#color-4)"/>
  <path stroke-linejoin="round" stroke-linecap="round" class="stroke-width stroke-color-1" d="m151.22,55.18h-14.73" fill="none"/>
  <path stroke-linejoin="round" stroke-linecap="round" class="stroke-width stroke-color-1" d="m151.22,59.02h-14.73" fill="none"/>
  <path stroke-linejoin="round" stroke-linecap="round" class="stroke-width stroke-color-1" d="m151.22,62.87h-14.73" fill="none"/>
  <path stroke-linejoin="round" stroke-linecap="round" class="stroke-width stroke-color-1" d="m151.22,66.7h-14.73" fill="none"/>
  <path stroke-linejoin="round" stroke-linecap="round" class="stroke-width stroke-color-1" d="m151.22,70.55h-14.73" fill="none"/>
  <path stroke-linejoin="round" stroke-linecap="round" class="stroke-width stroke-color-1" d="m151.22,74.39h-14.73" fill="none"/>
  <path stroke-linejoin="round" stroke-linecap="round" class="stroke-width stroke-color-1" d="m151.22,78.23h-14.73" fill="none"/>
  <path stroke-linejoin="round" stroke-linecap="round" class="stroke-width stroke-color-1" d="m151.22,82.07h-14.73" fill="none"/>
  <path class="color-1" d="m143.85,47.64c4.26,0,7.72-3.46,7.72-7.72s-3.46-7.72-7.72-7.72-7.72,3.46-7.72,7.72,3.46,7.72,7.72,7.72Z" fill="url(#color-1)"/>
  <path stroke-linejoin="round" stroke-linecap="round" class="stroke-width stroke-color-1" d="m143.85,39.92v11.06" fill="none"/>
  <path stroke-linejoin="round" stroke-linecap="round" class="stroke-width stroke-color-1" d="m143.85,86.26v15.15s1.29,12.65-11.97,12.65H39.88" fill="none"/>
  <path class="color-1" d="m78.41,34.51c4.26,0,7.72-3.46,7.72-7.72s-3.46-7.72-7.72-7.72-7.72,3.46-7.72,7.72,3.46,7.72,7.72,7.72Z" fill="url(#color-1)"/>
  <path class="color-3" d="m41.03,45.28c4.26,0,7.72-3.46,7.72-7.72s-3.46-7.72-7.72-7.72-7.72,3.46-7.72,7.72,3.46,7.72,7.72,7.72Z" fill="url(#color-3)"/>
  <path class="color-2" d="m107.86,45.05c4.26,0,7.72-3.46,7.72-7.72s-3.46-7.72-7.72-7.72-7.72,3.46-7.72,7.72,3.46,7.72,7.72,7.72Z" fill="url(#color-2)"/>
  <path class="color-3" d="m100.37,79c4.26,0,7.72-3.46,7.72-7.72s-3.46-7.72-7.72-7.72-7.72,3.46-7.72,7.72,3.46,7.72,7.72,7.72Z" fill="url(#color-3)"/>
  <path class="color-4" d="m118.74,67.19c4.26,0,7.72-3.46,7.72-7.72s-3.46-7.72-7.72-7.72-7.72,3.46-7.72,7.72,3.46,7.72,7.72,7.72Z" fill="url(#color-4)"/>
  <path stroke-linejoin="round" stroke-linecap="round" class="stroke-width stroke-color-1" d="m118.71,59.47s-.65,11.62-17.8,11.62" fill="none"/>
  <path class="color-1" d="m103.49,85.56l-5.7-4.14-14.4,19.81,5.7,4.14,14.4-19.81Z" fill="url(#color-1)"/>
  <path class="color-3" d="m132.24,101.2l5.73-4.09-14.22-19.93-5.73,4.09,14.22,19.93Z" fill="url(#color-3)"/>
  <path stroke-linejoin="round" stroke-linecap="round" class="stroke-width stroke-color-1" d="m105.5,75.07h11.93" fill="none"/>
  <path stroke-linejoin="round" stroke-linecap="round" class="stroke-width stroke-color-1" d="m105.5,79.38h11.93" fill="none"/>
  <path stroke-linejoin="round" stroke-linecap="round" class="stroke-width stroke-color-1" d="m105.5,83.7h11.93" fill="none"/>
  <path stroke-linejoin="round" stroke-linecap="round" class="stroke-width stroke-color-1" d="m105.5,88.01h11.93" fill="none"/>
  <path stroke-linejoin="round" stroke-linecap="round" class="stroke-width stroke-color-1" d="m105.5,92.33h11.93" fill="none"/>
  <path stroke-linejoin="round" stroke-linecap="round" class="stroke-width stroke-color-1" d="m105.5,96.65h11.93" fill="none"/>
  <path stroke-linejoin="round" stroke-linecap="round" class="stroke-width stroke-color-1" d="m105.5,100.96h11.93" fill="none"/>
  <path class="color-3" d="m76.29,73.7h-7.72v26.7h7.72v-26.7Z" fill="url(#color-3)"/>
  <path stroke-linejoin="round" stroke-linecap="round" class="stroke-width stroke-color-1" d="m72.2,76.62h-27.65" fill="none"/>
  <path stroke-linejoin="round" stroke-linecap="round" class="stroke-width stroke-color-1" d="m72.2,96.87h-27.65" fill="none"/>
  <path stroke-linejoin="round" stroke-linecap="round" class="stroke-width stroke-color-1" d="m38.58,80.25h11.93" fill="none"/>
  <path stroke-linejoin="round" stroke-linecap="round" class="stroke-width stroke-color-1" d="m38.58,84.57h11.93" fill="none"/>
  <path stroke-linejoin="round" stroke-linecap="round" class="stroke-width stroke-color-1" d="m38.58,88.89h11.93" fill="none"/>
  <path stroke-linejoin="round" stroke-linecap="round" class="stroke-width stroke-color-1" d="m38.58,93.2h11.93" fill="none"/>
  <path class="color-1" d="m83.4,78.29c3.49,0,6.31-2.83,6.31-6.31s-2.83-6.31-6.31-6.31-6.31,2.83-6.31,6.31,2.83,6.31,6.31,6.31Z" fill="url(#color-1)"/>
  <path class="color-3" d="m58.44,62.36c3.49,0,6.31-2.83,6.31-6.31s-2.83-6.31-6.31-6.31-6.31,2.83-6.31,6.31,2.83,6.31,6.31,6.31Z" fill="url(#color-3)"/>
  <path class="color-2" d="m33.34,78.29c3.49,0,6.31-2.83,6.31-6.31s-2.83-6.31-6.31-6.31-6.31,2.83-6.31,6.31,2.83,6.31,6.31,6.31Z" fill="url(#color-2)"/>
  <path stroke-linejoin="round" stroke-linecap="round" class="stroke-width stroke-color-1" d="m83.4,71.97l-25.03-15.93-25.03,15.93,25.03-15.93" fill="none"/>
</svg>