<?xml version="1.0" encoding="UTF-8"?>
<svg xmlns="http://www.w3.org/2000/svg" viewBox="0 0 179 137">
  <defs>
    <style>
      .stroke-width {
        stroke-width: 1.3px;
      }

      .stroke-color-1 {
        stroke: #ffcf08;
      }

      .stroke-color-2 {
        stroke: #fea39c;
      }

      .stroke-color-3 {
        stroke:#327eed;
      }

      .stroke-color-4 {
        stroke: #2032ac;
      }      
    </style>  
    <linearGradient id="color-1" gradientTransform="rotate(90)">
      <stop offset="0%" stop-color="#ffcf08" />
      <stop offset="100%" stop-color="#ffcf08" />
      <stop offset="100%" stop-color="white" />
    </linearGradient>
    <linearGradient id="color-2" gradientTransform="rotate(90)">
      <stop offset="0%" stop-color="#fea39c" />
      <stop offset="100%" stop-color="#fea39c" />
      <stop offset="100%" stop-color="white" />
    </linearGradient>
    <linearGradient id="color-3" gradientTransform="rotate(90)">
      <stop offset="0%" stop-color="#327eed" />
      <stop offset="100%" stop-color="#327eed" />
      <stop offset="100%" stop-color="white" />
    </linearGradient>   
    <linearGradient id="color-4" gradientTransform="rotate(90)">
      <stop offset="0%" stop-color="#2032ac" />
      <stop offset="100%" stop-color="#2032ac" />
      <stop offset="100%" stop-color="white" />
    </linearGradient>  
  </defs>
    <path class="color-1" d="m47.88,120.69c2.21,0,4-1.79,4-4s-1.79-4-4-4-4,1.79-4,4,1.79,4,4,4Z" fill="url(#color-1)"/>
    <path class="color-2" d="m143.03,36.9c2.21,0,4-1.79,4-4s-1.79-4-4-4-4,1.79-4,4,1.79,4,4,4Z" fill="url(#color-2)"/>
    <path class="color-4" d="m33.91,123.59c1.66,0,3-1.34,3-3s-1.34-3-3-3-3,1.34-3,3,1.34,3,3,3Z" fill="url(#color-4)"/>
    <path class="color-4" d="m63.04,39.7h-11.61c-4.7,0-8.51,3.81-8.51,8.51s3.81,8.51,8.51,8.51h12.91c.22-6.65-.55-13.08-1.29-17.01Z" fill="url(#color-4)"/>
    <path class="color-4" d="m79.92,56.71h11.43c4.7,0,8.51-3.81,8.51-8.51s-3.81-8.51-8.51-8.51h-12.54c.63,4.07,1.31,10.21,1.12,17.01Z" fill="url(#color-4)"/>
    <path class="color-1" d="m58.89,76c3.19-3.96,4.68-9.76,5.23-15.71h-18.95c-4.7,0-8.51,3.81-8.51,8.51s3.81,8.51,8.51,8.51h12.53c.41-.41.81-.84,1.18-1.3h0Z" fill="url(#color-1)"/>
    <path class="color-1" d="m103.87,67.86c.03-.05.06-.1.09-.15-.53-4.19-4.1-7.43-8.43-7.43h-15.8c-.42,5.67-1.52,11.58-3.8,17.01h19.6c.27,0,.53-.01.8-.04,2.8-2.74,5.38-5.92,7.54-9.4Z" fill="url(#color-1)"/>
    <path class="color-3" d="m64.33,56.71c-.04,1.19-.11,2.38-.21,3.57h15.61c.09-1.21.16-2.4.18-3.57h-15.58Z" fill="url(#color-3)"/>
    <path class="color-3" d="m77.93,34.98c-.93-4.19-5.07-6.82-9.25-5.89-4.19.92-6.83,5.07-5.91,9.25.09.41.18.87.27,1.35h15.75c-.37-2.39-.72-4.06-.87-4.72Z" fill="url(#color-3)"/>
    <path class="color-3" d="m169.47,70.58c-.85-4.2-4.95-6.94-9.16-6.09-4.2.85-6.92,4.93-6.07,9.13.01.06,1.15,6.31-.79,13.55-2.4,8.93-8.43,15.54-17.93,19.64,5.97-5.59,9.57-12.25,10.23-18.58.87-8.35-3.59-15.22-11.36-17.49-7.09-2.07-14.14.98-18.88,8.17-4.19,6.35-6.46,15.82-5.61,24.45-2.32.58-4.84,1.01-7.55,1.21-9.51.73-14.5-1.05-16.37-2.17.73-.7,2.19-1.79,4.97-2.96,9.95-4.17,19.47-12.69,26.12-23.38,7.2-11.55,9.9-23.68,7.64-34.16-2.42-11.21-12.72-29.84-54.57-28.67-20.36.58-36.29,5.39-47.36,14.3-9.95,8.02-15.33,19.05-15.16,31.07.3,21.18,17.3,38.4,37.9,38.4,10.75,0,19.58-3.91,25.52-11.32,2.06-2.56,3.65-5.41,4.91-8.4h-18.22c-2.91,2.82-6.92,4.19-12.2,4.19-10.6,0-22.17-8.82-22.37-23.08-.19-13.68,12.17-28.64,47.44-29.64,13.14-.37,35.67,1.26,38.95,16.42,1.38,6.38-.64,14.59-5.55,22.53.04.36.07.71.07,1.08,0,4.43-3.39,8.06-7.71,8.47-3.57,3.49-7.51,6.23-11.41,7.87-16.6,6.97-15.45,17.62-14.7,20.72,1.92,7.96,11.68,15.86,33.3,14.22,4.32-.33,8.39-1.09,12.16-2.2,4.1,4.59,9.16,5.98,13.8,5.98s8.88-1.41,11.32-2.41c18.51-7.64,25.35-21.08,27.84-31,2.6-10.38,1.01-18.9.82-19.84h0Zm-40.89,20.47c-.73,1.19-1.68,2.41-2.84,3.61,1.07-5.44,3.37-8.47,4.36-8.99.09.03.16.05.2.07.1.56.04,2.46-1.72,5.31Z" fill="url(#color-3)"/>
    <path class="color-2" d="m78.8,39.7h-15.75c.74,3.93,1.52,10.36,1.29,17.01h15.58c.19-6.8-.49-12.94-1.12-17.01Z" fill="url(#color-2)"/>
    <path class="color-2" d="m64.12,60.29c-.55,5.95-2.04,11.75-5.23,15.71-.37.47-.77.89-1.18,1.3h18.22c2.27-5.43,3.38-11.35,3.8-17.01h-15.61Z" fill="url(#color-2)"/>
    <path class="color-3" d="m104.04,68.79c0-.37-.03-.72-.07-1.08-.03.05-.06.1-.09.15-2.16,3.47-4.74,6.66-7.54,9.4,4.32-.4,7.71-4.04,7.71-8.47Z"/>
    <path fill="#ffffff" class="color-5" d="m29.28,93.23h19.76c1.88,0,3.4,1.52,3.4,3.4s-1.52,3.4-3.4,3.4h-.29s-1.08.13-1.08,1.04c0,.26.09.44.21.58h12c1.88,0,3.4,1.52,3.4,3.4s-1.52,3.4-3.4,3.4h-19.76c-1.88,0-3.4-1.52-3.4-3.4s1.52-3.4,3.4-3.4h2.89c.1-.13.16-.32.16-.56,0-1.04-1.16-1.07-1.16-1.07h-12.75c-1.88,0-3.4-1.52-3.4-3.4s1.52-3.4,3.4-3.4h0Z"/>
    <path fill="#ffffff" class="color-5" d="m152.99,53.13h-6.69c-1.81,0-3.27,1.46-3.27,3.27v.27c0,1.81,1.46,3.27,3.27,3.27h6.69c1.81,0,3.27-1.46,3.27-3.27v-.27c0-1.81-1.46-3.27-3.27-3.27Z"/>
    <path fill="#ffffff" class="color-5" d="m147,44.48h-19.76c-1.88,0-3.4,1.52-3.4,3.4s1.52,3.4,3.4,3.4h.29s1.08.13,1.08,1.04c0,.26-.09.44-.21.58h-12c-1.88,0-3.4,1.52-3.4,3.4s1.52,3.4,3.4,3.4h19.75c1.88,0,3.4-1.52,3.4-3.4s-1.52-3.4-3.4-3.4h-2.89c-.1-.13-.16-.32-.16-.56,0-1.04,1.16-1.07,1.16-1.07h12.75c1.88,0,3.4-1.52,3.4-3.4s-1.52-3.4-3.4-3.4h0Z"/>
</svg>