<?xml version="1.0" encoding="UTF-8"?>
<svg xmlns="http://www.w3.org/2000/svg" viewBox="0 0 179 137">
  <defs>
    <style>
      /* .color-1 {
        fill: #fa4013;
      }

      .cls-2 {
        fill: #fff;
      }

      .color-2 {
        fill: #9cd323;
      }

      .color-3 {
        fill: #404272;
      } */
      .stroke-width {
        stroke-width: .5px;
      }

      .stroke-color-1 {
        stroke: #fa4013;
      }

      .stroke-color-2 {
        stroke: #9cd323;
      }

      .stroke-color-3 {
        stroke:#404272;
      }

      .stroke-color-4 {
        stroke: #ffffff;
      }      
    </style>
    <linearGradient id="color-1" gradientTransform="rotate(90)">
      <stop offset="0%" stop-color="#fa4013" />
      <stop offset="100%" stop-color="#fa4013" />
      <stop offset="100%" stop-color="white" />
    </linearGradient>
    <linearGradient id="color-2" gradientTransform="rotate(90)">
      <stop offset="0%" stop-color="#9cd323" />
      <stop offset="100%" stop-color="#9cd323"/>
      <stop offset="100%" stop-color="white" />
    </linearGradient>
    <linearGradient id="color-3" gradientTransform="rotate(90)">
      <stop offset="0%" stop-color="#404272" />
      <stop offset="100%" stop-color="#404272" />
      <stop offset="100%" stop-color="white" />
    </linearGradient>   
    <linearGradient id="color-4" gradientTransform="rotate(90)">
      <stop offset="0%" stop-color="#ffffff" />
      <stop offset="100%" stop-color="#ffffff" />
      <stop offset="100%" stop-color="white" />
    </linearGradient>  
  </defs>
    <path class="color-2" d="m33.05,55.69c2.21,0,4-1.79,4-4s-1.79-4-4-4-4,1.79-4,4,1.79,4,4,4Z" fill="url(#color-2)"/>
    <path class="color-1" d="m153.03,55.69c2.21,0,4-1.79,4-4s-1.79-4-4-4-4,1.79-4,4,1.79,4,4,4Z" fill="url(#color-1)"/>
    <path class="color-3" d="m130.84,118.41c1.66,0,3-1.34,3-3s-1.34-3-3-3-3,1.34-3,3,1.34,3,3,3Z" fill="url(#color-3)"/>
    <path class="color-3" d="m19.88,64.94c1.66,0,3-1.34,3-3s-1.34-3-3-3-3,1.34-3,3,1.34,3,3,3Z" fill="url(#color-3)"/>
    <path class="color-2" d="m109.5,100.11l-15.26-10.72c-3.8-2.67-9.05-1.76-11.72,2.05-2.67,3.8-1.75,9.05,2.05,11.72l15.26,10.72c3.8,2.67,9.05,1.76,11.72-2.05,2.67-3.8,1.75-9.05-2.05-11.72Z" fill="url(#color-2)"/>
    <path class="color-1" d="m71.11,116.05l14.24-10c3.8-2.67,4.72-7.92,2.05-11.72-2.67-3.8-7.92-4.72-11.72-2.05l-14.24,10c-3.8,2.67-4.72,7.92-2.05,11.72,2.67,3.8,7.92,4.72,11.72,2.05Z" fill="url(#color-1)"/>
    <path class="color-1" d="m113.92,76.44v20.35c0,4.7,3.81,8.51,8.51,8.51s8.51-3.81,8.51-8.51v-20.35c0-4.7-3.81-8.51-8.51-8.51s-8.51,3.81-8.51,8.51Z" fill="url(#color-1)"/>
    <path class="color-1" d="m140.84,76.44v20.35c0,4.7,3.81,8.51,8.51,8.51s8.51-3.81,8.51-8.51v-20.35c0-4.7-3.81-8.51-8.51-8.51s-8.51,3.81-8.51,8.51Z" fill="url(#color-1)"/>
    <path class="color-2" d="m144.88,73.36h-18.85c-2.68,0-4.84,2.17-4.84,4.84h0c0,2.68,2.17,4.85,4.84,4.85h18.85c2.68,0,4.84-2.17,4.84-4.84h0c0-2.68-2.17-4.85-4.84-4.85Z" fill="url(#color-2)"/>
    <path class="color-1" d="m144.88,90.18h-18.85c-2.68,0-4.84,2.17-4.84,4.84h0c0,2.68,2.17,4.85,4.84,4.85h18.85c2.68,0,4.84-2.17,4.84-4.84h0c0-2.68-2.17-4.85-4.84-4.85Z" fill="url(#color-1)"/>
    <path class="color-2" d="m58.29,11.34c4.7,0,8.51,3.81,8.51,8.51v8.48h49.51v-8.48c0-4.7,3.81-8.51,8.51-8.51s8.51,3.81,8.51,8.51v.3c0-.11.01-.22.01-.33,0-4.7-3.81-8.51-8.51-8.51H58.28c-4.7,0-8.51,3.81-8.51,8.51,0,.05,0,.11,0,.16v-.13c0-4.7,3.81-8.51,8.51-8.51Z" fill="url(#color-2)"/>
    <path class="color-2" d="m124.81,63.39c-4.7,0-8.51-3.81-8.51-8.51v-8.48h-49.51v8.48c0,4.7-3.81,8.51-8.51,8.51s-8.51-3.81-8.51-8.51v-.14c0,.05,0,.11,0,.16,0,4.7,3.81,8.51,8.51,8.51h66.54c4.7,0,8.51-3.81,8.51-8.51,0-.11-.01-.22-.01-.33v.31c0,4.7-3.81,8.51-8.51,8.51Z" fill="url(#color-2)"/>
    <path class="color-1" d="m124.83,28.32h-8.52v18.08h8.52c4.59,0,8.31,3.63,8.49,8.17V20.14c-.18,4.54-3.91,8.17-8.49,8.17h0Z" fill="url(#color-1)"/>
    <path class="color-3" d="m124.81,11.34c-4.7,0-8.51,3.81-8.51,8.51v8.48h8.52c4.59,0,8.31-3.63,8.49-8.17v-.3c0-4.7-3.81-8.51-8.51-8.51Z" fill="url(#color-3)"/>
    <path class="color-3" d="m124.83,46.4h-8.52v8.48c0,4.7,3.81,8.51,8.51,8.51s8.51-3.81,8.51-8.51v-.31c-.18-4.54-3.91-8.17-8.49-8.17Z" fill="url(#color-3)"/>
    <path class="color-1" d="m58.28,46.4h8.51v-18.08h-8.51c-4.64,0-8.41-3.72-8.5-8.34v34.77c.09-4.62,3.85-8.34,8.5-8.34Z" fill="url(#color-1)"/>
    <path class="color-3" d="m58.28,28.32h8.51v-8.48c0-4.7-3.81-8.51-8.51-8.51s-8.51,3.81-8.51,8.51v.13c.09,4.62,3.85,8.34,8.5,8.34Z" fill="url(#color-3)"/>
    <path class="color-3" d="m58.29,63.39c4.7,0,8.51-3.81,8.51-8.51v-8.48h-8.51c-4.64,0-8.41,3.72-8.5,8.34v.14c0,4.7,3.81,8.51,8.51,8.51Z" fill="url(#color-3)"/>
    <path class="color-1" d="m28.76,111.36c-3.64,0-7.06-2.26-8.36-5.89-1.65-4.62.75-9.7,5.36-11.35,7-2.51,12.82-8.48,17.3-17.74,3.69-7.63,4.97-14.61,4.99-14.67.87-4.81,5.46-8.04,10.28-7.19,4.81.85,8.04,5.43,7.2,10.24-.26,1.48-6.6,36.33-33.79,46.06-.99.36-2,.53-2.99.53Z" fill="url(#color-1)"/>
    <path class="color-1" d="m91.55,48.7c6.54,0,11.83-5.3,11.83-11.83s-5.3-11.83-11.83-11.83-11.83,5.3-11.83,11.83,5.3,11.83,11.83,11.83Z" fill="url(#color-1)"/>
    <path class="color-1" d="m75.5,89.37v27.82c0,4.7,3.81,8.51,8.51,8.51s8.51-3.81,8.51-8.51v-31.94c-2.88,1.38-6.23,2.46-10.07,3.2-2.82.55-5.31.8-6.94.92Z" fill="url(#color-1)"/>
    <path class="color-1" d="m99.25,68.54c-3.34-3.59-8.96-3.79-12.54-.44-2.34,2.18-9.39,3.51-13.59,3.63-4.89.13-8.76,4.19-8.65,9.08.11,4.83,4.06,8.67,8.87,8.67h.21c.16,0,.87-.02,1.95-.1v-5.41c0-4.7,3.81-8.51,8.51-8.51s8.51,3.81,8.51,8.51v1.3c2.45-1.17,4.56-2.55,6.29-4.16,3.59-3.34,3.79-8.96.44-12.54h0Z" fill="url(#color-1)"/>
    <path class="color-3" d="m84.01,75.44c-4.7,0-8.51,3.81-8.51,8.51v5.41c1.63-.12,4.12-.38,6.94-.92,3.83-.74,7.19-1.82,10.07-3.2v-1.3c0-4.7-3.81-8.51-8.51-8.51h0Z" fill="url(#color-3)"/>
    <path fill="#ffffff" class="color-5" d="m47.89,74.67h-10.24c-1.61,0-2.92,1.31-2.92,2.92h0c0,1.62,1.31,2.93,2.92,2.93h10.24c1.61,0,2.92-1.31,2.92-2.92h0c0-1.62-1.31-2.93-2.92-2.93Z"/>
    <path fill="#ffffff" class="color-5" d="m148.6,25.03h-16.98c-1.61,0-2.92,1.31-2.92,2.92s1.31,2.92,2.92,2.92h.24s.92.11.92.9c0,.22-.07.38-.18.5h-10.32c-1.61,0-2.92,1.31-2.92,2.92s1.31,2.92,2.92,2.92h16.98c1.61,0,2.92-1.31,2.92-2.92s-1.31-2.92-2.92-2.92h-2.49c-.08-.12-.14-.27-.14-.48,0-.89,1-.92,1-.92h10.95c1.61,0,2.92-1.31,2.92-2.92s-1.31-2.92-2.92-2.92h0Z"/>
    <path fill="#ffffff" class="color-5" d="m53.64,85.25h16.98c1.61,0,2.92,1.31,2.92,2.92s-1.31,2.92-2.92,2.92h-.24s-.92.11-.92.89c0,.22.07.38.18.5h10.32c1.61,0,2.92,1.31,2.92,2.92s-1.31,2.92-2.92,2.92h-16.98c-1.61,0-2.92-1.31-2.92-2.92s1.31-2.92,2.92-2.92h2.49c.08-.12.14-.27.14-.48,0-.89-1-.92-1-.92h-10.95c-1.61,0-2.92-1.31-2.92-2.92s1.31-2.92,2.92-2.92h0Z"/>
</svg>