<?xml version="1.0" encoding="UTF-8"?>
<svg id="_레이어_2" data-name="레이어 2" xmlns="http://www.w3.org/2000/svg" viewBox="0 0 179 137">
  <defs>
    <style>
      .stroke-color-1 {
        stroke: #ffcf08;
      }

      .stroke-color-2 {
        stroke: #ff6836;
      }

      .stroke-color-3 {
        stroke: #404272;
      }

      .stroke-color-4 {
        stroke: #2aaeb3;
      }
    </style>
    <linearGradient id="color-1" gradientTransform="rotate(90)">
      <stop offset="0%" stop-color="#ffcf08" />
      <stop offset="100%" stop-color="#ffcf08" />
      <stop offset="100%" stop-color="white" />
    </linearGradient>
    <linearGradient id="color-2" gradientTransform="rotate(90)">
      <stop offset="0%" stop-color="#ff6836" />
      <stop offset="100%" stop-color="#ff6836" />
      <stop offset="100%" stop-color="white" />
    </linearGradient>
    <linearGradient id="color-3" gradientTransform="rotate(90)">
      <stop offset="0%" stop-color="#404272" />
      <stop offset="100%" stop-color="#404272" />
      <stop offset="100%" stop-color="white" />
    </linearGradient>
    <linearGradient id="color-4" gradientTransform="rotate(90)">
      <stop offset="0%" stop-color="#2aaeb3" />
      <stop offset="100%" stop-color="#2aaeb3" />
      <stop offset="100%" stop-color="white" />
    </linearGradient>
  </defs>
  <path class="color-4" d="m54.94,21.63h-.24c-4.7,0-8.51,3.81-8.51,8.51s3.81,8.51,8.51,8.51h.24c2.14-2.2,3.46-5.19,3.46-8.51s-1.32-6.31-3.46-8.51Z" fill="url(#color-4)"/>
  <path class="color-4" d="m131.48,30.13c0-4.7-3.81-8.51-8.51-8.51h-.24c-2.14,2.2-3.46,5.2-3.46,8.51s1.32,6.31,3.46,8.51h.24c4.7,0,8.51-3.81,8.51-8.51Z" fill="url(#color-4)"/>
  <path class="color-4" d="m29.33,59.06c-4.48,0-8.14,3.47-8.48,7.86,2.15,2.2,5.15,3.58,8.48,3.58s6.32-1.38,8.48-3.58c-.33-4.39-3.99-7.86-8.48-7.86Z" fill="url(#color-4)"/>
  <path class="color-4" d="m29.33,94.66c-3.34,0-6.35,1.39-8.51,3.62v.08c0,4.7,3.81,8.51,8.51,8.51s8.51-3.81,8.51-8.51v-.08c-2.15-2.23-5.16-3.62-8.51-3.62Z" fill="url(#color-4)"/>
  <path class="color-4" d="m68.98,59.06c-4.48,0-8.14,3.47-8.48,7.86,2.15,2.2,5.15,3.58,8.48,3.58s6.32-1.38,8.48-3.58c-.33-4.39-3.99-7.86-8.48-7.86Z" fill="url(#color-4)"/>
  <path class="color-4" d="m68.98,94.66c-3.34,0-6.35,1.39-8.51,3.62v.08c0,4.7,3.81,8.51,8.51,8.51s8.51-3.81,8.51-8.51v-.08c-2.15-2.23-5.16-3.62-8.51-3.62Z" fill="url(#color-4)"/>
  <path class="color-4" d="m108.6,59.06c-4.48,0-8.14,3.47-8.48,7.86,2.15,2.2,5.15,3.58,8.48,3.58s6.32-1.38,8.48-3.58c-.33-4.39-3.99-7.86-8.48-7.86Z" fill="url(#color-4)"/>
  <path class="color-4" d="m108.6,94.66c-3.34,0-6.35,1.43-8.51,3.73.01,4.68,3.82,8.48,8.51,8.48s8.49-3.79,8.51-8.48c-2.15-2.29-5.16-3.73-8.51-3.73Z" fill="url(#color-4)"/>
  <path class="color-4" d="m148.39,70.5c3.32,0,6.32-1.38,8.48-3.58-.33-4.39-3.99-7.86-8.48-7.86s-8.14,3.47-8.48,7.86c2.15,2.2,5.15,3.58,8.48,3.58Z" fill="url(#color-4)"/>
  <path class="color-4" d="m148.39,106.87c4.7,0,8.51-3.81,8.51-8.51v-.08c-2.15-2.23-5.16-3.62-8.51-3.62s-6.35,1.39-8.51,3.62v.08c0,4.7,3.81,8.51,8.51,8.51Z" fill="url(#color-4)"/>
  <path class="color-2" d="m24.15,74.29l39.71,30.79c3.71,2.88,9.06,2.2,11.93-1.51,2.88-3.71,2.2-9.06-1.51-11.93l-39.71-30.79c-3.71-2.88-9.06-2.2-11.93,1.51-2.88,3.71-2.2,9.06,1.51,11.93Z" fill="url(#color-2)"/>
  <path class="color-2" d="m122.74,21.63H54.94c2.14,2.2,3.46,5.2,3.46,8.51s-1.32,6.31-3.46,8.51h67.8c-2.14-2.2-3.46-5.19-3.46-8.51s1.32-6.31,3.46-8.51Z" fill="url(#color-2)"/>
  <path class="color-2" d="m63.76,74.29l39.71,30.79c3.71,2.88,9.06,2.2,11.93-1.51,2.88-3.71,2.2-9.06-1.51-11.93l-39.71-30.79c-3.71-2.88-9.06-2.2-11.93,1.51-2.88,3.71-2.2,9.06,1.51,11.93Z" fill="url(#color-2)"/>
  <path class="color-2" d="m103.57,74.29l39.71,30.79c3.71,2.88,9.06,2.2,11.93-1.51,2.88-3.71,2.2-9.06-1.51-11.93l-39.71-30.79c-3.71-2.88-9.06-2.2-11.93,1.51-2.88,3.71-2.2,9.06,1.51,11.93Z" fill="url(#color-2)"/>
  <path class="color-1" d="m46.19,30.13c0-4.7,3.81-8.51,8.51-8.51h.24c-2.22-2.28-5.31-3.7-8.74-3.7-6.74,0-12.2,5.47-12.2,12.2s5.47,12.2,12.2,12.2c3.43,0,6.52-1.42,8.74-3.7h-.24c-4.7,0-8.51-3.81-8.51-8.51Z" fill="url(#color-1)"/>
  <path class="color-1" d="m131.48,17.93c-3.43,0-6.52,1.42-8.74,3.7h.24c4.7,0,8.51,3.81,8.51,8.51s-3.81,8.51-8.51,8.51h-.24c2.22,2.28,5.31,3.7,8.74,3.7,6.74,0,12.2-5.47,12.2-12.2s-5.47-12.2-12.2-12.2Z" fill="url(#color-1)"/>
  <path class="color-1" d="m29.33,70.5c-3.32,0-6.32-1.38-8.48-3.58-.01.21-.03.43-.03.64v30.72c2.15-2.23,5.16-3.62,8.51-3.62s6.35,1.39,8.51,3.62v-30.72c0-.21-.01-.43-.03-.64-2.15,2.2-5.15,3.58-8.48,3.58Z" fill="url(#color-1)"/>
  <path class="color-1" d="m29.33,46.86c-6.54,0-11.83,5.3-11.83,11.82,0,3.21,1.29,6.12,3.36,8.25.33-4.39,3.99-7.86,8.48-7.86s8.14,3.47,8.48,7.86c2.08-2.13,3.36-5.04,3.36-8.25,0-6.53-5.3-11.82-11.83-11.82Z" fill="url(#color-1)"/>
  <path class="color-1" d="m29.33,106.87c-4.7,0-8.51-3.81-8.51-8.51v-.08c-2.06,2.13-3.33,5.02-3.33,8.22,0,6.54,5.3,11.83,11.83,11.83s11.83-5.3,11.83-11.83c0-3.2-1.27-6.09-3.33-8.22v.08c0,4.7-3.81,8.51-8.51,8.51Z" fill="url(#color-1)"/>
  <path class="color-1" d="m68.98,46.86c-6.54,0-11.83,5.3-11.83,11.82,0,3.21,1.29,6.12,3.36,8.25.33-4.39,3.99-7.86,8.48-7.86s8.14,3.47,8.48,7.86c2.08-2.13,3.36-5.04,3.36-8.25,0-6.53-5.3-11.82-11.83-11.82Z" fill="url(#color-1)"/>
  <path class="color-1" d="m68.98,106.87c-4.7,0-8.51-3.81-8.51-8.51v-.08c-2.06,2.13-3.33,5.02-3.33,8.22,0,6.54,5.3,11.83,11.83,11.83s11.83-5.3,11.83-11.83c0-3.2-1.27-6.09-3.33-8.22v.08c0,4.7-3.81,8.51-8.51,8.51Z" fill="url(#color-1)"/>
  <path class="color-1" d="m108.6,70.5c-3.32,0-6.32-1.38-8.48-3.58-.01.21-.03.43-.03.64v30.83c2.15-2.29,5.16-3.73,8.51-3.73s6.35,1.43,8.51,3.73v-30.83c0-.21-.01-.43-.03-.64-2.15,2.2-5.15,3.58-8.48,3.58Z" fill="url(#color-1)"/>
  <path class="color-1" d="m108.6,46.86c-6.54,0-11.83,5.3-11.83,11.82,0,3.21,1.29,6.12,3.36,8.25.33-4.39,3.99-7.86,8.48-7.86s8.14,3.47,8.48,7.86c2.08-2.13,3.36-5.04,3.36-8.25,0-6.53-5.3-11.82-11.83-11.82Z" fill="url(#color-1)"/>
  <path class="color-1" d="m108.6,106.87c-4.69,0-8.49-3.79-8.51-8.48-2.06,2.2-3.33,5.18-3.33,8.48,0,6.74,5.3,12.2,11.83,12.2s11.83-5.47,11.83-12.2c0-3.29-1.27-6.28-3.33-8.48-.01,4.68-3.82,8.48-8.51,8.48Z" fill="url(#color-1)"/>
  <path class="color-1" d="m148.39,59.06c4.48,0,8.14,3.47,8.48,7.86,2.08-2.13,3.36-5.04,3.36-8.25,0-6.53-5.3-11.82-11.83-11.82s-11.83,5.3-11.83,11.82c0,3.21,1.29,6.12,3.36,8.25.33-4.39,3.99-7.86,8.48-7.86Z" fill="url(#color-1)"/>
  <path class="color-1" d="m156.9,98.36c0,4.7-3.81,8.51-8.51,8.51s-8.51-3.81-8.51-8.51v-.08c-2.06,2.13-3.33,5.02-3.33,8.22,0,6.54,5.3,11.83,11.83,11.83s11.83-5.3,11.83-11.83c0-3.2-1.27-6.09-3.33-8.22v.08Z" fill="url(#color-1)"/>
  <path class="color-3" d="m68.98,70.5c-3.32,0-6.32-1.38-8.48-3.58-.01.21-.03.43-.03.64v30.72c2.15-2.23,5.16-3.62,8.51-3.62s6.35,1.39,8.51,3.62v-30.72c0-.21-.01-.43-.03-.64-2.15,2.2-5.15,3.58-8.48,3.58Z" fill="url(#color-3)"/>
  <path class="color-3" d="m148.39,94.66c3.34,0,6.35,1.39,8.51,3.62v-30.72c0-.21-.01-.43-.03-.64-2.15,2.2-5.15,3.58-8.48,3.58s-6.32-1.38-8.48-3.58c-.01.21-.03.43-.03.64v30.72c2.15-2.23,5.16-3.62,8.51-3.62Z" fill="url(#color-3)"/>
  <path fill="#ffffff" class="color-5" d="m53.01,108.31h-17.1c-1.81,0-3.27,1.46-3.27,3.27s1.46,3.27,3.27,3.27h17.1c1.81,0,3.27-1.46,3.27-3.27s-1.46-3.27-3.27-3.27Z"/>
  <path fill="#ffffff" class="color-5" d="m149.37,44.11h-6.18c-1.81,0-3.27,1.46-3.27,3.27s1.46,3.27,3.27,3.27h6.18c1.81,0,3.27-1.46,3.27-3.27s-1.46-3.27-3.27-3.27Z"/>
  <path fill="#ffffff" class="color-5" d="m143.73,35.8h-18.99c-1.8,0-3.27,1.46-3.27,3.27s1.46,3.27,3.27,3.27h.27s1.04.13,1.04,1c0,.24-.09.42-.21.56h-11.54c-1.8,0-3.27,1.46-3.27,3.27s1.46,3.27,3.27,3.27h18.99c1.8,0,3.27-1.46,3.27-3.27s-1.46-3.27-3.27-3.27h-2.78c-.1-.13-.16-.3-.16-.54,0-1,1.12-1.02,1.12-1.02h12.26c1.8,0,3.27-1.46,3.27-3.27s-1.46-3.27-3.27-3.27h0Z"/>
  <path class="color-1" d="m91.49,126.37c2.21,0,4-1.79,4-4s-1.79-4-4-4-4,1.79-4,4,1.79,4,4,4Z" fill="url(#color-1)"/>
  <path class="color-4" d="m162.12,34.13c2.21,0,4-1.79,4-4s-1.79-4-4-4-4,1.79-4,4,1.79,4,4,4Z" fill="url(#color-4)"/>
  <path class="color-2" d="m20.82,38.8c1.66,0,3-1.34,3-3s-1.34-3-3-3-3,1.34-3,3,1.34,3,3,3Z" fill="url(#color-2)"/>
  <path class="color-2" d="m152.37,19.11c1.66,0,3-1.34,3-3s-1.34-3-3-3-3,1.34-3,3,1.34,3,3,3Z" fill="url(#color-2)"/>
</svg>