<?xml version="1.0" encoding="UTF-8"?>
<svg xmlns="http://www.w3.org/2000/svg" viewBox="0 0 179 137">
  <defs>
    <style>
      .stroke-width {
        stroke-width: 1.3px;
      }

      .stroke-color-1 {
        stroke: #ffcf08;
      }

      .stroke-color-2 {
        stroke: #fea39c;
      }

      .stroke-color-3 {
        stroke:#327eed;
      }

      .stroke-color-4 {
        stroke: #2032ac;
      }      
    </style>  
    <linearGradient id="color-1" gradientTransform="rotate(90)">
      <stop offset="0%" stop-color="#ffcf08" />
      <stop offset="100%" stop-color="#ffcf08" />
      <stop offset="100%" stop-color="white" />
    </linearGradient>
    <linearGradient id="color-2" gradientTransform="rotate(90)">
      <stop offset="0%" stop-color="#fea39c" />
      <stop offset="100%" stop-color="#fea39c" />
      <stop offset="100%" stop-color="white" />
    </linearGradient>
    <linearGradient id="color-3" gradientTransform="rotate(90)">
      <stop offset="0%" stop-color="#327eed" />
      <stop offset="100%" stop-color="#327eed" />
      <stop offset="100%" stop-color="white" />
    </linearGradient>   
    <linearGradient id="color-4" gradientTransform="rotate(90)">
      <stop offset="0%" stop-color="#2032ac" />
      <stop offset="100%" stop-color="#2032ac" />
      <stop offset="100%" stop-color="white" />
    </linearGradient>  
  </defs>
    <path class="color-1" d="m19.87,85.45c2.21,0,4-1.79,4-4s-1.79-4-4-4-4,1.79-4,4,1.79,4,4,4Z" fill="url(#color-3)"/>
    <path class="color-2" d="m63.72,16.57c2.21,0,4-1.79,4-4s-1.79-4-4-4-4,1.79-4,4,1.79,4,4,4Z" fill="url(#color-4)"/>
    <path class="color-1" d="m78.64,127.59c2.21,0,4-1.79,4-4s-1.79-4-4-4-4,1.79-4,4,1.79,4,4,4Z" fill="url(#color-2)"/>
    <path class="color-4" d="m146.99,36.67c1.66,0,3-1.34,3-3s-1.34-3-3-3-3,1.34-3,3,1.34,3,3,3Z" fill="url(#color-2)"/>
    <path class="color-2" d="m65.5,130.9c1.66,0,3-1.34,3-3s-1.34-3-3-3-3,1.34-3,3,1.34,3,3,3Z" fill="url(#color-4)"/>
    <path class="color-3" d="m38.68,107.81c-6.35.29-6.65-.63-7.02-1.78-.01-.04-.02-.08-.04-.11,1.72-1.6,8.29-3.25,13.84-3.44,4.49-.13,8.02-3.88,7.9-8.37-.13-4.49-3.87-8.05-8.37-7.9-3.31.1-20.16,1.06-26.88,10.56-2.88,4.08-3.57,9.13-1.94,14.22,3.79,11.83,14.58,13.14,20.58,13.14,1.06,0,1.97-.04,2.66-.07,25.2-1.13,44.04-14.92,57.65-26.81.36-.32.71-.65,1.07-.98l-16.57-7.23c-15.35,12.44-28.42,18.11-42.87,18.76h-.01Z" fill="url(#color-1)"/>
    <path class="color-3" d="m165.08,58.97c-2.05-6.72-9.05-17.45-32.82-13.77-8.71,1.35-15.63,5.56-21.4,10.82-6.77-2.63-15.53-5.9-24.56-8.91,1.15-2.18,2.22-4.36,3.24-6.52,4.52,5.64,11.09,9.44,17.51,9.86,6.03.39,11.55-2.24,15.13-7.24,3.08-4.3,3.13-9.92.15-15.41-.98-1.81-2.31-3.62-3.91-5.34,1.72-.74,3.47-1.44,5.2-2.09,4.22-1.56,6.37-6.24,4.81-10.45-1.56-4.22-6.24-6.37-10.45-4.81-.27.1-6.52,2.42-13.23,5.77-1.26.63-2.46,1.25-3.58,1.87-1.61-.28-3.25-.4-4.87-.33-7.88.36-14.36,5.13-17.8,13.11-2.78,6.44-5.46,12-8.06,16.7-9.57-2.6-18.21-4.24-23.64-3.71-12.13,1.19-21.56,8.93-22.93,18.82-1.39,10.05,5.72,16.6,12.83,19.39,9.25,3.62,23.18,4.7,37-10.67,1.32-1.47,2.6-3.04,3.82-4.68,7.09,2.3,14.67,4.98,21.89,7.68-.91,1.21-1.8,2.4-2.66,3.56-1.12,1.51-2.21,2.98-3.3,4.39l15.34,6.69c.34-.46.69-.92,1.03-1.38,1.8-2.43,3.57-4.81,5.38-7.06.14.06.28.12.41.17,3.82,1.83,7.96,3.48,12.63,5.01,7.24,2.39,18.18,6,27.37,1.28,8.11-4.16,12.19-13.95,9.5-22.76h-.02Zm-61.98-28.25c1.57-.87,2.85,1.72,3.56,2.94-1.29-.49-3.76-.61-3.9-1.93-.09-.62.23-.92.35-1.01h0Zm-60.5,30.86c-1.58-.62-2.71-1.48-2.65-2,.2-1.42,2.86-4.3,8.4-4.85.34-.03.71-.05,1.11-.05,2.55,0,6.35.65,10.95,1.76-5.88,6-11.66,7.55-17.82,5.15Zm105.55,5.67c-3.13,1.61-11.04-1-14.84-2.26-1.69-.55-3.28-1.12-4.81-1.71,1.95-.97,4.02-1.66,6.24-2.01,1.37-.21,13.43-1.95,14.76,2.43.38,1.24-.3,2.99-1.37,3.54h0Z" fill="url(#color-1)"/>
    <path class="color-2" d="m93.43,77.02l-5.75-2.51c-3.99-1.74-8.65.08-10.38,4.08-1.74,3.99.08,8.65,4.08,10.38l.18.07c1.58-1.28,3.17-2.63,4.8-4.05,2.34-2.04,4.67-4.86,7.08-7.99h0Z" fill="url(#color-4)"/>
    <path class="color-1" d="m86.35,85.01c-1.63,1.42-3.22,2.77-4.8,4.05l16.57,7.23c3.85-3.6,7.2-7.94,10.64-12.57l-15.34-6.69c-2.4,3.13-4.74,5.95-7.08,7.99h0Z" fill="url(#color-3)"/>
    <path class="color-4" d="m144.45,99.27l-35.69-15.56c-3.44,4.62-6.79,8.97-10.64,12.57l40.02,17.45c-.38-1.17-.6-2.41-.6-3.71,0-4.78,2.84-8.88,6.92-10.75h0Z" fill="url(#color-2)"/>
    <path class="color-1" d="m149.37,98.19c-1.76,0-3.42.39-4.92,1.08l1.04.45c3.99,1.74,5.82,6.39,4.08,10.38-1.74,3.99-6.39,5.82-10.38,4.08l-1.04-.45c1.55,4.72,5.99,8.13,11.23,8.13,6.54,0,11.83-5.3,11.83-11.83s-5.3-11.83-11.83-11.83h0Z" fill="url(#color-3)"/>
    <path class="color-2" d="m149.56,110.11c1.74-3.99-.08-8.65-4.08-10.38l-1.04-.45c-4.08,1.87-6.92,5.98-6.92,10.75,0,1.29.21,2.54.6,3.71l1.04.45c3.99,1.74,8.65-.08,10.38-4.08h0Z" fill="url(#color-4)"/>
    <path class="color-4" d="m34.69,111.4l41.83-24.15c3.77-2.18,5.07-7,2.89-10.78-2.18-3.77-7-5.06-10.78-2.89l-41.83,24.15c-3.77,2.18-5.07,7-2.89,10.78,2.18,3.77,7,5.06,10.78,2.89Z" fill="url(#color-2)"/>
    <path class="color-2" d="m77.34,90.45c6.54,0,11.83-5.3,11.83-11.83s-5.3-11.83-11.83-11.83-11.83,5.3-11.83,11.83,5.3,11.83,11.83,11.83Z" fill="url(#color-4)"/>
    <path fill="#ffffff" class="color-5" d="m47.15,20.04h21.39c2.03,0,3.68,1.65,3.68,3.68s-1.65,3.68-3.68,3.68h-.31s-1.17.14-1.17,1.12c0,.28.1.48.23.63h13c2.03,0,3.68,1.65,3.68,3.68s-1.65,3.68-3.68,3.68h-21.39c-2.03,0-3.68-1.65-3.68-3.68s1.65-3.68,3.68-3.68h3.14c.1-.15.18-.34.18-.61,0-1.12-1.26-1.15-1.26-1.15h-13.8c-2.03,0-3.68-1.65-3.68-3.68s1.65-3.68,3.68-3.68h0Z"/>
    <path fill="#ffffff" class="color-5" d="m128.4,110.36h-6.18c-1.81,0-3.27,1.46-3.27,3.27s1.46,3.27,3.27,3.27h6.18c1.81,0,3.27-1.46,3.27-3.27s-1.46-3.27-3.27-3.27Z"/>
    <path fill="#ffffff" class="color-5" d="m122.77,102.05h-18.99c-1.8,0-3.27,1.46-3.27,3.27s1.46,3.27,3.27,3.27h.27s1.04.13,1.04,1c0,.24-.09.42-.21.56h-11.54c-1.8,0-3.27,1.46-3.27,3.27s1.46,3.27,3.27,3.27h18.99c1.8,0,3.27-1.46,3.27-3.27s-1.46-3.27-3.27-3.27h-2.78c-.1-.13-.16-.3-.16-.54,0-1,1.12-1.02,1.12-1.02h12.26c1.8,0,3.27-1.46,3.27-3.27s-1.46-3.27-3.27-3.27h0Z"/>
</svg>