<?xml version="1.0" encoding="UTF-8"?>
<svg id="top07" xmlns="http://www.w3.org/2000/svg" viewBox="0 0 179 137">
  <defs>
    <style>
      .stroke-width {
        stroke-width: .5px;
      }

      .stroke-linecap{
        stroke-linecap: round;
      }

      .stroke-color-1 {
        stroke: #fa4013;
      }

      .stroke-color-2 {
        stroke: #9cd323;
      }

      .stroke-color-3 {
        stroke:#404272;
      }

      .stroke-color-4 {
        stroke: #ffffff;
      }      
    </style>
    <linearGradient id="color-1" gradientTransform="rotate(90)">
      <stop offset="0%" stop-color="#fa4013" />
      <stop offset="100%" stop-color="#fa4013" />
      <stop offset="100%" stop-color="white" />
    </linearGradient>
    <linearGradient id="color-2" gradientTransform="rotate(90)">
      <stop offset="0%" stop-color="#9cd323" />
      <stop offset="100%" stop-color="#9cd323" />
      <stop offset="100%" stop-color="white" />
    </linearGradient>
    <linearGradient id="color-3" gradientTransform="rotate(90)">
      <stop offset="0%" stop-color="#404272" />
      <stop offset="100%" stop-color="#404272" />
      <stop offset="100%" stop-color="white" />
    </linearGradient>   
    <linearGradient id="color-4" gradientTransform="rotate(90)">
      <stop offset="0%" stop-color="#ffffff" />
      <stop offset="100%" stop-color="#ffffff" />
      <stop offset="100%" stop-color="white" />
    </linearGradient>  
  </defs>
  <path class="stroke-width stroke-linecap stroke-color-1" d="m117.61,26.19s1.22-6.23-4.96-6.23h-19.47s-4.78-.15-4.78,5.01v37.07" fill="none"/>
  <path class="stroke-width stroke-linecap stroke-color-1" d="m30.59,80.99v5.77s-.04,8.53-6.97,8.53c-8.42,0,3.24-15.62,43.69-19.18,0,0,14.63-1.24,13.06,12" fill="none"/>
  <path class="stroke-width stroke-linecap stroke-color-1" d="m150.31,80.99v5.77s-.24,10.08,5.93,7.4c2.1-.91,2.07-2.99.93-4.71-2.26-3.42-6.67-5.45-10.31-6.97-7.59-3.15-15.65-4.52-23.72-5.75-3.79-.58-7.92-1.14-11.58.4-2.95,1.24-4.97,3.89-5.45,7.06-.2,1.3-.04,2.62.1,3.92" fill="none"/>
  <path class="stroke-width stroke-linecap stroke-color-1" d="m33.47,64.21h119.72" fill="none"/>
  <path class="stroke-width stroke-linecap stroke-color-1" d="m53.43,68.49s11.77-1.67,17.57-4.27h0c-5.8-2.61-17.57-4.28-17.57-4.28" fill="none"/>
  <path class="stroke-width stroke-linecap stroke-color-1" d="m133.52,68.49s-11.77-1.67-17.57-4.27h0c5.8-2.61,17.57-4.28,17.57-4.28" fill="none"/>
  <path class="stroke-width stroke-linecap stroke-color-1" d="m36.33,40.4s.03-5.37,2.86-6.31c3.31-1.09,5.72,1.13,5.65,3.24" fill="none"/>
  <path class="stroke-width stroke-linecap stroke-color-1" d="m69.04,36.42s-2.14,6.74,4.9,6.74h3.97,0,17.36s10.7-.18,10.7,10.05c0,4.23-1.92,6.68-4.16,8.1-3.18,2.02-7.02,1.96-7.02,1.96h-12.19s-7.71,0-7.71,5.61,8.06,5.51,8.06,5.51h36.07s6.79,0,6.79,0c0,0,7.71.09,4.47,8.55" fill="none"/>
  <path class="stroke-width stroke-linecap stroke-color-1" d="m150.4,40.56s-.03-5.37-2.86-6.31c-3.31-1.09-5.72,1.13-5.65,3.24"  fill="none"/>
  <path class="color-3" d="m94.35,73.66c-3.38,0-6.11-2.74-6.11-6.11v-7.78c.07.44.73,1.66,6.11,1.66,3.38,0,6.11,2.74,6.11,6.11s-2.74,6.11-6.11,6.11Z"  fill="url(#color-3)"/>
  <path class="color-3" d="m134.67,111.9c0-1.82-1.98-1.82-1.98-1.82,0,0-17.77.05-19.6-19.21,0,0,.23-2.7-2.28-2.7s-4.84-.28-4.84-2.81v5.52s.62,24.07,26.72,26.34h3.16c-2.38,0-1.18-3.85-1.18-5.31h0Z" fill="url(#color-3)"/>
  <path class="color-2" d="m136.06,54.11c-.11,0-1.92-.13-1.92,1.96s-.2,4.14-2,4.14h3.93l14.33-.02v-6.09l-14.33.02Z" fill="url(#color-2)"/>
  <path class="color-2" d="m80.68,90.87v-5.52c0,2.53-2.33,2.81-4.84,2.81s-2.28,2.7-2.28,2.7c-1.83,19.26-19.6,19.21-19.6,19.21,0,0-1.98,0-1.98,1.82,0,1.45,1.21,5.31-1.18,5.31h3.16c26.1-2.28,26.72-26.34,26.72-26.34h0Z" fill="url(#color-2)"/>
  <path class="color-2" d="m72.38,51.71c0-1.56-1.98-1.56-1.98-1.56,0,0-17.77-.47-19.6-11.01,0,0,0-1.98-1.56-1.98-1.25,0-4.55,1.21-4.55-1.18v3.16s-.39,15.88,25.71,17.13h3.16c-2.38,0-1.18-3.31-1.18-4.55Z" fill="url(#color-2)"/>
  <path class="color-1" d="m94.35,108.88c-3.38,0-6.11-2.74-6.11-6.11v-7.78c.07.44.73,1.66,6.11,1.66,3.38,0,6.11,2.74,6.11,6.11s-2.74,6.11-6.11,6.11Z" fill="url(#color-1)"/>
  <path class="color-1" d="m124.73,94.61c3.38,0,6.11-2.74,6.11-6.11v-7.78c-.07.44-.73,1.66-6.11,1.66-3.38,0-6.11,2.74-6.11,6.11s2.74,6.11,6.11,6.11Z" fill="url(#color-1)"/>
  <path class="color-1" d="m156.24,79.02l-.02-35.96c.01-.18.07-1.91-1.95-1.91-2.15,0-4.13-.2-4.13-2v3.91h0l.02,35.96v3.91c0-1.8,1.99-2,4.14-2,2.01,0,1.97-1.68,1.95-1.9h0Z" fill="url(#color-1)"/>
  <path class="color-1" d="m36.52,79.01l-.02-35.95v-3.92c0,1.8-1.99,2-4.14,2s-1.96,1.79-1.95,1.91l.02,35.96v3.92c0-1.8,2-2,4.15-2s1.94-1.92,1.94-1.92h0Z" fill="url(#color-1)"/>
  <path class="color-1" d="m117.8,28.51h0v-4.63c0,3.82-2.76,4.61-2.89,4.64l-43.16.02c-.08-.02-2.9-.78-2.9-4.64v15.02s.12-4.06,2.67-4.29l43.42-.02c2.74.05,2.87,4.31,2.87,4.31v-10.4h.01Z" fill="url(#color-1)"/>
  <path class="color-1" d="m54.76,60.18c-1.8,0-2-1.99-2-4.14s-1.82-1.96-1.92-1.95h-14.34v6.11l14.33-.02h3.93Z" fill="url(#color-1)"/>
  <path class="color-1" d="m50.84,68.28l-14.33.02v6.09l14.33-.02c.08,0,1.92.15,1.92-1.96s.2-4.14,2-4.14h-3.93Z" fill="url(#color-1)"/>
  <path class="color-1" d="m142.17,39.14v-3.16c0,2.38-3.31,1.18-4.55,1.18-1.56,0-1.56,1.98-1.56,1.98-1.83,10.54-19.6,11.01-19.6,11.01,0,0-1.98,0-1.98,1.56,0,1.25,1.21,4.55-1.18,4.55h3.16c26.1-1.24,25.71-17.13,25.71-17.13h0Z" fill="url(#color-1)"/>
  <path class="color-1" d="m136.06,68.25h-3.92c1.8,0,2,1.99,2,4.14s1.79,1.96,1.92,1.95h14.34v-6.11l-14.33.02h0Z" fill="url(#color-1)"/>
</svg>