<?xml version="1.0" encoding="UTF-8"?>
<svg id="_레이어_9" data-name="레이어 9" xmlns="http://www.w3.org/2000/svg" viewBox="0 0 179 137">
  <defs>
    <style>
      .stroke-width {
        stroke-width: .5px;
      }

      .stroke-linecap{
        stroke-linecap: round;
      }

      .stroke-color-1 {
        stroke: #ff6836;
      }

      .stroke-color-2 {
        stroke: #2aaeb3;
      }

      .stroke-color-3 {
        stroke: #404272;
      }

      .stroke-color-4 {
        stroke: #ffcf08;
      }
    </style>
    <linearGradient id="color-1" gradientTransform="rotate(90)">
      <stop offset="0%" stop-color="#ff6836" />
      <stop offset="100%" stop-color="#ff6836" />
      <stop offset="100%" stop-color="white" />
    </linearGradient>
    <linearGradient id="color-2" gradientTransform="rotate(90)">
      <stop offset="0%" stop-color="#2aaeb3" />
      <stop offset="100%" stop-color="#2aaeb3" />
      <stop offset="100%" stop-color="white" />
    </linearGradient>
    <linearGradient id="color-3" gradientTransform="rotate(90)">
      <stop offset="0%" stop-color="#404272" />
      <stop offset="100%" stop-color="#404272" />
      <stop offset="100%" stop-color="white" />
    </linearGradient>
    <linearGradient id="color-4" gradientTransform="rotate(90)">
      <stop offset="0%" stop-color="#ffcf08" />
      <stop offset="100%" stop-color="#ffcf08" />
      <stop offset="100%" stop-color="white" />
    </linearGradient>
  </defs>
  <path class="color-3" d="m122.25,45.36h-13.64c-1.75,0-3.17,1.41-3.17,3.17s1.41,3.17,3.17,3.17h14.3c1.43,0,1.46,1.59,1.46,1.59v-5.13c0-3.12-2.13-2.79-2.13-2.79Z" fill="url(#color-3)"/>
  <path class="color-1" d="m135.6,45.35v3.4s.05,2.94,4.95,2.94h5.62s9.91-.76,9.52,8.27c-.02.3-.04.6-.06.89-.04.36-.1.74-.17,1.13h.06c-2.6,24.82-22.79,32.07-22.79,32.07v.03h-3.91s1.95,1.03,1.43,3.39c-1.13,5.12,2.48,3.39,2.48,3.39,24.68-9.38,28.57-32,29.18-38.88h.04s.06-.63.06-1.66c0-.24,0-.37,0-.37h-.01c-.07-4.47-1.45-14.78-12.65-14.61h-9.12s-4.52-.21-4.76-4.43v-.34c0,.11,0,.23,0,.34l.12,4.43h0Z" fill="url(#color-1)"/>
  <path class="color-2" d="m61.07,17.29s0-1.86-3.17-1.86c-2.25,0-3.17-1.91-3.17-1.91v101.14h6.33V17.29h0,0Zm-3.17,99.86c-3.17,0-3.17-2.48-3.17-2.48h6.33v5.02s-.91-2.54-3.17-2.54Z" fill="url(#color-2)"/>
  <path class="color-2" d="m82.23,58.02h-48.67s-2.48.01-2.48,3.17c0,2.25-2.54,3.17-2.54,3.17h53.69s8.98.23,8.98-6.57v-6.26s-3.6,6.48-8.98,6.48h0Z" fill="url(#color-2)"/>
  <path class="color-4" d="m133.23,41.44v-5.14c0-2.55,2.53-3.19,2.53-3.19h-3.88c-5.09,0-4.99,8.27-4.99,8.33v18.53c-2.97,28.05-22.96,32.22-22.96,32.22h-3.8s1.59,1,1.33,3.4c-.56,5.14,2.31,3.64,2.47,3.55,30-10.88,29.29-39.17,29.29-39.17v-18.52h0Z" fill="url(#color-4)"/>
  <path class="color-4" d="m54.73,64.35s-7.24,28.4-32.74,28.4c0,0-2.48,0-2.48,3.39,0,2.41-2.54,3.39-2.54,3.39h5.02s34.94-1.64,39.07-35.18h-6.33Z" fill="url(#color-4)"/>
  <path class="color-4" d="m98.82,99.83s-2.69-.98-2.54-3.38c.21-3.45-2.48-3.39-2.48-3.39-25.49,0-32.73-23.85-32.73-23.85h-6.33c5.52,32.31,39.07,30.62,39.07,30.62h5.01Z" fill="url(#color-4)"/>
  <path class="color-4" d="m82.23,36.49h-48.67s-8.98-.57-8.98,6.56v6.26s3.6-6.48,8.98-6.48h48.67s2.48.21,2.48-3.41c0-2.41,2.54-2.92,2.54-2.92h-5.02Z" fill="url(#color-4)"/>
  <path class="color-4" d="m92.12,25.48H23.68c-2.74,0-2.69-3.03-2.69-3.03v12.85c0-4.02,2.65-3.5,2.69-3.49h68.43s2.69-.55,2.69,3.5v-12.86s.05,3.02-2.68,3.03Z" fill="url(#color-4)"/>
  <path class="stroke-width stroke-linecap stroke-color-4" d="m24.78,47.59l.11,9.3s.32,8.09,4.84,7.31" fill="none"/>
  <path class="stroke-width stroke-linecap stroke-color-4" d="m91.07,53.04l-.11-9.22s.37-7.97-4.86-7.13" fill="none"/>
  <path class="stroke-width stroke-linecap stroke-color-4" d="m133.15,33.28h20.17s6.37.18,6.19-5.65c0,0,.53-5.62-6.92-5.62h-25.48s-11.01-.03-11.01-5.47c0-2.91-2.92-4.36-5.52-3.84-2.86.57-3.41,3.11-3.41,5.62v18.17s.49,7.28-6.17,7.28c0,0-6.21,0-6.21-7.3l-.25-6.11" fill="none"/>
  <path class="stroke-width stroke-linecap stroke-color-4" d="m129.82,94.3s-7.25-1.22-7.15,8.16c0,0-.01,7.14,9.37,7.14,0,0,5.93-.47,5.93,5.07,0,0-.22,5.02-6.38,5.02h-26.67s-6.54.67-6.54-5.02c0-4.78-6.14-4.39-6.14-4.39h-14.57s-4.36-.26-4.36-5.58c0,0-.72-6.81,5.52-6.81s18.74-.42,18.74-.42l10.25-.2s8.35.17,8.35-6.1c0,0,1.29-6.26-8.75-6.26h-29.38s-12.5,0-12.5,11.46v25.82s.09,2.53-4.15,2.17c0,0-2.95-.26-2.95-2.44s2.58-2.42,2.58-2.42" fill="none"/>
</svg>