<?xml version="1.0" encoding="UTF-8"?>
<svg id="_레이어_10" data-name="레이어 10" xmlns="http://www.w3.org/2000/svg" viewBox="0 0 179 137">
  <defs>
    <style>
      .stroke-width {
        stroke-width: 1.3px;
      }

      .stroke-color-1 {
        stroke: #ffcf08;
      }

      .stroke-color-2 {
        stroke: #fea39c;
      }

      .stroke-color-3 {
        stroke:#327eed;
      }

      .stroke-color-4 {
        stroke: #2032ac;
      }      
    </style>  
    <linearGradient id="color-1" gradientTransform="rotate(90)">
      <stop offset="0%" stop-color="#ffcf08" />
      <stop offset="100%" stop-color="#ffcf08" />
      <stop offset="100%" stop-color="white" />
    </linearGradient>
    <linearGradient id="color-2" gradientTransform="rotate(90)">
      <stop offset="0%" stop-color="#fea39c" />
      <stop offset="100%" stop-color="#fea39c" />
      <stop offset="100%" stop-color="white" />
    </linearGradient>
    <linearGradient id="color-3" gradientTransform="rotate(90)">
      <stop offset="0%" stop-color="#327eed" />
      <stop offset="100%" stop-color="#327eed" />
      <stop offset="100%" stop-color="white" />
    </linearGradient>   
    <linearGradient id="color-4" gradientTransform="rotate(90)">
      <stop offset="0%" stop-color="#2032ac" />
      <stop offset="100%" stop-color="#2032ac" />
      <stop offset="100%" stop-color="white" />
    </linearGradient>  
  </defs>
  <path class="color-4" d="m99.84,53.71c6.54,0,11.83-5.3,11.83-11.83s-5.3-11.83-11.83-11.83-11.83,5.3-11.83,11.83,5.3,11.83,11.83,11.83Z" fill="url(#color-2)"/>
  <path class="color-2" d="m126.71,82.82c6.54,0,11.83-5.3,11.83-11.83s-5.3-11.83-11.83-11.83-11.83,5.3-11.83,11.83,5.3,11.83,11.83,11.83Z" fill="url(#color-4)"/>
  <path class="color-1" d="m141.35,50.14c2.21,0,4-1.79,4-4s-1.79-4-4-4-4,1.79-4,4,1.79,4,4,4Z" fill="url(#color-3)"/>
  <path class="color-4" d="m38.49,123.59c1.66,0,3-1.34,3-3s-1.34-3-3-3-3,1.34-3,3,1.34,3,3,3Z" fill="url(#color-2)"/>
  <path class="color-2" d="m16.96,89.2c1.66,0,3-1.34,3-3s-1.34-3-3-3-3,1.34-3,3,1.34,3,3,3Z" fill="url(#color-4)"/>
  <path class="color-2" d="m162.04,78.7c1.66,0,3-1.34,3-3s-1.34-3-3-3-3,1.34-3,3,1.34,3,3,3Z" fill="url(#color-4)"/>
  <path class="color-1" d="m70.93,82.82c6.54,0,11.83-5.3,11.83-11.83s-5.3-11.83-11.83-11.83-11.83,5.3-11.83,11.83,5.3,11.83,11.83,11.83Z" fill="url(#color-3)"/>
  <path class="color-3" d="m151.12,112.03H52.23c-11.79,0-19.5-2.98-23.56-9.12-2.86-4.32-2.98-9.19-2.08-12.75.2-8.63.52-28.55,0-34.79-.36-4.33-4.36-12.45-7.09-16.83-2.59-4.16-1.32-9.63,2.84-12.23,4.16-2.59,9.62-1.33,12.22,2.83.9,1.45,8.86,14.44,9.71,24.76.73,8.85.06,36.74.03,37.92l-.04,1.49c1.2.42,3.58.97,7.96.97h98.89c4.9,0,8.88,3.97,8.88,8.88s-3.97,8.88-8.88,8.88h0Z" fill="url(#color-1)"/>
  <path fill="#ffffff" class="color-5" d="m31.73,42.27h19.76c1.88,0,3.4,1.52,3.4,3.4s-1.52,3.4-3.4,3.4h-.29s-1.08.13-1.08,1.04c0,.26.09.44.21.58h12c1.88,0,3.4,1.52,3.4,3.4s-1.52,3.4-3.4,3.4h-19.76c-1.88,0-3.4-1.52-3.4-3.4s1.52-3.4,3.4-3.4h2.89c.1-.13.16-.32.16-.56,0-1.04-1.16-1.07-1.16-1.07h-12.75c-1.88,0-3.4-1.52-3.4-3.4s1.52-3.4,3.4-3.4h0Z"/>
  <path fill="#ffffff" class="color-5" d="m148.08,94.84h-6.69c-1.81,0-3.27,1.46-3.27,3.27v.27c0,1.81,1.46,3.27,3.27,3.27h6.69c1.81,0,3.27-1.46,3.27-3.27v-.27c0-1.81-1.46-3.27-3.27-3.27Z"/>
  <path fill="#ffffff" class="color-5" d="m142.08,86.2h-19.76c-1.88,0-3.4,1.52-3.4,3.4s1.52,3.4,3.4,3.4h.29s1.08.13,1.08,1.04c0,.26-.09.44-.21.58h-12c-1.88,0-3.4,1.52-3.4,3.4s1.52,3.4,3.4,3.4h19.76c1.88,0,3.4-1.52,3.4-3.4s-1.52-3.4-3.4-3.4h-2.89c-.1-.13-.16-.32-.16-.56,0-1.04,1.16-1.07,1.16-1.07h12.75c1.88,0,3.4-1.52,3.4-3.4s-1.52-3.4-3.4-3.4h0Z"/>
</svg>