<?xml version="1.0" encoding="UTF-8"?>
<svg id="layer1" xmlns="http://www.w3.org/2000/svg" viewBox="0 0 179 137">
  <defs>
    <style>
      .stroke-width {
        stroke-width: 1px;
      }

      .stroke-color-1 {
        stroke: #ffcf08;
      }

      .stroke-color-2 {
        stroke: #ff6836;
      }

      .stroke-color-3 {
        stroke: #404272;
      }

      .stroke-color-4 {
        stroke: #2aaeb3;
      }
    </style>
    <linearGradient id="color-1" gradientTransform="rotate(90)">
      <stop offset="0%" stop-color="#ffcf08" />
      <stop offset="100%" stop-color="#ffcf08" />
      <stop offset="100%" stop-color="white" />
    </linearGradient>
    <linearGradient id="color-2" gradientTransform="rotate(90)">
      <stop offset="0%" stop-color="#ff6836" />
      <stop offset="100%" stop-color="#ff6836" />
      <stop offset="100%" stop-color="white" />
    </linearGradient>
    <linearGradient id="color-3" gradientTransform="rotate(90)">
      <stop offset="0%" stop-color="#404272" />
      <stop offset="100%" stop-color="#404272" />
      <stop offset="100%" stop-color="white" />
    </linearGradient>
    <linearGradient id="color-4" gradientTransform="rotate(90)">
      <stop offset="0%" stop-color="#2aaeb3" />
      <stop offset="100%" stop-color="#2aaeb3" />
      <stop offset="100%" stop-color="white" />
    </linearGradient>
  </defs>
  <path class="color-3" d="m84.15,97.27l-18.78-13.19c-3.8-2.67-9.05-1.76-11.72,2.05-2.67,3.8-1.75,9.05,2.05,11.72l18.78,13.19c3.8,2.67,9.05,1.76,11.72-2.05,2.67-3.8,1.75-9.05-2.05-11.72Z" fill="url(#color-3)"/>
  <path class="color-3" d="m141.38,35.34c1.82-4.27-.18-9.22-4.45-11.04-4.27-1.82-9.22.18-11.04,4.45l-4.03,9.5h18.28l1.24-2.91Z" fill="url(#color-3)"/>
  <path class="color-4" d="m29.53,27.94c-4.56.1-8.22,3.82-8.22,8.4v.18c0,4.59,3.67,8.31,8.22,8.4,2.22-2.15,3.61-5.16,3.61-8.5s-1.38-6.35-3.61-8.5h0Z" fill="url(#color-4)"/>
  <path class="color-4" d="m77.66,44.94c4.56-.1,8.22-3.82,8.22-8.4v-.18c0-4.59-3.67-8.31-8.22-8.4-2.22,2.15-3.61,5.16-3.61,8.5s1.38,6.35,3.61,8.5h0Z" fill="url(#color-4)"/>
  <path class="color-4" d="m53.56,86.11c-1.96-2.8-5.32-4.02-8.47-3.42v19.65l6.42-4.51c3.8-2.67,4.72-7.92,2.05-11.72h0Z" fill="url(#color-4)"/>
  <path class="color-4" d="m62.1,27.94h-17.01v17.01h17.01v-17.01Z" fill="url(#color-4)"/>
  <path class="color-4" d="m62.1,69.91h-17.01v7.89h17.01v-7.89Z" fill="url(#color-4)"/>
  <path class="color-4" d="m62.1,51.51h-17.01v7.89h17.01v-7.89Z" fill="url(#color-4)"/>
  <path class="color-4" d="m121.85,38.26l-7.22,17.01h18.28l7.22-17.01h-18.28Z" fill="url(#color-4)"/>
  <path class="color-4" d="m169.4,46.77c0-2.05-.72-3.93-1.93-5.4-.71-.85-1.58-1.57-2.56-2.1-1.2-.64-2.56-1.01-4.01-1.01h-1.35c-4.39.55-7.78,4.3-7.76,8.85.01,2.88-.06,5.6-.21,8.17h9.33c4.7,0,8.51-3.81,8.51-8.51h0Z" fill="url(#color-4)"/>
  <path class="color-2" d="m41.83,84.07l-18.78,13.19c-3.8,2.67-4.72,7.92-2.05,11.72,2.67,3.8,7.92,4.72,11.72,2.05l12.37-8.69v-19.65c-1.14.21-2.25.67-3.25,1.38h0Z" fill="url(#color-2)"/>
  <path class="color-2" d="m29.72,27.94c-.07,0-.13,0-.18,0,2.22,2.15,3.61,5.16,3.61,8.5s-1.38,6.35-3.61,8.5c.06,0,.13,0,.18,0h15.38v-17.01h-15.38Z" fill="url(#color-2)"/>
  <path class="color-2" d="m77.48,44.95c.07,0,.13,0,.18,0-2.22-2.15-3.61-5.16-3.61-8.5s1.38-6.35,3.61-8.5c-.07,0-.13,0-.18,0h-15.37v17.01h15.37Z" fill="url(#color-2)"/>
  <path class="color-2" d="m104.82,38.26c-4.7,0-8.51,3.81-8.51,8.51s3.81,8.51,8.51,8.51h9.81l7.23-17.01h-17.04Z" fill="url(#color-2)"/>
  <path class="color-2" d="m159.54,38.26h-19.4l-7.23,17.01h18.65c.16-2.57.23-5.28.21-8.17-.02-4.54,3.37-8.29,7.76-8.85h0Z" fill="url(#color-2)"/>
  <path class="color-1" d="m21.3,36.53v-.18c0-4.59,3.67-8.31,8.22-8.4-2.13-2.06-5.03-3.34-8.22-3.34-6.54,0-11.83,5.3-11.83,11.83s5.3,11.83,11.83,11.83c3.2,0,6.09-1.27,8.22-3.34-4.56-.1-8.22-3.82-8.22-8.4h0Z" fill="url(#color-1)"/>
  <path class="color-1" d="m85.89,36.35v.18c0,4.59-3.67,8.31-8.22,8.4,2.13,2.06,5.03,3.34,8.22,3.34,6.54,0,11.83-5.3,11.83-11.83s-5.3-11.83-11.83-11.83c-3.2,0-6.09,1.27-8.22,3.34,4.56.1,8.22,3.82,8.22,8.4h0Z" fill="url(#color-1)"/>
  <path class="color-1" d="m62.1,25.35c0-4.7-3.81-8.51-8.51-8.51s-8.51,3.81-8.51,8.51v2.59h17.01v-2.59Z" fill="url(#color-1)"/>
  <path class="color-1" d="m62.1,59.39h-17.01v10.51h17.01v-10.51Z" fill="url(#color-1)"/>
  <path class="color-1" d="m62.1,44.95h-17.01v6.56h17.01v-6.56Z" fill="url(#color-1)"/>
  <path class="color-1" d="m45.09,82.7c3.15-.6,6.5.63,8.47,3.42,2.67,3.8,1.75,9.05-2.05,11.72l-6.42,4.51v9.3c0,4.7,3.81,8.51,8.51,8.51s8.51-3.81,8.51-8.51v-33.84h-17.01v4.9h0Z" fill="url(#color-1)"/>
  <path class="color-1" d="m25.75,69.91v-10.51h19.34v-7.89h-24.23c-2.7,0-4.89,1.77-4.89,3.94v18.4c0,2.18,2.19,3.94,4.89,3.94h24.23v-7.89h-19.34Z" fill="url(#color-1)"/>
  <path class="color-1" d="m81.44,59.39v10.51h-19.34v7.89h24.23c2.7,0,4.89-1.77,4.89-3.94v-18.4c0-2.18-2.19-3.94-4.89-3.94h-24.23v7.89h19.34Z" fill="url(#color-1)"/>
  <path class="color-1" d="m167.47,41.37c-.7-.86-1.58-1.58-2.56-2.1.98.53,1.85,1.25,2.56,2.1Z" fill="url(#color-1)"/>
  <path class="color-1" d="m95.01,101.47c-1.82,4.27.18,9.22,4.45,11.04,4.27,1.82,9.22-.18,11.04-4.45l22.41-52.78h-18.28l-19.62,46.2h0Z" fill="url(#color-1)"/>
  <path class="color-1" d="m164.9,39.27c-1.26-.69-2.71-1.08-4.25-1.08h-.04c-.36,0-.72.03-1.07.07h1.35c1.45,0,2.82.36,4.01,1.01Z" fill="url(#color-1)"/>
  <path class="color-1" d="m167.47,41.37c1.21,1.47,1.93,3.35,1.93,5.4,0,4.7-3.81,8.51-8.51,8.51h-9.33c-2.33,38.86-22.71,42.25-22.71,42.25,0,0-9.85,1.44-7.84,10.52,1.86,8.39,9.56,7.15,9.56,7.15,1.6-.16,39.27-4.55,38.96-68.17,0-2.15-.78-4.12-2.06-5.65Z" fill="url(#color-1)"/>
  <path fill="#ffffff" class="color-5" d="m126.73,76.91h-6.18c-1.81,0-3.27,1.46-3.27,3.27s1.46,3.27,3.27,3.27h6.18c1.81,0,3.27-1.46,3.27-3.27s-1.46-3.27-3.27-3.27Z"/>
  <path fill="#ffffff" class="color-5" d="m156.62,76.91h-18.99c-1.8,0-3.27,1.46-3.27,3.27s1.46,3.27,3.27,3.27h.27s1.04.13,1.04,1c0,.24-.09.42-.21.56h-11.54c-1.8,0-3.27,1.46-3.27,3.27s1.46,3.27,3.27,3.27h18.99c1.8,0,3.27-1.46,3.27-3.27s-1.46-3.27-3.27-3.27h-2.78c-.1-.13-.16-.3-.16-.54,0-1,1.12-1.02,1.12-1.02h12.26c1.8,0,3.27-1.46,3.27-3.27s-1.46-3.27-3.27-3.27h0Z"/>
  <path fill="#ffffff" class="color-5" d="m73.39,106.02h-17.1c-1.81,0-3.27,1.46-3.27,3.27s1.46,3.27,3.27,3.27h17.1c1.81,0,3.27-1.46,3.27-3.27s-1.46-3.27-3.27-3.27Z"/>
  <path class="color-1" d="m103.13,126.37c2.21,0,4-1.79,4-4s-1.79-4-4-4-4,1.79-4,4,1.79,4,4,4Z" fill="url(#color-1)"/>
  <path class="color-4" d="m13.47,92.22c2.21,0,4-1.79,4-4s-1.79-4-4-4-4,1.79-4,4,1.79,4,4,4Z" fill="url(#color-4)"/>
  <path class="color-2" d="m104.48,24.63c1.66,0,3-1.34,3-3s-1.34-3-3-3-3,1.34-3,3,1.34,3,3,3Z" fill="url(#color-2)"/>
  <path class="color-4" d="m92.5,121.37c1.66,0,3-1.34,3-3s-1.34-3-3-3-3,1.34-3,3,1.34,3,3,3Z" fill="url(#color-4)"/>
</svg>