<?xml version="1.0" encoding="UTF-8"?>
<svg id="bot12" xmlns="http://www.w3.org/2000/svg" viewBox="0 0 179 137">
  <defs>
    <style>
      .stroke-width {
        stroke-width: 1.3px;
      }

      .stroke-color-1 {
        stroke: #fa4013;
      }

      .stroke-color-2 {
        stroke: #9cd323;
      }

      .stroke-color-3 {
        stroke:#404272;
      }

      .stroke-color-4 {
        stroke: #ffffff;
      }      
    </style>
    <linearGradient id="color-1" gradientTransform="rotate(90)">
      <stop offset="0%" stop-color="#fa4013" />
      <stop offset="100%" stop-color="#fa4013" />
      <stop offset="100%" stop-color="white" />
    </linearGradient>
    <linearGradient id="color-2" gradientTransform="rotate(90)">
      <stop offset="0%" stop-color="#9cd323" />
      <stop offset="100%" stop-color="#9cd323" />
      <stop offset="100%" stop-color="white" />
    </linearGradient>
    <linearGradient id="color-3" gradientTransform="rotate(90)">
      <stop offset="0%" stop-color="#404272" />
      <stop offset="100%" stop-color="#404272" />
      <stop offset="100%" stop-color="white" />
    </linearGradient>   
    <linearGradient id="color-4" gradientTransform="rotate(90)">
      <stop offset="0%" stop-color="#ffffff" />
      <stop offset="100%" stop-color="#ffffff" />
      <stop offset="100%" stop-color="white" />
    </linearGradient>  
  </defs>
  <path class="color-2" d="m76.19,82.62c4.26,0,7.72-3.46,7.72-7.72s-3.46-7.72-7.72-7.72-7.72,3.46-7.72,7.72,3.46,7.72,7.72,7.72Z" fill="url(#color-2)"/>
  <path class="color-3" d="m92.96,70.81c4.26,0,7.72-3.46,7.72-7.72s-3.46-7.72-7.72-7.72-7.72,3.46-7.72,7.72,3.46,7.72,7.72,7.72Z" fill="url(#color-3)"/>
  <path stroke-linejoin="round" stroke-linecap="round" class="stroke-width stroke-color-1" d="m92.96,63.09s-.62,11.62-16.76,11.62" fill="none"/>
  <path class="color-1" d="m132.08,23.54h-7.72v41.56h7.72V23.54Z" fill="url(#color-1)"/>
  <path class="color-3" d="m145.56,76.68h-7.72v26.7h7.72v-26.7Z" fill="url(#color-3)"/>
  <path class="color-1" d="m73.84,23.54h-7.72v41.56h7.72V23.54Z" fill="url(#color-1)"/>
  <path stroke-linejoin="round" stroke-linecap="round" class="stroke-width stroke-color-1" d="m127.6,27.01h-57.52" fill="none"/>
  <path stroke-linejoin="round" stroke-linecap="round" class="stroke-width stroke-color-1" d="m142.95,79.61h-24.67" fill="none"/>
  <path stroke-linejoin="round" stroke-linecap="round" class="stroke-width stroke-color-1" d="m142.95,99.85h-24.67" fill="none"/>
  <path stroke-linejoin="round" stroke-linecap="round" class="stroke-width stroke-color-1" d="m127.6,61.95h-57.52" fill="none"/>
  <path stroke-linejoin="round" stroke-linecap="round" class="stroke-width stroke-color-1" d="m90.52,37.3l14.03,14.03" fill="none"/>
  <path stroke-linejoin="round" stroke-linecap="round" class="stroke-width stroke-color-1" d="m104.55,37.3l-14.03,14.03" fill="none"/>
  <path class="color-2" d="m41.16,113.46c4.26,0,7.72-3.46,7.72-7.72s-3.46-7.72-7.72-7.72-7.72,3.46-7.72,7.72,3.46,7.72,7.72,7.72Z" fill="url(#color-2)"/>
  <path stroke-linejoin="round" stroke-linecap="round" class="stroke-width stroke-color-1" d="m67.21,64.17s-.96,41.89-26.05,41.89" fill="none"/>
  <path class="color-1" d="m77.7,89.2l-5.7-4.14-14.4,19.81,5.7,4.14,14.4-19.81Z" fill="url(#color-1)"/>
  <path class="color-2" d="m106.46,104.82l5.73-4.09-14.22-19.93-5.73,4.09,14.22,19.93Z" fill="url(#color-2)"/>
  <path stroke-linejoin="round" stroke-linecap="round" class="stroke-width stroke-color-1" d="m79.72,78.69h11.93" fill="none"/>
  <path stroke-linejoin="round" stroke-linecap="round" class="stroke-width stroke-color-1" d="m79.72,83.01h11.93" fill="none"/>
  <path stroke-linejoin="round" stroke-linecap="round" class="stroke-width stroke-color-1" d="m79.72,87.32h11.93" fill="none"/>
  <path stroke-linejoin="round" stroke-linecap="round" class="stroke-width stroke-color-1" d="m79.72,91.64h11.93" fill="none"/>
  <path stroke-linejoin="round" stroke-linecap="round" class="stroke-width stroke-color-1" d="m79.72,95.95h11.93" fill="none"/>
  <path stroke-linejoin="round" stroke-linecap="round" class="stroke-width stroke-color-1" d="m79.72,100.27h11.93" fill="none"/>
  <path stroke-linejoin="round" stroke-linecap="round" class="stroke-width stroke-color-1" d="m112.32,83.23h11.93" fill="none"/>
  <path stroke-linejoin="round" stroke-linecap="round" class="stroke-width stroke-color-1" d="m112.32,87.56h11.93" fill="none"/>
  <path stroke-linejoin="round" stroke-linecap="round" class="stroke-width stroke-color-1" d="m112.32,91.87h11.93" fill="none"/>
  <path stroke-linejoin="round" stroke-linecap="round" class="stroke-width stroke-color-1" d="m112.32,96.19h11.93" fill="none"/>
  <path stroke-linejoin="round" stroke-linecap="round" class="stroke-width stroke-color-1" d="m79.72,104.59h11.93" fill="none"/>
</svg>