<?xml version="1.0" encoding="UTF-8"?>
<svg xmlns="http://www.w3.org/2000/svg" viewBox="0 0 179 137">
  <defs>
    <style>

      .stroke-color-1 {
        stroke: #ffcf08;
      }

      .stroke-color-2 {
        stroke: #ff6836;
      }

      .stroke-color-3 {
        stroke: #404272;
      }

      .stroke-color-4 {
        stroke: #2aaeb3;
      }
    </style>
    <linearGradient id="color-1" gradientTransform="rotate(90)">
      <stop offset="0%" stop-color="#ffcf08" />
      <stop offset="100%" stop-color="#ffcf08" />
      <stop offset="100%" stop-color="white" />
    </linearGradient>
    <linearGradient id="color-2" gradientTransform="rotate(90)">
      <stop offset="0%" stop-color="#ff6836" />
      <stop offset="100%" stop-color="#ff6836" />
      <stop offset="100%" stop-color="white" />
    </linearGradient>
    <linearGradient id="color-3" gradientTransform="rotate(90)">
      <stop offset="0%" stop-color="#404272" />
      <stop offset="100%" stop-color="#404272" />
      <stop offset="100%" stop-color="white" />
    </linearGradient>
    <linearGradient id="color-4" gradientTransform="rotate(90)">
      <stop offset="0%" stop-color="#2aaeb3" />
      <stop offset="100%" stop-color="#2aaeb3" />
      <stop offset="100%" stop-color="white" />
    </linearGradient>
  </defs>
    <path class="color-2" d="m70.79,124.83c1.66,0,3-1.34,3-3s-1.34-3-3-3-3,1.34-3,3,1.34,3,3,3Z" fill="url(#color-2)"/>
    <path class="color-4" d="m104.73,19.62c2.21,0,4-1.79,4-4s-1.79-4-4-4-4,1.79-4,4,1.79,4,4,4Z" fill="url(#color-4)"/>
    <path class="color-4" d="m83.57,130.83c1.66,0,3-1.34,3-3s-1.34-3-3-3-3,1.34-3,3,1.34,3,3,3Z" fill="url(#color-4)"/>
    <path class="color-1" d="m88.77,45.48c6.54,0,11.83-5.3,11.83-11.83s-5.3-11.83-11.83-11.83-11.83,5.3-11.83,11.83,5.3,11.83,11.83,11.83Z" fill="url(#color-1)"/>
    <path class="color-4" d="m88.77,115.18c6.54,0,11.83-5.3,11.83-11.83s-5.3-11.83-11.83-11.83-11.83,5.3-11.83,11.83,5.3,11.83,11.83,11.83Z" fill="url(#color-4)"/>
    <path class="color-2" d="m88.77,80.33c6.54,0,11.83-5.3,11.83-11.83s-5.3-11.83-11.83-11.83-11.83,5.3-11.83,11.83,5.3,11.83,11.83,11.83Z" fill="url(#color-1)"/>
    <path class="color-1" d="m19.02,40.07c0-2.65,2.17-4.81,4.81-4.81h5.04v-4.25h-5.04c-2.64,0-4.81-2.17-4.81-4.81s2.17-4.81,4.81-4.81h4.06c-1.42-2.71-4.26-4.56-7.54-4.56-4.7,0-8.51,3.81-8.51,8.51v15.6c0,4.7,3.81,8.51,8.51,8.51,3.28,0,6.11-1.85,7.54-4.56h-4.06c-2.64,0-4.81-2.17-4.81-4.81h0Z" fill="url(#color-2)"/>
    <path class="color-1" d="m56.29,16.83c-3.28,0-6.11,1.85-7.54,4.56h3c2.64,0,4.81,2.17,4.81,4.81s-2.17,4.81-4.81,4.81h-3.97v4.25h3.97c2.64,0,4.81,2.16,4.81,4.81s-2.17,4.81-4.81,4.81h-3c1.42,2.71,4.26,4.56,7.54,4.56,4.7,0,8.51-3.81,8.51-8.51v-15.6c0-4.7-3.81-8.51-8.51-8.51h0Z" fill="url(#color-1)"/>
    <path class="color-1" d="m19.02,75.31c0-2.66,2.18-4.84,4.84-4.84h4.99v-4.17h-4.99c-2.66,0-4.84-2.18-4.84-4.84s2.18-4.84,4.84-4.84h3.93c-1.45-2.63-4.24-4.4-7.45-4.4-4.7,0-8.51,3.81-8.51,8.51v15.6c0,4.7,3.81,8.51,8.51,8.51,3.31,0,6.17-1.89,7.57-4.64h-4.06c-2.66,0-4.84-2.18-4.84-4.84h0Z" fill="url(#color-1)"/>
    <path class="color-4" d="m56.29,52.2c-3.21,0-6,1.78-7.45,4.4h2.88c2.66,0,4.84,2.18,4.84,4.84s-2.18,4.84-4.84,4.84h-3.93v4.17h3.93c2.66,0,4.84,2.18,4.84,4.84s-2.18,4.84-4.84,4.84h-3c1.41,2.76,4.27,4.64,7.57,4.64,4.7,0,8.51-3.81,8.51-8.51v-15.6c0-4.7-3.81-8.51-8.51-8.51h0Z" fill="url(#color-4)"/>
    <path class="color-4" d="m19.02,110.78c0-2.66,2.18-4.84,4.84-4.84h4.99v-4.17h-4.99c-2.66,0-4.84-2.18-4.84-4.84s2.18-4.84,4.84-4.84h4c-1.43-2.68-4.25-4.51-7.51-4.51-4.7,0-8.51,3.81-8.51,8.51v15.6c0,4.7,3.81,8.51,8.51,8.51,3.26,0,6.09-1.84,7.52-4.53h-4.01c-2.66,0-4.84-2.18-4.84-4.84h0Z" fill="url(#color-4)"/>
    <path class="color-1" d="m56.29,87.56c-3.25,0-6.08,1.83-7.51,4.51h2.94c2.66,0,4.84,2.18,4.84,4.84s-2.18,4.84-4.84,4.84h-3.93v4.17h3.93c2.66,0,4.84,2.18,4.84,4.84s-2.18,4.84-4.84,4.84h-2.94c1.43,2.69,4.26,4.53,7.52,4.53,4.7,0,8.51-3.81,8.51-8.51v-15.6c0-4.7-3.81-8.51-8.51-8.51h0Z" fill="url(#color-1)"/>
    <path class="color-4" d="m120.86,40.07c0-2.66,2.18-4.84,4.84-4.84h4.23v-4.17h-4.23c-2.66,0-4.84-2.18-4.84-4.84s2.18-4.84,4.84-4.84h3.24c-1.43-2.69-4.25-4.53-7.51-4.53-4.7,0-8.51,3.81-8.51,8.51v15.6c0,4.7,3.81,8.51,8.51,8.51,3.26,0,6.09-1.83,7.51-4.53h-3.24c-2.66,0-4.84-2.18-4.84-4.84h0Z" fill="url(#color-4)"/>
    <path class="color-1" d="m157.98,16.83h-1.24c-3.15,0-5.87,1.85-7.13,4.53h3.93c2.66,0,4.84,2.18,4.84,4.84s-2.18,4.84-4.84,4.84h-4.7v4.17h4.7c2.66,0,4.84,2.18,4.84,4.84s-2.18,4.84-4.84,4.84h-3.93c1.26,2.67,3.98,4.53,7.13,4.53h1.24c4.36,0,7.89-3.54,7.89-7.89v-16.83c0-4.36-3.54-7.89-7.89-7.89h0Z" fill="url(#color-1)"/>
    <path class="color-1" d="m120.86,75.31c0-2.65,2.17-4.81,4.81-4.81h4.27v-4.25h-4.27c-2.64,0-4.81-2.17-4.81-4.81s2.17-4.81,4.81-4.81h3.24c-1.44-2.65-4.25-4.45-7.47-4.45-4.7,0-8.51,3.81-8.51,8.51v15.6c0,4.7,3.81,8.51,8.51,8.51,3.32,0,6.19-1.91,7.59-4.69h-3.36c-2.64,0-4.81-2.17-4.81-4.81Z" fill="url(#color-1)"/>
    <path class="color-1" d="m157.37,52.2c-3.22,0-6.03,1.8-7.47,4.45h3.71c2.65,0,4.81,2.17,4.81,4.81s-2.16,4.81-4.81,4.81h-4.73v4.25h4.73c2.65,0,4.81,2.16,4.81,4.81s-2.16,4.81-4.81,4.81h-3.82c1.4,2.77,4.27,4.69,7.6,4.69,4.7,0,8.51-3.81,8.51-8.51v-15.6c0-4.7-3.81-8.51-8.51-8.51h0Z" fill="url(#color-1)"/>
    <path class="color-1" d="m120.86,110.78c0-2.66,2.18-4.84,4.84-4.84h4.23v-4.17h-4.23c-2.66,0-4.84-2.18-4.84-4.84s2.18-4.84,4.84-4.84h3.23c-1.43-2.68-4.25-4.51-7.51-4.51-4.7,0-8.51,3.81-8.51,8.51v15.6c0,4.7,3.81,8.51,8.51,8.51,3.26,0,6.09-1.84,7.52-4.53h-3.25c-2.66,0-4.84-2.18-4.84-4.84h0Z" fill="url(#color-1)"/>
    <path class="color-1" d="m157.37,87.56c-3.25,0-6.08,1.83-7.51,4.51h3.7c2.66,0,4.84,2.18,4.84,4.84s-2.18,4.84-4.84,4.84h-4.7v4.17h4.7c2.66,0,4.84,2.18,4.84,4.84s-2.18,4.84-4.84,4.84h-3.71c1.43,2.69,4.26,4.53,7.52,4.53,4.7,0,8.51-3.81,8.51-8.51v-15.6c0-4.7-3.81-8.51-8.51-8.51h0Z" fill="url(#color-1)"/>
    <path class="color-2" d="m28.86,31.01h18.92v-5.67c0-1.42.36-2.77.97-3.94h-20.86c.62,1.18.97,2.51.97,3.94v5.67h0Z" fill="url(#color-2)"/>
    <path class="color-4" d="m19.02,26.2c0,2.64,2.17,4.81,4.81,4.81h5.04v-5.67c0-1.42-.36-2.77-.97-3.94h-4.06c-2.64,0-4.81,2.17-4.81,4.81h0Z" fill="url(#color-4)"/>
    <path class="color-4" d="m47.78,31.01h3.97c2.64,0,4.81-2.17,4.81-4.81s-2.17-4.81-4.81-4.81h-3c-.62,1.18-.97,2.51-.97,3.94v5.67Z" fill="url(#color-4)"/>
    <path class="color-2" d="m47.78,35.26h-18.92v5.67c0,1.42-.36,2.77-.97,3.94h20.86c-.62-1.18-.97-2.51-.97-3.94v-5.67h0Z" fill="url(#color-2)"/>
    <path class="color-4" d="m28.86,35.26h-5.04c-2.64,0-4.81,2.16-4.81,4.81s2.17,4.81,4.81,4.81h4.06c.62-1.18.97-2.51.97-3.94v-5.67h0Z" fill="url(#color-4)"/>
    <path class="color-4" d="m56.56,40.07c0-2.65-2.17-4.81-4.81-4.81h-3.97v5.67c0,1.42.36,2.77.97,3.94h3c2.64,0,4.81-2.17,4.81-4.81Z" fill="url(#color-4)"/>
    <path class="color-2" d="m28.86,66.3h18.92v-5.59c0-1.49.38-2.88,1.06-4.1h-21.03c.67,1.22,1.06,2.62,1.06,4.1v5.59Z" fill="url(#color-2)"/>
    <path class="color-4" d="m19.02,61.44c0,2.66,2.18,4.84,4.84,4.84h4.99v-5.59c0-1.49-.38-2.88-1.06-4.1h-3.93c-2.66,0-4.84,2.18-4.84,4.84h0Z" fill="url(#color-4)"/>
    <path class="color-4" d="m47.78,66.3h3.93c2.66,0,4.84-2.18,4.84-4.84s-2.18-4.84-4.84-4.84h-2.88c-.67,1.22-1.06,2.62-1.06,4.1v5.59h0Z" fill="url(#color-4)"/>
    <path class="color-2" d="m47.78,70.46h-18.92v5.84c0,1.39-.34,2.7-.93,3.86h20.79c-.59-1.16-.93-2.47-.93-3.86v-5.84h0Z" fill="url(#color-2)"/>
    <path class="color-4" d="m28.86,70.46h-4.99c-2.66,0-4.84,2.18-4.84,4.84s2.18,4.84,4.84,4.84h4.06c.59-1.16.93-2.47.93-3.86v-5.84h0Z" fill="url(#color-4)"/>
    <path class="color-4" d="m56.56,75.31c0-2.66-2.18-4.84-4.84-4.84h-3.93v5.84c0,1.39.34,2.7.93,3.86h3c2.66,0,4.84-2.18,4.84-4.84h0Z" fill="url(#color-4)"/>
    <path class="color-2" d="m28.86,101.77h18.92v-5.7c0-1.44.36-2.8,1-3.99h-20.92c.64,1.19,1,2.55,1,3.99v5.7Z" fill="url(#color-2)"/>
    <path class="color-4" d="m19.02,96.92c0,2.66,2.18,4.84,4.84,4.84h4.99v-5.7c0-1.44-.36-2.8-1-3.99h-4c-2.66,0-4.84,2.18-4.84,4.84h0Z" fill="url(#color-4)"/>
    <path class="color-4" d="m47.78,101.77h3.93c2.66,0,4.84-2.18,4.84-4.84s-2.18-4.84-4.84-4.84h-2.94c-.64,1.19-1,2.55-1,3.99v5.7h0Z" fill="url(#color-4)"/>
    <path class="color-2" d="m47.78,105.94h-18.92v5.72c0,1.43-.36,2.79-.98,3.97h20.89c-.63-1.18-.98-2.54-.98-3.97v-5.72h0Z" fill="url(#color-2)"/>
    <path class="color-4" d="m28.86,105.94h-4.99c-2.66,0-4.84,2.18-4.84,4.84s2.18,4.84,4.84,4.84h4.01c.63-1.18.98-2.54.98-3.97v-5.72h0Z" fill="url(#color-4)"/>
    <path class="color-4" d="m56.56,110.78c0-2.66-2.18-4.84-4.84-4.84h-3.93v5.72c0,1.43.36,2.79.98,3.97h2.94c2.66,0,4.84-2.18,4.84-4.84h0Z" fill="url(#color-4)"/>
    <path class="color-2" d="m129.93,31.05h18.92v-6.33c0-1.21.28-2.34.76-3.37h-20.67c.63,1.19.99,2.54.99,3.98v5.72Z" fill="url(#color-2)"/>
    <path class="color-4" d="m120.86,26.2c0,2.66,2.18,4.84,4.84,4.84h4.23v-5.72c0-1.44-.36-2.8-.99-3.98h-3.24c-2.66,0-4.84,2.18-4.84,4.84h0Z" fill="url(#color-4)"/>
    <path class="color-4" d="m148.86,31.05h4.7c2.66,0,4.84-2.18,4.84-4.84s-2.18-4.84-4.84-4.84h-3.93c-.48,1.02-.76,2.16-.76,3.37v6.33h0Z" fill="url(#color-4)"/>
    <path class="color-2" d="m148.86,35.22h-18.92v5.71c0,1.44-.36,2.8-.99,3.98h20.67c-.48-1.02-.76-2.16-.76-3.37v-6.33h0Z" fill="url(#color-2)"/>
    <path class="color-4" d="m129.93,35.22h-4.23c-2.66,0-4.84,2.18-4.84,4.84s2.18,4.84,4.84,4.84h3.24c.63-1.19.99-2.54.99-3.98v-5.71Z" fill="url(#color-4)"/>
    <path class="color-4" d="m158.4,40.07c0-2.66-2.18-4.84-4.84-4.84h-4.7v6.33c0,1.21.28,2.34.76,3.37h3.93c2.66,0,4.84-2.18,4.84-4.84h0Z" fill="url(#color-4)"/>
    <path class="color-2" d="m129.93,66.25h18.92v-5.55c0-1.47.38-2.85,1.04-4.06h-20.99c.66,1.21,1.04,2.59,1.04,4.06v5.55Z" fill="url(#color-2)"/>
    <path class="color-4" d="m120.86,61.44c0,2.64,2.17,4.81,4.81,4.81h4.27v-5.55c0-1.47-.38-2.85-1.04-4.06h-3.24c-2.64,0-4.81,2.17-4.81,4.81Z" fill="url(#color-4)"/>
    <path class="color-4" d="m148.86,66.25h4.73c2.65,0,4.81-2.17,4.81-4.81s-2.16-4.81-4.81-4.81h-3.71c-.66,1.21-1.04,2.59-1.04,4.06v5.55h0Z" fill="url(#color-4)"/>
    <path class="color-2" d="m148.86,70.5h-18.92v5.8c0,1.38-.33,2.67-.92,3.82h20.75c-.58-1.15-.91-2.44-.91-3.82v-5.8Z" fill="url(#color-2)"/>
    <path class="color-4" d="m129.93,70.5h-4.27c-2.64,0-4.81,2.16-4.81,4.81s2.17,4.81,4.81,4.81h3.36c.58-1.15.92-2.44.92-3.82v-5.8Z" fill="url(#color-4)"/>
    <path class="color-4" d="m158.4,75.31c0-2.65-2.16-4.81-4.81-4.81h-4.73v5.8c0,1.38.33,2.67.91,3.82h3.82c2.65,0,4.81-2.17,4.81-4.81Z" fill="url(#color-4)"/>
    <path class="color-2" d="m129.93,101.77h18.92v-5.7c0-1.44.36-2.8,1-3.99h-20.92c.64,1.19,1,2.55,1,3.99v5.7Z" fill="url(#color-2)"/>
    <path class="color-4" d="m120.86,96.92c0,2.66,2.18,4.84,4.84,4.84h4.23v-5.7c0-1.44-.36-2.8-1-3.99h-3.23c-2.66,0-4.84,2.18-4.84,4.84h0Z" fill="url(#color-4)"/>
    <path class="color-4" d="m148.86,101.77h4.7c2.66,0,4.84-2.18,4.84-4.84s-2.18-4.84-4.84-4.84h-3.7c-.64,1.19-1,2.55-1,3.99v5.7h0Z" fill="url(#color-4)"/>
    <path class="color-2" d="m148.86,105.94h-18.92v5.72c0,1.43-.36,2.79-.98,3.97h20.89c-.63-1.18-.98-2.54-.98-3.97v-5.72h0Z" fill="url(#color-2)"/>
    <path class="color-4" d="m129.93,105.94h-4.23c-2.66,0-4.84,2.18-4.84,4.84s2.18,4.84,4.84,4.84h3.25c.63-1.18.98-2.54.98-3.97v-5.72h0Z" fill="url(#color-4)"/>
    <path class="color-4" d="m158.4,110.78c0-2.66-2.18-4.84-4.84-4.84h-4.7v5.72c0,1.43.36,2.79.98,3.97h3.71c2.66,0,4.84-2.18,4.84-4.84h0Z" fill="url(#color-4)"/>
    <path fill="#fff" class="color-5" d="m99.32,92.76h-4.63c-1.83,0-3.31,1.48-3.31,3.31v.25c0,1.83,1.48,3.31,3.31,3.31h4.63c1.83,0,3.31-1.48,3.31-3.31v-.25c0-1.83-1.48-3.31-3.31-3.31Z"/>
    <path fill="#fff" class="color-5" d="m126.24,92.76h-18.2c-1.83,0-3.31,1.48-3.31,3.31v.25c0,1.83,1.48,3.31,3.31,3.31h18.2c1.83,0,3.31-1.48,3.31-3.31v-.25c0-1.83-1.48-3.31-3.31-3.31Z"/>
    <path fill="#fff" class="color-5" d="m37.47,40.05h19.76c1.81,0,3.44,1.32,3.59,3.13.18,2.03-1.42,3.74-3.42,3.74h-.29s-1.09.13-1.09,1.05c0,.26.09.44.21.58h11.94c1.81,0,3.44,1.32,3.59,3.13.18,2.03-1.42,3.74-3.42,3.74h-19.76c-1.81,0-3.44-1.32-3.59-3.13-.18-2.03,1.42-3.74,3.42-3.74h2.91c.1-.14.17-.32.17-.56,0-1.05-1.18-1.07-1.18-1.07h-12.68c-1.81,0-3.44-1.32-3.59-3.13-.18-2.03,1.42-3.74,3.42-3.74Z"/>
</svg>