<?xml version="1.0" encoding="UTF-8"?>
<svg id="top04" xmlns="http://www.w3.org/2000/svg" viewBox="0 0 179 137">
  <defs>
    <style>
      <!-- .color-4, .cls-2 {
        fill: #ffcf08;
      }
      .cls-3, .cls-4 {
        fill: #ff6836;
      }
      .cls-5 {
        fill: #404272;
      }
      .color-2 {
        fill: #2aaeb3;
      }
      .cls-7 {
        stroke: #ff6836;
      }
      .cls-7, .stroke-width stroke-linecap stroke-color-4 {
        stroke-linecap: round;
        stroke-linejoin: round;
      }
      .cls-7, .stroke-width stroke-linecap stroke-color-4, .cls-9 {
        fill: none;
        stroke-width: .5px;
      }
      .stroke-width stroke-linecap stroke-color-4, .cls-9 {
        stroke: #ffcf08;
      }
      .cls-4, .cls-2 {
        fill-rule: evenodd;
      }
      .cls-9 {
        stroke-miterlimit: 10;
      } -->

      .stroke-width {
        stroke-width: .5px;
      }

      .stroke-linecap{
        stroke-linecap: round;
      }

      .stroke-color-1 {
        stroke: #ff6836;
      }

      .stroke-color-2 {
        stroke: #2aaeb3;
      }

      .stroke-color-3 {
        stroke: #404272;
      }

      .stroke-color-4 {
        stroke: #ffcf08;
      }
    </style>
  <linearGradient id="color-1" gradientTransform="rotate(90)">
      <stop offset="0%" stop-color="#ff6836" />
      <stop offset="100%" stop-color="#ff6836" />
      <stop offset="100%" stop-color="white" />
    </linearGradient>
    <linearGradient id="color-2" gradientTransform="rotate(90)">
      <stop offset="0%" stop-color="#2aaeb3" />
      <stop offset="100%" stop-color="#2aaeb3" />
      <stop offset="100%" stop-color="white" />
    </linearGradient>
    <linearGradient id="color-3" gradientTransform="rotate(90)">
      <stop offset="0%" stop-color="#404272" />
      <stop offset="100%" stop-color="#404272" />
      <stop offset="100%" stop-color="white" />
    </linearGradient>
    <linearGradient id="color-4" gradientTransform="rotate(90)">
      <stop offset="0%" stop-color="#ffcf08" />
      <stop offset="100%" stop-color="#ffcf08" />
      <stop offset="100%" stop-color="white" />
    </linearGradient>  
  </defs>
  <path class="stroke-width stroke-linecap stroke-color-1" d="m84.5,40.3s-1.4,5.71,4.83,5.71h28.65c.61,0,1.22.1,1.79.32,1.01.39,2.21,1.28,2.21,3.22,0,0,.18,3.53-4.21,3.53h-28.37s-2.26.02-2.26,2.22c0,4.42,8.72.91,8.72,6.69" fill="none"/>
  <path class="stroke-width stroke-linecap stroke-color-4" d="m105.61,50.77s-2.25-.21-2.26,1.41c0,1.6.88,1.59,1.81,1.54" fill="none"/>
  <path class="stroke-width stroke-linecap stroke-color-4" d="m112.24,30.6h12.74" fill="none"/>
  <path class="stroke-width stroke-linecap stroke-color-4" d="m112.24,40.45h12.74" fill="none"/>
  <path class="stroke-width stroke-linecap stroke-color-4" d="m112.24,63.82h12.74" fill="none"/>
  <path class="stroke-width stroke-linecap stroke-color-4" d="m112.24,74.23h12.74" fill="none"/>
  <path class="stroke-width stroke-linecap stroke-color-4" d="m112.24,95.73h12.74" fill="none"/>
  <path class="stroke-width stroke-linecap stroke-color-4" d="m112.24,106.14h12.74" fill="none"/>
  <path class="stroke-width stroke-linecap stroke-color-4" d="m106.35,84.27h-19.54s-3.4-.23-3.4,3.91c0,0,.29,4.14-3.36,4.14s-3.47,3.99-3.47,3.99c0,0-.18,3.96,3.44,3.96h20.74s4.18-.14,4.18,4.82c0,0,.33,4.42-3.84,4.42h-3.66s-2.89.02-2.89,2.32c0,0-.27,2.95,2.85,2.95s7.58.56,7.58,3" fill="none"/>
  <path class="stroke-width stroke-linecap stroke-color-4" d="m131.81,84.22s1.78-.22,1.78,1.41-1.77,1.4-1.77,1.4" fill="none"/>
  <path class="stroke-width stroke-linecap stroke-color-4" d="m132.62,43.83c-1.9.02-4.13-.86-4.13,7.21,0,0-.31,5.12,13.53,5.12h17.12s3.16-.14,3.16,3.16c0,0,.03,2.81-2.81,2.81h-1.11" fill="none"/>
  <path class="stroke-width stroke-linecap stroke-color-4" d="m154.64,83.87s5.22-.57,5.22-3.79-3.34-3.44-3.34-3.44" fill="none"/>
  <path class="stroke-width stroke-linecap stroke-color-4" d="m136.52,76.65s-3.34.22-3.34,3.44,5.14,3.79,5.14,3.79" fill="none"/>
  <path class="stroke-width stroke-linecap stroke-color-4" d="m157.1,92.12s5.21-.89,5.21,5.14c0,0-.07,5.2-5.2,5.2" fill="none"/>
  <path class="stroke-width stroke-linecap stroke-color-4" d="m135.14,92.14s-5.21-.35-5.21,5.21c0,0,.07,5.2,5.2,5.2" fill="none"/>
  <path class="stroke-width stroke-linecap stroke-color-4" d="m23.88,93.68s-3.46-.43-3.46,1.96,2.29,2.29,2.29,2.29c0,0,12.63-2.19,12.63,5.17v11.45" fill="none"/>
  <path class="stroke-width stroke-linecap stroke-color-4" d="m55.38,106.14h12.74" fill="none"/>
  <path class="stroke-width stroke-linecap stroke-color-4" d="m55.38,95.73h12.74" fill="none"/>
  <path class="stroke-width stroke-linecap stroke-color-4" d="m55.38,74.04h12.74" fill="none"/>
  <path class="stroke-width stroke-linecap stroke-color-4" d="m55.38,63.63h12.74" fill="none"/>
  <path class="stroke-width stroke-linecap stroke-color-4" d="m55.38,39.24h12.74" fill="none"/>
  <path class="stroke-width stroke-linecap stroke-color-4" d="m55.38,28.83h12.74" fill="none"/>
  <path class="stroke-width stroke-linecap stroke-color-4" d="m43.08,26.82s5.22-.31,5.22,5.26c0,0-.07,5.2-5.2,5.2" fill="none"/>
  <path class="stroke-width stroke-linecap stroke-color-4" d="m20.27,26.78s-5.37-.28-5.37,5.29c0,0,.59,5.2,5.73,5.2" fill="none"/>
  <path class="stroke-width stroke-linecap stroke-color-4" d="m75.12,84.22s1.78-.22,1.78,1.41-1.77,1.4-1.77,1.4" fill="none"/>
  <path class="stroke-width stroke-linecap stroke-color-4" d="m48.52,50.78s-1.78-.22-1.78,1.41,1.77,1.4,1.77,1.4" fill="none"/>
  <path class="color-4" d="m90.19,27.85c-3.21,0-5.81,2.6-5.81,5.81v7.4c.06-.42.7-1.58,5.81-1.58,3.21,0,5.81-2.6,5.81-5.81s-2.6-5.81-5.81-5.81Z" fill="url(#color-4)"/>
  <path class="color-4" d="m90.17,94.61c3.21,0,5.81,2.6,5.81,5.81v7.4c-.06-.42-.7-1.58-5.81-1.58-3.21,0-5.81-2.6-5.81-5.81s2.6-5.81,5.81-5.81Z" fill="url(#color-4)"/>
  <path class="color-4" d="m131.16,114.6h-.01v-24.49c0-2.9,2.03-3.29,2.03-3.29h-2.13c-6.08,0-6.03,3.29-6.03,3.29v24.49h0s.09,3.09,6.11,3.09h1.35s-1.33-.37-1.33-3.09h0Z" fill="url(#color-4)"/>
  <path class="color-4" d="m112.24,90.2s.4-3.29-6.02-3.29h-2.13s2.03.39,2.03,3.29v24.48c0,2.72-1.33,3.09-1.33,3.09h1.35c6.04,0,6.11-3.09,6.11-3.09v-24.48h0Z" fill="url(#color-4)"/>
  <path class="color-4" d="m74.23,114.6h0v-24.49c0-2.9,2.03-3.29,2.03-3.29h-2.13c-6.42,0-6.02,3.29-6.02,3.29v24.49s.09,3.09,6.11,3.09h1.35s-1.33-.37-1.33-3.09Z" fill="url(#color-4)"/>
  <path class="color-4" d="m131.1,81.37h-.01v-24.49c0-2.9,2.03-3.29,2.03-3.29h-2.13c-6.08,0-6.03,3.29-6.03,3.29v24.49h0s.09,3.09,6.11,3.09h1.35s-1.33-.37-1.33-3.09h0Z" fill="url(#color-4)"/>
  <path class="color-4" d="m112.24,56.88s.4-3.29-6.02-3.29h-2.13s2.03.39,2.03,3.29v24.48c0,2.72-1.33,3.09-1.33,3.09h1.35c6.04,0,6.11-3.09,6.11-3.09v-24.48h0Z" fill="url(#color-4)"/>
  <path class="color-4" d="m55.38,56.69s.4-3.29-6.02-3.29h-2.13s2.03.39,2.03,3.29v24.48c0,2.72-1.33,3.09-1.33,3.09h1.35c6.04,0,6.11-3.09,6.11-3.09v-24.48h0Z" fill="url(#color-4)"/>
  <path class="color-4" d="m112.24,23.39s.4-3.29-6.02-3.29h-2.13s2.03.39,2.03,3.29v24.48c0,2.72-1.33,3.09-1.33,3.09h1.35c6.04,0,6.11-3.09,6.11-3.09v-24.48h0Z" fill="url(#color-4)"/>
  <path class="color-4" d="m74.23,47.79h0v-24.48c0-2.9,2.03-3.29,2.03-3.29h-2.13c-6.42,0-6.02,3.29-6.02,3.29v24.49s.09,3.09,6.11,3.09h1.35s-1.33-.37-1.33-3.09h0Z" fill="url(#color-4)"/>
  <path class="color-4" d="m158.65,102.38h-24.33c1.82,0,.9,3.3.9,4.55,0,1.62,1.51,1.56,1.51,1.56h19.52s1.51,0,1.51-1.56c0-1.25-.92-4.55.9-4.55Z" fill="url(#color-4)"/>
  <path class="color-4" d="m155.52,83.61h-18.07c1.82,0,.9,3.31.9,4.56,0,1.62,1.51,1.56,1.51,1.56h13.26s1.51,0,1.51-1.56c0-1.25-.92-4.55.9-4.55h0Z" fill="url(#color-4)"/>
  <path class="color-4" d="m156.51,70.84h-20.29s-3.04.25-3.04,3.43v5.03s.39-2.34,3.55-2.34h19.33c3.16,0,3.78,2.34,3.78,2.34v-5.03c0-3.18-3.34-3.43-3.34-3.43Z" fill="url(#color-4)"/>
  <path class="color-4" d="m148.27,20c-4.06,0-4.06,3.88-4.06,3.89v8.58c0,7.13-6.37,10.14-8.55,10.96-.44.16-.9.24-1.37.24h-2.75c1.24,0,1.55,1.15,1.63,1.82.09.73.29,1.45.67,2.07.48.78,1.3,1.51,2.6,1.31,2.6-.4,4.93-1.77,4.93-1.77,9.6-4.89,8.96-14.59,8.96-14.63v-10.88c0-1.19,2.3-1.59,2.3-1.59h-4.35Z" fill="url(#color-4)"/>
  <path class="color-4" d="m46.38,91.71c0-1.6-1.3-2.91-2.91-2.91h-3.42c1.51-3.5,1.51-6.44,1.51-6.44,0,0,.13-7.7-6.94-7.7h-4.23s-2.11-.1-2.2-2.07l.05,2.07h.01v2.96s0,2.27,2.27,2.27h2.6s2.32-.14,2.32,2.47h.02c0,7.13-6.22,10.14-8.4,10.96-.44.16-.9.24-1.37.24h-2.75c1.24,0,1.55,1.15,1.63,1.82.09.73.29,1.45.67,2.07.48.78,1.3,1.51,2.6,1.31,2.6-.4,4.93-1.77,4.93-1.77,3.85-2.24,6.01-5.31,7.23-8.07.25.24.56.9.56,2.79,0,1.6,1.3,2.91,2.91,2.91s2.91-1.3,2.91-2.91h0Z" fill="url(#color-4)"/>
  <path class="color-4" d="m43.88,37.07h-9.58v-4.29h7.09s1.56-.1,1.56-1.57c0-.28-.05-.66-.1-1.09-.16-1.3-.37-3.02.59-3.39.04-.01.03-.07-.01-.07h-9.12s0-4.71,0-4.71h0s.37-2.72-6.02-2.72h-2.13s2.03.32,2.03,2.72h0v4.72h-8.81c1.45,0,1.21,1.98,1.03,3.46-.05.43-.11.81-.1,1.09.03,1.57,1.56,1.57,1.56,1.57h6.32v4.29h-8.82c1.45,0,1.21,1.99,1.03,3.46-.05.43-.1.81-.1,1.09,0,1.56,1.56,1.56,1.56,1.56h6.32v20.82h.01c-.02.12-.35,2.72,6.1,2.72h2.19s-2.19-.32-2.19-2.72v-20.81h7.09s1.56-.07,1.56-1.56c0-.28-.05-.66-.1-1.09-.18-1.47-.43-3.46,1.03-3.46Z" fill="url(#color-4)"/>
  <path class="color-3" d="m55.37,90.11s.4-3.29-6.02-3.29h-2.13s2.03.39,2.03,3.29v24.49c0,2.72-1.33,3.09-1.33,3.09h1.35c6.04,0,6.11-3.09,6.11-3.09h0v-24.49Z" fill="url(#color-3)"/>
  <path class="color-3" d="m131.11,47.87h-.01v-24.48c0-2.9,2.03-3.29,2.03-3.29h-2.13c-6.08,0-6.03,3.29-6.03,3.29v24.49h0s.09,3.09,6.11,3.09h1.35s-1.33-.37-1.33-3.09h0Z" fill="url(#color-3)"/>
  <path class="color-2" d="m74.24,81.18h-.01v-24.49c0-2.9,2.03-3.29,2.03-3.29h-2.13c-6.08,0-6.03,3.29-6.03,3.29v24.49h0s.09,3.09,6.11,3.09h1.35s-1.33-.37-1.33-3.09h0Z" fill="url(#color-2)"/>
  <path class="color-2" d="m160.39,61.92h-24.12c-1.68,0-3.06,1.37-3.06,3.06s1.35,3.02,3.01,3.05h0s20.29.01,20.29.01c.3-.02,1.87-.16,2.28-1.64.11-.37.1-.77.03-1.16-.16-.92-.41-3.32,1.56-3.32Z" fill="url(#color-2)"/>
  <path class="color-2" d="m140.46,24.21h-2.9c-1.69,0-3.06,1.37-3.06,3.06s1.37,3.06,3.06,3.06h2.9c1.69,0,3.06-1.37,3.06-3.06s-1.37-3.06-3.06-3.06Z" fill="url(#color-2)"/>
  <path class="color-1" d="m90.18,74.59c3.21,0,5.81-2.6,5.81-5.81v-7.4c-.06.42-.7,1.58-5.81,1.58-3.21,0-5.81,2.6-5.81,5.81s2.6,5.81,5.81,5.81Z" fill="url(#color-1)"/>
  <path class="color-1" d="m158.65,91.96h-24.33c1.41,0,1.18,1.98.99,3.46-.05.42-.1.81-.1,1.09,0,1.56,1.39,1.56,1.5,1.56h19.53s1.51,0,1.51-1.56c0-.28-.05-.66-.1-1.09-.18-1.47-.42-3.46.99-3.46h0Z" fill="url(#color-1)"/>
  <path class="color-1" d="m151.03,27.48v-2.96l-.05-2.07c.1,1.96,2.2,2.07,2.2,2.07h4.23c7.07,0,6.94,7.67,6.94,7.7s0,9.51-8.8,14.63c0,0-2.32,1.37-4.93,1.77-1.3.2-2.11-.53-2.6-1.31-.38-.61-.58-1.33-.67-2.07-.08-.67-.39-1.82-1.63-1.82h2.75c.46,0,.92-.08,1.37-.24,2.18-.82,8.55-3.82,8.55-10.96h-.02c0-2.61-2.47-2.47-2.47-2.47h-2.6c-2.27,0-2.27-2.27-2.27-2.27h0Zm-.06-5.17v.14-.14Z" fill="url(#color-1)"/>
  <path class="color-1" d="m42.61,68.86c1.6,0,2.91,1.3,2.91,2.91v3.7c-.03-.21-.35-.79-2.91-.79-1.6,0-2.91-1.3-2.91-2.91s1.3-2.91,2.91-2.91Z" fill="url(#color-1)"/>
  <path class="color-1" d="m55.37,23.3s.4-3.29-6.02-3.29h-2.13s2.03.39,2.03,3.29v24.49c0,2.72-1.33,3.09-1.33,3.09h1.35c6.04,0,6.11-3.09,6.11-3.09h0v-24.49Z" fill="url(#color-1)"/>
</svg>