<?xml version="1.0" encoding="UTF-8"?>
<svg id="top06" xmlns="http://www.w3.org/2000/svg" viewBox="0 0 179 137">
  <defs>
    <style>
      .stroke-width {
        stroke-width: .5px;
      }

      .stroke-linecap{
        stroke-linecap: round;
      }

      .stroke-color-1 {
        stroke: #fa4013;
      }

      .stroke-color-2 {
        stroke: #9cd323;
      }

      .stroke-color-3 {
        stroke:#404272;
      }

      .stroke-color-4 {
        stroke: #ffffff;
      }      
    </style>
    <linearGradient id="color-1" gradientTransform="rotate(90)">
      <stop offset="0%" stop-color="#fa4013" />
      <stop offset="100%" stop-color="#fa4013" />
      <stop offset="100%" stop-color="white" />
    </linearGradient>
    <linearGradient id="color-2" gradientTransform="rotate(90)">
      <stop offset="0%" stop-color="#9cd323" />
      <stop offset="100%" stop-color="#9cd323" />
      <stop offset="100%" stop-color="white" />
    </linearGradient>
    <linearGradient id="color-3" gradientTransform="rotate(90)">
      <stop offset="0%" stop-color="#404272" />
      <stop offset="100%" stop-color="#404272" />
      <stop offset="100%" stop-color="white" />
    </linearGradient>   
    <linearGradient id="color-4" gradientTransform="rotate(90)">
      <stop offset="0%" stop-color="#ffffff" />
      <stop offset="100%" stop-color="#ffffff" />
      <stop offset="100%" stop-color="white" />
    </linearGradient>
  </defs>
  <path class="stroke-width stroke-linecap stroke-color-1" d="m115.3,82.29h23.47" fill="none"/>
  <path class="stroke-width stroke-linecap stroke-color-1" d="m115.3,96.57h23.47" fill="none"/>
  <path class="stroke-width stroke-linecap stroke-color-1" d="m100.49,49.36s1.44,7.63,7.38,7.63h26.63s7.71.18,7.71-6.13c0,0,.48-7.49-7.49-7.49h-14.5s-4.92.04-4.92-2.93-3.43-4.04-5.65-4.04h-7.74s-10.17-.35-10.17-7.1c0,0-1.14-6.92,10.43-6.92h16.39s2.83-.18,2.83-2.81c0,0-.02-2.28-2.83-2.28h-38.4s-7.54-.48-8.94,6.68" fill="none"/>
  <path class="stroke-width stroke-linecap stroke-color-1" d="m70.8,31.65h53.38" fill="none"/>
  <path class="stroke-width stroke-linecap stroke-color-1" d="m73.78,77.07s-1.39,8.49,7.81,8.49h17.11s2.36-.06,2.36-2.29c0,0,.04-2.55-2.24-2.55s-6.88,3.76-2.09,12.66" fill="none"/>
  <path class="stroke-width stroke-linecap stroke-color-1" d="m93.71,62.95s1.68-8.2-5.54-8.2h-27.46s-6.64.33-6.64,6.64,6.85,6.85,6.85,6.85h39.37s4.9-.16,4.9,3.09c0,3.55-4.14,3.24-4.14,3.24h-27.54s-7.61,0-7.61,7.13c0,2.66,1.39,5.92,4.04,7.13,2.23,1.02,6.22-.18,7.13,2.96.48,1.64.26,4.14-.4,6.81" fill="none"/>
  <path class="stroke-width stroke-linecap stroke-color-1" d="m70.8,59.34h53.38" fill="none"/>
  <path class="stroke-width stroke-linecap stroke-color-1" d="m65.68,67.21s-.86,7.7-2.38,14.48" fill="none"/>
  <path class="color-2" d="m129.47,65.48V25.53h-.01v-3.14c0,2.38-3.29,1.14-4.54,1.18-1.78.05-1.58,1.79-1.56,1.96v43.11c0-2.38,3.3-1.09,4.55-1.18,1.74-.12,1.56-1.98,1.56-1.98Z" fill="url(#color-2)"/>
  <path class="color-2" d="m81.48,71.82v35.56c0-2.38,3.31-1.18,4.55-1.18s1.56-1.98,1.56-1.98v-32.4h-6.11Z" fill="url(#color-2)"/>
  <path class="color-1" d="m72.74,97.02c-2.15,0-1.96,2.7-1.96,2.7,0,9.18-3.95,12.23-5.92,13.29-.39.21-1.1.48-1.51.48l-2.32.24c1.11,0,1.93,1.49,2,2.34.08.95-.22,1.44.4,3,.42,1.05,1.58,1.01,2.75.75,2.34-.52,4.01-2.7,4.01-2.7,6.71-7.43,6.71-17.4,6.71-17.4v-5.52c0,2.53-2,2.81-4.15,2.81h0Z" fill="url(#color-1)"/>
  <path class="color-1" d="m116.32,80.12c-.01-.35-.33-3.96-6.6-3.96h-1.84s2.14.91,2.33,3.99v20.16c-.19,3.08-2.33,3.98-2.33,3.98h1.84c6.26,0,6.6-3.96,6.6-3.97v-20.19h0Z" fill="url(#color-1)"/>
  <path class="color-1" d="m101.07,102.61c-2.79,0-5.05-2.26-5.05-5.05v-6.43c.05.37.6,1.38,5.05,1.38,2.79,0,5.05,2.26,5.05,5.05s-2.26,5.05-5.05,5.05Z" fill="url(#color-1)"/>
  <path class="color-1" d="m67.05,23.54c-1.56,0-1.56,1.98-1.56,1.98v43.11c0-2.38,3.31-1.18,4.55-1.18,1.56,0,1.56-1.98,1.56-1.98V22.37c0,2.38-3.31,1.18-4.55,1.18Z" fill="url(#color-1)"/>
  <path class="color-1" d="m94.01,61.12s-1.29,8.82-14.18,8.82c0,0-6.39-.07-6.39,4.37s.21,3.82.21,3.82c.03-.03,1.43-2.47,5.32-2.69,2.49-.14,15.03-1.39,15.03-14.33h0Z" fill="url(#color-1)"/>
  <path class="color-3" d="m96.01,39.76c2.79,0,5.05,2.26,5.05,5.05v6.43c-.05-.37-.6-1.38-5.05-1.38-2.79,0-5.05-2.26-5.05-5.05s2.26-5.05,5.05-5.05Z" fill="url(#color-1)"/>
  <path class="color-3" d="m59.26,81.51c-2.15,0-1.96,2.35-1.96,2.35-1.83,19.26-20.11,19.72-20.11,19.72,0,0-1.98,0-1.98,1.56,0,1.25,1.21,4.55-1.18,4.55h3.16c26.1-2.28,26.22-25.83,26.22-25.83v-4.68c0,2.53-2,2.32-4.15,2.32h0Z" fill="url(#color-3)"/>
  <path class="color-3" d="m142.63,100.31v-20.16c.19-3.08,2.33-3.98,2.33-3.98h-1.84c-6.19,0-6.58,3.63-6.6,3.95v20.19s-.1,3.99,6.6,3.99h1.84s-2.14-.91-2.33-3.99h0Z" fill="url(#color-3)"/>
</svg>