<?xml version="1.0" encoding="UTF-8"?>
<svg id="top13-2" data-name="top13" xmlns="http://www.w3.org/2000/svg" viewBox="0 0 179 137">
  <defs>
    <style>
      .stroke-width {
        stroke-width: 1.3px;
      }

      .stroke-color-1 {
        stroke: #ffcf08;
      }

      .stroke-color-2 {
        stroke: #ff6836;
      }

      .stroke-color-3 {
        stroke: #404272;
      }

      .stroke-color-4 {
        stroke: #2aaeb3;
      }
    </style>
    <linearGradient id="color-1" gradientTransform="rotate(90)">
      <stop offset="0%" stop-color="#ffcf08" />
      <stop offset="100%" stop-color="#ffcf08" />
      <stop offset="100%" stop-color="white" />
    </linearGradient>
    <linearGradient id="color-2" gradientTransform="rotate(90)">
      <stop offset="0%" stop-color="#ff6836" />
      <stop offset="100%" stop-color="#ff6836" />
      <stop offset="100%" stop-color="white" />
    </linearGradient>
    <linearGradient id="color-3" gradientTransform="rotate(90)">
      <stop offset="0%" stop-color="#404272" />
      <stop offset="100%" stop-color="#404272" />
      <stop offset="100%" stop-color="white" />
    </linearGradient>
    <linearGradient id="color-4" gradientTransform="rotate(90)">
      <stop offset="0%" stop-color="#2aaeb3" />
      <stop offset="100%" stop-color="#2aaeb3" />
      <stop offset="100%" stop-color="white" />
    </linearGradient>      
  </defs>
  <path class="color-1" d="m134.22,119.08c4.46,0,8.08-3.62,8.08-8.08s-3.62-8.08-8.08-8.08-8.08,3.62-8.08,8.08,3.62,8.08,8.08,8.08Z" fill="url(#color-1)"/>
  <path stroke-linejoin="round" stroke-linecap="round" class="stroke-width stroke-color-1" d="m100.59,57.35h53.01s7.89-.21,7.89,8.52" fill="none"/>
  <path stroke-linejoin="round" stroke-linecap="round" class="stroke-width stroke-color-2" d="m159.73,67.86l-21.78,42.36" fill="none"/>
  <path stroke-linejoin="round" stroke-linecap="round" class="stroke-width stroke-color-2" d="m164.24,67.86l-21.78,42.36" fill="none"/>
  <path stroke-linejoin="round" stroke-linecap="round" class="stroke-width stroke-color-2" d="m168.75,67.86l-21.78,42.36" fill="none"/>
  <path stroke-linejoin="round" stroke-linecap="round" class="stroke-width stroke-color-2" d="m155.21,67.86l-21.77,42.36" fill="none"/>
  <path stroke-linejoin="round" stroke-linecap="round" class="stroke-width stroke-color-1" d="m139.81,43.15l-32.04,67.71" fill="none"/>
  <path stroke-linejoin="round" stroke-linecap="round" class="stroke-width stroke-color-1" d="m88.18,74.47c0,4.47-3.62,8.1-8.1,8.1H25.31c-4.47,0-8.1-3.62-8.1-8.1" fill="none"/>
  <path stroke-linejoin="round" stroke-linecap="round" class="stroke-width stroke-color-1" d="m17.22,59.25c0-4.47,3.62-8.1,8.1-8.1h54.77c4.47,0,8.1,3.62,8.1,8.1" fill="none"/>
  <path stroke-linejoin="round" stroke-linecap="round" class="stroke-width stroke-color-2" d="m81.21,62.07h13.94" fill="none"/>
  <path stroke-linejoin="round" stroke-linecap="round" class="stroke-width stroke-color-2" d="m81.21,66.73h13.94" fill="none"/>
  <path stroke-linejoin="round" stroke-linecap="round" class="stroke-width stroke-color-2" d="m81.21,71.4h13.94" fill="none"/>
  <path stroke-linejoin="round" stroke-linecap="round" class="stroke-width stroke-color-2" d="m10.25,62.07h13.94" fill="none"/>
  <path stroke-linejoin="round" stroke-linecap="round" class="stroke-width stroke-color-2" d="m10.25,66.73h13.94" fill="none"/>
  <path stroke-linejoin="round" stroke-linecap="round" class="stroke-width stroke-color-2" d="m10.25,71.4h13.94" fill="none"/>
  <path stroke-linejoin="round" stroke-linecap="round" class="stroke-width stroke-color-1" d="m52.7,30.57v92.82" fill="none"/>
  <path stroke-linejoin="round" stroke-linecap="round" class="stroke-width stroke-color-1" d="m81.31,42.33H24.09" fill="none"/>
  <path stroke-linejoin="round" stroke-linecap="round" class="stroke-width stroke-color-2" d="m44.37,58.43l16.65,16.66" fill="none"/>
  <path stroke-linejoin="round" stroke-linecap="round" class="stroke-width stroke-color-2" d="m61.02,58.43l-16.65,16.66" fill="none"/>
  <path stroke-linejoin="round" stroke-linecap="round" class="stroke-width stroke-color-1" d="m22.47,118.1l30.11-28.36,29.46,28.36" fill="none"/>
  <path class="color-3" d="m75.56,117.66h-18.33v-16.57l18.33,16.57Z" fill="url(#color-3)"/>
  <path class="color-1" d="m29.97,117.66h18.34v-16.57l-18.34,16.57Z" fill="url(#color-1)"/>
  <path class="color-1" d="m157.86,34.04c4.03,0,7.3-3.27,7.3-7.3s-3.27-7.3-7.3-7.3-7.3,3.27-7.3,7.3,3.27,7.3,7.3,7.3Z" fill="url(#color-1)"/>
  <path class="color-4" d="m99.13,48.85c4.03,0,7.3-3.27,7.3-7.3s-3.27-7.3-7.3-7.3-7.3,3.27-7.3,7.3,3.27,7.3,7.3,7.3Z" fill="url(#color-4)"/>
  <path class="color-1" d="m17.97,27.45c4.03,0,7.3-3.27,7.3-7.3s-3.27-7.3-7.3-7.3-7.3,3.27-7.3,7.3,3.27,7.3,7.3,7.3Z" fill="url(#color-1)"/>
</svg>