<?xml version="1.0" encoding="UTF-8"?>
<svg id="bot12" xmlns="http://www.w3.org/2000/svg" viewBox="0 0 179 137">
  <defs>
    <style>
      .stroke-width {
        stroke-width: 1.3px;
      }
      
      .stroke-color-1 {
        stroke: #ffcf08;
      }

      .stroke-color-2 {
        stroke: #ff6836;
      }

      .stroke-color-3 {
        stroke: #404272;
      }

      .stroke-color-4 {
        stroke: #2aaeb3;
      }
    </style>
    <linearGradient id="color-1" gradientTransform="rotate(90)">
      <stop offset="0%" stop-color="#ffcf08" />
      <stop offset="100%" stop-color="#ffcf08" />
      <stop offset="100%" stop-color="white" />
    </linearGradient>
    <linearGradient id="color-2" gradientTransform="rotate(90)">
      <stop offset="0%" stop-color="#ff6836" />
      <stop offset="100%" stop-color="#ff6836" />
      <stop offset="100%" stop-color="white" />
    </linearGradient>
    <linearGradient id="color-3" gradientTransform="rotate(90)">
      <stop offset="0%" stop-color="#404272" />
      <stop offset="100%" stop-color="#404272" />
      <stop offset="100%" stop-color="white" />
    </linearGradient>
    <linearGradient id="color-4" gradientTransform="rotate(90)">
      <stop offset="0%" stop-color="#2aaeb3" />
      <stop offset="100%" stop-color="#2aaeb3" />
      <stop offset="100%" stop-color="white" />
    </linearGradient>
  </defs>
  <path stroke-linejoin="round" stroke-linecap="round" class="stroke-width stroke-color-4" d="m151.55,88.6h10.51" fill="none"/>
  <path stroke-linejoin="round" stroke-linecap="round" class="stroke-width stroke-color-4" d="m151.55,91.59h10.51" fill="none"/>
  <path stroke-linejoin="round" stroke-linecap="round" class="stroke-width stroke-color-4" d="m151.55,94.58h10.51" fill="none"/>
  <path stroke-linejoin="round" stroke-linecap="round" class="stroke-width stroke-color-4" d="m151.55,97.56h10.51" fill="none"/>
  <path stroke-linejoin="round" stroke-linecap="round" class="stroke-width stroke-color-1" d="m144.2,43.03h22.49s3.35-.09,3.35,3.62" fill="none"/>
  <path stroke-linejoin="round" stroke-linecap="round" class="stroke-width stroke-color-4" d="m170.24,48.47l-9.23,16.99" fill="none"/>
  <path stroke-linejoin="round" stroke-linecap="round" class="stroke-width stroke-color-4" d="m173.12,48.47l-9.24,16.99" fill="none"/>
  <path stroke-linejoin="round" stroke-linecap="round" class="stroke-width stroke-color-4" d="m167.38,48.47l-9.24,16.99" fill="none"/>
  <path stroke-linejoin="round" stroke-linecap="round" class="stroke-width stroke-color-1" d="m160.84,37l-13.59,28.72" fill="none"/>
  <path class="color-1" d="m87.7,46.76c4.23,0,7.65-3.43,7.65-7.65s-3.43-7.65-7.65-7.65-7.65,3.43-7.65,7.65,3.43,7.65,7.65,7.65Z" fill="url(#color-1)"/>
  <path class="color-2" d="m87.7,76.15c4.23,0,7.65-3.43,7.65-7.65s-3.43-7.65-7.65-7.65-7.65,3.43-7.65,7.65,3.43,7.65,7.65,7.65Z" fill="url(#color-2)"/>
  <path class="color-1" d="m87.7,105.54c4.23,0,7.65-3.43,7.65-7.65s-3.43-7.65-7.65-7.65-7.65,3.43-7.65,7.65,3.43,7.65,7.65,7.65Z" fill="url(#color-1)"/>
  <path stroke-linejoin="round" stroke-linecap="round" class="stroke-width stroke-color-1" d="m36.53,51.64c4.21,0,3.95-3.37,3.95-3.37v-18.23s-.17-3.48-4.08-3.48" fill="none"/>
  <path stroke-linejoin="round" stroke-linecap="round" class="stroke-width stroke-color-1" d="m67.3,51.64c-4.21,0-3.95-3.37-3.95-3.37v-18.23s.17-3.48,4.08-3.48" fill="none"/>
  <path stroke-linejoin="round" stroke-linecap="round" class="stroke-width stroke-color-1" d="m63.35,32.49h-22.88v13.24h22.88v-13.24Z" fill="none"/>
  <path stroke-linejoin="round" stroke-linecap="round" class="stroke-width stroke-color-1" d="m36.53,81.04c4.21,0,3.95-3.37,3.95-3.37v-18.23s-.17-3.48-4.08-3.48" fill="none"/>
  <path stroke-linejoin="round" stroke-linecap="round" class="stroke-width stroke-color-1" d="m67.3,81.04c-4.21,0-3.95-3.37-3.95-3.37v-18.23s.17-3.48,4.08-3.48" fill="none"/>
  <path stroke-linejoin="round" stroke-linecap="round" class="stroke-width stroke-color-1" d="m63.35,61.88h-22.88v13.24h22.88v-13.24Z" fill="none"/>
  <path stroke-linejoin="round" stroke-linecap="round" class="stroke-width stroke-color-1" d="m36.53,110.43c4.21,0,3.95-3.37,3.95-3.37v-18.23s-.17-3.48-4.08-3.48" fill="none"/>
  <path stroke-linejoin="round" stroke-linecap="round" class="stroke-width stroke-color-1" d="m67.3,110.43c-4.21,0-3.95-3.37-3.95-3.37v-18.23s.17-3.48,4.08-3.48" fill="none"/>
  <path stroke-linejoin="round" stroke-linecap="round" class="stroke-width stroke-color-1" d="m63.35,91.27h-22.88v13.24h22.88v-13.24Z" fill="none"/>
  <path stroke-linejoin="round" stroke-linecap="round" class="stroke-width stroke-color-1" d="m108.1,51.64c4.21,0,3.95-3.37,3.95-3.37v-18.23s-.17-3.48-4.08-3.48" fill="none"/>
  <path stroke-linejoin="round" stroke-linecap="round" class="stroke-width stroke-color-1" d="m138.88,51.64c-4.21,0-3.95-3.37-3.95-3.37v-18.23s.17-3.48,4.08-3.48" fill="none"/>
  <path stroke-linejoin="round" stroke-linecap="round" class="stroke-width stroke-color-1" d="m134.93,32.49h-22.88v13.24h22.88v-13.24Z" fill="none"/>
  <path stroke-linejoin="round" stroke-linecap="round" class="stroke-width stroke-color-1" d="m108.1,81.04c4.21,0,3.95-3.37,3.95-3.37v-18.23s-.17-3.48-4.08-3.48" fill="none"/>
  <path stroke-linejoin="round" stroke-linecap="round" class="stroke-width stroke-color-1" d="m138.88,81.04c-4.21,0-3.95-3.37-3.95-3.37v-18.23s.17-3.48,4.08-3.48" fill="none"/>
  <path stroke-linejoin="round" stroke-linecap="round" class="stroke-width stroke-color-1" d="m134.93,61.88h-22.88v13.24h22.88v-13.24Z" fill="none"/>
  <path stroke-linejoin="round" stroke-linecap="round" class="stroke-width stroke-color-1" d="m108.1,110.43c4.21,0,3.95-3.37,3.95-3.37v-18.23s-.17-3.48-4.08-3.48" fill="none"/>
  <path stroke-linejoin="round" stroke-linecap="round" class="stroke-width stroke-color-1" d="m138.88,110.43c-4.21,0-3.95-3.37-3.95-3.37v-18.23s.17-3.48,4.08-3.48" fill="none"/>
  <path stroke-linejoin="round" stroke-linecap="round" class="stroke-width stroke-color-1" d="m134.93,91.27h-22.88v13.24h22.88v-13.24Z" fill="none"/>
  <path stroke-linejoin="round" stroke-linecap="round" class="stroke-width stroke-color-1" d="m6.03,41.14h24.63" fill="none"/>
  <path stroke-linejoin="round" stroke-linecap="round" class="stroke-width stroke-color-1" d="m30.8,45.32H5.88v6.8h24.92v-6.8Z" fill="none"/>
  <path stroke-linejoin="round" stroke-linecap="round" class="stroke-width stroke-color-1" d="m18.35,35.13v34.78" fill="none"/>
  <path stroke-linejoin="round" stroke-linecap="round" class="stroke-width stroke-color-1" d="m6.73,67.13l11.61-12.93,11.36,12.93" fill="none"/>
  <path class="color-4" d="m9.58,67.25h7.08v-8.14l-7.08,8.14Z" fill="url(#color-4)"/>
  <path class="color-1" d="m27.18,67.25h-7.08v-8.14l7.08,8.14Z" fill="url(#color-1)"/>
  <path stroke-linejoin="round" stroke-linecap="round" class="stroke-width stroke-color-1" d="m146.47,72.22h20.68" fill="none"/>
  <path stroke-linejoin="round" stroke-linecap="round" class="stroke-width stroke-color-1" d="m163.28,75.48h-12.95v7.85h12.95v-7.85Z" fill="none"/>
  <path stroke-linejoin="round" stroke-linecap="round" class="stroke-width stroke-color-1" d="m167.26,86.17h-20.91v13.82h20.91v-13.82Z" fill="none"/>
  <path class="color-2" d="m24.9,95.57c4.23,0,7.65-3.43,7.65-7.65s-3.43-7.65-7.65-7.65-7.65,3.43-7.65,7.65,3.43,7.65,7.65,7.65Z" fill="url(#color-2)"/>
  <path stroke-linejoin="round" stroke-linecap="round" class="stroke-width stroke-color-1" d="m18.37,79.56v22.31" fill="none"/>
  <path stroke-linejoin="round" stroke-linecap="round" class="stroke-width stroke-color-1" d="m18.37,81.64l6.52,6.28" fill="none"/>
  <path stroke-linejoin="round" stroke-linecap="round" class="stroke-width stroke-color-1" d="m10.89,73.47h9.76s-2.28,10.59-14.07,19.06" fill="none"/>
</svg>