<?xml version="1.0" encoding="UTF-8"?>
<svg xmlns="http://www.w3.org/2000/svg" viewBox="0 0 179 137">
  <defs>
    <style>
      /* .color-1 {
        fill: #fa4013;
      }

      .cls-2 {
        fill: #fff;
      }

      .color-2 {
        fill: #9cd323;
      }

      .color-3 {
        fill: #404272;
      } */
      .stroke-width {
        stroke-width: .5px;
      }

      .stroke-color-1 {
        stroke: #fa4013;
      }

      .stroke-color-2 {
        stroke: #9cd323;
      }

      .stroke-color-3 {
        stroke:#404272;
      }

      .stroke-color-4 {
        stroke: #ffffff;
      }      
    </style>
    <linearGradient id="color-1" gradientTransform="rotate(90)">
      <stop offset="0%" stop-color="#fa4013" />
      <stop offset="100%" stop-color="#fa4013" />
      <stop offset="100%" stop-color="white" />
    </linearGradient>
    <linearGradient id="color-2" gradientTransform="rotate(90)">
      <stop offset="0%" stop-color="#9cd323" />
      <stop offset="100%" stop-color="#9cd323"/>
      <stop offset="100%" stop-color="white" />
    </linearGradient>
    <linearGradient id="color-3" gradientTransform="rotate(90)">
      <stop offset="0%" stop-color="#404272" />
      <stop offset="100%" stop-color="#404272" />
      <stop offset="100%" stop-color="white" />
    </linearGradient>   
    <linearGradient id="color-4" gradientTransform="rotate(90)">
      <stop offset="0%" stop-color="#ffffff" />
      <stop offset="100%" stop-color="#ffffff" />
      <stop offset="100%" stop-color="white" />
    </linearGradient>  
  </defs>
    <path class="color-2" d="m160.62,127.01c2.21,0,4-1.79,4-4s-1.79-4-4-4-4,1.79-4,4,1.79,4,4,4Z" fill="url(#color-2)"/>
    <path class="color-2" d="m151.39,26.81c2.21,0,4-1.79,4-4s-1.79-4-4-4-4,1.79-4,4,1.79,4,4,4Z" fill="url(#color-2)"/>
    <path class="color-1" d="m20.65,16.64c2.21,0,4-1.79,4-4s-1.79-4-4-4-4,1.79-4,4,1.79,4,4,4Z" fill="url(#color-1)"/>
    <path class="color-3" d="m136.99,22.81c1.66,0,3-1.34,3-3s-1.34-3-3-3-3,1.34-3,3,1.34,3,3,3Z" fill="url(#color-3)"/>
    <path fill="#ffffff" class="color-5" d="m85.79,70.55v20.35c0,4.7,3.81,8.51,8.51,8.51s8.51-3.81,8.51-8.51v-20.35c0-4.7-3.81-8.51-8.51-8.51s-8.51,3.81-8.51,8.51Z"/>
    <path class="color-2" d="m112.85,70.56v20.35c0,4.7,3.81,8.51,8.51,8.51s8.51-3.81,8.51-8.51v-20.35c0-4.7-3.81-8.51-8.51-8.51s-8.51,3.81-8.51,8.51Z" fill="url(#color-2)"/>
    <path class="color-1" d="m116.74,67.47h-18.85c-2.68,0-4.84,2.17-4.84,4.84h0c0,2.68,2.17,4.85,4.84,4.85h18.85c2.68,0,4.84-2.17,4.84-4.84h0c0-2.68-2.17-4.85-4.84-4.85Z" fill="url(#color-1)"/>
    <path class="color-1" d="m116.74,84.29h-18.85c-2.68,0-4.84,2.17-4.84,4.84h0c0,2.68,2.17,4.85,4.84,4.85h18.85c2.68,0,4.84-2.17,4.84-4.84h0c0-2.68-2.17-4.85-4.84-4.85Z" fill="url(#color-1)"/>
    <path class="color-1" d="m128.42,123.01H29.52c-4.9,0-8.88-3.97-8.88-8.88s3.97-8.88,8.88-8.88h98.89c4.2,0,6.57-.5,7.81-.92l.11-1.55c-.03-1.18-.7-29.07.03-37.91.85-10.32,8.81-23.32,9.71-24.76,2.6-4.16,8.07-5.42,12.23-2.83,4.16,2.6,5.42,8.07,2.83,12.23-2.73,4.39-6.72,12.5-7.09,16.83-.52,6.24-.2,26.16,0,34.79.9,3.56.78,8.43-2.08,12.75-4.07,6.14-11.77,9.12-23.56,9.12Z" fill="url(#color-1)"/>
    <path class="color-1" d="m78.04,78.48c-.3,0-.61-.02-.92-.07-14.21-2.38-22.31-8.12-26.83-13.14-4.52,5.02-12.62,10.76-26.83,13.14-3.03.5-5.88-1.54-6.39-4.56-.5-3.02,1.53-5.88,4.56-6.39,19.13-3.2,22.99-13.11,23.32-14.05.6-2.49,2.77-4.25,5.34-4.25s4.74,1.76,5.34,4.25c.33.94,4.19,10.85,23.32,14.05,3.02.5,5.06,3.37,4.56,6.39-.45,2.71-2.8,4.63-5.47,4.63Z" fill="url(#color-1)"/>
    <path class="color-2" d="m37.31,80.59v5.18h25.96v-5.18c0-2.86,2.31-5.18,5.18-5.18h-36.31c2.86,0,5.18,2.31,5.18,5.18Z" fill="url(#color-2)"/>
    <path class="color-1" d="m63.27,98.11v-5.18h-25.96v5.18c0,2.86-2.31,5.18-5.18,5.18h36.31c-2.86,0-5.18-2.31-5.18-5.18Z" fill="url(#color-1)"/>
    <path class="color-1" d="m68.45,85.77h-5.18v7.17h5.18c2.86,0,5.18,2.31,5.18,5.18v-17.52c0,2.86-2.31,5.18-5.18,5.18Z" fill="url(#color-1)"/>
    <path class="color-3" d="m63.27,80.59v5.18h5.18c2.86,0,5.18-2.31,5.18-5.18s-2.31-5.18-5.18-5.18-5.18,2.31-5.18,5.18Z" fill="url(#color-3)"/>
    <path class="color-3" d="m68.45,92.94h-5.18v5.18c0,2.86,2.31,5.18,5.18,5.18s5.18-2.31,5.18-5.18-2.31-5.18-5.18-5.18Z" fill="url(#color-3)"/>
    <path class="color-1" d="m32.13,92.94h5.18v-7.17h-5.18c-2.86,0-5.18-2.31-5.18-5.18v17.52c0-2.86,2.31-5.18,5.18-5.18Z" fill="url(#color-1)"/>
    <path class="color-3" d="m32.13,85.77h5.18v-5.18c0-2.86-2.31-5.18-5.18-5.18s-5.18,2.31-5.18,5.18,2.31,5.18,5.18,5.18Z" fill="url(#color-3)"/>
    <path class="color-3" d="m37.31,98.11v-5.18h-5.18c-2.86,0-5.18,2.31-5.18,5.18s2.31,5.18,5.18,5.18,5.18-2.31,5.18-5.18Z" fill="url(#color-3)"/>
    <path class="color-3" d="m75.02,36.31c6.54,0,11.83-5.3,11.83-11.83s-5.3-11.83-11.83-11.83-11.83,5.3-11.83,11.83,5.3,11.83,11.83,11.83Z" fill="url(#color-3)"/>
    <path class="color-1" d="m110.55,49.92c6.54,0,11.83-5.3,11.83-11.83s-5.3-11.83-11.83-11.83-11.83,5.3-11.83,11.83,5.3,11.83,11.83,11.83Z" fill="url(#color-1)"/>
    <path class="color-2" d="m35.98,49.25c6.54,0,11.83-5.3,11.83-11.83s-5.3-11.83-11.83-11.83-11.83,5.3-11.83,11.83,5.3,11.83,11.83,11.83Z" fill="url(#color-2)"/>
    <path fill="#ffffff" class="color-5" d="m51.88,31.77h21.39c2.03,0,3.68,1.65,3.68,3.68s-1.65,3.68-3.68,3.68h-.31s-1.17.14-1.17,1.12c0,.28.1.48.23.63h12.99c2.03,0,3.68,1.65,3.68,3.68s-1.65,3.68-3.68,3.68h-21.39c-2.03,0-3.68-1.65-3.68-3.68s1.65-3.68,3.68-3.68h3.14c.1-.15.18-.34.18-.61,0-1.12-1.26-1.15-1.26-1.15h-13.8c-2.03,0-3.68-1.65-3.68-3.68s1.65-3.68,3.68-3.68h0Z"/>
    <path fill="#ffffff" class="color-5" d="m157.35,90.24h-6.18c-1.81,0-3.27,1.46-3.27,3.27s1.46,3.27,3.27,3.27h6.18c1.81,0,3.27-1.46,3.27-3.27s-1.46-3.27-3.27-3.27Z"/>
    <path fill="#ffffff" class="color-5" d="m151.71,81.93h-18.99c-1.8,0-3.27,1.46-3.27,3.27s1.46,3.27,3.27,3.27h.27s1.04.13,1.04,1c0,.24-.09.42-.21.56h-11.54c-1.8,0-3.27,1.46-3.27,3.27s1.46,3.27,3.27,3.27h18.99c1.8,0,3.27-1.46,3.27-3.27s-1.46-3.27-3.27-3.27h-2.78c-.1-.13-.16-.3-.16-.54,0-1,1.12-1.02,1.12-1.02h12.26c1.8,0,3.27-1.46,3.27-3.27s-1.46-3.27-3.27-3.27h0Z"/>
</svg>