<?xml version="1.0" encoding="UTF-8"?>
<svg xmlns="http://www.w3.org/2000/svg" viewBox="0 0 179 137">
  <defs>
    <style>
      /* .color-1 {
        fill: #fa4013;
      }

      .cls-2 {
        fill: #fff;
      }

      .color-2 {
        fill: #9cd323;
      }

      .color-3 {
        fill: #404272;
      } */
      .stroke-width {
        stroke-width: .5px;
      }

      .stroke-color-1 {
        stroke: #fa4013;
      }

      .stroke-color-2 {
        stroke: #9cd323;
      }

      .stroke-color-3 {
        stroke:#404272;
      }

      .stroke-color-4 {
        stroke: #ffffff;
      }      
    </style>
    <linearGradient id="color-1" gradientTransform="rotate(90)">
      <stop offset="0%" stop-color="#fa4013" />
      <stop offset="100%" stop-color="#fa4013" />
      <stop offset="100%" stop-color="white" />
    </linearGradient>
    <linearGradient id="color-2" gradientTransform="rotate(90)">
      <stop offset="0%" stop-color="#9cd323" />
      <stop offset="100%" stop-color="#9cd323"/>
      <stop offset="100%" stop-color="white" />
    </linearGradient>
    <linearGradient id="color-3" gradientTransform="rotate(90)">
      <stop offset="0%" stop-color="#404272" />
      <stop offset="100%" stop-color="#404272" />
      <stop offset="100%" stop-color="white" />
    </linearGradient>   
    <linearGradient id="color-4" gradientTransform="rotate(90)">
      <stop offset="0%" stop-color="#ffffff" />
      <stop offset="100%" stop-color="#ffffff" />
      <stop offset="100%" stop-color="white" />
    </linearGradient>  
  </defs>
    <path class="color-2" d="m147.93,16.75c2.21,0,4-1.79,4-4s-1.79-4-4-4-4,1.79-4,4,1.79,4,4,4Z" fill="url(#color-2)"/>
    <path class="color-1" d="m157.06,114.15c2.21,0,4-1.79,4-4s-1.79-4-4-4-4,1.79-4,4,1.79,4,4,4Z" fill="url(#color-1)"/>
    <path class="color-1" d="m20.91,128.25c2.21,0,4-1.79,4-4s-1.79-4-4-4-4,1.79-4,4,1.79,4,4,4Z" fill="url(#color-1)"/>
    <path class="color-3" d="m33.92,17.92c1.66,0,3-1.34,3-3s-1.34-3-3-3-3,1.34-3,3,1.34,3,3,3Z" fill="url(#color-3)"/>
    <path class="color-3" d="m144.93,106.16c1.66,0,3-1.34,3-3s-1.34-3-3-3-3,1.34-3,3,1.34,3,3,3Z" fill="url(#color-3)"/>
    <path class="color-2" d="m44.26,124.25c-3.64,0-7.06-2.26-8.36-5.89-1.65-4.62.75-9.7,5.36-11.35,10.98-3.93,15.35-17.09,15.38-17.22,1.46-4.68,6.43-7.29,11.11-5.84,4.68,1.46,7.29,6.43,5.84,11.11-.27.88-6.95,21.71-26.35,28.65-.99.36-2,.53-2.99.53h0Z" fill="url(#color-2)"/>
    <path fill="#ffffff" class="color-5" d="m132.91,124.25c-.99,0-2-.17-2.99-.53-19.4-6.94-26.08-27.77-26.35-28.65-1.46-4.68,1.15-9.65,5.84-11.11,4.67-1.45,9.62,1.14,11.1,5.8.11.34,4.52,13.36,15.4,17.26,4.62,1.65,7.02,6.73,5.36,11.35-1.29,3.62-4.71,5.89-8.36,5.89Z"/>
    <path class="color-1" d="m88.58,110.15c6.54,0,11.83-5.3,11.83-11.83s-5.3-11.83-11.83-11.83-11.83,5.3-11.83,11.83,5.3,11.83,11.83,11.83Z" fill="url(#color-1)"/>
    <path class="color-1" d="m80.33,48.36c0,4.7,3.81,8.51,8.51,8.51s8.51-3.81,8.51-8.51v-18.6h-17.01v18.6Z" fill="url(#color-1)"/>
    <path class="color-1" d="m123.18,12.75H54.5c-4.7,0-8.51,3.81-8.51,8.51s3.81,8.51,8.51,8.51h25.83c0-4.7,3.81-8.51,8.51-8.51s8.51,3.81,8.51,8.51h25.83c4.7,0,8.51-3.81,8.51-8.51s-3.81-8.51-8.51-8.51Z" fill="url(#color-1)"/>
    <path class="color-3" d="m88.84,21.25c-4.7,0-8.51,3.81-8.51,8.51h17.01c0-4.7-3.81-8.51-8.51-8.51Z" fill="url(#color-3)"/>
    <path class="color-2" d="m117.93,62.51l4.05,1.52h24.84v-10.35h-24.84l-4.05,1.52c-3.1,1.16-6.44.47-8.81-1.52h-40.5c-2.37,1.98-5.71,2.68-8.81,1.52l-4.05-1.52h-24.84v10.35h24.84l4.05-1.52c3.1-1.16,6.44-.47,8.81,1.52h40.5c2.37-1.98,5.71-2.68,8.81-1.52Z" fill="url(#color-2)"/>
    <path class="color-1" d="m30.91,73.33v-9.3h-6.83c-2.86,0-5.18-2.31-5.18-5.18s2.31-5.18,5.18-5.18h6.83v-9.3l24.84,9.3h12.86c1.14-.95,2.06-2.2,2.61-3.68,1.72-4.59-.61-9.7-5.2-11.43l-40.88-15.31c-2.72-1.02-5.78-.64-8.17,1.02-2.39,1.66-3.82,4.39-3.82,7.29v54.56c0,2.91,1.43,5.64,3.82,7.29,1.51,1.04,3.28,1.58,5.06,1.58,1.05,0,2.1-.18,3.11-.56l40.88-15.31c4.59-1.72,6.92-6.83,5.2-11.43-.55-1.49-1.48-2.74-2.61-3.68h-12.85l-24.84,9.3h0Z" fill="url(#color-1)"/>
    <path class="color-3" d="m18.91,58.85c0,2.86,2.31,5.18,5.18,5.18h6.83v-10.35h-6.83c-2.86,0-5.18,2.31-5.18,5.18Z" fill="url(#color-3)"/>
    <path class="color-3" d="m59.81,55.19c3.1,1.16,6.44.47,8.81-1.52h-12.86l4.05,1.52h0Z" fill="url(#color-3)"/>
    <path class="color-3" d="m59.81,62.51l-4.05,1.52h12.85c-2.37-1.98-5.71-2.68-8.81-1.52Z" fill="url(#color-3)"/>
    <path class="color-1" d="m160.75,24.27c-2.4-1.66-5.44-2.03-8.17-1.02l-40.88,15.31c-4.59,1.72-6.92,6.83-5.2,11.43.55,1.49,1.47,2.73,2.61,3.68h12.85l24.84-9.3v9.3h6.7c2.86,0,5.18,2.31,5.18,5.18s-2.31,5.18-5.18,5.18h-6.7v9.3l-24.84-9.3h-12.85c-1.14.95-2.06,2.2-2.61,3.68-1.72,4.59.61,9.7,5.2,11.43l40.88,15.31c1.01.38,2.06.56,3.11.56,1.78,0,3.55-.54,5.06-1.58,2.39-1.66,3.82-4.39,3.82-7.29V31.57c0-2.91-1.43-5.64-3.82-7.29h0Z" fill="url(#color-1)"/>
    <path class="color-3" d="m153.52,64.03c2.86,0,5.18-2.31,5.18-5.18s-2.31-5.18-5.18-5.18h-6.7v10.35h6.7Z" fill="url(#color-3)"/>
    <path class="color-3" d="m117.93,62.51c-3.1-1.16-6.44-.47-8.81,1.52h12.85l-4.05-1.52Z" fill="url(#color-3)"/>
    <path class="color-3" d="m117.93,55.19l4.05-1.52h-12.85c2.37,1.98,5.71,2.68,8.81,1.52Z" fill="url(#color-3)"/>
    <path class="color-3" d="m88.84,70.68c6.54,0,11.83-5.3,11.83-11.83s-5.3-11.83-11.83-11.83-11.83,5.3-11.83,11.83,5.3,11.83,11.83,11.83Z" fill="url(#color-3)"/>
    <path fill="#ffffff" class="color-5" d="m45.12,105.22h-18.12c-2.11,0-3.82,1.71-3.82,3.82h0c0,2.12,1.71,3.83,3.82,3.83h18.12c2.11,0,3.82-1.71,3.82-3.82h0c0-2.12-1.71-3.83-3.82-3.83Z"/>
    <path fill="#ffffff" class="color-5" d="m150.17,30.09h-6.22c-2.11,0-3.82,1.71-3.82,3.82h0c0,2.12,1.71,3.83,3.82,3.83h6.22c2.11,0,3.82-1.71,3.82-3.82h0c0-2.12-1.71-3.83-3.82-3.83Z"/>
    <path fill="#ffffff" class="color-5" d="m144.29,20.36h-20.71c-1.97,0-3.56,1.72-3.56,3.82s1.6,3.82,3.56,3.82h.3s1.13.15,1.13,1.17c0,.29-.1.5-.22.66h-12.58c-1.97,0-3.56,1.72-3.56,3.82s1.6,3.82,3.56,3.82h20.71c1.97,0,3.56-1.72,3.56-3.82s-1.6-3.82-3.56-3.82h-3.03c-.1-.16-.17-.36-.17-.63,0-1.17,1.22-1.2,1.22-1.2h13.36c1.97,0,3.56-1.72,3.56-3.82s-1.6-3.82-3.56-3.82h0Z"/>
</svg>