<?xml version="1.0" encoding="UTF-8"?>
<svg id="top02" xmlns="http://www.w3.org/2000/svg" viewBox="0 0 179 137">
  <defs>
    <style>
      <!-- .color-4 {
        fill: #ffcf08;
      }
      .cls-2 {
        fill: #ff6836;
      }
      .cls-3 {
        fill: #404272;
      }
      .color-2 {
        fill: #2aaeb3;
      }
      .stroke-width stroke-linecap strok-color-4  {
        fill: none;
        stroke: #ffcf08;
        stroke-linecap: round;
        stroke-linejoin: round;
        stroke-width stroke-linecap strok-color-4: .5px;
      } -->
      .stroke-width {
        stroke-width: .5px;
      }

      .stroke-linecap{
        stroke-linecap: round;
      }

      .stroke-color-1 {
        stroke: #ff6836;
      }

      .stroke-color-2 {
        stroke: #2aaeb3;
      }

      .stroke-color-3 {
        stroke: #404272;
      }

      .stroke-color-4 {
        stroke: #ffcf08;
      }
    </style>
          <linearGradient id="color-1" gradientTransform="rotate(90)">
      <stop offset="0%" stop-color="#ff6836" />
      <stop offset="100%" stop-color="#ff6836" />
      <stop offset="100%" stop-color="white" />
    </linearGradient>
    <linearGradient id="color-2" gradientTransform="rotate(90)">
      <stop offset="0%" stop-color="#2aaeb3" />
      <stop offset="100%" stop-color="#2aaeb3" />
      <stop offset="100%" stop-color="white" />
    </linearGradient>
    <linearGradient id="color-3" gradientTransform="rotate(90)">
      <stop offset="0%" stop-color="#404272" />
      <stop offset="100%" stop-color="#404272" />
      <stop offset="100%" stop-color="white" />
    </linearGradient>
    <linearGradient id="color-4" gradientTransform="rotate(90)">
      <stop offset="0%" stop-color="#ffcf08" />
      <stop offset="100%" stop-color="#ffcf08" />
      <stop offset="100%" stop-color="white" />
    </linearGradient>  
  </defs>
  <path class="stroke-width stroke-linecap stroke-color-4 " d="m59.56,25.69s-2.85-.03-2.85,2.65" fill="none"/>
  <path class="stroke-width stroke-linecap stroke-color-4 " d="m119.52,25.69s3.14-.5,3.14,2.89" fill="none"/>
  <path class="stroke-width stroke-linecap stroke-color-4 " d="m151.22,46.71c1.03-3.4-2.37-3.4-2.37-3.4h-6.84s-3.15.04-3.15,4.9,3.15,4.86,3.15,4.86h16.47c6.8,0,5.13-5.68,5.13-5.68" fill="none"/>
  <path class="stroke-width stroke-linecap stroke-color-4 " d="m154.31,100.98s-1.44-5.16,1.84-5.16,5.48-1.81,5.48-5.48c0,0,.1-4.35-5.37-4.35h-12.15s-2.77.68-2.77,2.77,2.77,2.62,2.77,2.62h8.45s2.04-.07,2.04,2.04c0,1.66-2.64,1.58-2.64,1.58h-4.34s-1.64-1.75-4.57-1.4" fill="none"/>
  <path class="stroke-width stroke-linecap stroke-color-4 " d="m121.6,47.11s.21,4.09,4.71,4.4c4.5.3,3.9,3.77,3.9,3.77,0,0,.31,2.26-4.14,2.26h-9.31s-4.34-.46-4.34,2.94,3.84,3.24,3.84,3.24h3.62s2.02.22,2.02,1.36-2.09,1.43-2.09,1.43h-16.14s-2.6-.15-2.6-2.6,2.45-2.38,2.45-2.38c0,0,4.45.22,4.45-4.11s-5.73-4.04-5.73-4.04h-5.88s-2.94.46-2.94-2.94c0,0,.03-1.67,2.62-1.67h7.72s2.87-.22,2.87-2.78c0-5.64,5.53-6.83,5.22-.28" fill="none"/>
  <path class="stroke-width stroke-linecap stroke-color-4 " d="m43.12,47.11s.21,4.09,4.71,4.4c4.5.3,3.9,3.77,3.9,3.77,0,0,.31,2.26-4.14,2.26h-9.31s-4.34-.46-4.34,2.94,3.84,3.24,3.84,3.24h3.62s2.02.22,2.02,1.36-2.09,1.43-2.09,1.43h-16.14s-2.6-.15-2.6-2.6,2.45-2.38,2.45-2.38c0,0,4.45.22,4.45-4.11s-5.73-4.04-5.73-4.04h-5.88c-1.05,0-2.21-.56-2.74-1.49-.58-1.05-.13-2.43.99-2.87.59-.23,1.24-.24,1.87-.24h7.27s2.87-.22,2.87-2.78c0-5.64,5.33-6.98,5.02-.42" fill="none"/>
  <path class="stroke-width stroke-linecap stroke-color-4 " d="m114.42,100.11s.63-4.93-5.39-4.76h-2.94s-2.96-.2-2.96,3.05c0,3.06,2.62,3.06,2.62,3.06l4.01-.02s2.63.39,2.17-2.45" fill="none"/>
  <path class="stroke-width stroke-linecap stroke-color-4 " d="m36.03,101.15s-.29-6.09-6.32-5.92h-2.94s-2.95-.2-2.95,2.96c0,2.96,2.62,2.96,2.62,2.96l5.31-.02s1.95.02,1.49-2.73" fill="none"/>
  <path class="stroke-width stroke-linecap stroke-color-4 " d="m82.4,47.61s1.66,4.35-2.28,4.35h-15.01s-3.63.2-3.63-3.63c0,0-.58-5.9,3.23-5.9s5.32-.06,5.32-.06c0,0,2.75.15,2.44,3.69" fill="none"/>
  <path class="stroke-width stroke-linecap stroke-color-4 " d="m64.47,93.59l17.01-.18s4.01-.37,4.01,3.1c0,0,.41,2.65-3.31,2.65h-16.67s-2.49-.19-2.49,1.81c0,0-.22,2.22,2.49,2.22h20.72s1.99.25,1.99-2.54c0,0,0-2.13-2.21-2.09-2.87.05-8.97,0-8.97,0,0,0-2.49-.15-1.64,2.19" fill="none"/>
  <path class="color-2" d="m158.7,36.65c2.84,0,5.14,2.3,5.14,5.14v6.54c-.05-.37-.62-1.4-5.14-1.4-2.84,0-5.14-2.3-5.14-5.14s2.3-5.14,5.14-5.14Z" fill="url(#color-2)"/>
  <path class="color-2" d="m27.18,48.78v46.86s0,1.92,3.06,1.92c2.17,0,3.06,1.96,3.06,1.96v-50.74h-6.11Z" fill="url(#color-2)"/>
  <path class="color-4" d="m51.7,39.19c2.84,0,5.14-2.3,5.14-5.14v-6.54c-.05.37-.62,1.4-5.14,1.4-2.84,0-5.14,2.3-5.14,5.14s2.3,5.14,5.14,5.14Z" fill="url(#color-4)"/>
  <path class="color-4" d="m116.35,25.52h-57.29s1.96.88,1.96,3.06c0,3.06,1.92,3.06,1.92,3.06h53.41s1.92,0,1.92-3.06c0-2.17,1.96-3.06,1.96-3.06h-3.89Z" fill="url(#color-4)"/>
  <path class="color-4" d="m127.59,39.19c-2.84,0-5.14-2.3-5.14-5.14v-6.54c.05.37.62,1.4,5.14,1.4,2.84,0,5.14,2.3,5.14,5.14s-2.3,5.14-5.14,5.14Z" fill="url(#color-4)"/>
  <path class="color-4" d="m66.7,48.78v46.86s0,1.92,3.06,1.92c2.17,0,3.06,1.96,3.06,1.96v-50.74h-6.11Z" fill="url(#color-4)"/>
  <path class="color-4" d="m105.99,48.78v46.86s0,1.92,3.06,1.92c2.17,0,3.06,1.96,3.06,1.96v-50.74h-6.11Z" fill="url(#color-4)"/>
  <path class="color-4" d="m119.41,111.58c-2.84,0-5.14-2.3-5.14-5.14v-6.54c.05.37.62,1.4,5.14,1.4,2.84,0,5.14,2.3,5.14,5.14s-2.3,5.14-5.14,5.14Z" fill="url(#color-4)"/>
  <path class="color-4" d="m159.23,111.58c-2.84,0-5.14-2.3-5.14-5.14v-6.54c.05.37.62,1.4,5.14,1.4,2.84,0,5.14,2.3,5.14,5.14s-2.3,5.14-5.14,5.14Z" fill="url(#color-4)"/>
  <path class="color-4" d="m77.42,36.65c2.84,0,5.14,2.3,5.14,5.14v6.54c-.05-.37-.62-1.4-5.14-1.4-2.84,0-5.14-2.3-5.14-5.14s2.3-5.14,5.14-5.14Z" fill="url(#color-4)"/>
  <path class="color-4" d="m38.28,36.58c2.84,0,5.14,2.3,5.14,5.14v6.54c-.05-.37-.62-1.4-5.14-1.4-2.84,0-5.14-2.3-5.14-5.14s2.3-5.14,5.14-5.14Z" fill="url(#color-4)"/>
  <path class="color-4" d="m40.97,111.58c-2.84,0-5.14-2.3-5.14-5.14v-6.54c.05.37.62,1.4,5.14,1.4,2.84,0,5.14,2.3,5.14,5.14s-2.3,5.14-5.14,5.14Z" fill="url(#color-4)"/>
  <path class="color-4" d="m61.61,93.35s-25.61-1.9-28.31-44.61v-3.87s-.88,1.96-3.06,1.96c-3,0-3.06,1.83-3.06,1.91.02.29,3.51,50.19,34.46,50.19,0,0,1.92,0,1.92-2.68,0-1.91,1.83-2.89,1.83-2.89h-3.78Z" fill="url(#color-4)"/>
  <path class="color-4" d="m148.95,47.21c-3.67,0-3.67,1.58-3.67,1.58v46.86s0,1.92,3.06,1.92c2.17,0,3.06,1.96,3.06,1.96v-53.87c0,1.36-2.45,1.56-2.45,1.56Z" fill="url(#color-4)"/>
  <path class="color-1" d="m100.93,93.39s-25.61-1.9-28.31-44.61v-3.87s-.88,1.96-3.06,1.96c-3,0-3.06,1.83-3.06,1.91.02.29,3.51,50.19,34.45,50.19,0,0,1.92,0,1.92-2.68,0-1.91,1.83-2.89,1.83-2.89h-3.78Z" fill="url(#color-1)"/>
  <path class="color-1" d="m140.32,93.39s-25.61-1.9-28.31-44.61v-3.87s-.88,1.96-3.06,1.96c-3,0-3.06,1.83-3.06,1.91.02.29,3.51,50.19,34.46,50.19,0,0,1.92,0,1.92-2.68,0-1.91,1.83-2.89,1.83-2.89h-3.78Z" fill="url(#color-1)"/>
  <path class="color-3" d="m80.35,111.58c-2.84,0-5.14-2.3-5.14-5.14v-6.54c.05.37.62,1.4,5.14,1.4,2.84,0,5.14,2.3,5.14,5.14s-2.3,5.14-5.14,5.14Z" fill="url(#color-3)"/>
  <path class="color-3" d="m116.75,36.65c2.84,0,5.14,2.3,5.14,5.14v6.54c-.05-.37-.62-1.4-5.14-1.4-2.84,0-5.14-2.3-5.14-5.14s2.3-5.14,5.14-5.14Z" fill="url(#color-3)"/>
</svg>