<?xml version="1.0" encoding="UTF-8"?>
<svg xmlns="http://www.w3.org/2000/svg" viewBox="0 0 179 137">
  <defs>
    <style>
      .stroke-width {
        stroke-width: 1.3px;
      }

      .stroke-color-1 {
        stroke: #ffcf08;
      }

      .stroke-color-2 {
        stroke: #fea39c;
      }

      .stroke-color-3 {
        stroke:#327eed;
      }

      .stroke-color-4 {
        stroke: #2032ac;
      }      
    </style>  
    <linearGradient id="color-1" gradientTransform="rotate(90)">
      <stop offset="0%" stop-color="#ffcf08" />
      <stop offset="100%" stop-color="#ffcf08" />
      <stop offset="100%" stop-color="white" />
    </linearGradient>
    <linearGradient id="color-2" gradientTransform="rotate(90)">
      <stop offset="0%" stop-color="#fea39c" />
      <stop offset="100%" stop-color="#fea39c" />
      <stop offset="100%" stop-color="white" />
    </linearGradient>
    <linearGradient id="color-3" gradientTransform="rotate(90)">
      <stop offset="0%" stop-color="#327eed" />
      <stop offset="100%" stop-color="#327eed" />
      <stop offset="100%" stop-color="white" />
    </linearGradient>   
    <linearGradient id="color-4" gradientTransform="rotate(90)">
      <stop offset="0%" stop-color="#2032ac" />
      <stop offset="100%" stop-color="#2032ac" />
      <stop offset="100%" stop-color="white" />
    </linearGradient>  
  </defs>
    <path class="color-3" d="m135.03,65.87H36.75c-4.74,0-8.58,3.84-8.58,8.58s3.8,8.58,8.58,8.58h98.28c4.74,0,8.58-3.84,8.58-8.58s-3.84-8.58-8.58-8.58Z" fill="url(#color-1)"/>
    <path class="color-3" d="m94.47,79.48c0-4.74-3.84-8.58-8.58-8.58s-8.58,3.84-8.58,8.58v4.92h17.16v-4.92Z" fill="url(#color-1)"/>
    <path class="color-3" d="m77.32,102.64c0,4.74,3.84,8.58,8.58,8.58s8.58-3.84,8.58-8.58v-8.54h-17.16v8.54Z" fill="url(#color-1)"/>
    <path class="color-4" d="m101.4,84.41h-6.93v9.7h6.93c2.67,0,4.85-2.18,4.85-4.85s-2.18-4.85-4.85-4.85Z" fill="url(#color-2)"/>
    <path class="color-4" d="m70.39,84.41c-2.66,0-4.85,2.19-4.85,4.85s2.19,4.85,4.85,4.85h6.93v-9.7h-6.93Z" fill="url(#color-2)"/>
    <path class="color-2" d="m94.47,84.41h-17.16v9.7h17.16v-9.7Z" fill="url(#color-4)"/>
    <path class="color-3" d="m28.68,92.57c-4.01,2.89-4.92,8.48-2.04,12.49,1.75,2.43,4.49,3.72,7.27,3.72,1.81,0,3.64-.54,5.22-1.69,2.64-1.9,5.15-3.87,7.56-5.9-5.58-3.68-10.36-7.51-14.45-11.32-1.16.91-2.35,1.81-3.57,2.69Z" fill="url(#color-1)"/>
    <path class="color-4" d="m117.09,38.09c4.74,0,8.58-3.84,8.58-8.58s-3.84-8.58-8.58-8.58h-22.72c-.62,2.85-2.13,9.06-5.04,17.16h27.76Z" fill="url(#color-2)"/>
    <path class="color-4" d="m54.69,20.94c-4.74,0-8.58,3.84-8.58,8.58s3.84,8.58,8.58,8.58h15.4c2.95-7.17,4.79-13.23,5.84-17.16h-21.24Z" fill="url(#color-2)"/>
    <path class="color-1" d="m54.69,40.34c-4.74,0-8.58,3.84-8.58,8.58s3.84,8.58,8.58,8.58h5.67c3.6-5.99,6.49-11.84,8.79-17.16h-14.46Z" fill="url(#color-3)"/>
    <path class="color-1" d="m117.09,40.34h-28.59c-1.95,5.17-4.45,11-7.6,17.16h36.19c4.74,0,8.58-3.84,8.58-8.58s-3.84-8.58-8.58-8.58Z" fill="url(#color-3)"/>
    <path class="color-3" d="m45.37,77.68c3.98,3.58,8.76,7.22,14.5,10.68,9.08-10.17,15.92-20.94,21.03-30.87h-20.53c-4.04,6.73-8.99,13.64-14.99,20.19h0Z" fill="url(#color-1)"/>
    <path class="color-3" d="m89.33,38.09h-19.23c-.31.74-.62,1.48-.95,2.25h19.34c.29-.76.56-1.51.83-2.25h0Z" fill="url(#color-1)"/>
    <path class="color-3" d="m94.7,19.3c.89-4.86-2.33-9.53-7.2-10.41-4.86-.89-9.53,2.33-10.41,7.2-.01.09-.35,1.86-1.15,4.85h18.43c.19-.88.3-1.45.34-1.64h0Z" fill="url(#color-1)"/>
    <path class="color-2" d="m94.36,20.94h-18.43c-1.04,3.93-2.89,9.99-5.84,17.16h19.23c2.92-8.1,4.42-14.31,5.04-17.16Z" fill="url(#color-4)"/>
    <path class="color-2" d="m69.16,40.34c-2.3,5.32-5.18,11.17-8.79,17.16h20.53c3.16-6.15,5.65-11.99,7.6-17.16h-19.34Z" fill="url(#color-4)"/>
    <path class="color-4" d="m45.37,77.68c-13.98-12.58-18.02-24.44-18.29-25.24-1.48-4.69-6.47-7.32-11.17-5.87-4.72,1.45-7.38,6.46-5.92,11.19.29.95,5.21,16.25,22.26,32.12,4.86-3.82,9.21-7.94,13.13-12.2h0Z" fill="url(#color-2)"/>
    <path class="color-4" d="m46.69,101.2c5.86,3.86,12.59,7.56,20.33,10.85,1.15.49,2.33.72,3.51.72,3.48,0,6.79-2.04,8.24-5.44,1.94-4.55-.17-9.81-4.72-11.75-5.27-2.25-9.97-4.68-14.17-7.22-3.95,4.43-8.33,8.75-13.18,12.83h0Z" fill="url(#color-2)"/>
    <path class="color-2" d="m32.25,89.88c4.08,3.8,8.87,7.64,14.45,11.32,4.85-4.09,9.23-8.4,13.18-12.83-5.74-3.46-10.52-7.1-14.5-10.68-3.91,4.27-8.26,8.38-13.13,12.2Z" fill="url(#color-4)"/>
    <path class="color-3" d="m112.89,87.92c-4.38,2.69-9.32,5.29-14.9,7.67-4.55,1.94-6.66,7.2-4.72,11.75,1.45,3.4,4.76,5.44,8.23,5.44,1.17,0,2.36-.23,3.51-.72,8.4-3.58,15.62-7.63,21.81-11.85-5.3-4.05-9.94-8.23-13.93-12.29h0Z" fill="url(#color-1)"/>
    <path class="color-3" d="m162.04,57.76c1.45-4.72-1.19-9.76-5.92-11.22s-9.73,1.16-11.17,5.89c-.23.72-4.13,12.23-17.59,24.61,3.95,3.85,8.56,7.8,13.82,11.51,15.92-15.39,20.57-29.87,20.86-30.78h0Z" fill="url(#color-1)"/>
    <path class="color-4" d="m109.46,54.7c-2.36-4.33-7.79-5.93-12.13-3.57-4.34,2.36-5.94,7.8-3.58,12.14.37.67,6.59,11.93,19.15,24.65,5.74-3.54,10.52-7.24,14.47-10.88-11.84-11.53-17.78-22.12-17.9-22.35h0Z" fill="url(#color-2)"/>
    <path class="color-3" d="m132.84,104.55c1.54,1.04,3.28,1.54,5.01,1.54,2.87,0,5.7-1.38,7.42-3.94,2.77-4.1,1.69-9.66-2.41-12.43-.57-.38-1.13-.78-1.68-1.16-4.03,3.89-8.78,7.85-14.37,11.66,1.92,1.47,3.92,2.92,6.02,4.34h0Z" fill="url(#color-1)"/>
    <path class="color-2" d="m112.89,87.92c4,4.05,8.64,8.23,13.93,12.29,5.59-3.8,10.34-7.76,14.37-11.66-5.27-3.71-9.88-7.66-13.82-11.51-3.95,3.63-8.73,7.34-14.47,10.88h0Z" fill="url(#color-4)"/>
    <path fill="#ffffff" class="color-5" d="m55.45,12.8h-5.58c-1.63,0-2.95,1.32-2.95,2.95h0c0,1.63,1.32,2.95,2.95,2.95h5.58c1.63,0,2.95-1.32,2.95-2.95h0c0-1.63-1.32-2.95-2.95-2.95Z"/>
    <path fill="#ffffff" class="color-5" d="m79.07,12.8h-15.42c-1.63,0-2.95,1.32-2.95,2.95h0c0,1.63,1.32,2.95,2.95,2.95h15.42c1.63,0,2.95-1.32,2.95-2.95h0c0-1.63-1.32-2.95-2.95-2.95Z"/>
    <path fill="#ffffff" class="color-5" d="m135.07,98.25h-15.42c-1.63,0-2.95,1.32-2.95,2.95h0c0,1.63,1.32,2.95,2.95,2.95h15.42c1.63,0,2.95-1.32,2.95-2.95h0c0-1.64-1.32-2.95-2.95-2.95Z"/>
    <path class="color-1" d="m117.87,127.59c2.21,0,4-1.79,4-4s-1.79-4-4-4-4,1.79-4,4,1.79,4,4,4Z" fill="url(#color-3)"/>
    <path class="color-1" d="m37.39,121.59c2.21,0,4-1.79,4-4s-1.79-4-4-4-4,1.79-4,4,1.79,4,4,4Z" fill="url(#color-3)"/>
    <path class="color-4" d="m143.61,31.27c1.66,0,3-1.34,3-3s-1.34-3-3-3-3,1.34-3,3,1.34,3,3,3Z" fill="url(#color-2)"/>
    <path class="color-3" d="m47.48,115.03c1.66,0,3-1.34,3-3s-1.34-3-3-3-3,1.34-3,3,1.34,3,3,3Z"/>
    <path class="color-2" d="m32.25,33.05c1.66,0,3-1.34,3-3s-1.34-3-3-3-3,1.34-3,3,1.34,3,3,3Z" fill="url(#color-4)"/>
</svg>