<?xml version="1.0" encoding="UTF-8"?>
<svg id="top03" xmlns="http://www.w3.org/2000/svg" viewBox="0 0 179 137">
  <defs>
    <style>
     .stroke-width {
        stroke-width: .5px;
      }

      .stroke-linecap{
        stroke-linecap: round;
      }

      .stroke-color-1 {
        stroke: #ff6836;
      }

      .stroke-color-2 {
        stroke: #2aaeb3;
      }

      .stroke-color-3 {
        stroke: #404272;
      }

      .stroke-color-4 {
        stroke: #ffcf08;
      }
    </style>
        <linearGradient id="color-1" gradientTransform="rotate(90)">
      <stop offset="0%" stop-color="#ff6836" />
      <stop offset="100%" stop-color="#ff6836" />
      <stop offset="100%" stop-color="white" />
    </linearGradient>
    <linearGradient id="color-2" gradientTransform="rotate(90)">
      <stop offset="0%" stop-color="#2aaeb3" />
      <stop offset="100%" stop-color="#2aaeb3" />
      <stop offset="100%" stop-color="white" />
    </linearGradient>
    <linearGradient id="color-3" gradientTransform="rotate(90)">
      <stop offset="0%" stop-color="#404272" />
      <stop offset="100%" stop-color="#404272" />
      <stop offset="100%" stop-color="white" />
    </linearGradient>
    <linearGradient id="color-4" gradientTransform="rotate(90)">
      <stop offset="0%" stop-color="#ffcf08" />
      <stop offset="100%" stop-color="#ffcf08" />
      <stop offset="100%" stop-color="white" />
    </linearGradient>
  </defs>
  <path class="stroke-width stroke-linecap stroke-color-4" d="m126.01,78.2c-26.38-12.49-29.22-28.34-29.22-28.34,0,0,20.05.05,24.29.05,5.17,0,5.12-3.87,5.12-3.87.01-4.58-5.56-3.88-5.56-3.88" fill="none"/>
  <path class="stroke-width stroke-linecap stroke-color-4" d="m127.96,56.03s7.92-1.98,7.92,4.87c0,0-.25,5.07-4.82,5.07h-16.07s-4.07-.2-4.07,3.69c0,0-.12,3.92,4.07,3.92h15.62s3.97-.26,4.12,5.08c.14,5.27,5.59,6.51,5.59,6.51,0,0,3.2.37,3.2,3.91,0,0,0,4.29-6.5,4.29h-38.68c-1.62,0-3.1.19-4.35,1.38-2.55,2.43-2.74,8.05-.14,10.48,1.21,1.13,2.95,1.52,4.61,1.58,4.37.16,8.79-.02,13.17-.02,1.58,0,3.3.53,4.49,1.59,2.51,2.25,2.29,7.1-.75,8.78-1.13.62-2.46.82-3.74.82h-22.22s-5.43.38-4.99-4.27" fill="none"/>
  <path class="stroke-width stroke-linecap stroke-color-4" d="m53.79,31.39s-5.67-.33-5.67-3.97v-1.9s-.22-6.45,6.66-6.45h24.73s7.81-1.18,7.81,8.08-9.08,32.24-17.47,39.9" fill="none"/>
  <path class="color-4" d="m121.46,31.24H52.88c2.11,0,1.05,3.31,1.05,4.55s1.76,1.56,1.76,1.56h63.3s1.56-.31,1.56-1.56-.95-4.55.92-4.55h-.01Z" fill="url(#color-4)"/>
  <path class="color-4" d="m130.12,55.63H44.52c2.11,0,1.05,3.31,1.05,4.55s1.76,1.56,1.76,1.56h80s1.76-.31,1.76-1.56-1.07-4.55,1.05-4.55h0Z" fill="url(#color-4)"/>
  <path class="color-4" d="m84.26,61.75v52.83c0-2.11,3.31-1.05,4.55-1.05s1.56-1.76,1.56-1.76v-50.03h-6.11Z" fill="url(#color-4)"/>
  <path class="color-4" d="m38.03,78.23h0s-2.8.01-2.8.01c2.11,0,1.02,3.31,1.05,4.55.03,2.07,1.76,1.56,1.76,1.56,39.03-10.88,42.95-34.91,42.95-34.91-12.62,25.31-42.95,28.78-42.95,28.78h0Z" fill="url(#color-4)" />
  <path class="color-3" d="m118.51,82.53h-62.39c2.11,0,1.05,3.31,1.05,4.55s1.76,1.56,1.76,1.56h56.78s1.76-.31,1.76-1.56-1.07-4.55,1.05-4.55h0Z" fill="url(#color-3)"/>
  <path class="color-2" d="m121.77,41.94H52.87c2.11,0,1.05,3.31,1.05,4.55s1.76,1.56,1.76,1.56h63.3s1.75-.33,1.75-1.56-1.07-4.55,1.05-4.55h0Z" fill="url(#color-2)"/>
  <path class="color-2" d="m115.08,71.02h-55.53c2.11,0,1.05,3.31,1.05,4.55s1.76,1.56,1.76,1.56h49.92s1.76-.31,1.76-1.56-1.07-4.55,1.05-4.55h0Z" fill="url(#color-2)"/>
  <path class="color-1" d="m97.76,52.72s12.77,28.24,34.73,34.57c0,0,3.07,1.15,3.4-2.11.27-2.68,2.53-2.58,2.53-2.58,0,0-7.21-2.69-10.67-4.4-5.86-2.91-20.31-8.08-29.99-25.48Z" fill="url(#color-1)"/>
</svg>