<?xml version="1.0" encoding="UTF-8"?>
<svg xmlns="http://www.w3.org/2000/svg" viewBox="0 0 179 137">
  <defs>
     <style>
      .stroke-width {
        stroke-width: .5px;
      }

      .stroke-color-1 {
        stroke: #fa4013;
      }

      .stroke-color-2 {
        stroke: #9cd323;
      }

      .stroke-color-3 {
        stroke:#404272;
      }

      .stroke-color-4 {
        stroke: #ffffff;
      }      
    </style>
    <linearGradient id="color-1" gradientTransform="rotate(90)">
      <stop offset="0%" stop-color="#fa4013" />
      <stop offset="100%" stop-color="#fa4013" />
      <stop offset="100%" stop-color="white" />
    </linearGradient>
    <linearGradient id="color-2" gradientTransform="rotate(90)">
      <stop offset="0%" stop-color="#9cd323" />
      <stop offset="100%" stop-color="#9cd323"/>
      <stop offset="100%" stop-color="white" />
    </linearGradient>
    <linearGradient id="color-3" gradientTransform="rotate(90)">
      <stop offset="0%" stop-color="#404272" />
      <stop offset="100%" stop-color="#404272" />
      <stop offset="100%" stop-color="white" />
    </linearGradient>   
    <linearGradient id="color-4" gradientTransform="rotate(90)">
      <stop offset="0%" stop-color="#ffffff" />
      <stop offset="100%" stop-color="#ffffff" />
      <stop offset="100%" stop-color="white" />
    </linearGradient>  
  </defs>
    <path class="color-2" d="m158.79,88.55c2.21,0,4-1.79,4-4s-1.79-4-4-4-4,1.79-4,4,1.79,4,4,4Z" fill="url(#color-2)"/>
    <path class="color-1" d="m15.21,55.69c2.21,0,4-1.79,4-4s-1.79-4-4-4-4,1.79-4,4,1.79,4,4,4Z" fill="url(#color-1)"/>
    <path class="color-3" d="m31.82,92.55c2.21,0,4-1.79,4-4s-1.79-4-4-4-4,1.79-4,4,1.79,4,4,4Z" fill="url(#color-3)"/>
    <path class="color-1" d="m26.26,118.44c-4.14,0-7.85-2.91-8.69-7.13-.96-4.81,2.15-9.48,6.96-10.45,18.25-3.66,22.88-17.04,22.92-17.17,1.45-4.68,6.42-7.3,11.1-5.85,4.68,1.45,7.3,6.42,5.85,11.1-.3.96-7.6,23.56-36.38,29.33-.59.12-1.18.18-1.75.18h0Z" fill="url(#color-1)"/>
    <path class="color-1" d="m151.45,118.44c-.58,0-1.17-.06-1.75-.18-28.78-5.78-36.09-28.37-36.38-29.33l16.96-5.25-.04-.11c.18.55,4.83,13.65,22.96,17.28,4.81.96,7.92,5.64,6.96,10.45-.84,4.22-4.55,7.13-8.69,7.13h-.01Z" fill="url(#color-1)"/>
    <path class="color-1" d="m55.67,77.14c4.7,0,8.51,3.81,8.51,8.51v8.48h49.51v-8.48c0-4.7,3.81-8.51,8.51-8.51s8.51,3.81,8.51,8.51v.3c0-.11.01-.22.01-.33,0-4.7-3.81-8.51-8.51-8.51H55.66c-4.7,0-8.51,3.81-8.51,8.51,0,.05,0,.11,0,.16v-.13c0-4.7,3.81-8.51,8.51-8.51Z" fill="url(#color-1)"/>
    <path class="color-1" d="m122.19,129.2c-4.7,0-8.51-3.81-8.51-8.51v-8.48h-49.51v8.48c0,4.7-3.81,8.51-8.51,8.51s-8.51-3.81-8.51-8.51v-.14c0,.05,0,.11,0,.16,0,4.7,3.81,8.51,8.51,8.51h66.54c4.7,0,8.51-3.81,8.51-8.51,0-.11-.01-.22-.01-.33v.31c0,4.7-3.81,8.51-8.51,8.51Z" fill="url(#color-1)"/>
    <path class="color-2" d="m122.2,94.12h-8.52v18.08h8.52c4.59,0,8.31,3.63,8.49,8.17v-34.44c-.18,4.54-3.91,8.17-8.49,8.17h0Z" fill="url(#color-2)"/>
    <path class="color-3" d="m122.19,77.14c-4.7,0-8.51,3.81-8.51,8.51v8.48h8.52c4.59,0,8.31-3.63,8.49-8.17v-.3c0-4.7-3.81-8.51-8.51-8.51Z" fill="url(#color-3)"/>
    <path class="color-3" d="m122.2,112.21h-8.52v8.48c0,4.7,3.81,8.51,8.51,8.51s8.51-3.81,8.51-8.51v-.31c-.18-4.54-3.91-8.17-8.49-8.17Z" fill="url(#color-3)"/>
    <path class="color-2" d="m55.66,112.21h8.51v-18.08h-8.51c-4.64,0-8.41-3.72-8.5-8.34v34.77c.09-4.62,3.85-8.34,8.5-8.34Z" fill="url(#color-2)"/>
    <path class="color-3" d="m55.66,94.12h8.51v-8.48c0-4.7-3.81-8.51-8.51-8.51s-8.51,3.81-8.51,8.51v.13c.09,4.62,3.85,8.34,8.5,8.34Z" fill="url(#color-3)"/>
    <path class="color-3" d="m55.67,129.2c4.7,0,8.51-3.81,8.51-8.51v-8.48h-8.51c-4.64,0-8.41,3.72-8.5,8.34v.14c0,4.7,3.81,8.51,8.51,8.51Z" fill="url(#color-3)"/>
    <path class="color-1" d="m72.36,11.92h-33.34c4.67.03,8.45,3.82,8.45,8.51v8.51h16.38v-8.51c0-4.7,3.81-8.51,8.51-8.51h0Z" fill="url(#color-1)"/>
    <path class="color-3" d="m80.87,20.43c0-4.7-3.81-8.51-8.51-8.51s-8.51,3.81-8.51,8.51v8.51h8.51c4.7,0,8.51-3.81,8.51-8.51Z" fill="url(#color-3)"/>
    <path class="color-3" d="m39.02,11.93c-4.67.03-8.45,3.82-8.45,8.51s3.81,8.51,8.51,8.51h8.41v-8.51c0-4.68-3.78-8.48-8.45-8.51h0Z" fill="url(#color-3)"/>
    <path class="color-2" d="m80.87,20.43c0,4.7-3.81,8.51-8.51,8.51h-8.51v25.32h8.51c4.7,0,8.51,3.81,8.51,8.51,0,1.91-.64,3.67-1.7,5.09,1.07-1.42,1.7-3.17,1.7-5.09V20.43Z" fill="url(#color-2)"/>
    <path class="color-2" d="m30.57,62.76c0-4.7,3.81-8.51,8.51-8.51h8.41v-25.32h-8.41c-4.7,0-8.51-3.81-8.51-8.51s3.78-8.48,8.45-8.51h-.05c-4.7,0-8.51,3.81-8.51,8.51v42.34c0,4.7,3.81,8.51,8.51,8.51h.04c-4.67-.03-8.45-3.82-8.45-8.51h0Z" fill="url(#color-2)"/>
    <path class="color-1" d="m72.36,71.27c-4.7,0-8.51-3.81-8.51-8.51v-8.51h-16.38v8.51c0,4.68-3.78,8.48-8.46,8.51h33.34Z" fill="url(#color-1)"/>
    <path class="color-3" d="m80.87,62.76c0-4.7-3.81-8.51-8.51-8.51h-8.51v8.51c0,4.7,3.81,8.51,8.51,8.51,2.79,0,5.25-1.35,6.8-3.42,1.07-1.42,1.7-3.17,1.7-5.09Z" fill="url(#color-3)"/>
    <path class="color-3" d="m47.48,62.76v-8.51h-8.41c-4.7,0-8.51,3.81-8.51,8.51s3.78,8.48,8.45,8.51c4.67-.02,8.46-3.82,8.46-8.51Z" fill="url(#color-3)"/>
    <path class="color-1" d="m72.36,33.09h-33.29c-4.7,0-8.51,3.81-8.51,8.51s3.81,8.51,8.51,8.51h33.29c4.7,0,8.51-3.81,8.51-8.51s-3.81-8.51-8.51-8.51Z" fill="url(#color-1)"/>
    <path class="color-1" d="m146.54,45.09v-28.43c0-4.9-3.97-8.88-8.88-8.88s-8.88,3.97-8.88,8.88v10.64h4.04c2.86,0,5.18,2.31,5.18,5.18s-2.31,5.18-5.18,5.18h-4.04v7.87s.02.38.02.38c.04,1.03.27,13.17-11.01,21.61-3.92,2.94-4.72,8.5-1.78,12.43,1.75,2.33,4.41,3.56,7.11,3.56,1.85,0,3.72-.58,5.31-1.78,18.19-13.62,18.23-33.33,18.1-36.63h0Z" fill="url(#color-1)"/>
    <path fill="#ffffff" class="color-5" d="m108.09,32.47c0-2.86,2.31-5.18,5.18-5.18h3.24v-10.42c0-4.9-3.97-8.88-8.88-8.88s-8.88,3.97-8.88,8.88v23.62l-.05.21.08.55c.03,1.37-.29,9.43-11.35,15.72-4.26,2.43-5.75,7.84-3.33,12.1,1.63,2.88,4.64,4.49,7.72,4.49,1.49,0,3-.38,4.38-1.16,17.14-9.74,20.82-24.61,20.3-32.26v-2.49h-3.24c-2.86,0-5.18-2.31-5.18-5.18Z"/>
    <path class="color-2" d="m128.79,27.29h-12.28v10.35h12.28v-10.35Z" fill="url(#color-2)"/>
    <path class="color-3" d="m138,32.47c0-2.86-2.31-5.18-5.18-5.18h-4.04v10.35h4.04c2.86,0,5.18-2.31,5.18-5.18Z" fill="url(#color-3)"/>
    <path class="color-3" d="m113.27,27.29c-2.86,0-5.18,2.31-5.18,5.18s2.31,5.18,5.18,5.18h3.24v-10.35h-3.24Z" fill="url(#color-3)"/>
    <path class="color-1" d="m132.82,13.25h-19.56c-2.86,0-5.18,2.32-5.18,5.18s2.32,5.18,5.18,5.18h19.56c2.86,0,5.18-2.32,5.18-5.18s-2.32-5.18-5.18-5.18Z" fill="url(#color-1)"/>
    <path class="color-3" d="m132.82,41.34h-19.56c-2.86,0-5.18,2.32-5.18,5.18s2.32,5.18,5.18,5.18h19.56c2.86,0,5.18-2.32,5.18-5.18s-2.32-5.18-5.18-5.18Z" fill="url(#color-3)"/>
    <path fill="#ffffff" class="color-5" d="m47.57,106.58h-17.1c-1.81,0-3.27,1.46-3.27,3.27s1.46,3.27,3.27,3.27h17.1c1.81,0,3.27-1.46,3.27-3.27s-1.46-3.27-3.27-3.27Z"/>
    <path fill="#ffffff" class="color-5" d="m156.34,41.55h-6.18c-1.81,0-3.27,1.46-3.27,3.27s1.46,3.27,3.27,3.27h6.18c1.81,0,3.27-1.46,3.27-3.27s-1.46-3.27-3.27-3.27Z"/>
    <path fill="#ffffff" class="color-5" d="m150.71,33.24h-18.99c-1.8,0-3.27,1.46-3.27,3.27s1.46,3.27,3.27,3.27h.27s1.04.13,1.04,1c0,.24-.09.42-.21.56h-11.54c-1.8,0-3.27,1.46-3.27,3.27s1.46,3.27,3.27,3.27h18.99c1.8,0,3.27-1.46,3.27-3.27s-1.46-3.27-3.27-3.27h-2.78c-.1-.13-.16-.3-.16-.54,0-1,1.12-1.02,1.12-1.02h12.26c1.8,0,3.27-1.46,3.27-3.27s-1.46-3.27-3.27-3.27h0Z"/>
</svg>